G04 #@! TF.GenerationSoftware,KiCad,Pcbnew,(5.1.7)-1*
G04 #@! TF.CreationDate,2020-11-09T23:38:36-05:00*
G04 #@! TF.ProjectId,OpeNITHM-full,4f70654e-4954-4484-9d2d-66756c6c2e6b,rev?*
G04 #@! TF.SameCoordinates,Original*
G04 #@! TF.FileFunction,Legend,Top*
G04 #@! TF.FilePolarity,Positive*
%FSLAX46Y46*%
G04 Gerber Fmt 4.6, Leading zero omitted, Abs format (unit mm)*
G04 Created by KiCad (PCBNEW (5.1.7)-1) date 2020-11-09 23:38:36*
%MOMM*%
%LPD*%
G01*
G04 APERTURE LIST*
%ADD10C,0.125000*%
%ADD11C,0.500000*%
%ADD12C,0.120000*%
%ADD13C,0.080000*%
%ADD14C,0.150000*%
G04 APERTURE END LIST*
D10*
X164522619Y-144019285D02*
X164644047Y-144059761D01*
X164684523Y-144100238D01*
X164725000Y-144181190D01*
X164725000Y-144302619D01*
X164684523Y-144383571D01*
X164644047Y-144424047D01*
X164563095Y-144464523D01*
X164239285Y-144464523D01*
X164239285Y-143614523D01*
X164522619Y-143614523D01*
X164603571Y-143655000D01*
X164644047Y-143695476D01*
X164684523Y-143776428D01*
X164684523Y-143857380D01*
X164644047Y-143938333D01*
X164603571Y-143978809D01*
X164522619Y-144019285D01*
X164239285Y-144019285D01*
X165453571Y-144464523D02*
X165453571Y-144019285D01*
X165413095Y-143938333D01*
X165332142Y-143897857D01*
X165170238Y-143897857D01*
X165089285Y-143938333D01*
X165453571Y-144424047D02*
X165372619Y-144464523D01*
X165170238Y-144464523D01*
X165089285Y-144424047D01*
X165048809Y-144343095D01*
X165048809Y-144262142D01*
X165089285Y-144181190D01*
X165170238Y-144140714D01*
X165372619Y-144140714D01*
X165453571Y-144100238D01*
X165817857Y-144424047D02*
X165898809Y-144464523D01*
X166060714Y-144464523D01*
X166141666Y-144424047D01*
X166182142Y-144343095D01*
X166182142Y-144302619D01*
X166141666Y-144221666D01*
X166060714Y-144181190D01*
X165939285Y-144181190D01*
X165858333Y-144140714D01*
X165817857Y-144059761D01*
X165817857Y-144019285D01*
X165858333Y-143938333D01*
X165939285Y-143897857D01*
X166060714Y-143897857D01*
X166141666Y-143938333D01*
X166870238Y-144424047D02*
X166789285Y-144464523D01*
X166627380Y-144464523D01*
X166546428Y-144424047D01*
X166505952Y-144343095D01*
X166505952Y-144019285D01*
X166546428Y-143938333D01*
X166627380Y-143897857D01*
X166789285Y-143897857D01*
X166870238Y-143938333D01*
X166910714Y-144019285D01*
X166910714Y-144100238D01*
X166505952Y-144181190D01*
X167639285Y-144464523D02*
X167639285Y-143614523D01*
X167639285Y-144424047D02*
X167558333Y-144464523D01*
X167396428Y-144464523D01*
X167315476Y-144424047D01*
X167275000Y-144383571D01*
X167234523Y-144302619D01*
X167234523Y-144059761D01*
X167275000Y-143978809D01*
X167315476Y-143938333D01*
X167396428Y-143897857D01*
X167558333Y-143897857D01*
X167639285Y-143938333D01*
X168813095Y-144464523D02*
X168732142Y-144424047D01*
X168691666Y-144383571D01*
X168651190Y-144302619D01*
X168651190Y-144059761D01*
X168691666Y-143978809D01*
X168732142Y-143938333D01*
X168813095Y-143897857D01*
X168934523Y-143897857D01*
X169015476Y-143938333D01*
X169055952Y-143978809D01*
X169096428Y-144059761D01*
X169096428Y-144302619D01*
X169055952Y-144383571D01*
X169015476Y-144424047D01*
X168934523Y-144464523D01*
X168813095Y-144464523D01*
X169460714Y-143897857D02*
X169460714Y-144464523D01*
X169460714Y-143978809D02*
X169501190Y-143938333D01*
X169582142Y-143897857D01*
X169703571Y-143897857D01*
X169784523Y-143938333D01*
X169825000Y-144019285D01*
X169825000Y-144464523D01*
X170796428Y-143897857D02*
X170958333Y-144464523D01*
X171120238Y-144059761D01*
X171282142Y-144464523D01*
X171444047Y-143897857D01*
X171889285Y-144464523D02*
X171808333Y-144424047D01*
X171767857Y-144383571D01*
X171727380Y-144302619D01*
X171727380Y-144059761D01*
X171767857Y-143978809D01*
X171808333Y-143938333D01*
X171889285Y-143897857D01*
X172010714Y-143897857D01*
X172091666Y-143938333D01*
X172132142Y-143978809D01*
X172172619Y-144059761D01*
X172172619Y-144302619D01*
X172132142Y-144383571D01*
X172091666Y-144424047D01*
X172010714Y-144464523D01*
X171889285Y-144464523D01*
X172536904Y-144464523D02*
X172536904Y-143897857D01*
X172536904Y-144059761D02*
X172577380Y-143978809D01*
X172617857Y-143938333D01*
X172698809Y-143897857D01*
X172779761Y-143897857D01*
X173063095Y-144464523D02*
X173063095Y-143614523D01*
X173144047Y-144140714D02*
X173386904Y-144464523D01*
X173386904Y-143897857D02*
X173063095Y-144221666D01*
X174398809Y-144464523D02*
X174398809Y-143614523D01*
X174398809Y-143938333D02*
X174479761Y-143897857D01*
X174641666Y-143897857D01*
X174722619Y-143938333D01*
X174763095Y-143978809D01*
X174803571Y-144059761D01*
X174803571Y-144302619D01*
X174763095Y-144383571D01*
X174722619Y-144424047D01*
X174641666Y-144464523D01*
X174479761Y-144464523D01*
X174398809Y-144424047D01*
X175086904Y-143897857D02*
X175289285Y-144464523D01*
X175491666Y-143897857D02*
X175289285Y-144464523D01*
X175208333Y-144666904D01*
X175167857Y-144707380D01*
X175086904Y-144747857D01*
X155719047Y-145014523D02*
X156002380Y-145864523D01*
X156285714Y-145014523D01*
X156892857Y-145824047D02*
X156811904Y-145864523D01*
X156650000Y-145864523D01*
X156569047Y-145824047D01*
X156528571Y-145743095D01*
X156528571Y-145419285D01*
X156569047Y-145338333D01*
X156650000Y-145297857D01*
X156811904Y-145297857D01*
X156892857Y-145338333D01*
X156933333Y-145419285D01*
X156933333Y-145500238D01*
X156528571Y-145581190D01*
X157297619Y-145864523D02*
X157297619Y-145297857D01*
X157297619Y-145459761D02*
X157338095Y-145378809D01*
X157378571Y-145338333D01*
X157459523Y-145297857D01*
X157540476Y-145297857D01*
X157945238Y-145864523D02*
X157864285Y-145824047D01*
X157823809Y-145783571D01*
X157783333Y-145702619D01*
X157783333Y-145459761D01*
X157823809Y-145378809D01*
X157864285Y-145338333D01*
X157945238Y-145297857D01*
X158066666Y-145297857D01*
X158147619Y-145338333D01*
X158188095Y-145378809D01*
X158228571Y-145459761D01*
X158228571Y-145702619D01*
X158188095Y-145783571D01*
X158147619Y-145824047D01*
X158066666Y-145864523D01*
X157945238Y-145864523D01*
X158511904Y-145864523D02*
X158957142Y-145297857D01*
X158511904Y-145297857D02*
X158957142Y-145864523D01*
X159200000Y-145014523D02*
X159766666Y-145014523D01*
X159200000Y-145864523D01*
X159766666Y-145864523D01*
X160090476Y-145864523D02*
X160090476Y-145297857D01*
X160090476Y-145014523D02*
X160050000Y-145055000D01*
X160090476Y-145095476D01*
X160130952Y-145055000D01*
X160090476Y-145014523D01*
X160090476Y-145095476D01*
X160495238Y-145864523D02*
X160495238Y-145014523D01*
X160576190Y-145540714D02*
X160819047Y-145864523D01*
X160819047Y-145297857D02*
X160495238Y-145621666D01*
X161223809Y-145824047D02*
X161223809Y-145864523D01*
X161183333Y-145945476D01*
X161142857Y-145985952D01*
X162195238Y-145824047D02*
X162276190Y-145864523D01*
X162438095Y-145864523D01*
X162519047Y-145824047D01*
X162559523Y-145743095D01*
X162559523Y-145702619D01*
X162519047Y-145621666D01*
X162438095Y-145581190D01*
X162316666Y-145581190D01*
X162235714Y-145540714D01*
X162195238Y-145459761D01*
X162195238Y-145419285D01*
X162235714Y-145338333D01*
X162316666Y-145297857D01*
X162438095Y-145297857D01*
X162519047Y-145338333D01*
X162923809Y-145864523D02*
X162923809Y-145014523D01*
X163004761Y-145540714D02*
X163247619Y-145864523D01*
X163247619Y-145297857D02*
X162923809Y-145621666D01*
X163733333Y-145864523D02*
X163652380Y-145824047D01*
X163611904Y-145783571D01*
X163571428Y-145702619D01*
X163571428Y-145459761D01*
X163611904Y-145378809D01*
X163652380Y-145338333D01*
X163733333Y-145297857D01*
X163854761Y-145297857D01*
X163935714Y-145338333D01*
X163976190Y-145378809D01*
X164016666Y-145459761D01*
X164016666Y-145702619D01*
X163976190Y-145783571D01*
X163935714Y-145824047D01*
X163854761Y-145864523D01*
X163733333Y-145864523D01*
X164745238Y-145297857D02*
X164745238Y-145985952D01*
X164704761Y-146066904D01*
X164664285Y-146107380D01*
X164583333Y-146147857D01*
X164461904Y-146147857D01*
X164380952Y-146107380D01*
X164745238Y-145824047D02*
X164664285Y-145864523D01*
X164502380Y-145864523D01*
X164421428Y-145824047D01*
X164380952Y-145783571D01*
X164340476Y-145702619D01*
X164340476Y-145459761D01*
X164380952Y-145378809D01*
X164421428Y-145338333D01*
X164502380Y-145297857D01*
X164664285Y-145297857D01*
X164745238Y-145338333D01*
X165514285Y-145864523D02*
X165514285Y-145419285D01*
X165473809Y-145338333D01*
X165392857Y-145297857D01*
X165230952Y-145297857D01*
X165150000Y-145338333D01*
X165514285Y-145824047D02*
X165433333Y-145864523D01*
X165230952Y-145864523D01*
X165150000Y-145824047D01*
X165109523Y-145743095D01*
X165109523Y-145662142D01*
X165150000Y-145581190D01*
X165230952Y-145540714D01*
X165433333Y-145540714D01*
X165514285Y-145500238D01*
X165919047Y-145864523D02*
X165919047Y-145014523D01*
X165919047Y-145338333D02*
X166000000Y-145297857D01*
X166161904Y-145297857D01*
X166242857Y-145338333D01*
X166283333Y-145378809D01*
X166323809Y-145459761D01*
X166323809Y-145702619D01*
X166283333Y-145783571D01*
X166242857Y-145824047D01*
X166161904Y-145864523D01*
X166000000Y-145864523D01*
X165919047Y-145824047D01*
X166607142Y-145297857D02*
X166809523Y-145864523D01*
X167011904Y-145297857D02*
X166809523Y-145864523D01*
X166728571Y-146066904D01*
X166688095Y-146107380D01*
X166607142Y-146147857D01*
X167376190Y-145824047D02*
X167376190Y-145864523D01*
X167335714Y-145945476D01*
X167295238Y-145985952D01*
X168307142Y-145014523D02*
X168509523Y-145864523D01*
X168671428Y-145257380D01*
X168833333Y-145864523D01*
X169035714Y-145014523D01*
X169359523Y-145864523D02*
X169359523Y-145297857D01*
X169359523Y-145014523D02*
X169319047Y-145055000D01*
X169359523Y-145095476D01*
X169400000Y-145055000D01*
X169359523Y-145014523D01*
X169359523Y-145095476D01*
X169764285Y-145297857D02*
X169764285Y-145864523D01*
X169764285Y-145378809D02*
X169804761Y-145338333D01*
X169885714Y-145297857D01*
X170007142Y-145297857D01*
X170088095Y-145338333D01*
X170128571Y-145419285D01*
X170128571Y-145864523D01*
X170533333Y-145419285D02*
X170816666Y-145419285D01*
X170938095Y-145864523D02*
X170533333Y-145864523D01*
X170533333Y-145014523D01*
X170938095Y-145014523D01*
X171302380Y-145297857D02*
X171302380Y-146147857D01*
X171302380Y-145338333D02*
X171383333Y-145297857D01*
X171545238Y-145297857D01*
X171626190Y-145338333D01*
X171666666Y-145378809D01*
X171707142Y-145459761D01*
X171707142Y-145702619D01*
X171666666Y-145783571D01*
X171626190Y-145824047D01*
X171545238Y-145864523D01*
X171383333Y-145864523D01*
X171302380Y-145824047D01*
X172071428Y-145864523D02*
X172071428Y-145297857D01*
X172071428Y-145014523D02*
X172030952Y-145055000D01*
X172071428Y-145095476D01*
X172111904Y-145055000D01*
X172071428Y-145014523D01*
X172071428Y-145095476D01*
X172840476Y-145824047D02*
X172759523Y-145864523D01*
X172597619Y-145864523D01*
X172516666Y-145824047D01*
X172476190Y-145783571D01*
X172435714Y-145702619D01*
X172435714Y-145459761D01*
X172476190Y-145378809D01*
X172516666Y-145338333D01*
X172597619Y-145297857D01*
X172759523Y-145297857D01*
X172840476Y-145338333D01*
X173245238Y-145824047D02*
X173245238Y-145864523D01*
X173204761Y-145945476D01*
X173164285Y-145985952D01*
X174621428Y-145864523D02*
X174621428Y-145419285D01*
X174580952Y-145338333D01*
X174500000Y-145297857D01*
X174338095Y-145297857D01*
X174257142Y-145338333D01*
X174621428Y-145824047D02*
X174540476Y-145864523D01*
X174338095Y-145864523D01*
X174257142Y-145824047D01*
X174216666Y-145743095D01*
X174216666Y-145662142D01*
X174257142Y-145581190D01*
X174338095Y-145540714D01*
X174540476Y-145540714D01*
X174621428Y-145500238D01*
X175026190Y-145297857D02*
X175026190Y-145864523D01*
X175026190Y-145378809D02*
X175066666Y-145338333D01*
X175147619Y-145297857D01*
X175269047Y-145297857D01*
X175350000Y-145338333D01*
X175390476Y-145419285D01*
X175390476Y-145864523D01*
X176159523Y-145864523D02*
X176159523Y-145014523D01*
X176159523Y-145824047D02*
X176078571Y-145864523D01*
X175916666Y-145864523D01*
X175835714Y-145824047D01*
X175795238Y-145783571D01*
X175754761Y-145702619D01*
X175754761Y-145459761D01*
X175795238Y-145378809D01*
X175835714Y-145338333D01*
X175916666Y-145297857D01*
X176078571Y-145297857D01*
X176159523Y-145338333D01*
X177211904Y-145864523D02*
X177211904Y-145297857D01*
X177211904Y-145378809D02*
X177252380Y-145338333D01*
X177333333Y-145297857D01*
X177454761Y-145297857D01*
X177535714Y-145338333D01*
X177576190Y-145419285D01*
X177576190Y-145864523D01*
X177576190Y-145419285D02*
X177616666Y-145338333D01*
X177697619Y-145297857D01*
X177819047Y-145297857D01*
X177900000Y-145338333D01*
X177940476Y-145419285D01*
X177940476Y-145864523D01*
X178345238Y-145864523D02*
X178345238Y-145297857D01*
X178345238Y-145014523D02*
X178304761Y-145055000D01*
X178345238Y-145095476D01*
X178385714Y-145055000D01*
X178345238Y-145014523D01*
X178345238Y-145095476D01*
X179114285Y-145824047D02*
X179033333Y-145864523D01*
X178871428Y-145864523D01*
X178790476Y-145824047D01*
X178750000Y-145783571D01*
X178709523Y-145702619D01*
X178709523Y-145459761D01*
X178750000Y-145378809D01*
X178790476Y-145338333D01*
X178871428Y-145297857D01*
X179033333Y-145297857D01*
X179114285Y-145338333D01*
X179478571Y-145864523D02*
X179478571Y-145014523D01*
X179559523Y-145540714D02*
X179802380Y-145864523D01*
X179802380Y-145297857D02*
X179478571Y-145621666D01*
X180530952Y-145864523D02*
X180530952Y-145419285D01*
X180490476Y-145338333D01*
X180409523Y-145297857D01*
X180247619Y-145297857D01*
X180166666Y-145338333D01*
X180530952Y-145824047D02*
X180450000Y-145864523D01*
X180247619Y-145864523D01*
X180166666Y-145824047D01*
X180126190Y-145743095D01*
X180126190Y-145662142D01*
X180166666Y-145581190D01*
X180247619Y-145540714D01*
X180450000Y-145540714D01*
X180530952Y-145500238D01*
X180935714Y-145864523D02*
X180935714Y-145014523D01*
X180935714Y-145338333D02*
X181016666Y-145297857D01*
X181178571Y-145297857D01*
X181259523Y-145338333D01*
X181300000Y-145378809D01*
X181340476Y-145459761D01*
X181340476Y-145702619D01*
X181300000Y-145783571D01*
X181259523Y-145824047D01*
X181178571Y-145864523D01*
X181016666Y-145864523D01*
X180935714Y-145824047D01*
X181704761Y-145864523D02*
X181704761Y-145297857D01*
X181704761Y-145459761D02*
X181745238Y-145378809D01*
X181785714Y-145338333D01*
X181866666Y-145297857D01*
X181947619Y-145297857D01*
X182230952Y-145864523D02*
X182230952Y-145297857D01*
X182230952Y-145014523D02*
X182190476Y-145055000D01*
X182230952Y-145095476D01*
X182271428Y-145055000D01*
X182230952Y-145014523D01*
X182230952Y-145095476D01*
X183000000Y-145297857D02*
X183000000Y-145985952D01*
X182959523Y-146066904D01*
X182919047Y-146107380D01*
X182838095Y-146147857D01*
X182716666Y-146147857D01*
X182635714Y-146107380D01*
X183000000Y-145824047D02*
X182919047Y-145864523D01*
X182757142Y-145864523D01*
X182676190Y-145824047D01*
X182635714Y-145783571D01*
X182595238Y-145702619D01*
X182595238Y-145459761D01*
X182635714Y-145378809D01*
X182676190Y-145338333D01*
X182757142Y-145297857D01*
X182919047Y-145297857D01*
X183000000Y-145338333D01*
X183323809Y-145014523D02*
X183890476Y-145014523D01*
X183526190Y-145864523D01*
X166890476Y-141289523D02*
X166890476Y-140439523D01*
X167092857Y-140439523D01*
X167214285Y-140480000D01*
X167295238Y-140560952D01*
X167335714Y-140641904D01*
X167376190Y-140803809D01*
X167376190Y-140925238D01*
X167335714Y-141087142D01*
X167295238Y-141168095D01*
X167214285Y-141249047D01*
X167092857Y-141289523D01*
X166890476Y-141289523D01*
X168064285Y-141249047D02*
X167983333Y-141289523D01*
X167821428Y-141289523D01*
X167740476Y-141249047D01*
X167700000Y-141168095D01*
X167700000Y-140844285D01*
X167740476Y-140763333D01*
X167821428Y-140722857D01*
X167983333Y-140722857D01*
X168064285Y-140763333D01*
X168104761Y-140844285D01*
X168104761Y-140925238D01*
X167700000Y-141006190D01*
X168428571Y-141249047D02*
X168509523Y-141289523D01*
X168671428Y-141289523D01*
X168752380Y-141249047D01*
X168792857Y-141168095D01*
X168792857Y-141127619D01*
X168752380Y-141046666D01*
X168671428Y-141006190D01*
X168550000Y-141006190D01*
X168469047Y-140965714D01*
X168428571Y-140884761D01*
X168428571Y-140844285D01*
X168469047Y-140763333D01*
X168550000Y-140722857D01*
X168671428Y-140722857D01*
X168752380Y-140763333D01*
X169157142Y-141289523D02*
X169157142Y-140722857D01*
X169157142Y-140439523D02*
X169116666Y-140480000D01*
X169157142Y-140520476D01*
X169197619Y-140480000D01*
X169157142Y-140439523D01*
X169157142Y-140520476D01*
X169926190Y-140722857D02*
X169926190Y-141410952D01*
X169885714Y-141491904D01*
X169845238Y-141532380D01*
X169764285Y-141572857D01*
X169642857Y-141572857D01*
X169561904Y-141532380D01*
X169926190Y-141249047D02*
X169845238Y-141289523D01*
X169683333Y-141289523D01*
X169602380Y-141249047D01*
X169561904Y-141208571D01*
X169521428Y-141127619D01*
X169521428Y-140884761D01*
X169561904Y-140803809D01*
X169602380Y-140763333D01*
X169683333Y-140722857D01*
X169845238Y-140722857D01*
X169926190Y-140763333D01*
X170330952Y-140722857D02*
X170330952Y-141289523D01*
X170330952Y-140803809D02*
X170371428Y-140763333D01*
X170452380Y-140722857D01*
X170573809Y-140722857D01*
X170654761Y-140763333D01*
X170695238Y-140844285D01*
X170695238Y-141289523D01*
X171747619Y-141289523D02*
X171747619Y-140439523D01*
X171747619Y-140763333D02*
X171828571Y-140722857D01*
X171990476Y-140722857D01*
X172071428Y-140763333D01*
X172111904Y-140803809D01*
X172152380Y-140884761D01*
X172152380Y-141127619D01*
X172111904Y-141208571D01*
X172071428Y-141249047D01*
X171990476Y-141289523D01*
X171828571Y-141289523D01*
X171747619Y-141249047D01*
X172435714Y-140722857D02*
X172638095Y-141289523D01*
X172840476Y-140722857D02*
X172638095Y-141289523D01*
X172557142Y-141491904D01*
X172516666Y-141532380D01*
X172435714Y-141572857D01*
X166364285Y-142689523D02*
X166364285Y-141839523D01*
X166850000Y-142689523D02*
X166485714Y-142203809D01*
X166850000Y-141839523D02*
X166364285Y-142325238D01*
X167538095Y-142649047D02*
X167457142Y-142689523D01*
X167295238Y-142689523D01*
X167214285Y-142649047D01*
X167173809Y-142568095D01*
X167173809Y-142244285D01*
X167214285Y-142163333D01*
X167295238Y-142122857D01*
X167457142Y-142122857D01*
X167538095Y-142163333D01*
X167578571Y-142244285D01*
X167578571Y-142325238D01*
X167173809Y-142406190D01*
X167861904Y-142122857D02*
X168064285Y-142689523D01*
X168266666Y-142122857D01*
X168590476Y-142689523D02*
X168590476Y-142122857D01*
X168590476Y-142203809D02*
X168630952Y-142163333D01*
X168711904Y-142122857D01*
X168833333Y-142122857D01*
X168914285Y-142163333D01*
X168954761Y-142244285D01*
X168954761Y-142689523D01*
X168954761Y-142244285D02*
X168995238Y-142163333D01*
X169076190Y-142122857D01*
X169197619Y-142122857D01*
X169278571Y-142163333D01*
X169319047Y-142244285D01*
X169319047Y-142689523D01*
X170088095Y-142689523D02*
X170088095Y-142244285D01*
X170047619Y-142163333D01*
X169966666Y-142122857D01*
X169804761Y-142122857D01*
X169723809Y-142163333D01*
X170088095Y-142649047D02*
X170007142Y-142689523D01*
X169804761Y-142689523D01*
X169723809Y-142649047D01*
X169683333Y-142568095D01*
X169683333Y-142487142D01*
X169723809Y-142406190D01*
X169804761Y-142365714D01*
X170007142Y-142365714D01*
X170088095Y-142325238D01*
X170492857Y-142122857D02*
X170492857Y-142689523D01*
X170492857Y-142203809D02*
X170533333Y-142163333D01*
X170614285Y-142122857D01*
X170735714Y-142122857D01*
X170816666Y-142163333D01*
X170857142Y-142244285D01*
X170857142Y-142689523D01*
X171180952Y-141839523D02*
X171707142Y-141839523D01*
X171423809Y-142163333D01*
X171545238Y-142163333D01*
X171626190Y-142203809D01*
X171666666Y-142244285D01*
X171707142Y-142325238D01*
X171707142Y-142527619D01*
X171666666Y-142608571D01*
X171626190Y-142649047D01*
X171545238Y-142689523D01*
X171302380Y-142689523D01*
X171221428Y-142649047D01*
X171180952Y-142608571D01*
X172030952Y-141920476D02*
X172071428Y-141880000D01*
X172152380Y-141839523D01*
X172354761Y-141839523D01*
X172435714Y-141880000D01*
X172476190Y-141920476D01*
X172516666Y-142001428D01*
X172516666Y-142082380D01*
X172476190Y-142203809D01*
X171990476Y-142689523D01*
X172516666Y-142689523D01*
X172800000Y-141839523D02*
X173326190Y-141839523D01*
X173042857Y-142163333D01*
X173164285Y-142163333D01*
X173245238Y-142203809D01*
X173285714Y-142244285D01*
X173326190Y-142325238D01*
X173326190Y-142527619D01*
X173285714Y-142608571D01*
X173245238Y-142649047D01*
X173164285Y-142689523D01*
X172921428Y-142689523D01*
X172840476Y-142649047D01*
X172800000Y-142608571D01*
D11*
X324220000Y-143220000D02*
G75*
G03*
X324220000Y-143220000I-100000J0D01*
G01*
D12*
X325120000Y-142260000D02*
X321670000Y-142260000D01*
X325120000Y-142260000D02*
X327070000Y-142260000D01*
X325120000Y-152380000D02*
X323170000Y-152380000D01*
X325120000Y-152380000D02*
X327070000Y-152380000D01*
X-74165000Y-144000000D02*
X-76965000Y-144000000D01*
X-77615000Y-143300000D02*
X-77615000Y-142700000D01*
X-76965000Y-142000000D02*
X-74165000Y-142000000D01*
X-73515000Y-142700000D02*
X-73515000Y-143300000D01*
X-73515000Y-143300000D02*
G75*
G02*
X-74215000Y-144000000I-700000J0D01*
G01*
X-74215000Y-142000000D02*
G75*
G02*
X-73515000Y-142700000I0J-700000D01*
G01*
X-77615000Y-142700000D02*
G75*
G02*
X-76915000Y-142000000I700000J0D01*
G01*
X-76915000Y-144000000D02*
G75*
G02*
X-77615000Y-143300000I0J700000D01*
G01*
X-57890580Y-131260000D02*
X-57609420Y-131260000D01*
X-57890580Y-130240000D02*
X-57609420Y-130240000D01*
D11*
X88000000Y-143220000D02*
G75*
G03*
X88000000Y-143220000I-100000J0D01*
G01*
D12*
X88900000Y-142260000D02*
X85450000Y-142260000D01*
X88900000Y-142260000D02*
X90850000Y-142260000D01*
X88900000Y-152380000D02*
X86950000Y-152380000D01*
X88900000Y-152380000D02*
X90850000Y-152380000D01*
X325474420Y-141480000D02*
X325755580Y-141480000D01*
X325474420Y-140460000D02*
X325755580Y-140460000D01*
X-34558500Y-149812742D02*
X-34558500Y-150287258D01*
X-33513500Y-149812742D02*
X-33513500Y-150287258D01*
D11*
X-30110000Y-143220000D02*
G75*
G03*
X-30110000Y-143220000I-100000J0D01*
G01*
D12*
X-29210000Y-142260000D02*
X-32660000Y-142260000D01*
X-29210000Y-142260000D02*
X-27260000Y-142260000D01*
X-29210000Y-152380000D02*
X-31160000Y-152380000D01*
X-29210000Y-152380000D02*
X-27260000Y-152380000D01*
X369884420Y-131260000D02*
X370165580Y-131260000D01*
X369884420Y-130240000D02*
X370165580Y-130240000D01*
X355134420Y-131260000D02*
X355415580Y-131260000D01*
X355134420Y-130240000D02*
X355415580Y-130240000D01*
X340384420Y-131260000D02*
X340665580Y-131260000D01*
X340384420Y-130240000D02*
X340665580Y-130240000D01*
X325634420Y-131260000D02*
X325915580Y-131260000D01*
X325634420Y-130240000D02*
X325915580Y-130240000D01*
X310884420Y-131260000D02*
X311165580Y-131260000D01*
X310884420Y-130240000D02*
X311165580Y-130240000D01*
X296134420Y-131260000D02*
X296415580Y-131260000D01*
X296134420Y-130240000D02*
X296415580Y-130240000D01*
X281384420Y-131260000D02*
X281665580Y-131260000D01*
X281384420Y-130240000D02*
X281665580Y-130240000D01*
X266634420Y-131260000D02*
X266915580Y-131260000D01*
X266634420Y-130240000D02*
X266915580Y-130240000D01*
X251884420Y-131260000D02*
X252165580Y-131260000D01*
X251884420Y-130240000D02*
X252165580Y-130240000D01*
X237134420Y-131260000D02*
X237415580Y-131260000D01*
X237134420Y-130240000D02*
X237415580Y-130240000D01*
X222384420Y-131260000D02*
X222665580Y-131260000D01*
X222384420Y-130240000D02*
X222665580Y-130240000D01*
X207634420Y-131260000D02*
X207915580Y-131260000D01*
X207634420Y-130240000D02*
X207915580Y-130240000D01*
X192884420Y-131260000D02*
X193165580Y-131260000D01*
X192884420Y-130240000D02*
X193165580Y-130240000D01*
X178134420Y-131260000D02*
X178415580Y-131260000D01*
X178134420Y-130240000D02*
X178415580Y-130240000D01*
X163384420Y-131260000D02*
X163665580Y-131260000D01*
X163384420Y-130240000D02*
X163665580Y-130240000D01*
X148634420Y-131260000D02*
X148915580Y-131260000D01*
X148634420Y-130240000D02*
X148915580Y-130240000D01*
X133884420Y-131260000D02*
X134165580Y-131260000D01*
X133884420Y-130240000D02*
X134165580Y-130240000D01*
X119134420Y-131260000D02*
X119415580Y-131260000D01*
X119134420Y-130240000D02*
X119415580Y-130240000D01*
X104384420Y-131260000D02*
X104665580Y-131260000D01*
X104384420Y-130240000D02*
X104665580Y-130240000D01*
X89634420Y-131260000D02*
X89915580Y-131260000D01*
X89634420Y-130240000D02*
X89915580Y-130240000D01*
X74884420Y-131260000D02*
X75165580Y-131260000D01*
X74884420Y-130240000D02*
X75165580Y-130240000D01*
X60134420Y-131260000D02*
X60415580Y-131260000D01*
X60134420Y-130240000D02*
X60415580Y-130240000D01*
X45384420Y-131260000D02*
X45665580Y-131260000D01*
X45384420Y-130240000D02*
X45665580Y-130240000D01*
X30634420Y-131260000D02*
X30915580Y-131260000D01*
X30634420Y-130240000D02*
X30915580Y-130240000D01*
X15884420Y-131260000D02*
X16165580Y-131260000D01*
X15884420Y-130240000D02*
X16165580Y-130240000D01*
X1134420Y-131260000D02*
X1415580Y-131260000D01*
X1134420Y-130240000D02*
X1415580Y-130240000D01*
X-13615580Y-131260000D02*
X-13334420Y-131260000D01*
X-13615580Y-130240000D02*
X-13334420Y-130240000D01*
X-28365580Y-131260000D02*
X-28084420Y-131260000D01*
X-28365580Y-130240000D02*
X-28084420Y-130240000D01*
X-43115580Y-131260000D02*
X-42834420Y-131260000D01*
X-43115580Y-130240000D02*
X-42834420Y-130240000D01*
X-72640580Y-131260000D02*
X-72359420Y-131260000D01*
X-72640580Y-130240000D02*
X-72359420Y-130240000D01*
X350850000Y-124250000D02*
X350850000Y-125400000D01*
X358150000Y-124250000D02*
X350850000Y-124250000D01*
X358150000Y-129750000D02*
X350850000Y-129750000D01*
X321350000Y-124250000D02*
X321350000Y-125400000D01*
X328650000Y-124250000D02*
X321350000Y-124250000D01*
X328650000Y-129750000D02*
X321350000Y-129750000D01*
X291850000Y-124250000D02*
X291850000Y-125400000D01*
X299150000Y-124250000D02*
X291850000Y-124250000D01*
X299150000Y-129750000D02*
X291850000Y-129750000D01*
X262350000Y-124250000D02*
X262350000Y-125400000D01*
X269650000Y-124250000D02*
X262350000Y-124250000D01*
X269650000Y-129750000D02*
X262350000Y-129750000D01*
X232850000Y-124250000D02*
X232850000Y-125400000D01*
X240150000Y-124250000D02*
X232850000Y-124250000D01*
X240150000Y-129750000D02*
X232850000Y-129750000D01*
X203350000Y-124250000D02*
X203350000Y-125400000D01*
X210650000Y-124250000D02*
X203350000Y-124250000D01*
X210650000Y-129750000D02*
X203350000Y-129750000D01*
X173850000Y-124250000D02*
X173850000Y-125400000D01*
X181150000Y-124250000D02*
X173850000Y-124250000D01*
X181150000Y-129750000D02*
X173850000Y-129750000D01*
X144350000Y-124250000D02*
X144350000Y-125400000D01*
X151650000Y-124250000D02*
X144350000Y-124250000D01*
X151650000Y-129750000D02*
X144350000Y-129750000D01*
X114850000Y-124250000D02*
X114850000Y-125400000D01*
X122150000Y-124250000D02*
X114850000Y-124250000D01*
X122150000Y-129750000D02*
X114850000Y-129750000D01*
X85350000Y-124250000D02*
X85350000Y-125400000D01*
X92650000Y-124250000D02*
X85350000Y-124250000D01*
X92650000Y-129750000D02*
X85350000Y-129750000D01*
X55850000Y-124250000D02*
X55850000Y-125400000D01*
X63150000Y-124250000D02*
X55850000Y-124250000D01*
X63150000Y-129750000D02*
X55850000Y-129750000D01*
X26350000Y-124250000D02*
X26350000Y-125400000D01*
X33650000Y-124250000D02*
X26350000Y-124250000D01*
X33650000Y-129750000D02*
X26350000Y-129750000D01*
X-3150000Y-124250000D02*
X-3150000Y-125400000D01*
X4150000Y-124250000D02*
X-3150000Y-124250000D01*
X4150000Y-129750000D02*
X-3150000Y-129750000D01*
X-32650000Y-124250000D02*
X-32650000Y-125400000D01*
X-25350000Y-124250000D02*
X-32650000Y-124250000D01*
X-25350000Y-129750000D02*
X-32650000Y-129750000D01*
X365600000Y-124250000D02*
X365600000Y-125400000D01*
X372900000Y-124250000D02*
X365600000Y-124250000D01*
X372900000Y-129750000D02*
X365600000Y-129750000D01*
X336100000Y-124250000D02*
X336100000Y-125400000D01*
X343400000Y-124250000D02*
X336100000Y-124250000D01*
X343400000Y-129750000D02*
X336100000Y-129750000D01*
X306600000Y-124250000D02*
X306600000Y-125400000D01*
X313900000Y-124250000D02*
X306600000Y-124250000D01*
X313900000Y-129750000D02*
X306600000Y-129750000D01*
X277100000Y-124250000D02*
X277100000Y-125400000D01*
X284400000Y-124250000D02*
X277100000Y-124250000D01*
X284400000Y-129750000D02*
X277100000Y-129750000D01*
X247600000Y-124250000D02*
X247600000Y-125400000D01*
X254900000Y-124250000D02*
X247600000Y-124250000D01*
X254900000Y-129750000D02*
X247600000Y-129750000D01*
X218100000Y-124250000D02*
X218100000Y-125400000D01*
X225400000Y-124250000D02*
X218100000Y-124250000D01*
X225400000Y-129750000D02*
X218100000Y-129750000D01*
X188600000Y-124250000D02*
X188600000Y-125400000D01*
X195900000Y-124250000D02*
X188600000Y-124250000D01*
X195900000Y-129750000D02*
X188600000Y-129750000D01*
X159100000Y-124250000D02*
X159100000Y-125400000D01*
X166400000Y-124250000D02*
X159100000Y-124250000D01*
X166400000Y-129750000D02*
X159100000Y-129750000D01*
X129600000Y-124250000D02*
X129600000Y-125400000D01*
X136900000Y-124250000D02*
X129600000Y-124250000D01*
X136900000Y-129750000D02*
X129600000Y-129750000D01*
X100100000Y-124250000D02*
X100100000Y-125400000D01*
X107400000Y-124250000D02*
X100100000Y-124250000D01*
X107400000Y-129750000D02*
X100100000Y-129750000D01*
X70600000Y-124250000D02*
X70600000Y-125400000D01*
X77900000Y-124250000D02*
X70600000Y-124250000D01*
X77900000Y-129750000D02*
X70600000Y-129750000D01*
X41100000Y-124250000D02*
X41100000Y-125400000D01*
X48400000Y-124250000D02*
X41100000Y-124250000D01*
X48400000Y-129750000D02*
X41100000Y-129750000D01*
X11600000Y-124250000D02*
X11600000Y-125400000D01*
X18900000Y-124250000D02*
X11600000Y-124250000D01*
X18900000Y-129750000D02*
X11600000Y-129750000D01*
X-17900000Y-124250000D02*
X-17900000Y-125400000D01*
X-10600000Y-124250000D02*
X-17900000Y-124250000D01*
X-10600000Y-129750000D02*
X-17900000Y-129750000D01*
X-47400000Y-124250000D02*
X-47400000Y-125400000D01*
X-40100000Y-124250000D02*
X-47400000Y-124250000D01*
X-40100000Y-129750000D02*
X-47400000Y-129750000D01*
X-62150000Y-124250000D02*
X-62150000Y-125400000D01*
X-54850000Y-124250000D02*
X-62150000Y-124250000D01*
X-54850000Y-129750000D02*
X-62150000Y-129750000D01*
X-76900000Y-124250000D02*
X-76900000Y-125400000D01*
X-69600000Y-124250000D02*
X-76900000Y-124250000D01*
X-69600000Y-129750000D02*
X-76900000Y-129750000D01*
X89254420Y-141480000D02*
X89535580Y-141480000D01*
X89254420Y-140460000D02*
X89535580Y-140460000D01*
X207364420Y-141480000D02*
X207645580Y-141480000D01*
X207364420Y-140460000D02*
X207645580Y-140460000D01*
X-28855580Y-141480000D02*
X-28574420Y-141480000D01*
X-28855580Y-140460000D02*
X-28574420Y-140460000D01*
D11*
X206110000Y-143220000D02*
G75*
G03*
X206110000Y-143220000I-100000J0D01*
G01*
D12*
X207010000Y-142260000D02*
X203560000Y-142260000D01*
X207010000Y-142260000D02*
X208960000Y-142260000D01*
X207010000Y-152380000D02*
X205060000Y-152380000D01*
X207010000Y-152380000D02*
X208960000Y-152380000D01*
X83551500Y-149812742D02*
X83551500Y-150287258D01*
X84596500Y-149812742D02*
X84596500Y-150287258D01*
X201661500Y-149812742D02*
X201661500Y-150287258D01*
X202706500Y-149812742D02*
X202706500Y-150287258D01*
X319771500Y-149812742D02*
X319771500Y-150287258D01*
X320816500Y-149812742D02*
X320816500Y-150287258D01*
X163042600Y-141020800D02*
G75*
G03*
X163042600Y-141020800I-50800J0D01*
G01*
X163144200Y-141020800D02*
G75*
G03*
X163144200Y-141020800I-152400J0D01*
G01*
X163247067Y-141020800D02*
G75*
G03*
X163247067Y-141020800I-255267J0D01*
G01*
X149047200Y-141681200D02*
X149631400Y-141681200D01*
X149047200Y-141605000D02*
X149047200Y-141681200D01*
X149606000Y-141605000D02*
X149047200Y-141605000D01*
X149606000Y-141503400D02*
X149606000Y-141605000D01*
X149047200Y-141503400D02*
X149606000Y-141503400D01*
X149072600Y-140284200D02*
X149631400Y-140284200D01*
X149072600Y-140208000D02*
X149072600Y-140284200D01*
X149631400Y-140208000D02*
X149072600Y-140208000D01*
X149631400Y-140106400D02*
X149631400Y-140208000D01*
X148971000Y-140106400D02*
X149631400Y-140106400D01*
X148971000Y-142519400D02*
X148971000Y-140106400D01*
X148894800Y-142519400D02*
X148971000Y-142519400D01*
X148894800Y-140106400D02*
X148894800Y-142519400D01*
X148793200Y-140106400D02*
X148894800Y-140106400D01*
X148793200Y-142494000D02*
X148793200Y-140106400D01*
X152400000Y-140843000D02*
X151409400Y-140843000D01*
X152400000Y-140792200D02*
X152400000Y-140843000D01*
X151434800Y-140792200D02*
X152400000Y-140792200D01*
X151434800Y-140690600D02*
X151434800Y-140792200D01*
X152349200Y-140690600D02*
X151434800Y-140690600D01*
X151358600Y-141655800D02*
X151358600Y-140030200D01*
X151257000Y-141655800D02*
X151358600Y-141655800D01*
X151257000Y-139954000D02*
X151257000Y-141655800D01*
X152501600Y-139954000D02*
X151257000Y-139954000D01*
X152501600Y-139877800D02*
X151257000Y-139877800D01*
X152577800Y-139776200D02*
X152501600Y-139877800D01*
X151180800Y-139776200D02*
X152577800Y-139776200D01*
X151180800Y-141706600D02*
X151180800Y-139776200D01*
X152476200Y-141706600D02*
X151180800Y-141706600D01*
X152552400Y-141757400D02*
X152476200Y-141706600D01*
X151155400Y-141757400D02*
X152552400Y-141757400D01*
X151155400Y-141859000D02*
X151155400Y-141757400D01*
X152603200Y-141859000D02*
X151155400Y-141859000D01*
X153492200Y-140360400D02*
X153492200Y-142519400D01*
X153593800Y-140360400D02*
X153492200Y-140360400D01*
X153593800Y-142494000D02*
X153593800Y-140360400D01*
X153695400Y-142494000D02*
X153593800Y-142494000D01*
X153695400Y-140360400D02*
X153695400Y-142494000D01*
X153746200Y-140741400D02*
X154889200Y-142468600D01*
X153746200Y-140563600D02*
X153746200Y-140741400D01*
X154889200Y-142367000D02*
X153746200Y-140563600D01*
X154889200Y-142240000D02*
X154889200Y-142367000D01*
X153771600Y-140487400D02*
X154889200Y-142240000D01*
X153771600Y-140385800D02*
X153771600Y-140487400D01*
X154914600Y-142138400D02*
X153771600Y-140385800D01*
X154965400Y-142468600D02*
X154965400Y-140411200D01*
X155016200Y-142468600D02*
X154965400Y-142468600D01*
X155016200Y-140411200D02*
X155016200Y-142468600D01*
X155117800Y-140335000D02*
X155016200Y-140411200D01*
X155117800Y-142494000D02*
X155117800Y-140335000D01*
X155194000Y-142494000D02*
X155117800Y-142494000D01*
X155194000Y-140258800D02*
X155194000Y-142494000D01*
X156210000Y-141859000D02*
X156210000Y-139623800D01*
X156159200Y-141859000D02*
X156210000Y-141859000D01*
X156159200Y-139674600D02*
X156159200Y-141859000D01*
X156057600Y-139725400D02*
X156159200Y-139674600D01*
X156057600Y-141833600D02*
X156057600Y-139725400D01*
X155981400Y-141833600D02*
X156057600Y-141833600D01*
X155981400Y-139776200D02*
X155981400Y-141833600D01*
X157734000Y-140614400D02*
X157734000Y-142494000D01*
X157835600Y-140589000D02*
X157734000Y-140614400D01*
X157835600Y-142494000D02*
X157835600Y-140589000D01*
X157911800Y-142494000D02*
X157835600Y-142494000D01*
X157911800Y-140614400D02*
X157911800Y-142494000D01*
X157022800Y-140538200D02*
X158648400Y-140538200D01*
X156997400Y-140462000D02*
X157022800Y-140538200D01*
X158597600Y-140462000D02*
X156997400Y-140462000D01*
X158597600Y-140385800D02*
X158597600Y-140462000D01*
X157022800Y-140385800D02*
X158597600Y-140385800D01*
X159715200Y-140766800D02*
X160756600Y-140766800D01*
X159715200Y-140665200D02*
X159715200Y-140766800D01*
X160782000Y-140665200D02*
X159715200Y-140665200D01*
X160782000Y-140589000D02*
X160782000Y-140665200D01*
X159664400Y-140589000D02*
X160782000Y-140589000D01*
X159435800Y-139801600D02*
X159435800Y-141859000D01*
X159512000Y-139700000D02*
X159435800Y-139801600D01*
X159512000Y-141833600D02*
X159512000Y-139700000D01*
X159613600Y-141833600D02*
X159512000Y-141833600D01*
X159613600Y-139649200D02*
X159613600Y-141833600D01*
X160832800Y-139801600D02*
X160832800Y-141833600D01*
X160934400Y-139674600D02*
X160832800Y-139801600D01*
X160934400Y-141859000D02*
X160934400Y-139674600D01*
X161036000Y-141859000D02*
X160934400Y-141859000D01*
X161036000Y-139623800D02*
X161036000Y-141859000D01*
X162128200Y-140360400D02*
X162153600Y-140233400D01*
X162255200Y-140233400D02*
X162128200Y-140360400D01*
X162077400Y-140106400D02*
X162255200Y-140233400D01*
X162077400Y-142189200D02*
X162077400Y-140106400D01*
X162001200Y-142189200D02*
X162077400Y-142189200D01*
X162001200Y-140081000D02*
X162001200Y-142189200D01*
X161899600Y-140004800D02*
X162001200Y-140081000D01*
X161899600Y-142189200D02*
X161899600Y-140004800D01*
X161823400Y-142189200D02*
X161899600Y-142189200D01*
X161823400Y-139954000D02*
X161823400Y-142189200D01*
X163779200Y-140309600D02*
X163753800Y-140208000D01*
X163880800Y-140131800D02*
X163779200Y-140309600D01*
X163880800Y-142189200D02*
X163880800Y-140131800D01*
X163982400Y-142189200D02*
X163880800Y-142189200D01*
X163982400Y-140081000D02*
X163982400Y-142189200D01*
X164084000Y-140004800D02*
X163982400Y-140081000D01*
X164084000Y-142189200D02*
X164084000Y-140004800D01*
X164185600Y-142189200D02*
X164084000Y-142189200D01*
X164185600Y-139928600D02*
X164185600Y-142189200D01*
X164007800Y-141020800D02*
G75*
G03*
X164007800Y-141020800I-1016000J0D01*
G01*
X163906200Y-141020800D02*
G75*
G03*
X163906200Y-141020800I-914400J0D01*
G01*
X147956154Y-140995400D02*
G75*
G03*
X147956154Y-140995400I-1118754J0D01*
G01*
X147880038Y-140995400D02*
G75*
G03*
X147880038Y-140995400I-1042638J0D01*
G01*
X147777543Y-140995400D02*
G75*
G03*
X147777543Y-140995400I-940143J0D01*
G01*
X146888200Y-140995400D02*
G75*
G03*
X146888200Y-140995400I-50800J0D01*
G01*
X146989800Y-140995400D02*
G75*
G03*
X146989800Y-140995400I-152400J0D01*
G01*
X147091400Y-140995400D02*
G75*
G03*
X147091400Y-140995400I-254000J0D01*
G01*
D13*
X161569400Y-142443200D02*
X161569400Y-139496800D01*
X162356800Y-142443200D02*
X161569400Y-142443200D01*
X162356800Y-142011400D02*
X162356800Y-142443200D01*
X163626800Y-142443200D02*
X163626800Y-142011400D01*
X164414200Y-142443200D02*
X163626800Y-142443200D01*
X164414200Y-139496800D02*
X164414200Y-142443200D01*
X163601400Y-140004800D02*
X164414200Y-139496800D01*
X161569400Y-139496800D02*
X162382200Y-140004800D01*
D12*
X161747200Y-139827000D02*
X162331400Y-140182600D01*
X161747200Y-142265400D02*
X161747200Y-139827000D01*
X162179000Y-142265400D02*
X161747200Y-142265400D01*
X162179000Y-142265400D02*
X162179000Y-141706600D01*
X164236400Y-139827000D02*
X163652200Y-140182600D01*
X164236400Y-142265400D02*
X164236400Y-139827000D01*
X163804600Y-142265400D02*
X164236400Y-142265400D01*
X163804600Y-142265400D02*
X163804600Y-141706600D01*
X163355473Y-141020800D02*
G75*
G03*
X163355473Y-141020800I-363673J0D01*
G01*
X163830000Y-141020800D02*
G75*
G03*
X163830000Y-141020800I-838200J0D01*
G01*
D13*
X160553400Y-139623800D02*
X161290000Y-139192000D01*
X159156400Y-139623800D02*
X159893000Y-139192000D01*
D12*
X159334200Y-141935200D02*
X159334200Y-139725400D01*
X159715200Y-141935200D02*
X159334200Y-141935200D01*
X159715200Y-140843000D02*
X159715200Y-141935200D01*
X160731200Y-140843000D02*
X159715200Y-140843000D01*
X160731200Y-141935200D02*
X160731200Y-140843000D01*
X161112200Y-141935200D02*
X160731200Y-141935200D01*
X161112200Y-139496800D02*
X161112200Y-141935200D01*
X160731200Y-139725400D02*
X161112200Y-139496800D01*
X160731200Y-140512800D02*
X160731200Y-139725400D01*
X159715200Y-140512800D02*
X160731200Y-140512800D01*
X159715200Y-139496800D02*
X159715200Y-140512800D01*
X159334200Y-139725400D02*
X159715200Y-139496800D01*
D13*
X159893000Y-142113000D02*
X159156400Y-142113000D01*
X159893000Y-141020800D02*
X159893000Y-142113000D01*
X160553400Y-141020800D02*
X159893000Y-141020800D01*
X160553400Y-142113000D02*
X160553400Y-141020800D01*
X161290000Y-142113000D02*
X160553400Y-142113000D01*
X161290000Y-139192000D02*
X161290000Y-142113000D01*
X160553400Y-140335000D02*
X160553400Y-139623800D01*
X159893000Y-140335000D02*
X160553400Y-140335000D01*
X159893000Y-139192000D02*
X159893000Y-140335000D01*
X159156400Y-142113000D02*
X159156400Y-139623800D01*
X156743400Y-140792200D02*
X156743400Y-140106400D01*
X157454600Y-140792200D02*
X156743400Y-140792200D01*
X157454600Y-142748000D02*
X157454600Y-140792200D01*
X158191200Y-142748000D02*
X157454600Y-142748000D01*
X158191200Y-140792200D02*
X158191200Y-142748000D01*
X158877000Y-140792200D02*
X158191200Y-140792200D01*
X158877000Y-140106400D02*
X158877000Y-140792200D01*
X156743400Y-140106400D02*
X158877000Y-140106400D01*
D12*
X156921200Y-140614400D02*
X156921200Y-140284200D01*
X157632400Y-140614400D02*
X156921200Y-140614400D01*
X157632400Y-142570200D02*
X157632400Y-140614400D01*
X158013400Y-142570200D02*
X157632400Y-142570200D01*
X158013400Y-140614400D02*
X158013400Y-142570200D01*
X158699200Y-140614400D02*
X158013400Y-140614400D01*
X158699200Y-140284200D02*
X158699200Y-140614400D01*
X156921200Y-140284200D02*
X158699200Y-140284200D01*
X156286200Y-141935200D02*
X155905200Y-141935200D01*
X156286200Y-139496800D02*
X156286200Y-141935200D01*
X155905200Y-139725400D02*
X156286200Y-139496800D01*
X155905200Y-141935200D02*
X155905200Y-139725400D01*
D13*
X156464000Y-142113000D02*
X155727400Y-142113000D01*
X156464000Y-139192000D02*
X156464000Y-142113000D01*
X155727400Y-139623800D02*
X156464000Y-139192000D01*
X155727400Y-142113000D02*
X155727400Y-139623800D01*
X153212800Y-142773400D02*
X153212800Y-140106400D01*
X153924000Y-142773400D02*
X153212800Y-142773400D01*
X153949400Y-141478000D02*
X153949400Y-142773400D01*
X154736800Y-142748000D02*
X153949400Y-141478000D01*
X155448000Y-142748000D02*
X154736800Y-142748000D01*
X155448000Y-139827000D02*
X155448000Y-142748000D01*
X154711400Y-140258800D02*
X155448000Y-139801600D01*
X154711400Y-141376400D02*
X154711400Y-140258800D01*
X153924000Y-140106400D02*
X154711400Y-141376400D01*
X153212800Y-140106400D02*
X153924000Y-140106400D01*
D12*
X153771600Y-142595600D02*
X153390600Y-142595600D01*
X153771600Y-140868400D02*
X153771600Y-142595600D01*
X154838400Y-142570200D02*
X153771600Y-140868400D01*
X155270200Y-142570200D02*
X154838400Y-142570200D01*
X155270200Y-140131800D02*
X155270200Y-142570200D01*
X154889200Y-140360400D02*
X155270200Y-140131800D01*
X154889200Y-141986000D02*
X154889200Y-140360400D01*
X153822400Y-140284200D02*
X154889200Y-141986000D01*
X153390600Y-140284200D02*
X153822400Y-140284200D01*
X153390600Y-142595600D02*
X153390600Y-140284200D01*
D13*
X150901400Y-142113000D02*
X150901400Y-139496800D01*
X153035000Y-142113000D02*
X150901400Y-142113000D01*
X152628600Y-141427200D02*
X153035000Y-142113000D01*
X151638000Y-141427200D02*
X152628600Y-141427200D01*
X151638000Y-141097000D02*
X151638000Y-141427200D01*
X152628600Y-141097000D02*
X151638000Y-141097000D01*
X152628600Y-140411200D02*
X152628600Y-141097000D01*
X151638000Y-140411200D02*
X152628600Y-140411200D01*
X151638000Y-140182600D02*
X151638000Y-140411200D01*
X152628600Y-140182600D02*
X151638000Y-140182600D01*
X153035000Y-139496800D02*
X152628600Y-140182600D01*
X150901400Y-139496800D02*
X153035000Y-139496800D01*
D12*
X151079200Y-141935200D02*
X151079200Y-139674600D01*
X152730200Y-141935200D02*
X151079200Y-141935200D01*
X152527000Y-141605000D02*
X152730200Y-141935200D01*
X151460200Y-141605000D02*
X152527000Y-141605000D01*
X151460200Y-140919200D02*
X151460200Y-141605000D01*
X152450800Y-140919200D02*
X151460200Y-140919200D01*
X152450800Y-140589000D02*
X152450800Y-140919200D01*
X151460200Y-140589000D02*
X152450800Y-140589000D01*
X151460200Y-140004800D02*
X151460200Y-140589000D01*
X152527000Y-140004800D02*
X151460200Y-140004800D01*
X152730200Y-139674600D02*
X152527000Y-140004800D01*
X151079200Y-139674600D02*
X152730200Y-139674600D01*
D13*
X148513800Y-139852400D02*
X149580600Y-139852400D01*
X148513800Y-142773400D02*
X148513800Y-139852400D01*
X149250400Y-142773400D02*
X148513800Y-142773400D01*
X149250400Y-141935200D02*
X149250400Y-142773400D01*
X149580600Y-141935200D02*
X149250400Y-141935200D01*
D12*
X149072600Y-141757400D02*
X149580600Y-141757400D01*
X149072600Y-142595600D02*
X149072600Y-141757400D01*
X148691600Y-142595600D02*
X149072600Y-142595600D01*
X148691600Y-140030200D02*
X148691600Y-142595600D01*
X149580600Y-140030200D02*
X148691600Y-140030200D01*
X149072600Y-140360400D02*
X149580600Y-140360400D01*
X149072600Y-141427200D02*
X149072600Y-140360400D01*
X149580600Y-141427200D02*
X149072600Y-141427200D01*
D13*
X149250400Y-141249400D02*
X149580600Y-141249400D01*
X149250400Y-140538200D02*
X149250400Y-141249400D01*
X149580600Y-140538200D02*
X149250400Y-140538200D01*
X148235323Y-140995400D02*
G75*
G03*
X148235323Y-140995400I-1397923J0D01*
G01*
D12*
X148056865Y-140995400D02*
G75*
G03*
X148056865Y-140995400I-1219465J0D01*
G01*
X147675600Y-140995400D02*
G75*
G03*
X147675600Y-140995400I-838200J0D01*
G01*
X147201073Y-140995400D02*
G75*
G03*
X147201073Y-140995400I-363673J0D01*
G01*
X149658991Y-140109901D02*
G75*
G02*
X149605999Y-141681199I-78391J-783899D01*
G01*
X149720877Y-140192421D02*
G75*
G02*
X149656799Y-141604999I-140277J-701379D01*
G01*
X149681598Y-140287816D02*
G75*
G02*
X149656799Y-141503399I-100998J-605984D01*
G01*
D13*
X163626800Y-142011400D02*
G75*
G02*
X162356800Y-142011400I-635000J990599D01*
G01*
X162382200Y-140004800D02*
G75*
G02*
X163601400Y-140004800I609600J-1016000D01*
G01*
D12*
X163804600Y-141630400D02*
G75*
G02*
X162179000Y-141630400I-812800J609600D01*
G01*
X162389932Y-140202258D02*
G75*
G02*
X163601400Y-140208000I601868J-818542D01*
G01*
X149580600Y-140360400D02*
G75*
G02*
X149580600Y-141427200I0J-533400D01*
G01*
D13*
X149580600Y-140538200D02*
G75*
G02*
X149580600Y-141249400I0J-355600D01*
G01*
D12*
X149580600Y-140030200D02*
G75*
G02*
X149580600Y-141757400I0J-863600D01*
G01*
D13*
X149580600Y-139852400D02*
G75*
G02*
X149580600Y-141935200I0J-1041400D01*
G01*
D14*
X324358095Y-152868380D02*
X324358095Y-153677904D01*
X324405714Y-153773142D01*
X324453333Y-153820761D01*
X324548571Y-153868380D01*
X324739047Y-153868380D01*
X324834285Y-153820761D01*
X324881904Y-153773142D01*
X324929523Y-153677904D01*
X324929523Y-152868380D01*
X325310476Y-152868380D02*
X325929523Y-152868380D01*
X325596190Y-153249333D01*
X325739047Y-153249333D01*
X325834285Y-153296952D01*
X325881904Y-153344571D01*
X325929523Y-153439809D01*
X325929523Y-153677904D01*
X325881904Y-153773142D01*
X325834285Y-153820761D01*
X325739047Y-153868380D01*
X325453333Y-153868380D01*
X325358095Y-153820761D01*
X325310476Y-153773142D01*
X-76271333Y-139660380D02*
X-76271333Y-140374666D01*
X-76318952Y-140517523D01*
X-76414190Y-140612761D01*
X-76557047Y-140660380D01*
X-76652285Y-140660380D01*
X-75795142Y-140660380D02*
X-75795142Y-139660380D01*
X-75414190Y-139660380D01*
X-75318952Y-139708000D01*
X-75271333Y-139755619D01*
X-75223714Y-139850857D01*
X-75223714Y-139993714D01*
X-75271333Y-140088952D01*
X-75318952Y-140136571D01*
X-75414190Y-140184190D01*
X-75795142Y-140184190D01*
X-74271333Y-140660380D02*
X-74842761Y-140660380D01*
X-74557047Y-140660380D02*
X-74557047Y-139660380D01*
X-74652285Y-139803238D01*
X-74747523Y-139898476D01*
X-74842761Y-139946095D01*
X-78914380Y-144486380D02*
X-78581047Y-145486380D01*
X-78247714Y-144486380D01*
X-77342952Y-145391142D02*
X-77390571Y-145438761D01*
X-77533428Y-145486380D01*
X-77628666Y-145486380D01*
X-77771523Y-145438761D01*
X-77866761Y-145343523D01*
X-77914380Y-145248285D01*
X-77962000Y-145057809D01*
X-77962000Y-144914952D01*
X-77914380Y-144724476D01*
X-77866761Y-144629238D01*
X-77771523Y-144534000D01*
X-77628666Y-144486380D01*
X-77533428Y-144486380D01*
X-77390571Y-144534000D01*
X-77342952Y-144581619D01*
X-76342952Y-145391142D02*
X-76390571Y-145438761D01*
X-76533428Y-145486380D01*
X-76628666Y-145486380D01*
X-76771523Y-145438761D01*
X-76866761Y-145343523D01*
X-76914380Y-145248285D01*
X-76962000Y-145057809D01*
X-76962000Y-144914952D01*
X-76914380Y-144724476D01*
X-76866761Y-144629238D01*
X-76771523Y-144534000D01*
X-76628666Y-144486380D01*
X-76533428Y-144486380D01*
X-76390571Y-144534000D01*
X-76342952Y-144581619D01*
X-75342952Y-144724476D02*
X-75342952Y-145295904D01*
X-75914380Y-145295904D01*
X-75723904Y-145105428D02*
X-75914380Y-145295904D01*
X-75723904Y-145486380D01*
X-80279714Y-141803428D02*
X-79517809Y-141803428D01*
X-79898761Y-142184380D02*
X-79898761Y-141422476D01*
X-78565428Y-141184380D02*
X-79041619Y-141184380D01*
X-79089238Y-141660571D01*
X-79041619Y-141612952D01*
X-78946380Y-141565333D01*
X-78708285Y-141565333D01*
X-78613047Y-141612952D01*
X-78565428Y-141660571D01*
X-78517809Y-141755809D01*
X-78517809Y-141993904D01*
X-78565428Y-142089142D01*
X-78613047Y-142136761D01*
X-78708285Y-142184380D01*
X-78946380Y-142184380D01*
X-79041619Y-142136761D01*
X-79089238Y-142089142D01*
X-78232095Y-141184380D02*
X-77898761Y-142184380D01*
X-77565428Y-141184380D01*
X-73516904Y-141676428D02*
X-72755000Y-141676428D01*
X-73135952Y-142057380D02*
X-73135952Y-141295476D01*
X-72374047Y-141057380D02*
X-71755000Y-141057380D01*
X-72088333Y-141438333D01*
X-71945476Y-141438333D01*
X-71850238Y-141485952D01*
X-71802619Y-141533571D01*
X-71755000Y-141628809D01*
X-71755000Y-141866904D01*
X-71802619Y-141962142D01*
X-71850238Y-142009761D01*
X-71945476Y-142057380D01*
X-72231190Y-142057380D01*
X-72326428Y-142009761D01*
X-72374047Y-141962142D01*
X-71469285Y-141057380D02*
X-71135952Y-142057380D01*
X-70802619Y-141057380D01*
X-70564523Y-141057380D02*
X-69945476Y-141057380D01*
X-70278809Y-141438333D01*
X-70135952Y-141438333D01*
X-70040714Y-141485952D01*
X-69993095Y-141533571D01*
X-69945476Y-141628809D01*
X-69945476Y-141866904D01*
X-69993095Y-141962142D01*
X-70040714Y-142009761D01*
X-70135952Y-142057380D01*
X-70421666Y-142057380D01*
X-70516904Y-142009761D01*
X-70564523Y-141962142D01*
X-57916666Y-132437142D02*
X-57964285Y-132484761D01*
X-58107142Y-132532380D01*
X-58202380Y-132532380D01*
X-58345238Y-132484761D01*
X-58440476Y-132389523D01*
X-58488095Y-132294285D01*
X-58535714Y-132103809D01*
X-58535714Y-131960952D01*
X-58488095Y-131770476D01*
X-58440476Y-131675238D01*
X-58345238Y-131580000D01*
X-58202380Y-131532380D01*
X-58107142Y-131532380D01*
X-57964285Y-131580000D01*
X-57916666Y-131627619D01*
X-57059523Y-131532380D02*
X-57250000Y-131532380D01*
X-57345238Y-131580000D01*
X-57392857Y-131627619D01*
X-57488095Y-131770476D01*
X-57535714Y-131960952D01*
X-57535714Y-132341904D01*
X-57488095Y-132437142D01*
X-57440476Y-132484761D01*
X-57345238Y-132532380D01*
X-57154761Y-132532380D01*
X-57059523Y-132484761D01*
X-57011904Y-132437142D01*
X-56964285Y-132341904D01*
X-56964285Y-132103809D01*
X-57011904Y-132008571D01*
X-57059523Y-131960952D01*
X-57154761Y-131913333D01*
X-57345238Y-131913333D01*
X-57440476Y-131960952D01*
X-57488095Y-132008571D01*
X-57535714Y-132103809D01*
X88138095Y-152868380D02*
X88138095Y-153677904D01*
X88185714Y-153773142D01*
X88233333Y-153820761D01*
X88328571Y-153868380D01*
X88519047Y-153868380D01*
X88614285Y-153820761D01*
X88661904Y-153773142D01*
X88709523Y-153677904D01*
X88709523Y-152868380D01*
X89661904Y-152868380D02*
X89185714Y-152868380D01*
X89138095Y-153344571D01*
X89185714Y-153296952D01*
X89280952Y-153249333D01*
X89519047Y-153249333D01*
X89614285Y-153296952D01*
X89661904Y-153344571D01*
X89709523Y-153439809D01*
X89709523Y-153677904D01*
X89661904Y-153773142D01*
X89614285Y-153820761D01*
X89519047Y-153868380D01*
X89280952Y-153868380D01*
X89185714Y-153820761D01*
X89138095Y-153773142D01*
X331761904Y-165702380D02*
X331761904Y-164702380D01*
X331761904Y-165178571D02*
X332333333Y-165178571D01*
X332333333Y-165702380D02*
X332333333Y-164702380D01*
X333333333Y-165702380D02*
X332761904Y-165702380D01*
X333047619Y-165702380D02*
X333047619Y-164702380D01*
X332952380Y-164845238D01*
X332857142Y-164940476D01*
X332761904Y-164988095D01*
X333904761Y-165130952D02*
X333809523Y-165083333D01*
X333761904Y-165035714D01*
X333714285Y-164940476D01*
X333714285Y-164892857D01*
X333761904Y-164797619D01*
X333809523Y-164750000D01*
X333904761Y-164702380D01*
X334095238Y-164702380D01*
X334190476Y-164750000D01*
X334238095Y-164797619D01*
X334285714Y-164892857D01*
X334285714Y-164940476D01*
X334238095Y-165035714D01*
X334190476Y-165083333D01*
X334095238Y-165130952D01*
X333904761Y-165130952D01*
X333809523Y-165178571D01*
X333761904Y-165226190D01*
X333714285Y-165321428D01*
X333714285Y-165511904D01*
X333761904Y-165607142D01*
X333809523Y-165654761D01*
X333904761Y-165702380D01*
X334095238Y-165702380D01*
X334190476Y-165654761D01*
X334238095Y-165607142D01*
X334285714Y-165511904D01*
X334285714Y-165321428D01*
X334238095Y-165226190D01*
X334190476Y-165178571D01*
X334095238Y-165130952D01*
X281761904Y-165702380D02*
X281761904Y-164702380D01*
X281761904Y-165178571D02*
X282333333Y-165178571D01*
X282333333Y-165702380D02*
X282333333Y-164702380D01*
X283333333Y-165702380D02*
X282761904Y-165702380D01*
X283047619Y-165702380D02*
X283047619Y-164702380D01*
X282952380Y-164845238D01*
X282857142Y-164940476D01*
X282761904Y-164988095D01*
X283666666Y-164702380D02*
X284333333Y-164702380D01*
X283904761Y-165702380D01*
X191761904Y-165702380D02*
X191761904Y-164702380D01*
X191761904Y-165178571D02*
X192333333Y-165178571D01*
X192333333Y-165702380D02*
X192333333Y-164702380D01*
X193333333Y-165702380D02*
X192761904Y-165702380D01*
X193047619Y-165702380D02*
X193047619Y-164702380D01*
X192952380Y-164845238D01*
X192857142Y-164940476D01*
X192761904Y-164988095D01*
X194190476Y-164702380D02*
X194000000Y-164702380D01*
X193904761Y-164750000D01*
X193857142Y-164797619D01*
X193761904Y-164940476D01*
X193714285Y-165130952D01*
X193714285Y-165511904D01*
X193761904Y-165607142D01*
X193809523Y-165654761D01*
X193904761Y-165702380D01*
X194095238Y-165702380D01*
X194190476Y-165654761D01*
X194238095Y-165607142D01*
X194285714Y-165511904D01*
X194285714Y-165273809D01*
X194238095Y-165178571D01*
X194190476Y-165130952D01*
X194095238Y-165083333D01*
X193904761Y-165083333D01*
X193809523Y-165130952D01*
X193761904Y-165178571D01*
X193714285Y-165273809D01*
X11761904Y-165702380D02*
X11761904Y-164702380D01*
X11761904Y-165178571D02*
X12333333Y-165178571D01*
X12333333Y-165702380D02*
X12333333Y-164702380D01*
X13333333Y-165702380D02*
X12761904Y-165702380D01*
X13047619Y-165702380D02*
X13047619Y-164702380D01*
X12952380Y-164845238D01*
X12857142Y-164940476D01*
X12761904Y-164988095D01*
X14238095Y-164702380D02*
X13761904Y-164702380D01*
X13714285Y-165178571D01*
X13761904Y-165130952D01*
X13857142Y-165083333D01*
X14095238Y-165083333D01*
X14190476Y-165130952D01*
X14238095Y-165178571D01*
X14285714Y-165273809D01*
X14285714Y-165511904D01*
X14238095Y-165607142D01*
X14190476Y-165654761D01*
X14095238Y-165702380D01*
X13857142Y-165702380D01*
X13761904Y-165654761D01*
X13714285Y-165607142D01*
X101761904Y-165702380D02*
X101761904Y-164702380D01*
X101761904Y-165178571D02*
X102333333Y-165178571D01*
X102333333Y-165702380D02*
X102333333Y-164702380D01*
X103333333Y-165702380D02*
X102761904Y-165702380D01*
X103047619Y-165702380D02*
X103047619Y-164702380D01*
X102952380Y-164845238D01*
X102857142Y-164940476D01*
X102761904Y-164988095D01*
X104190476Y-165035714D02*
X104190476Y-165702380D01*
X103952380Y-164654761D02*
X103714285Y-165369047D01*
X104333333Y-165369047D01*
X-38238095Y-165702380D02*
X-38238095Y-164702380D01*
X-38238095Y-165178571D02*
X-37666666Y-165178571D01*
X-37666666Y-165702380D02*
X-37666666Y-164702380D01*
X-36666666Y-165702380D02*
X-37238095Y-165702380D01*
X-36952380Y-165702380D02*
X-36952380Y-164702380D01*
X-37047619Y-164845238D01*
X-37142857Y-164940476D01*
X-37238095Y-164988095D01*
X-36333333Y-164702380D02*
X-35714285Y-164702380D01*
X-36047619Y-165083333D01*
X-35904761Y-165083333D01*
X-35809523Y-165130952D01*
X-35761904Y-165178571D01*
X-35714285Y-165273809D01*
X-35714285Y-165511904D01*
X-35761904Y-165607142D01*
X-35809523Y-165654761D01*
X-35904761Y-165702380D01*
X-36190476Y-165702380D01*
X-36285714Y-165654761D01*
X-36333333Y-165607142D01*
X325448333Y-140057142D02*
X325400714Y-140104761D01*
X325257857Y-140152380D01*
X325162619Y-140152380D01*
X325019761Y-140104761D01*
X324924523Y-140009523D01*
X324876904Y-139914285D01*
X324829285Y-139723809D01*
X324829285Y-139580952D01*
X324876904Y-139390476D01*
X324924523Y-139295238D01*
X325019761Y-139200000D01*
X325162619Y-139152380D01*
X325257857Y-139152380D01*
X325400714Y-139200000D01*
X325448333Y-139247619D01*
X325829285Y-139247619D02*
X325876904Y-139200000D01*
X325972142Y-139152380D01*
X326210238Y-139152380D01*
X326305476Y-139200000D01*
X326353095Y-139247619D01*
X326400714Y-139342857D01*
X326400714Y-139438095D01*
X326353095Y-139580952D01*
X325781666Y-140152380D01*
X326400714Y-140152380D01*
X-34202666Y-152852380D02*
X-34536000Y-152376190D01*
X-34774095Y-152852380D02*
X-34774095Y-151852380D01*
X-34393142Y-151852380D01*
X-34297904Y-151900000D01*
X-34250285Y-151947619D01*
X-34202666Y-152042857D01*
X-34202666Y-152185714D01*
X-34250285Y-152280952D01*
X-34297904Y-152328571D01*
X-34393142Y-152376190D01*
X-34774095Y-152376190D01*
X-33250285Y-152852380D02*
X-33821714Y-152852380D01*
X-33536000Y-152852380D02*
X-33536000Y-151852380D01*
X-33631238Y-151995238D01*
X-33726476Y-152090476D01*
X-33821714Y-152138095D01*
X-29971904Y-152868380D02*
X-29971904Y-153677904D01*
X-29924285Y-153773142D01*
X-29876666Y-153820761D01*
X-29781428Y-153868380D01*
X-29590952Y-153868380D01*
X-29495714Y-153820761D01*
X-29448095Y-153773142D01*
X-29400476Y-153677904D01*
X-29400476Y-152868380D01*
X-28971904Y-152963619D02*
X-28924285Y-152916000D01*
X-28829047Y-152868380D01*
X-28590952Y-152868380D01*
X-28495714Y-152916000D01*
X-28448095Y-152963619D01*
X-28400476Y-153058857D01*
X-28400476Y-153154095D01*
X-28448095Y-153296952D01*
X-29019523Y-153868380D01*
X-28400476Y-153868380D01*
X369382142Y-132437142D02*
X369334523Y-132484761D01*
X369191666Y-132532380D01*
X369096428Y-132532380D01*
X368953571Y-132484761D01*
X368858333Y-132389523D01*
X368810714Y-132294285D01*
X368763095Y-132103809D01*
X368763095Y-131960952D01*
X368810714Y-131770476D01*
X368858333Y-131675238D01*
X368953571Y-131580000D01*
X369096428Y-131532380D01*
X369191666Y-131532380D01*
X369334523Y-131580000D01*
X369382142Y-131627619D01*
X369715476Y-131532380D02*
X370334523Y-131532380D01*
X370001190Y-131913333D01*
X370144047Y-131913333D01*
X370239285Y-131960952D01*
X370286904Y-132008571D01*
X370334523Y-132103809D01*
X370334523Y-132341904D01*
X370286904Y-132437142D01*
X370239285Y-132484761D01*
X370144047Y-132532380D01*
X369858333Y-132532380D01*
X369763095Y-132484761D01*
X369715476Y-132437142D01*
X371239285Y-131532380D02*
X370763095Y-131532380D01*
X370715476Y-132008571D01*
X370763095Y-131960952D01*
X370858333Y-131913333D01*
X371096428Y-131913333D01*
X371191666Y-131960952D01*
X371239285Y-132008571D01*
X371286904Y-132103809D01*
X371286904Y-132341904D01*
X371239285Y-132437142D01*
X371191666Y-132484761D01*
X371096428Y-132532380D01*
X370858333Y-132532380D01*
X370763095Y-132484761D01*
X370715476Y-132437142D01*
X354632142Y-132437142D02*
X354584523Y-132484761D01*
X354441666Y-132532380D01*
X354346428Y-132532380D01*
X354203571Y-132484761D01*
X354108333Y-132389523D01*
X354060714Y-132294285D01*
X354013095Y-132103809D01*
X354013095Y-131960952D01*
X354060714Y-131770476D01*
X354108333Y-131675238D01*
X354203571Y-131580000D01*
X354346428Y-131532380D01*
X354441666Y-131532380D01*
X354584523Y-131580000D01*
X354632142Y-131627619D01*
X354965476Y-131532380D02*
X355584523Y-131532380D01*
X355251190Y-131913333D01*
X355394047Y-131913333D01*
X355489285Y-131960952D01*
X355536904Y-132008571D01*
X355584523Y-132103809D01*
X355584523Y-132341904D01*
X355536904Y-132437142D01*
X355489285Y-132484761D01*
X355394047Y-132532380D01*
X355108333Y-132532380D01*
X355013095Y-132484761D01*
X354965476Y-132437142D01*
X356441666Y-131865714D02*
X356441666Y-132532380D01*
X356203571Y-131484761D02*
X355965476Y-132199047D01*
X356584523Y-132199047D01*
X339882142Y-132437142D02*
X339834523Y-132484761D01*
X339691666Y-132532380D01*
X339596428Y-132532380D01*
X339453571Y-132484761D01*
X339358333Y-132389523D01*
X339310714Y-132294285D01*
X339263095Y-132103809D01*
X339263095Y-131960952D01*
X339310714Y-131770476D01*
X339358333Y-131675238D01*
X339453571Y-131580000D01*
X339596428Y-131532380D01*
X339691666Y-131532380D01*
X339834523Y-131580000D01*
X339882142Y-131627619D01*
X340215476Y-131532380D02*
X340834523Y-131532380D01*
X340501190Y-131913333D01*
X340644047Y-131913333D01*
X340739285Y-131960952D01*
X340786904Y-132008571D01*
X340834523Y-132103809D01*
X340834523Y-132341904D01*
X340786904Y-132437142D01*
X340739285Y-132484761D01*
X340644047Y-132532380D01*
X340358333Y-132532380D01*
X340263095Y-132484761D01*
X340215476Y-132437142D01*
X341167857Y-131532380D02*
X341786904Y-131532380D01*
X341453571Y-131913333D01*
X341596428Y-131913333D01*
X341691666Y-131960952D01*
X341739285Y-132008571D01*
X341786904Y-132103809D01*
X341786904Y-132341904D01*
X341739285Y-132437142D01*
X341691666Y-132484761D01*
X341596428Y-132532380D01*
X341310714Y-132532380D01*
X341215476Y-132484761D01*
X341167857Y-132437142D01*
X325132142Y-132437142D02*
X325084523Y-132484761D01*
X324941666Y-132532380D01*
X324846428Y-132532380D01*
X324703571Y-132484761D01*
X324608333Y-132389523D01*
X324560714Y-132294285D01*
X324513095Y-132103809D01*
X324513095Y-131960952D01*
X324560714Y-131770476D01*
X324608333Y-131675238D01*
X324703571Y-131580000D01*
X324846428Y-131532380D01*
X324941666Y-131532380D01*
X325084523Y-131580000D01*
X325132142Y-131627619D01*
X325465476Y-131532380D02*
X326084523Y-131532380D01*
X325751190Y-131913333D01*
X325894047Y-131913333D01*
X325989285Y-131960952D01*
X326036904Y-132008571D01*
X326084523Y-132103809D01*
X326084523Y-132341904D01*
X326036904Y-132437142D01*
X325989285Y-132484761D01*
X325894047Y-132532380D01*
X325608333Y-132532380D01*
X325513095Y-132484761D01*
X325465476Y-132437142D01*
X326465476Y-131627619D02*
X326513095Y-131580000D01*
X326608333Y-131532380D01*
X326846428Y-131532380D01*
X326941666Y-131580000D01*
X326989285Y-131627619D01*
X327036904Y-131722857D01*
X327036904Y-131818095D01*
X326989285Y-131960952D01*
X326417857Y-132532380D01*
X327036904Y-132532380D01*
X310382142Y-132437142D02*
X310334523Y-132484761D01*
X310191666Y-132532380D01*
X310096428Y-132532380D01*
X309953571Y-132484761D01*
X309858333Y-132389523D01*
X309810714Y-132294285D01*
X309763095Y-132103809D01*
X309763095Y-131960952D01*
X309810714Y-131770476D01*
X309858333Y-131675238D01*
X309953571Y-131580000D01*
X310096428Y-131532380D01*
X310191666Y-131532380D01*
X310334523Y-131580000D01*
X310382142Y-131627619D01*
X310715476Y-131532380D02*
X311334523Y-131532380D01*
X311001190Y-131913333D01*
X311144047Y-131913333D01*
X311239285Y-131960952D01*
X311286904Y-132008571D01*
X311334523Y-132103809D01*
X311334523Y-132341904D01*
X311286904Y-132437142D01*
X311239285Y-132484761D01*
X311144047Y-132532380D01*
X310858333Y-132532380D01*
X310763095Y-132484761D01*
X310715476Y-132437142D01*
X312286904Y-132532380D02*
X311715476Y-132532380D01*
X312001190Y-132532380D02*
X312001190Y-131532380D01*
X311905952Y-131675238D01*
X311810714Y-131770476D01*
X311715476Y-131818095D01*
X295632142Y-132437142D02*
X295584523Y-132484761D01*
X295441666Y-132532380D01*
X295346428Y-132532380D01*
X295203571Y-132484761D01*
X295108333Y-132389523D01*
X295060714Y-132294285D01*
X295013095Y-132103809D01*
X295013095Y-131960952D01*
X295060714Y-131770476D01*
X295108333Y-131675238D01*
X295203571Y-131580000D01*
X295346428Y-131532380D01*
X295441666Y-131532380D01*
X295584523Y-131580000D01*
X295632142Y-131627619D01*
X295965476Y-131532380D02*
X296584523Y-131532380D01*
X296251190Y-131913333D01*
X296394047Y-131913333D01*
X296489285Y-131960952D01*
X296536904Y-132008571D01*
X296584523Y-132103809D01*
X296584523Y-132341904D01*
X296536904Y-132437142D01*
X296489285Y-132484761D01*
X296394047Y-132532380D01*
X296108333Y-132532380D01*
X296013095Y-132484761D01*
X295965476Y-132437142D01*
X297203571Y-131532380D02*
X297298809Y-131532380D01*
X297394047Y-131580000D01*
X297441666Y-131627619D01*
X297489285Y-131722857D01*
X297536904Y-131913333D01*
X297536904Y-132151428D01*
X297489285Y-132341904D01*
X297441666Y-132437142D01*
X297394047Y-132484761D01*
X297298809Y-132532380D01*
X297203571Y-132532380D01*
X297108333Y-132484761D01*
X297060714Y-132437142D01*
X297013095Y-132341904D01*
X296965476Y-132151428D01*
X296965476Y-131913333D01*
X297013095Y-131722857D01*
X297060714Y-131627619D01*
X297108333Y-131580000D01*
X297203571Y-131532380D01*
X280882142Y-132437142D02*
X280834523Y-132484761D01*
X280691666Y-132532380D01*
X280596428Y-132532380D01*
X280453571Y-132484761D01*
X280358333Y-132389523D01*
X280310714Y-132294285D01*
X280263095Y-132103809D01*
X280263095Y-131960952D01*
X280310714Y-131770476D01*
X280358333Y-131675238D01*
X280453571Y-131580000D01*
X280596428Y-131532380D01*
X280691666Y-131532380D01*
X280834523Y-131580000D01*
X280882142Y-131627619D01*
X281263095Y-131627619D02*
X281310714Y-131580000D01*
X281405952Y-131532380D01*
X281644047Y-131532380D01*
X281739285Y-131580000D01*
X281786904Y-131627619D01*
X281834523Y-131722857D01*
X281834523Y-131818095D01*
X281786904Y-131960952D01*
X281215476Y-132532380D01*
X281834523Y-132532380D01*
X282310714Y-132532380D02*
X282501190Y-132532380D01*
X282596428Y-132484761D01*
X282644047Y-132437142D01*
X282739285Y-132294285D01*
X282786904Y-132103809D01*
X282786904Y-131722857D01*
X282739285Y-131627619D01*
X282691666Y-131580000D01*
X282596428Y-131532380D01*
X282405952Y-131532380D01*
X282310714Y-131580000D01*
X282263095Y-131627619D01*
X282215476Y-131722857D01*
X282215476Y-131960952D01*
X282263095Y-132056190D01*
X282310714Y-132103809D01*
X282405952Y-132151428D01*
X282596428Y-132151428D01*
X282691666Y-132103809D01*
X282739285Y-132056190D01*
X282786904Y-131960952D01*
X266132142Y-132437142D02*
X266084523Y-132484761D01*
X265941666Y-132532380D01*
X265846428Y-132532380D01*
X265703571Y-132484761D01*
X265608333Y-132389523D01*
X265560714Y-132294285D01*
X265513095Y-132103809D01*
X265513095Y-131960952D01*
X265560714Y-131770476D01*
X265608333Y-131675238D01*
X265703571Y-131580000D01*
X265846428Y-131532380D01*
X265941666Y-131532380D01*
X266084523Y-131580000D01*
X266132142Y-131627619D01*
X266513095Y-131627619D02*
X266560714Y-131580000D01*
X266655952Y-131532380D01*
X266894047Y-131532380D01*
X266989285Y-131580000D01*
X267036904Y-131627619D01*
X267084523Y-131722857D01*
X267084523Y-131818095D01*
X267036904Y-131960952D01*
X266465476Y-132532380D01*
X267084523Y-132532380D01*
X267655952Y-131960952D02*
X267560714Y-131913333D01*
X267513095Y-131865714D01*
X267465476Y-131770476D01*
X267465476Y-131722857D01*
X267513095Y-131627619D01*
X267560714Y-131580000D01*
X267655952Y-131532380D01*
X267846428Y-131532380D01*
X267941666Y-131580000D01*
X267989285Y-131627619D01*
X268036904Y-131722857D01*
X268036904Y-131770476D01*
X267989285Y-131865714D01*
X267941666Y-131913333D01*
X267846428Y-131960952D01*
X267655952Y-131960952D01*
X267560714Y-132008571D01*
X267513095Y-132056190D01*
X267465476Y-132151428D01*
X267465476Y-132341904D01*
X267513095Y-132437142D01*
X267560714Y-132484761D01*
X267655952Y-132532380D01*
X267846428Y-132532380D01*
X267941666Y-132484761D01*
X267989285Y-132437142D01*
X268036904Y-132341904D01*
X268036904Y-132151428D01*
X267989285Y-132056190D01*
X267941666Y-132008571D01*
X267846428Y-131960952D01*
X251382142Y-132437142D02*
X251334523Y-132484761D01*
X251191666Y-132532380D01*
X251096428Y-132532380D01*
X250953571Y-132484761D01*
X250858333Y-132389523D01*
X250810714Y-132294285D01*
X250763095Y-132103809D01*
X250763095Y-131960952D01*
X250810714Y-131770476D01*
X250858333Y-131675238D01*
X250953571Y-131580000D01*
X251096428Y-131532380D01*
X251191666Y-131532380D01*
X251334523Y-131580000D01*
X251382142Y-131627619D01*
X251763095Y-131627619D02*
X251810714Y-131580000D01*
X251905952Y-131532380D01*
X252144047Y-131532380D01*
X252239285Y-131580000D01*
X252286904Y-131627619D01*
X252334523Y-131722857D01*
X252334523Y-131818095D01*
X252286904Y-131960952D01*
X251715476Y-132532380D01*
X252334523Y-132532380D01*
X252667857Y-131532380D02*
X253334523Y-131532380D01*
X252905952Y-132532380D01*
X236632142Y-132437142D02*
X236584523Y-132484761D01*
X236441666Y-132532380D01*
X236346428Y-132532380D01*
X236203571Y-132484761D01*
X236108333Y-132389523D01*
X236060714Y-132294285D01*
X236013095Y-132103809D01*
X236013095Y-131960952D01*
X236060714Y-131770476D01*
X236108333Y-131675238D01*
X236203571Y-131580000D01*
X236346428Y-131532380D01*
X236441666Y-131532380D01*
X236584523Y-131580000D01*
X236632142Y-131627619D01*
X237013095Y-131627619D02*
X237060714Y-131580000D01*
X237155952Y-131532380D01*
X237394047Y-131532380D01*
X237489285Y-131580000D01*
X237536904Y-131627619D01*
X237584523Y-131722857D01*
X237584523Y-131818095D01*
X237536904Y-131960952D01*
X236965476Y-132532380D01*
X237584523Y-132532380D01*
X238441666Y-131532380D02*
X238251190Y-131532380D01*
X238155952Y-131580000D01*
X238108333Y-131627619D01*
X238013095Y-131770476D01*
X237965476Y-131960952D01*
X237965476Y-132341904D01*
X238013095Y-132437142D01*
X238060714Y-132484761D01*
X238155952Y-132532380D01*
X238346428Y-132532380D01*
X238441666Y-132484761D01*
X238489285Y-132437142D01*
X238536904Y-132341904D01*
X238536904Y-132103809D01*
X238489285Y-132008571D01*
X238441666Y-131960952D01*
X238346428Y-131913333D01*
X238155952Y-131913333D01*
X238060714Y-131960952D01*
X238013095Y-132008571D01*
X237965476Y-132103809D01*
X221882142Y-132437142D02*
X221834523Y-132484761D01*
X221691666Y-132532380D01*
X221596428Y-132532380D01*
X221453571Y-132484761D01*
X221358333Y-132389523D01*
X221310714Y-132294285D01*
X221263095Y-132103809D01*
X221263095Y-131960952D01*
X221310714Y-131770476D01*
X221358333Y-131675238D01*
X221453571Y-131580000D01*
X221596428Y-131532380D01*
X221691666Y-131532380D01*
X221834523Y-131580000D01*
X221882142Y-131627619D01*
X222263095Y-131627619D02*
X222310714Y-131580000D01*
X222405952Y-131532380D01*
X222644047Y-131532380D01*
X222739285Y-131580000D01*
X222786904Y-131627619D01*
X222834523Y-131722857D01*
X222834523Y-131818095D01*
X222786904Y-131960952D01*
X222215476Y-132532380D01*
X222834523Y-132532380D01*
X223739285Y-131532380D02*
X223263095Y-131532380D01*
X223215476Y-132008571D01*
X223263095Y-131960952D01*
X223358333Y-131913333D01*
X223596428Y-131913333D01*
X223691666Y-131960952D01*
X223739285Y-132008571D01*
X223786904Y-132103809D01*
X223786904Y-132341904D01*
X223739285Y-132437142D01*
X223691666Y-132484761D01*
X223596428Y-132532380D01*
X223358333Y-132532380D01*
X223263095Y-132484761D01*
X223215476Y-132437142D01*
X207132142Y-132437142D02*
X207084523Y-132484761D01*
X206941666Y-132532380D01*
X206846428Y-132532380D01*
X206703571Y-132484761D01*
X206608333Y-132389523D01*
X206560714Y-132294285D01*
X206513095Y-132103809D01*
X206513095Y-131960952D01*
X206560714Y-131770476D01*
X206608333Y-131675238D01*
X206703571Y-131580000D01*
X206846428Y-131532380D01*
X206941666Y-131532380D01*
X207084523Y-131580000D01*
X207132142Y-131627619D01*
X207513095Y-131627619D02*
X207560714Y-131580000D01*
X207655952Y-131532380D01*
X207894047Y-131532380D01*
X207989285Y-131580000D01*
X208036904Y-131627619D01*
X208084523Y-131722857D01*
X208084523Y-131818095D01*
X208036904Y-131960952D01*
X207465476Y-132532380D01*
X208084523Y-132532380D01*
X208941666Y-131865714D02*
X208941666Y-132532380D01*
X208703571Y-131484761D02*
X208465476Y-132199047D01*
X209084523Y-132199047D01*
X192382142Y-132437142D02*
X192334523Y-132484761D01*
X192191666Y-132532380D01*
X192096428Y-132532380D01*
X191953571Y-132484761D01*
X191858333Y-132389523D01*
X191810714Y-132294285D01*
X191763095Y-132103809D01*
X191763095Y-131960952D01*
X191810714Y-131770476D01*
X191858333Y-131675238D01*
X191953571Y-131580000D01*
X192096428Y-131532380D01*
X192191666Y-131532380D01*
X192334523Y-131580000D01*
X192382142Y-131627619D01*
X192763095Y-131627619D02*
X192810714Y-131580000D01*
X192905952Y-131532380D01*
X193144047Y-131532380D01*
X193239285Y-131580000D01*
X193286904Y-131627619D01*
X193334523Y-131722857D01*
X193334523Y-131818095D01*
X193286904Y-131960952D01*
X192715476Y-132532380D01*
X193334523Y-132532380D01*
X193667857Y-131532380D02*
X194286904Y-131532380D01*
X193953571Y-131913333D01*
X194096428Y-131913333D01*
X194191666Y-131960952D01*
X194239285Y-132008571D01*
X194286904Y-132103809D01*
X194286904Y-132341904D01*
X194239285Y-132437142D01*
X194191666Y-132484761D01*
X194096428Y-132532380D01*
X193810714Y-132532380D01*
X193715476Y-132484761D01*
X193667857Y-132437142D01*
X177632142Y-132437142D02*
X177584523Y-132484761D01*
X177441666Y-132532380D01*
X177346428Y-132532380D01*
X177203571Y-132484761D01*
X177108333Y-132389523D01*
X177060714Y-132294285D01*
X177013095Y-132103809D01*
X177013095Y-131960952D01*
X177060714Y-131770476D01*
X177108333Y-131675238D01*
X177203571Y-131580000D01*
X177346428Y-131532380D01*
X177441666Y-131532380D01*
X177584523Y-131580000D01*
X177632142Y-131627619D01*
X178013095Y-131627619D02*
X178060714Y-131580000D01*
X178155952Y-131532380D01*
X178394047Y-131532380D01*
X178489285Y-131580000D01*
X178536904Y-131627619D01*
X178584523Y-131722857D01*
X178584523Y-131818095D01*
X178536904Y-131960952D01*
X177965476Y-132532380D01*
X178584523Y-132532380D01*
X178965476Y-131627619D02*
X179013095Y-131580000D01*
X179108333Y-131532380D01*
X179346428Y-131532380D01*
X179441666Y-131580000D01*
X179489285Y-131627619D01*
X179536904Y-131722857D01*
X179536904Y-131818095D01*
X179489285Y-131960952D01*
X178917857Y-132532380D01*
X179536904Y-132532380D01*
X162882142Y-132437142D02*
X162834523Y-132484761D01*
X162691666Y-132532380D01*
X162596428Y-132532380D01*
X162453571Y-132484761D01*
X162358333Y-132389523D01*
X162310714Y-132294285D01*
X162263095Y-132103809D01*
X162263095Y-131960952D01*
X162310714Y-131770476D01*
X162358333Y-131675238D01*
X162453571Y-131580000D01*
X162596428Y-131532380D01*
X162691666Y-131532380D01*
X162834523Y-131580000D01*
X162882142Y-131627619D01*
X163263095Y-131627619D02*
X163310714Y-131580000D01*
X163405952Y-131532380D01*
X163644047Y-131532380D01*
X163739285Y-131580000D01*
X163786904Y-131627619D01*
X163834523Y-131722857D01*
X163834523Y-131818095D01*
X163786904Y-131960952D01*
X163215476Y-132532380D01*
X163834523Y-132532380D01*
X164786904Y-132532380D02*
X164215476Y-132532380D01*
X164501190Y-132532380D02*
X164501190Y-131532380D01*
X164405952Y-131675238D01*
X164310714Y-131770476D01*
X164215476Y-131818095D01*
X148132142Y-132437142D02*
X148084523Y-132484761D01*
X147941666Y-132532380D01*
X147846428Y-132532380D01*
X147703571Y-132484761D01*
X147608333Y-132389523D01*
X147560714Y-132294285D01*
X147513095Y-132103809D01*
X147513095Y-131960952D01*
X147560714Y-131770476D01*
X147608333Y-131675238D01*
X147703571Y-131580000D01*
X147846428Y-131532380D01*
X147941666Y-131532380D01*
X148084523Y-131580000D01*
X148132142Y-131627619D01*
X148513095Y-131627619D02*
X148560714Y-131580000D01*
X148655952Y-131532380D01*
X148894047Y-131532380D01*
X148989285Y-131580000D01*
X149036904Y-131627619D01*
X149084523Y-131722857D01*
X149084523Y-131818095D01*
X149036904Y-131960952D01*
X148465476Y-132532380D01*
X149084523Y-132532380D01*
X149703571Y-131532380D02*
X149798809Y-131532380D01*
X149894047Y-131580000D01*
X149941666Y-131627619D01*
X149989285Y-131722857D01*
X150036904Y-131913333D01*
X150036904Y-132151428D01*
X149989285Y-132341904D01*
X149941666Y-132437142D01*
X149894047Y-132484761D01*
X149798809Y-132532380D01*
X149703571Y-132532380D01*
X149608333Y-132484761D01*
X149560714Y-132437142D01*
X149513095Y-132341904D01*
X149465476Y-132151428D01*
X149465476Y-131913333D01*
X149513095Y-131722857D01*
X149560714Y-131627619D01*
X149608333Y-131580000D01*
X149703571Y-131532380D01*
X133382142Y-132437142D02*
X133334523Y-132484761D01*
X133191666Y-132532380D01*
X133096428Y-132532380D01*
X132953571Y-132484761D01*
X132858333Y-132389523D01*
X132810714Y-132294285D01*
X132763095Y-132103809D01*
X132763095Y-131960952D01*
X132810714Y-131770476D01*
X132858333Y-131675238D01*
X132953571Y-131580000D01*
X133096428Y-131532380D01*
X133191666Y-131532380D01*
X133334523Y-131580000D01*
X133382142Y-131627619D01*
X134334523Y-132532380D02*
X133763095Y-132532380D01*
X134048809Y-132532380D02*
X134048809Y-131532380D01*
X133953571Y-131675238D01*
X133858333Y-131770476D01*
X133763095Y-131818095D01*
X134810714Y-132532380D02*
X135001190Y-132532380D01*
X135096428Y-132484761D01*
X135144047Y-132437142D01*
X135239285Y-132294285D01*
X135286904Y-132103809D01*
X135286904Y-131722857D01*
X135239285Y-131627619D01*
X135191666Y-131580000D01*
X135096428Y-131532380D01*
X134905952Y-131532380D01*
X134810714Y-131580000D01*
X134763095Y-131627619D01*
X134715476Y-131722857D01*
X134715476Y-131960952D01*
X134763095Y-132056190D01*
X134810714Y-132103809D01*
X134905952Y-132151428D01*
X135096428Y-132151428D01*
X135191666Y-132103809D01*
X135239285Y-132056190D01*
X135286904Y-131960952D01*
X118632142Y-132437142D02*
X118584523Y-132484761D01*
X118441666Y-132532380D01*
X118346428Y-132532380D01*
X118203571Y-132484761D01*
X118108333Y-132389523D01*
X118060714Y-132294285D01*
X118013095Y-132103809D01*
X118013095Y-131960952D01*
X118060714Y-131770476D01*
X118108333Y-131675238D01*
X118203571Y-131580000D01*
X118346428Y-131532380D01*
X118441666Y-131532380D01*
X118584523Y-131580000D01*
X118632142Y-131627619D01*
X119584523Y-132532380D02*
X119013095Y-132532380D01*
X119298809Y-132532380D02*
X119298809Y-131532380D01*
X119203571Y-131675238D01*
X119108333Y-131770476D01*
X119013095Y-131818095D01*
X120155952Y-131960952D02*
X120060714Y-131913333D01*
X120013095Y-131865714D01*
X119965476Y-131770476D01*
X119965476Y-131722857D01*
X120013095Y-131627619D01*
X120060714Y-131580000D01*
X120155952Y-131532380D01*
X120346428Y-131532380D01*
X120441666Y-131580000D01*
X120489285Y-131627619D01*
X120536904Y-131722857D01*
X120536904Y-131770476D01*
X120489285Y-131865714D01*
X120441666Y-131913333D01*
X120346428Y-131960952D01*
X120155952Y-131960952D01*
X120060714Y-132008571D01*
X120013095Y-132056190D01*
X119965476Y-132151428D01*
X119965476Y-132341904D01*
X120013095Y-132437142D01*
X120060714Y-132484761D01*
X120155952Y-132532380D01*
X120346428Y-132532380D01*
X120441666Y-132484761D01*
X120489285Y-132437142D01*
X120536904Y-132341904D01*
X120536904Y-132151428D01*
X120489285Y-132056190D01*
X120441666Y-132008571D01*
X120346428Y-131960952D01*
X103882142Y-132437142D02*
X103834523Y-132484761D01*
X103691666Y-132532380D01*
X103596428Y-132532380D01*
X103453571Y-132484761D01*
X103358333Y-132389523D01*
X103310714Y-132294285D01*
X103263095Y-132103809D01*
X103263095Y-131960952D01*
X103310714Y-131770476D01*
X103358333Y-131675238D01*
X103453571Y-131580000D01*
X103596428Y-131532380D01*
X103691666Y-131532380D01*
X103834523Y-131580000D01*
X103882142Y-131627619D01*
X104834523Y-132532380D02*
X104263095Y-132532380D01*
X104548809Y-132532380D02*
X104548809Y-131532380D01*
X104453571Y-131675238D01*
X104358333Y-131770476D01*
X104263095Y-131818095D01*
X105167857Y-131532380D02*
X105834523Y-131532380D01*
X105405952Y-132532380D01*
X89132142Y-132437142D02*
X89084523Y-132484761D01*
X88941666Y-132532380D01*
X88846428Y-132532380D01*
X88703571Y-132484761D01*
X88608333Y-132389523D01*
X88560714Y-132294285D01*
X88513095Y-132103809D01*
X88513095Y-131960952D01*
X88560714Y-131770476D01*
X88608333Y-131675238D01*
X88703571Y-131580000D01*
X88846428Y-131532380D01*
X88941666Y-131532380D01*
X89084523Y-131580000D01*
X89132142Y-131627619D01*
X90084523Y-132532380D02*
X89513095Y-132532380D01*
X89798809Y-132532380D02*
X89798809Y-131532380D01*
X89703571Y-131675238D01*
X89608333Y-131770476D01*
X89513095Y-131818095D01*
X90941666Y-131532380D02*
X90751190Y-131532380D01*
X90655952Y-131580000D01*
X90608333Y-131627619D01*
X90513095Y-131770476D01*
X90465476Y-131960952D01*
X90465476Y-132341904D01*
X90513095Y-132437142D01*
X90560714Y-132484761D01*
X90655952Y-132532380D01*
X90846428Y-132532380D01*
X90941666Y-132484761D01*
X90989285Y-132437142D01*
X91036904Y-132341904D01*
X91036904Y-132103809D01*
X90989285Y-132008571D01*
X90941666Y-131960952D01*
X90846428Y-131913333D01*
X90655952Y-131913333D01*
X90560714Y-131960952D01*
X90513095Y-132008571D01*
X90465476Y-132103809D01*
X74382142Y-132437142D02*
X74334523Y-132484761D01*
X74191666Y-132532380D01*
X74096428Y-132532380D01*
X73953571Y-132484761D01*
X73858333Y-132389523D01*
X73810714Y-132294285D01*
X73763095Y-132103809D01*
X73763095Y-131960952D01*
X73810714Y-131770476D01*
X73858333Y-131675238D01*
X73953571Y-131580000D01*
X74096428Y-131532380D01*
X74191666Y-131532380D01*
X74334523Y-131580000D01*
X74382142Y-131627619D01*
X75334523Y-132532380D02*
X74763095Y-132532380D01*
X75048809Y-132532380D02*
X75048809Y-131532380D01*
X74953571Y-131675238D01*
X74858333Y-131770476D01*
X74763095Y-131818095D01*
X76239285Y-131532380D02*
X75763095Y-131532380D01*
X75715476Y-132008571D01*
X75763095Y-131960952D01*
X75858333Y-131913333D01*
X76096428Y-131913333D01*
X76191666Y-131960952D01*
X76239285Y-132008571D01*
X76286904Y-132103809D01*
X76286904Y-132341904D01*
X76239285Y-132437142D01*
X76191666Y-132484761D01*
X76096428Y-132532380D01*
X75858333Y-132532380D01*
X75763095Y-132484761D01*
X75715476Y-132437142D01*
X59632142Y-132437142D02*
X59584523Y-132484761D01*
X59441666Y-132532380D01*
X59346428Y-132532380D01*
X59203571Y-132484761D01*
X59108333Y-132389523D01*
X59060714Y-132294285D01*
X59013095Y-132103809D01*
X59013095Y-131960952D01*
X59060714Y-131770476D01*
X59108333Y-131675238D01*
X59203571Y-131580000D01*
X59346428Y-131532380D01*
X59441666Y-131532380D01*
X59584523Y-131580000D01*
X59632142Y-131627619D01*
X60584523Y-132532380D02*
X60013095Y-132532380D01*
X60298809Y-132532380D02*
X60298809Y-131532380D01*
X60203571Y-131675238D01*
X60108333Y-131770476D01*
X60013095Y-131818095D01*
X61441666Y-131865714D02*
X61441666Y-132532380D01*
X61203571Y-131484761D02*
X60965476Y-132199047D01*
X61584523Y-132199047D01*
X44823142Y-132437142D02*
X44775523Y-132484761D01*
X44632666Y-132532380D01*
X44537428Y-132532380D01*
X44394571Y-132484761D01*
X44299333Y-132389523D01*
X44251714Y-132294285D01*
X44204095Y-132103809D01*
X44204095Y-131960952D01*
X44251714Y-131770476D01*
X44299333Y-131675238D01*
X44394571Y-131580000D01*
X44537428Y-131532380D01*
X44632666Y-131532380D01*
X44775523Y-131580000D01*
X44823142Y-131627619D01*
X45775523Y-132532380D02*
X45204095Y-132532380D01*
X45489809Y-132532380D02*
X45489809Y-131532380D01*
X45394571Y-131675238D01*
X45299333Y-131770476D01*
X45204095Y-131818095D01*
X46108857Y-131532380D02*
X46727904Y-131532380D01*
X46394571Y-131913333D01*
X46537428Y-131913333D01*
X46632666Y-131960952D01*
X46680285Y-132008571D01*
X46727904Y-132103809D01*
X46727904Y-132341904D01*
X46680285Y-132437142D01*
X46632666Y-132484761D01*
X46537428Y-132532380D01*
X46251714Y-132532380D01*
X46156476Y-132484761D01*
X46108857Y-132437142D01*
X30132142Y-132437142D02*
X30084523Y-132484761D01*
X29941666Y-132532380D01*
X29846428Y-132532380D01*
X29703571Y-132484761D01*
X29608333Y-132389523D01*
X29560714Y-132294285D01*
X29513095Y-132103809D01*
X29513095Y-131960952D01*
X29560714Y-131770476D01*
X29608333Y-131675238D01*
X29703571Y-131580000D01*
X29846428Y-131532380D01*
X29941666Y-131532380D01*
X30084523Y-131580000D01*
X30132142Y-131627619D01*
X31084523Y-132532380D02*
X30513095Y-132532380D01*
X30798809Y-132532380D02*
X30798809Y-131532380D01*
X30703571Y-131675238D01*
X30608333Y-131770476D01*
X30513095Y-131818095D01*
X31465476Y-131627619D02*
X31513095Y-131580000D01*
X31608333Y-131532380D01*
X31846428Y-131532380D01*
X31941666Y-131580000D01*
X31989285Y-131627619D01*
X32036904Y-131722857D01*
X32036904Y-131818095D01*
X31989285Y-131960952D01*
X31417857Y-132532380D01*
X32036904Y-132532380D01*
X15382142Y-132437142D02*
X15334523Y-132484761D01*
X15191666Y-132532380D01*
X15096428Y-132532380D01*
X14953571Y-132484761D01*
X14858333Y-132389523D01*
X14810714Y-132294285D01*
X14763095Y-132103809D01*
X14763095Y-131960952D01*
X14810714Y-131770476D01*
X14858333Y-131675238D01*
X14953571Y-131580000D01*
X15096428Y-131532380D01*
X15191666Y-131532380D01*
X15334523Y-131580000D01*
X15382142Y-131627619D01*
X16334523Y-132532380D02*
X15763095Y-132532380D01*
X16048809Y-132532380D02*
X16048809Y-131532380D01*
X15953571Y-131675238D01*
X15858333Y-131770476D01*
X15763095Y-131818095D01*
X17286904Y-132532380D02*
X16715476Y-132532380D01*
X17001190Y-132532380D02*
X17001190Y-131532380D01*
X16905952Y-131675238D01*
X16810714Y-131770476D01*
X16715476Y-131818095D01*
X632142Y-132437142D02*
X584523Y-132484761D01*
X441666Y-132532380D01*
X346428Y-132532380D01*
X203571Y-132484761D01*
X108333Y-132389523D01*
X60714Y-132294285D01*
X13095Y-132103809D01*
X13095Y-131960952D01*
X60714Y-131770476D01*
X108333Y-131675238D01*
X203571Y-131580000D01*
X346428Y-131532380D01*
X441666Y-131532380D01*
X584523Y-131580000D01*
X632142Y-131627619D01*
X1584523Y-132532380D02*
X1013095Y-132532380D01*
X1298809Y-132532380D02*
X1298809Y-131532380D01*
X1203571Y-131675238D01*
X1108333Y-131770476D01*
X1013095Y-131818095D01*
X2203571Y-131532380D02*
X2298809Y-131532380D01*
X2394047Y-131580000D01*
X2441666Y-131627619D01*
X2489285Y-131722857D01*
X2536904Y-131913333D01*
X2536904Y-132151428D01*
X2489285Y-132341904D01*
X2441666Y-132437142D01*
X2394047Y-132484761D01*
X2298809Y-132532380D01*
X2203571Y-132532380D01*
X2108333Y-132484761D01*
X2060714Y-132437142D01*
X2013095Y-132341904D01*
X1965476Y-132151428D01*
X1965476Y-131913333D01*
X2013095Y-131722857D01*
X2060714Y-131627619D01*
X2108333Y-131580000D01*
X2203571Y-131532380D01*
X-13628666Y-132437142D02*
X-13676285Y-132484761D01*
X-13819142Y-132532380D01*
X-13914380Y-132532380D01*
X-14057238Y-132484761D01*
X-14152476Y-132389523D01*
X-14200095Y-132294285D01*
X-14247714Y-132103809D01*
X-14247714Y-131960952D01*
X-14200095Y-131770476D01*
X-14152476Y-131675238D01*
X-14057238Y-131580000D01*
X-13914380Y-131532380D01*
X-13819142Y-131532380D01*
X-13676285Y-131580000D01*
X-13628666Y-131627619D01*
X-13152476Y-132532380D02*
X-12962000Y-132532380D01*
X-12866761Y-132484761D01*
X-12819142Y-132437142D01*
X-12723904Y-132294285D01*
X-12676285Y-132103809D01*
X-12676285Y-131722857D01*
X-12723904Y-131627619D01*
X-12771523Y-131580000D01*
X-12866761Y-131532380D01*
X-13057238Y-131532380D01*
X-13152476Y-131580000D01*
X-13200095Y-131627619D01*
X-13247714Y-131722857D01*
X-13247714Y-131960952D01*
X-13200095Y-132056190D01*
X-13152476Y-132103809D01*
X-13057238Y-132151428D01*
X-12866761Y-132151428D01*
X-12771523Y-132103809D01*
X-12723904Y-132056190D01*
X-12676285Y-131960952D01*
X-28391666Y-132437142D02*
X-28439285Y-132484761D01*
X-28582142Y-132532380D01*
X-28677380Y-132532380D01*
X-28820238Y-132484761D01*
X-28915476Y-132389523D01*
X-28963095Y-132294285D01*
X-29010714Y-132103809D01*
X-29010714Y-131960952D01*
X-28963095Y-131770476D01*
X-28915476Y-131675238D01*
X-28820238Y-131580000D01*
X-28677380Y-131532380D01*
X-28582142Y-131532380D01*
X-28439285Y-131580000D01*
X-28391666Y-131627619D01*
X-27820238Y-131960952D02*
X-27915476Y-131913333D01*
X-27963095Y-131865714D01*
X-28010714Y-131770476D01*
X-28010714Y-131722857D01*
X-27963095Y-131627619D01*
X-27915476Y-131580000D01*
X-27820238Y-131532380D01*
X-27629761Y-131532380D01*
X-27534523Y-131580000D01*
X-27486904Y-131627619D01*
X-27439285Y-131722857D01*
X-27439285Y-131770476D01*
X-27486904Y-131865714D01*
X-27534523Y-131913333D01*
X-27629761Y-131960952D01*
X-27820238Y-131960952D01*
X-27915476Y-132008571D01*
X-27963095Y-132056190D01*
X-28010714Y-132151428D01*
X-28010714Y-132341904D01*
X-27963095Y-132437142D01*
X-27915476Y-132484761D01*
X-27820238Y-132532380D01*
X-27629761Y-132532380D01*
X-27534523Y-132484761D01*
X-27486904Y-132437142D01*
X-27439285Y-132341904D01*
X-27439285Y-132151428D01*
X-27486904Y-132056190D01*
X-27534523Y-132008571D01*
X-27629761Y-131960952D01*
X-43141666Y-132437142D02*
X-43189285Y-132484761D01*
X-43332142Y-132532380D01*
X-43427380Y-132532380D01*
X-43570238Y-132484761D01*
X-43665476Y-132389523D01*
X-43713095Y-132294285D01*
X-43760714Y-132103809D01*
X-43760714Y-131960952D01*
X-43713095Y-131770476D01*
X-43665476Y-131675238D01*
X-43570238Y-131580000D01*
X-43427380Y-131532380D01*
X-43332142Y-131532380D01*
X-43189285Y-131580000D01*
X-43141666Y-131627619D01*
X-42808333Y-131532380D02*
X-42141666Y-131532380D01*
X-42570238Y-132532380D01*
X-72666666Y-132437142D02*
X-72714285Y-132484761D01*
X-72857142Y-132532380D01*
X-72952380Y-132532380D01*
X-73095238Y-132484761D01*
X-73190476Y-132389523D01*
X-73238095Y-132294285D01*
X-73285714Y-132103809D01*
X-73285714Y-131960952D01*
X-73238095Y-131770476D01*
X-73190476Y-131675238D01*
X-73095238Y-131580000D01*
X-72952380Y-131532380D01*
X-72857142Y-131532380D01*
X-72714285Y-131580000D01*
X-72666666Y-131627619D01*
X-71761904Y-131532380D02*
X-72238095Y-131532380D01*
X-72285714Y-132008571D01*
X-72238095Y-131960952D01*
X-72142857Y-131913333D01*
X-71904761Y-131913333D01*
X-71809523Y-131960952D01*
X-71761904Y-132008571D01*
X-71714285Y-132103809D01*
X-71714285Y-132341904D01*
X-71761904Y-132437142D01*
X-71809523Y-132484761D01*
X-71904761Y-132532380D01*
X-72142857Y-132532380D01*
X-72238095Y-132484761D01*
X-72285714Y-132437142D01*
X-87761904Y-15702380D02*
X-87761904Y-14702380D01*
X-87761904Y-15178571D02*
X-87190476Y-15178571D01*
X-87190476Y-15702380D02*
X-87190476Y-14702380D01*
X-86190476Y-15702380D02*
X-86761904Y-15702380D01*
X-86476190Y-15702380D02*
X-86476190Y-14702380D01*
X-86571428Y-14845238D01*
X-86666666Y-14940476D01*
X-86761904Y-14988095D01*
X348543714Y-127452380D02*
X348543714Y-126452380D01*
X348781809Y-126452380D01*
X348924666Y-126500000D01*
X349019904Y-126595238D01*
X349067523Y-126690476D01*
X349115142Y-126880952D01*
X349115142Y-127023809D01*
X349067523Y-127214285D01*
X349019904Y-127309523D01*
X348924666Y-127404761D01*
X348781809Y-127452380D01*
X348543714Y-127452380D01*
X349448476Y-126452380D02*
X350067523Y-126452380D01*
X349734190Y-126833333D01*
X349877047Y-126833333D01*
X349972285Y-126880952D01*
X350019904Y-126928571D01*
X350067523Y-127023809D01*
X350067523Y-127261904D01*
X350019904Y-127357142D01*
X349972285Y-127404761D01*
X349877047Y-127452380D01*
X349591333Y-127452380D01*
X349496095Y-127404761D01*
X349448476Y-127357142D01*
X350686571Y-126452380D02*
X350781809Y-126452380D01*
X350877047Y-126500000D01*
X350924666Y-126547619D01*
X350972285Y-126642857D01*
X351019904Y-126833333D01*
X351019904Y-127071428D01*
X350972285Y-127261904D01*
X350924666Y-127357142D01*
X350877047Y-127404761D01*
X350781809Y-127452380D01*
X350686571Y-127452380D01*
X350591333Y-127404761D01*
X350543714Y-127357142D01*
X350496095Y-127261904D01*
X350448476Y-127071428D01*
X350448476Y-126833333D01*
X350496095Y-126642857D01*
X350543714Y-126547619D01*
X350591333Y-126500000D01*
X350686571Y-126452380D01*
X358935714Y-129052380D02*
X358364285Y-129052380D01*
X358650000Y-129052380D02*
X358650000Y-128052380D01*
X358554761Y-128195238D01*
X358459523Y-128290476D01*
X358364285Y-128338095D01*
X319079714Y-127452380D02*
X319079714Y-126452380D01*
X319317809Y-126452380D01*
X319460666Y-126500000D01*
X319555904Y-126595238D01*
X319603523Y-126690476D01*
X319651142Y-126880952D01*
X319651142Y-127023809D01*
X319603523Y-127214285D01*
X319555904Y-127309523D01*
X319460666Y-127404761D01*
X319317809Y-127452380D01*
X319079714Y-127452380D01*
X320032095Y-126547619D02*
X320079714Y-126500000D01*
X320174952Y-126452380D01*
X320413047Y-126452380D01*
X320508285Y-126500000D01*
X320555904Y-126547619D01*
X320603523Y-126642857D01*
X320603523Y-126738095D01*
X320555904Y-126880952D01*
X319984476Y-127452380D01*
X320603523Y-127452380D01*
X321174952Y-126880952D02*
X321079714Y-126833333D01*
X321032095Y-126785714D01*
X320984476Y-126690476D01*
X320984476Y-126642857D01*
X321032095Y-126547619D01*
X321079714Y-126500000D01*
X321174952Y-126452380D01*
X321365428Y-126452380D01*
X321460666Y-126500000D01*
X321508285Y-126547619D01*
X321555904Y-126642857D01*
X321555904Y-126690476D01*
X321508285Y-126785714D01*
X321460666Y-126833333D01*
X321365428Y-126880952D01*
X321174952Y-126880952D01*
X321079714Y-126928571D01*
X321032095Y-126976190D01*
X320984476Y-127071428D01*
X320984476Y-127261904D01*
X321032095Y-127357142D01*
X321079714Y-127404761D01*
X321174952Y-127452380D01*
X321365428Y-127452380D01*
X321460666Y-127404761D01*
X321508285Y-127357142D01*
X321555904Y-127261904D01*
X321555904Y-127071428D01*
X321508285Y-126976190D01*
X321460666Y-126928571D01*
X321365428Y-126880952D01*
X329435714Y-129052380D02*
X328864285Y-129052380D01*
X329150000Y-129052380D02*
X329150000Y-128052380D01*
X329054761Y-128195238D01*
X328959523Y-128290476D01*
X328864285Y-128338095D01*
X289361714Y-127452380D02*
X289361714Y-126452380D01*
X289599809Y-126452380D01*
X289742666Y-126500000D01*
X289837904Y-126595238D01*
X289885523Y-126690476D01*
X289933142Y-126880952D01*
X289933142Y-127023809D01*
X289885523Y-127214285D01*
X289837904Y-127309523D01*
X289742666Y-127404761D01*
X289599809Y-127452380D01*
X289361714Y-127452380D01*
X290314095Y-126547619D02*
X290361714Y-126500000D01*
X290456952Y-126452380D01*
X290695047Y-126452380D01*
X290790285Y-126500000D01*
X290837904Y-126547619D01*
X290885523Y-126642857D01*
X290885523Y-126738095D01*
X290837904Y-126880952D01*
X290266476Y-127452380D01*
X290885523Y-127452380D01*
X291742666Y-126452380D02*
X291552190Y-126452380D01*
X291456952Y-126500000D01*
X291409333Y-126547619D01*
X291314095Y-126690476D01*
X291266476Y-126880952D01*
X291266476Y-127261904D01*
X291314095Y-127357142D01*
X291361714Y-127404761D01*
X291456952Y-127452380D01*
X291647428Y-127452380D01*
X291742666Y-127404761D01*
X291790285Y-127357142D01*
X291837904Y-127261904D01*
X291837904Y-127023809D01*
X291790285Y-126928571D01*
X291742666Y-126880952D01*
X291647428Y-126833333D01*
X291456952Y-126833333D01*
X291361714Y-126880952D01*
X291314095Y-126928571D01*
X291266476Y-127023809D01*
X299935714Y-129052380D02*
X299364285Y-129052380D01*
X299650000Y-129052380D02*
X299650000Y-128052380D01*
X299554761Y-128195238D01*
X299459523Y-128290476D01*
X299364285Y-128338095D01*
X259897714Y-127452380D02*
X259897714Y-126452380D01*
X260135809Y-126452380D01*
X260278666Y-126500000D01*
X260373904Y-126595238D01*
X260421523Y-126690476D01*
X260469142Y-126880952D01*
X260469142Y-127023809D01*
X260421523Y-127214285D01*
X260373904Y-127309523D01*
X260278666Y-127404761D01*
X260135809Y-127452380D01*
X259897714Y-127452380D01*
X260850095Y-126547619D02*
X260897714Y-126500000D01*
X260992952Y-126452380D01*
X261231047Y-126452380D01*
X261326285Y-126500000D01*
X261373904Y-126547619D01*
X261421523Y-126642857D01*
X261421523Y-126738095D01*
X261373904Y-126880952D01*
X260802476Y-127452380D01*
X261421523Y-127452380D01*
X262278666Y-126785714D02*
X262278666Y-127452380D01*
X262040571Y-126404761D02*
X261802476Y-127119047D01*
X262421523Y-127119047D01*
X270435714Y-129052380D02*
X269864285Y-129052380D01*
X270150000Y-129052380D02*
X270150000Y-128052380D01*
X270054761Y-128195238D01*
X269959523Y-128290476D01*
X269864285Y-128338095D01*
X230433714Y-127452380D02*
X230433714Y-126452380D01*
X230671809Y-126452380D01*
X230814666Y-126500000D01*
X230909904Y-126595238D01*
X230957523Y-126690476D01*
X231005142Y-126880952D01*
X231005142Y-127023809D01*
X230957523Y-127214285D01*
X230909904Y-127309523D01*
X230814666Y-127404761D01*
X230671809Y-127452380D01*
X230433714Y-127452380D01*
X231386095Y-126547619D02*
X231433714Y-126500000D01*
X231528952Y-126452380D01*
X231767047Y-126452380D01*
X231862285Y-126500000D01*
X231909904Y-126547619D01*
X231957523Y-126642857D01*
X231957523Y-126738095D01*
X231909904Y-126880952D01*
X231338476Y-127452380D01*
X231957523Y-127452380D01*
X232338476Y-126547619D02*
X232386095Y-126500000D01*
X232481333Y-126452380D01*
X232719428Y-126452380D01*
X232814666Y-126500000D01*
X232862285Y-126547619D01*
X232909904Y-126642857D01*
X232909904Y-126738095D01*
X232862285Y-126880952D01*
X232290857Y-127452380D01*
X232909904Y-127452380D01*
X240935714Y-129052380D02*
X240364285Y-129052380D01*
X240650000Y-129052380D02*
X240650000Y-128052380D01*
X240554761Y-128195238D01*
X240459523Y-128290476D01*
X240364285Y-128338095D01*
X200969714Y-127452380D02*
X200969714Y-126452380D01*
X201207809Y-126452380D01*
X201350666Y-126500000D01*
X201445904Y-126595238D01*
X201493523Y-126690476D01*
X201541142Y-126880952D01*
X201541142Y-127023809D01*
X201493523Y-127214285D01*
X201445904Y-127309523D01*
X201350666Y-127404761D01*
X201207809Y-127452380D01*
X200969714Y-127452380D01*
X201922095Y-126547619D02*
X201969714Y-126500000D01*
X202064952Y-126452380D01*
X202303047Y-126452380D01*
X202398285Y-126500000D01*
X202445904Y-126547619D01*
X202493523Y-126642857D01*
X202493523Y-126738095D01*
X202445904Y-126880952D01*
X201874476Y-127452380D01*
X202493523Y-127452380D01*
X203112571Y-126452380D02*
X203207809Y-126452380D01*
X203303047Y-126500000D01*
X203350666Y-126547619D01*
X203398285Y-126642857D01*
X203445904Y-126833333D01*
X203445904Y-127071428D01*
X203398285Y-127261904D01*
X203350666Y-127357142D01*
X203303047Y-127404761D01*
X203207809Y-127452380D01*
X203112571Y-127452380D01*
X203017333Y-127404761D01*
X202969714Y-127357142D01*
X202922095Y-127261904D01*
X202874476Y-127071428D01*
X202874476Y-126833333D01*
X202922095Y-126642857D01*
X202969714Y-126547619D01*
X203017333Y-126500000D01*
X203112571Y-126452380D01*
X211435714Y-129052380D02*
X210864285Y-129052380D01*
X211150000Y-129052380D02*
X211150000Y-128052380D01*
X211054761Y-128195238D01*
X210959523Y-128290476D01*
X210864285Y-128338095D01*
X171505714Y-127452380D02*
X171505714Y-126452380D01*
X171743809Y-126452380D01*
X171886666Y-126500000D01*
X171981904Y-126595238D01*
X172029523Y-126690476D01*
X172077142Y-126880952D01*
X172077142Y-127023809D01*
X172029523Y-127214285D01*
X171981904Y-127309523D01*
X171886666Y-127404761D01*
X171743809Y-127452380D01*
X171505714Y-127452380D01*
X173029523Y-127452380D02*
X172458095Y-127452380D01*
X172743809Y-127452380D02*
X172743809Y-126452380D01*
X172648571Y-126595238D01*
X172553333Y-126690476D01*
X172458095Y-126738095D01*
X173600952Y-126880952D02*
X173505714Y-126833333D01*
X173458095Y-126785714D01*
X173410476Y-126690476D01*
X173410476Y-126642857D01*
X173458095Y-126547619D01*
X173505714Y-126500000D01*
X173600952Y-126452380D01*
X173791428Y-126452380D01*
X173886666Y-126500000D01*
X173934285Y-126547619D01*
X173981904Y-126642857D01*
X173981904Y-126690476D01*
X173934285Y-126785714D01*
X173886666Y-126833333D01*
X173791428Y-126880952D01*
X173600952Y-126880952D01*
X173505714Y-126928571D01*
X173458095Y-126976190D01*
X173410476Y-127071428D01*
X173410476Y-127261904D01*
X173458095Y-127357142D01*
X173505714Y-127404761D01*
X173600952Y-127452380D01*
X173791428Y-127452380D01*
X173886666Y-127404761D01*
X173934285Y-127357142D01*
X173981904Y-127261904D01*
X173981904Y-127071428D01*
X173934285Y-126976190D01*
X173886666Y-126928571D01*
X173791428Y-126880952D01*
X181935714Y-129052380D02*
X181364285Y-129052380D01*
X181650000Y-129052380D02*
X181650000Y-128052380D01*
X181554761Y-128195238D01*
X181459523Y-128290476D01*
X181364285Y-128338095D01*
X142041714Y-127452380D02*
X142041714Y-126452380D01*
X142279809Y-126452380D01*
X142422666Y-126500000D01*
X142517904Y-126595238D01*
X142565523Y-126690476D01*
X142613142Y-126880952D01*
X142613142Y-127023809D01*
X142565523Y-127214285D01*
X142517904Y-127309523D01*
X142422666Y-127404761D01*
X142279809Y-127452380D01*
X142041714Y-127452380D01*
X143565523Y-127452380D02*
X142994095Y-127452380D01*
X143279809Y-127452380D02*
X143279809Y-126452380D01*
X143184571Y-126595238D01*
X143089333Y-126690476D01*
X142994095Y-126738095D01*
X144422666Y-126452380D02*
X144232190Y-126452380D01*
X144136952Y-126500000D01*
X144089333Y-126547619D01*
X143994095Y-126690476D01*
X143946476Y-126880952D01*
X143946476Y-127261904D01*
X143994095Y-127357142D01*
X144041714Y-127404761D01*
X144136952Y-127452380D01*
X144327428Y-127452380D01*
X144422666Y-127404761D01*
X144470285Y-127357142D01*
X144517904Y-127261904D01*
X144517904Y-127023809D01*
X144470285Y-126928571D01*
X144422666Y-126880952D01*
X144327428Y-126833333D01*
X144136952Y-126833333D01*
X144041714Y-126880952D01*
X143994095Y-126928571D01*
X143946476Y-127023809D01*
X152435714Y-129052380D02*
X151864285Y-129052380D01*
X152150000Y-129052380D02*
X152150000Y-128052380D01*
X152054761Y-128195238D01*
X151959523Y-128290476D01*
X151864285Y-128338095D01*
X112577714Y-127452380D02*
X112577714Y-126452380D01*
X112815809Y-126452380D01*
X112958666Y-126500000D01*
X113053904Y-126595238D01*
X113101523Y-126690476D01*
X113149142Y-126880952D01*
X113149142Y-127023809D01*
X113101523Y-127214285D01*
X113053904Y-127309523D01*
X112958666Y-127404761D01*
X112815809Y-127452380D01*
X112577714Y-127452380D01*
X114101523Y-127452380D02*
X113530095Y-127452380D01*
X113815809Y-127452380D02*
X113815809Y-126452380D01*
X113720571Y-126595238D01*
X113625333Y-126690476D01*
X113530095Y-126738095D01*
X114958666Y-126785714D02*
X114958666Y-127452380D01*
X114720571Y-126404761D02*
X114482476Y-127119047D01*
X115101523Y-127119047D01*
X122935714Y-129052380D02*
X122364285Y-129052380D01*
X122650000Y-129052380D02*
X122650000Y-128052380D01*
X122554761Y-128195238D01*
X122459523Y-128290476D01*
X122364285Y-128338095D01*
X83113714Y-127452380D02*
X83113714Y-126452380D01*
X83351809Y-126452380D01*
X83494666Y-126500000D01*
X83589904Y-126595238D01*
X83637523Y-126690476D01*
X83685142Y-126880952D01*
X83685142Y-127023809D01*
X83637523Y-127214285D01*
X83589904Y-127309523D01*
X83494666Y-127404761D01*
X83351809Y-127452380D01*
X83113714Y-127452380D01*
X84637523Y-127452380D02*
X84066095Y-127452380D01*
X84351809Y-127452380D02*
X84351809Y-126452380D01*
X84256571Y-126595238D01*
X84161333Y-126690476D01*
X84066095Y-126738095D01*
X85018476Y-126547619D02*
X85066095Y-126500000D01*
X85161333Y-126452380D01*
X85399428Y-126452380D01*
X85494666Y-126500000D01*
X85542285Y-126547619D01*
X85589904Y-126642857D01*
X85589904Y-126738095D01*
X85542285Y-126880952D01*
X84970857Y-127452380D01*
X85589904Y-127452380D01*
X93435714Y-129052380D02*
X92864285Y-129052380D01*
X93150000Y-129052380D02*
X93150000Y-128052380D01*
X93054761Y-128195238D01*
X92959523Y-128290476D01*
X92864285Y-128338095D01*
X53395714Y-127452380D02*
X53395714Y-126452380D01*
X53633809Y-126452380D01*
X53776666Y-126500000D01*
X53871904Y-126595238D01*
X53919523Y-126690476D01*
X53967142Y-126880952D01*
X53967142Y-127023809D01*
X53919523Y-127214285D01*
X53871904Y-127309523D01*
X53776666Y-127404761D01*
X53633809Y-127452380D01*
X53395714Y-127452380D01*
X54919523Y-127452380D02*
X54348095Y-127452380D01*
X54633809Y-127452380D02*
X54633809Y-126452380D01*
X54538571Y-126595238D01*
X54443333Y-126690476D01*
X54348095Y-126738095D01*
X55538571Y-126452380D02*
X55633809Y-126452380D01*
X55729047Y-126500000D01*
X55776666Y-126547619D01*
X55824285Y-126642857D01*
X55871904Y-126833333D01*
X55871904Y-127071428D01*
X55824285Y-127261904D01*
X55776666Y-127357142D01*
X55729047Y-127404761D01*
X55633809Y-127452380D01*
X55538571Y-127452380D01*
X55443333Y-127404761D01*
X55395714Y-127357142D01*
X55348095Y-127261904D01*
X55300476Y-127071428D01*
X55300476Y-126833333D01*
X55348095Y-126642857D01*
X55395714Y-126547619D01*
X55443333Y-126500000D01*
X55538571Y-126452380D01*
X63935714Y-129052380D02*
X63364285Y-129052380D01*
X63650000Y-129052380D02*
X63650000Y-128052380D01*
X63554761Y-128195238D01*
X63459523Y-128290476D01*
X63364285Y-128338095D01*
X24915904Y-127452380D02*
X24915904Y-126452380D01*
X25154000Y-126452380D01*
X25296857Y-126500000D01*
X25392095Y-126595238D01*
X25439714Y-126690476D01*
X25487333Y-126880952D01*
X25487333Y-127023809D01*
X25439714Y-127214285D01*
X25392095Y-127309523D01*
X25296857Y-127404761D01*
X25154000Y-127452380D01*
X24915904Y-127452380D01*
X26058761Y-126880952D02*
X25963523Y-126833333D01*
X25915904Y-126785714D01*
X25868285Y-126690476D01*
X25868285Y-126642857D01*
X25915904Y-126547619D01*
X25963523Y-126500000D01*
X26058761Y-126452380D01*
X26249238Y-126452380D01*
X26344476Y-126500000D01*
X26392095Y-126547619D01*
X26439714Y-126642857D01*
X26439714Y-126690476D01*
X26392095Y-126785714D01*
X26344476Y-126833333D01*
X26249238Y-126880952D01*
X26058761Y-126880952D01*
X25963523Y-126928571D01*
X25915904Y-126976190D01*
X25868285Y-127071428D01*
X25868285Y-127261904D01*
X25915904Y-127357142D01*
X25963523Y-127404761D01*
X26058761Y-127452380D01*
X26249238Y-127452380D01*
X26344476Y-127404761D01*
X26392095Y-127357142D01*
X26439714Y-127261904D01*
X26439714Y-127071428D01*
X26392095Y-126976190D01*
X26344476Y-126928571D01*
X26249238Y-126880952D01*
X34435714Y-129052380D02*
X33864285Y-129052380D01*
X34150000Y-129052380D02*
X34150000Y-128052380D01*
X34054761Y-128195238D01*
X33959523Y-128290476D01*
X33864285Y-128338095D01*
X-4548095Y-127452380D02*
X-4548095Y-126452380D01*
X-4310000Y-126452380D01*
X-4167142Y-126500000D01*
X-4071904Y-126595238D01*
X-4024285Y-126690476D01*
X-3976666Y-126880952D01*
X-3976666Y-127023809D01*
X-4024285Y-127214285D01*
X-4071904Y-127309523D01*
X-4167142Y-127404761D01*
X-4310000Y-127452380D01*
X-4548095Y-127452380D01*
X-3119523Y-126452380D02*
X-3310000Y-126452380D01*
X-3405238Y-126500000D01*
X-3452857Y-126547619D01*
X-3548095Y-126690476D01*
X-3595714Y-126880952D01*
X-3595714Y-127261904D01*
X-3548095Y-127357142D01*
X-3500476Y-127404761D01*
X-3405238Y-127452380D01*
X-3214761Y-127452380D01*
X-3119523Y-127404761D01*
X-3071904Y-127357142D01*
X-3024285Y-127261904D01*
X-3024285Y-127023809D01*
X-3071904Y-126928571D01*
X-3119523Y-126880952D01*
X-3214761Y-126833333D01*
X-3405238Y-126833333D01*
X-3500476Y-126880952D01*
X-3548095Y-126928571D01*
X-3595714Y-127023809D01*
X4935714Y-129052380D02*
X4364285Y-129052380D01*
X4650000Y-129052380D02*
X4650000Y-128052380D01*
X4554761Y-128195238D01*
X4459523Y-128290476D01*
X4364285Y-128338095D01*
X-34012095Y-127452380D02*
X-34012095Y-126452380D01*
X-33774000Y-126452380D01*
X-33631142Y-126500000D01*
X-33535904Y-126595238D01*
X-33488285Y-126690476D01*
X-33440666Y-126880952D01*
X-33440666Y-127023809D01*
X-33488285Y-127214285D01*
X-33535904Y-127309523D01*
X-33631142Y-127404761D01*
X-33774000Y-127452380D01*
X-34012095Y-127452380D01*
X-32583523Y-126785714D02*
X-32583523Y-127452380D01*
X-32821619Y-126404761D02*
X-33059714Y-127119047D01*
X-32440666Y-127119047D01*
X-24564285Y-129052380D02*
X-25135714Y-129052380D01*
X-24850000Y-129052380D02*
X-24850000Y-128052380D01*
X-24945238Y-128195238D01*
X-25040476Y-128290476D01*
X-25135714Y-128338095D01*
X363275714Y-127452380D02*
X363275714Y-126452380D01*
X363513809Y-126452380D01*
X363656666Y-126500000D01*
X363751904Y-126595238D01*
X363799523Y-126690476D01*
X363847142Y-126880952D01*
X363847142Y-127023809D01*
X363799523Y-127214285D01*
X363751904Y-127309523D01*
X363656666Y-127404761D01*
X363513809Y-127452380D01*
X363275714Y-127452380D01*
X364180476Y-126452380D02*
X364799523Y-126452380D01*
X364466190Y-126833333D01*
X364609047Y-126833333D01*
X364704285Y-126880952D01*
X364751904Y-126928571D01*
X364799523Y-127023809D01*
X364799523Y-127261904D01*
X364751904Y-127357142D01*
X364704285Y-127404761D01*
X364609047Y-127452380D01*
X364323333Y-127452380D01*
X364228095Y-127404761D01*
X364180476Y-127357142D01*
X365751904Y-127452380D02*
X365180476Y-127452380D01*
X365466190Y-127452380D02*
X365466190Y-126452380D01*
X365370952Y-126595238D01*
X365275714Y-126690476D01*
X365180476Y-126738095D01*
X373685714Y-129052380D02*
X373114285Y-129052380D01*
X373400000Y-129052380D02*
X373400000Y-128052380D01*
X373304761Y-128195238D01*
X373209523Y-128290476D01*
X373114285Y-128338095D01*
X333811714Y-127452380D02*
X333811714Y-126452380D01*
X334049809Y-126452380D01*
X334192666Y-126500000D01*
X334287904Y-126595238D01*
X334335523Y-126690476D01*
X334383142Y-126880952D01*
X334383142Y-127023809D01*
X334335523Y-127214285D01*
X334287904Y-127309523D01*
X334192666Y-127404761D01*
X334049809Y-127452380D01*
X333811714Y-127452380D01*
X334764095Y-126547619D02*
X334811714Y-126500000D01*
X334906952Y-126452380D01*
X335145047Y-126452380D01*
X335240285Y-126500000D01*
X335287904Y-126547619D01*
X335335523Y-126642857D01*
X335335523Y-126738095D01*
X335287904Y-126880952D01*
X334716476Y-127452380D01*
X335335523Y-127452380D01*
X335811714Y-127452380D02*
X336002190Y-127452380D01*
X336097428Y-127404761D01*
X336145047Y-127357142D01*
X336240285Y-127214285D01*
X336287904Y-127023809D01*
X336287904Y-126642857D01*
X336240285Y-126547619D01*
X336192666Y-126500000D01*
X336097428Y-126452380D01*
X335906952Y-126452380D01*
X335811714Y-126500000D01*
X335764095Y-126547619D01*
X335716476Y-126642857D01*
X335716476Y-126880952D01*
X335764095Y-126976190D01*
X335811714Y-127023809D01*
X335906952Y-127071428D01*
X336097428Y-127071428D01*
X336192666Y-127023809D01*
X336240285Y-126976190D01*
X336287904Y-126880952D01*
X344185714Y-129052380D02*
X343614285Y-129052380D01*
X343900000Y-129052380D02*
X343900000Y-128052380D01*
X343804761Y-128195238D01*
X343709523Y-128290476D01*
X343614285Y-128338095D01*
X304093714Y-127452380D02*
X304093714Y-126452380D01*
X304331809Y-126452380D01*
X304474666Y-126500000D01*
X304569904Y-126595238D01*
X304617523Y-126690476D01*
X304665142Y-126880952D01*
X304665142Y-127023809D01*
X304617523Y-127214285D01*
X304569904Y-127309523D01*
X304474666Y-127404761D01*
X304331809Y-127452380D01*
X304093714Y-127452380D01*
X305046095Y-126547619D02*
X305093714Y-126500000D01*
X305188952Y-126452380D01*
X305427047Y-126452380D01*
X305522285Y-126500000D01*
X305569904Y-126547619D01*
X305617523Y-126642857D01*
X305617523Y-126738095D01*
X305569904Y-126880952D01*
X304998476Y-127452380D01*
X305617523Y-127452380D01*
X305950857Y-126452380D02*
X306617523Y-126452380D01*
X306188952Y-127452380D01*
X314685714Y-129052380D02*
X314114285Y-129052380D01*
X314400000Y-129052380D02*
X314400000Y-128052380D01*
X314304761Y-128195238D01*
X314209523Y-128290476D01*
X314114285Y-128338095D01*
X274629714Y-127452380D02*
X274629714Y-126452380D01*
X274867809Y-126452380D01*
X275010666Y-126500000D01*
X275105904Y-126595238D01*
X275153523Y-126690476D01*
X275201142Y-126880952D01*
X275201142Y-127023809D01*
X275153523Y-127214285D01*
X275105904Y-127309523D01*
X275010666Y-127404761D01*
X274867809Y-127452380D01*
X274629714Y-127452380D01*
X275582095Y-126547619D02*
X275629714Y-126500000D01*
X275724952Y-126452380D01*
X275963047Y-126452380D01*
X276058285Y-126500000D01*
X276105904Y-126547619D01*
X276153523Y-126642857D01*
X276153523Y-126738095D01*
X276105904Y-126880952D01*
X275534476Y-127452380D01*
X276153523Y-127452380D01*
X277058285Y-126452380D02*
X276582095Y-126452380D01*
X276534476Y-126928571D01*
X276582095Y-126880952D01*
X276677333Y-126833333D01*
X276915428Y-126833333D01*
X277010666Y-126880952D01*
X277058285Y-126928571D01*
X277105904Y-127023809D01*
X277105904Y-127261904D01*
X277058285Y-127357142D01*
X277010666Y-127404761D01*
X276915428Y-127452380D01*
X276677333Y-127452380D01*
X276582095Y-127404761D01*
X276534476Y-127357142D01*
X285185714Y-129052380D02*
X284614285Y-129052380D01*
X284900000Y-129052380D02*
X284900000Y-128052380D01*
X284804761Y-128195238D01*
X284709523Y-128290476D01*
X284614285Y-128338095D01*
X245165714Y-127452380D02*
X245165714Y-126452380D01*
X245403809Y-126452380D01*
X245546666Y-126500000D01*
X245641904Y-126595238D01*
X245689523Y-126690476D01*
X245737142Y-126880952D01*
X245737142Y-127023809D01*
X245689523Y-127214285D01*
X245641904Y-127309523D01*
X245546666Y-127404761D01*
X245403809Y-127452380D01*
X245165714Y-127452380D01*
X246118095Y-126547619D02*
X246165714Y-126500000D01*
X246260952Y-126452380D01*
X246499047Y-126452380D01*
X246594285Y-126500000D01*
X246641904Y-126547619D01*
X246689523Y-126642857D01*
X246689523Y-126738095D01*
X246641904Y-126880952D01*
X246070476Y-127452380D01*
X246689523Y-127452380D01*
X247022857Y-126452380D02*
X247641904Y-126452380D01*
X247308571Y-126833333D01*
X247451428Y-126833333D01*
X247546666Y-126880952D01*
X247594285Y-126928571D01*
X247641904Y-127023809D01*
X247641904Y-127261904D01*
X247594285Y-127357142D01*
X247546666Y-127404761D01*
X247451428Y-127452380D01*
X247165714Y-127452380D01*
X247070476Y-127404761D01*
X247022857Y-127357142D01*
X255685714Y-129052380D02*
X255114285Y-129052380D01*
X255400000Y-129052380D02*
X255400000Y-128052380D01*
X255304761Y-128195238D01*
X255209523Y-128290476D01*
X255114285Y-128338095D01*
X215701714Y-127452380D02*
X215701714Y-126452380D01*
X215939809Y-126452380D01*
X216082666Y-126500000D01*
X216177904Y-126595238D01*
X216225523Y-126690476D01*
X216273142Y-126880952D01*
X216273142Y-127023809D01*
X216225523Y-127214285D01*
X216177904Y-127309523D01*
X216082666Y-127404761D01*
X215939809Y-127452380D01*
X215701714Y-127452380D01*
X216654095Y-126547619D02*
X216701714Y-126500000D01*
X216796952Y-126452380D01*
X217035047Y-126452380D01*
X217130285Y-126500000D01*
X217177904Y-126547619D01*
X217225523Y-126642857D01*
X217225523Y-126738095D01*
X217177904Y-126880952D01*
X216606476Y-127452380D01*
X217225523Y-127452380D01*
X218177904Y-127452380D02*
X217606476Y-127452380D01*
X217892190Y-127452380D02*
X217892190Y-126452380D01*
X217796952Y-126595238D01*
X217701714Y-126690476D01*
X217606476Y-126738095D01*
X226185714Y-129052380D02*
X225614285Y-129052380D01*
X225900000Y-129052380D02*
X225900000Y-128052380D01*
X225804761Y-128195238D01*
X225709523Y-128290476D01*
X225614285Y-128338095D01*
X186237714Y-127452380D02*
X186237714Y-126452380D01*
X186475809Y-126452380D01*
X186618666Y-126500000D01*
X186713904Y-126595238D01*
X186761523Y-126690476D01*
X186809142Y-126880952D01*
X186809142Y-127023809D01*
X186761523Y-127214285D01*
X186713904Y-127309523D01*
X186618666Y-127404761D01*
X186475809Y-127452380D01*
X186237714Y-127452380D01*
X187761523Y-127452380D02*
X187190095Y-127452380D01*
X187475809Y-127452380D02*
X187475809Y-126452380D01*
X187380571Y-126595238D01*
X187285333Y-126690476D01*
X187190095Y-126738095D01*
X188237714Y-127452380D02*
X188428190Y-127452380D01*
X188523428Y-127404761D01*
X188571047Y-127357142D01*
X188666285Y-127214285D01*
X188713904Y-127023809D01*
X188713904Y-126642857D01*
X188666285Y-126547619D01*
X188618666Y-126500000D01*
X188523428Y-126452380D01*
X188332952Y-126452380D01*
X188237714Y-126500000D01*
X188190095Y-126547619D01*
X188142476Y-126642857D01*
X188142476Y-126880952D01*
X188190095Y-126976190D01*
X188237714Y-127023809D01*
X188332952Y-127071428D01*
X188523428Y-127071428D01*
X188618666Y-127023809D01*
X188666285Y-126976190D01*
X188713904Y-126880952D01*
X196685714Y-129052380D02*
X196114285Y-129052380D01*
X196400000Y-129052380D02*
X196400000Y-128052380D01*
X196304761Y-128195238D01*
X196209523Y-128290476D01*
X196114285Y-128338095D01*
X156773714Y-127706380D02*
X156773714Y-126706380D01*
X157011809Y-126706380D01*
X157154666Y-126754000D01*
X157249904Y-126849238D01*
X157297523Y-126944476D01*
X157345142Y-127134952D01*
X157345142Y-127277809D01*
X157297523Y-127468285D01*
X157249904Y-127563523D01*
X157154666Y-127658761D01*
X157011809Y-127706380D01*
X156773714Y-127706380D01*
X158297523Y-127706380D02*
X157726095Y-127706380D01*
X158011809Y-127706380D02*
X158011809Y-126706380D01*
X157916571Y-126849238D01*
X157821333Y-126944476D01*
X157726095Y-126992095D01*
X158630857Y-126706380D02*
X159297523Y-126706380D01*
X158868952Y-127706380D01*
X167185714Y-129052380D02*
X166614285Y-129052380D01*
X166900000Y-129052380D02*
X166900000Y-128052380D01*
X166804761Y-128195238D01*
X166709523Y-128290476D01*
X166614285Y-128338095D01*
X127309714Y-127452380D02*
X127309714Y-126452380D01*
X127547809Y-126452380D01*
X127690666Y-126500000D01*
X127785904Y-126595238D01*
X127833523Y-126690476D01*
X127881142Y-126880952D01*
X127881142Y-127023809D01*
X127833523Y-127214285D01*
X127785904Y-127309523D01*
X127690666Y-127404761D01*
X127547809Y-127452380D01*
X127309714Y-127452380D01*
X128833523Y-127452380D02*
X128262095Y-127452380D01*
X128547809Y-127452380D02*
X128547809Y-126452380D01*
X128452571Y-126595238D01*
X128357333Y-126690476D01*
X128262095Y-126738095D01*
X129738285Y-126452380D02*
X129262095Y-126452380D01*
X129214476Y-126928571D01*
X129262095Y-126880952D01*
X129357333Y-126833333D01*
X129595428Y-126833333D01*
X129690666Y-126880952D01*
X129738285Y-126928571D01*
X129785904Y-127023809D01*
X129785904Y-127261904D01*
X129738285Y-127357142D01*
X129690666Y-127404761D01*
X129595428Y-127452380D01*
X129357333Y-127452380D01*
X129262095Y-127404761D01*
X129214476Y-127357142D01*
X137685714Y-129052380D02*
X137114285Y-129052380D01*
X137400000Y-129052380D02*
X137400000Y-128052380D01*
X137304761Y-128195238D01*
X137209523Y-128290476D01*
X137114285Y-128338095D01*
X97845714Y-127452380D02*
X97845714Y-126452380D01*
X98083809Y-126452380D01*
X98226666Y-126500000D01*
X98321904Y-126595238D01*
X98369523Y-126690476D01*
X98417142Y-126880952D01*
X98417142Y-127023809D01*
X98369523Y-127214285D01*
X98321904Y-127309523D01*
X98226666Y-127404761D01*
X98083809Y-127452380D01*
X97845714Y-127452380D01*
X99369523Y-127452380D02*
X98798095Y-127452380D01*
X99083809Y-127452380D02*
X99083809Y-126452380D01*
X98988571Y-126595238D01*
X98893333Y-126690476D01*
X98798095Y-126738095D01*
X99702857Y-126452380D02*
X100321904Y-126452380D01*
X99988571Y-126833333D01*
X100131428Y-126833333D01*
X100226666Y-126880952D01*
X100274285Y-126928571D01*
X100321904Y-127023809D01*
X100321904Y-127261904D01*
X100274285Y-127357142D01*
X100226666Y-127404761D01*
X100131428Y-127452380D01*
X99845714Y-127452380D01*
X99750476Y-127404761D01*
X99702857Y-127357142D01*
X108185714Y-129052380D02*
X107614285Y-129052380D01*
X107900000Y-129052380D02*
X107900000Y-128052380D01*
X107804761Y-128195238D01*
X107709523Y-128290476D01*
X107614285Y-128338095D01*
X68381714Y-127452380D02*
X68381714Y-126452380D01*
X68619809Y-126452380D01*
X68762666Y-126500000D01*
X68857904Y-126595238D01*
X68905523Y-126690476D01*
X68953142Y-126880952D01*
X68953142Y-127023809D01*
X68905523Y-127214285D01*
X68857904Y-127309523D01*
X68762666Y-127404761D01*
X68619809Y-127452380D01*
X68381714Y-127452380D01*
X69905523Y-127452380D02*
X69334095Y-127452380D01*
X69619809Y-127452380D02*
X69619809Y-126452380D01*
X69524571Y-126595238D01*
X69429333Y-126690476D01*
X69334095Y-126738095D01*
X70857904Y-127452380D02*
X70286476Y-127452380D01*
X70572190Y-127452380D02*
X70572190Y-126452380D01*
X70476952Y-126595238D01*
X70381714Y-126690476D01*
X70286476Y-126738095D01*
X78685714Y-129052380D02*
X78114285Y-129052380D01*
X78400000Y-129052380D02*
X78400000Y-128052380D01*
X78304761Y-128195238D01*
X78209523Y-128290476D01*
X78114285Y-128338095D01*
X39647904Y-127452380D02*
X39647904Y-126452380D01*
X39886000Y-126452380D01*
X40028857Y-126500000D01*
X40124095Y-126595238D01*
X40171714Y-126690476D01*
X40219333Y-126880952D01*
X40219333Y-127023809D01*
X40171714Y-127214285D01*
X40124095Y-127309523D01*
X40028857Y-127404761D01*
X39886000Y-127452380D01*
X39647904Y-127452380D01*
X40695523Y-127452380D02*
X40886000Y-127452380D01*
X40981238Y-127404761D01*
X41028857Y-127357142D01*
X41124095Y-127214285D01*
X41171714Y-127023809D01*
X41171714Y-126642857D01*
X41124095Y-126547619D01*
X41076476Y-126500000D01*
X40981238Y-126452380D01*
X40790761Y-126452380D01*
X40695523Y-126500000D01*
X40647904Y-126547619D01*
X40600285Y-126642857D01*
X40600285Y-126880952D01*
X40647904Y-126976190D01*
X40695523Y-127023809D01*
X40790761Y-127071428D01*
X40981238Y-127071428D01*
X41076476Y-127023809D01*
X41124095Y-126976190D01*
X41171714Y-126880952D01*
X49185714Y-129052380D02*
X48614285Y-129052380D01*
X48900000Y-129052380D02*
X48900000Y-128052380D01*
X48804761Y-128195238D01*
X48709523Y-128290476D01*
X48614285Y-128338095D01*
X10183904Y-127452380D02*
X10183904Y-126452380D01*
X10422000Y-126452380D01*
X10564857Y-126500000D01*
X10660095Y-126595238D01*
X10707714Y-126690476D01*
X10755333Y-126880952D01*
X10755333Y-127023809D01*
X10707714Y-127214285D01*
X10660095Y-127309523D01*
X10564857Y-127404761D01*
X10422000Y-127452380D01*
X10183904Y-127452380D01*
X11088666Y-126452380D02*
X11755333Y-126452380D01*
X11326761Y-127452380D01*
X19685714Y-129052380D02*
X19114285Y-129052380D01*
X19400000Y-129052380D02*
X19400000Y-128052380D01*
X19304761Y-128195238D01*
X19209523Y-128290476D01*
X19114285Y-128338095D01*
X-19280095Y-127452380D02*
X-19280095Y-126452380D01*
X-19042000Y-126452380D01*
X-18899142Y-126500000D01*
X-18803904Y-126595238D01*
X-18756285Y-126690476D01*
X-18708666Y-126880952D01*
X-18708666Y-127023809D01*
X-18756285Y-127214285D01*
X-18803904Y-127309523D01*
X-18899142Y-127404761D01*
X-19042000Y-127452380D01*
X-19280095Y-127452380D01*
X-17803904Y-126452380D02*
X-18280095Y-126452380D01*
X-18327714Y-126928571D01*
X-18280095Y-126880952D01*
X-18184857Y-126833333D01*
X-17946761Y-126833333D01*
X-17851523Y-126880952D01*
X-17803904Y-126928571D01*
X-17756285Y-127023809D01*
X-17756285Y-127261904D01*
X-17803904Y-127357142D01*
X-17851523Y-127404761D01*
X-17946761Y-127452380D01*
X-18184857Y-127452380D01*
X-18280095Y-127404761D01*
X-18327714Y-127357142D01*
X-9814285Y-129052380D02*
X-10385714Y-129052380D01*
X-10100000Y-129052380D02*
X-10100000Y-128052380D01*
X-10195238Y-128195238D01*
X-10290476Y-128290476D01*
X-10385714Y-128338095D01*
X-48744095Y-127452380D02*
X-48744095Y-126452380D01*
X-48506000Y-126452380D01*
X-48363142Y-126500000D01*
X-48267904Y-126595238D01*
X-48220285Y-126690476D01*
X-48172666Y-126880952D01*
X-48172666Y-127023809D01*
X-48220285Y-127214285D01*
X-48267904Y-127309523D01*
X-48363142Y-127404761D01*
X-48506000Y-127452380D01*
X-48744095Y-127452380D01*
X-47839333Y-126452380D02*
X-47220285Y-126452380D01*
X-47553619Y-126833333D01*
X-47410761Y-126833333D01*
X-47315523Y-126880952D01*
X-47267904Y-126928571D01*
X-47220285Y-127023809D01*
X-47220285Y-127261904D01*
X-47267904Y-127357142D01*
X-47315523Y-127404761D01*
X-47410761Y-127452380D01*
X-47696476Y-127452380D01*
X-47791714Y-127404761D01*
X-47839333Y-127357142D01*
X-39314285Y-129052380D02*
X-39885714Y-129052380D01*
X-39600000Y-129052380D02*
X-39600000Y-128052380D01*
X-39695238Y-128195238D01*
X-39790476Y-128290476D01*
X-39885714Y-128338095D01*
X-63476095Y-127452380D02*
X-63476095Y-126452380D01*
X-63238000Y-126452380D01*
X-63095142Y-126500000D01*
X-62999904Y-126595238D01*
X-62952285Y-126690476D01*
X-62904666Y-126880952D01*
X-62904666Y-127023809D01*
X-62952285Y-127214285D01*
X-62999904Y-127309523D01*
X-63095142Y-127404761D01*
X-63238000Y-127452380D01*
X-63476095Y-127452380D01*
X-62523714Y-126547619D02*
X-62476095Y-126500000D01*
X-62380857Y-126452380D01*
X-62142761Y-126452380D01*
X-62047523Y-126500000D01*
X-61999904Y-126547619D01*
X-61952285Y-126642857D01*
X-61952285Y-126738095D01*
X-61999904Y-126880952D01*
X-62571333Y-127452380D01*
X-61952285Y-127452380D01*
X-54064285Y-129052380D02*
X-54635714Y-129052380D01*
X-54350000Y-129052380D02*
X-54350000Y-128052380D01*
X-54445238Y-128195238D01*
X-54540476Y-128290476D01*
X-54635714Y-128338095D01*
X-78208095Y-127452380D02*
X-78208095Y-126452380D01*
X-77970000Y-126452380D01*
X-77827142Y-126500000D01*
X-77731904Y-126595238D01*
X-77684285Y-126690476D01*
X-77636666Y-126880952D01*
X-77636666Y-127023809D01*
X-77684285Y-127214285D01*
X-77731904Y-127309523D01*
X-77827142Y-127404761D01*
X-77970000Y-127452380D01*
X-78208095Y-127452380D01*
X-76684285Y-127452380D02*
X-77255714Y-127452380D01*
X-76970000Y-127452380D02*
X-76970000Y-126452380D01*
X-77065238Y-126595238D01*
X-77160476Y-126690476D01*
X-77255714Y-126738095D01*
X-68814285Y-129052380D02*
X-69385714Y-129052380D01*
X-69100000Y-129052380D02*
X-69100000Y-128052380D01*
X-69195238Y-128195238D01*
X-69290476Y-128290476D01*
X-69385714Y-128338095D01*
X89228333Y-140057142D02*
X89180714Y-140104761D01*
X89037857Y-140152380D01*
X88942619Y-140152380D01*
X88799761Y-140104761D01*
X88704523Y-140009523D01*
X88656904Y-139914285D01*
X88609285Y-139723809D01*
X88609285Y-139580952D01*
X88656904Y-139390476D01*
X88704523Y-139295238D01*
X88799761Y-139200000D01*
X88942619Y-139152380D01*
X89037857Y-139152380D01*
X89180714Y-139200000D01*
X89228333Y-139247619D01*
X90085476Y-139485714D02*
X90085476Y-140152380D01*
X89847380Y-139104761D02*
X89609285Y-139819047D01*
X90228333Y-139819047D01*
X207351333Y-140057142D02*
X207303714Y-140104761D01*
X207160857Y-140152380D01*
X207065619Y-140152380D01*
X206922761Y-140104761D01*
X206827523Y-140009523D01*
X206779904Y-139914285D01*
X206732285Y-139723809D01*
X206732285Y-139580952D01*
X206779904Y-139390476D01*
X206827523Y-139295238D01*
X206922761Y-139200000D01*
X207065619Y-139152380D01*
X207160857Y-139152380D01*
X207303714Y-139200000D01*
X207351333Y-139247619D01*
X207684666Y-139152380D02*
X208303714Y-139152380D01*
X207970380Y-139533333D01*
X208113238Y-139533333D01*
X208208476Y-139580952D01*
X208256095Y-139628571D01*
X208303714Y-139723809D01*
X208303714Y-139961904D01*
X208256095Y-140057142D01*
X208208476Y-140104761D01*
X208113238Y-140152380D01*
X207827523Y-140152380D01*
X207732285Y-140104761D01*
X207684666Y-140057142D01*
X-28881666Y-140057142D02*
X-28929285Y-140104761D01*
X-29072142Y-140152380D01*
X-29167380Y-140152380D01*
X-29310238Y-140104761D01*
X-29405476Y-140009523D01*
X-29453095Y-139914285D01*
X-29500714Y-139723809D01*
X-29500714Y-139580952D01*
X-29453095Y-139390476D01*
X-29405476Y-139295238D01*
X-29310238Y-139200000D01*
X-29167380Y-139152380D01*
X-29072142Y-139152380D01*
X-28929285Y-139200000D01*
X-28881666Y-139247619D01*
X-27929285Y-140152380D02*
X-28500714Y-140152380D01*
X-28215000Y-140152380D02*
X-28215000Y-139152380D01*
X-28310238Y-139295238D01*
X-28405476Y-139390476D01*
X-28500714Y-139438095D01*
X206248095Y-152868380D02*
X206248095Y-153677904D01*
X206295714Y-153773142D01*
X206343333Y-153820761D01*
X206438571Y-153868380D01*
X206629047Y-153868380D01*
X206724285Y-153820761D01*
X206771904Y-153773142D01*
X206819523Y-153677904D01*
X206819523Y-152868380D01*
X207724285Y-153201714D02*
X207724285Y-153868380D01*
X207486190Y-152820761D02*
X207248095Y-153535047D01*
X207867142Y-153535047D01*
X83907333Y-152852380D02*
X83574000Y-152376190D01*
X83335904Y-152852380D02*
X83335904Y-151852380D01*
X83716857Y-151852380D01*
X83812095Y-151900000D01*
X83859714Y-151947619D01*
X83907333Y-152042857D01*
X83907333Y-152185714D01*
X83859714Y-152280952D01*
X83812095Y-152328571D01*
X83716857Y-152376190D01*
X83335904Y-152376190D01*
X84764476Y-152185714D02*
X84764476Y-152852380D01*
X84526380Y-151804761D02*
X84288285Y-152519047D01*
X84907333Y-152519047D01*
X202017333Y-152852380D02*
X201684000Y-152376190D01*
X201445904Y-152852380D02*
X201445904Y-151852380D01*
X201826857Y-151852380D01*
X201922095Y-151900000D01*
X201969714Y-151947619D01*
X202017333Y-152042857D01*
X202017333Y-152185714D01*
X201969714Y-152280952D01*
X201922095Y-152328571D01*
X201826857Y-152376190D01*
X201445904Y-152376190D01*
X202350666Y-151852380D02*
X202969714Y-151852380D01*
X202636380Y-152233333D01*
X202779238Y-152233333D01*
X202874476Y-152280952D01*
X202922095Y-152328571D01*
X202969714Y-152423809D01*
X202969714Y-152661904D01*
X202922095Y-152757142D01*
X202874476Y-152804761D01*
X202779238Y-152852380D01*
X202493523Y-152852380D01*
X202398285Y-152804761D01*
X202350666Y-152757142D01*
X320127333Y-152852380D02*
X319794000Y-152376190D01*
X319555904Y-152852380D02*
X319555904Y-151852380D01*
X319936857Y-151852380D01*
X320032095Y-151900000D01*
X320079714Y-151947619D01*
X320127333Y-152042857D01*
X320127333Y-152185714D01*
X320079714Y-152280952D01*
X320032095Y-152328571D01*
X319936857Y-152376190D01*
X319555904Y-152376190D01*
X320508285Y-151947619D02*
X320555904Y-151900000D01*
X320651142Y-151852380D01*
X320889238Y-151852380D01*
X320984476Y-151900000D01*
X321032095Y-151947619D01*
X321079714Y-152042857D01*
X321079714Y-152138095D01*
X321032095Y-152280952D01*
X320460666Y-152852380D01*
X321079714Y-152852380D01*
X281761904Y-135707380D02*
X281761904Y-134707380D01*
X281761904Y-135183571D02*
X282333333Y-135183571D01*
X282333333Y-135707380D02*
X282333333Y-134707380D01*
X283333333Y-135707380D02*
X282761904Y-135707380D01*
X283047619Y-135707380D02*
X283047619Y-134707380D01*
X282952380Y-134850238D01*
X282857142Y-134945476D01*
X282761904Y-134993095D01*
X283714285Y-134802619D02*
X283761904Y-134755000D01*
X283857142Y-134707380D01*
X284095238Y-134707380D01*
X284190476Y-134755000D01*
X284238095Y-134802619D01*
X284285714Y-134897857D01*
X284285714Y-134993095D01*
X284238095Y-135135952D01*
X283666666Y-135707380D01*
X284285714Y-135707380D01*
X281761904Y-15702380D02*
X281761904Y-14702380D01*
X281761904Y-15178571D02*
X282333333Y-15178571D01*
X282333333Y-15702380D02*
X282333333Y-14702380D01*
X283333333Y-15702380D02*
X282761904Y-15702380D01*
X283047619Y-15702380D02*
X283047619Y-14702380D01*
X282952380Y-14845238D01*
X282857142Y-14940476D01*
X282761904Y-14988095D01*
X284285714Y-15702380D02*
X283714285Y-15702380D01*
X284000000Y-15702380D02*
X284000000Y-14702380D01*
X283904761Y-14845238D01*
X283809523Y-14940476D01*
X283714285Y-14988095D01*
X191761904Y-135702380D02*
X191761904Y-134702380D01*
X191761904Y-135178571D02*
X192333333Y-135178571D01*
X192333333Y-135702380D02*
X192333333Y-134702380D01*
X193333333Y-135702380D02*
X192761904Y-135702380D01*
X193047619Y-135702380D02*
X193047619Y-134702380D01*
X192952380Y-134845238D01*
X192857142Y-134940476D01*
X192761904Y-134988095D01*
X193952380Y-134702380D02*
X194047619Y-134702380D01*
X194142857Y-134750000D01*
X194190476Y-134797619D01*
X194238095Y-134892857D01*
X194285714Y-135083333D01*
X194285714Y-135321428D01*
X194238095Y-135511904D01*
X194190476Y-135607142D01*
X194142857Y-135654761D01*
X194047619Y-135702380D01*
X193952380Y-135702380D01*
X193857142Y-135654761D01*
X193809523Y-135607142D01*
X193761904Y-135511904D01*
X193714285Y-135321428D01*
X193714285Y-135083333D01*
X193761904Y-134892857D01*
X193809523Y-134797619D01*
X193857142Y-134750000D01*
X193952380Y-134702380D01*
X192238095Y-15702380D02*
X192238095Y-14702380D01*
X192238095Y-15178571D02*
X192809523Y-15178571D01*
X192809523Y-15702380D02*
X192809523Y-14702380D01*
X193333333Y-15702380D02*
X193523809Y-15702380D01*
X193619047Y-15654761D01*
X193666666Y-15607142D01*
X193761904Y-15464285D01*
X193809523Y-15273809D01*
X193809523Y-14892857D01*
X193761904Y-14797619D01*
X193714285Y-14750000D01*
X193619047Y-14702380D01*
X193428571Y-14702380D01*
X193333333Y-14750000D01*
X193285714Y-14797619D01*
X193238095Y-14892857D01*
X193238095Y-15130952D01*
X193285714Y-15226190D01*
X193333333Y-15273809D01*
X193428571Y-15321428D01*
X193619047Y-15321428D01*
X193714285Y-15273809D01*
X193761904Y-15226190D01*
X193809523Y-15130952D01*
X102238095Y-135702380D02*
X102238095Y-134702380D01*
X102238095Y-135178571D02*
X102809523Y-135178571D01*
X102809523Y-135702380D02*
X102809523Y-134702380D01*
X103428571Y-135130952D02*
X103333333Y-135083333D01*
X103285714Y-135035714D01*
X103238095Y-134940476D01*
X103238095Y-134892857D01*
X103285714Y-134797619D01*
X103333333Y-134750000D01*
X103428571Y-134702380D01*
X103619047Y-134702380D01*
X103714285Y-134750000D01*
X103761904Y-134797619D01*
X103809523Y-134892857D01*
X103809523Y-134940476D01*
X103761904Y-135035714D01*
X103714285Y-135083333D01*
X103619047Y-135130952D01*
X103428571Y-135130952D01*
X103333333Y-135178571D01*
X103285714Y-135226190D01*
X103238095Y-135321428D01*
X103238095Y-135511904D01*
X103285714Y-135607142D01*
X103333333Y-135654761D01*
X103428571Y-135702380D01*
X103619047Y-135702380D01*
X103714285Y-135654761D01*
X103761904Y-135607142D01*
X103809523Y-135511904D01*
X103809523Y-135321428D01*
X103761904Y-135226190D01*
X103714285Y-135178571D01*
X103619047Y-135130952D01*
X102238095Y-15702380D02*
X102238095Y-14702380D01*
X102238095Y-15178571D02*
X102809523Y-15178571D01*
X102809523Y-15702380D02*
X102809523Y-14702380D01*
X103190476Y-14702380D02*
X103857142Y-14702380D01*
X103428571Y-15702380D01*
X12238095Y-135702380D02*
X12238095Y-134702380D01*
X12238095Y-135178571D02*
X12809523Y-135178571D01*
X12809523Y-135702380D02*
X12809523Y-134702380D01*
X13714285Y-134702380D02*
X13523809Y-134702380D01*
X13428571Y-134750000D01*
X13380952Y-134797619D01*
X13285714Y-134940476D01*
X13238095Y-135130952D01*
X13238095Y-135511904D01*
X13285714Y-135607142D01*
X13333333Y-135654761D01*
X13428571Y-135702380D01*
X13619047Y-135702380D01*
X13714285Y-135654761D01*
X13761904Y-135607142D01*
X13809523Y-135511904D01*
X13809523Y-135273809D01*
X13761904Y-135178571D01*
X13714285Y-135130952D01*
X13619047Y-135083333D01*
X13428571Y-135083333D01*
X13333333Y-135130952D01*
X13285714Y-135178571D01*
X13238095Y-135273809D01*
X12238095Y-15702380D02*
X12238095Y-14702380D01*
X12238095Y-15178571D02*
X12809523Y-15178571D01*
X12809523Y-15702380D02*
X12809523Y-14702380D01*
X13761904Y-14702380D02*
X13285714Y-14702380D01*
X13238095Y-15178571D01*
X13285714Y-15130952D01*
X13380952Y-15083333D01*
X13619047Y-15083333D01*
X13714285Y-15130952D01*
X13761904Y-15178571D01*
X13809523Y-15273809D01*
X13809523Y-15511904D01*
X13761904Y-15607142D01*
X13714285Y-15654761D01*
X13619047Y-15702380D01*
X13380952Y-15702380D01*
X13285714Y-15654761D01*
X13238095Y-15607142D01*
X382238095Y-131702380D02*
X382238095Y-130702380D01*
X382238095Y-131178571D02*
X382809523Y-131178571D01*
X382809523Y-131702380D02*
X382809523Y-130702380D01*
X383714285Y-131035714D02*
X383714285Y-131702380D01*
X383476190Y-130654761D02*
X383238095Y-131369047D01*
X383857142Y-131369047D01*
X382238095Y-15702380D02*
X382238095Y-14702380D01*
X382238095Y-15178571D02*
X382809523Y-15178571D01*
X382809523Y-15702380D02*
X382809523Y-14702380D01*
X383190476Y-14702380D02*
X383809523Y-14702380D01*
X383476190Y-15083333D01*
X383619047Y-15083333D01*
X383714285Y-15130952D01*
X383761904Y-15178571D01*
X383809523Y-15273809D01*
X383809523Y-15511904D01*
X383761904Y-15607142D01*
X383714285Y-15654761D01*
X383619047Y-15702380D01*
X383333333Y-15702380D01*
X383238095Y-15654761D01*
X383190476Y-15607142D01*
X-87761904Y-131702380D02*
X-87761904Y-130702380D01*
X-87761904Y-131178571D02*
X-87190476Y-131178571D01*
X-87190476Y-131702380D02*
X-87190476Y-130702380D01*
X-86761904Y-130797619D02*
X-86714285Y-130750000D01*
X-86619047Y-130702380D01*
X-86380952Y-130702380D01*
X-86285714Y-130750000D01*
X-86238095Y-130797619D01*
X-86190476Y-130892857D01*
X-86190476Y-130988095D01*
X-86238095Y-131130952D01*
X-86809523Y-131702380D01*
X-86190476Y-131702380D01*
M02*
