G04 #@! TF.GenerationSoftware,KiCad,Pcbnew,(5.1.7)-1*
G04 #@! TF.CreationDate,2020-11-09T23:38:36-05:00*
G04 #@! TF.ProjectId,OpeNITHM-full,4f70654e-4954-4484-9d2d-66756c6c2e6b,rev?*
G04 #@! TF.SameCoordinates,Original*
G04 #@! TF.FileFunction,Soldermask,Top*
G04 #@! TF.FilePolarity,Negative*
%FSLAX46Y46*%
G04 Gerber Fmt 4.6, Leading zero omitted, Abs format (unit mm)*
G04 Created by KiCad (PCBNEW (5.1.7)-1) date 2020-11-09 23:38:36*
%MOMM*%
%LPD*%
G01*
G04 APERTURE LIST*
%ADD10O,1.802000X1.802000*%
%ADD11C,0.100000*%
%ADD12O,1.502000X1.502000*%
%ADD13C,1.502000*%
%ADD14C,1.702000*%
%ADD15C,3.302000*%
%ADD16O,1.702000X1.702000*%
G04 APERTURE END LIST*
G36*
G01*
X326569000Y-143050500D02*
X326569000Y-142699500D01*
G75*
G02*
X326744500Y-142524000I175500J0D01*
G01*
X328445500Y-142524000D01*
G75*
G02*
X328621000Y-142699500I0J-175500D01*
G01*
X328621000Y-143050500D01*
G75*
G02*
X328445500Y-143226000I-175500J0D01*
G01*
X326744500Y-143226000D01*
G75*
G02*
X326569000Y-143050500I0J175500D01*
G01*
G37*
G36*
G01*
X326569000Y-144320500D02*
X326569000Y-143969500D01*
G75*
G02*
X326744500Y-143794000I175500J0D01*
G01*
X328445500Y-143794000D01*
G75*
G02*
X328621000Y-143969500I0J-175500D01*
G01*
X328621000Y-144320500D01*
G75*
G02*
X328445500Y-144496000I-175500J0D01*
G01*
X326744500Y-144496000D01*
G75*
G02*
X326569000Y-144320500I0J175500D01*
G01*
G37*
G36*
G01*
X326569000Y-145590500D02*
X326569000Y-145239500D01*
G75*
G02*
X326744500Y-145064000I175500J0D01*
G01*
X328445500Y-145064000D01*
G75*
G02*
X328621000Y-145239500I0J-175500D01*
G01*
X328621000Y-145590500D01*
G75*
G02*
X328445500Y-145766000I-175500J0D01*
G01*
X326744500Y-145766000D01*
G75*
G02*
X326569000Y-145590500I0J175500D01*
G01*
G37*
G36*
G01*
X326569000Y-146860500D02*
X326569000Y-146509500D01*
G75*
G02*
X326744500Y-146334000I175500J0D01*
G01*
X328445500Y-146334000D01*
G75*
G02*
X328621000Y-146509500I0J-175500D01*
G01*
X328621000Y-146860500D01*
G75*
G02*
X328445500Y-147036000I-175500J0D01*
G01*
X326744500Y-147036000D01*
G75*
G02*
X326569000Y-146860500I0J175500D01*
G01*
G37*
G36*
G01*
X326569000Y-148130500D02*
X326569000Y-147779500D01*
G75*
G02*
X326744500Y-147604000I175500J0D01*
G01*
X328445500Y-147604000D01*
G75*
G02*
X328621000Y-147779500I0J-175500D01*
G01*
X328621000Y-148130500D01*
G75*
G02*
X328445500Y-148306000I-175500J0D01*
G01*
X326744500Y-148306000D01*
G75*
G02*
X326569000Y-148130500I0J175500D01*
G01*
G37*
G36*
G01*
X326569000Y-149400500D02*
X326569000Y-149049500D01*
G75*
G02*
X326744500Y-148874000I175500J0D01*
G01*
X328445500Y-148874000D01*
G75*
G02*
X328621000Y-149049500I0J-175500D01*
G01*
X328621000Y-149400500D01*
G75*
G02*
X328445500Y-149576000I-175500J0D01*
G01*
X326744500Y-149576000D01*
G75*
G02*
X326569000Y-149400500I0J175500D01*
G01*
G37*
G36*
G01*
X326569000Y-150670500D02*
X326569000Y-150319500D01*
G75*
G02*
X326744500Y-150144000I175500J0D01*
G01*
X328445500Y-150144000D01*
G75*
G02*
X328621000Y-150319500I0J-175500D01*
G01*
X328621000Y-150670500D01*
G75*
G02*
X328445500Y-150846000I-175500J0D01*
G01*
X326744500Y-150846000D01*
G75*
G02*
X326569000Y-150670500I0J175500D01*
G01*
G37*
G36*
G01*
X326569000Y-151940500D02*
X326569000Y-151589500D01*
G75*
G02*
X326744500Y-151414000I175500J0D01*
G01*
X328445500Y-151414000D01*
G75*
G02*
X328621000Y-151589500I0J-175500D01*
G01*
X328621000Y-151940500D01*
G75*
G02*
X328445500Y-152116000I-175500J0D01*
G01*
X326744500Y-152116000D01*
G75*
G02*
X326569000Y-151940500I0J175500D01*
G01*
G37*
G36*
G01*
X321619000Y-151940500D02*
X321619000Y-151589500D01*
G75*
G02*
X321794500Y-151414000I175500J0D01*
G01*
X323495500Y-151414000D01*
G75*
G02*
X323671000Y-151589500I0J-175500D01*
G01*
X323671000Y-151940500D01*
G75*
G02*
X323495500Y-152116000I-175500J0D01*
G01*
X321794500Y-152116000D01*
G75*
G02*
X321619000Y-151940500I0J175500D01*
G01*
G37*
G36*
G01*
X321619000Y-150670500D02*
X321619000Y-150319500D01*
G75*
G02*
X321794500Y-150144000I175500J0D01*
G01*
X323495500Y-150144000D01*
G75*
G02*
X323671000Y-150319500I0J-175500D01*
G01*
X323671000Y-150670500D01*
G75*
G02*
X323495500Y-150846000I-175500J0D01*
G01*
X321794500Y-150846000D01*
G75*
G02*
X321619000Y-150670500I0J175500D01*
G01*
G37*
G36*
G01*
X321619000Y-149400500D02*
X321619000Y-149049500D01*
G75*
G02*
X321794500Y-148874000I175500J0D01*
G01*
X323495500Y-148874000D01*
G75*
G02*
X323671000Y-149049500I0J-175500D01*
G01*
X323671000Y-149400500D01*
G75*
G02*
X323495500Y-149576000I-175500J0D01*
G01*
X321794500Y-149576000D01*
G75*
G02*
X321619000Y-149400500I0J175500D01*
G01*
G37*
G36*
G01*
X321619000Y-148130500D02*
X321619000Y-147779500D01*
G75*
G02*
X321794500Y-147604000I175500J0D01*
G01*
X323495500Y-147604000D01*
G75*
G02*
X323671000Y-147779500I0J-175500D01*
G01*
X323671000Y-148130500D01*
G75*
G02*
X323495500Y-148306000I-175500J0D01*
G01*
X321794500Y-148306000D01*
G75*
G02*
X321619000Y-148130500I0J175500D01*
G01*
G37*
G36*
G01*
X321619000Y-146860500D02*
X321619000Y-146509500D01*
G75*
G02*
X321794500Y-146334000I175500J0D01*
G01*
X323495500Y-146334000D01*
G75*
G02*
X323671000Y-146509500I0J-175500D01*
G01*
X323671000Y-146860500D01*
G75*
G02*
X323495500Y-147036000I-175500J0D01*
G01*
X321794500Y-147036000D01*
G75*
G02*
X321619000Y-146860500I0J175500D01*
G01*
G37*
G36*
G01*
X321619000Y-145590500D02*
X321619000Y-145239500D01*
G75*
G02*
X321794500Y-145064000I175500J0D01*
G01*
X323495500Y-145064000D01*
G75*
G02*
X323671000Y-145239500I0J-175500D01*
G01*
X323671000Y-145590500D01*
G75*
G02*
X323495500Y-145766000I-175500J0D01*
G01*
X321794500Y-145766000D01*
G75*
G02*
X321619000Y-145590500I0J175500D01*
G01*
G37*
G36*
G01*
X321619000Y-144320500D02*
X321619000Y-143969500D01*
G75*
G02*
X321794500Y-143794000I175500J0D01*
G01*
X323495500Y-143794000D01*
G75*
G02*
X323671000Y-143969500I0J-175500D01*
G01*
X323671000Y-144320500D01*
G75*
G02*
X323495500Y-144496000I-175500J0D01*
G01*
X321794500Y-144496000D01*
G75*
G02*
X321619000Y-144320500I0J175500D01*
G01*
G37*
G36*
G01*
X321619000Y-143050500D02*
X321619000Y-142699500D01*
G75*
G02*
X321794500Y-142524000I175500J0D01*
G01*
X323495500Y-142524000D01*
G75*
G02*
X323671000Y-142699500I0J-175500D01*
G01*
X323671000Y-143050500D01*
G75*
G02*
X323495500Y-143226000I-175500J0D01*
G01*
X321794500Y-143226000D01*
G75*
G02*
X321619000Y-143050500I0J175500D01*
G01*
G37*
D10*
X-88040000Y-147955000D03*
X-85500000Y-147955000D03*
X-88040000Y-145415000D03*
X-85500000Y-145415000D03*
X-88040000Y-142875000D03*
G36*
G01*
X-84599000Y-142025000D02*
X-84599000Y-143725000D01*
G75*
G02*
X-84650000Y-143776000I-51000J0D01*
G01*
X-86350000Y-143776000D01*
G75*
G02*
X-86401000Y-143725000I0J51000D01*
G01*
X-86401000Y-142025000D01*
G75*
G02*
X-86350000Y-141974000I51000J0D01*
G01*
X-84650000Y-141974000D01*
G75*
G02*
X-84599000Y-142025000I0J-51000D01*
G01*
G37*
G36*
G01*
X-75014000Y-142250000D02*
X-75014000Y-143750000D01*
G75*
G02*
X-75065000Y-143801000I-51000J0D01*
G01*
X-76065000Y-143801000D01*
G75*
G02*
X-76116000Y-143750000I0J51000D01*
G01*
X-76116000Y-142250000D01*
G75*
G02*
X-76065000Y-142199000I51000J0D01*
G01*
X-75065000Y-142199000D01*
G75*
G02*
X-75014000Y-142250000I0J-51000D01*
G01*
G37*
D11*
G36*
X-76871112Y-143800398D02*
G01*
X-76889534Y-143800398D01*
X-76894533Y-143800152D01*
X-76943364Y-143795342D01*
X-76948314Y-143794608D01*
X-76996439Y-143785036D01*
X-77001295Y-143783820D01*
X-77048250Y-143769576D01*
X-77052961Y-143767890D01*
X-77098294Y-143749113D01*
X-77102820Y-143746973D01*
X-77146093Y-143723842D01*
X-77150384Y-143721269D01*
X-77191183Y-143694009D01*
X-77195204Y-143691027D01*
X-77233133Y-143659899D01*
X-77236841Y-143656538D01*
X-77271538Y-143621841D01*
X-77274899Y-143618133D01*
X-77306027Y-143580204D01*
X-77309009Y-143576183D01*
X-77336269Y-143535384D01*
X-77338842Y-143531093D01*
X-77361973Y-143487820D01*
X-77364113Y-143483294D01*
X-77382890Y-143437961D01*
X-77384576Y-143433250D01*
X-77398820Y-143386295D01*
X-77400036Y-143381439D01*
X-77409608Y-143333314D01*
X-77410342Y-143328364D01*
X-77415152Y-143279533D01*
X-77415398Y-143274534D01*
X-77415398Y-143256112D01*
X-77416000Y-143250000D01*
X-77416000Y-142750000D01*
X-77415398Y-142743888D01*
X-77415398Y-142725466D01*
X-77415152Y-142720467D01*
X-77410342Y-142671636D01*
X-77409608Y-142666686D01*
X-77400036Y-142618561D01*
X-77398820Y-142613705D01*
X-77384576Y-142566750D01*
X-77382890Y-142562039D01*
X-77364113Y-142516706D01*
X-77361973Y-142512180D01*
X-77338842Y-142468907D01*
X-77336269Y-142464616D01*
X-77309009Y-142423817D01*
X-77306027Y-142419796D01*
X-77274899Y-142381867D01*
X-77271538Y-142378159D01*
X-77236841Y-142343462D01*
X-77233133Y-142340101D01*
X-77195204Y-142308973D01*
X-77191183Y-142305991D01*
X-77150384Y-142278731D01*
X-77146093Y-142276158D01*
X-77102820Y-142253027D01*
X-77098294Y-142250887D01*
X-77052961Y-142232110D01*
X-77048250Y-142230424D01*
X-77001295Y-142216180D01*
X-76996439Y-142214964D01*
X-76948314Y-142205392D01*
X-76943364Y-142204658D01*
X-76894533Y-142199848D01*
X-76889534Y-142199602D01*
X-76871112Y-142199602D01*
X-76865000Y-142199000D01*
X-76315000Y-142199000D01*
X-76305050Y-142199980D01*
X-76295483Y-142202882D01*
X-76286666Y-142207595D01*
X-76278938Y-142213938D01*
X-76272595Y-142221666D01*
X-76267882Y-142230483D01*
X-76264980Y-142240050D01*
X-76264000Y-142250000D01*
X-76264000Y-143750000D01*
X-76264980Y-143759950D01*
X-76267882Y-143769517D01*
X-76272595Y-143778334D01*
X-76278938Y-143786062D01*
X-76286666Y-143792405D01*
X-76295483Y-143797118D01*
X-76305050Y-143800020D01*
X-76315000Y-143801000D01*
X-76865000Y-143801000D01*
X-76871112Y-143800398D01*
G37*
G36*
X-74824950Y-143800020D02*
G01*
X-74834517Y-143797118D01*
X-74843334Y-143792405D01*
X-74851062Y-143786062D01*
X-74857405Y-143778334D01*
X-74862118Y-143769517D01*
X-74865020Y-143759950D01*
X-74866000Y-143750000D01*
X-74866000Y-142250000D01*
X-74865020Y-142240050D01*
X-74862118Y-142230483D01*
X-74857405Y-142221666D01*
X-74851062Y-142213938D01*
X-74843334Y-142207595D01*
X-74834517Y-142202882D01*
X-74824950Y-142199980D01*
X-74815000Y-142199000D01*
X-74265000Y-142199000D01*
X-74258888Y-142199602D01*
X-74240466Y-142199602D01*
X-74235467Y-142199848D01*
X-74186636Y-142204658D01*
X-74181686Y-142205392D01*
X-74133561Y-142214964D01*
X-74128705Y-142216180D01*
X-74081750Y-142230424D01*
X-74077039Y-142232110D01*
X-74031706Y-142250887D01*
X-74027180Y-142253027D01*
X-73983907Y-142276158D01*
X-73979616Y-142278731D01*
X-73938817Y-142305991D01*
X-73934796Y-142308973D01*
X-73896867Y-142340101D01*
X-73893159Y-142343462D01*
X-73858462Y-142378159D01*
X-73855101Y-142381867D01*
X-73823973Y-142419796D01*
X-73820991Y-142423817D01*
X-73793731Y-142464616D01*
X-73791158Y-142468907D01*
X-73768027Y-142512180D01*
X-73765887Y-142516706D01*
X-73747110Y-142562039D01*
X-73745424Y-142566750D01*
X-73731180Y-142613705D01*
X-73729964Y-142618561D01*
X-73720392Y-142666686D01*
X-73719658Y-142671636D01*
X-73714848Y-142720467D01*
X-73714602Y-142725466D01*
X-73714602Y-142743888D01*
X-73714000Y-142750000D01*
X-73714000Y-143250000D01*
X-73714602Y-143256112D01*
X-73714602Y-143274534D01*
X-73714848Y-143279533D01*
X-73719658Y-143328364D01*
X-73720392Y-143333314D01*
X-73729964Y-143381439D01*
X-73731180Y-143386295D01*
X-73745424Y-143433250D01*
X-73747110Y-143437961D01*
X-73765887Y-143483294D01*
X-73768027Y-143487820D01*
X-73791158Y-143531093D01*
X-73793731Y-143535384D01*
X-73820991Y-143576183D01*
X-73823973Y-143580204D01*
X-73855101Y-143618133D01*
X-73858462Y-143621841D01*
X-73893159Y-143656538D01*
X-73896867Y-143659899D01*
X-73934796Y-143691027D01*
X-73938817Y-143694009D01*
X-73979616Y-143721269D01*
X-73983907Y-143723842D01*
X-74027180Y-143746973D01*
X-74031706Y-143749113D01*
X-74077039Y-143767890D01*
X-74081750Y-143769576D01*
X-74128705Y-143783820D01*
X-74133561Y-143785036D01*
X-74181686Y-143794608D01*
X-74186636Y-143795342D01*
X-74235467Y-143800152D01*
X-74240466Y-143800398D01*
X-74258888Y-143800398D01*
X-74265000Y-143801000D01*
X-74815000Y-143801000D01*
X-74824950Y-143800020D01*
G37*
G36*
G01*
X-57476000Y-131025500D02*
X-57476000Y-130474500D01*
G75*
G02*
X-57225500Y-130224000I250500J0D01*
G01*
X-56724500Y-130224000D01*
G75*
G02*
X-56474000Y-130474500I0J-250500D01*
G01*
X-56474000Y-131025500D01*
G75*
G02*
X-56724500Y-131276000I-250500J0D01*
G01*
X-57225500Y-131276000D01*
G75*
G02*
X-57476000Y-131025500I0J250500D01*
G01*
G37*
G36*
G01*
X-59026000Y-131025500D02*
X-59026000Y-130474500D01*
G75*
G02*
X-58775500Y-130224000I250500J0D01*
G01*
X-58274500Y-130224000D01*
G75*
G02*
X-58024000Y-130474500I0J-250500D01*
G01*
X-58024000Y-131025500D01*
G75*
G02*
X-58274500Y-131276000I-250500J0D01*
G01*
X-58775500Y-131276000D01*
G75*
G02*
X-59026000Y-131025500I0J250500D01*
G01*
G37*
G36*
G01*
X90349000Y-143050500D02*
X90349000Y-142699500D01*
G75*
G02*
X90524500Y-142524000I175500J0D01*
G01*
X92225500Y-142524000D01*
G75*
G02*
X92401000Y-142699500I0J-175500D01*
G01*
X92401000Y-143050500D01*
G75*
G02*
X92225500Y-143226000I-175500J0D01*
G01*
X90524500Y-143226000D01*
G75*
G02*
X90349000Y-143050500I0J175500D01*
G01*
G37*
G36*
G01*
X90349000Y-144320500D02*
X90349000Y-143969500D01*
G75*
G02*
X90524500Y-143794000I175500J0D01*
G01*
X92225500Y-143794000D01*
G75*
G02*
X92401000Y-143969500I0J-175500D01*
G01*
X92401000Y-144320500D01*
G75*
G02*
X92225500Y-144496000I-175500J0D01*
G01*
X90524500Y-144496000D01*
G75*
G02*
X90349000Y-144320500I0J175500D01*
G01*
G37*
G36*
G01*
X90349000Y-145590500D02*
X90349000Y-145239500D01*
G75*
G02*
X90524500Y-145064000I175500J0D01*
G01*
X92225500Y-145064000D01*
G75*
G02*
X92401000Y-145239500I0J-175500D01*
G01*
X92401000Y-145590500D01*
G75*
G02*
X92225500Y-145766000I-175500J0D01*
G01*
X90524500Y-145766000D01*
G75*
G02*
X90349000Y-145590500I0J175500D01*
G01*
G37*
G36*
G01*
X90349000Y-146860500D02*
X90349000Y-146509500D01*
G75*
G02*
X90524500Y-146334000I175500J0D01*
G01*
X92225500Y-146334000D01*
G75*
G02*
X92401000Y-146509500I0J-175500D01*
G01*
X92401000Y-146860500D01*
G75*
G02*
X92225500Y-147036000I-175500J0D01*
G01*
X90524500Y-147036000D01*
G75*
G02*
X90349000Y-146860500I0J175500D01*
G01*
G37*
G36*
G01*
X90349000Y-148130500D02*
X90349000Y-147779500D01*
G75*
G02*
X90524500Y-147604000I175500J0D01*
G01*
X92225500Y-147604000D01*
G75*
G02*
X92401000Y-147779500I0J-175500D01*
G01*
X92401000Y-148130500D01*
G75*
G02*
X92225500Y-148306000I-175500J0D01*
G01*
X90524500Y-148306000D01*
G75*
G02*
X90349000Y-148130500I0J175500D01*
G01*
G37*
G36*
G01*
X90349000Y-149400500D02*
X90349000Y-149049500D01*
G75*
G02*
X90524500Y-148874000I175500J0D01*
G01*
X92225500Y-148874000D01*
G75*
G02*
X92401000Y-149049500I0J-175500D01*
G01*
X92401000Y-149400500D01*
G75*
G02*
X92225500Y-149576000I-175500J0D01*
G01*
X90524500Y-149576000D01*
G75*
G02*
X90349000Y-149400500I0J175500D01*
G01*
G37*
G36*
G01*
X90349000Y-150670500D02*
X90349000Y-150319500D01*
G75*
G02*
X90524500Y-150144000I175500J0D01*
G01*
X92225500Y-150144000D01*
G75*
G02*
X92401000Y-150319500I0J-175500D01*
G01*
X92401000Y-150670500D01*
G75*
G02*
X92225500Y-150846000I-175500J0D01*
G01*
X90524500Y-150846000D01*
G75*
G02*
X90349000Y-150670500I0J175500D01*
G01*
G37*
G36*
G01*
X90349000Y-151940500D02*
X90349000Y-151589500D01*
G75*
G02*
X90524500Y-151414000I175500J0D01*
G01*
X92225500Y-151414000D01*
G75*
G02*
X92401000Y-151589500I0J-175500D01*
G01*
X92401000Y-151940500D01*
G75*
G02*
X92225500Y-152116000I-175500J0D01*
G01*
X90524500Y-152116000D01*
G75*
G02*
X90349000Y-151940500I0J175500D01*
G01*
G37*
G36*
G01*
X85399000Y-151940500D02*
X85399000Y-151589500D01*
G75*
G02*
X85574500Y-151414000I175500J0D01*
G01*
X87275500Y-151414000D01*
G75*
G02*
X87451000Y-151589500I0J-175500D01*
G01*
X87451000Y-151940500D01*
G75*
G02*
X87275500Y-152116000I-175500J0D01*
G01*
X85574500Y-152116000D01*
G75*
G02*
X85399000Y-151940500I0J175500D01*
G01*
G37*
G36*
G01*
X85399000Y-150670500D02*
X85399000Y-150319500D01*
G75*
G02*
X85574500Y-150144000I175500J0D01*
G01*
X87275500Y-150144000D01*
G75*
G02*
X87451000Y-150319500I0J-175500D01*
G01*
X87451000Y-150670500D01*
G75*
G02*
X87275500Y-150846000I-175500J0D01*
G01*
X85574500Y-150846000D01*
G75*
G02*
X85399000Y-150670500I0J175500D01*
G01*
G37*
G36*
G01*
X85399000Y-149400500D02*
X85399000Y-149049500D01*
G75*
G02*
X85574500Y-148874000I175500J0D01*
G01*
X87275500Y-148874000D01*
G75*
G02*
X87451000Y-149049500I0J-175500D01*
G01*
X87451000Y-149400500D01*
G75*
G02*
X87275500Y-149576000I-175500J0D01*
G01*
X85574500Y-149576000D01*
G75*
G02*
X85399000Y-149400500I0J175500D01*
G01*
G37*
G36*
G01*
X85399000Y-148130500D02*
X85399000Y-147779500D01*
G75*
G02*
X85574500Y-147604000I175500J0D01*
G01*
X87275500Y-147604000D01*
G75*
G02*
X87451000Y-147779500I0J-175500D01*
G01*
X87451000Y-148130500D01*
G75*
G02*
X87275500Y-148306000I-175500J0D01*
G01*
X85574500Y-148306000D01*
G75*
G02*
X85399000Y-148130500I0J175500D01*
G01*
G37*
G36*
G01*
X85399000Y-146860500D02*
X85399000Y-146509500D01*
G75*
G02*
X85574500Y-146334000I175500J0D01*
G01*
X87275500Y-146334000D01*
G75*
G02*
X87451000Y-146509500I0J-175500D01*
G01*
X87451000Y-146860500D01*
G75*
G02*
X87275500Y-147036000I-175500J0D01*
G01*
X85574500Y-147036000D01*
G75*
G02*
X85399000Y-146860500I0J175500D01*
G01*
G37*
G36*
G01*
X85399000Y-145590500D02*
X85399000Y-145239500D01*
G75*
G02*
X85574500Y-145064000I175500J0D01*
G01*
X87275500Y-145064000D01*
G75*
G02*
X87451000Y-145239500I0J-175500D01*
G01*
X87451000Y-145590500D01*
G75*
G02*
X87275500Y-145766000I-175500J0D01*
G01*
X85574500Y-145766000D01*
G75*
G02*
X85399000Y-145590500I0J175500D01*
G01*
G37*
G36*
G01*
X85399000Y-144320500D02*
X85399000Y-143969500D01*
G75*
G02*
X85574500Y-143794000I175500J0D01*
G01*
X87275500Y-143794000D01*
G75*
G02*
X87451000Y-143969500I0J-175500D01*
G01*
X87451000Y-144320500D01*
G75*
G02*
X87275500Y-144496000I-175500J0D01*
G01*
X85574500Y-144496000D01*
G75*
G02*
X85399000Y-144320500I0J175500D01*
G01*
G37*
G36*
G01*
X85399000Y-143050500D02*
X85399000Y-142699500D01*
G75*
G02*
X85574500Y-142524000I175500J0D01*
G01*
X87275500Y-142524000D01*
G75*
G02*
X87451000Y-142699500I0J-175500D01*
G01*
X87451000Y-143050500D01*
G75*
G02*
X87275500Y-143226000I-175500J0D01*
G01*
X85574500Y-143226000D01*
G75*
G02*
X85399000Y-143050500I0J175500D01*
G01*
G37*
D10*
X384000000Y-155000000D03*
X381460000Y-155000000D03*
X384000000Y-157540000D03*
X381460000Y-157540000D03*
X384000000Y-160080000D03*
X381460000Y-160080000D03*
X384000000Y-162620000D03*
X381460000Y-162620000D03*
X384000000Y-165160000D03*
X381460000Y-165160000D03*
X384000000Y-167700000D03*
X381460000Y-167700000D03*
X384000000Y-170240000D03*
G36*
G01*
X380559000Y-171090000D02*
X380559000Y-169390000D01*
G75*
G02*
X380610000Y-169339000I51000J0D01*
G01*
X382310000Y-169339000D01*
G75*
G02*
X382361000Y-169390000I0J-51000D01*
G01*
X382361000Y-171090000D01*
G75*
G02*
X382310000Y-171141000I-51000J0D01*
G01*
X380610000Y-171141000D01*
G75*
G02*
X380559000Y-171090000I0J51000D01*
G01*
G37*
D12*
X356870000Y-142240000D03*
D13*
X361950000Y-142240000D03*
D12*
X356870000Y-146050000D03*
D13*
X361950000Y-146050000D03*
D12*
X365125000Y-146050000D03*
D13*
X370205000Y-146050000D03*
D12*
X365125000Y-142240000D03*
D13*
X370205000Y-142240000D03*
D12*
X365125000Y-149860000D03*
D13*
X370205000Y-149860000D03*
D12*
X356870000Y-149860000D03*
D13*
X361950000Y-149860000D03*
D10*
X384000000Y-142240000D03*
X381460000Y-142240000D03*
X384000000Y-144780000D03*
X381460000Y-144780000D03*
X384000000Y-147320000D03*
X381460000Y-147320000D03*
X384000000Y-149860000D03*
G36*
G01*
X380559000Y-150710000D02*
X380559000Y-149010000D01*
G75*
G02*
X380610000Y-148959000I51000J0D01*
G01*
X382310000Y-148959000D01*
G75*
G02*
X382361000Y-149010000I0J-51000D01*
G01*
X382361000Y-150710000D01*
G75*
G02*
X382310000Y-150761000I-51000J0D01*
G01*
X380610000Y-150761000D01*
G75*
G02*
X380559000Y-150710000I0J51000D01*
G01*
G37*
G36*
G01*
X-89751000Y-151930000D02*
X-89751000Y-150330000D01*
G75*
G02*
X-89700000Y-150279000I51000J0D01*
G01*
X-88100000Y-150279000D01*
G75*
G02*
X-88049000Y-150330000I0J-51000D01*
G01*
X-88049000Y-151930000D01*
G75*
G02*
X-88100000Y-151981000I-51000J0D01*
G01*
X-89700000Y-151981000D01*
G75*
G02*
X-89751000Y-151930000I0J51000D01*
G01*
G37*
D14*
X-86360000Y-151130000D03*
X-83820000Y-151130000D03*
X-81280000Y-151130000D03*
X-78740000Y-151130000D03*
X-76200000Y-151130000D03*
X-73660000Y-151130000D03*
X-71120000Y-151130000D03*
X-68580000Y-151130000D03*
X-66040000Y-151130000D03*
X-63500000Y-151130000D03*
X-60960000Y-151130000D03*
X-58420000Y-151130000D03*
X-76200000Y-163830000D03*
X-78740000Y-163830000D03*
X-81280000Y-163830000D03*
X-86360000Y-163830000D03*
X-88900000Y-166370000D03*
X-86360000Y-166370000D03*
X-83820000Y-166370000D03*
X-81280000Y-166370000D03*
X-78740000Y-166370000D03*
X-76200000Y-166370000D03*
X-73660000Y-166370000D03*
X-71120000Y-166370000D03*
X-68580000Y-166370000D03*
X-66040000Y-166370000D03*
X-63500000Y-166370000D03*
X-60960000Y-166370000D03*
X-58420000Y-166370000D03*
X-55880000Y-151130000D03*
X-55880000Y-153670000D03*
X-55880000Y-156210000D03*
X-55880000Y-166370000D03*
X-55880000Y-163830000D03*
X-55880000Y-161290000D03*
X-55880000Y-158750000D03*
D15*
X333000000Y-169000000D03*
X283000000Y-169000000D03*
X193000000Y-169000000D03*
X13000000Y-169000000D03*
X103000000Y-169000000D03*
X-37000000Y-169000000D03*
D16*
X-57785000Y-147320000D03*
D14*
X-65405000Y-147320000D03*
G36*
G01*
X325889000Y-141245500D02*
X325889000Y-140694500D01*
G75*
G02*
X326139500Y-140444000I250500J0D01*
G01*
X326640500Y-140444000D01*
G75*
G02*
X326891000Y-140694500I0J-250500D01*
G01*
X326891000Y-141245500D01*
G75*
G02*
X326640500Y-141496000I-250500J0D01*
G01*
X326139500Y-141496000D01*
G75*
G02*
X325889000Y-141245500I0J250500D01*
G01*
G37*
G36*
G01*
X324339000Y-141245500D02*
X324339000Y-140694500D01*
G75*
G02*
X324589500Y-140444000I250500J0D01*
G01*
X325090500Y-140444000D01*
G75*
G02*
X325341000Y-140694500I0J-250500D01*
G01*
X325341000Y-141245500D01*
G75*
G02*
X325090500Y-141496000I-250500J0D01*
G01*
X324589500Y-141496000D01*
G75*
G02*
X324339000Y-141245500I0J250500D01*
G01*
G37*
G36*
G01*
X-34336500Y-150424000D02*
X-33735500Y-150424000D01*
G75*
G02*
X-33510000Y-150649500I0J-225500D01*
G01*
X-33510000Y-151100500D01*
G75*
G02*
X-33735500Y-151326000I-225500J0D01*
G01*
X-34336500Y-151326000D01*
G75*
G02*
X-34562000Y-151100500I0J225500D01*
G01*
X-34562000Y-150649500D01*
G75*
G02*
X-34336500Y-150424000I225500J0D01*
G01*
G37*
G36*
G01*
X-34336500Y-148774000D02*
X-33735500Y-148774000D01*
G75*
G02*
X-33510000Y-148999500I0J-225500D01*
G01*
X-33510000Y-149450500D01*
G75*
G02*
X-33735500Y-149676000I-225500J0D01*
G01*
X-34336500Y-149676000D01*
G75*
G02*
X-34562000Y-149450500I0J225500D01*
G01*
X-34562000Y-148999500D01*
G75*
G02*
X-34336500Y-148774000I225500J0D01*
G01*
G37*
G36*
G01*
X-27761000Y-143050500D02*
X-27761000Y-142699500D01*
G75*
G02*
X-27585500Y-142524000I175500J0D01*
G01*
X-25884500Y-142524000D01*
G75*
G02*
X-25709000Y-142699500I0J-175500D01*
G01*
X-25709000Y-143050500D01*
G75*
G02*
X-25884500Y-143226000I-175500J0D01*
G01*
X-27585500Y-143226000D01*
G75*
G02*
X-27761000Y-143050500I0J175500D01*
G01*
G37*
G36*
G01*
X-27761000Y-144320500D02*
X-27761000Y-143969500D01*
G75*
G02*
X-27585500Y-143794000I175500J0D01*
G01*
X-25884500Y-143794000D01*
G75*
G02*
X-25709000Y-143969500I0J-175500D01*
G01*
X-25709000Y-144320500D01*
G75*
G02*
X-25884500Y-144496000I-175500J0D01*
G01*
X-27585500Y-144496000D01*
G75*
G02*
X-27761000Y-144320500I0J175500D01*
G01*
G37*
G36*
G01*
X-27761000Y-145590500D02*
X-27761000Y-145239500D01*
G75*
G02*
X-27585500Y-145064000I175500J0D01*
G01*
X-25884500Y-145064000D01*
G75*
G02*
X-25709000Y-145239500I0J-175500D01*
G01*
X-25709000Y-145590500D01*
G75*
G02*
X-25884500Y-145766000I-175500J0D01*
G01*
X-27585500Y-145766000D01*
G75*
G02*
X-27761000Y-145590500I0J175500D01*
G01*
G37*
G36*
G01*
X-27761000Y-146860500D02*
X-27761000Y-146509500D01*
G75*
G02*
X-27585500Y-146334000I175500J0D01*
G01*
X-25884500Y-146334000D01*
G75*
G02*
X-25709000Y-146509500I0J-175500D01*
G01*
X-25709000Y-146860500D01*
G75*
G02*
X-25884500Y-147036000I-175500J0D01*
G01*
X-27585500Y-147036000D01*
G75*
G02*
X-27761000Y-146860500I0J175500D01*
G01*
G37*
G36*
G01*
X-27761000Y-148130500D02*
X-27761000Y-147779500D01*
G75*
G02*
X-27585500Y-147604000I175500J0D01*
G01*
X-25884500Y-147604000D01*
G75*
G02*
X-25709000Y-147779500I0J-175500D01*
G01*
X-25709000Y-148130500D01*
G75*
G02*
X-25884500Y-148306000I-175500J0D01*
G01*
X-27585500Y-148306000D01*
G75*
G02*
X-27761000Y-148130500I0J175500D01*
G01*
G37*
G36*
G01*
X-27761000Y-149400500D02*
X-27761000Y-149049500D01*
G75*
G02*
X-27585500Y-148874000I175500J0D01*
G01*
X-25884500Y-148874000D01*
G75*
G02*
X-25709000Y-149049500I0J-175500D01*
G01*
X-25709000Y-149400500D01*
G75*
G02*
X-25884500Y-149576000I-175500J0D01*
G01*
X-27585500Y-149576000D01*
G75*
G02*
X-27761000Y-149400500I0J175500D01*
G01*
G37*
G36*
G01*
X-27761000Y-150670500D02*
X-27761000Y-150319500D01*
G75*
G02*
X-27585500Y-150144000I175500J0D01*
G01*
X-25884500Y-150144000D01*
G75*
G02*
X-25709000Y-150319500I0J-175500D01*
G01*
X-25709000Y-150670500D01*
G75*
G02*
X-25884500Y-150846000I-175500J0D01*
G01*
X-27585500Y-150846000D01*
G75*
G02*
X-27761000Y-150670500I0J175500D01*
G01*
G37*
G36*
G01*
X-27761000Y-151940500D02*
X-27761000Y-151589500D01*
G75*
G02*
X-27585500Y-151414000I175500J0D01*
G01*
X-25884500Y-151414000D01*
G75*
G02*
X-25709000Y-151589500I0J-175500D01*
G01*
X-25709000Y-151940500D01*
G75*
G02*
X-25884500Y-152116000I-175500J0D01*
G01*
X-27585500Y-152116000D01*
G75*
G02*
X-27761000Y-151940500I0J175500D01*
G01*
G37*
G36*
G01*
X-32711000Y-151940500D02*
X-32711000Y-151589500D01*
G75*
G02*
X-32535500Y-151414000I175500J0D01*
G01*
X-30834500Y-151414000D01*
G75*
G02*
X-30659000Y-151589500I0J-175500D01*
G01*
X-30659000Y-151940500D01*
G75*
G02*
X-30834500Y-152116000I-175500J0D01*
G01*
X-32535500Y-152116000D01*
G75*
G02*
X-32711000Y-151940500I0J175500D01*
G01*
G37*
G36*
G01*
X-32711000Y-150670500D02*
X-32711000Y-150319500D01*
G75*
G02*
X-32535500Y-150144000I175500J0D01*
G01*
X-30834500Y-150144000D01*
G75*
G02*
X-30659000Y-150319500I0J-175500D01*
G01*
X-30659000Y-150670500D01*
G75*
G02*
X-30834500Y-150846000I-175500J0D01*
G01*
X-32535500Y-150846000D01*
G75*
G02*
X-32711000Y-150670500I0J175500D01*
G01*
G37*
G36*
G01*
X-32711000Y-149400500D02*
X-32711000Y-149049500D01*
G75*
G02*
X-32535500Y-148874000I175500J0D01*
G01*
X-30834500Y-148874000D01*
G75*
G02*
X-30659000Y-149049500I0J-175500D01*
G01*
X-30659000Y-149400500D01*
G75*
G02*
X-30834500Y-149576000I-175500J0D01*
G01*
X-32535500Y-149576000D01*
G75*
G02*
X-32711000Y-149400500I0J175500D01*
G01*
G37*
G36*
G01*
X-32711000Y-148130500D02*
X-32711000Y-147779500D01*
G75*
G02*
X-32535500Y-147604000I175500J0D01*
G01*
X-30834500Y-147604000D01*
G75*
G02*
X-30659000Y-147779500I0J-175500D01*
G01*
X-30659000Y-148130500D01*
G75*
G02*
X-30834500Y-148306000I-175500J0D01*
G01*
X-32535500Y-148306000D01*
G75*
G02*
X-32711000Y-148130500I0J175500D01*
G01*
G37*
G36*
G01*
X-32711000Y-146860500D02*
X-32711000Y-146509500D01*
G75*
G02*
X-32535500Y-146334000I175500J0D01*
G01*
X-30834500Y-146334000D01*
G75*
G02*
X-30659000Y-146509500I0J-175500D01*
G01*
X-30659000Y-146860500D01*
G75*
G02*
X-30834500Y-147036000I-175500J0D01*
G01*
X-32535500Y-147036000D01*
G75*
G02*
X-32711000Y-146860500I0J175500D01*
G01*
G37*
G36*
G01*
X-32711000Y-145590500D02*
X-32711000Y-145239500D01*
G75*
G02*
X-32535500Y-145064000I175500J0D01*
G01*
X-30834500Y-145064000D01*
G75*
G02*
X-30659000Y-145239500I0J-175500D01*
G01*
X-30659000Y-145590500D01*
G75*
G02*
X-30834500Y-145766000I-175500J0D01*
G01*
X-32535500Y-145766000D01*
G75*
G02*
X-32711000Y-145590500I0J175500D01*
G01*
G37*
G36*
G01*
X-32711000Y-144320500D02*
X-32711000Y-143969500D01*
G75*
G02*
X-32535500Y-143794000I175500J0D01*
G01*
X-30834500Y-143794000D01*
G75*
G02*
X-30659000Y-143969500I0J-175500D01*
G01*
X-30659000Y-144320500D01*
G75*
G02*
X-30834500Y-144496000I-175500J0D01*
G01*
X-32535500Y-144496000D01*
G75*
G02*
X-32711000Y-144320500I0J175500D01*
G01*
G37*
G36*
G01*
X-32711000Y-143050500D02*
X-32711000Y-142699500D01*
G75*
G02*
X-32535500Y-142524000I175500J0D01*
G01*
X-30834500Y-142524000D01*
G75*
G02*
X-30659000Y-142699500I0J-175500D01*
G01*
X-30659000Y-143050500D01*
G75*
G02*
X-30834500Y-143226000I-175500J0D01*
G01*
X-32535500Y-143226000D01*
G75*
G02*
X-32711000Y-143050500I0J175500D01*
G01*
G37*
G36*
G01*
X370299000Y-131025500D02*
X370299000Y-130474500D01*
G75*
G02*
X370549500Y-130224000I250500J0D01*
G01*
X371050500Y-130224000D01*
G75*
G02*
X371301000Y-130474500I0J-250500D01*
G01*
X371301000Y-131025500D01*
G75*
G02*
X371050500Y-131276000I-250500J0D01*
G01*
X370549500Y-131276000D01*
G75*
G02*
X370299000Y-131025500I0J250500D01*
G01*
G37*
G36*
G01*
X368749000Y-131025500D02*
X368749000Y-130474500D01*
G75*
G02*
X368999500Y-130224000I250500J0D01*
G01*
X369500500Y-130224000D01*
G75*
G02*
X369751000Y-130474500I0J-250500D01*
G01*
X369751000Y-131025500D01*
G75*
G02*
X369500500Y-131276000I-250500J0D01*
G01*
X368999500Y-131276000D01*
G75*
G02*
X368749000Y-131025500I0J250500D01*
G01*
G37*
G36*
G01*
X355549000Y-131025500D02*
X355549000Y-130474500D01*
G75*
G02*
X355799500Y-130224000I250500J0D01*
G01*
X356300500Y-130224000D01*
G75*
G02*
X356551000Y-130474500I0J-250500D01*
G01*
X356551000Y-131025500D01*
G75*
G02*
X356300500Y-131276000I-250500J0D01*
G01*
X355799500Y-131276000D01*
G75*
G02*
X355549000Y-131025500I0J250500D01*
G01*
G37*
G36*
G01*
X353999000Y-131025500D02*
X353999000Y-130474500D01*
G75*
G02*
X354249500Y-130224000I250500J0D01*
G01*
X354750500Y-130224000D01*
G75*
G02*
X355001000Y-130474500I0J-250500D01*
G01*
X355001000Y-131025500D01*
G75*
G02*
X354750500Y-131276000I-250500J0D01*
G01*
X354249500Y-131276000D01*
G75*
G02*
X353999000Y-131025500I0J250500D01*
G01*
G37*
G36*
G01*
X340799000Y-131025500D02*
X340799000Y-130474500D01*
G75*
G02*
X341049500Y-130224000I250500J0D01*
G01*
X341550500Y-130224000D01*
G75*
G02*
X341801000Y-130474500I0J-250500D01*
G01*
X341801000Y-131025500D01*
G75*
G02*
X341550500Y-131276000I-250500J0D01*
G01*
X341049500Y-131276000D01*
G75*
G02*
X340799000Y-131025500I0J250500D01*
G01*
G37*
G36*
G01*
X339249000Y-131025500D02*
X339249000Y-130474500D01*
G75*
G02*
X339499500Y-130224000I250500J0D01*
G01*
X340000500Y-130224000D01*
G75*
G02*
X340251000Y-130474500I0J-250500D01*
G01*
X340251000Y-131025500D01*
G75*
G02*
X340000500Y-131276000I-250500J0D01*
G01*
X339499500Y-131276000D01*
G75*
G02*
X339249000Y-131025500I0J250500D01*
G01*
G37*
G36*
G01*
X326049000Y-131025500D02*
X326049000Y-130474500D01*
G75*
G02*
X326299500Y-130224000I250500J0D01*
G01*
X326800500Y-130224000D01*
G75*
G02*
X327051000Y-130474500I0J-250500D01*
G01*
X327051000Y-131025500D01*
G75*
G02*
X326800500Y-131276000I-250500J0D01*
G01*
X326299500Y-131276000D01*
G75*
G02*
X326049000Y-131025500I0J250500D01*
G01*
G37*
G36*
G01*
X324499000Y-131025500D02*
X324499000Y-130474500D01*
G75*
G02*
X324749500Y-130224000I250500J0D01*
G01*
X325250500Y-130224000D01*
G75*
G02*
X325501000Y-130474500I0J-250500D01*
G01*
X325501000Y-131025500D01*
G75*
G02*
X325250500Y-131276000I-250500J0D01*
G01*
X324749500Y-131276000D01*
G75*
G02*
X324499000Y-131025500I0J250500D01*
G01*
G37*
G36*
G01*
X311299000Y-131025500D02*
X311299000Y-130474500D01*
G75*
G02*
X311549500Y-130224000I250500J0D01*
G01*
X312050500Y-130224000D01*
G75*
G02*
X312301000Y-130474500I0J-250500D01*
G01*
X312301000Y-131025500D01*
G75*
G02*
X312050500Y-131276000I-250500J0D01*
G01*
X311549500Y-131276000D01*
G75*
G02*
X311299000Y-131025500I0J250500D01*
G01*
G37*
G36*
G01*
X309749000Y-131025500D02*
X309749000Y-130474500D01*
G75*
G02*
X309999500Y-130224000I250500J0D01*
G01*
X310500500Y-130224000D01*
G75*
G02*
X310751000Y-130474500I0J-250500D01*
G01*
X310751000Y-131025500D01*
G75*
G02*
X310500500Y-131276000I-250500J0D01*
G01*
X309999500Y-131276000D01*
G75*
G02*
X309749000Y-131025500I0J250500D01*
G01*
G37*
G36*
G01*
X296549000Y-131025500D02*
X296549000Y-130474500D01*
G75*
G02*
X296799500Y-130224000I250500J0D01*
G01*
X297300500Y-130224000D01*
G75*
G02*
X297551000Y-130474500I0J-250500D01*
G01*
X297551000Y-131025500D01*
G75*
G02*
X297300500Y-131276000I-250500J0D01*
G01*
X296799500Y-131276000D01*
G75*
G02*
X296549000Y-131025500I0J250500D01*
G01*
G37*
G36*
G01*
X294999000Y-131025500D02*
X294999000Y-130474500D01*
G75*
G02*
X295249500Y-130224000I250500J0D01*
G01*
X295750500Y-130224000D01*
G75*
G02*
X296001000Y-130474500I0J-250500D01*
G01*
X296001000Y-131025500D01*
G75*
G02*
X295750500Y-131276000I-250500J0D01*
G01*
X295249500Y-131276000D01*
G75*
G02*
X294999000Y-131025500I0J250500D01*
G01*
G37*
G36*
G01*
X281799000Y-131025500D02*
X281799000Y-130474500D01*
G75*
G02*
X282049500Y-130224000I250500J0D01*
G01*
X282550500Y-130224000D01*
G75*
G02*
X282801000Y-130474500I0J-250500D01*
G01*
X282801000Y-131025500D01*
G75*
G02*
X282550500Y-131276000I-250500J0D01*
G01*
X282049500Y-131276000D01*
G75*
G02*
X281799000Y-131025500I0J250500D01*
G01*
G37*
G36*
G01*
X280249000Y-131025500D02*
X280249000Y-130474500D01*
G75*
G02*
X280499500Y-130224000I250500J0D01*
G01*
X281000500Y-130224000D01*
G75*
G02*
X281251000Y-130474500I0J-250500D01*
G01*
X281251000Y-131025500D01*
G75*
G02*
X281000500Y-131276000I-250500J0D01*
G01*
X280499500Y-131276000D01*
G75*
G02*
X280249000Y-131025500I0J250500D01*
G01*
G37*
G36*
G01*
X267049000Y-131025500D02*
X267049000Y-130474500D01*
G75*
G02*
X267299500Y-130224000I250500J0D01*
G01*
X267800500Y-130224000D01*
G75*
G02*
X268051000Y-130474500I0J-250500D01*
G01*
X268051000Y-131025500D01*
G75*
G02*
X267800500Y-131276000I-250500J0D01*
G01*
X267299500Y-131276000D01*
G75*
G02*
X267049000Y-131025500I0J250500D01*
G01*
G37*
G36*
G01*
X265499000Y-131025500D02*
X265499000Y-130474500D01*
G75*
G02*
X265749500Y-130224000I250500J0D01*
G01*
X266250500Y-130224000D01*
G75*
G02*
X266501000Y-130474500I0J-250500D01*
G01*
X266501000Y-131025500D01*
G75*
G02*
X266250500Y-131276000I-250500J0D01*
G01*
X265749500Y-131276000D01*
G75*
G02*
X265499000Y-131025500I0J250500D01*
G01*
G37*
G36*
G01*
X252299000Y-131025500D02*
X252299000Y-130474500D01*
G75*
G02*
X252549500Y-130224000I250500J0D01*
G01*
X253050500Y-130224000D01*
G75*
G02*
X253301000Y-130474500I0J-250500D01*
G01*
X253301000Y-131025500D01*
G75*
G02*
X253050500Y-131276000I-250500J0D01*
G01*
X252549500Y-131276000D01*
G75*
G02*
X252299000Y-131025500I0J250500D01*
G01*
G37*
G36*
G01*
X250749000Y-131025500D02*
X250749000Y-130474500D01*
G75*
G02*
X250999500Y-130224000I250500J0D01*
G01*
X251500500Y-130224000D01*
G75*
G02*
X251751000Y-130474500I0J-250500D01*
G01*
X251751000Y-131025500D01*
G75*
G02*
X251500500Y-131276000I-250500J0D01*
G01*
X250999500Y-131276000D01*
G75*
G02*
X250749000Y-131025500I0J250500D01*
G01*
G37*
G36*
G01*
X237549000Y-131025500D02*
X237549000Y-130474500D01*
G75*
G02*
X237799500Y-130224000I250500J0D01*
G01*
X238300500Y-130224000D01*
G75*
G02*
X238551000Y-130474500I0J-250500D01*
G01*
X238551000Y-131025500D01*
G75*
G02*
X238300500Y-131276000I-250500J0D01*
G01*
X237799500Y-131276000D01*
G75*
G02*
X237549000Y-131025500I0J250500D01*
G01*
G37*
G36*
G01*
X235999000Y-131025500D02*
X235999000Y-130474500D01*
G75*
G02*
X236249500Y-130224000I250500J0D01*
G01*
X236750500Y-130224000D01*
G75*
G02*
X237001000Y-130474500I0J-250500D01*
G01*
X237001000Y-131025500D01*
G75*
G02*
X236750500Y-131276000I-250500J0D01*
G01*
X236249500Y-131276000D01*
G75*
G02*
X235999000Y-131025500I0J250500D01*
G01*
G37*
G36*
G01*
X222799000Y-131025500D02*
X222799000Y-130474500D01*
G75*
G02*
X223049500Y-130224000I250500J0D01*
G01*
X223550500Y-130224000D01*
G75*
G02*
X223801000Y-130474500I0J-250500D01*
G01*
X223801000Y-131025500D01*
G75*
G02*
X223550500Y-131276000I-250500J0D01*
G01*
X223049500Y-131276000D01*
G75*
G02*
X222799000Y-131025500I0J250500D01*
G01*
G37*
G36*
G01*
X221249000Y-131025500D02*
X221249000Y-130474500D01*
G75*
G02*
X221499500Y-130224000I250500J0D01*
G01*
X222000500Y-130224000D01*
G75*
G02*
X222251000Y-130474500I0J-250500D01*
G01*
X222251000Y-131025500D01*
G75*
G02*
X222000500Y-131276000I-250500J0D01*
G01*
X221499500Y-131276000D01*
G75*
G02*
X221249000Y-131025500I0J250500D01*
G01*
G37*
G36*
G01*
X208049000Y-131025500D02*
X208049000Y-130474500D01*
G75*
G02*
X208299500Y-130224000I250500J0D01*
G01*
X208800500Y-130224000D01*
G75*
G02*
X209051000Y-130474500I0J-250500D01*
G01*
X209051000Y-131025500D01*
G75*
G02*
X208800500Y-131276000I-250500J0D01*
G01*
X208299500Y-131276000D01*
G75*
G02*
X208049000Y-131025500I0J250500D01*
G01*
G37*
G36*
G01*
X206499000Y-131025500D02*
X206499000Y-130474500D01*
G75*
G02*
X206749500Y-130224000I250500J0D01*
G01*
X207250500Y-130224000D01*
G75*
G02*
X207501000Y-130474500I0J-250500D01*
G01*
X207501000Y-131025500D01*
G75*
G02*
X207250500Y-131276000I-250500J0D01*
G01*
X206749500Y-131276000D01*
G75*
G02*
X206499000Y-131025500I0J250500D01*
G01*
G37*
G36*
G01*
X193299000Y-131025500D02*
X193299000Y-130474500D01*
G75*
G02*
X193549500Y-130224000I250500J0D01*
G01*
X194050500Y-130224000D01*
G75*
G02*
X194301000Y-130474500I0J-250500D01*
G01*
X194301000Y-131025500D01*
G75*
G02*
X194050500Y-131276000I-250500J0D01*
G01*
X193549500Y-131276000D01*
G75*
G02*
X193299000Y-131025500I0J250500D01*
G01*
G37*
G36*
G01*
X191749000Y-131025500D02*
X191749000Y-130474500D01*
G75*
G02*
X191999500Y-130224000I250500J0D01*
G01*
X192500500Y-130224000D01*
G75*
G02*
X192751000Y-130474500I0J-250500D01*
G01*
X192751000Y-131025500D01*
G75*
G02*
X192500500Y-131276000I-250500J0D01*
G01*
X191999500Y-131276000D01*
G75*
G02*
X191749000Y-131025500I0J250500D01*
G01*
G37*
G36*
G01*
X178549000Y-131025500D02*
X178549000Y-130474500D01*
G75*
G02*
X178799500Y-130224000I250500J0D01*
G01*
X179300500Y-130224000D01*
G75*
G02*
X179551000Y-130474500I0J-250500D01*
G01*
X179551000Y-131025500D01*
G75*
G02*
X179300500Y-131276000I-250500J0D01*
G01*
X178799500Y-131276000D01*
G75*
G02*
X178549000Y-131025500I0J250500D01*
G01*
G37*
G36*
G01*
X176999000Y-131025500D02*
X176999000Y-130474500D01*
G75*
G02*
X177249500Y-130224000I250500J0D01*
G01*
X177750500Y-130224000D01*
G75*
G02*
X178001000Y-130474500I0J-250500D01*
G01*
X178001000Y-131025500D01*
G75*
G02*
X177750500Y-131276000I-250500J0D01*
G01*
X177249500Y-131276000D01*
G75*
G02*
X176999000Y-131025500I0J250500D01*
G01*
G37*
G36*
G01*
X163799000Y-131025500D02*
X163799000Y-130474500D01*
G75*
G02*
X164049500Y-130224000I250500J0D01*
G01*
X164550500Y-130224000D01*
G75*
G02*
X164801000Y-130474500I0J-250500D01*
G01*
X164801000Y-131025500D01*
G75*
G02*
X164550500Y-131276000I-250500J0D01*
G01*
X164049500Y-131276000D01*
G75*
G02*
X163799000Y-131025500I0J250500D01*
G01*
G37*
G36*
G01*
X162249000Y-131025500D02*
X162249000Y-130474500D01*
G75*
G02*
X162499500Y-130224000I250500J0D01*
G01*
X163000500Y-130224000D01*
G75*
G02*
X163251000Y-130474500I0J-250500D01*
G01*
X163251000Y-131025500D01*
G75*
G02*
X163000500Y-131276000I-250500J0D01*
G01*
X162499500Y-131276000D01*
G75*
G02*
X162249000Y-131025500I0J250500D01*
G01*
G37*
G36*
G01*
X149049000Y-131025500D02*
X149049000Y-130474500D01*
G75*
G02*
X149299500Y-130224000I250500J0D01*
G01*
X149800500Y-130224000D01*
G75*
G02*
X150051000Y-130474500I0J-250500D01*
G01*
X150051000Y-131025500D01*
G75*
G02*
X149800500Y-131276000I-250500J0D01*
G01*
X149299500Y-131276000D01*
G75*
G02*
X149049000Y-131025500I0J250500D01*
G01*
G37*
G36*
G01*
X147499000Y-131025500D02*
X147499000Y-130474500D01*
G75*
G02*
X147749500Y-130224000I250500J0D01*
G01*
X148250500Y-130224000D01*
G75*
G02*
X148501000Y-130474500I0J-250500D01*
G01*
X148501000Y-131025500D01*
G75*
G02*
X148250500Y-131276000I-250500J0D01*
G01*
X147749500Y-131276000D01*
G75*
G02*
X147499000Y-131025500I0J250500D01*
G01*
G37*
G36*
G01*
X134299000Y-131025500D02*
X134299000Y-130474500D01*
G75*
G02*
X134549500Y-130224000I250500J0D01*
G01*
X135050500Y-130224000D01*
G75*
G02*
X135301000Y-130474500I0J-250500D01*
G01*
X135301000Y-131025500D01*
G75*
G02*
X135050500Y-131276000I-250500J0D01*
G01*
X134549500Y-131276000D01*
G75*
G02*
X134299000Y-131025500I0J250500D01*
G01*
G37*
G36*
G01*
X132749000Y-131025500D02*
X132749000Y-130474500D01*
G75*
G02*
X132999500Y-130224000I250500J0D01*
G01*
X133500500Y-130224000D01*
G75*
G02*
X133751000Y-130474500I0J-250500D01*
G01*
X133751000Y-131025500D01*
G75*
G02*
X133500500Y-131276000I-250500J0D01*
G01*
X132999500Y-131276000D01*
G75*
G02*
X132749000Y-131025500I0J250500D01*
G01*
G37*
G36*
G01*
X119549000Y-131025500D02*
X119549000Y-130474500D01*
G75*
G02*
X119799500Y-130224000I250500J0D01*
G01*
X120300500Y-130224000D01*
G75*
G02*
X120551000Y-130474500I0J-250500D01*
G01*
X120551000Y-131025500D01*
G75*
G02*
X120300500Y-131276000I-250500J0D01*
G01*
X119799500Y-131276000D01*
G75*
G02*
X119549000Y-131025500I0J250500D01*
G01*
G37*
G36*
G01*
X117999000Y-131025500D02*
X117999000Y-130474500D01*
G75*
G02*
X118249500Y-130224000I250500J0D01*
G01*
X118750500Y-130224000D01*
G75*
G02*
X119001000Y-130474500I0J-250500D01*
G01*
X119001000Y-131025500D01*
G75*
G02*
X118750500Y-131276000I-250500J0D01*
G01*
X118249500Y-131276000D01*
G75*
G02*
X117999000Y-131025500I0J250500D01*
G01*
G37*
G36*
G01*
X104799000Y-131025500D02*
X104799000Y-130474500D01*
G75*
G02*
X105049500Y-130224000I250500J0D01*
G01*
X105550500Y-130224000D01*
G75*
G02*
X105801000Y-130474500I0J-250500D01*
G01*
X105801000Y-131025500D01*
G75*
G02*
X105550500Y-131276000I-250500J0D01*
G01*
X105049500Y-131276000D01*
G75*
G02*
X104799000Y-131025500I0J250500D01*
G01*
G37*
G36*
G01*
X103249000Y-131025500D02*
X103249000Y-130474500D01*
G75*
G02*
X103499500Y-130224000I250500J0D01*
G01*
X104000500Y-130224000D01*
G75*
G02*
X104251000Y-130474500I0J-250500D01*
G01*
X104251000Y-131025500D01*
G75*
G02*
X104000500Y-131276000I-250500J0D01*
G01*
X103499500Y-131276000D01*
G75*
G02*
X103249000Y-131025500I0J250500D01*
G01*
G37*
G36*
G01*
X90049000Y-131025500D02*
X90049000Y-130474500D01*
G75*
G02*
X90299500Y-130224000I250500J0D01*
G01*
X90800500Y-130224000D01*
G75*
G02*
X91051000Y-130474500I0J-250500D01*
G01*
X91051000Y-131025500D01*
G75*
G02*
X90800500Y-131276000I-250500J0D01*
G01*
X90299500Y-131276000D01*
G75*
G02*
X90049000Y-131025500I0J250500D01*
G01*
G37*
G36*
G01*
X88499000Y-131025500D02*
X88499000Y-130474500D01*
G75*
G02*
X88749500Y-130224000I250500J0D01*
G01*
X89250500Y-130224000D01*
G75*
G02*
X89501000Y-130474500I0J-250500D01*
G01*
X89501000Y-131025500D01*
G75*
G02*
X89250500Y-131276000I-250500J0D01*
G01*
X88749500Y-131276000D01*
G75*
G02*
X88499000Y-131025500I0J250500D01*
G01*
G37*
G36*
G01*
X75299000Y-131025500D02*
X75299000Y-130474500D01*
G75*
G02*
X75549500Y-130224000I250500J0D01*
G01*
X76050500Y-130224000D01*
G75*
G02*
X76301000Y-130474500I0J-250500D01*
G01*
X76301000Y-131025500D01*
G75*
G02*
X76050500Y-131276000I-250500J0D01*
G01*
X75549500Y-131276000D01*
G75*
G02*
X75299000Y-131025500I0J250500D01*
G01*
G37*
G36*
G01*
X73749000Y-131025500D02*
X73749000Y-130474500D01*
G75*
G02*
X73999500Y-130224000I250500J0D01*
G01*
X74500500Y-130224000D01*
G75*
G02*
X74751000Y-130474500I0J-250500D01*
G01*
X74751000Y-131025500D01*
G75*
G02*
X74500500Y-131276000I-250500J0D01*
G01*
X73999500Y-131276000D01*
G75*
G02*
X73749000Y-131025500I0J250500D01*
G01*
G37*
G36*
G01*
X60549000Y-131025500D02*
X60549000Y-130474500D01*
G75*
G02*
X60799500Y-130224000I250500J0D01*
G01*
X61300500Y-130224000D01*
G75*
G02*
X61551000Y-130474500I0J-250500D01*
G01*
X61551000Y-131025500D01*
G75*
G02*
X61300500Y-131276000I-250500J0D01*
G01*
X60799500Y-131276000D01*
G75*
G02*
X60549000Y-131025500I0J250500D01*
G01*
G37*
G36*
G01*
X58999000Y-131025500D02*
X58999000Y-130474500D01*
G75*
G02*
X59249500Y-130224000I250500J0D01*
G01*
X59750500Y-130224000D01*
G75*
G02*
X60001000Y-130474500I0J-250500D01*
G01*
X60001000Y-131025500D01*
G75*
G02*
X59750500Y-131276000I-250500J0D01*
G01*
X59249500Y-131276000D01*
G75*
G02*
X58999000Y-131025500I0J250500D01*
G01*
G37*
G36*
G01*
X45799000Y-131025500D02*
X45799000Y-130474500D01*
G75*
G02*
X46049500Y-130224000I250500J0D01*
G01*
X46550500Y-130224000D01*
G75*
G02*
X46801000Y-130474500I0J-250500D01*
G01*
X46801000Y-131025500D01*
G75*
G02*
X46550500Y-131276000I-250500J0D01*
G01*
X46049500Y-131276000D01*
G75*
G02*
X45799000Y-131025500I0J250500D01*
G01*
G37*
G36*
G01*
X44249000Y-131025500D02*
X44249000Y-130474500D01*
G75*
G02*
X44499500Y-130224000I250500J0D01*
G01*
X45000500Y-130224000D01*
G75*
G02*
X45251000Y-130474500I0J-250500D01*
G01*
X45251000Y-131025500D01*
G75*
G02*
X45000500Y-131276000I-250500J0D01*
G01*
X44499500Y-131276000D01*
G75*
G02*
X44249000Y-131025500I0J250500D01*
G01*
G37*
G36*
G01*
X31049000Y-131025500D02*
X31049000Y-130474500D01*
G75*
G02*
X31299500Y-130224000I250500J0D01*
G01*
X31800500Y-130224000D01*
G75*
G02*
X32051000Y-130474500I0J-250500D01*
G01*
X32051000Y-131025500D01*
G75*
G02*
X31800500Y-131276000I-250500J0D01*
G01*
X31299500Y-131276000D01*
G75*
G02*
X31049000Y-131025500I0J250500D01*
G01*
G37*
G36*
G01*
X29499000Y-131025500D02*
X29499000Y-130474500D01*
G75*
G02*
X29749500Y-130224000I250500J0D01*
G01*
X30250500Y-130224000D01*
G75*
G02*
X30501000Y-130474500I0J-250500D01*
G01*
X30501000Y-131025500D01*
G75*
G02*
X30250500Y-131276000I-250500J0D01*
G01*
X29749500Y-131276000D01*
G75*
G02*
X29499000Y-131025500I0J250500D01*
G01*
G37*
G36*
G01*
X16299000Y-131025500D02*
X16299000Y-130474500D01*
G75*
G02*
X16549500Y-130224000I250500J0D01*
G01*
X17050500Y-130224000D01*
G75*
G02*
X17301000Y-130474500I0J-250500D01*
G01*
X17301000Y-131025500D01*
G75*
G02*
X17050500Y-131276000I-250500J0D01*
G01*
X16549500Y-131276000D01*
G75*
G02*
X16299000Y-131025500I0J250500D01*
G01*
G37*
G36*
G01*
X14749000Y-131025500D02*
X14749000Y-130474500D01*
G75*
G02*
X14999500Y-130224000I250500J0D01*
G01*
X15500500Y-130224000D01*
G75*
G02*
X15751000Y-130474500I0J-250500D01*
G01*
X15751000Y-131025500D01*
G75*
G02*
X15500500Y-131276000I-250500J0D01*
G01*
X14999500Y-131276000D01*
G75*
G02*
X14749000Y-131025500I0J250500D01*
G01*
G37*
G36*
G01*
X1549000Y-131025500D02*
X1549000Y-130474500D01*
G75*
G02*
X1799500Y-130224000I250500J0D01*
G01*
X2300500Y-130224000D01*
G75*
G02*
X2551000Y-130474500I0J-250500D01*
G01*
X2551000Y-131025500D01*
G75*
G02*
X2300500Y-131276000I-250500J0D01*
G01*
X1799500Y-131276000D01*
G75*
G02*
X1549000Y-131025500I0J250500D01*
G01*
G37*
G36*
G01*
X-1000Y-131025500D02*
X-1000Y-130474500D01*
G75*
G02*
X249500Y-130224000I250500J0D01*
G01*
X750500Y-130224000D01*
G75*
G02*
X1001000Y-130474500I0J-250500D01*
G01*
X1001000Y-131025500D01*
G75*
G02*
X750500Y-131276000I-250500J0D01*
G01*
X249500Y-131276000D01*
G75*
G02*
X-1000Y-131025500I0J250500D01*
G01*
G37*
G36*
G01*
X-13201000Y-131025500D02*
X-13201000Y-130474500D01*
G75*
G02*
X-12950500Y-130224000I250500J0D01*
G01*
X-12449500Y-130224000D01*
G75*
G02*
X-12199000Y-130474500I0J-250500D01*
G01*
X-12199000Y-131025500D01*
G75*
G02*
X-12449500Y-131276000I-250500J0D01*
G01*
X-12950500Y-131276000D01*
G75*
G02*
X-13201000Y-131025500I0J250500D01*
G01*
G37*
G36*
G01*
X-14751000Y-131025500D02*
X-14751000Y-130474500D01*
G75*
G02*
X-14500500Y-130224000I250500J0D01*
G01*
X-13999500Y-130224000D01*
G75*
G02*
X-13749000Y-130474500I0J-250500D01*
G01*
X-13749000Y-131025500D01*
G75*
G02*
X-13999500Y-131276000I-250500J0D01*
G01*
X-14500500Y-131276000D01*
G75*
G02*
X-14751000Y-131025500I0J250500D01*
G01*
G37*
G36*
G01*
X-27951000Y-131025500D02*
X-27951000Y-130474500D01*
G75*
G02*
X-27700500Y-130224000I250500J0D01*
G01*
X-27199500Y-130224000D01*
G75*
G02*
X-26949000Y-130474500I0J-250500D01*
G01*
X-26949000Y-131025500D01*
G75*
G02*
X-27199500Y-131276000I-250500J0D01*
G01*
X-27700500Y-131276000D01*
G75*
G02*
X-27951000Y-131025500I0J250500D01*
G01*
G37*
G36*
G01*
X-29501000Y-131025500D02*
X-29501000Y-130474500D01*
G75*
G02*
X-29250500Y-130224000I250500J0D01*
G01*
X-28749500Y-130224000D01*
G75*
G02*
X-28499000Y-130474500I0J-250500D01*
G01*
X-28499000Y-131025500D01*
G75*
G02*
X-28749500Y-131276000I-250500J0D01*
G01*
X-29250500Y-131276000D01*
G75*
G02*
X-29501000Y-131025500I0J250500D01*
G01*
G37*
G36*
G01*
X-42701000Y-131025500D02*
X-42701000Y-130474500D01*
G75*
G02*
X-42450500Y-130224000I250500J0D01*
G01*
X-41949500Y-130224000D01*
G75*
G02*
X-41699000Y-130474500I0J-250500D01*
G01*
X-41699000Y-131025500D01*
G75*
G02*
X-41949500Y-131276000I-250500J0D01*
G01*
X-42450500Y-131276000D01*
G75*
G02*
X-42701000Y-131025500I0J250500D01*
G01*
G37*
G36*
G01*
X-44251000Y-131025500D02*
X-44251000Y-130474500D01*
G75*
G02*
X-44000500Y-130224000I250500J0D01*
G01*
X-43499500Y-130224000D01*
G75*
G02*
X-43249000Y-130474500I0J-250500D01*
G01*
X-43249000Y-131025500D01*
G75*
G02*
X-43499500Y-131276000I-250500J0D01*
G01*
X-44000500Y-131276000D01*
G75*
G02*
X-44251000Y-131025500I0J250500D01*
G01*
G37*
G36*
G01*
X-72226000Y-131025500D02*
X-72226000Y-130474500D01*
G75*
G02*
X-71975500Y-130224000I250500J0D01*
G01*
X-71474500Y-130224000D01*
G75*
G02*
X-71224000Y-130474500I0J-250500D01*
G01*
X-71224000Y-131025500D01*
G75*
G02*
X-71474500Y-131276000I-250500J0D01*
G01*
X-71975500Y-131276000D01*
G75*
G02*
X-72226000Y-131025500I0J250500D01*
G01*
G37*
G36*
G01*
X-73776000Y-131025500D02*
X-73776000Y-130474500D01*
G75*
G02*
X-73525500Y-130224000I250500J0D01*
G01*
X-73024500Y-130224000D01*
G75*
G02*
X-72774000Y-130474500I0J-250500D01*
G01*
X-72774000Y-131025500D01*
G75*
G02*
X-73024500Y-131276000I-250500J0D01*
G01*
X-73525500Y-131276000D01*
G75*
G02*
X-73776000Y-131025500I0J250500D01*
G01*
G37*
D15*
X-87000000Y-19000000D03*
G36*
G01*
X357751000Y-128100000D02*
X357751000Y-129100000D01*
G75*
G02*
X357700000Y-129151000I-51000J0D01*
G01*
X356200000Y-129151000D01*
G75*
G02*
X356149000Y-129100000I0J51000D01*
G01*
X356149000Y-128100000D01*
G75*
G02*
X356200000Y-128049000I51000J0D01*
G01*
X357700000Y-128049000D01*
G75*
G02*
X357751000Y-128100000I0J-51000D01*
G01*
G37*
G36*
G01*
X357751000Y-124900000D02*
X357751000Y-125900000D01*
G75*
G02*
X357700000Y-125951000I-51000J0D01*
G01*
X356200000Y-125951000D01*
G75*
G02*
X356149000Y-125900000I0J51000D01*
G01*
X356149000Y-124900000D01*
G75*
G02*
X356200000Y-124849000I51000J0D01*
G01*
X357700000Y-124849000D01*
G75*
G02*
X357751000Y-124900000I0J-51000D01*
G01*
G37*
G36*
G01*
X352851000Y-128100000D02*
X352851000Y-129100000D01*
G75*
G02*
X352800000Y-129151000I-51000J0D01*
G01*
X351300000Y-129151000D01*
G75*
G02*
X351249000Y-129100000I0J51000D01*
G01*
X351249000Y-128100000D01*
G75*
G02*
X351300000Y-128049000I51000J0D01*
G01*
X352800000Y-128049000D01*
G75*
G02*
X352851000Y-128100000I0J-51000D01*
G01*
G37*
G36*
G01*
X352851000Y-124900000D02*
X352851000Y-125900000D01*
G75*
G02*
X352800000Y-125951000I-51000J0D01*
G01*
X351300000Y-125951000D01*
G75*
G02*
X351249000Y-125900000I0J51000D01*
G01*
X351249000Y-124900000D01*
G75*
G02*
X351300000Y-124849000I51000J0D01*
G01*
X352800000Y-124849000D01*
G75*
G02*
X352851000Y-124900000I0J-51000D01*
G01*
G37*
G36*
G01*
X328251000Y-128100000D02*
X328251000Y-129100000D01*
G75*
G02*
X328200000Y-129151000I-51000J0D01*
G01*
X326700000Y-129151000D01*
G75*
G02*
X326649000Y-129100000I0J51000D01*
G01*
X326649000Y-128100000D01*
G75*
G02*
X326700000Y-128049000I51000J0D01*
G01*
X328200000Y-128049000D01*
G75*
G02*
X328251000Y-128100000I0J-51000D01*
G01*
G37*
G36*
G01*
X328251000Y-124900000D02*
X328251000Y-125900000D01*
G75*
G02*
X328200000Y-125951000I-51000J0D01*
G01*
X326700000Y-125951000D01*
G75*
G02*
X326649000Y-125900000I0J51000D01*
G01*
X326649000Y-124900000D01*
G75*
G02*
X326700000Y-124849000I51000J0D01*
G01*
X328200000Y-124849000D01*
G75*
G02*
X328251000Y-124900000I0J-51000D01*
G01*
G37*
G36*
G01*
X323351000Y-128100000D02*
X323351000Y-129100000D01*
G75*
G02*
X323300000Y-129151000I-51000J0D01*
G01*
X321800000Y-129151000D01*
G75*
G02*
X321749000Y-129100000I0J51000D01*
G01*
X321749000Y-128100000D01*
G75*
G02*
X321800000Y-128049000I51000J0D01*
G01*
X323300000Y-128049000D01*
G75*
G02*
X323351000Y-128100000I0J-51000D01*
G01*
G37*
G36*
G01*
X323351000Y-124900000D02*
X323351000Y-125900000D01*
G75*
G02*
X323300000Y-125951000I-51000J0D01*
G01*
X321800000Y-125951000D01*
G75*
G02*
X321749000Y-125900000I0J51000D01*
G01*
X321749000Y-124900000D01*
G75*
G02*
X321800000Y-124849000I51000J0D01*
G01*
X323300000Y-124849000D01*
G75*
G02*
X323351000Y-124900000I0J-51000D01*
G01*
G37*
G36*
G01*
X298751000Y-128100000D02*
X298751000Y-129100000D01*
G75*
G02*
X298700000Y-129151000I-51000J0D01*
G01*
X297200000Y-129151000D01*
G75*
G02*
X297149000Y-129100000I0J51000D01*
G01*
X297149000Y-128100000D01*
G75*
G02*
X297200000Y-128049000I51000J0D01*
G01*
X298700000Y-128049000D01*
G75*
G02*
X298751000Y-128100000I0J-51000D01*
G01*
G37*
G36*
G01*
X298751000Y-124900000D02*
X298751000Y-125900000D01*
G75*
G02*
X298700000Y-125951000I-51000J0D01*
G01*
X297200000Y-125951000D01*
G75*
G02*
X297149000Y-125900000I0J51000D01*
G01*
X297149000Y-124900000D01*
G75*
G02*
X297200000Y-124849000I51000J0D01*
G01*
X298700000Y-124849000D01*
G75*
G02*
X298751000Y-124900000I0J-51000D01*
G01*
G37*
G36*
G01*
X293851000Y-128100000D02*
X293851000Y-129100000D01*
G75*
G02*
X293800000Y-129151000I-51000J0D01*
G01*
X292300000Y-129151000D01*
G75*
G02*
X292249000Y-129100000I0J51000D01*
G01*
X292249000Y-128100000D01*
G75*
G02*
X292300000Y-128049000I51000J0D01*
G01*
X293800000Y-128049000D01*
G75*
G02*
X293851000Y-128100000I0J-51000D01*
G01*
G37*
G36*
G01*
X293851000Y-124900000D02*
X293851000Y-125900000D01*
G75*
G02*
X293800000Y-125951000I-51000J0D01*
G01*
X292300000Y-125951000D01*
G75*
G02*
X292249000Y-125900000I0J51000D01*
G01*
X292249000Y-124900000D01*
G75*
G02*
X292300000Y-124849000I51000J0D01*
G01*
X293800000Y-124849000D01*
G75*
G02*
X293851000Y-124900000I0J-51000D01*
G01*
G37*
G36*
G01*
X269251000Y-128100000D02*
X269251000Y-129100000D01*
G75*
G02*
X269200000Y-129151000I-51000J0D01*
G01*
X267700000Y-129151000D01*
G75*
G02*
X267649000Y-129100000I0J51000D01*
G01*
X267649000Y-128100000D01*
G75*
G02*
X267700000Y-128049000I51000J0D01*
G01*
X269200000Y-128049000D01*
G75*
G02*
X269251000Y-128100000I0J-51000D01*
G01*
G37*
G36*
G01*
X269251000Y-124900000D02*
X269251000Y-125900000D01*
G75*
G02*
X269200000Y-125951000I-51000J0D01*
G01*
X267700000Y-125951000D01*
G75*
G02*
X267649000Y-125900000I0J51000D01*
G01*
X267649000Y-124900000D01*
G75*
G02*
X267700000Y-124849000I51000J0D01*
G01*
X269200000Y-124849000D01*
G75*
G02*
X269251000Y-124900000I0J-51000D01*
G01*
G37*
G36*
G01*
X264351000Y-128100000D02*
X264351000Y-129100000D01*
G75*
G02*
X264300000Y-129151000I-51000J0D01*
G01*
X262800000Y-129151000D01*
G75*
G02*
X262749000Y-129100000I0J51000D01*
G01*
X262749000Y-128100000D01*
G75*
G02*
X262800000Y-128049000I51000J0D01*
G01*
X264300000Y-128049000D01*
G75*
G02*
X264351000Y-128100000I0J-51000D01*
G01*
G37*
G36*
G01*
X264351000Y-124900000D02*
X264351000Y-125900000D01*
G75*
G02*
X264300000Y-125951000I-51000J0D01*
G01*
X262800000Y-125951000D01*
G75*
G02*
X262749000Y-125900000I0J51000D01*
G01*
X262749000Y-124900000D01*
G75*
G02*
X262800000Y-124849000I51000J0D01*
G01*
X264300000Y-124849000D01*
G75*
G02*
X264351000Y-124900000I0J-51000D01*
G01*
G37*
G36*
G01*
X239751000Y-128100000D02*
X239751000Y-129100000D01*
G75*
G02*
X239700000Y-129151000I-51000J0D01*
G01*
X238200000Y-129151000D01*
G75*
G02*
X238149000Y-129100000I0J51000D01*
G01*
X238149000Y-128100000D01*
G75*
G02*
X238200000Y-128049000I51000J0D01*
G01*
X239700000Y-128049000D01*
G75*
G02*
X239751000Y-128100000I0J-51000D01*
G01*
G37*
G36*
G01*
X239751000Y-124900000D02*
X239751000Y-125900000D01*
G75*
G02*
X239700000Y-125951000I-51000J0D01*
G01*
X238200000Y-125951000D01*
G75*
G02*
X238149000Y-125900000I0J51000D01*
G01*
X238149000Y-124900000D01*
G75*
G02*
X238200000Y-124849000I51000J0D01*
G01*
X239700000Y-124849000D01*
G75*
G02*
X239751000Y-124900000I0J-51000D01*
G01*
G37*
G36*
G01*
X234851000Y-128100000D02*
X234851000Y-129100000D01*
G75*
G02*
X234800000Y-129151000I-51000J0D01*
G01*
X233300000Y-129151000D01*
G75*
G02*
X233249000Y-129100000I0J51000D01*
G01*
X233249000Y-128100000D01*
G75*
G02*
X233300000Y-128049000I51000J0D01*
G01*
X234800000Y-128049000D01*
G75*
G02*
X234851000Y-128100000I0J-51000D01*
G01*
G37*
G36*
G01*
X234851000Y-124900000D02*
X234851000Y-125900000D01*
G75*
G02*
X234800000Y-125951000I-51000J0D01*
G01*
X233300000Y-125951000D01*
G75*
G02*
X233249000Y-125900000I0J51000D01*
G01*
X233249000Y-124900000D01*
G75*
G02*
X233300000Y-124849000I51000J0D01*
G01*
X234800000Y-124849000D01*
G75*
G02*
X234851000Y-124900000I0J-51000D01*
G01*
G37*
G36*
G01*
X210251000Y-128100000D02*
X210251000Y-129100000D01*
G75*
G02*
X210200000Y-129151000I-51000J0D01*
G01*
X208700000Y-129151000D01*
G75*
G02*
X208649000Y-129100000I0J51000D01*
G01*
X208649000Y-128100000D01*
G75*
G02*
X208700000Y-128049000I51000J0D01*
G01*
X210200000Y-128049000D01*
G75*
G02*
X210251000Y-128100000I0J-51000D01*
G01*
G37*
G36*
G01*
X210251000Y-124900000D02*
X210251000Y-125900000D01*
G75*
G02*
X210200000Y-125951000I-51000J0D01*
G01*
X208700000Y-125951000D01*
G75*
G02*
X208649000Y-125900000I0J51000D01*
G01*
X208649000Y-124900000D01*
G75*
G02*
X208700000Y-124849000I51000J0D01*
G01*
X210200000Y-124849000D01*
G75*
G02*
X210251000Y-124900000I0J-51000D01*
G01*
G37*
G36*
G01*
X205351000Y-128100000D02*
X205351000Y-129100000D01*
G75*
G02*
X205300000Y-129151000I-51000J0D01*
G01*
X203800000Y-129151000D01*
G75*
G02*
X203749000Y-129100000I0J51000D01*
G01*
X203749000Y-128100000D01*
G75*
G02*
X203800000Y-128049000I51000J0D01*
G01*
X205300000Y-128049000D01*
G75*
G02*
X205351000Y-128100000I0J-51000D01*
G01*
G37*
G36*
G01*
X205351000Y-124900000D02*
X205351000Y-125900000D01*
G75*
G02*
X205300000Y-125951000I-51000J0D01*
G01*
X203800000Y-125951000D01*
G75*
G02*
X203749000Y-125900000I0J51000D01*
G01*
X203749000Y-124900000D01*
G75*
G02*
X203800000Y-124849000I51000J0D01*
G01*
X205300000Y-124849000D01*
G75*
G02*
X205351000Y-124900000I0J-51000D01*
G01*
G37*
G36*
G01*
X180751000Y-128100000D02*
X180751000Y-129100000D01*
G75*
G02*
X180700000Y-129151000I-51000J0D01*
G01*
X179200000Y-129151000D01*
G75*
G02*
X179149000Y-129100000I0J51000D01*
G01*
X179149000Y-128100000D01*
G75*
G02*
X179200000Y-128049000I51000J0D01*
G01*
X180700000Y-128049000D01*
G75*
G02*
X180751000Y-128100000I0J-51000D01*
G01*
G37*
G36*
G01*
X180751000Y-124900000D02*
X180751000Y-125900000D01*
G75*
G02*
X180700000Y-125951000I-51000J0D01*
G01*
X179200000Y-125951000D01*
G75*
G02*
X179149000Y-125900000I0J51000D01*
G01*
X179149000Y-124900000D01*
G75*
G02*
X179200000Y-124849000I51000J0D01*
G01*
X180700000Y-124849000D01*
G75*
G02*
X180751000Y-124900000I0J-51000D01*
G01*
G37*
G36*
G01*
X175851000Y-128100000D02*
X175851000Y-129100000D01*
G75*
G02*
X175800000Y-129151000I-51000J0D01*
G01*
X174300000Y-129151000D01*
G75*
G02*
X174249000Y-129100000I0J51000D01*
G01*
X174249000Y-128100000D01*
G75*
G02*
X174300000Y-128049000I51000J0D01*
G01*
X175800000Y-128049000D01*
G75*
G02*
X175851000Y-128100000I0J-51000D01*
G01*
G37*
G36*
G01*
X175851000Y-124900000D02*
X175851000Y-125900000D01*
G75*
G02*
X175800000Y-125951000I-51000J0D01*
G01*
X174300000Y-125951000D01*
G75*
G02*
X174249000Y-125900000I0J51000D01*
G01*
X174249000Y-124900000D01*
G75*
G02*
X174300000Y-124849000I51000J0D01*
G01*
X175800000Y-124849000D01*
G75*
G02*
X175851000Y-124900000I0J-51000D01*
G01*
G37*
G36*
G01*
X151251000Y-128100000D02*
X151251000Y-129100000D01*
G75*
G02*
X151200000Y-129151000I-51000J0D01*
G01*
X149700000Y-129151000D01*
G75*
G02*
X149649000Y-129100000I0J51000D01*
G01*
X149649000Y-128100000D01*
G75*
G02*
X149700000Y-128049000I51000J0D01*
G01*
X151200000Y-128049000D01*
G75*
G02*
X151251000Y-128100000I0J-51000D01*
G01*
G37*
G36*
G01*
X151251000Y-124900000D02*
X151251000Y-125900000D01*
G75*
G02*
X151200000Y-125951000I-51000J0D01*
G01*
X149700000Y-125951000D01*
G75*
G02*
X149649000Y-125900000I0J51000D01*
G01*
X149649000Y-124900000D01*
G75*
G02*
X149700000Y-124849000I51000J0D01*
G01*
X151200000Y-124849000D01*
G75*
G02*
X151251000Y-124900000I0J-51000D01*
G01*
G37*
G36*
G01*
X146351000Y-128100000D02*
X146351000Y-129100000D01*
G75*
G02*
X146300000Y-129151000I-51000J0D01*
G01*
X144800000Y-129151000D01*
G75*
G02*
X144749000Y-129100000I0J51000D01*
G01*
X144749000Y-128100000D01*
G75*
G02*
X144800000Y-128049000I51000J0D01*
G01*
X146300000Y-128049000D01*
G75*
G02*
X146351000Y-128100000I0J-51000D01*
G01*
G37*
G36*
G01*
X146351000Y-124900000D02*
X146351000Y-125900000D01*
G75*
G02*
X146300000Y-125951000I-51000J0D01*
G01*
X144800000Y-125951000D01*
G75*
G02*
X144749000Y-125900000I0J51000D01*
G01*
X144749000Y-124900000D01*
G75*
G02*
X144800000Y-124849000I51000J0D01*
G01*
X146300000Y-124849000D01*
G75*
G02*
X146351000Y-124900000I0J-51000D01*
G01*
G37*
G36*
G01*
X121751000Y-128100000D02*
X121751000Y-129100000D01*
G75*
G02*
X121700000Y-129151000I-51000J0D01*
G01*
X120200000Y-129151000D01*
G75*
G02*
X120149000Y-129100000I0J51000D01*
G01*
X120149000Y-128100000D01*
G75*
G02*
X120200000Y-128049000I51000J0D01*
G01*
X121700000Y-128049000D01*
G75*
G02*
X121751000Y-128100000I0J-51000D01*
G01*
G37*
G36*
G01*
X121751000Y-124900000D02*
X121751000Y-125900000D01*
G75*
G02*
X121700000Y-125951000I-51000J0D01*
G01*
X120200000Y-125951000D01*
G75*
G02*
X120149000Y-125900000I0J51000D01*
G01*
X120149000Y-124900000D01*
G75*
G02*
X120200000Y-124849000I51000J0D01*
G01*
X121700000Y-124849000D01*
G75*
G02*
X121751000Y-124900000I0J-51000D01*
G01*
G37*
G36*
G01*
X116851000Y-128100000D02*
X116851000Y-129100000D01*
G75*
G02*
X116800000Y-129151000I-51000J0D01*
G01*
X115300000Y-129151000D01*
G75*
G02*
X115249000Y-129100000I0J51000D01*
G01*
X115249000Y-128100000D01*
G75*
G02*
X115300000Y-128049000I51000J0D01*
G01*
X116800000Y-128049000D01*
G75*
G02*
X116851000Y-128100000I0J-51000D01*
G01*
G37*
G36*
G01*
X116851000Y-124900000D02*
X116851000Y-125900000D01*
G75*
G02*
X116800000Y-125951000I-51000J0D01*
G01*
X115300000Y-125951000D01*
G75*
G02*
X115249000Y-125900000I0J51000D01*
G01*
X115249000Y-124900000D01*
G75*
G02*
X115300000Y-124849000I51000J0D01*
G01*
X116800000Y-124849000D01*
G75*
G02*
X116851000Y-124900000I0J-51000D01*
G01*
G37*
G36*
G01*
X92251000Y-128100000D02*
X92251000Y-129100000D01*
G75*
G02*
X92200000Y-129151000I-51000J0D01*
G01*
X90700000Y-129151000D01*
G75*
G02*
X90649000Y-129100000I0J51000D01*
G01*
X90649000Y-128100000D01*
G75*
G02*
X90700000Y-128049000I51000J0D01*
G01*
X92200000Y-128049000D01*
G75*
G02*
X92251000Y-128100000I0J-51000D01*
G01*
G37*
G36*
G01*
X92251000Y-124900000D02*
X92251000Y-125900000D01*
G75*
G02*
X92200000Y-125951000I-51000J0D01*
G01*
X90700000Y-125951000D01*
G75*
G02*
X90649000Y-125900000I0J51000D01*
G01*
X90649000Y-124900000D01*
G75*
G02*
X90700000Y-124849000I51000J0D01*
G01*
X92200000Y-124849000D01*
G75*
G02*
X92251000Y-124900000I0J-51000D01*
G01*
G37*
G36*
G01*
X87351000Y-128100000D02*
X87351000Y-129100000D01*
G75*
G02*
X87300000Y-129151000I-51000J0D01*
G01*
X85800000Y-129151000D01*
G75*
G02*
X85749000Y-129100000I0J51000D01*
G01*
X85749000Y-128100000D01*
G75*
G02*
X85800000Y-128049000I51000J0D01*
G01*
X87300000Y-128049000D01*
G75*
G02*
X87351000Y-128100000I0J-51000D01*
G01*
G37*
G36*
G01*
X87351000Y-124900000D02*
X87351000Y-125900000D01*
G75*
G02*
X87300000Y-125951000I-51000J0D01*
G01*
X85800000Y-125951000D01*
G75*
G02*
X85749000Y-125900000I0J51000D01*
G01*
X85749000Y-124900000D01*
G75*
G02*
X85800000Y-124849000I51000J0D01*
G01*
X87300000Y-124849000D01*
G75*
G02*
X87351000Y-124900000I0J-51000D01*
G01*
G37*
G36*
G01*
X62751000Y-128100000D02*
X62751000Y-129100000D01*
G75*
G02*
X62700000Y-129151000I-51000J0D01*
G01*
X61200000Y-129151000D01*
G75*
G02*
X61149000Y-129100000I0J51000D01*
G01*
X61149000Y-128100000D01*
G75*
G02*
X61200000Y-128049000I51000J0D01*
G01*
X62700000Y-128049000D01*
G75*
G02*
X62751000Y-128100000I0J-51000D01*
G01*
G37*
G36*
G01*
X62751000Y-124900000D02*
X62751000Y-125900000D01*
G75*
G02*
X62700000Y-125951000I-51000J0D01*
G01*
X61200000Y-125951000D01*
G75*
G02*
X61149000Y-125900000I0J51000D01*
G01*
X61149000Y-124900000D01*
G75*
G02*
X61200000Y-124849000I51000J0D01*
G01*
X62700000Y-124849000D01*
G75*
G02*
X62751000Y-124900000I0J-51000D01*
G01*
G37*
G36*
G01*
X57851000Y-128100000D02*
X57851000Y-129100000D01*
G75*
G02*
X57800000Y-129151000I-51000J0D01*
G01*
X56300000Y-129151000D01*
G75*
G02*
X56249000Y-129100000I0J51000D01*
G01*
X56249000Y-128100000D01*
G75*
G02*
X56300000Y-128049000I51000J0D01*
G01*
X57800000Y-128049000D01*
G75*
G02*
X57851000Y-128100000I0J-51000D01*
G01*
G37*
G36*
G01*
X57851000Y-124900000D02*
X57851000Y-125900000D01*
G75*
G02*
X57800000Y-125951000I-51000J0D01*
G01*
X56300000Y-125951000D01*
G75*
G02*
X56249000Y-125900000I0J51000D01*
G01*
X56249000Y-124900000D01*
G75*
G02*
X56300000Y-124849000I51000J0D01*
G01*
X57800000Y-124849000D01*
G75*
G02*
X57851000Y-124900000I0J-51000D01*
G01*
G37*
G36*
G01*
X33251000Y-128100000D02*
X33251000Y-129100000D01*
G75*
G02*
X33200000Y-129151000I-51000J0D01*
G01*
X31700000Y-129151000D01*
G75*
G02*
X31649000Y-129100000I0J51000D01*
G01*
X31649000Y-128100000D01*
G75*
G02*
X31700000Y-128049000I51000J0D01*
G01*
X33200000Y-128049000D01*
G75*
G02*
X33251000Y-128100000I0J-51000D01*
G01*
G37*
G36*
G01*
X33251000Y-124900000D02*
X33251000Y-125900000D01*
G75*
G02*
X33200000Y-125951000I-51000J0D01*
G01*
X31700000Y-125951000D01*
G75*
G02*
X31649000Y-125900000I0J51000D01*
G01*
X31649000Y-124900000D01*
G75*
G02*
X31700000Y-124849000I51000J0D01*
G01*
X33200000Y-124849000D01*
G75*
G02*
X33251000Y-124900000I0J-51000D01*
G01*
G37*
G36*
G01*
X28351000Y-128100000D02*
X28351000Y-129100000D01*
G75*
G02*
X28300000Y-129151000I-51000J0D01*
G01*
X26800000Y-129151000D01*
G75*
G02*
X26749000Y-129100000I0J51000D01*
G01*
X26749000Y-128100000D01*
G75*
G02*
X26800000Y-128049000I51000J0D01*
G01*
X28300000Y-128049000D01*
G75*
G02*
X28351000Y-128100000I0J-51000D01*
G01*
G37*
G36*
G01*
X28351000Y-124900000D02*
X28351000Y-125900000D01*
G75*
G02*
X28300000Y-125951000I-51000J0D01*
G01*
X26800000Y-125951000D01*
G75*
G02*
X26749000Y-125900000I0J51000D01*
G01*
X26749000Y-124900000D01*
G75*
G02*
X26800000Y-124849000I51000J0D01*
G01*
X28300000Y-124849000D01*
G75*
G02*
X28351000Y-124900000I0J-51000D01*
G01*
G37*
G36*
G01*
X3751000Y-128100000D02*
X3751000Y-129100000D01*
G75*
G02*
X3700000Y-129151000I-51000J0D01*
G01*
X2200000Y-129151000D01*
G75*
G02*
X2149000Y-129100000I0J51000D01*
G01*
X2149000Y-128100000D01*
G75*
G02*
X2200000Y-128049000I51000J0D01*
G01*
X3700000Y-128049000D01*
G75*
G02*
X3751000Y-128100000I0J-51000D01*
G01*
G37*
G36*
G01*
X3751000Y-124900000D02*
X3751000Y-125900000D01*
G75*
G02*
X3700000Y-125951000I-51000J0D01*
G01*
X2200000Y-125951000D01*
G75*
G02*
X2149000Y-125900000I0J51000D01*
G01*
X2149000Y-124900000D01*
G75*
G02*
X2200000Y-124849000I51000J0D01*
G01*
X3700000Y-124849000D01*
G75*
G02*
X3751000Y-124900000I0J-51000D01*
G01*
G37*
G36*
G01*
X-1149000Y-128100000D02*
X-1149000Y-129100000D01*
G75*
G02*
X-1200000Y-129151000I-51000J0D01*
G01*
X-2700000Y-129151000D01*
G75*
G02*
X-2751000Y-129100000I0J51000D01*
G01*
X-2751000Y-128100000D01*
G75*
G02*
X-2700000Y-128049000I51000J0D01*
G01*
X-1200000Y-128049000D01*
G75*
G02*
X-1149000Y-128100000I0J-51000D01*
G01*
G37*
G36*
G01*
X-1149000Y-124900000D02*
X-1149000Y-125900000D01*
G75*
G02*
X-1200000Y-125951000I-51000J0D01*
G01*
X-2700000Y-125951000D01*
G75*
G02*
X-2751000Y-125900000I0J51000D01*
G01*
X-2751000Y-124900000D01*
G75*
G02*
X-2700000Y-124849000I51000J0D01*
G01*
X-1200000Y-124849000D01*
G75*
G02*
X-1149000Y-124900000I0J-51000D01*
G01*
G37*
G36*
G01*
X-25749000Y-128100000D02*
X-25749000Y-129100000D01*
G75*
G02*
X-25800000Y-129151000I-51000J0D01*
G01*
X-27300000Y-129151000D01*
G75*
G02*
X-27351000Y-129100000I0J51000D01*
G01*
X-27351000Y-128100000D01*
G75*
G02*
X-27300000Y-128049000I51000J0D01*
G01*
X-25800000Y-128049000D01*
G75*
G02*
X-25749000Y-128100000I0J-51000D01*
G01*
G37*
G36*
G01*
X-25749000Y-124900000D02*
X-25749000Y-125900000D01*
G75*
G02*
X-25800000Y-125951000I-51000J0D01*
G01*
X-27300000Y-125951000D01*
G75*
G02*
X-27351000Y-125900000I0J51000D01*
G01*
X-27351000Y-124900000D01*
G75*
G02*
X-27300000Y-124849000I51000J0D01*
G01*
X-25800000Y-124849000D01*
G75*
G02*
X-25749000Y-124900000I0J-51000D01*
G01*
G37*
G36*
G01*
X-30649000Y-128100000D02*
X-30649000Y-129100000D01*
G75*
G02*
X-30700000Y-129151000I-51000J0D01*
G01*
X-32200000Y-129151000D01*
G75*
G02*
X-32251000Y-129100000I0J51000D01*
G01*
X-32251000Y-128100000D01*
G75*
G02*
X-32200000Y-128049000I51000J0D01*
G01*
X-30700000Y-128049000D01*
G75*
G02*
X-30649000Y-128100000I0J-51000D01*
G01*
G37*
G36*
G01*
X-30649000Y-124900000D02*
X-30649000Y-125900000D01*
G75*
G02*
X-30700000Y-125951000I-51000J0D01*
G01*
X-32200000Y-125951000D01*
G75*
G02*
X-32251000Y-125900000I0J51000D01*
G01*
X-32251000Y-124900000D01*
G75*
G02*
X-32200000Y-124849000I51000J0D01*
G01*
X-30700000Y-124849000D01*
G75*
G02*
X-30649000Y-124900000I0J-51000D01*
G01*
G37*
G36*
G01*
X372501000Y-128100000D02*
X372501000Y-129100000D01*
G75*
G02*
X372450000Y-129151000I-51000J0D01*
G01*
X370950000Y-129151000D01*
G75*
G02*
X370899000Y-129100000I0J51000D01*
G01*
X370899000Y-128100000D01*
G75*
G02*
X370950000Y-128049000I51000J0D01*
G01*
X372450000Y-128049000D01*
G75*
G02*
X372501000Y-128100000I0J-51000D01*
G01*
G37*
G36*
G01*
X372501000Y-124900000D02*
X372501000Y-125900000D01*
G75*
G02*
X372450000Y-125951000I-51000J0D01*
G01*
X370950000Y-125951000D01*
G75*
G02*
X370899000Y-125900000I0J51000D01*
G01*
X370899000Y-124900000D01*
G75*
G02*
X370950000Y-124849000I51000J0D01*
G01*
X372450000Y-124849000D01*
G75*
G02*
X372501000Y-124900000I0J-51000D01*
G01*
G37*
G36*
G01*
X367601000Y-128100000D02*
X367601000Y-129100000D01*
G75*
G02*
X367550000Y-129151000I-51000J0D01*
G01*
X366050000Y-129151000D01*
G75*
G02*
X365999000Y-129100000I0J51000D01*
G01*
X365999000Y-128100000D01*
G75*
G02*
X366050000Y-128049000I51000J0D01*
G01*
X367550000Y-128049000D01*
G75*
G02*
X367601000Y-128100000I0J-51000D01*
G01*
G37*
G36*
G01*
X367601000Y-124900000D02*
X367601000Y-125900000D01*
G75*
G02*
X367550000Y-125951000I-51000J0D01*
G01*
X366050000Y-125951000D01*
G75*
G02*
X365999000Y-125900000I0J51000D01*
G01*
X365999000Y-124900000D01*
G75*
G02*
X366050000Y-124849000I51000J0D01*
G01*
X367550000Y-124849000D01*
G75*
G02*
X367601000Y-124900000I0J-51000D01*
G01*
G37*
G36*
G01*
X343001000Y-128100000D02*
X343001000Y-129100000D01*
G75*
G02*
X342950000Y-129151000I-51000J0D01*
G01*
X341450000Y-129151000D01*
G75*
G02*
X341399000Y-129100000I0J51000D01*
G01*
X341399000Y-128100000D01*
G75*
G02*
X341450000Y-128049000I51000J0D01*
G01*
X342950000Y-128049000D01*
G75*
G02*
X343001000Y-128100000I0J-51000D01*
G01*
G37*
G36*
G01*
X343001000Y-124900000D02*
X343001000Y-125900000D01*
G75*
G02*
X342950000Y-125951000I-51000J0D01*
G01*
X341450000Y-125951000D01*
G75*
G02*
X341399000Y-125900000I0J51000D01*
G01*
X341399000Y-124900000D01*
G75*
G02*
X341450000Y-124849000I51000J0D01*
G01*
X342950000Y-124849000D01*
G75*
G02*
X343001000Y-124900000I0J-51000D01*
G01*
G37*
G36*
G01*
X338101000Y-128100000D02*
X338101000Y-129100000D01*
G75*
G02*
X338050000Y-129151000I-51000J0D01*
G01*
X336550000Y-129151000D01*
G75*
G02*
X336499000Y-129100000I0J51000D01*
G01*
X336499000Y-128100000D01*
G75*
G02*
X336550000Y-128049000I51000J0D01*
G01*
X338050000Y-128049000D01*
G75*
G02*
X338101000Y-128100000I0J-51000D01*
G01*
G37*
G36*
G01*
X338101000Y-124900000D02*
X338101000Y-125900000D01*
G75*
G02*
X338050000Y-125951000I-51000J0D01*
G01*
X336550000Y-125951000D01*
G75*
G02*
X336499000Y-125900000I0J51000D01*
G01*
X336499000Y-124900000D01*
G75*
G02*
X336550000Y-124849000I51000J0D01*
G01*
X338050000Y-124849000D01*
G75*
G02*
X338101000Y-124900000I0J-51000D01*
G01*
G37*
G36*
G01*
X313501000Y-128100000D02*
X313501000Y-129100000D01*
G75*
G02*
X313450000Y-129151000I-51000J0D01*
G01*
X311950000Y-129151000D01*
G75*
G02*
X311899000Y-129100000I0J51000D01*
G01*
X311899000Y-128100000D01*
G75*
G02*
X311950000Y-128049000I51000J0D01*
G01*
X313450000Y-128049000D01*
G75*
G02*
X313501000Y-128100000I0J-51000D01*
G01*
G37*
G36*
G01*
X313501000Y-124900000D02*
X313501000Y-125900000D01*
G75*
G02*
X313450000Y-125951000I-51000J0D01*
G01*
X311950000Y-125951000D01*
G75*
G02*
X311899000Y-125900000I0J51000D01*
G01*
X311899000Y-124900000D01*
G75*
G02*
X311950000Y-124849000I51000J0D01*
G01*
X313450000Y-124849000D01*
G75*
G02*
X313501000Y-124900000I0J-51000D01*
G01*
G37*
G36*
G01*
X308601000Y-128100000D02*
X308601000Y-129100000D01*
G75*
G02*
X308550000Y-129151000I-51000J0D01*
G01*
X307050000Y-129151000D01*
G75*
G02*
X306999000Y-129100000I0J51000D01*
G01*
X306999000Y-128100000D01*
G75*
G02*
X307050000Y-128049000I51000J0D01*
G01*
X308550000Y-128049000D01*
G75*
G02*
X308601000Y-128100000I0J-51000D01*
G01*
G37*
G36*
G01*
X308601000Y-124900000D02*
X308601000Y-125900000D01*
G75*
G02*
X308550000Y-125951000I-51000J0D01*
G01*
X307050000Y-125951000D01*
G75*
G02*
X306999000Y-125900000I0J51000D01*
G01*
X306999000Y-124900000D01*
G75*
G02*
X307050000Y-124849000I51000J0D01*
G01*
X308550000Y-124849000D01*
G75*
G02*
X308601000Y-124900000I0J-51000D01*
G01*
G37*
G36*
G01*
X284001000Y-128100000D02*
X284001000Y-129100000D01*
G75*
G02*
X283950000Y-129151000I-51000J0D01*
G01*
X282450000Y-129151000D01*
G75*
G02*
X282399000Y-129100000I0J51000D01*
G01*
X282399000Y-128100000D01*
G75*
G02*
X282450000Y-128049000I51000J0D01*
G01*
X283950000Y-128049000D01*
G75*
G02*
X284001000Y-128100000I0J-51000D01*
G01*
G37*
G36*
G01*
X284001000Y-124900000D02*
X284001000Y-125900000D01*
G75*
G02*
X283950000Y-125951000I-51000J0D01*
G01*
X282450000Y-125951000D01*
G75*
G02*
X282399000Y-125900000I0J51000D01*
G01*
X282399000Y-124900000D01*
G75*
G02*
X282450000Y-124849000I51000J0D01*
G01*
X283950000Y-124849000D01*
G75*
G02*
X284001000Y-124900000I0J-51000D01*
G01*
G37*
G36*
G01*
X279101000Y-128100000D02*
X279101000Y-129100000D01*
G75*
G02*
X279050000Y-129151000I-51000J0D01*
G01*
X277550000Y-129151000D01*
G75*
G02*
X277499000Y-129100000I0J51000D01*
G01*
X277499000Y-128100000D01*
G75*
G02*
X277550000Y-128049000I51000J0D01*
G01*
X279050000Y-128049000D01*
G75*
G02*
X279101000Y-128100000I0J-51000D01*
G01*
G37*
G36*
G01*
X279101000Y-124900000D02*
X279101000Y-125900000D01*
G75*
G02*
X279050000Y-125951000I-51000J0D01*
G01*
X277550000Y-125951000D01*
G75*
G02*
X277499000Y-125900000I0J51000D01*
G01*
X277499000Y-124900000D01*
G75*
G02*
X277550000Y-124849000I51000J0D01*
G01*
X279050000Y-124849000D01*
G75*
G02*
X279101000Y-124900000I0J-51000D01*
G01*
G37*
G36*
G01*
X254501000Y-128100000D02*
X254501000Y-129100000D01*
G75*
G02*
X254450000Y-129151000I-51000J0D01*
G01*
X252950000Y-129151000D01*
G75*
G02*
X252899000Y-129100000I0J51000D01*
G01*
X252899000Y-128100000D01*
G75*
G02*
X252950000Y-128049000I51000J0D01*
G01*
X254450000Y-128049000D01*
G75*
G02*
X254501000Y-128100000I0J-51000D01*
G01*
G37*
G36*
G01*
X254501000Y-124900000D02*
X254501000Y-125900000D01*
G75*
G02*
X254450000Y-125951000I-51000J0D01*
G01*
X252950000Y-125951000D01*
G75*
G02*
X252899000Y-125900000I0J51000D01*
G01*
X252899000Y-124900000D01*
G75*
G02*
X252950000Y-124849000I51000J0D01*
G01*
X254450000Y-124849000D01*
G75*
G02*
X254501000Y-124900000I0J-51000D01*
G01*
G37*
G36*
G01*
X249601000Y-128100000D02*
X249601000Y-129100000D01*
G75*
G02*
X249550000Y-129151000I-51000J0D01*
G01*
X248050000Y-129151000D01*
G75*
G02*
X247999000Y-129100000I0J51000D01*
G01*
X247999000Y-128100000D01*
G75*
G02*
X248050000Y-128049000I51000J0D01*
G01*
X249550000Y-128049000D01*
G75*
G02*
X249601000Y-128100000I0J-51000D01*
G01*
G37*
G36*
G01*
X249601000Y-124900000D02*
X249601000Y-125900000D01*
G75*
G02*
X249550000Y-125951000I-51000J0D01*
G01*
X248050000Y-125951000D01*
G75*
G02*
X247999000Y-125900000I0J51000D01*
G01*
X247999000Y-124900000D01*
G75*
G02*
X248050000Y-124849000I51000J0D01*
G01*
X249550000Y-124849000D01*
G75*
G02*
X249601000Y-124900000I0J-51000D01*
G01*
G37*
G36*
G01*
X225001000Y-128100000D02*
X225001000Y-129100000D01*
G75*
G02*
X224950000Y-129151000I-51000J0D01*
G01*
X223450000Y-129151000D01*
G75*
G02*
X223399000Y-129100000I0J51000D01*
G01*
X223399000Y-128100000D01*
G75*
G02*
X223450000Y-128049000I51000J0D01*
G01*
X224950000Y-128049000D01*
G75*
G02*
X225001000Y-128100000I0J-51000D01*
G01*
G37*
G36*
G01*
X225001000Y-124900000D02*
X225001000Y-125900000D01*
G75*
G02*
X224950000Y-125951000I-51000J0D01*
G01*
X223450000Y-125951000D01*
G75*
G02*
X223399000Y-125900000I0J51000D01*
G01*
X223399000Y-124900000D01*
G75*
G02*
X223450000Y-124849000I51000J0D01*
G01*
X224950000Y-124849000D01*
G75*
G02*
X225001000Y-124900000I0J-51000D01*
G01*
G37*
G36*
G01*
X220101000Y-128100000D02*
X220101000Y-129100000D01*
G75*
G02*
X220050000Y-129151000I-51000J0D01*
G01*
X218550000Y-129151000D01*
G75*
G02*
X218499000Y-129100000I0J51000D01*
G01*
X218499000Y-128100000D01*
G75*
G02*
X218550000Y-128049000I51000J0D01*
G01*
X220050000Y-128049000D01*
G75*
G02*
X220101000Y-128100000I0J-51000D01*
G01*
G37*
G36*
G01*
X220101000Y-124900000D02*
X220101000Y-125900000D01*
G75*
G02*
X220050000Y-125951000I-51000J0D01*
G01*
X218550000Y-125951000D01*
G75*
G02*
X218499000Y-125900000I0J51000D01*
G01*
X218499000Y-124900000D01*
G75*
G02*
X218550000Y-124849000I51000J0D01*
G01*
X220050000Y-124849000D01*
G75*
G02*
X220101000Y-124900000I0J-51000D01*
G01*
G37*
G36*
G01*
X195501000Y-128100000D02*
X195501000Y-129100000D01*
G75*
G02*
X195450000Y-129151000I-51000J0D01*
G01*
X193950000Y-129151000D01*
G75*
G02*
X193899000Y-129100000I0J51000D01*
G01*
X193899000Y-128100000D01*
G75*
G02*
X193950000Y-128049000I51000J0D01*
G01*
X195450000Y-128049000D01*
G75*
G02*
X195501000Y-128100000I0J-51000D01*
G01*
G37*
G36*
G01*
X195501000Y-124900000D02*
X195501000Y-125900000D01*
G75*
G02*
X195450000Y-125951000I-51000J0D01*
G01*
X193950000Y-125951000D01*
G75*
G02*
X193899000Y-125900000I0J51000D01*
G01*
X193899000Y-124900000D01*
G75*
G02*
X193950000Y-124849000I51000J0D01*
G01*
X195450000Y-124849000D01*
G75*
G02*
X195501000Y-124900000I0J-51000D01*
G01*
G37*
G36*
G01*
X190601000Y-128100000D02*
X190601000Y-129100000D01*
G75*
G02*
X190550000Y-129151000I-51000J0D01*
G01*
X189050000Y-129151000D01*
G75*
G02*
X188999000Y-129100000I0J51000D01*
G01*
X188999000Y-128100000D01*
G75*
G02*
X189050000Y-128049000I51000J0D01*
G01*
X190550000Y-128049000D01*
G75*
G02*
X190601000Y-128100000I0J-51000D01*
G01*
G37*
G36*
G01*
X190601000Y-124900000D02*
X190601000Y-125900000D01*
G75*
G02*
X190550000Y-125951000I-51000J0D01*
G01*
X189050000Y-125951000D01*
G75*
G02*
X188999000Y-125900000I0J51000D01*
G01*
X188999000Y-124900000D01*
G75*
G02*
X189050000Y-124849000I51000J0D01*
G01*
X190550000Y-124849000D01*
G75*
G02*
X190601000Y-124900000I0J-51000D01*
G01*
G37*
G36*
G01*
X166001000Y-128100000D02*
X166001000Y-129100000D01*
G75*
G02*
X165950000Y-129151000I-51000J0D01*
G01*
X164450000Y-129151000D01*
G75*
G02*
X164399000Y-129100000I0J51000D01*
G01*
X164399000Y-128100000D01*
G75*
G02*
X164450000Y-128049000I51000J0D01*
G01*
X165950000Y-128049000D01*
G75*
G02*
X166001000Y-128100000I0J-51000D01*
G01*
G37*
G36*
G01*
X166001000Y-124900000D02*
X166001000Y-125900000D01*
G75*
G02*
X165950000Y-125951000I-51000J0D01*
G01*
X164450000Y-125951000D01*
G75*
G02*
X164399000Y-125900000I0J51000D01*
G01*
X164399000Y-124900000D01*
G75*
G02*
X164450000Y-124849000I51000J0D01*
G01*
X165950000Y-124849000D01*
G75*
G02*
X166001000Y-124900000I0J-51000D01*
G01*
G37*
G36*
G01*
X161101000Y-128100000D02*
X161101000Y-129100000D01*
G75*
G02*
X161050000Y-129151000I-51000J0D01*
G01*
X159550000Y-129151000D01*
G75*
G02*
X159499000Y-129100000I0J51000D01*
G01*
X159499000Y-128100000D01*
G75*
G02*
X159550000Y-128049000I51000J0D01*
G01*
X161050000Y-128049000D01*
G75*
G02*
X161101000Y-128100000I0J-51000D01*
G01*
G37*
G36*
G01*
X161101000Y-124900000D02*
X161101000Y-125900000D01*
G75*
G02*
X161050000Y-125951000I-51000J0D01*
G01*
X159550000Y-125951000D01*
G75*
G02*
X159499000Y-125900000I0J51000D01*
G01*
X159499000Y-124900000D01*
G75*
G02*
X159550000Y-124849000I51000J0D01*
G01*
X161050000Y-124849000D01*
G75*
G02*
X161101000Y-124900000I0J-51000D01*
G01*
G37*
G36*
G01*
X136501000Y-128100000D02*
X136501000Y-129100000D01*
G75*
G02*
X136450000Y-129151000I-51000J0D01*
G01*
X134950000Y-129151000D01*
G75*
G02*
X134899000Y-129100000I0J51000D01*
G01*
X134899000Y-128100000D01*
G75*
G02*
X134950000Y-128049000I51000J0D01*
G01*
X136450000Y-128049000D01*
G75*
G02*
X136501000Y-128100000I0J-51000D01*
G01*
G37*
G36*
G01*
X136501000Y-124900000D02*
X136501000Y-125900000D01*
G75*
G02*
X136450000Y-125951000I-51000J0D01*
G01*
X134950000Y-125951000D01*
G75*
G02*
X134899000Y-125900000I0J51000D01*
G01*
X134899000Y-124900000D01*
G75*
G02*
X134950000Y-124849000I51000J0D01*
G01*
X136450000Y-124849000D01*
G75*
G02*
X136501000Y-124900000I0J-51000D01*
G01*
G37*
G36*
G01*
X131601000Y-128100000D02*
X131601000Y-129100000D01*
G75*
G02*
X131550000Y-129151000I-51000J0D01*
G01*
X130050000Y-129151000D01*
G75*
G02*
X129999000Y-129100000I0J51000D01*
G01*
X129999000Y-128100000D01*
G75*
G02*
X130050000Y-128049000I51000J0D01*
G01*
X131550000Y-128049000D01*
G75*
G02*
X131601000Y-128100000I0J-51000D01*
G01*
G37*
G36*
G01*
X131601000Y-124900000D02*
X131601000Y-125900000D01*
G75*
G02*
X131550000Y-125951000I-51000J0D01*
G01*
X130050000Y-125951000D01*
G75*
G02*
X129999000Y-125900000I0J51000D01*
G01*
X129999000Y-124900000D01*
G75*
G02*
X130050000Y-124849000I51000J0D01*
G01*
X131550000Y-124849000D01*
G75*
G02*
X131601000Y-124900000I0J-51000D01*
G01*
G37*
G36*
G01*
X107001000Y-128100000D02*
X107001000Y-129100000D01*
G75*
G02*
X106950000Y-129151000I-51000J0D01*
G01*
X105450000Y-129151000D01*
G75*
G02*
X105399000Y-129100000I0J51000D01*
G01*
X105399000Y-128100000D01*
G75*
G02*
X105450000Y-128049000I51000J0D01*
G01*
X106950000Y-128049000D01*
G75*
G02*
X107001000Y-128100000I0J-51000D01*
G01*
G37*
G36*
G01*
X107001000Y-124900000D02*
X107001000Y-125900000D01*
G75*
G02*
X106950000Y-125951000I-51000J0D01*
G01*
X105450000Y-125951000D01*
G75*
G02*
X105399000Y-125900000I0J51000D01*
G01*
X105399000Y-124900000D01*
G75*
G02*
X105450000Y-124849000I51000J0D01*
G01*
X106950000Y-124849000D01*
G75*
G02*
X107001000Y-124900000I0J-51000D01*
G01*
G37*
G36*
G01*
X102101000Y-128100000D02*
X102101000Y-129100000D01*
G75*
G02*
X102050000Y-129151000I-51000J0D01*
G01*
X100550000Y-129151000D01*
G75*
G02*
X100499000Y-129100000I0J51000D01*
G01*
X100499000Y-128100000D01*
G75*
G02*
X100550000Y-128049000I51000J0D01*
G01*
X102050000Y-128049000D01*
G75*
G02*
X102101000Y-128100000I0J-51000D01*
G01*
G37*
G36*
G01*
X102101000Y-124900000D02*
X102101000Y-125900000D01*
G75*
G02*
X102050000Y-125951000I-51000J0D01*
G01*
X100550000Y-125951000D01*
G75*
G02*
X100499000Y-125900000I0J51000D01*
G01*
X100499000Y-124900000D01*
G75*
G02*
X100550000Y-124849000I51000J0D01*
G01*
X102050000Y-124849000D01*
G75*
G02*
X102101000Y-124900000I0J-51000D01*
G01*
G37*
G36*
G01*
X77501000Y-128100000D02*
X77501000Y-129100000D01*
G75*
G02*
X77450000Y-129151000I-51000J0D01*
G01*
X75950000Y-129151000D01*
G75*
G02*
X75899000Y-129100000I0J51000D01*
G01*
X75899000Y-128100000D01*
G75*
G02*
X75950000Y-128049000I51000J0D01*
G01*
X77450000Y-128049000D01*
G75*
G02*
X77501000Y-128100000I0J-51000D01*
G01*
G37*
G36*
G01*
X77501000Y-124900000D02*
X77501000Y-125900000D01*
G75*
G02*
X77450000Y-125951000I-51000J0D01*
G01*
X75950000Y-125951000D01*
G75*
G02*
X75899000Y-125900000I0J51000D01*
G01*
X75899000Y-124900000D01*
G75*
G02*
X75950000Y-124849000I51000J0D01*
G01*
X77450000Y-124849000D01*
G75*
G02*
X77501000Y-124900000I0J-51000D01*
G01*
G37*
G36*
G01*
X72601000Y-128100000D02*
X72601000Y-129100000D01*
G75*
G02*
X72550000Y-129151000I-51000J0D01*
G01*
X71050000Y-129151000D01*
G75*
G02*
X70999000Y-129100000I0J51000D01*
G01*
X70999000Y-128100000D01*
G75*
G02*
X71050000Y-128049000I51000J0D01*
G01*
X72550000Y-128049000D01*
G75*
G02*
X72601000Y-128100000I0J-51000D01*
G01*
G37*
G36*
G01*
X72601000Y-124900000D02*
X72601000Y-125900000D01*
G75*
G02*
X72550000Y-125951000I-51000J0D01*
G01*
X71050000Y-125951000D01*
G75*
G02*
X70999000Y-125900000I0J51000D01*
G01*
X70999000Y-124900000D01*
G75*
G02*
X71050000Y-124849000I51000J0D01*
G01*
X72550000Y-124849000D01*
G75*
G02*
X72601000Y-124900000I0J-51000D01*
G01*
G37*
G36*
G01*
X48001000Y-128100000D02*
X48001000Y-129100000D01*
G75*
G02*
X47950000Y-129151000I-51000J0D01*
G01*
X46450000Y-129151000D01*
G75*
G02*
X46399000Y-129100000I0J51000D01*
G01*
X46399000Y-128100000D01*
G75*
G02*
X46450000Y-128049000I51000J0D01*
G01*
X47950000Y-128049000D01*
G75*
G02*
X48001000Y-128100000I0J-51000D01*
G01*
G37*
G36*
G01*
X48001000Y-124900000D02*
X48001000Y-125900000D01*
G75*
G02*
X47950000Y-125951000I-51000J0D01*
G01*
X46450000Y-125951000D01*
G75*
G02*
X46399000Y-125900000I0J51000D01*
G01*
X46399000Y-124900000D01*
G75*
G02*
X46450000Y-124849000I51000J0D01*
G01*
X47950000Y-124849000D01*
G75*
G02*
X48001000Y-124900000I0J-51000D01*
G01*
G37*
G36*
G01*
X43101000Y-128100000D02*
X43101000Y-129100000D01*
G75*
G02*
X43050000Y-129151000I-51000J0D01*
G01*
X41550000Y-129151000D01*
G75*
G02*
X41499000Y-129100000I0J51000D01*
G01*
X41499000Y-128100000D01*
G75*
G02*
X41550000Y-128049000I51000J0D01*
G01*
X43050000Y-128049000D01*
G75*
G02*
X43101000Y-128100000I0J-51000D01*
G01*
G37*
G36*
G01*
X43101000Y-124900000D02*
X43101000Y-125900000D01*
G75*
G02*
X43050000Y-125951000I-51000J0D01*
G01*
X41550000Y-125951000D01*
G75*
G02*
X41499000Y-125900000I0J51000D01*
G01*
X41499000Y-124900000D01*
G75*
G02*
X41550000Y-124849000I51000J0D01*
G01*
X43050000Y-124849000D01*
G75*
G02*
X43101000Y-124900000I0J-51000D01*
G01*
G37*
G36*
G01*
X18501000Y-128100000D02*
X18501000Y-129100000D01*
G75*
G02*
X18450000Y-129151000I-51000J0D01*
G01*
X16950000Y-129151000D01*
G75*
G02*
X16899000Y-129100000I0J51000D01*
G01*
X16899000Y-128100000D01*
G75*
G02*
X16950000Y-128049000I51000J0D01*
G01*
X18450000Y-128049000D01*
G75*
G02*
X18501000Y-128100000I0J-51000D01*
G01*
G37*
G36*
G01*
X18501000Y-124900000D02*
X18501000Y-125900000D01*
G75*
G02*
X18450000Y-125951000I-51000J0D01*
G01*
X16950000Y-125951000D01*
G75*
G02*
X16899000Y-125900000I0J51000D01*
G01*
X16899000Y-124900000D01*
G75*
G02*
X16950000Y-124849000I51000J0D01*
G01*
X18450000Y-124849000D01*
G75*
G02*
X18501000Y-124900000I0J-51000D01*
G01*
G37*
G36*
G01*
X13601000Y-128100000D02*
X13601000Y-129100000D01*
G75*
G02*
X13550000Y-129151000I-51000J0D01*
G01*
X12050000Y-129151000D01*
G75*
G02*
X11999000Y-129100000I0J51000D01*
G01*
X11999000Y-128100000D01*
G75*
G02*
X12050000Y-128049000I51000J0D01*
G01*
X13550000Y-128049000D01*
G75*
G02*
X13601000Y-128100000I0J-51000D01*
G01*
G37*
G36*
G01*
X13601000Y-124900000D02*
X13601000Y-125900000D01*
G75*
G02*
X13550000Y-125951000I-51000J0D01*
G01*
X12050000Y-125951000D01*
G75*
G02*
X11999000Y-125900000I0J51000D01*
G01*
X11999000Y-124900000D01*
G75*
G02*
X12050000Y-124849000I51000J0D01*
G01*
X13550000Y-124849000D01*
G75*
G02*
X13601000Y-124900000I0J-51000D01*
G01*
G37*
G36*
G01*
X-10999000Y-128100000D02*
X-10999000Y-129100000D01*
G75*
G02*
X-11050000Y-129151000I-51000J0D01*
G01*
X-12550000Y-129151000D01*
G75*
G02*
X-12601000Y-129100000I0J51000D01*
G01*
X-12601000Y-128100000D01*
G75*
G02*
X-12550000Y-128049000I51000J0D01*
G01*
X-11050000Y-128049000D01*
G75*
G02*
X-10999000Y-128100000I0J-51000D01*
G01*
G37*
G36*
G01*
X-10999000Y-124900000D02*
X-10999000Y-125900000D01*
G75*
G02*
X-11050000Y-125951000I-51000J0D01*
G01*
X-12550000Y-125951000D01*
G75*
G02*
X-12601000Y-125900000I0J51000D01*
G01*
X-12601000Y-124900000D01*
G75*
G02*
X-12550000Y-124849000I51000J0D01*
G01*
X-11050000Y-124849000D01*
G75*
G02*
X-10999000Y-124900000I0J-51000D01*
G01*
G37*
G36*
G01*
X-15899000Y-128100000D02*
X-15899000Y-129100000D01*
G75*
G02*
X-15950000Y-129151000I-51000J0D01*
G01*
X-17450000Y-129151000D01*
G75*
G02*
X-17501000Y-129100000I0J51000D01*
G01*
X-17501000Y-128100000D01*
G75*
G02*
X-17450000Y-128049000I51000J0D01*
G01*
X-15950000Y-128049000D01*
G75*
G02*
X-15899000Y-128100000I0J-51000D01*
G01*
G37*
G36*
G01*
X-15899000Y-124900000D02*
X-15899000Y-125900000D01*
G75*
G02*
X-15950000Y-125951000I-51000J0D01*
G01*
X-17450000Y-125951000D01*
G75*
G02*
X-17501000Y-125900000I0J51000D01*
G01*
X-17501000Y-124900000D01*
G75*
G02*
X-17450000Y-124849000I51000J0D01*
G01*
X-15950000Y-124849000D01*
G75*
G02*
X-15899000Y-124900000I0J-51000D01*
G01*
G37*
G36*
G01*
X-40499000Y-128100000D02*
X-40499000Y-129100000D01*
G75*
G02*
X-40550000Y-129151000I-51000J0D01*
G01*
X-42050000Y-129151000D01*
G75*
G02*
X-42101000Y-129100000I0J51000D01*
G01*
X-42101000Y-128100000D01*
G75*
G02*
X-42050000Y-128049000I51000J0D01*
G01*
X-40550000Y-128049000D01*
G75*
G02*
X-40499000Y-128100000I0J-51000D01*
G01*
G37*
G36*
G01*
X-40499000Y-124900000D02*
X-40499000Y-125900000D01*
G75*
G02*
X-40550000Y-125951000I-51000J0D01*
G01*
X-42050000Y-125951000D01*
G75*
G02*
X-42101000Y-125900000I0J51000D01*
G01*
X-42101000Y-124900000D01*
G75*
G02*
X-42050000Y-124849000I51000J0D01*
G01*
X-40550000Y-124849000D01*
G75*
G02*
X-40499000Y-124900000I0J-51000D01*
G01*
G37*
G36*
G01*
X-45399000Y-128100000D02*
X-45399000Y-129100000D01*
G75*
G02*
X-45450000Y-129151000I-51000J0D01*
G01*
X-46950000Y-129151000D01*
G75*
G02*
X-47001000Y-129100000I0J51000D01*
G01*
X-47001000Y-128100000D01*
G75*
G02*
X-46950000Y-128049000I51000J0D01*
G01*
X-45450000Y-128049000D01*
G75*
G02*
X-45399000Y-128100000I0J-51000D01*
G01*
G37*
G36*
G01*
X-45399000Y-124900000D02*
X-45399000Y-125900000D01*
G75*
G02*
X-45450000Y-125951000I-51000J0D01*
G01*
X-46950000Y-125951000D01*
G75*
G02*
X-47001000Y-125900000I0J51000D01*
G01*
X-47001000Y-124900000D01*
G75*
G02*
X-46950000Y-124849000I51000J0D01*
G01*
X-45450000Y-124849000D01*
G75*
G02*
X-45399000Y-124900000I0J-51000D01*
G01*
G37*
G36*
G01*
X-55249000Y-128100000D02*
X-55249000Y-129100000D01*
G75*
G02*
X-55300000Y-129151000I-51000J0D01*
G01*
X-56800000Y-129151000D01*
G75*
G02*
X-56851000Y-129100000I0J51000D01*
G01*
X-56851000Y-128100000D01*
G75*
G02*
X-56800000Y-128049000I51000J0D01*
G01*
X-55300000Y-128049000D01*
G75*
G02*
X-55249000Y-128100000I0J-51000D01*
G01*
G37*
G36*
G01*
X-55249000Y-124900000D02*
X-55249000Y-125900000D01*
G75*
G02*
X-55300000Y-125951000I-51000J0D01*
G01*
X-56800000Y-125951000D01*
G75*
G02*
X-56851000Y-125900000I0J51000D01*
G01*
X-56851000Y-124900000D01*
G75*
G02*
X-56800000Y-124849000I51000J0D01*
G01*
X-55300000Y-124849000D01*
G75*
G02*
X-55249000Y-124900000I0J-51000D01*
G01*
G37*
G36*
G01*
X-60149000Y-128100000D02*
X-60149000Y-129100000D01*
G75*
G02*
X-60200000Y-129151000I-51000J0D01*
G01*
X-61700000Y-129151000D01*
G75*
G02*
X-61751000Y-129100000I0J51000D01*
G01*
X-61751000Y-128100000D01*
G75*
G02*
X-61700000Y-128049000I51000J0D01*
G01*
X-60200000Y-128049000D01*
G75*
G02*
X-60149000Y-128100000I0J-51000D01*
G01*
G37*
G36*
G01*
X-60149000Y-124900000D02*
X-60149000Y-125900000D01*
G75*
G02*
X-60200000Y-125951000I-51000J0D01*
G01*
X-61700000Y-125951000D01*
G75*
G02*
X-61751000Y-125900000I0J51000D01*
G01*
X-61751000Y-124900000D01*
G75*
G02*
X-61700000Y-124849000I51000J0D01*
G01*
X-60200000Y-124849000D01*
G75*
G02*
X-60149000Y-124900000I0J-51000D01*
G01*
G37*
G36*
G01*
X-69999000Y-128100000D02*
X-69999000Y-129100000D01*
G75*
G02*
X-70050000Y-129151000I-51000J0D01*
G01*
X-71550000Y-129151000D01*
G75*
G02*
X-71601000Y-129100000I0J51000D01*
G01*
X-71601000Y-128100000D01*
G75*
G02*
X-71550000Y-128049000I51000J0D01*
G01*
X-70050000Y-128049000D01*
G75*
G02*
X-69999000Y-128100000I0J-51000D01*
G01*
G37*
G36*
G01*
X-69999000Y-124900000D02*
X-69999000Y-125900000D01*
G75*
G02*
X-70050000Y-125951000I-51000J0D01*
G01*
X-71550000Y-125951000D01*
G75*
G02*
X-71601000Y-125900000I0J51000D01*
G01*
X-71601000Y-124900000D01*
G75*
G02*
X-71550000Y-124849000I51000J0D01*
G01*
X-70050000Y-124849000D01*
G75*
G02*
X-69999000Y-124900000I0J-51000D01*
G01*
G37*
G36*
G01*
X-74899000Y-128100000D02*
X-74899000Y-129100000D01*
G75*
G02*
X-74950000Y-129151000I-51000J0D01*
G01*
X-76450000Y-129151000D01*
G75*
G02*
X-76501000Y-129100000I0J51000D01*
G01*
X-76501000Y-128100000D01*
G75*
G02*
X-76450000Y-128049000I51000J0D01*
G01*
X-74950000Y-128049000D01*
G75*
G02*
X-74899000Y-128100000I0J-51000D01*
G01*
G37*
G36*
G01*
X-74899000Y-124900000D02*
X-74899000Y-125900000D01*
G75*
G02*
X-74950000Y-125951000I-51000J0D01*
G01*
X-76450000Y-125951000D01*
G75*
G02*
X-76501000Y-125900000I0J51000D01*
G01*
X-76501000Y-124900000D01*
G75*
G02*
X-76450000Y-124849000I51000J0D01*
G01*
X-74950000Y-124849000D01*
G75*
G02*
X-74899000Y-124900000I0J-51000D01*
G01*
G37*
G36*
G01*
X89669000Y-141245500D02*
X89669000Y-140694500D01*
G75*
G02*
X89919500Y-140444000I250500J0D01*
G01*
X90420500Y-140444000D01*
G75*
G02*
X90671000Y-140694500I0J-250500D01*
G01*
X90671000Y-141245500D01*
G75*
G02*
X90420500Y-141496000I-250500J0D01*
G01*
X89919500Y-141496000D01*
G75*
G02*
X89669000Y-141245500I0J250500D01*
G01*
G37*
G36*
G01*
X88119000Y-141245500D02*
X88119000Y-140694500D01*
G75*
G02*
X88369500Y-140444000I250500J0D01*
G01*
X88870500Y-140444000D01*
G75*
G02*
X89121000Y-140694500I0J-250500D01*
G01*
X89121000Y-141245500D01*
G75*
G02*
X88870500Y-141496000I-250500J0D01*
G01*
X88369500Y-141496000D01*
G75*
G02*
X88119000Y-141245500I0J250500D01*
G01*
G37*
G36*
G01*
X207779000Y-141245500D02*
X207779000Y-140694500D01*
G75*
G02*
X208029500Y-140444000I250500J0D01*
G01*
X208530500Y-140444000D01*
G75*
G02*
X208781000Y-140694500I0J-250500D01*
G01*
X208781000Y-141245500D01*
G75*
G02*
X208530500Y-141496000I-250500J0D01*
G01*
X208029500Y-141496000D01*
G75*
G02*
X207779000Y-141245500I0J250500D01*
G01*
G37*
G36*
G01*
X206229000Y-141245500D02*
X206229000Y-140694500D01*
G75*
G02*
X206479500Y-140444000I250500J0D01*
G01*
X206980500Y-140444000D01*
G75*
G02*
X207231000Y-140694500I0J-250500D01*
G01*
X207231000Y-141245500D01*
G75*
G02*
X206980500Y-141496000I-250500J0D01*
G01*
X206479500Y-141496000D01*
G75*
G02*
X206229000Y-141245500I0J250500D01*
G01*
G37*
G36*
G01*
X-28441000Y-141245500D02*
X-28441000Y-140694500D01*
G75*
G02*
X-28190500Y-140444000I250500J0D01*
G01*
X-27689500Y-140444000D01*
G75*
G02*
X-27439000Y-140694500I0J-250500D01*
G01*
X-27439000Y-141245500D01*
G75*
G02*
X-27689500Y-141496000I-250500J0D01*
G01*
X-28190500Y-141496000D01*
G75*
G02*
X-28441000Y-141245500I0J250500D01*
G01*
G37*
G36*
G01*
X-29991000Y-141245500D02*
X-29991000Y-140694500D01*
G75*
G02*
X-29740500Y-140444000I250500J0D01*
G01*
X-29239500Y-140444000D01*
G75*
G02*
X-28989000Y-140694500I0J-250500D01*
G01*
X-28989000Y-141245500D01*
G75*
G02*
X-29239500Y-141496000I-250500J0D01*
G01*
X-29740500Y-141496000D01*
G75*
G02*
X-29991000Y-141245500I0J250500D01*
G01*
G37*
G36*
G01*
X208459000Y-143050500D02*
X208459000Y-142699500D01*
G75*
G02*
X208634500Y-142524000I175500J0D01*
G01*
X210335500Y-142524000D01*
G75*
G02*
X210511000Y-142699500I0J-175500D01*
G01*
X210511000Y-143050500D01*
G75*
G02*
X210335500Y-143226000I-175500J0D01*
G01*
X208634500Y-143226000D01*
G75*
G02*
X208459000Y-143050500I0J175500D01*
G01*
G37*
G36*
G01*
X208459000Y-144320500D02*
X208459000Y-143969500D01*
G75*
G02*
X208634500Y-143794000I175500J0D01*
G01*
X210335500Y-143794000D01*
G75*
G02*
X210511000Y-143969500I0J-175500D01*
G01*
X210511000Y-144320500D01*
G75*
G02*
X210335500Y-144496000I-175500J0D01*
G01*
X208634500Y-144496000D01*
G75*
G02*
X208459000Y-144320500I0J175500D01*
G01*
G37*
G36*
G01*
X208459000Y-145590500D02*
X208459000Y-145239500D01*
G75*
G02*
X208634500Y-145064000I175500J0D01*
G01*
X210335500Y-145064000D01*
G75*
G02*
X210511000Y-145239500I0J-175500D01*
G01*
X210511000Y-145590500D01*
G75*
G02*
X210335500Y-145766000I-175500J0D01*
G01*
X208634500Y-145766000D01*
G75*
G02*
X208459000Y-145590500I0J175500D01*
G01*
G37*
G36*
G01*
X208459000Y-146860500D02*
X208459000Y-146509500D01*
G75*
G02*
X208634500Y-146334000I175500J0D01*
G01*
X210335500Y-146334000D01*
G75*
G02*
X210511000Y-146509500I0J-175500D01*
G01*
X210511000Y-146860500D01*
G75*
G02*
X210335500Y-147036000I-175500J0D01*
G01*
X208634500Y-147036000D01*
G75*
G02*
X208459000Y-146860500I0J175500D01*
G01*
G37*
G36*
G01*
X208459000Y-148130500D02*
X208459000Y-147779500D01*
G75*
G02*
X208634500Y-147604000I175500J0D01*
G01*
X210335500Y-147604000D01*
G75*
G02*
X210511000Y-147779500I0J-175500D01*
G01*
X210511000Y-148130500D01*
G75*
G02*
X210335500Y-148306000I-175500J0D01*
G01*
X208634500Y-148306000D01*
G75*
G02*
X208459000Y-148130500I0J175500D01*
G01*
G37*
G36*
G01*
X208459000Y-149400500D02*
X208459000Y-149049500D01*
G75*
G02*
X208634500Y-148874000I175500J0D01*
G01*
X210335500Y-148874000D01*
G75*
G02*
X210511000Y-149049500I0J-175500D01*
G01*
X210511000Y-149400500D01*
G75*
G02*
X210335500Y-149576000I-175500J0D01*
G01*
X208634500Y-149576000D01*
G75*
G02*
X208459000Y-149400500I0J175500D01*
G01*
G37*
G36*
G01*
X208459000Y-150670500D02*
X208459000Y-150319500D01*
G75*
G02*
X208634500Y-150144000I175500J0D01*
G01*
X210335500Y-150144000D01*
G75*
G02*
X210511000Y-150319500I0J-175500D01*
G01*
X210511000Y-150670500D01*
G75*
G02*
X210335500Y-150846000I-175500J0D01*
G01*
X208634500Y-150846000D01*
G75*
G02*
X208459000Y-150670500I0J175500D01*
G01*
G37*
G36*
G01*
X208459000Y-151940500D02*
X208459000Y-151589500D01*
G75*
G02*
X208634500Y-151414000I175500J0D01*
G01*
X210335500Y-151414000D01*
G75*
G02*
X210511000Y-151589500I0J-175500D01*
G01*
X210511000Y-151940500D01*
G75*
G02*
X210335500Y-152116000I-175500J0D01*
G01*
X208634500Y-152116000D01*
G75*
G02*
X208459000Y-151940500I0J175500D01*
G01*
G37*
G36*
G01*
X203509000Y-151940500D02*
X203509000Y-151589500D01*
G75*
G02*
X203684500Y-151414000I175500J0D01*
G01*
X205385500Y-151414000D01*
G75*
G02*
X205561000Y-151589500I0J-175500D01*
G01*
X205561000Y-151940500D01*
G75*
G02*
X205385500Y-152116000I-175500J0D01*
G01*
X203684500Y-152116000D01*
G75*
G02*
X203509000Y-151940500I0J175500D01*
G01*
G37*
G36*
G01*
X203509000Y-150670500D02*
X203509000Y-150319500D01*
G75*
G02*
X203684500Y-150144000I175500J0D01*
G01*
X205385500Y-150144000D01*
G75*
G02*
X205561000Y-150319500I0J-175500D01*
G01*
X205561000Y-150670500D01*
G75*
G02*
X205385500Y-150846000I-175500J0D01*
G01*
X203684500Y-150846000D01*
G75*
G02*
X203509000Y-150670500I0J175500D01*
G01*
G37*
G36*
G01*
X203509000Y-149400500D02*
X203509000Y-149049500D01*
G75*
G02*
X203684500Y-148874000I175500J0D01*
G01*
X205385500Y-148874000D01*
G75*
G02*
X205561000Y-149049500I0J-175500D01*
G01*
X205561000Y-149400500D01*
G75*
G02*
X205385500Y-149576000I-175500J0D01*
G01*
X203684500Y-149576000D01*
G75*
G02*
X203509000Y-149400500I0J175500D01*
G01*
G37*
G36*
G01*
X203509000Y-148130500D02*
X203509000Y-147779500D01*
G75*
G02*
X203684500Y-147604000I175500J0D01*
G01*
X205385500Y-147604000D01*
G75*
G02*
X205561000Y-147779500I0J-175500D01*
G01*
X205561000Y-148130500D01*
G75*
G02*
X205385500Y-148306000I-175500J0D01*
G01*
X203684500Y-148306000D01*
G75*
G02*
X203509000Y-148130500I0J175500D01*
G01*
G37*
G36*
G01*
X203509000Y-146860500D02*
X203509000Y-146509500D01*
G75*
G02*
X203684500Y-146334000I175500J0D01*
G01*
X205385500Y-146334000D01*
G75*
G02*
X205561000Y-146509500I0J-175500D01*
G01*
X205561000Y-146860500D01*
G75*
G02*
X205385500Y-147036000I-175500J0D01*
G01*
X203684500Y-147036000D01*
G75*
G02*
X203509000Y-146860500I0J175500D01*
G01*
G37*
G36*
G01*
X203509000Y-145590500D02*
X203509000Y-145239500D01*
G75*
G02*
X203684500Y-145064000I175500J0D01*
G01*
X205385500Y-145064000D01*
G75*
G02*
X205561000Y-145239500I0J-175500D01*
G01*
X205561000Y-145590500D01*
G75*
G02*
X205385500Y-145766000I-175500J0D01*
G01*
X203684500Y-145766000D01*
G75*
G02*
X203509000Y-145590500I0J175500D01*
G01*
G37*
G36*
G01*
X203509000Y-144320500D02*
X203509000Y-143969500D01*
G75*
G02*
X203684500Y-143794000I175500J0D01*
G01*
X205385500Y-143794000D01*
G75*
G02*
X205561000Y-143969500I0J-175500D01*
G01*
X205561000Y-144320500D01*
G75*
G02*
X205385500Y-144496000I-175500J0D01*
G01*
X203684500Y-144496000D01*
G75*
G02*
X203509000Y-144320500I0J175500D01*
G01*
G37*
G36*
G01*
X203509000Y-143050500D02*
X203509000Y-142699500D01*
G75*
G02*
X203684500Y-142524000I175500J0D01*
G01*
X205385500Y-142524000D01*
G75*
G02*
X205561000Y-142699500I0J-175500D01*
G01*
X205561000Y-143050500D01*
G75*
G02*
X205385500Y-143226000I-175500J0D01*
G01*
X203684500Y-143226000D01*
G75*
G02*
X203509000Y-143050500I0J175500D01*
G01*
G37*
G36*
G01*
X83773500Y-150424000D02*
X84374500Y-150424000D01*
G75*
G02*
X84600000Y-150649500I0J-225500D01*
G01*
X84600000Y-151100500D01*
G75*
G02*
X84374500Y-151326000I-225500J0D01*
G01*
X83773500Y-151326000D01*
G75*
G02*
X83548000Y-151100500I0J225500D01*
G01*
X83548000Y-150649500D01*
G75*
G02*
X83773500Y-150424000I225500J0D01*
G01*
G37*
G36*
G01*
X83773500Y-148774000D02*
X84374500Y-148774000D01*
G75*
G02*
X84600000Y-148999500I0J-225500D01*
G01*
X84600000Y-149450500D01*
G75*
G02*
X84374500Y-149676000I-225500J0D01*
G01*
X83773500Y-149676000D01*
G75*
G02*
X83548000Y-149450500I0J225500D01*
G01*
X83548000Y-148999500D01*
G75*
G02*
X83773500Y-148774000I225500J0D01*
G01*
G37*
G36*
G01*
X201883500Y-150424000D02*
X202484500Y-150424000D01*
G75*
G02*
X202710000Y-150649500I0J-225500D01*
G01*
X202710000Y-151100500D01*
G75*
G02*
X202484500Y-151326000I-225500J0D01*
G01*
X201883500Y-151326000D01*
G75*
G02*
X201658000Y-151100500I0J225500D01*
G01*
X201658000Y-150649500D01*
G75*
G02*
X201883500Y-150424000I225500J0D01*
G01*
G37*
G36*
G01*
X201883500Y-148774000D02*
X202484500Y-148774000D01*
G75*
G02*
X202710000Y-148999500I0J-225500D01*
G01*
X202710000Y-149450500D01*
G75*
G02*
X202484500Y-149676000I-225500J0D01*
G01*
X201883500Y-149676000D01*
G75*
G02*
X201658000Y-149450500I0J225500D01*
G01*
X201658000Y-148999500D01*
G75*
G02*
X201883500Y-148774000I225500J0D01*
G01*
G37*
G36*
G01*
X319993500Y-150424000D02*
X320594500Y-150424000D01*
G75*
G02*
X320820000Y-150649500I0J-225500D01*
G01*
X320820000Y-151100500D01*
G75*
G02*
X320594500Y-151326000I-225500J0D01*
G01*
X319993500Y-151326000D01*
G75*
G02*
X319768000Y-151100500I0J225500D01*
G01*
X319768000Y-150649500D01*
G75*
G02*
X319993500Y-150424000I225500J0D01*
G01*
G37*
G36*
G01*
X319993500Y-148774000D02*
X320594500Y-148774000D01*
G75*
G02*
X320820000Y-148999500I0J-225500D01*
G01*
X320820000Y-149450500D01*
G75*
G02*
X320594500Y-149676000I-225500J0D01*
G01*
X319993500Y-149676000D01*
G75*
G02*
X319768000Y-149450500I0J225500D01*
G01*
X319768000Y-148999500D01*
G75*
G02*
X319993500Y-148774000I225500J0D01*
G01*
G37*
X283000000Y-139000000D03*
X283000000Y-19000000D03*
X193000000Y-139000000D03*
X193000000Y-19000000D03*
X103000000Y-139000000D03*
X103000000Y-19000000D03*
X13000000Y-139000000D03*
X13000000Y-19000000D03*
X383000000Y-135000000D03*
X383000000Y-19000000D03*
X-87000000Y-135000000D03*
D16*
X-68580000Y-147320000D03*
D14*
X-76200000Y-147320000D03*
D16*
X-63500000Y-143510000D03*
D14*
X-71120000Y-143510000D03*
D11*
G36*
X-74949805Y-142197236D02*
G01*
X-74936067Y-142204579D01*
X-74912992Y-142211579D01*
X-74889001Y-142213942D01*
X-74865010Y-142211579D01*
X-74841747Y-142204522D01*
X-74839799Y-142204976D01*
X-74839218Y-142206890D01*
X-74840223Y-142208200D01*
X-74842218Y-142209266D01*
X-74849641Y-142215359D01*
X-74855734Y-142222782D01*
X-74860261Y-142231252D01*
X-74863050Y-142240445D01*
X-74864000Y-142250094D01*
X-74864000Y-143749906D01*
X-74863050Y-143759555D01*
X-74860261Y-143768748D01*
X-74855734Y-143777218D01*
X-74849641Y-143784641D01*
X-74842218Y-143790734D01*
X-74836293Y-143793900D01*
X-74835237Y-143795598D01*
X-74836180Y-143797362D01*
X-74837816Y-143797578D01*
X-74839433Y-143797088D01*
X-74839618Y-143797022D01*
X-74853297Y-143791356D01*
X-74876947Y-143786651D01*
X-74901054Y-143786651D01*
X-74924704Y-143791355D01*
X-74946978Y-143800581D01*
X-74950094Y-143802663D01*
X-74951205Y-143803000D01*
X-75014000Y-143803000D01*
X-75015732Y-143802000D01*
X-75016000Y-143801000D01*
X-75016000Y-142199000D01*
X-75015000Y-142197268D01*
X-75014000Y-142197000D01*
X-74950748Y-142197000D01*
X-74949805Y-142197236D01*
G37*
G36*
X-76114268Y-142198000D02*
G01*
X-76114000Y-142199000D01*
X-76114000Y-143801000D01*
X-76115000Y-143802732D01*
X-76116000Y-143803000D01*
X-76179252Y-143803000D01*
X-76180195Y-143802764D01*
X-76193933Y-143795421D01*
X-76217008Y-143788421D01*
X-76240999Y-143786058D01*
X-76264990Y-143788421D01*
X-76288254Y-143795478D01*
X-76290202Y-143795024D01*
X-76290783Y-143793110D01*
X-76289778Y-143791800D01*
X-76287782Y-143790733D01*
X-76280359Y-143784641D01*
X-76274266Y-143777218D01*
X-76269739Y-143768748D01*
X-76266950Y-143759555D01*
X-76266000Y-143749906D01*
X-76266000Y-142250094D01*
X-76266950Y-142240445D01*
X-76269739Y-142231252D01*
X-76274266Y-142222782D01*
X-76280359Y-142215359D01*
X-76287782Y-142209266D01*
X-76293707Y-142206100D01*
X-76294763Y-142204402D01*
X-76293820Y-142202638D01*
X-76292184Y-142202422D01*
X-76290567Y-142202912D01*
X-76290382Y-142202978D01*
X-76276703Y-142208644D01*
X-76253053Y-142213349D01*
X-76228946Y-142213349D01*
X-76205296Y-142208645D01*
X-76183022Y-142199419D01*
X-76179906Y-142197337D01*
X-76178795Y-142197000D01*
X-76116000Y-142197000D01*
X-76114268Y-142198000D01*
G37*
M02*
