G04 #@! TF.GenerationSoftware,KiCad,Pcbnew,(5.1.7)-1*
G04 #@! TF.CreationDate,2020-11-09T23:38:36-05:00*
G04 #@! TF.ProjectId,OpeNITHM-full,4f70654e-4954-4484-9d2d-66756c6c2e6b,rev?*
G04 #@! TF.SameCoordinates,Original*
G04 #@! TF.FileFunction,Soldermask,Bot*
G04 #@! TF.FilePolarity,Negative*
%FSLAX46Y46*%
G04 Gerber Fmt 4.6, Leading zero omitted, Abs format (unit mm)*
G04 Created by KiCad (PCBNEW (5.1.7)-1) date 2020-11-09 23:38:36*
%MOMM*%
%LPD*%
G01*
G04 APERTURE LIST*
%ADD10O,1.802000X1.802000*%
%ADD11O,1.502000X1.502000*%
%ADD12C,1.502000*%
%ADD13C,1.702000*%
%ADD14C,3.302000*%
%ADD15O,1.702000X1.702000*%
G04 APERTURE END LIST*
D10*
X-88040000Y-147955000D03*
X-85500000Y-147955000D03*
X-88040000Y-145415000D03*
X-85500000Y-145415000D03*
X-88040000Y-142875000D03*
G36*
G01*
X-84599000Y-142025000D02*
X-84599000Y-143725000D01*
G75*
G02*
X-84650000Y-143776000I-51000J0D01*
G01*
X-86350000Y-143776000D01*
G75*
G02*
X-86401000Y-143725000I0J51000D01*
G01*
X-86401000Y-142025000D01*
G75*
G02*
X-86350000Y-141974000I51000J0D01*
G01*
X-84650000Y-141974000D01*
G75*
G02*
X-84599000Y-142025000I0J-51000D01*
G01*
G37*
X384000000Y-155000000D03*
X381460000Y-155000000D03*
X384000000Y-157540000D03*
X381460000Y-157540000D03*
X384000000Y-160080000D03*
X381460000Y-160080000D03*
X384000000Y-162620000D03*
X381460000Y-162620000D03*
X384000000Y-165160000D03*
X381460000Y-165160000D03*
X384000000Y-167700000D03*
X381460000Y-167700000D03*
X384000000Y-170240000D03*
G36*
G01*
X380559000Y-171090000D02*
X380559000Y-169390000D01*
G75*
G02*
X380610000Y-169339000I51000J0D01*
G01*
X382310000Y-169339000D01*
G75*
G02*
X382361000Y-169390000I0J-51000D01*
G01*
X382361000Y-171090000D01*
G75*
G02*
X382310000Y-171141000I-51000J0D01*
G01*
X380610000Y-171141000D01*
G75*
G02*
X380559000Y-171090000I0J51000D01*
G01*
G37*
D11*
X356870000Y-142240000D03*
D12*
X361950000Y-142240000D03*
D11*
X356870000Y-146050000D03*
D12*
X361950000Y-146050000D03*
D11*
X365125000Y-146050000D03*
D12*
X370205000Y-146050000D03*
D11*
X365125000Y-142240000D03*
D12*
X370205000Y-142240000D03*
D11*
X365125000Y-149860000D03*
D12*
X370205000Y-149860000D03*
D11*
X356870000Y-149860000D03*
D12*
X361950000Y-149860000D03*
D10*
X384000000Y-142240000D03*
X381460000Y-142240000D03*
X384000000Y-144780000D03*
X381460000Y-144780000D03*
X384000000Y-147320000D03*
X381460000Y-147320000D03*
X384000000Y-149860000D03*
G36*
G01*
X380559000Y-150710000D02*
X380559000Y-149010000D01*
G75*
G02*
X380610000Y-148959000I51000J0D01*
G01*
X382310000Y-148959000D01*
G75*
G02*
X382361000Y-149010000I0J-51000D01*
G01*
X382361000Y-150710000D01*
G75*
G02*
X382310000Y-150761000I-51000J0D01*
G01*
X380610000Y-150761000D01*
G75*
G02*
X380559000Y-150710000I0J51000D01*
G01*
G37*
G36*
G01*
X-89751000Y-151930000D02*
X-89751000Y-150330000D01*
G75*
G02*
X-89700000Y-150279000I51000J0D01*
G01*
X-88100000Y-150279000D01*
G75*
G02*
X-88049000Y-150330000I0J-51000D01*
G01*
X-88049000Y-151930000D01*
G75*
G02*
X-88100000Y-151981000I-51000J0D01*
G01*
X-89700000Y-151981000D01*
G75*
G02*
X-89751000Y-151930000I0J51000D01*
G01*
G37*
D13*
X-86360000Y-151130000D03*
X-83820000Y-151130000D03*
X-81280000Y-151130000D03*
X-78740000Y-151130000D03*
X-76200000Y-151130000D03*
X-73660000Y-151130000D03*
X-71120000Y-151130000D03*
X-68580000Y-151130000D03*
X-66040000Y-151130000D03*
X-63500000Y-151130000D03*
X-60960000Y-151130000D03*
X-58420000Y-151130000D03*
X-76200000Y-163830000D03*
X-78740000Y-163830000D03*
X-81280000Y-163830000D03*
X-86360000Y-163830000D03*
X-88900000Y-166370000D03*
X-86360000Y-166370000D03*
X-83820000Y-166370000D03*
X-81280000Y-166370000D03*
X-78740000Y-166370000D03*
X-76200000Y-166370000D03*
X-73660000Y-166370000D03*
X-71120000Y-166370000D03*
X-68580000Y-166370000D03*
X-66040000Y-166370000D03*
X-63500000Y-166370000D03*
X-60960000Y-166370000D03*
X-58420000Y-166370000D03*
X-55880000Y-151130000D03*
X-55880000Y-153670000D03*
X-55880000Y-156210000D03*
X-55880000Y-166370000D03*
X-55880000Y-163830000D03*
X-55880000Y-161290000D03*
X-55880000Y-158750000D03*
D14*
X333000000Y-169000000D03*
X283000000Y-169000000D03*
X193000000Y-169000000D03*
X13000000Y-169000000D03*
X103000000Y-169000000D03*
X-37000000Y-169000000D03*
D15*
X-57785000Y-147320000D03*
D13*
X-65405000Y-147320000D03*
D14*
X-87000000Y-19000000D03*
X283000000Y-139000000D03*
X283000000Y-19000000D03*
X193000000Y-139000000D03*
X193000000Y-19000000D03*
X103000000Y-139000000D03*
X103000000Y-19000000D03*
X13000000Y-139000000D03*
X13000000Y-19000000D03*
X383000000Y-135000000D03*
X383000000Y-19000000D03*
X-87000000Y-135000000D03*
D15*
X-68580000Y-147320000D03*
D13*
X-76200000Y-147320000D03*
D15*
X-63500000Y-143510000D03*
D13*
X-71120000Y-143510000D03*
M02*
