M48
; DRILL file {KiCad (5.1.7)-1} date 11/09/20 23:38:40
; FORMAT={-:-/ absolute / inch / decimal}
; #@! TF.CreationDate,2020-11-09T23:38:40-05:00
; #@! TF.GenerationSoftware,Kicad,Pcbnew,(5.1.7)-1
; #@! TF.FileFunction,Plated,1,2,PTH
FMAT,2
INCH
T1C0.0157
T2C0.0276
T3C0.0315
T4C0.0394
T5C0.0433
%
G90
G05
T1
X-3.55Y-4.925
X-3.275Y-5.675
X-2.925Y-5.375
X-2.8839Y-4.6654
X-2.725Y-5.3
X-2.3425Y-2.874
X-2.075Y-5.875
X-1.9Y-6.05
X-1.775Y-6.8
X-1.7224Y-4.6654
X-1.6Y-6.125
X-1.55Y-5.825
X-1.5Y-5.9
X-1.5Y-5.95
X-1.5Y-6.0
X-1.375Y-5.75
X-1.375Y-5.8
X-1.35Y-5.625
X-1.35Y-5.675
X-1.25Y-5.5
X-1.1811Y-2.874
X-1.175Y-5.75
X-1.125Y-5.9
X-1.125Y-5.95
X-1.125Y-6.0
X-1.05Y-5.325
X-0.95Y-5.675
X-0.95Y-5.725
X-0.95Y-5.775
X-0.95Y-5.825
X-0.75Y-5.9
X-0.561Y-4.6654
X-0.0197Y-2.874
X0.6004Y-4.6654
X1.0Y-5.3
X1.1417Y-2.874
X1.5Y-4.875
X1.5Y-5.9
X1.7618Y-4.6654
X1.925Y-5.3
X2.3031Y-2.874
X2.9232Y-4.6654
X3.05Y-6.125
X3.1Y-5.825
X3.15Y-5.9
X3.15Y-5.95
X3.15Y-6.0
X3.275Y-5.75
X3.275Y-5.8
X3.3Y-5.625
X3.3Y-5.675
X3.4Y-5.5
X3.4646Y-2.874
X3.475Y-5.75
X3.525Y-5.9
X3.525Y-5.95
X3.525Y-6.0
X3.6Y-5.325
X3.7Y-5.675
X3.7Y-5.725
X3.7Y-5.775
X3.7Y-5.825
X3.9Y-5.9
X4.0846Y-4.6654
X4.626Y-2.874
X5.2461Y-4.6654
X5.65Y-5.3
X5.7874Y-2.874
X6.125Y-4.875
X6.125Y-5.9
X6.4075Y-4.6654
X6.575Y-5.3
X6.9488Y-2.874
X7.5689Y-4.6654
X7.675Y-6.125
X7.75Y-5.825
X7.8Y-5.9
X7.8Y-5.95
X7.8Y-6.0
X7.925Y-5.75
X7.925Y-5.8
X7.95Y-5.625
X7.95Y-5.675
X8.05Y-5.5
X8.1102Y-2.874
X8.125Y-5.75
X8.175Y-5.9
X8.175Y-5.95
X8.175Y-6.0
X8.25Y-5.325
X8.35Y-5.675
X8.35Y-5.725
X8.35Y-5.775
X8.35Y-5.825
X8.55Y-5.9
X8.7303Y-4.6654
X9.2717Y-2.874
X9.8917Y-4.6654
X10.3Y-5.3
X10.4331Y-2.874
X10.775Y-4.875
X10.775Y-5.9
X11.0531Y-4.6654
X11.225Y-5.3
X11.5945Y-2.874
X12.2146Y-4.6654
X12.35Y-6.125
X12.4Y-5.825
X12.45Y-5.9
X12.45Y-5.95
X12.45Y-6.0
X12.575Y-5.75
X12.575Y-5.8
X12.6Y-5.625
X12.6Y-5.675
X12.7Y-5.5
X12.7559Y-2.874
X12.775Y-5.75
X12.825Y-5.9
X12.825Y-5.95
X12.825Y-6.0
X12.9Y-5.325
X13.0Y-5.675
X13.0Y-5.725
X13.0Y-5.775
X13.0Y-5.825
X13.2Y-5.9
X13.25Y-5.4
X13.376Y-4.6654
X13.575Y-5.975
X13.625Y-6.0
X13.675Y-6.025
X13.725Y-6.05
X13.775Y-6.075
X13.825Y-6.1
X13.9173Y-2.874
X14.225Y-6.125
X14.5374Y-4.6654
X15.0Y-4.9
X15.0787Y-2.874
T2
X14.05Y-5.9
X14.25Y-5.9
X14.375Y-5.6
X14.575Y-5.6
X14.375Y-5.75
X14.575Y-5.75
X14.375Y-5.9
X14.575Y-5.9
X14.05Y-5.6
X14.25Y-5.6
X14.05Y-5.75
X14.25Y-5.75
T3
X-2.8Y-5.65
X-2.5Y-5.65
X-2.575Y-5.8
X-2.275Y-5.8
X-3.0Y-5.8
X-2.7Y-5.8
T4
X15.0181Y-5.6
X15.0181Y-5.7
X15.0181Y-5.8
X15.0181Y-5.9
X15.1181Y-5.6
X15.1181Y-5.7
X15.1181Y-5.8
X15.1181Y-5.9
X15.0181Y-6.1024
X15.0181Y-6.2024
X15.0181Y-6.3024
X15.0181Y-6.4024
X15.0181Y-6.5024
X15.0181Y-6.6024
X15.0181Y-6.7024
X15.1181Y-6.1024
X15.1181Y-6.2024
X15.1181Y-6.3024
X15.1181Y-6.4024
X15.1181Y-6.5024
X15.1181Y-6.6024
X15.1181Y-6.7024
X-3.4661Y-5.625
X-3.4661Y-5.725
X-3.4661Y-5.825
X-3.3661Y-5.625
X-3.3661Y-5.725
X-3.3661Y-5.825
T5
X-3.5Y-5.95
X-3.5Y-6.55
X-3.4Y-5.95
X-3.4Y-6.45
X-3.4Y-6.55
X-3.3Y-5.95
X-3.3Y-6.55
X-3.2Y-5.95
X-3.2Y-6.45
X-3.2Y-6.55
X-3.1Y-5.95
X-3.1Y-6.45
X-3.1Y-6.55
X-3.0Y-5.95
X-3.0Y-6.45
X-3.0Y-6.55
X-2.9Y-5.95
X-2.9Y-6.55
X-2.8Y-5.95
X-2.8Y-6.55
X-2.7Y-5.95
X-2.7Y-6.55
X-2.6Y-5.95
X-2.6Y-6.55
X-2.5Y-5.95
X-2.5Y-6.55
X-2.4Y-5.95
X-2.4Y-6.55
X-2.3Y-5.95
X-2.3Y-6.55
X-2.2Y-5.95
X-2.2Y-6.05
X-2.2Y-6.15
X-2.2Y-6.25
X-2.2Y-6.35
X-2.2Y-6.45
X-2.2Y-6.55
T0
M30
