G04 #@! TF.GenerationSoftware,KiCad,Pcbnew,(5.1.7)-1*
G04 #@! TF.CreationDate,2020-11-09T23:38:36-05:00*
G04 #@! TF.ProjectId,OpeNITHM-full,4f70654e-4954-4484-9d2d-66756c6c2e6b,rev?*
G04 #@! TF.SameCoordinates,Original*
G04 #@! TF.FileFunction,Paste,Top*
G04 #@! TF.FilePolarity,Positive*
%FSLAX46Y46*%
G04 Gerber Fmt 4.6, Leading zero omitted, Abs format (unit mm)*
G04 Created by KiCad (PCBNEW (5.1.7)-1) date 2020-11-09 23:38:36*
%MOMM*%
%LPD*%
G01*
G04 APERTURE LIST*
%ADD10R,1.500000X1.000000*%
G04 APERTURE END LIST*
G36*
G01*
X326620000Y-143025000D02*
X326620000Y-142725000D01*
G75*
G02*
X326770000Y-142575000I150000J0D01*
G01*
X328420000Y-142575000D01*
G75*
G02*
X328570000Y-142725000I0J-150000D01*
G01*
X328570000Y-143025000D01*
G75*
G02*
X328420000Y-143175000I-150000J0D01*
G01*
X326770000Y-143175000D01*
G75*
G02*
X326620000Y-143025000I0J150000D01*
G01*
G37*
G36*
G01*
X326620000Y-144295000D02*
X326620000Y-143995000D01*
G75*
G02*
X326770000Y-143845000I150000J0D01*
G01*
X328420000Y-143845000D01*
G75*
G02*
X328570000Y-143995000I0J-150000D01*
G01*
X328570000Y-144295000D01*
G75*
G02*
X328420000Y-144445000I-150000J0D01*
G01*
X326770000Y-144445000D01*
G75*
G02*
X326620000Y-144295000I0J150000D01*
G01*
G37*
G36*
G01*
X326620000Y-145565000D02*
X326620000Y-145265000D01*
G75*
G02*
X326770000Y-145115000I150000J0D01*
G01*
X328420000Y-145115000D01*
G75*
G02*
X328570000Y-145265000I0J-150000D01*
G01*
X328570000Y-145565000D01*
G75*
G02*
X328420000Y-145715000I-150000J0D01*
G01*
X326770000Y-145715000D01*
G75*
G02*
X326620000Y-145565000I0J150000D01*
G01*
G37*
G36*
G01*
X326620000Y-146835000D02*
X326620000Y-146535000D01*
G75*
G02*
X326770000Y-146385000I150000J0D01*
G01*
X328420000Y-146385000D01*
G75*
G02*
X328570000Y-146535000I0J-150000D01*
G01*
X328570000Y-146835000D01*
G75*
G02*
X328420000Y-146985000I-150000J0D01*
G01*
X326770000Y-146985000D01*
G75*
G02*
X326620000Y-146835000I0J150000D01*
G01*
G37*
G36*
G01*
X326620000Y-148105000D02*
X326620000Y-147805000D01*
G75*
G02*
X326770000Y-147655000I150000J0D01*
G01*
X328420000Y-147655000D01*
G75*
G02*
X328570000Y-147805000I0J-150000D01*
G01*
X328570000Y-148105000D01*
G75*
G02*
X328420000Y-148255000I-150000J0D01*
G01*
X326770000Y-148255000D01*
G75*
G02*
X326620000Y-148105000I0J150000D01*
G01*
G37*
G36*
G01*
X326620000Y-149375000D02*
X326620000Y-149075000D01*
G75*
G02*
X326770000Y-148925000I150000J0D01*
G01*
X328420000Y-148925000D01*
G75*
G02*
X328570000Y-149075000I0J-150000D01*
G01*
X328570000Y-149375000D01*
G75*
G02*
X328420000Y-149525000I-150000J0D01*
G01*
X326770000Y-149525000D01*
G75*
G02*
X326620000Y-149375000I0J150000D01*
G01*
G37*
G36*
G01*
X326620000Y-150645000D02*
X326620000Y-150345000D01*
G75*
G02*
X326770000Y-150195000I150000J0D01*
G01*
X328420000Y-150195000D01*
G75*
G02*
X328570000Y-150345000I0J-150000D01*
G01*
X328570000Y-150645000D01*
G75*
G02*
X328420000Y-150795000I-150000J0D01*
G01*
X326770000Y-150795000D01*
G75*
G02*
X326620000Y-150645000I0J150000D01*
G01*
G37*
G36*
G01*
X326620000Y-151915000D02*
X326620000Y-151615000D01*
G75*
G02*
X326770000Y-151465000I150000J0D01*
G01*
X328420000Y-151465000D01*
G75*
G02*
X328570000Y-151615000I0J-150000D01*
G01*
X328570000Y-151915000D01*
G75*
G02*
X328420000Y-152065000I-150000J0D01*
G01*
X326770000Y-152065000D01*
G75*
G02*
X326620000Y-151915000I0J150000D01*
G01*
G37*
G36*
G01*
X321670000Y-151915000D02*
X321670000Y-151615000D01*
G75*
G02*
X321820000Y-151465000I150000J0D01*
G01*
X323470000Y-151465000D01*
G75*
G02*
X323620000Y-151615000I0J-150000D01*
G01*
X323620000Y-151915000D01*
G75*
G02*
X323470000Y-152065000I-150000J0D01*
G01*
X321820000Y-152065000D01*
G75*
G02*
X321670000Y-151915000I0J150000D01*
G01*
G37*
G36*
G01*
X321670000Y-150645000D02*
X321670000Y-150345000D01*
G75*
G02*
X321820000Y-150195000I150000J0D01*
G01*
X323470000Y-150195000D01*
G75*
G02*
X323620000Y-150345000I0J-150000D01*
G01*
X323620000Y-150645000D01*
G75*
G02*
X323470000Y-150795000I-150000J0D01*
G01*
X321820000Y-150795000D01*
G75*
G02*
X321670000Y-150645000I0J150000D01*
G01*
G37*
G36*
G01*
X321670000Y-149375000D02*
X321670000Y-149075000D01*
G75*
G02*
X321820000Y-148925000I150000J0D01*
G01*
X323470000Y-148925000D01*
G75*
G02*
X323620000Y-149075000I0J-150000D01*
G01*
X323620000Y-149375000D01*
G75*
G02*
X323470000Y-149525000I-150000J0D01*
G01*
X321820000Y-149525000D01*
G75*
G02*
X321670000Y-149375000I0J150000D01*
G01*
G37*
G36*
G01*
X321670000Y-148105000D02*
X321670000Y-147805000D01*
G75*
G02*
X321820000Y-147655000I150000J0D01*
G01*
X323470000Y-147655000D01*
G75*
G02*
X323620000Y-147805000I0J-150000D01*
G01*
X323620000Y-148105000D01*
G75*
G02*
X323470000Y-148255000I-150000J0D01*
G01*
X321820000Y-148255000D01*
G75*
G02*
X321670000Y-148105000I0J150000D01*
G01*
G37*
G36*
G01*
X321670000Y-146835000D02*
X321670000Y-146535000D01*
G75*
G02*
X321820000Y-146385000I150000J0D01*
G01*
X323470000Y-146385000D01*
G75*
G02*
X323620000Y-146535000I0J-150000D01*
G01*
X323620000Y-146835000D01*
G75*
G02*
X323470000Y-146985000I-150000J0D01*
G01*
X321820000Y-146985000D01*
G75*
G02*
X321670000Y-146835000I0J150000D01*
G01*
G37*
G36*
G01*
X321670000Y-145565000D02*
X321670000Y-145265000D01*
G75*
G02*
X321820000Y-145115000I150000J0D01*
G01*
X323470000Y-145115000D01*
G75*
G02*
X323620000Y-145265000I0J-150000D01*
G01*
X323620000Y-145565000D01*
G75*
G02*
X323470000Y-145715000I-150000J0D01*
G01*
X321820000Y-145715000D01*
G75*
G02*
X321670000Y-145565000I0J150000D01*
G01*
G37*
G36*
G01*
X321670000Y-144295000D02*
X321670000Y-143995000D01*
G75*
G02*
X321820000Y-143845000I150000J0D01*
G01*
X323470000Y-143845000D01*
G75*
G02*
X323620000Y-143995000I0J-150000D01*
G01*
X323620000Y-144295000D01*
G75*
G02*
X323470000Y-144445000I-150000J0D01*
G01*
X321820000Y-144445000D01*
G75*
G02*
X321670000Y-144295000I0J150000D01*
G01*
G37*
G36*
G01*
X321670000Y-143025000D02*
X321670000Y-142725000D01*
G75*
G02*
X321820000Y-142575000I150000J0D01*
G01*
X323470000Y-142575000D01*
G75*
G02*
X323620000Y-142725000I0J-150000D01*
G01*
X323620000Y-143025000D01*
G75*
G02*
X323470000Y-143175000I-150000J0D01*
G01*
X321820000Y-143175000D01*
G75*
G02*
X321670000Y-143025000I0J150000D01*
G01*
G37*
G36*
G01*
X-57425000Y-131000000D02*
X-57425000Y-130500000D01*
G75*
G02*
X-57200000Y-130275000I225000J0D01*
G01*
X-56750000Y-130275000D01*
G75*
G02*
X-56525000Y-130500000I0J-225000D01*
G01*
X-56525000Y-131000000D01*
G75*
G02*
X-56750000Y-131225000I-225000J0D01*
G01*
X-57200000Y-131225000D01*
G75*
G02*
X-57425000Y-131000000I0J225000D01*
G01*
G37*
G36*
G01*
X-58975000Y-131000000D02*
X-58975000Y-130500000D01*
G75*
G02*
X-58750000Y-130275000I225000J0D01*
G01*
X-58300000Y-130275000D01*
G75*
G02*
X-58075000Y-130500000I0J-225000D01*
G01*
X-58075000Y-131000000D01*
G75*
G02*
X-58300000Y-131225000I-225000J0D01*
G01*
X-58750000Y-131225000D01*
G75*
G02*
X-58975000Y-131000000I0J225000D01*
G01*
G37*
G36*
G01*
X90400000Y-143025000D02*
X90400000Y-142725000D01*
G75*
G02*
X90550000Y-142575000I150000J0D01*
G01*
X92200000Y-142575000D01*
G75*
G02*
X92350000Y-142725000I0J-150000D01*
G01*
X92350000Y-143025000D01*
G75*
G02*
X92200000Y-143175000I-150000J0D01*
G01*
X90550000Y-143175000D01*
G75*
G02*
X90400000Y-143025000I0J150000D01*
G01*
G37*
G36*
G01*
X90400000Y-144295000D02*
X90400000Y-143995000D01*
G75*
G02*
X90550000Y-143845000I150000J0D01*
G01*
X92200000Y-143845000D01*
G75*
G02*
X92350000Y-143995000I0J-150000D01*
G01*
X92350000Y-144295000D01*
G75*
G02*
X92200000Y-144445000I-150000J0D01*
G01*
X90550000Y-144445000D01*
G75*
G02*
X90400000Y-144295000I0J150000D01*
G01*
G37*
G36*
G01*
X90400000Y-145565000D02*
X90400000Y-145265000D01*
G75*
G02*
X90550000Y-145115000I150000J0D01*
G01*
X92200000Y-145115000D01*
G75*
G02*
X92350000Y-145265000I0J-150000D01*
G01*
X92350000Y-145565000D01*
G75*
G02*
X92200000Y-145715000I-150000J0D01*
G01*
X90550000Y-145715000D01*
G75*
G02*
X90400000Y-145565000I0J150000D01*
G01*
G37*
G36*
G01*
X90400000Y-146835000D02*
X90400000Y-146535000D01*
G75*
G02*
X90550000Y-146385000I150000J0D01*
G01*
X92200000Y-146385000D01*
G75*
G02*
X92350000Y-146535000I0J-150000D01*
G01*
X92350000Y-146835000D01*
G75*
G02*
X92200000Y-146985000I-150000J0D01*
G01*
X90550000Y-146985000D01*
G75*
G02*
X90400000Y-146835000I0J150000D01*
G01*
G37*
G36*
G01*
X90400000Y-148105000D02*
X90400000Y-147805000D01*
G75*
G02*
X90550000Y-147655000I150000J0D01*
G01*
X92200000Y-147655000D01*
G75*
G02*
X92350000Y-147805000I0J-150000D01*
G01*
X92350000Y-148105000D01*
G75*
G02*
X92200000Y-148255000I-150000J0D01*
G01*
X90550000Y-148255000D01*
G75*
G02*
X90400000Y-148105000I0J150000D01*
G01*
G37*
G36*
G01*
X90400000Y-149375000D02*
X90400000Y-149075000D01*
G75*
G02*
X90550000Y-148925000I150000J0D01*
G01*
X92200000Y-148925000D01*
G75*
G02*
X92350000Y-149075000I0J-150000D01*
G01*
X92350000Y-149375000D01*
G75*
G02*
X92200000Y-149525000I-150000J0D01*
G01*
X90550000Y-149525000D01*
G75*
G02*
X90400000Y-149375000I0J150000D01*
G01*
G37*
G36*
G01*
X90400000Y-150645000D02*
X90400000Y-150345000D01*
G75*
G02*
X90550000Y-150195000I150000J0D01*
G01*
X92200000Y-150195000D01*
G75*
G02*
X92350000Y-150345000I0J-150000D01*
G01*
X92350000Y-150645000D01*
G75*
G02*
X92200000Y-150795000I-150000J0D01*
G01*
X90550000Y-150795000D01*
G75*
G02*
X90400000Y-150645000I0J150000D01*
G01*
G37*
G36*
G01*
X90400000Y-151915000D02*
X90400000Y-151615000D01*
G75*
G02*
X90550000Y-151465000I150000J0D01*
G01*
X92200000Y-151465000D01*
G75*
G02*
X92350000Y-151615000I0J-150000D01*
G01*
X92350000Y-151915000D01*
G75*
G02*
X92200000Y-152065000I-150000J0D01*
G01*
X90550000Y-152065000D01*
G75*
G02*
X90400000Y-151915000I0J150000D01*
G01*
G37*
G36*
G01*
X85450000Y-151915000D02*
X85450000Y-151615000D01*
G75*
G02*
X85600000Y-151465000I150000J0D01*
G01*
X87250000Y-151465000D01*
G75*
G02*
X87400000Y-151615000I0J-150000D01*
G01*
X87400000Y-151915000D01*
G75*
G02*
X87250000Y-152065000I-150000J0D01*
G01*
X85600000Y-152065000D01*
G75*
G02*
X85450000Y-151915000I0J150000D01*
G01*
G37*
G36*
G01*
X85450000Y-150645000D02*
X85450000Y-150345000D01*
G75*
G02*
X85600000Y-150195000I150000J0D01*
G01*
X87250000Y-150195000D01*
G75*
G02*
X87400000Y-150345000I0J-150000D01*
G01*
X87400000Y-150645000D01*
G75*
G02*
X87250000Y-150795000I-150000J0D01*
G01*
X85600000Y-150795000D01*
G75*
G02*
X85450000Y-150645000I0J150000D01*
G01*
G37*
G36*
G01*
X85450000Y-149375000D02*
X85450000Y-149075000D01*
G75*
G02*
X85600000Y-148925000I150000J0D01*
G01*
X87250000Y-148925000D01*
G75*
G02*
X87400000Y-149075000I0J-150000D01*
G01*
X87400000Y-149375000D01*
G75*
G02*
X87250000Y-149525000I-150000J0D01*
G01*
X85600000Y-149525000D01*
G75*
G02*
X85450000Y-149375000I0J150000D01*
G01*
G37*
G36*
G01*
X85450000Y-148105000D02*
X85450000Y-147805000D01*
G75*
G02*
X85600000Y-147655000I150000J0D01*
G01*
X87250000Y-147655000D01*
G75*
G02*
X87400000Y-147805000I0J-150000D01*
G01*
X87400000Y-148105000D01*
G75*
G02*
X87250000Y-148255000I-150000J0D01*
G01*
X85600000Y-148255000D01*
G75*
G02*
X85450000Y-148105000I0J150000D01*
G01*
G37*
G36*
G01*
X85450000Y-146835000D02*
X85450000Y-146535000D01*
G75*
G02*
X85600000Y-146385000I150000J0D01*
G01*
X87250000Y-146385000D01*
G75*
G02*
X87400000Y-146535000I0J-150000D01*
G01*
X87400000Y-146835000D01*
G75*
G02*
X87250000Y-146985000I-150000J0D01*
G01*
X85600000Y-146985000D01*
G75*
G02*
X85450000Y-146835000I0J150000D01*
G01*
G37*
G36*
G01*
X85450000Y-145565000D02*
X85450000Y-145265000D01*
G75*
G02*
X85600000Y-145115000I150000J0D01*
G01*
X87250000Y-145115000D01*
G75*
G02*
X87400000Y-145265000I0J-150000D01*
G01*
X87400000Y-145565000D01*
G75*
G02*
X87250000Y-145715000I-150000J0D01*
G01*
X85600000Y-145715000D01*
G75*
G02*
X85450000Y-145565000I0J150000D01*
G01*
G37*
G36*
G01*
X85450000Y-144295000D02*
X85450000Y-143995000D01*
G75*
G02*
X85600000Y-143845000I150000J0D01*
G01*
X87250000Y-143845000D01*
G75*
G02*
X87400000Y-143995000I0J-150000D01*
G01*
X87400000Y-144295000D01*
G75*
G02*
X87250000Y-144445000I-150000J0D01*
G01*
X85600000Y-144445000D01*
G75*
G02*
X85450000Y-144295000I0J150000D01*
G01*
G37*
G36*
G01*
X85450000Y-143025000D02*
X85450000Y-142725000D01*
G75*
G02*
X85600000Y-142575000I150000J0D01*
G01*
X87250000Y-142575000D01*
G75*
G02*
X87400000Y-142725000I0J-150000D01*
G01*
X87400000Y-143025000D01*
G75*
G02*
X87250000Y-143175000I-150000J0D01*
G01*
X85600000Y-143175000D01*
G75*
G02*
X85450000Y-143025000I0J150000D01*
G01*
G37*
G36*
G01*
X325940000Y-141220000D02*
X325940000Y-140720000D01*
G75*
G02*
X326165000Y-140495000I225000J0D01*
G01*
X326615000Y-140495000D01*
G75*
G02*
X326840000Y-140720000I0J-225000D01*
G01*
X326840000Y-141220000D01*
G75*
G02*
X326615000Y-141445000I-225000J0D01*
G01*
X326165000Y-141445000D01*
G75*
G02*
X325940000Y-141220000I0J225000D01*
G01*
G37*
G36*
G01*
X324390000Y-141220000D02*
X324390000Y-140720000D01*
G75*
G02*
X324615000Y-140495000I225000J0D01*
G01*
X325065000Y-140495000D01*
G75*
G02*
X325290000Y-140720000I0J-225000D01*
G01*
X325290000Y-141220000D01*
G75*
G02*
X325065000Y-141445000I-225000J0D01*
G01*
X324615000Y-141445000D01*
G75*
G02*
X324390000Y-141220000I0J225000D01*
G01*
G37*
G36*
G01*
X-34311000Y-150475000D02*
X-33761000Y-150475000D01*
G75*
G02*
X-33561000Y-150675000I0J-200000D01*
G01*
X-33561000Y-151075000D01*
G75*
G02*
X-33761000Y-151275000I-200000J0D01*
G01*
X-34311000Y-151275000D01*
G75*
G02*
X-34511000Y-151075000I0J200000D01*
G01*
X-34511000Y-150675000D01*
G75*
G02*
X-34311000Y-150475000I200000J0D01*
G01*
G37*
G36*
G01*
X-34311000Y-148825000D02*
X-33761000Y-148825000D01*
G75*
G02*
X-33561000Y-149025000I0J-200000D01*
G01*
X-33561000Y-149425000D01*
G75*
G02*
X-33761000Y-149625000I-200000J0D01*
G01*
X-34311000Y-149625000D01*
G75*
G02*
X-34511000Y-149425000I0J200000D01*
G01*
X-34511000Y-149025000D01*
G75*
G02*
X-34311000Y-148825000I200000J0D01*
G01*
G37*
G36*
G01*
X-27710000Y-143025000D02*
X-27710000Y-142725000D01*
G75*
G02*
X-27560000Y-142575000I150000J0D01*
G01*
X-25910000Y-142575000D01*
G75*
G02*
X-25760000Y-142725000I0J-150000D01*
G01*
X-25760000Y-143025000D01*
G75*
G02*
X-25910000Y-143175000I-150000J0D01*
G01*
X-27560000Y-143175000D01*
G75*
G02*
X-27710000Y-143025000I0J150000D01*
G01*
G37*
G36*
G01*
X-27710000Y-144295000D02*
X-27710000Y-143995000D01*
G75*
G02*
X-27560000Y-143845000I150000J0D01*
G01*
X-25910000Y-143845000D01*
G75*
G02*
X-25760000Y-143995000I0J-150000D01*
G01*
X-25760000Y-144295000D01*
G75*
G02*
X-25910000Y-144445000I-150000J0D01*
G01*
X-27560000Y-144445000D01*
G75*
G02*
X-27710000Y-144295000I0J150000D01*
G01*
G37*
G36*
G01*
X-27710000Y-145565000D02*
X-27710000Y-145265000D01*
G75*
G02*
X-27560000Y-145115000I150000J0D01*
G01*
X-25910000Y-145115000D01*
G75*
G02*
X-25760000Y-145265000I0J-150000D01*
G01*
X-25760000Y-145565000D01*
G75*
G02*
X-25910000Y-145715000I-150000J0D01*
G01*
X-27560000Y-145715000D01*
G75*
G02*
X-27710000Y-145565000I0J150000D01*
G01*
G37*
G36*
G01*
X-27710000Y-146835000D02*
X-27710000Y-146535000D01*
G75*
G02*
X-27560000Y-146385000I150000J0D01*
G01*
X-25910000Y-146385000D01*
G75*
G02*
X-25760000Y-146535000I0J-150000D01*
G01*
X-25760000Y-146835000D01*
G75*
G02*
X-25910000Y-146985000I-150000J0D01*
G01*
X-27560000Y-146985000D01*
G75*
G02*
X-27710000Y-146835000I0J150000D01*
G01*
G37*
G36*
G01*
X-27710000Y-148105000D02*
X-27710000Y-147805000D01*
G75*
G02*
X-27560000Y-147655000I150000J0D01*
G01*
X-25910000Y-147655000D01*
G75*
G02*
X-25760000Y-147805000I0J-150000D01*
G01*
X-25760000Y-148105000D01*
G75*
G02*
X-25910000Y-148255000I-150000J0D01*
G01*
X-27560000Y-148255000D01*
G75*
G02*
X-27710000Y-148105000I0J150000D01*
G01*
G37*
G36*
G01*
X-27710000Y-149375000D02*
X-27710000Y-149075000D01*
G75*
G02*
X-27560000Y-148925000I150000J0D01*
G01*
X-25910000Y-148925000D01*
G75*
G02*
X-25760000Y-149075000I0J-150000D01*
G01*
X-25760000Y-149375000D01*
G75*
G02*
X-25910000Y-149525000I-150000J0D01*
G01*
X-27560000Y-149525000D01*
G75*
G02*
X-27710000Y-149375000I0J150000D01*
G01*
G37*
G36*
G01*
X-27710000Y-150645000D02*
X-27710000Y-150345000D01*
G75*
G02*
X-27560000Y-150195000I150000J0D01*
G01*
X-25910000Y-150195000D01*
G75*
G02*
X-25760000Y-150345000I0J-150000D01*
G01*
X-25760000Y-150645000D01*
G75*
G02*
X-25910000Y-150795000I-150000J0D01*
G01*
X-27560000Y-150795000D01*
G75*
G02*
X-27710000Y-150645000I0J150000D01*
G01*
G37*
G36*
G01*
X-27710000Y-151915000D02*
X-27710000Y-151615000D01*
G75*
G02*
X-27560000Y-151465000I150000J0D01*
G01*
X-25910000Y-151465000D01*
G75*
G02*
X-25760000Y-151615000I0J-150000D01*
G01*
X-25760000Y-151915000D01*
G75*
G02*
X-25910000Y-152065000I-150000J0D01*
G01*
X-27560000Y-152065000D01*
G75*
G02*
X-27710000Y-151915000I0J150000D01*
G01*
G37*
G36*
G01*
X-32660000Y-151915000D02*
X-32660000Y-151615000D01*
G75*
G02*
X-32510000Y-151465000I150000J0D01*
G01*
X-30860000Y-151465000D01*
G75*
G02*
X-30710000Y-151615000I0J-150000D01*
G01*
X-30710000Y-151915000D01*
G75*
G02*
X-30860000Y-152065000I-150000J0D01*
G01*
X-32510000Y-152065000D01*
G75*
G02*
X-32660000Y-151915000I0J150000D01*
G01*
G37*
G36*
G01*
X-32660000Y-150645000D02*
X-32660000Y-150345000D01*
G75*
G02*
X-32510000Y-150195000I150000J0D01*
G01*
X-30860000Y-150195000D01*
G75*
G02*
X-30710000Y-150345000I0J-150000D01*
G01*
X-30710000Y-150645000D01*
G75*
G02*
X-30860000Y-150795000I-150000J0D01*
G01*
X-32510000Y-150795000D01*
G75*
G02*
X-32660000Y-150645000I0J150000D01*
G01*
G37*
G36*
G01*
X-32660000Y-149375000D02*
X-32660000Y-149075000D01*
G75*
G02*
X-32510000Y-148925000I150000J0D01*
G01*
X-30860000Y-148925000D01*
G75*
G02*
X-30710000Y-149075000I0J-150000D01*
G01*
X-30710000Y-149375000D01*
G75*
G02*
X-30860000Y-149525000I-150000J0D01*
G01*
X-32510000Y-149525000D01*
G75*
G02*
X-32660000Y-149375000I0J150000D01*
G01*
G37*
G36*
G01*
X-32660000Y-148105000D02*
X-32660000Y-147805000D01*
G75*
G02*
X-32510000Y-147655000I150000J0D01*
G01*
X-30860000Y-147655000D01*
G75*
G02*
X-30710000Y-147805000I0J-150000D01*
G01*
X-30710000Y-148105000D01*
G75*
G02*
X-30860000Y-148255000I-150000J0D01*
G01*
X-32510000Y-148255000D01*
G75*
G02*
X-32660000Y-148105000I0J150000D01*
G01*
G37*
G36*
G01*
X-32660000Y-146835000D02*
X-32660000Y-146535000D01*
G75*
G02*
X-32510000Y-146385000I150000J0D01*
G01*
X-30860000Y-146385000D01*
G75*
G02*
X-30710000Y-146535000I0J-150000D01*
G01*
X-30710000Y-146835000D01*
G75*
G02*
X-30860000Y-146985000I-150000J0D01*
G01*
X-32510000Y-146985000D01*
G75*
G02*
X-32660000Y-146835000I0J150000D01*
G01*
G37*
G36*
G01*
X-32660000Y-145565000D02*
X-32660000Y-145265000D01*
G75*
G02*
X-32510000Y-145115000I150000J0D01*
G01*
X-30860000Y-145115000D01*
G75*
G02*
X-30710000Y-145265000I0J-150000D01*
G01*
X-30710000Y-145565000D01*
G75*
G02*
X-30860000Y-145715000I-150000J0D01*
G01*
X-32510000Y-145715000D01*
G75*
G02*
X-32660000Y-145565000I0J150000D01*
G01*
G37*
G36*
G01*
X-32660000Y-144295000D02*
X-32660000Y-143995000D01*
G75*
G02*
X-32510000Y-143845000I150000J0D01*
G01*
X-30860000Y-143845000D01*
G75*
G02*
X-30710000Y-143995000I0J-150000D01*
G01*
X-30710000Y-144295000D01*
G75*
G02*
X-30860000Y-144445000I-150000J0D01*
G01*
X-32510000Y-144445000D01*
G75*
G02*
X-32660000Y-144295000I0J150000D01*
G01*
G37*
G36*
G01*
X-32660000Y-143025000D02*
X-32660000Y-142725000D01*
G75*
G02*
X-32510000Y-142575000I150000J0D01*
G01*
X-30860000Y-142575000D01*
G75*
G02*
X-30710000Y-142725000I0J-150000D01*
G01*
X-30710000Y-143025000D01*
G75*
G02*
X-30860000Y-143175000I-150000J0D01*
G01*
X-32510000Y-143175000D01*
G75*
G02*
X-32660000Y-143025000I0J150000D01*
G01*
G37*
G36*
G01*
X370350000Y-131000000D02*
X370350000Y-130500000D01*
G75*
G02*
X370575000Y-130275000I225000J0D01*
G01*
X371025000Y-130275000D01*
G75*
G02*
X371250000Y-130500000I0J-225000D01*
G01*
X371250000Y-131000000D01*
G75*
G02*
X371025000Y-131225000I-225000J0D01*
G01*
X370575000Y-131225000D01*
G75*
G02*
X370350000Y-131000000I0J225000D01*
G01*
G37*
G36*
G01*
X368800000Y-131000000D02*
X368800000Y-130500000D01*
G75*
G02*
X369025000Y-130275000I225000J0D01*
G01*
X369475000Y-130275000D01*
G75*
G02*
X369700000Y-130500000I0J-225000D01*
G01*
X369700000Y-131000000D01*
G75*
G02*
X369475000Y-131225000I-225000J0D01*
G01*
X369025000Y-131225000D01*
G75*
G02*
X368800000Y-131000000I0J225000D01*
G01*
G37*
G36*
G01*
X355600000Y-131000000D02*
X355600000Y-130500000D01*
G75*
G02*
X355825000Y-130275000I225000J0D01*
G01*
X356275000Y-130275000D01*
G75*
G02*
X356500000Y-130500000I0J-225000D01*
G01*
X356500000Y-131000000D01*
G75*
G02*
X356275000Y-131225000I-225000J0D01*
G01*
X355825000Y-131225000D01*
G75*
G02*
X355600000Y-131000000I0J225000D01*
G01*
G37*
G36*
G01*
X354050000Y-131000000D02*
X354050000Y-130500000D01*
G75*
G02*
X354275000Y-130275000I225000J0D01*
G01*
X354725000Y-130275000D01*
G75*
G02*
X354950000Y-130500000I0J-225000D01*
G01*
X354950000Y-131000000D01*
G75*
G02*
X354725000Y-131225000I-225000J0D01*
G01*
X354275000Y-131225000D01*
G75*
G02*
X354050000Y-131000000I0J225000D01*
G01*
G37*
G36*
G01*
X340850000Y-131000000D02*
X340850000Y-130500000D01*
G75*
G02*
X341075000Y-130275000I225000J0D01*
G01*
X341525000Y-130275000D01*
G75*
G02*
X341750000Y-130500000I0J-225000D01*
G01*
X341750000Y-131000000D01*
G75*
G02*
X341525000Y-131225000I-225000J0D01*
G01*
X341075000Y-131225000D01*
G75*
G02*
X340850000Y-131000000I0J225000D01*
G01*
G37*
G36*
G01*
X339300000Y-131000000D02*
X339300000Y-130500000D01*
G75*
G02*
X339525000Y-130275000I225000J0D01*
G01*
X339975000Y-130275000D01*
G75*
G02*
X340200000Y-130500000I0J-225000D01*
G01*
X340200000Y-131000000D01*
G75*
G02*
X339975000Y-131225000I-225000J0D01*
G01*
X339525000Y-131225000D01*
G75*
G02*
X339300000Y-131000000I0J225000D01*
G01*
G37*
G36*
G01*
X326100000Y-131000000D02*
X326100000Y-130500000D01*
G75*
G02*
X326325000Y-130275000I225000J0D01*
G01*
X326775000Y-130275000D01*
G75*
G02*
X327000000Y-130500000I0J-225000D01*
G01*
X327000000Y-131000000D01*
G75*
G02*
X326775000Y-131225000I-225000J0D01*
G01*
X326325000Y-131225000D01*
G75*
G02*
X326100000Y-131000000I0J225000D01*
G01*
G37*
G36*
G01*
X324550000Y-131000000D02*
X324550000Y-130500000D01*
G75*
G02*
X324775000Y-130275000I225000J0D01*
G01*
X325225000Y-130275000D01*
G75*
G02*
X325450000Y-130500000I0J-225000D01*
G01*
X325450000Y-131000000D01*
G75*
G02*
X325225000Y-131225000I-225000J0D01*
G01*
X324775000Y-131225000D01*
G75*
G02*
X324550000Y-131000000I0J225000D01*
G01*
G37*
G36*
G01*
X311350000Y-131000000D02*
X311350000Y-130500000D01*
G75*
G02*
X311575000Y-130275000I225000J0D01*
G01*
X312025000Y-130275000D01*
G75*
G02*
X312250000Y-130500000I0J-225000D01*
G01*
X312250000Y-131000000D01*
G75*
G02*
X312025000Y-131225000I-225000J0D01*
G01*
X311575000Y-131225000D01*
G75*
G02*
X311350000Y-131000000I0J225000D01*
G01*
G37*
G36*
G01*
X309800000Y-131000000D02*
X309800000Y-130500000D01*
G75*
G02*
X310025000Y-130275000I225000J0D01*
G01*
X310475000Y-130275000D01*
G75*
G02*
X310700000Y-130500000I0J-225000D01*
G01*
X310700000Y-131000000D01*
G75*
G02*
X310475000Y-131225000I-225000J0D01*
G01*
X310025000Y-131225000D01*
G75*
G02*
X309800000Y-131000000I0J225000D01*
G01*
G37*
G36*
G01*
X296600000Y-131000000D02*
X296600000Y-130500000D01*
G75*
G02*
X296825000Y-130275000I225000J0D01*
G01*
X297275000Y-130275000D01*
G75*
G02*
X297500000Y-130500000I0J-225000D01*
G01*
X297500000Y-131000000D01*
G75*
G02*
X297275000Y-131225000I-225000J0D01*
G01*
X296825000Y-131225000D01*
G75*
G02*
X296600000Y-131000000I0J225000D01*
G01*
G37*
G36*
G01*
X295050000Y-131000000D02*
X295050000Y-130500000D01*
G75*
G02*
X295275000Y-130275000I225000J0D01*
G01*
X295725000Y-130275000D01*
G75*
G02*
X295950000Y-130500000I0J-225000D01*
G01*
X295950000Y-131000000D01*
G75*
G02*
X295725000Y-131225000I-225000J0D01*
G01*
X295275000Y-131225000D01*
G75*
G02*
X295050000Y-131000000I0J225000D01*
G01*
G37*
G36*
G01*
X281850000Y-131000000D02*
X281850000Y-130500000D01*
G75*
G02*
X282075000Y-130275000I225000J0D01*
G01*
X282525000Y-130275000D01*
G75*
G02*
X282750000Y-130500000I0J-225000D01*
G01*
X282750000Y-131000000D01*
G75*
G02*
X282525000Y-131225000I-225000J0D01*
G01*
X282075000Y-131225000D01*
G75*
G02*
X281850000Y-131000000I0J225000D01*
G01*
G37*
G36*
G01*
X280300000Y-131000000D02*
X280300000Y-130500000D01*
G75*
G02*
X280525000Y-130275000I225000J0D01*
G01*
X280975000Y-130275000D01*
G75*
G02*
X281200000Y-130500000I0J-225000D01*
G01*
X281200000Y-131000000D01*
G75*
G02*
X280975000Y-131225000I-225000J0D01*
G01*
X280525000Y-131225000D01*
G75*
G02*
X280300000Y-131000000I0J225000D01*
G01*
G37*
G36*
G01*
X267100000Y-131000000D02*
X267100000Y-130500000D01*
G75*
G02*
X267325000Y-130275000I225000J0D01*
G01*
X267775000Y-130275000D01*
G75*
G02*
X268000000Y-130500000I0J-225000D01*
G01*
X268000000Y-131000000D01*
G75*
G02*
X267775000Y-131225000I-225000J0D01*
G01*
X267325000Y-131225000D01*
G75*
G02*
X267100000Y-131000000I0J225000D01*
G01*
G37*
G36*
G01*
X265550000Y-131000000D02*
X265550000Y-130500000D01*
G75*
G02*
X265775000Y-130275000I225000J0D01*
G01*
X266225000Y-130275000D01*
G75*
G02*
X266450000Y-130500000I0J-225000D01*
G01*
X266450000Y-131000000D01*
G75*
G02*
X266225000Y-131225000I-225000J0D01*
G01*
X265775000Y-131225000D01*
G75*
G02*
X265550000Y-131000000I0J225000D01*
G01*
G37*
G36*
G01*
X252350000Y-131000000D02*
X252350000Y-130500000D01*
G75*
G02*
X252575000Y-130275000I225000J0D01*
G01*
X253025000Y-130275000D01*
G75*
G02*
X253250000Y-130500000I0J-225000D01*
G01*
X253250000Y-131000000D01*
G75*
G02*
X253025000Y-131225000I-225000J0D01*
G01*
X252575000Y-131225000D01*
G75*
G02*
X252350000Y-131000000I0J225000D01*
G01*
G37*
G36*
G01*
X250800000Y-131000000D02*
X250800000Y-130500000D01*
G75*
G02*
X251025000Y-130275000I225000J0D01*
G01*
X251475000Y-130275000D01*
G75*
G02*
X251700000Y-130500000I0J-225000D01*
G01*
X251700000Y-131000000D01*
G75*
G02*
X251475000Y-131225000I-225000J0D01*
G01*
X251025000Y-131225000D01*
G75*
G02*
X250800000Y-131000000I0J225000D01*
G01*
G37*
G36*
G01*
X237600000Y-131000000D02*
X237600000Y-130500000D01*
G75*
G02*
X237825000Y-130275000I225000J0D01*
G01*
X238275000Y-130275000D01*
G75*
G02*
X238500000Y-130500000I0J-225000D01*
G01*
X238500000Y-131000000D01*
G75*
G02*
X238275000Y-131225000I-225000J0D01*
G01*
X237825000Y-131225000D01*
G75*
G02*
X237600000Y-131000000I0J225000D01*
G01*
G37*
G36*
G01*
X236050000Y-131000000D02*
X236050000Y-130500000D01*
G75*
G02*
X236275000Y-130275000I225000J0D01*
G01*
X236725000Y-130275000D01*
G75*
G02*
X236950000Y-130500000I0J-225000D01*
G01*
X236950000Y-131000000D01*
G75*
G02*
X236725000Y-131225000I-225000J0D01*
G01*
X236275000Y-131225000D01*
G75*
G02*
X236050000Y-131000000I0J225000D01*
G01*
G37*
G36*
G01*
X222850000Y-131000000D02*
X222850000Y-130500000D01*
G75*
G02*
X223075000Y-130275000I225000J0D01*
G01*
X223525000Y-130275000D01*
G75*
G02*
X223750000Y-130500000I0J-225000D01*
G01*
X223750000Y-131000000D01*
G75*
G02*
X223525000Y-131225000I-225000J0D01*
G01*
X223075000Y-131225000D01*
G75*
G02*
X222850000Y-131000000I0J225000D01*
G01*
G37*
G36*
G01*
X221300000Y-131000000D02*
X221300000Y-130500000D01*
G75*
G02*
X221525000Y-130275000I225000J0D01*
G01*
X221975000Y-130275000D01*
G75*
G02*
X222200000Y-130500000I0J-225000D01*
G01*
X222200000Y-131000000D01*
G75*
G02*
X221975000Y-131225000I-225000J0D01*
G01*
X221525000Y-131225000D01*
G75*
G02*
X221300000Y-131000000I0J225000D01*
G01*
G37*
G36*
G01*
X208100000Y-131000000D02*
X208100000Y-130500000D01*
G75*
G02*
X208325000Y-130275000I225000J0D01*
G01*
X208775000Y-130275000D01*
G75*
G02*
X209000000Y-130500000I0J-225000D01*
G01*
X209000000Y-131000000D01*
G75*
G02*
X208775000Y-131225000I-225000J0D01*
G01*
X208325000Y-131225000D01*
G75*
G02*
X208100000Y-131000000I0J225000D01*
G01*
G37*
G36*
G01*
X206550000Y-131000000D02*
X206550000Y-130500000D01*
G75*
G02*
X206775000Y-130275000I225000J0D01*
G01*
X207225000Y-130275000D01*
G75*
G02*
X207450000Y-130500000I0J-225000D01*
G01*
X207450000Y-131000000D01*
G75*
G02*
X207225000Y-131225000I-225000J0D01*
G01*
X206775000Y-131225000D01*
G75*
G02*
X206550000Y-131000000I0J225000D01*
G01*
G37*
G36*
G01*
X193350000Y-131000000D02*
X193350000Y-130500000D01*
G75*
G02*
X193575000Y-130275000I225000J0D01*
G01*
X194025000Y-130275000D01*
G75*
G02*
X194250000Y-130500000I0J-225000D01*
G01*
X194250000Y-131000000D01*
G75*
G02*
X194025000Y-131225000I-225000J0D01*
G01*
X193575000Y-131225000D01*
G75*
G02*
X193350000Y-131000000I0J225000D01*
G01*
G37*
G36*
G01*
X191800000Y-131000000D02*
X191800000Y-130500000D01*
G75*
G02*
X192025000Y-130275000I225000J0D01*
G01*
X192475000Y-130275000D01*
G75*
G02*
X192700000Y-130500000I0J-225000D01*
G01*
X192700000Y-131000000D01*
G75*
G02*
X192475000Y-131225000I-225000J0D01*
G01*
X192025000Y-131225000D01*
G75*
G02*
X191800000Y-131000000I0J225000D01*
G01*
G37*
G36*
G01*
X178600000Y-131000000D02*
X178600000Y-130500000D01*
G75*
G02*
X178825000Y-130275000I225000J0D01*
G01*
X179275000Y-130275000D01*
G75*
G02*
X179500000Y-130500000I0J-225000D01*
G01*
X179500000Y-131000000D01*
G75*
G02*
X179275000Y-131225000I-225000J0D01*
G01*
X178825000Y-131225000D01*
G75*
G02*
X178600000Y-131000000I0J225000D01*
G01*
G37*
G36*
G01*
X177050000Y-131000000D02*
X177050000Y-130500000D01*
G75*
G02*
X177275000Y-130275000I225000J0D01*
G01*
X177725000Y-130275000D01*
G75*
G02*
X177950000Y-130500000I0J-225000D01*
G01*
X177950000Y-131000000D01*
G75*
G02*
X177725000Y-131225000I-225000J0D01*
G01*
X177275000Y-131225000D01*
G75*
G02*
X177050000Y-131000000I0J225000D01*
G01*
G37*
G36*
G01*
X163850000Y-131000000D02*
X163850000Y-130500000D01*
G75*
G02*
X164075000Y-130275000I225000J0D01*
G01*
X164525000Y-130275000D01*
G75*
G02*
X164750000Y-130500000I0J-225000D01*
G01*
X164750000Y-131000000D01*
G75*
G02*
X164525000Y-131225000I-225000J0D01*
G01*
X164075000Y-131225000D01*
G75*
G02*
X163850000Y-131000000I0J225000D01*
G01*
G37*
G36*
G01*
X162300000Y-131000000D02*
X162300000Y-130500000D01*
G75*
G02*
X162525000Y-130275000I225000J0D01*
G01*
X162975000Y-130275000D01*
G75*
G02*
X163200000Y-130500000I0J-225000D01*
G01*
X163200000Y-131000000D01*
G75*
G02*
X162975000Y-131225000I-225000J0D01*
G01*
X162525000Y-131225000D01*
G75*
G02*
X162300000Y-131000000I0J225000D01*
G01*
G37*
G36*
G01*
X149100000Y-131000000D02*
X149100000Y-130500000D01*
G75*
G02*
X149325000Y-130275000I225000J0D01*
G01*
X149775000Y-130275000D01*
G75*
G02*
X150000000Y-130500000I0J-225000D01*
G01*
X150000000Y-131000000D01*
G75*
G02*
X149775000Y-131225000I-225000J0D01*
G01*
X149325000Y-131225000D01*
G75*
G02*
X149100000Y-131000000I0J225000D01*
G01*
G37*
G36*
G01*
X147550000Y-131000000D02*
X147550000Y-130500000D01*
G75*
G02*
X147775000Y-130275000I225000J0D01*
G01*
X148225000Y-130275000D01*
G75*
G02*
X148450000Y-130500000I0J-225000D01*
G01*
X148450000Y-131000000D01*
G75*
G02*
X148225000Y-131225000I-225000J0D01*
G01*
X147775000Y-131225000D01*
G75*
G02*
X147550000Y-131000000I0J225000D01*
G01*
G37*
G36*
G01*
X134350000Y-131000000D02*
X134350000Y-130500000D01*
G75*
G02*
X134575000Y-130275000I225000J0D01*
G01*
X135025000Y-130275000D01*
G75*
G02*
X135250000Y-130500000I0J-225000D01*
G01*
X135250000Y-131000000D01*
G75*
G02*
X135025000Y-131225000I-225000J0D01*
G01*
X134575000Y-131225000D01*
G75*
G02*
X134350000Y-131000000I0J225000D01*
G01*
G37*
G36*
G01*
X132800000Y-131000000D02*
X132800000Y-130500000D01*
G75*
G02*
X133025000Y-130275000I225000J0D01*
G01*
X133475000Y-130275000D01*
G75*
G02*
X133700000Y-130500000I0J-225000D01*
G01*
X133700000Y-131000000D01*
G75*
G02*
X133475000Y-131225000I-225000J0D01*
G01*
X133025000Y-131225000D01*
G75*
G02*
X132800000Y-131000000I0J225000D01*
G01*
G37*
G36*
G01*
X119600000Y-131000000D02*
X119600000Y-130500000D01*
G75*
G02*
X119825000Y-130275000I225000J0D01*
G01*
X120275000Y-130275000D01*
G75*
G02*
X120500000Y-130500000I0J-225000D01*
G01*
X120500000Y-131000000D01*
G75*
G02*
X120275000Y-131225000I-225000J0D01*
G01*
X119825000Y-131225000D01*
G75*
G02*
X119600000Y-131000000I0J225000D01*
G01*
G37*
G36*
G01*
X118050000Y-131000000D02*
X118050000Y-130500000D01*
G75*
G02*
X118275000Y-130275000I225000J0D01*
G01*
X118725000Y-130275000D01*
G75*
G02*
X118950000Y-130500000I0J-225000D01*
G01*
X118950000Y-131000000D01*
G75*
G02*
X118725000Y-131225000I-225000J0D01*
G01*
X118275000Y-131225000D01*
G75*
G02*
X118050000Y-131000000I0J225000D01*
G01*
G37*
G36*
G01*
X104850000Y-131000000D02*
X104850000Y-130500000D01*
G75*
G02*
X105075000Y-130275000I225000J0D01*
G01*
X105525000Y-130275000D01*
G75*
G02*
X105750000Y-130500000I0J-225000D01*
G01*
X105750000Y-131000000D01*
G75*
G02*
X105525000Y-131225000I-225000J0D01*
G01*
X105075000Y-131225000D01*
G75*
G02*
X104850000Y-131000000I0J225000D01*
G01*
G37*
G36*
G01*
X103300000Y-131000000D02*
X103300000Y-130500000D01*
G75*
G02*
X103525000Y-130275000I225000J0D01*
G01*
X103975000Y-130275000D01*
G75*
G02*
X104200000Y-130500000I0J-225000D01*
G01*
X104200000Y-131000000D01*
G75*
G02*
X103975000Y-131225000I-225000J0D01*
G01*
X103525000Y-131225000D01*
G75*
G02*
X103300000Y-131000000I0J225000D01*
G01*
G37*
G36*
G01*
X90100000Y-131000000D02*
X90100000Y-130500000D01*
G75*
G02*
X90325000Y-130275000I225000J0D01*
G01*
X90775000Y-130275000D01*
G75*
G02*
X91000000Y-130500000I0J-225000D01*
G01*
X91000000Y-131000000D01*
G75*
G02*
X90775000Y-131225000I-225000J0D01*
G01*
X90325000Y-131225000D01*
G75*
G02*
X90100000Y-131000000I0J225000D01*
G01*
G37*
G36*
G01*
X88550000Y-131000000D02*
X88550000Y-130500000D01*
G75*
G02*
X88775000Y-130275000I225000J0D01*
G01*
X89225000Y-130275000D01*
G75*
G02*
X89450000Y-130500000I0J-225000D01*
G01*
X89450000Y-131000000D01*
G75*
G02*
X89225000Y-131225000I-225000J0D01*
G01*
X88775000Y-131225000D01*
G75*
G02*
X88550000Y-131000000I0J225000D01*
G01*
G37*
G36*
G01*
X75350000Y-131000000D02*
X75350000Y-130500000D01*
G75*
G02*
X75575000Y-130275000I225000J0D01*
G01*
X76025000Y-130275000D01*
G75*
G02*
X76250000Y-130500000I0J-225000D01*
G01*
X76250000Y-131000000D01*
G75*
G02*
X76025000Y-131225000I-225000J0D01*
G01*
X75575000Y-131225000D01*
G75*
G02*
X75350000Y-131000000I0J225000D01*
G01*
G37*
G36*
G01*
X73800000Y-131000000D02*
X73800000Y-130500000D01*
G75*
G02*
X74025000Y-130275000I225000J0D01*
G01*
X74475000Y-130275000D01*
G75*
G02*
X74700000Y-130500000I0J-225000D01*
G01*
X74700000Y-131000000D01*
G75*
G02*
X74475000Y-131225000I-225000J0D01*
G01*
X74025000Y-131225000D01*
G75*
G02*
X73800000Y-131000000I0J225000D01*
G01*
G37*
G36*
G01*
X60600000Y-131000000D02*
X60600000Y-130500000D01*
G75*
G02*
X60825000Y-130275000I225000J0D01*
G01*
X61275000Y-130275000D01*
G75*
G02*
X61500000Y-130500000I0J-225000D01*
G01*
X61500000Y-131000000D01*
G75*
G02*
X61275000Y-131225000I-225000J0D01*
G01*
X60825000Y-131225000D01*
G75*
G02*
X60600000Y-131000000I0J225000D01*
G01*
G37*
G36*
G01*
X59050000Y-131000000D02*
X59050000Y-130500000D01*
G75*
G02*
X59275000Y-130275000I225000J0D01*
G01*
X59725000Y-130275000D01*
G75*
G02*
X59950000Y-130500000I0J-225000D01*
G01*
X59950000Y-131000000D01*
G75*
G02*
X59725000Y-131225000I-225000J0D01*
G01*
X59275000Y-131225000D01*
G75*
G02*
X59050000Y-131000000I0J225000D01*
G01*
G37*
G36*
G01*
X45850000Y-131000000D02*
X45850000Y-130500000D01*
G75*
G02*
X46075000Y-130275000I225000J0D01*
G01*
X46525000Y-130275000D01*
G75*
G02*
X46750000Y-130500000I0J-225000D01*
G01*
X46750000Y-131000000D01*
G75*
G02*
X46525000Y-131225000I-225000J0D01*
G01*
X46075000Y-131225000D01*
G75*
G02*
X45850000Y-131000000I0J225000D01*
G01*
G37*
G36*
G01*
X44300000Y-131000000D02*
X44300000Y-130500000D01*
G75*
G02*
X44525000Y-130275000I225000J0D01*
G01*
X44975000Y-130275000D01*
G75*
G02*
X45200000Y-130500000I0J-225000D01*
G01*
X45200000Y-131000000D01*
G75*
G02*
X44975000Y-131225000I-225000J0D01*
G01*
X44525000Y-131225000D01*
G75*
G02*
X44300000Y-131000000I0J225000D01*
G01*
G37*
G36*
G01*
X31100000Y-131000000D02*
X31100000Y-130500000D01*
G75*
G02*
X31325000Y-130275000I225000J0D01*
G01*
X31775000Y-130275000D01*
G75*
G02*
X32000000Y-130500000I0J-225000D01*
G01*
X32000000Y-131000000D01*
G75*
G02*
X31775000Y-131225000I-225000J0D01*
G01*
X31325000Y-131225000D01*
G75*
G02*
X31100000Y-131000000I0J225000D01*
G01*
G37*
G36*
G01*
X29550000Y-131000000D02*
X29550000Y-130500000D01*
G75*
G02*
X29775000Y-130275000I225000J0D01*
G01*
X30225000Y-130275000D01*
G75*
G02*
X30450000Y-130500000I0J-225000D01*
G01*
X30450000Y-131000000D01*
G75*
G02*
X30225000Y-131225000I-225000J0D01*
G01*
X29775000Y-131225000D01*
G75*
G02*
X29550000Y-131000000I0J225000D01*
G01*
G37*
G36*
G01*
X16350000Y-131000000D02*
X16350000Y-130500000D01*
G75*
G02*
X16575000Y-130275000I225000J0D01*
G01*
X17025000Y-130275000D01*
G75*
G02*
X17250000Y-130500000I0J-225000D01*
G01*
X17250000Y-131000000D01*
G75*
G02*
X17025000Y-131225000I-225000J0D01*
G01*
X16575000Y-131225000D01*
G75*
G02*
X16350000Y-131000000I0J225000D01*
G01*
G37*
G36*
G01*
X14800000Y-131000000D02*
X14800000Y-130500000D01*
G75*
G02*
X15025000Y-130275000I225000J0D01*
G01*
X15475000Y-130275000D01*
G75*
G02*
X15700000Y-130500000I0J-225000D01*
G01*
X15700000Y-131000000D01*
G75*
G02*
X15475000Y-131225000I-225000J0D01*
G01*
X15025000Y-131225000D01*
G75*
G02*
X14800000Y-131000000I0J225000D01*
G01*
G37*
G36*
G01*
X1600000Y-131000000D02*
X1600000Y-130500000D01*
G75*
G02*
X1825000Y-130275000I225000J0D01*
G01*
X2275000Y-130275000D01*
G75*
G02*
X2500000Y-130500000I0J-225000D01*
G01*
X2500000Y-131000000D01*
G75*
G02*
X2275000Y-131225000I-225000J0D01*
G01*
X1825000Y-131225000D01*
G75*
G02*
X1600000Y-131000000I0J225000D01*
G01*
G37*
G36*
G01*
X50000Y-131000000D02*
X50000Y-130500000D01*
G75*
G02*
X275000Y-130275000I225000J0D01*
G01*
X725000Y-130275000D01*
G75*
G02*
X950000Y-130500000I0J-225000D01*
G01*
X950000Y-131000000D01*
G75*
G02*
X725000Y-131225000I-225000J0D01*
G01*
X275000Y-131225000D01*
G75*
G02*
X50000Y-131000000I0J225000D01*
G01*
G37*
G36*
G01*
X-13150000Y-131000000D02*
X-13150000Y-130500000D01*
G75*
G02*
X-12925000Y-130275000I225000J0D01*
G01*
X-12475000Y-130275000D01*
G75*
G02*
X-12250000Y-130500000I0J-225000D01*
G01*
X-12250000Y-131000000D01*
G75*
G02*
X-12475000Y-131225000I-225000J0D01*
G01*
X-12925000Y-131225000D01*
G75*
G02*
X-13150000Y-131000000I0J225000D01*
G01*
G37*
G36*
G01*
X-14700000Y-131000000D02*
X-14700000Y-130500000D01*
G75*
G02*
X-14475000Y-130275000I225000J0D01*
G01*
X-14025000Y-130275000D01*
G75*
G02*
X-13800000Y-130500000I0J-225000D01*
G01*
X-13800000Y-131000000D01*
G75*
G02*
X-14025000Y-131225000I-225000J0D01*
G01*
X-14475000Y-131225000D01*
G75*
G02*
X-14700000Y-131000000I0J225000D01*
G01*
G37*
G36*
G01*
X-27900000Y-131000000D02*
X-27900000Y-130500000D01*
G75*
G02*
X-27675000Y-130275000I225000J0D01*
G01*
X-27225000Y-130275000D01*
G75*
G02*
X-27000000Y-130500000I0J-225000D01*
G01*
X-27000000Y-131000000D01*
G75*
G02*
X-27225000Y-131225000I-225000J0D01*
G01*
X-27675000Y-131225000D01*
G75*
G02*
X-27900000Y-131000000I0J225000D01*
G01*
G37*
G36*
G01*
X-29450000Y-131000000D02*
X-29450000Y-130500000D01*
G75*
G02*
X-29225000Y-130275000I225000J0D01*
G01*
X-28775000Y-130275000D01*
G75*
G02*
X-28550000Y-130500000I0J-225000D01*
G01*
X-28550000Y-131000000D01*
G75*
G02*
X-28775000Y-131225000I-225000J0D01*
G01*
X-29225000Y-131225000D01*
G75*
G02*
X-29450000Y-131000000I0J225000D01*
G01*
G37*
G36*
G01*
X-42650000Y-131000000D02*
X-42650000Y-130500000D01*
G75*
G02*
X-42425000Y-130275000I225000J0D01*
G01*
X-41975000Y-130275000D01*
G75*
G02*
X-41750000Y-130500000I0J-225000D01*
G01*
X-41750000Y-131000000D01*
G75*
G02*
X-41975000Y-131225000I-225000J0D01*
G01*
X-42425000Y-131225000D01*
G75*
G02*
X-42650000Y-131000000I0J225000D01*
G01*
G37*
G36*
G01*
X-44200000Y-131000000D02*
X-44200000Y-130500000D01*
G75*
G02*
X-43975000Y-130275000I225000J0D01*
G01*
X-43525000Y-130275000D01*
G75*
G02*
X-43300000Y-130500000I0J-225000D01*
G01*
X-43300000Y-131000000D01*
G75*
G02*
X-43525000Y-131225000I-225000J0D01*
G01*
X-43975000Y-131225000D01*
G75*
G02*
X-44200000Y-131000000I0J225000D01*
G01*
G37*
G36*
G01*
X-72175000Y-131000000D02*
X-72175000Y-130500000D01*
G75*
G02*
X-71950000Y-130275000I225000J0D01*
G01*
X-71500000Y-130275000D01*
G75*
G02*
X-71275000Y-130500000I0J-225000D01*
G01*
X-71275000Y-131000000D01*
G75*
G02*
X-71500000Y-131225000I-225000J0D01*
G01*
X-71950000Y-131225000D01*
G75*
G02*
X-72175000Y-131000000I0J225000D01*
G01*
G37*
G36*
G01*
X-73725000Y-131000000D02*
X-73725000Y-130500000D01*
G75*
G02*
X-73500000Y-130275000I225000J0D01*
G01*
X-73050000Y-130275000D01*
G75*
G02*
X-72825000Y-130500000I0J-225000D01*
G01*
X-72825000Y-131000000D01*
G75*
G02*
X-73050000Y-131225000I-225000J0D01*
G01*
X-73500000Y-131225000D01*
G75*
G02*
X-73725000Y-131000000I0J225000D01*
G01*
G37*
D10*
X356950000Y-128600000D03*
X356950000Y-125400000D03*
X352050000Y-128600000D03*
X352050000Y-125400000D03*
X327450000Y-128600000D03*
X327450000Y-125400000D03*
X322550000Y-128600000D03*
X322550000Y-125400000D03*
X297950000Y-128600000D03*
X297950000Y-125400000D03*
X293050000Y-128600000D03*
X293050000Y-125400000D03*
X268450000Y-128600000D03*
X268450000Y-125400000D03*
X263550000Y-128600000D03*
X263550000Y-125400000D03*
X238950000Y-128600000D03*
X238950000Y-125400000D03*
X234050000Y-128600000D03*
X234050000Y-125400000D03*
X209450000Y-128600000D03*
X209450000Y-125400000D03*
X204550000Y-128600000D03*
X204550000Y-125400000D03*
X179950000Y-128600000D03*
X179950000Y-125400000D03*
X175050000Y-128600000D03*
X175050000Y-125400000D03*
X150450000Y-128600000D03*
X150450000Y-125400000D03*
X145550000Y-128600000D03*
X145550000Y-125400000D03*
X120950000Y-128600000D03*
X120950000Y-125400000D03*
X116050000Y-128600000D03*
X116050000Y-125400000D03*
X91450000Y-128600000D03*
X91450000Y-125400000D03*
X86550000Y-128600000D03*
X86550000Y-125400000D03*
X61950000Y-128600000D03*
X61950000Y-125400000D03*
X57050000Y-128600000D03*
X57050000Y-125400000D03*
X32450000Y-128600000D03*
X32450000Y-125400000D03*
X27550000Y-128600000D03*
X27550000Y-125400000D03*
X2950000Y-128600000D03*
X2950000Y-125400000D03*
X-1950000Y-128600000D03*
X-1950000Y-125400000D03*
X-26550000Y-128600000D03*
X-26550000Y-125400000D03*
X-31450000Y-128600000D03*
X-31450000Y-125400000D03*
X371700000Y-128600000D03*
X371700000Y-125400000D03*
X366800000Y-128600000D03*
X366800000Y-125400000D03*
X342200000Y-128600000D03*
X342200000Y-125400000D03*
X337300000Y-128600000D03*
X337300000Y-125400000D03*
X312700000Y-128600000D03*
X312700000Y-125400000D03*
X307800000Y-128600000D03*
X307800000Y-125400000D03*
X283200000Y-128600000D03*
X283200000Y-125400000D03*
X278300000Y-128600000D03*
X278300000Y-125400000D03*
X253700000Y-128600000D03*
X253700000Y-125400000D03*
X248800000Y-128600000D03*
X248800000Y-125400000D03*
X224200000Y-128600000D03*
X224200000Y-125400000D03*
X219300000Y-128600000D03*
X219300000Y-125400000D03*
X194700000Y-128600000D03*
X194700000Y-125400000D03*
X189800000Y-128600000D03*
X189800000Y-125400000D03*
X165200000Y-128600000D03*
X165200000Y-125400000D03*
X160300000Y-128600000D03*
X160300000Y-125400000D03*
X135700000Y-128600000D03*
X135700000Y-125400000D03*
X130800000Y-128600000D03*
X130800000Y-125400000D03*
X106200000Y-128600000D03*
X106200000Y-125400000D03*
X101300000Y-128600000D03*
X101300000Y-125400000D03*
X76700000Y-128600000D03*
X76700000Y-125400000D03*
X71800000Y-128600000D03*
X71800000Y-125400000D03*
X47200000Y-128600000D03*
X47200000Y-125400000D03*
X42300000Y-128600000D03*
X42300000Y-125400000D03*
X17700000Y-128600000D03*
X17700000Y-125400000D03*
X12800000Y-128600000D03*
X12800000Y-125400000D03*
X-11800000Y-128600000D03*
X-11800000Y-125400000D03*
X-16700000Y-128600000D03*
X-16700000Y-125400000D03*
X-41300000Y-128600000D03*
X-41300000Y-125400000D03*
X-46200000Y-128600000D03*
X-46200000Y-125400000D03*
X-56050000Y-128600000D03*
X-56050000Y-125400000D03*
X-60950000Y-128600000D03*
X-60950000Y-125400000D03*
X-70800000Y-128600000D03*
X-70800000Y-125400000D03*
X-75700000Y-128600000D03*
X-75700000Y-125400000D03*
G36*
G01*
X89720000Y-141220000D02*
X89720000Y-140720000D01*
G75*
G02*
X89945000Y-140495000I225000J0D01*
G01*
X90395000Y-140495000D01*
G75*
G02*
X90620000Y-140720000I0J-225000D01*
G01*
X90620000Y-141220000D01*
G75*
G02*
X90395000Y-141445000I-225000J0D01*
G01*
X89945000Y-141445000D01*
G75*
G02*
X89720000Y-141220000I0J225000D01*
G01*
G37*
G36*
G01*
X88170000Y-141220000D02*
X88170000Y-140720000D01*
G75*
G02*
X88395000Y-140495000I225000J0D01*
G01*
X88845000Y-140495000D01*
G75*
G02*
X89070000Y-140720000I0J-225000D01*
G01*
X89070000Y-141220000D01*
G75*
G02*
X88845000Y-141445000I-225000J0D01*
G01*
X88395000Y-141445000D01*
G75*
G02*
X88170000Y-141220000I0J225000D01*
G01*
G37*
G36*
G01*
X207830000Y-141220000D02*
X207830000Y-140720000D01*
G75*
G02*
X208055000Y-140495000I225000J0D01*
G01*
X208505000Y-140495000D01*
G75*
G02*
X208730000Y-140720000I0J-225000D01*
G01*
X208730000Y-141220000D01*
G75*
G02*
X208505000Y-141445000I-225000J0D01*
G01*
X208055000Y-141445000D01*
G75*
G02*
X207830000Y-141220000I0J225000D01*
G01*
G37*
G36*
G01*
X206280000Y-141220000D02*
X206280000Y-140720000D01*
G75*
G02*
X206505000Y-140495000I225000J0D01*
G01*
X206955000Y-140495000D01*
G75*
G02*
X207180000Y-140720000I0J-225000D01*
G01*
X207180000Y-141220000D01*
G75*
G02*
X206955000Y-141445000I-225000J0D01*
G01*
X206505000Y-141445000D01*
G75*
G02*
X206280000Y-141220000I0J225000D01*
G01*
G37*
G36*
G01*
X-28390000Y-141220000D02*
X-28390000Y-140720000D01*
G75*
G02*
X-28165000Y-140495000I225000J0D01*
G01*
X-27715000Y-140495000D01*
G75*
G02*
X-27490000Y-140720000I0J-225000D01*
G01*
X-27490000Y-141220000D01*
G75*
G02*
X-27715000Y-141445000I-225000J0D01*
G01*
X-28165000Y-141445000D01*
G75*
G02*
X-28390000Y-141220000I0J225000D01*
G01*
G37*
G36*
G01*
X-29940000Y-141220000D02*
X-29940000Y-140720000D01*
G75*
G02*
X-29715000Y-140495000I225000J0D01*
G01*
X-29265000Y-140495000D01*
G75*
G02*
X-29040000Y-140720000I0J-225000D01*
G01*
X-29040000Y-141220000D01*
G75*
G02*
X-29265000Y-141445000I-225000J0D01*
G01*
X-29715000Y-141445000D01*
G75*
G02*
X-29940000Y-141220000I0J225000D01*
G01*
G37*
G36*
G01*
X208510000Y-143025000D02*
X208510000Y-142725000D01*
G75*
G02*
X208660000Y-142575000I150000J0D01*
G01*
X210310000Y-142575000D01*
G75*
G02*
X210460000Y-142725000I0J-150000D01*
G01*
X210460000Y-143025000D01*
G75*
G02*
X210310000Y-143175000I-150000J0D01*
G01*
X208660000Y-143175000D01*
G75*
G02*
X208510000Y-143025000I0J150000D01*
G01*
G37*
G36*
G01*
X208510000Y-144295000D02*
X208510000Y-143995000D01*
G75*
G02*
X208660000Y-143845000I150000J0D01*
G01*
X210310000Y-143845000D01*
G75*
G02*
X210460000Y-143995000I0J-150000D01*
G01*
X210460000Y-144295000D01*
G75*
G02*
X210310000Y-144445000I-150000J0D01*
G01*
X208660000Y-144445000D01*
G75*
G02*
X208510000Y-144295000I0J150000D01*
G01*
G37*
G36*
G01*
X208510000Y-145565000D02*
X208510000Y-145265000D01*
G75*
G02*
X208660000Y-145115000I150000J0D01*
G01*
X210310000Y-145115000D01*
G75*
G02*
X210460000Y-145265000I0J-150000D01*
G01*
X210460000Y-145565000D01*
G75*
G02*
X210310000Y-145715000I-150000J0D01*
G01*
X208660000Y-145715000D01*
G75*
G02*
X208510000Y-145565000I0J150000D01*
G01*
G37*
G36*
G01*
X208510000Y-146835000D02*
X208510000Y-146535000D01*
G75*
G02*
X208660000Y-146385000I150000J0D01*
G01*
X210310000Y-146385000D01*
G75*
G02*
X210460000Y-146535000I0J-150000D01*
G01*
X210460000Y-146835000D01*
G75*
G02*
X210310000Y-146985000I-150000J0D01*
G01*
X208660000Y-146985000D01*
G75*
G02*
X208510000Y-146835000I0J150000D01*
G01*
G37*
G36*
G01*
X208510000Y-148105000D02*
X208510000Y-147805000D01*
G75*
G02*
X208660000Y-147655000I150000J0D01*
G01*
X210310000Y-147655000D01*
G75*
G02*
X210460000Y-147805000I0J-150000D01*
G01*
X210460000Y-148105000D01*
G75*
G02*
X210310000Y-148255000I-150000J0D01*
G01*
X208660000Y-148255000D01*
G75*
G02*
X208510000Y-148105000I0J150000D01*
G01*
G37*
G36*
G01*
X208510000Y-149375000D02*
X208510000Y-149075000D01*
G75*
G02*
X208660000Y-148925000I150000J0D01*
G01*
X210310000Y-148925000D01*
G75*
G02*
X210460000Y-149075000I0J-150000D01*
G01*
X210460000Y-149375000D01*
G75*
G02*
X210310000Y-149525000I-150000J0D01*
G01*
X208660000Y-149525000D01*
G75*
G02*
X208510000Y-149375000I0J150000D01*
G01*
G37*
G36*
G01*
X208510000Y-150645000D02*
X208510000Y-150345000D01*
G75*
G02*
X208660000Y-150195000I150000J0D01*
G01*
X210310000Y-150195000D01*
G75*
G02*
X210460000Y-150345000I0J-150000D01*
G01*
X210460000Y-150645000D01*
G75*
G02*
X210310000Y-150795000I-150000J0D01*
G01*
X208660000Y-150795000D01*
G75*
G02*
X208510000Y-150645000I0J150000D01*
G01*
G37*
G36*
G01*
X208510000Y-151915000D02*
X208510000Y-151615000D01*
G75*
G02*
X208660000Y-151465000I150000J0D01*
G01*
X210310000Y-151465000D01*
G75*
G02*
X210460000Y-151615000I0J-150000D01*
G01*
X210460000Y-151915000D01*
G75*
G02*
X210310000Y-152065000I-150000J0D01*
G01*
X208660000Y-152065000D01*
G75*
G02*
X208510000Y-151915000I0J150000D01*
G01*
G37*
G36*
G01*
X203560000Y-151915000D02*
X203560000Y-151615000D01*
G75*
G02*
X203710000Y-151465000I150000J0D01*
G01*
X205360000Y-151465000D01*
G75*
G02*
X205510000Y-151615000I0J-150000D01*
G01*
X205510000Y-151915000D01*
G75*
G02*
X205360000Y-152065000I-150000J0D01*
G01*
X203710000Y-152065000D01*
G75*
G02*
X203560000Y-151915000I0J150000D01*
G01*
G37*
G36*
G01*
X203560000Y-150645000D02*
X203560000Y-150345000D01*
G75*
G02*
X203710000Y-150195000I150000J0D01*
G01*
X205360000Y-150195000D01*
G75*
G02*
X205510000Y-150345000I0J-150000D01*
G01*
X205510000Y-150645000D01*
G75*
G02*
X205360000Y-150795000I-150000J0D01*
G01*
X203710000Y-150795000D01*
G75*
G02*
X203560000Y-150645000I0J150000D01*
G01*
G37*
G36*
G01*
X203560000Y-149375000D02*
X203560000Y-149075000D01*
G75*
G02*
X203710000Y-148925000I150000J0D01*
G01*
X205360000Y-148925000D01*
G75*
G02*
X205510000Y-149075000I0J-150000D01*
G01*
X205510000Y-149375000D01*
G75*
G02*
X205360000Y-149525000I-150000J0D01*
G01*
X203710000Y-149525000D01*
G75*
G02*
X203560000Y-149375000I0J150000D01*
G01*
G37*
G36*
G01*
X203560000Y-148105000D02*
X203560000Y-147805000D01*
G75*
G02*
X203710000Y-147655000I150000J0D01*
G01*
X205360000Y-147655000D01*
G75*
G02*
X205510000Y-147805000I0J-150000D01*
G01*
X205510000Y-148105000D01*
G75*
G02*
X205360000Y-148255000I-150000J0D01*
G01*
X203710000Y-148255000D01*
G75*
G02*
X203560000Y-148105000I0J150000D01*
G01*
G37*
G36*
G01*
X203560000Y-146835000D02*
X203560000Y-146535000D01*
G75*
G02*
X203710000Y-146385000I150000J0D01*
G01*
X205360000Y-146385000D01*
G75*
G02*
X205510000Y-146535000I0J-150000D01*
G01*
X205510000Y-146835000D01*
G75*
G02*
X205360000Y-146985000I-150000J0D01*
G01*
X203710000Y-146985000D01*
G75*
G02*
X203560000Y-146835000I0J150000D01*
G01*
G37*
G36*
G01*
X203560000Y-145565000D02*
X203560000Y-145265000D01*
G75*
G02*
X203710000Y-145115000I150000J0D01*
G01*
X205360000Y-145115000D01*
G75*
G02*
X205510000Y-145265000I0J-150000D01*
G01*
X205510000Y-145565000D01*
G75*
G02*
X205360000Y-145715000I-150000J0D01*
G01*
X203710000Y-145715000D01*
G75*
G02*
X203560000Y-145565000I0J150000D01*
G01*
G37*
G36*
G01*
X203560000Y-144295000D02*
X203560000Y-143995000D01*
G75*
G02*
X203710000Y-143845000I150000J0D01*
G01*
X205360000Y-143845000D01*
G75*
G02*
X205510000Y-143995000I0J-150000D01*
G01*
X205510000Y-144295000D01*
G75*
G02*
X205360000Y-144445000I-150000J0D01*
G01*
X203710000Y-144445000D01*
G75*
G02*
X203560000Y-144295000I0J150000D01*
G01*
G37*
G36*
G01*
X203560000Y-143025000D02*
X203560000Y-142725000D01*
G75*
G02*
X203710000Y-142575000I150000J0D01*
G01*
X205360000Y-142575000D01*
G75*
G02*
X205510000Y-142725000I0J-150000D01*
G01*
X205510000Y-143025000D01*
G75*
G02*
X205360000Y-143175000I-150000J0D01*
G01*
X203710000Y-143175000D01*
G75*
G02*
X203560000Y-143025000I0J150000D01*
G01*
G37*
G36*
G01*
X83799000Y-150475000D02*
X84349000Y-150475000D01*
G75*
G02*
X84549000Y-150675000I0J-200000D01*
G01*
X84549000Y-151075000D01*
G75*
G02*
X84349000Y-151275000I-200000J0D01*
G01*
X83799000Y-151275000D01*
G75*
G02*
X83599000Y-151075000I0J200000D01*
G01*
X83599000Y-150675000D01*
G75*
G02*
X83799000Y-150475000I200000J0D01*
G01*
G37*
G36*
G01*
X83799000Y-148825000D02*
X84349000Y-148825000D01*
G75*
G02*
X84549000Y-149025000I0J-200000D01*
G01*
X84549000Y-149425000D01*
G75*
G02*
X84349000Y-149625000I-200000J0D01*
G01*
X83799000Y-149625000D01*
G75*
G02*
X83599000Y-149425000I0J200000D01*
G01*
X83599000Y-149025000D01*
G75*
G02*
X83799000Y-148825000I200000J0D01*
G01*
G37*
G36*
G01*
X201909000Y-150475000D02*
X202459000Y-150475000D01*
G75*
G02*
X202659000Y-150675000I0J-200000D01*
G01*
X202659000Y-151075000D01*
G75*
G02*
X202459000Y-151275000I-200000J0D01*
G01*
X201909000Y-151275000D01*
G75*
G02*
X201709000Y-151075000I0J200000D01*
G01*
X201709000Y-150675000D01*
G75*
G02*
X201909000Y-150475000I200000J0D01*
G01*
G37*
G36*
G01*
X201909000Y-148825000D02*
X202459000Y-148825000D01*
G75*
G02*
X202659000Y-149025000I0J-200000D01*
G01*
X202659000Y-149425000D01*
G75*
G02*
X202459000Y-149625000I-200000J0D01*
G01*
X201909000Y-149625000D01*
G75*
G02*
X201709000Y-149425000I0J200000D01*
G01*
X201709000Y-149025000D01*
G75*
G02*
X201909000Y-148825000I200000J0D01*
G01*
G37*
G36*
G01*
X320019000Y-150475000D02*
X320569000Y-150475000D01*
G75*
G02*
X320769000Y-150675000I0J-200000D01*
G01*
X320769000Y-151075000D01*
G75*
G02*
X320569000Y-151275000I-200000J0D01*
G01*
X320019000Y-151275000D01*
G75*
G02*
X319819000Y-151075000I0J200000D01*
G01*
X319819000Y-150675000D01*
G75*
G02*
X320019000Y-150475000I200000J0D01*
G01*
G37*
G36*
G01*
X320019000Y-148825000D02*
X320569000Y-148825000D01*
G75*
G02*
X320769000Y-149025000I0J-200000D01*
G01*
X320769000Y-149425000D01*
G75*
G02*
X320569000Y-149625000I-200000J0D01*
G01*
X320019000Y-149625000D01*
G75*
G02*
X319819000Y-149425000I0J200000D01*
G01*
X319819000Y-149025000D01*
G75*
G02*
X320019000Y-148825000I200000J0D01*
G01*
G37*
M02*
