G04 #@! TF.GenerationSoftware,KiCad,Pcbnew,(5.1.7)-1*
G04 #@! TF.CreationDate,2021-03-22T01:50:01-04:00*
G04 #@! TF.ProjectId,Circuit-AirSensor-Left,43697263-7569-4742-9d41-697253656e73,rev?*
G04 #@! TF.SameCoordinates,Original*
G04 #@! TF.FileFunction,Paste,Bot*
G04 #@! TF.FilePolarity,Positive*
%FSLAX46Y46*%
G04 Gerber Fmt 4.6, Leading zero omitted, Abs format (unit mm)*
G04 Created by KiCad (PCBNEW (5.1.7)-1) date 2021-03-22 01:50:01*
%MOMM*%
%LPD*%
G01*
G04 APERTURE LIST*
%ADD10R,1.500000X1.000000*%
%ADD11R,1.900000X0.800000*%
G04 APERTURE END LIST*
D10*
X222450000Y-133400000D03*
X222450000Y-136600000D03*
X217550000Y-133400000D03*
X217550000Y-136600000D03*
G36*
G01*
X234250000Y-137450000D02*
X233750000Y-137450000D01*
G75*
G02*
X233525000Y-137225000I0J225000D01*
G01*
X233525000Y-136775000D01*
G75*
G02*
X233750000Y-136550000I225000J0D01*
G01*
X234250000Y-136550000D01*
G75*
G02*
X234475000Y-136775000I0J-225000D01*
G01*
X234475000Y-137225000D01*
G75*
G02*
X234250000Y-137450000I-225000J0D01*
G01*
G37*
G36*
G01*
X234250000Y-135900000D02*
X233750000Y-135900000D01*
G75*
G02*
X233525000Y-135675000I0J225000D01*
G01*
X233525000Y-135225000D01*
G75*
G02*
X233750000Y-135000000I225000J0D01*
G01*
X234250000Y-135000000D01*
G75*
G02*
X234475000Y-135225000I0J-225000D01*
G01*
X234475000Y-135675000D01*
G75*
G02*
X234250000Y-135900000I-225000J0D01*
G01*
G37*
G36*
G01*
X214250000Y-135900000D02*
X213750000Y-135900000D01*
G75*
G02*
X213525000Y-135675000I0J225000D01*
G01*
X213525000Y-135225000D01*
G75*
G02*
X213750000Y-135000000I225000J0D01*
G01*
X214250000Y-135000000D01*
G75*
G02*
X214475000Y-135225000I0J-225000D01*
G01*
X214475000Y-135675000D01*
G75*
G02*
X214250000Y-135900000I-225000J0D01*
G01*
G37*
G36*
G01*
X214250000Y-137450000D02*
X213750000Y-137450000D01*
G75*
G02*
X213525000Y-137225000I0J225000D01*
G01*
X213525000Y-136775000D01*
G75*
G02*
X213750000Y-136550000I225000J0D01*
G01*
X214250000Y-136550000D01*
G75*
G02*
X214475000Y-136775000I0J-225000D01*
G01*
X214475000Y-137225000D01*
G75*
G02*
X214250000Y-137450000I-225000J0D01*
G01*
G37*
G36*
G01*
X194250000Y-137450000D02*
X193750000Y-137450000D01*
G75*
G02*
X193525000Y-137225000I0J225000D01*
G01*
X193525000Y-136775000D01*
G75*
G02*
X193750000Y-136550000I225000J0D01*
G01*
X194250000Y-136550000D01*
G75*
G02*
X194475000Y-136775000I0J-225000D01*
G01*
X194475000Y-137225000D01*
G75*
G02*
X194250000Y-137450000I-225000J0D01*
G01*
G37*
G36*
G01*
X194250000Y-135900000D02*
X193750000Y-135900000D01*
G75*
G02*
X193525000Y-135675000I0J225000D01*
G01*
X193525000Y-135225000D01*
G75*
G02*
X193750000Y-135000000I225000J0D01*
G01*
X194250000Y-135000000D01*
G75*
G02*
X194475000Y-135225000I0J-225000D01*
G01*
X194475000Y-135675000D01*
G75*
G02*
X194250000Y-135900000I-225000J0D01*
G01*
G37*
G36*
G01*
X174250000Y-137450000D02*
X173750000Y-137450000D01*
G75*
G02*
X173525000Y-137225000I0J225000D01*
G01*
X173525000Y-136775000D01*
G75*
G02*
X173750000Y-136550000I225000J0D01*
G01*
X174250000Y-136550000D01*
G75*
G02*
X174475000Y-136775000I0J-225000D01*
G01*
X174475000Y-137225000D01*
G75*
G02*
X174250000Y-137450000I-225000J0D01*
G01*
G37*
G36*
G01*
X174250000Y-135900000D02*
X173750000Y-135900000D01*
G75*
G02*
X173525000Y-135675000I0J225000D01*
G01*
X173525000Y-135225000D01*
G75*
G02*
X173750000Y-135000000I225000J0D01*
G01*
X174250000Y-135000000D01*
G75*
G02*
X174475000Y-135225000I0J-225000D01*
G01*
X174475000Y-135675000D01*
G75*
G02*
X174250000Y-135900000I-225000J0D01*
G01*
G37*
G36*
G01*
X154250000Y-137450000D02*
X153750000Y-137450000D01*
G75*
G02*
X153525000Y-137225000I0J225000D01*
G01*
X153525000Y-136775000D01*
G75*
G02*
X153750000Y-136550000I225000J0D01*
G01*
X154250000Y-136550000D01*
G75*
G02*
X154475000Y-136775000I0J-225000D01*
G01*
X154475000Y-137225000D01*
G75*
G02*
X154250000Y-137450000I-225000J0D01*
G01*
G37*
G36*
G01*
X154250000Y-135900000D02*
X153750000Y-135900000D01*
G75*
G02*
X153525000Y-135675000I0J225000D01*
G01*
X153525000Y-135225000D01*
G75*
G02*
X153750000Y-135000000I225000J0D01*
G01*
X154250000Y-135000000D01*
G75*
G02*
X154475000Y-135225000I0J-225000D01*
G01*
X154475000Y-135675000D01*
G75*
G02*
X154250000Y-135900000I-225000J0D01*
G01*
G37*
G36*
G01*
X134250000Y-137450000D02*
X133750000Y-137450000D01*
G75*
G02*
X133525000Y-137225000I0J225000D01*
G01*
X133525000Y-136775000D01*
G75*
G02*
X133750000Y-136550000I225000J0D01*
G01*
X134250000Y-136550000D01*
G75*
G02*
X134475000Y-136775000I0J-225000D01*
G01*
X134475000Y-137225000D01*
G75*
G02*
X134250000Y-137450000I-225000J0D01*
G01*
G37*
G36*
G01*
X134250000Y-135900000D02*
X133750000Y-135900000D01*
G75*
G02*
X133525000Y-135675000I0J225000D01*
G01*
X133525000Y-135225000D01*
G75*
G02*
X133750000Y-135000000I225000J0D01*
G01*
X134250000Y-135000000D01*
G75*
G02*
X134475000Y-135225000I0J-225000D01*
G01*
X134475000Y-135675000D01*
G75*
G02*
X134250000Y-135900000I-225000J0D01*
G01*
G37*
G36*
G01*
X114250000Y-137450000D02*
X113750000Y-137450000D01*
G75*
G02*
X113525000Y-137225000I0J225000D01*
G01*
X113525000Y-136775000D01*
G75*
G02*
X113750000Y-136550000I225000J0D01*
G01*
X114250000Y-136550000D01*
G75*
G02*
X114475000Y-136775000I0J-225000D01*
G01*
X114475000Y-137225000D01*
G75*
G02*
X114250000Y-137450000I-225000J0D01*
G01*
G37*
G36*
G01*
X114250000Y-135900000D02*
X113750000Y-135900000D01*
G75*
G02*
X113525000Y-135675000I0J225000D01*
G01*
X113525000Y-135225000D01*
G75*
G02*
X113750000Y-135000000I225000J0D01*
G01*
X114250000Y-135000000D01*
G75*
G02*
X114475000Y-135225000I0J-225000D01*
G01*
X114475000Y-135675000D01*
G75*
G02*
X114250000Y-135900000I-225000J0D01*
G01*
G37*
G36*
G01*
X94250000Y-135900000D02*
X93750000Y-135900000D01*
G75*
G02*
X93525000Y-135675000I0J225000D01*
G01*
X93525000Y-135225000D01*
G75*
G02*
X93750000Y-135000000I225000J0D01*
G01*
X94250000Y-135000000D01*
G75*
G02*
X94475000Y-135225000I0J-225000D01*
G01*
X94475000Y-135675000D01*
G75*
G02*
X94250000Y-135900000I-225000J0D01*
G01*
G37*
G36*
G01*
X94250000Y-137450000D02*
X93750000Y-137450000D01*
G75*
G02*
X93525000Y-137225000I0J225000D01*
G01*
X93525000Y-136775000D01*
G75*
G02*
X93750000Y-136550000I225000J0D01*
G01*
X94250000Y-136550000D01*
G75*
G02*
X94475000Y-136775000I0J-225000D01*
G01*
X94475000Y-137225000D01*
G75*
G02*
X94250000Y-137450000I-225000J0D01*
G01*
G37*
G36*
G01*
X74250000Y-137450000D02*
X73750000Y-137450000D01*
G75*
G02*
X73525000Y-137225000I0J225000D01*
G01*
X73525000Y-136775000D01*
G75*
G02*
X73750000Y-136550000I225000J0D01*
G01*
X74250000Y-136550000D01*
G75*
G02*
X74475000Y-136775000I0J-225000D01*
G01*
X74475000Y-137225000D01*
G75*
G02*
X74250000Y-137450000I-225000J0D01*
G01*
G37*
G36*
G01*
X74250000Y-135900000D02*
X73750000Y-135900000D01*
G75*
G02*
X73525000Y-135675000I0J225000D01*
G01*
X73525000Y-135225000D01*
G75*
G02*
X73750000Y-135000000I225000J0D01*
G01*
X74250000Y-135000000D01*
G75*
G02*
X74475000Y-135225000I0J-225000D01*
G01*
X74475000Y-135675000D01*
G75*
G02*
X74250000Y-135900000I-225000J0D01*
G01*
G37*
X77550000Y-136600000D03*
X77550000Y-133400000D03*
X82450000Y-136600000D03*
X82450000Y-133400000D03*
X102450000Y-133400000D03*
X102450000Y-136600000D03*
X97550000Y-133400000D03*
X97550000Y-136600000D03*
X122450000Y-133400000D03*
X122450000Y-136600000D03*
X117550000Y-133400000D03*
X117550000Y-136600000D03*
X142450000Y-133400000D03*
X142450000Y-136600000D03*
X137550000Y-133400000D03*
X137550000Y-136600000D03*
X237550000Y-136600000D03*
X237550000Y-133400000D03*
X242450000Y-136600000D03*
X242450000Y-133400000D03*
X202450000Y-133400000D03*
X202450000Y-136600000D03*
X197550000Y-133400000D03*
X197550000Y-136600000D03*
X182450000Y-133400000D03*
X182450000Y-136600000D03*
X177550000Y-133400000D03*
X177550000Y-136600000D03*
X157550000Y-136600000D03*
X157550000Y-133400000D03*
X162450000Y-136600000D03*
X162450000Y-133400000D03*
G36*
G01*
X234475000Y-105237500D02*
X234475000Y-104762500D01*
G75*
G02*
X234712500Y-104525000I237500J0D01*
G01*
X235287500Y-104525000D01*
G75*
G02*
X235525000Y-104762500I0J-237500D01*
G01*
X235525000Y-105237500D01*
G75*
G02*
X235287500Y-105475000I-237500J0D01*
G01*
X234712500Y-105475000D01*
G75*
G02*
X234475000Y-105237500I0J237500D01*
G01*
G37*
G36*
G01*
X236225000Y-105237500D02*
X236225000Y-104762500D01*
G75*
G02*
X236462500Y-104525000I237500J0D01*
G01*
X237037500Y-104525000D01*
G75*
G02*
X237275000Y-104762500I0J-237500D01*
G01*
X237275000Y-105237500D01*
G75*
G02*
X237037500Y-105475000I-237500J0D01*
G01*
X236462500Y-105475000D01*
G75*
G02*
X236225000Y-105237500I0J237500D01*
G01*
G37*
G36*
G01*
X162475000Y-105237500D02*
X162475000Y-104762500D01*
G75*
G02*
X162712500Y-104525000I237500J0D01*
G01*
X163287500Y-104525000D01*
G75*
G02*
X163525000Y-104762500I0J-237500D01*
G01*
X163525000Y-105237500D01*
G75*
G02*
X163287500Y-105475000I-237500J0D01*
G01*
X162712500Y-105475000D01*
G75*
G02*
X162475000Y-105237500I0J237500D01*
G01*
G37*
G36*
G01*
X164225000Y-105237500D02*
X164225000Y-104762500D01*
G75*
G02*
X164462500Y-104525000I237500J0D01*
G01*
X165037500Y-104525000D01*
G75*
G02*
X165275000Y-104762500I0J-237500D01*
G01*
X165275000Y-105237500D01*
G75*
G02*
X165037500Y-105475000I-237500J0D01*
G01*
X164462500Y-105475000D01*
G75*
G02*
X164225000Y-105237500I0J237500D01*
G01*
G37*
G36*
G01*
X90475000Y-105237500D02*
X90475000Y-104762500D01*
G75*
G02*
X90712500Y-104525000I237500J0D01*
G01*
X91287500Y-104525000D01*
G75*
G02*
X91525000Y-104762500I0J-237500D01*
G01*
X91525000Y-105237500D01*
G75*
G02*
X91287500Y-105475000I-237500J0D01*
G01*
X90712500Y-105475000D01*
G75*
G02*
X90475000Y-105237500I0J237500D01*
G01*
G37*
G36*
G01*
X92225000Y-105237500D02*
X92225000Y-104762500D01*
G75*
G02*
X92462500Y-104525000I237500J0D01*
G01*
X93037500Y-104525000D01*
G75*
G02*
X93275000Y-104762500I0J-237500D01*
G01*
X93275000Y-105237500D01*
G75*
G02*
X93037500Y-105475000I-237500J0D01*
G01*
X92462500Y-105475000D01*
G75*
G02*
X92225000Y-105237500I0J237500D01*
G01*
G37*
G36*
G01*
X230275000Y-106762500D02*
X230275000Y-107237500D01*
G75*
G02*
X230037500Y-107475000I-237500J0D01*
G01*
X229462500Y-107475000D01*
G75*
G02*
X229225000Y-107237500I0J237500D01*
G01*
X229225000Y-106762500D01*
G75*
G02*
X229462500Y-106525000I237500J0D01*
G01*
X230037500Y-106525000D01*
G75*
G02*
X230275000Y-106762500I0J-237500D01*
G01*
G37*
G36*
G01*
X228525000Y-106762500D02*
X228525000Y-107237500D01*
G75*
G02*
X228287500Y-107475000I-237500J0D01*
G01*
X227712500Y-107475000D01*
G75*
G02*
X227475000Y-107237500I0J237500D01*
G01*
X227475000Y-106762500D01*
G75*
G02*
X227712500Y-106525000I237500J0D01*
G01*
X228287500Y-106525000D01*
G75*
G02*
X228525000Y-106762500I0J-237500D01*
G01*
G37*
G36*
G01*
X158275000Y-106762500D02*
X158275000Y-107237500D01*
G75*
G02*
X158037500Y-107475000I-237500J0D01*
G01*
X157462500Y-107475000D01*
G75*
G02*
X157225000Y-107237500I0J237500D01*
G01*
X157225000Y-106762500D01*
G75*
G02*
X157462500Y-106525000I237500J0D01*
G01*
X158037500Y-106525000D01*
G75*
G02*
X158275000Y-106762500I0J-237500D01*
G01*
G37*
G36*
G01*
X156525000Y-106762500D02*
X156525000Y-107237500D01*
G75*
G02*
X156287500Y-107475000I-237500J0D01*
G01*
X155712500Y-107475000D01*
G75*
G02*
X155475000Y-107237500I0J237500D01*
G01*
X155475000Y-106762500D01*
G75*
G02*
X155712500Y-106525000I237500J0D01*
G01*
X156287500Y-106525000D01*
G75*
G02*
X156525000Y-106762500I0J-237500D01*
G01*
G37*
G36*
G01*
X86275000Y-106762500D02*
X86275000Y-107237500D01*
G75*
G02*
X86037500Y-107475000I-237500J0D01*
G01*
X85462500Y-107475000D01*
G75*
G02*
X85225000Y-107237500I0J237500D01*
G01*
X85225000Y-106762500D01*
G75*
G02*
X85462500Y-106525000I237500J0D01*
G01*
X86037500Y-106525000D01*
G75*
G02*
X86275000Y-106762500I0J-237500D01*
G01*
G37*
G36*
G01*
X84525000Y-106762500D02*
X84525000Y-107237500D01*
G75*
G02*
X84287500Y-107475000I-237500J0D01*
G01*
X83712500Y-107475000D01*
G75*
G02*
X83475000Y-107237500I0J237500D01*
G01*
X83475000Y-106762500D01*
G75*
G02*
X83712500Y-106525000I237500J0D01*
G01*
X84287500Y-106525000D01*
G75*
G02*
X84525000Y-106762500I0J-237500D01*
G01*
G37*
D11*
X227500000Y-104000000D03*
X230500000Y-104950000D03*
X230500000Y-103050000D03*
X158500000Y-103050000D03*
X158500000Y-104950000D03*
X155500000Y-104000000D03*
X83500000Y-104000000D03*
X86500000Y-104950000D03*
X86500000Y-103050000D03*
M02*
