G04 #@! TF.GenerationSoftware,KiCad,Pcbnew,(5.1.7)-1*
G04 #@! TF.CreationDate,2021-03-22T01:50:53-04:00*
G04 #@! TF.ProjectId,Circuit-AirSensor-Right,43697263-7569-4742-9d41-697253656e73,rev?*
G04 #@! TF.SameCoordinates,Original*
G04 #@! TF.FileFunction,Paste,Top*
G04 #@! TF.FilePolarity,Positive*
%FSLAX46Y46*%
G04 Gerber Fmt 4.6, Leading zero omitted, Abs format (unit mm)*
G04 Created by KiCad (PCBNEW (5.1.7)-1) date 2021-03-22 01:50:53*
%MOMM*%
%LPD*%
G01*
G04 APERTURE LIST*
%ADD10R,1.500000X1.000000*%
%ADD11R,1.900000X0.800000*%
G04 APERTURE END LIST*
G36*
G01*
X233750000Y-132550000D02*
X234250000Y-132550000D01*
G75*
G02*
X234475000Y-132775000I0J-225000D01*
G01*
X234475000Y-133225000D01*
G75*
G02*
X234250000Y-133450000I-225000J0D01*
G01*
X233750000Y-133450000D01*
G75*
G02*
X233525000Y-133225000I0J225000D01*
G01*
X233525000Y-132775000D01*
G75*
G02*
X233750000Y-132550000I225000J0D01*
G01*
G37*
G36*
G01*
X233750000Y-134100000D02*
X234250000Y-134100000D01*
G75*
G02*
X234475000Y-134325000I0J-225000D01*
G01*
X234475000Y-134775000D01*
G75*
G02*
X234250000Y-135000000I-225000J0D01*
G01*
X233750000Y-135000000D01*
G75*
G02*
X233525000Y-134775000I0J225000D01*
G01*
X233525000Y-134325000D01*
G75*
G02*
X233750000Y-134100000I225000J0D01*
G01*
G37*
G36*
G01*
X213750000Y-134100000D02*
X214250000Y-134100000D01*
G75*
G02*
X214475000Y-134325000I0J-225000D01*
G01*
X214475000Y-134775000D01*
G75*
G02*
X214250000Y-135000000I-225000J0D01*
G01*
X213750000Y-135000000D01*
G75*
G02*
X213525000Y-134775000I0J225000D01*
G01*
X213525000Y-134325000D01*
G75*
G02*
X213750000Y-134100000I225000J0D01*
G01*
G37*
G36*
G01*
X213750000Y-132550000D02*
X214250000Y-132550000D01*
G75*
G02*
X214475000Y-132775000I0J-225000D01*
G01*
X214475000Y-133225000D01*
G75*
G02*
X214250000Y-133450000I-225000J0D01*
G01*
X213750000Y-133450000D01*
G75*
G02*
X213525000Y-133225000I0J225000D01*
G01*
X213525000Y-132775000D01*
G75*
G02*
X213750000Y-132550000I225000J0D01*
G01*
G37*
G36*
G01*
X193750000Y-132550000D02*
X194250000Y-132550000D01*
G75*
G02*
X194475000Y-132775000I0J-225000D01*
G01*
X194475000Y-133225000D01*
G75*
G02*
X194250000Y-133450000I-225000J0D01*
G01*
X193750000Y-133450000D01*
G75*
G02*
X193525000Y-133225000I0J225000D01*
G01*
X193525000Y-132775000D01*
G75*
G02*
X193750000Y-132550000I225000J0D01*
G01*
G37*
G36*
G01*
X193750000Y-134100000D02*
X194250000Y-134100000D01*
G75*
G02*
X194475000Y-134325000I0J-225000D01*
G01*
X194475000Y-134775000D01*
G75*
G02*
X194250000Y-135000000I-225000J0D01*
G01*
X193750000Y-135000000D01*
G75*
G02*
X193525000Y-134775000I0J225000D01*
G01*
X193525000Y-134325000D01*
G75*
G02*
X193750000Y-134100000I225000J0D01*
G01*
G37*
G36*
G01*
X173750000Y-132550000D02*
X174250000Y-132550000D01*
G75*
G02*
X174475000Y-132775000I0J-225000D01*
G01*
X174475000Y-133225000D01*
G75*
G02*
X174250000Y-133450000I-225000J0D01*
G01*
X173750000Y-133450000D01*
G75*
G02*
X173525000Y-133225000I0J225000D01*
G01*
X173525000Y-132775000D01*
G75*
G02*
X173750000Y-132550000I225000J0D01*
G01*
G37*
G36*
G01*
X173750000Y-134100000D02*
X174250000Y-134100000D01*
G75*
G02*
X174475000Y-134325000I0J-225000D01*
G01*
X174475000Y-134775000D01*
G75*
G02*
X174250000Y-135000000I-225000J0D01*
G01*
X173750000Y-135000000D01*
G75*
G02*
X173525000Y-134775000I0J225000D01*
G01*
X173525000Y-134325000D01*
G75*
G02*
X173750000Y-134100000I225000J0D01*
G01*
G37*
G36*
G01*
X153750000Y-132550000D02*
X154250000Y-132550000D01*
G75*
G02*
X154475000Y-132775000I0J-225000D01*
G01*
X154475000Y-133225000D01*
G75*
G02*
X154250000Y-133450000I-225000J0D01*
G01*
X153750000Y-133450000D01*
G75*
G02*
X153525000Y-133225000I0J225000D01*
G01*
X153525000Y-132775000D01*
G75*
G02*
X153750000Y-132550000I225000J0D01*
G01*
G37*
G36*
G01*
X153750000Y-134100000D02*
X154250000Y-134100000D01*
G75*
G02*
X154475000Y-134325000I0J-225000D01*
G01*
X154475000Y-134775000D01*
G75*
G02*
X154250000Y-135000000I-225000J0D01*
G01*
X153750000Y-135000000D01*
G75*
G02*
X153525000Y-134775000I0J225000D01*
G01*
X153525000Y-134325000D01*
G75*
G02*
X153750000Y-134100000I225000J0D01*
G01*
G37*
G36*
G01*
X133750000Y-132550000D02*
X134250000Y-132550000D01*
G75*
G02*
X134475000Y-132775000I0J-225000D01*
G01*
X134475000Y-133225000D01*
G75*
G02*
X134250000Y-133450000I-225000J0D01*
G01*
X133750000Y-133450000D01*
G75*
G02*
X133525000Y-133225000I0J225000D01*
G01*
X133525000Y-132775000D01*
G75*
G02*
X133750000Y-132550000I225000J0D01*
G01*
G37*
G36*
G01*
X133750000Y-134100000D02*
X134250000Y-134100000D01*
G75*
G02*
X134475000Y-134325000I0J-225000D01*
G01*
X134475000Y-134775000D01*
G75*
G02*
X134250000Y-135000000I-225000J0D01*
G01*
X133750000Y-135000000D01*
G75*
G02*
X133525000Y-134775000I0J225000D01*
G01*
X133525000Y-134325000D01*
G75*
G02*
X133750000Y-134100000I225000J0D01*
G01*
G37*
G36*
G01*
X113750000Y-132550000D02*
X114250000Y-132550000D01*
G75*
G02*
X114475000Y-132775000I0J-225000D01*
G01*
X114475000Y-133225000D01*
G75*
G02*
X114250000Y-133450000I-225000J0D01*
G01*
X113750000Y-133450000D01*
G75*
G02*
X113525000Y-133225000I0J225000D01*
G01*
X113525000Y-132775000D01*
G75*
G02*
X113750000Y-132550000I225000J0D01*
G01*
G37*
G36*
G01*
X113750000Y-134100000D02*
X114250000Y-134100000D01*
G75*
G02*
X114475000Y-134325000I0J-225000D01*
G01*
X114475000Y-134775000D01*
G75*
G02*
X114250000Y-135000000I-225000J0D01*
G01*
X113750000Y-135000000D01*
G75*
G02*
X113525000Y-134775000I0J225000D01*
G01*
X113525000Y-134325000D01*
G75*
G02*
X113750000Y-134100000I225000J0D01*
G01*
G37*
G36*
G01*
X93750000Y-134100000D02*
X94250000Y-134100000D01*
G75*
G02*
X94475000Y-134325000I0J-225000D01*
G01*
X94475000Y-134775000D01*
G75*
G02*
X94250000Y-135000000I-225000J0D01*
G01*
X93750000Y-135000000D01*
G75*
G02*
X93525000Y-134775000I0J225000D01*
G01*
X93525000Y-134325000D01*
G75*
G02*
X93750000Y-134100000I225000J0D01*
G01*
G37*
G36*
G01*
X93750000Y-132550000D02*
X94250000Y-132550000D01*
G75*
G02*
X94475000Y-132775000I0J-225000D01*
G01*
X94475000Y-133225000D01*
G75*
G02*
X94250000Y-133450000I-225000J0D01*
G01*
X93750000Y-133450000D01*
G75*
G02*
X93525000Y-133225000I0J225000D01*
G01*
X93525000Y-132775000D01*
G75*
G02*
X93750000Y-132550000I225000J0D01*
G01*
G37*
G36*
G01*
X73750000Y-134100000D02*
X74250000Y-134100000D01*
G75*
G02*
X74475000Y-134325000I0J-225000D01*
G01*
X74475000Y-134775000D01*
G75*
G02*
X74250000Y-135000000I-225000J0D01*
G01*
X73750000Y-135000000D01*
G75*
G02*
X73525000Y-134775000I0J225000D01*
G01*
X73525000Y-134325000D01*
G75*
G02*
X73750000Y-134100000I225000J0D01*
G01*
G37*
G36*
G01*
X73750000Y-132550000D02*
X74250000Y-132550000D01*
G75*
G02*
X74475000Y-132775000I0J-225000D01*
G01*
X74475000Y-133225000D01*
G75*
G02*
X74250000Y-133450000I-225000J0D01*
G01*
X73750000Y-133450000D01*
G75*
G02*
X73525000Y-133225000I0J225000D01*
G01*
X73525000Y-132775000D01*
G75*
G02*
X73750000Y-132550000I225000J0D01*
G01*
G37*
D10*
X77550000Y-133400000D03*
X77550000Y-136600000D03*
X82450000Y-133400000D03*
X82450000Y-136600000D03*
X102450000Y-136600000D03*
X102450000Y-133400000D03*
X97550000Y-136600000D03*
X97550000Y-133400000D03*
X122450000Y-136600000D03*
X122450000Y-133400000D03*
X117550000Y-136600000D03*
X117550000Y-133400000D03*
X142450000Y-136600000D03*
X142450000Y-133400000D03*
X137550000Y-136600000D03*
X137550000Y-133400000D03*
X237550000Y-133400000D03*
X237550000Y-136600000D03*
X242450000Y-133400000D03*
X242450000Y-136600000D03*
X222450000Y-136600000D03*
X222450000Y-133400000D03*
X217550000Y-136600000D03*
X217550000Y-133400000D03*
X202450000Y-136600000D03*
X202450000Y-133400000D03*
X197550000Y-136600000D03*
X197550000Y-133400000D03*
X182450000Y-136600000D03*
X182450000Y-133400000D03*
X177550000Y-136600000D03*
X177550000Y-133400000D03*
X157550000Y-133400000D03*
X157550000Y-136600000D03*
X162450000Y-133400000D03*
X162450000Y-136600000D03*
G36*
G01*
X227775000Y-104762500D02*
X227775000Y-105237500D01*
G75*
G02*
X227537500Y-105475000I-237500J0D01*
G01*
X226962500Y-105475000D01*
G75*
G02*
X226725000Y-105237500I0J237500D01*
G01*
X226725000Y-104762500D01*
G75*
G02*
X226962500Y-104525000I237500J0D01*
G01*
X227537500Y-104525000D01*
G75*
G02*
X227775000Y-104762500I0J-237500D01*
G01*
G37*
G36*
G01*
X229525000Y-104762500D02*
X229525000Y-105237500D01*
G75*
G02*
X229287500Y-105475000I-237500J0D01*
G01*
X228712500Y-105475000D01*
G75*
G02*
X228475000Y-105237500I0J237500D01*
G01*
X228475000Y-104762500D01*
G75*
G02*
X228712500Y-104525000I237500J0D01*
G01*
X229287500Y-104525000D01*
G75*
G02*
X229525000Y-104762500I0J-237500D01*
G01*
G37*
G36*
G01*
X155775000Y-104762500D02*
X155775000Y-105237500D01*
G75*
G02*
X155537500Y-105475000I-237500J0D01*
G01*
X154962500Y-105475000D01*
G75*
G02*
X154725000Y-105237500I0J237500D01*
G01*
X154725000Y-104762500D01*
G75*
G02*
X154962500Y-104525000I237500J0D01*
G01*
X155537500Y-104525000D01*
G75*
G02*
X155775000Y-104762500I0J-237500D01*
G01*
G37*
G36*
G01*
X157525000Y-104762500D02*
X157525000Y-105237500D01*
G75*
G02*
X157287500Y-105475000I-237500J0D01*
G01*
X156712500Y-105475000D01*
G75*
G02*
X156475000Y-105237500I0J237500D01*
G01*
X156475000Y-104762500D01*
G75*
G02*
X156712500Y-104525000I237500J0D01*
G01*
X157287500Y-104525000D01*
G75*
G02*
X157525000Y-104762500I0J-237500D01*
G01*
G37*
G36*
G01*
X83775000Y-104762500D02*
X83775000Y-105237500D01*
G75*
G02*
X83537500Y-105475000I-237500J0D01*
G01*
X82962500Y-105475000D01*
G75*
G02*
X82725000Y-105237500I0J237500D01*
G01*
X82725000Y-104762500D01*
G75*
G02*
X82962500Y-104525000I237500J0D01*
G01*
X83537500Y-104525000D01*
G75*
G02*
X83775000Y-104762500I0J-237500D01*
G01*
G37*
G36*
G01*
X85525000Y-104762500D02*
X85525000Y-105237500D01*
G75*
G02*
X85287500Y-105475000I-237500J0D01*
G01*
X84712500Y-105475000D01*
G75*
G02*
X84475000Y-105237500I0J237500D01*
G01*
X84475000Y-104762500D01*
G75*
G02*
X84712500Y-104525000I237500J0D01*
G01*
X85287500Y-104525000D01*
G75*
G02*
X85525000Y-104762500I0J-237500D01*
G01*
G37*
G36*
G01*
X235350000Y-107237500D02*
X235350000Y-106762500D01*
G75*
G02*
X235587500Y-106525000I237500J0D01*
G01*
X236162500Y-106525000D01*
G75*
G02*
X236400000Y-106762500I0J-237500D01*
G01*
X236400000Y-107237500D01*
G75*
G02*
X236162500Y-107475000I-237500J0D01*
G01*
X235587500Y-107475000D01*
G75*
G02*
X235350000Y-107237500I0J237500D01*
G01*
G37*
G36*
G01*
X233600000Y-107237500D02*
X233600000Y-106762500D01*
G75*
G02*
X233837500Y-106525000I237500J0D01*
G01*
X234412500Y-106525000D01*
G75*
G02*
X234650000Y-106762500I0J-237500D01*
G01*
X234650000Y-107237500D01*
G75*
G02*
X234412500Y-107475000I-237500J0D01*
G01*
X233837500Y-107475000D01*
G75*
G02*
X233600000Y-107237500I0J237500D01*
G01*
G37*
G36*
G01*
X163350000Y-107237500D02*
X163350000Y-106762500D01*
G75*
G02*
X163587500Y-106525000I237500J0D01*
G01*
X164162500Y-106525000D01*
G75*
G02*
X164400000Y-106762500I0J-237500D01*
G01*
X164400000Y-107237500D01*
G75*
G02*
X164162500Y-107475000I-237500J0D01*
G01*
X163587500Y-107475000D01*
G75*
G02*
X163350000Y-107237500I0J237500D01*
G01*
G37*
G36*
G01*
X161600000Y-107237500D02*
X161600000Y-106762500D01*
G75*
G02*
X161837500Y-106525000I237500J0D01*
G01*
X162412500Y-106525000D01*
G75*
G02*
X162650000Y-106762500I0J-237500D01*
G01*
X162650000Y-107237500D01*
G75*
G02*
X162412500Y-107475000I-237500J0D01*
G01*
X161837500Y-107475000D01*
G75*
G02*
X161600000Y-107237500I0J237500D01*
G01*
G37*
G36*
G01*
X91475000Y-107237500D02*
X91475000Y-106762500D01*
G75*
G02*
X91712500Y-106525000I237500J0D01*
G01*
X92287500Y-106525000D01*
G75*
G02*
X92525000Y-106762500I0J-237500D01*
G01*
X92525000Y-107237500D01*
G75*
G02*
X92287500Y-107475000I-237500J0D01*
G01*
X91712500Y-107475000D01*
G75*
G02*
X91475000Y-107237500I0J237500D01*
G01*
G37*
G36*
G01*
X89725000Y-107237500D02*
X89725000Y-106762500D01*
G75*
G02*
X89962500Y-106525000I237500J0D01*
G01*
X90537500Y-106525000D01*
G75*
G02*
X90775000Y-106762500I0J-237500D01*
G01*
X90775000Y-107237500D01*
G75*
G02*
X90537500Y-107475000I-237500J0D01*
G01*
X89962500Y-107475000D01*
G75*
G02*
X89725000Y-107237500I0J237500D01*
G01*
G37*
D11*
X236500000Y-104000000D03*
X233500000Y-104950000D03*
X233500000Y-103050000D03*
X164500000Y-104000000D03*
X161500000Y-104950000D03*
X161500000Y-103050000D03*
X92500000Y-104000000D03*
X89500000Y-104950000D03*
X89500000Y-103050000D03*
M02*
