G04 #@! TF.GenerationSoftware,KiCad,Pcbnew,(5.1.7)-1*
G04 #@! TF.CreationDate,2021-03-22T01:50:53-04:00*
G04 #@! TF.ProjectId,Circuit-AirSensor-Right,43697263-7569-4742-9d41-697253656e73,rev?*
G04 #@! TF.SameCoordinates,Original*
G04 #@! TF.FileFunction,Soldermask,Top*
G04 #@! TF.FilePolarity,Negative*
%FSLAX46Y46*%
G04 Gerber Fmt 4.6, Leading zero omitted, Abs format (unit mm)*
G04 Created by KiCad (PCBNEW (5.1.7)-1) date 2021-03-22 01:50:53*
%MOMM*%
%LPD*%
G01*
G04 APERTURE LIST*
%ADD10O,2.150000X1.600000*%
%ADD11C,3.600000*%
%ADD12C,2.200000*%
G04 APERTURE END LIST*
D10*
X56000000Y-113000000D03*
X56000000Y-115000000D03*
X56000000Y-117000000D03*
G36*
G01*
X56741668Y-119800000D02*
X55258332Y-119800000D01*
G75*
G02*
X54925000Y-119466668I0J333332D01*
G01*
X54925000Y-118533332D01*
G75*
G02*
X55258332Y-118200000I333332J0D01*
G01*
X56741668Y-118200000D01*
G75*
G02*
X57075000Y-118533332I0J-333332D01*
G01*
X57075000Y-119466668D01*
G75*
G02*
X56741668Y-119800000I-333332J0D01*
G01*
G37*
D11*
X198000000Y-128000000D03*
X108000000Y-128000000D03*
X243000000Y-112000000D03*
G36*
G01*
X233650000Y-132350000D02*
X234350000Y-132350000D01*
G75*
G02*
X234675000Y-132675000I0J-325000D01*
G01*
X234675000Y-133325000D01*
G75*
G02*
X234350000Y-133650000I-325000J0D01*
G01*
X233650000Y-133650000D01*
G75*
G02*
X233325000Y-133325000I0J325000D01*
G01*
X233325000Y-132675000D01*
G75*
G02*
X233650000Y-132350000I325000J0D01*
G01*
G37*
G36*
G01*
X233650000Y-133900000D02*
X234350000Y-133900000D01*
G75*
G02*
X234675000Y-134225000I0J-325000D01*
G01*
X234675000Y-134875000D01*
G75*
G02*
X234350000Y-135200000I-325000J0D01*
G01*
X233650000Y-135200000D01*
G75*
G02*
X233325000Y-134875000I0J325000D01*
G01*
X233325000Y-134225000D01*
G75*
G02*
X233650000Y-133900000I325000J0D01*
G01*
G37*
G36*
G01*
X213650000Y-133900000D02*
X214350000Y-133900000D01*
G75*
G02*
X214675000Y-134225000I0J-325000D01*
G01*
X214675000Y-134875000D01*
G75*
G02*
X214350000Y-135200000I-325000J0D01*
G01*
X213650000Y-135200000D01*
G75*
G02*
X213325000Y-134875000I0J325000D01*
G01*
X213325000Y-134225000D01*
G75*
G02*
X213650000Y-133900000I325000J0D01*
G01*
G37*
G36*
G01*
X213650000Y-132350000D02*
X214350000Y-132350000D01*
G75*
G02*
X214675000Y-132675000I0J-325000D01*
G01*
X214675000Y-133325000D01*
G75*
G02*
X214350000Y-133650000I-325000J0D01*
G01*
X213650000Y-133650000D01*
G75*
G02*
X213325000Y-133325000I0J325000D01*
G01*
X213325000Y-132675000D01*
G75*
G02*
X213650000Y-132350000I325000J0D01*
G01*
G37*
G36*
G01*
X193650000Y-132350000D02*
X194350000Y-132350000D01*
G75*
G02*
X194675000Y-132675000I0J-325000D01*
G01*
X194675000Y-133325000D01*
G75*
G02*
X194350000Y-133650000I-325000J0D01*
G01*
X193650000Y-133650000D01*
G75*
G02*
X193325000Y-133325000I0J325000D01*
G01*
X193325000Y-132675000D01*
G75*
G02*
X193650000Y-132350000I325000J0D01*
G01*
G37*
G36*
G01*
X193650000Y-133900000D02*
X194350000Y-133900000D01*
G75*
G02*
X194675000Y-134225000I0J-325000D01*
G01*
X194675000Y-134875000D01*
G75*
G02*
X194350000Y-135200000I-325000J0D01*
G01*
X193650000Y-135200000D01*
G75*
G02*
X193325000Y-134875000I0J325000D01*
G01*
X193325000Y-134225000D01*
G75*
G02*
X193650000Y-133900000I325000J0D01*
G01*
G37*
G36*
G01*
X173650000Y-132350000D02*
X174350000Y-132350000D01*
G75*
G02*
X174675000Y-132675000I0J-325000D01*
G01*
X174675000Y-133325000D01*
G75*
G02*
X174350000Y-133650000I-325000J0D01*
G01*
X173650000Y-133650000D01*
G75*
G02*
X173325000Y-133325000I0J325000D01*
G01*
X173325000Y-132675000D01*
G75*
G02*
X173650000Y-132350000I325000J0D01*
G01*
G37*
G36*
G01*
X173650000Y-133900000D02*
X174350000Y-133900000D01*
G75*
G02*
X174675000Y-134225000I0J-325000D01*
G01*
X174675000Y-134875000D01*
G75*
G02*
X174350000Y-135200000I-325000J0D01*
G01*
X173650000Y-135200000D01*
G75*
G02*
X173325000Y-134875000I0J325000D01*
G01*
X173325000Y-134225000D01*
G75*
G02*
X173650000Y-133900000I325000J0D01*
G01*
G37*
G36*
G01*
X153650000Y-132350000D02*
X154350000Y-132350000D01*
G75*
G02*
X154675000Y-132675000I0J-325000D01*
G01*
X154675000Y-133325000D01*
G75*
G02*
X154350000Y-133650000I-325000J0D01*
G01*
X153650000Y-133650000D01*
G75*
G02*
X153325000Y-133325000I0J325000D01*
G01*
X153325000Y-132675000D01*
G75*
G02*
X153650000Y-132350000I325000J0D01*
G01*
G37*
G36*
G01*
X153650000Y-133900000D02*
X154350000Y-133900000D01*
G75*
G02*
X154675000Y-134225000I0J-325000D01*
G01*
X154675000Y-134875000D01*
G75*
G02*
X154350000Y-135200000I-325000J0D01*
G01*
X153650000Y-135200000D01*
G75*
G02*
X153325000Y-134875000I0J325000D01*
G01*
X153325000Y-134225000D01*
G75*
G02*
X153650000Y-133900000I325000J0D01*
G01*
G37*
G36*
G01*
X133650000Y-132350000D02*
X134350000Y-132350000D01*
G75*
G02*
X134675000Y-132675000I0J-325000D01*
G01*
X134675000Y-133325000D01*
G75*
G02*
X134350000Y-133650000I-325000J0D01*
G01*
X133650000Y-133650000D01*
G75*
G02*
X133325000Y-133325000I0J325000D01*
G01*
X133325000Y-132675000D01*
G75*
G02*
X133650000Y-132350000I325000J0D01*
G01*
G37*
G36*
G01*
X133650000Y-133900000D02*
X134350000Y-133900000D01*
G75*
G02*
X134675000Y-134225000I0J-325000D01*
G01*
X134675000Y-134875000D01*
G75*
G02*
X134350000Y-135200000I-325000J0D01*
G01*
X133650000Y-135200000D01*
G75*
G02*
X133325000Y-134875000I0J325000D01*
G01*
X133325000Y-134225000D01*
G75*
G02*
X133650000Y-133900000I325000J0D01*
G01*
G37*
G36*
G01*
X113650000Y-132350000D02*
X114350000Y-132350000D01*
G75*
G02*
X114675000Y-132675000I0J-325000D01*
G01*
X114675000Y-133325000D01*
G75*
G02*
X114350000Y-133650000I-325000J0D01*
G01*
X113650000Y-133650000D01*
G75*
G02*
X113325000Y-133325000I0J325000D01*
G01*
X113325000Y-132675000D01*
G75*
G02*
X113650000Y-132350000I325000J0D01*
G01*
G37*
G36*
G01*
X113650000Y-133900000D02*
X114350000Y-133900000D01*
G75*
G02*
X114675000Y-134225000I0J-325000D01*
G01*
X114675000Y-134875000D01*
G75*
G02*
X114350000Y-135200000I-325000J0D01*
G01*
X113650000Y-135200000D01*
G75*
G02*
X113325000Y-134875000I0J325000D01*
G01*
X113325000Y-134225000D01*
G75*
G02*
X113650000Y-133900000I325000J0D01*
G01*
G37*
G36*
G01*
X93650000Y-133900000D02*
X94350000Y-133900000D01*
G75*
G02*
X94675000Y-134225000I0J-325000D01*
G01*
X94675000Y-134875000D01*
G75*
G02*
X94350000Y-135200000I-325000J0D01*
G01*
X93650000Y-135200000D01*
G75*
G02*
X93325000Y-134875000I0J325000D01*
G01*
X93325000Y-134225000D01*
G75*
G02*
X93650000Y-133900000I325000J0D01*
G01*
G37*
G36*
G01*
X93650000Y-132350000D02*
X94350000Y-132350000D01*
G75*
G02*
X94675000Y-132675000I0J-325000D01*
G01*
X94675000Y-133325000D01*
G75*
G02*
X94350000Y-133650000I-325000J0D01*
G01*
X93650000Y-133650000D01*
G75*
G02*
X93325000Y-133325000I0J325000D01*
G01*
X93325000Y-132675000D01*
G75*
G02*
X93650000Y-132350000I325000J0D01*
G01*
G37*
G36*
G01*
X73650000Y-133900000D02*
X74350000Y-133900000D01*
G75*
G02*
X74675000Y-134225000I0J-325000D01*
G01*
X74675000Y-134875000D01*
G75*
G02*
X74350000Y-135200000I-325000J0D01*
G01*
X73650000Y-135200000D01*
G75*
G02*
X73325000Y-134875000I0J325000D01*
G01*
X73325000Y-134225000D01*
G75*
G02*
X73650000Y-133900000I325000J0D01*
G01*
G37*
G36*
G01*
X73650000Y-132350000D02*
X74350000Y-132350000D01*
G75*
G02*
X74675000Y-132675000I0J-325000D01*
G01*
X74675000Y-133325000D01*
G75*
G02*
X74350000Y-133650000I-325000J0D01*
G01*
X73650000Y-133650000D01*
G75*
G02*
X73325000Y-133325000I0J325000D01*
G01*
X73325000Y-132675000D01*
G75*
G02*
X73650000Y-132350000I325000J0D01*
G01*
G37*
G36*
G01*
X76600000Y-133900000D02*
X76600000Y-132900000D01*
G75*
G02*
X76800000Y-132700000I200000J0D01*
G01*
X78300000Y-132700000D01*
G75*
G02*
X78500000Y-132900000I0J-200000D01*
G01*
X78500000Y-133900000D01*
G75*
G02*
X78300000Y-134100000I-200000J0D01*
G01*
X76800000Y-134100000D01*
G75*
G02*
X76600000Y-133900000I0J200000D01*
G01*
G37*
G36*
G01*
X76600000Y-137100000D02*
X76600000Y-136100000D01*
G75*
G02*
X76800000Y-135900000I200000J0D01*
G01*
X78300000Y-135900000D01*
G75*
G02*
X78500000Y-136100000I0J-200000D01*
G01*
X78500000Y-137100000D01*
G75*
G02*
X78300000Y-137300000I-200000J0D01*
G01*
X76800000Y-137300000D01*
G75*
G02*
X76600000Y-137100000I0J200000D01*
G01*
G37*
G36*
G01*
X81500000Y-133900000D02*
X81500000Y-132900000D01*
G75*
G02*
X81700000Y-132700000I200000J0D01*
G01*
X83200000Y-132700000D01*
G75*
G02*
X83400000Y-132900000I0J-200000D01*
G01*
X83400000Y-133900000D01*
G75*
G02*
X83200000Y-134100000I-200000J0D01*
G01*
X81700000Y-134100000D01*
G75*
G02*
X81500000Y-133900000I0J200000D01*
G01*
G37*
G36*
G01*
X81500000Y-137100000D02*
X81500000Y-136100000D01*
G75*
G02*
X81700000Y-135900000I200000J0D01*
G01*
X83200000Y-135900000D01*
G75*
G02*
X83400000Y-136100000I0J-200000D01*
G01*
X83400000Y-137100000D01*
G75*
G02*
X83200000Y-137300000I-200000J0D01*
G01*
X81700000Y-137300000D01*
G75*
G02*
X81500000Y-137100000I0J200000D01*
G01*
G37*
G36*
G01*
X101500000Y-137100000D02*
X101500000Y-136100000D01*
G75*
G02*
X101700000Y-135900000I200000J0D01*
G01*
X103200000Y-135900000D01*
G75*
G02*
X103400000Y-136100000I0J-200000D01*
G01*
X103400000Y-137100000D01*
G75*
G02*
X103200000Y-137300000I-200000J0D01*
G01*
X101700000Y-137300000D01*
G75*
G02*
X101500000Y-137100000I0J200000D01*
G01*
G37*
G36*
G01*
X101500000Y-133900000D02*
X101500000Y-132900000D01*
G75*
G02*
X101700000Y-132700000I200000J0D01*
G01*
X103200000Y-132700000D01*
G75*
G02*
X103400000Y-132900000I0J-200000D01*
G01*
X103400000Y-133900000D01*
G75*
G02*
X103200000Y-134100000I-200000J0D01*
G01*
X101700000Y-134100000D01*
G75*
G02*
X101500000Y-133900000I0J200000D01*
G01*
G37*
G36*
G01*
X96600000Y-137100000D02*
X96600000Y-136100000D01*
G75*
G02*
X96800000Y-135900000I200000J0D01*
G01*
X98300000Y-135900000D01*
G75*
G02*
X98500000Y-136100000I0J-200000D01*
G01*
X98500000Y-137100000D01*
G75*
G02*
X98300000Y-137300000I-200000J0D01*
G01*
X96800000Y-137300000D01*
G75*
G02*
X96600000Y-137100000I0J200000D01*
G01*
G37*
G36*
G01*
X96600000Y-133900000D02*
X96600000Y-132900000D01*
G75*
G02*
X96800000Y-132700000I200000J0D01*
G01*
X98300000Y-132700000D01*
G75*
G02*
X98500000Y-132900000I0J-200000D01*
G01*
X98500000Y-133900000D01*
G75*
G02*
X98300000Y-134100000I-200000J0D01*
G01*
X96800000Y-134100000D01*
G75*
G02*
X96600000Y-133900000I0J200000D01*
G01*
G37*
G36*
G01*
X121500000Y-137100000D02*
X121500000Y-136100000D01*
G75*
G02*
X121700000Y-135900000I200000J0D01*
G01*
X123200000Y-135900000D01*
G75*
G02*
X123400000Y-136100000I0J-200000D01*
G01*
X123400000Y-137100000D01*
G75*
G02*
X123200000Y-137300000I-200000J0D01*
G01*
X121700000Y-137300000D01*
G75*
G02*
X121500000Y-137100000I0J200000D01*
G01*
G37*
G36*
G01*
X121500000Y-133900000D02*
X121500000Y-132900000D01*
G75*
G02*
X121700000Y-132700000I200000J0D01*
G01*
X123200000Y-132700000D01*
G75*
G02*
X123400000Y-132900000I0J-200000D01*
G01*
X123400000Y-133900000D01*
G75*
G02*
X123200000Y-134100000I-200000J0D01*
G01*
X121700000Y-134100000D01*
G75*
G02*
X121500000Y-133900000I0J200000D01*
G01*
G37*
G36*
G01*
X116600000Y-137100000D02*
X116600000Y-136100000D01*
G75*
G02*
X116800000Y-135900000I200000J0D01*
G01*
X118300000Y-135900000D01*
G75*
G02*
X118500000Y-136100000I0J-200000D01*
G01*
X118500000Y-137100000D01*
G75*
G02*
X118300000Y-137300000I-200000J0D01*
G01*
X116800000Y-137300000D01*
G75*
G02*
X116600000Y-137100000I0J200000D01*
G01*
G37*
G36*
G01*
X116600000Y-133900000D02*
X116600000Y-132900000D01*
G75*
G02*
X116800000Y-132700000I200000J0D01*
G01*
X118300000Y-132700000D01*
G75*
G02*
X118500000Y-132900000I0J-200000D01*
G01*
X118500000Y-133900000D01*
G75*
G02*
X118300000Y-134100000I-200000J0D01*
G01*
X116800000Y-134100000D01*
G75*
G02*
X116600000Y-133900000I0J200000D01*
G01*
G37*
G36*
G01*
X141500000Y-137100000D02*
X141500000Y-136100000D01*
G75*
G02*
X141700000Y-135900000I200000J0D01*
G01*
X143200000Y-135900000D01*
G75*
G02*
X143400000Y-136100000I0J-200000D01*
G01*
X143400000Y-137100000D01*
G75*
G02*
X143200000Y-137300000I-200000J0D01*
G01*
X141700000Y-137300000D01*
G75*
G02*
X141500000Y-137100000I0J200000D01*
G01*
G37*
G36*
G01*
X141500000Y-133900000D02*
X141500000Y-132900000D01*
G75*
G02*
X141700000Y-132700000I200000J0D01*
G01*
X143200000Y-132700000D01*
G75*
G02*
X143400000Y-132900000I0J-200000D01*
G01*
X143400000Y-133900000D01*
G75*
G02*
X143200000Y-134100000I-200000J0D01*
G01*
X141700000Y-134100000D01*
G75*
G02*
X141500000Y-133900000I0J200000D01*
G01*
G37*
G36*
G01*
X136600000Y-137100000D02*
X136600000Y-136100000D01*
G75*
G02*
X136800000Y-135900000I200000J0D01*
G01*
X138300000Y-135900000D01*
G75*
G02*
X138500000Y-136100000I0J-200000D01*
G01*
X138500000Y-137100000D01*
G75*
G02*
X138300000Y-137300000I-200000J0D01*
G01*
X136800000Y-137300000D01*
G75*
G02*
X136600000Y-137100000I0J200000D01*
G01*
G37*
G36*
G01*
X136600000Y-133900000D02*
X136600000Y-132900000D01*
G75*
G02*
X136800000Y-132700000I200000J0D01*
G01*
X138300000Y-132700000D01*
G75*
G02*
X138500000Y-132900000I0J-200000D01*
G01*
X138500000Y-133900000D01*
G75*
G02*
X138300000Y-134100000I-200000J0D01*
G01*
X136800000Y-134100000D01*
G75*
G02*
X136600000Y-133900000I0J200000D01*
G01*
G37*
G36*
G01*
X236600000Y-133900000D02*
X236600000Y-132900000D01*
G75*
G02*
X236800000Y-132700000I200000J0D01*
G01*
X238300000Y-132700000D01*
G75*
G02*
X238500000Y-132900000I0J-200000D01*
G01*
X238500000Y-133900000D01*
G75*
G02*
X238300000Y-134100000I-200000J0D01*
G01*
X236800000Y-134100000D01*
G75*
G02*
X236600000Y-133900000I0J200000D01*
G01*
G37*
G36*
G01*
X236600000Y-137100000D02*
X236600000Y-136100000D01*
G75*
G02*
X236800000Y-135900000I200000J0D01*
G01*
X238300000Y-135900000D01*
G75*
G02*
X238500000Y-136100000I0J-200000D01*
G01*
X238500000Y-137100000D01*
G75*
G02*
X238300000Y-137300000I-200000J0D01*
G01*
X236800000Y-137300000D01*
G75*
G02*
X236600000Y-137100000I0J200000D01*
G01*
G37*
G36*
G01*
X241500000Y-133900000D02*
X241500000Y-132900000D01*
G75*
G02*
X241700000Y-132700000I200000J0D01*
G01*
X243200000Y-132700000D01*
G75*
G02*
X243400000Y-132900000I0J-200000D01*
G01*
X243400000Y-133900000D01*
G75*
G02*
X243200000Y-134100000I-200000J0D01*
G01*
X241700000Y-134100000D01*
G75*
G02*
X241500000Y-133900000I0J200000D01*
G01*
G37*
G36*
G01*
X241500000Y-137100000D02*
X241500000Y-136100000D01*
G75*
G02*
X241700000Y-135900000I200000J0D01*
G01*
X243200000Y-135900000D01*
G75*
G02*
X243400000Y-136100000I0J-200000D01*
G01*
X243400000Y-137100000D01*
G75*
G02*
X243200000Y-137300000I-200000J0D01*
G01*
X241700000Y-137300000D01*
G75*
G02*
X241500000Y-137100000I0J200000D01*
G01*
G37*
G36*
G01*
X221500000Y-137100000D02*
X221500000Y-136100000D01*
G75*
G02*
X221700000Y-135900000I200000J0D01*
G01*
X223200000Y-135900000D01*
G75*
G02*
X223400000Y-136100000I0J-200000D01*
G01*
X223400000Y-137100000D01*
G75*
G02*
X223200000Y-137300000I-200000J0D01*
G01*
X221700000Y-137300000D01*
G75*
G02*
X221500000Y-137100000I0J200000D01*
G01*
G37*
G36*
G01*
X221500000Y-133900000D02*
X221500000Y-132900000D01*
G75*
G02*
X221700000Y-132700000I200000J0D01*
G01*
X223200000Y-132700000D01*
G75*
G02*
X223400000Y-132900000I0J-200000D01*
G01*
X223400000Y-133900000D01*
G75*
G02*
X223200000Y-134100000I-200000J0D01*
G01*
X221700000Y-134100000D01*
G75*
G02*
X221500000Y-133900000I0J200000D01*
G01*
G37*
G36*
G01*
X216600000Y-137100000D02*
X216600000Y-136100000D01*
G75*
G02*
X216800000Y-135900000I200000J0D01*
G01*
X218300000Y-135900000D01*
G75*
G02*
X218500000Y-136100000I0J-200000D01*
G01*
X218500000Y-137100000D01*
G75*
G02*
X218300000Y-137300000I-200000J0D01*
G01*
X216800000Y-137300000D01*
G75*
G02*
X216600000Y-137100000I0J200000D01*
G01*
G37*
G36*
G01*
X216600000Y-133900000D02*
X216600000Y-132900000D01*
G75*
G02*
X216800000Y-132700000I200000J0D01*
G01*
X218300000Y-132700000D01*
G75*
G02*
X218500000Y-132900000I0J-200000D01*
G01*
X218500000Y-133900000D01*
G75*
G02*
X218300000Y-134100000I-200000J0D01*
G01*
X216800000Y-134100000D01*
G75*
G02*
X216600000Y-133900000I0J200000D01*
G01*
G37*
G36*
G01*
X201500000Y-137100000D02*
X201500000Y-136100000D01*
G75*
G02*
X201700000Y-135900000I200000J0D01*
G01*
X203200000Y-135900000D01*
G75*
G02*
X203400000Y-136100000I0J-200000D01*
G01*
X203400000Y-137100000D01*
G75*
G02*
X203200000Y-137300000I-200000J0D01*
G01*
X201700000Y-137300000D01*
G75*
G02*
X201500000Y-137100000I0J200000D01*
G01*
G37*
G36*
G01*
X201500000Y-133900000D02*
X201500000Y-132900000D01*
G75*
G02*
X201700000Y-132700000I200000J0D01*
G01*
X203200000Y-132700000D01*
G75*
G02*
X203400000Y-132900000I0J-200000D01*
G01*
X203400000Y-133900000D01*
G75*
G02*
X203200000Y-134100000I-200000J0D01*
G01*
X201700000Y-134100000D01*
G75*
G02*
X201500000Y-133900000I0J200000D01*
G01*
G37*
G36*
G01*
X196600000Y-137100000D02*
X196600000Y-136100000D01*
G75*
G02*
X196800000Y-135900000I200000J0D01*
G01*
X198300000Y-135900000D01*
G75*
G02*
X198500000Y-136100000I0J-200000D01*
G01*
X198500000Y-137100000D01*
G75*
G02*
X198300000Y-137300000I-200000J0D01*
G01*
X196800000Y-137300000D01*
G75*
G02*
X196600000Y-137100000I0J200000D01*
G01*
G37*
G36*
G01*
X196600000Y-133900000D02*
X196600000Y-132900000D01*
G75*
G02*
X196800000Y-132700000I200000J0D01*
G01*
X198300000Y-132700000D01*
G75*
G02*
X198500000Y-132900000I0J-200000D01*
G01*
X198500000Y-133900000D01*
G75*
G02*
X198300000Y-134100000I-200000J0D01*
G01*
X196800000Y-134100000D01*
G75*
G02*
X196600000Y-133900000I0J200000D01*
G01*
G37*
G36*
G01*
X181500000Y-137100000D02*
X181500000Y-136100000D01*
G75*
G02*
X181700000Y-135900000I200000J0D01*
G01*
X183200000Y-135900000D01*
G75*
G02*
X183400000Y-136100000I0J-200000D01*
G01*
X183400000Y-137100000D01*
G75*
G02*
X183200000Y-137300000I-200000J0D01*
G01*
X181700000Y-137300000D01*
G75*
G02*
X181500000Y-137100000I0J200000D01*
G01*
G37*
G36*
G01*
X181500000Y-133900000D02*
X181500000Y-132900000D01*
G75*
G02*
X181700000Y-132700000I200000J0D01*
G01*
X183200000Y-132700000D01*
G75*
G02*
X183400000Y-132900000I0J-200000D01*
G01*
X183400000Y-133900000D01*
G75*
G02*
X183200000Y-134100000I-200000J0D01*
G01*
X181700000Y-134100000D01*
G75*
G02*
X181500000Y-133900000I0J200000D01*
G01*
G37*
G36*
G01*
X176600000Y-137100000D02*
X176600000Y-136100000D01*
G75*
G02*
X176800000Y-135900000I200000J0D01*
G01*
X178300000Y-135900000D01*
G75*
G02*
X178500000Y-136100000I0J-200000D01*
G01*
X178500000Y-137100000D01*
G75*
G02*
X178300000Y-137300000I-200000J0D01*
G01*
X176800000Y-137300000D01*
G75*
G02*
X176600000Y-137100000I0J200000D01*
G01*
G37*
G36*
G01*
X176600000Y-133900000D02*
X176600000Y-132900000D01*
G75*
G02*
X176800000Y-132700000I200000J0D01*
G01*
X178300000Y-132700000D01*
G75*
G02*
X178500000Y-132900000I0J-200000D01*
G01*
X178500000Y-133900000D01*
G75*
G02*
X178300000Y-134100000I-200000J0D01*
G01*
X176800000Y-134100000D01*
G75*
G02*
X176600000Y-133900000I0J200000D01*
G01*
G37*
G36*
G01*
X156600000Y-133900000D02*
X156600000Y-132900000D01*
G75*
G02*
X156800000Y-132700000I200000J0D01*
G01*
X158300000Y-132700000D01*
G75*
G02*
X158500000Y-132900000I0J-200000D01*
G01*
X158500000Y-133900000D01*
G75*
G02*
X158300000Y-134100000I-200000J0D01*
G01*
X156800000Y-134100000D01*
G75*
G02*
X156600000Y-133900000I0J200000D01*
G01*
G37*
G36*
G01*
X156600000Y-137100000D02*
X156600000Y-136100000D01*
G75*
G02*
X156800000Y-135900000I200000J0D01*
G01*
X158300000Y-135900000D01*
G75*
G02*
X158500000Y-136100000I0J-200000D01*
G01*
X158500000Y-137100000D01*
G75*
G02*
X158300000Y-137300000I-200000J0D01*
G01*
X156800000Y-137300000D01*
G75*
G02*
X156600000Y-137100000I0J200000D01*
G01*
G37*
G36*
G01*
X161500000Y-133900000D02*
X161500000Y-132900000D01*
G75*
G02*
X161700000Y-132700000I200000J0D01*
G01*
X163200000Y-132700000D01*
G75*
G02*
X163400000Y-132900000I0J-200000D01*
G01*
X163400000Y-133900000D01*
G75*
G02*
X163200000Y-134100000I-200000J0D01*
G01*
X161700000Y-134100000D01*
G75*
G02*
X161500000Y-133900000I0J200000D01*
G01*
G37*
G36*
G01*
X161500000Y-137100000D02*
X161500000Y-136100000D01*
G75*
G02*
X161700000Y-135900000I200000J0D01*
G01*
X163200000Y-135900000D01*
G75*
G02*
X163400000Y-136100000I0J-200000D01*
G01*
X163400000Y-137100000D01*
G75*
G02*
X163200000Y-137300000I-200000J0D01*
G01*
X161700000Y-137300000D01*
G75*
G02*
X161500000Y-137100000I0J200000D01*
G01*
G37*
G36*
G01*
X227975000Y-104662500D02*
X227975000Y-105337500D01*
G75*
G02*
X227637500Y-105675000I-337500J0D01*
G01*
X226862500Y-105675000D01*
G75*
G02*
X226525000Y-105337500I0J337500D01*
G01*
X226525000Y-104662500D01*
G75*
G02*
X226862500Y-104325000I337500J0D01*
G01*
X227637500Y-104325000D01*
G75*
G02*
X227975000Y-104662500I0J-337500D01*
G01*
G37*
G36*
G01*
X229725000Y-104662500D02*
X229725000Y-105337500D01*
G75*
G02*
X229387500Y-105675000I-337500J0D01*
G01*
X228612500Y-105675000D01*
G75*
G02*
X228275000Y-105337500I0J337500D01*
G01*
X228275000Y-104662500D01*
G75*
G02*
X228612500Y-104325000I337500J0D01*
G01*
X229387500Y-104325000D01*
G75*
G02*
X229725000Y-104662500I0J-337500D01*
G01*
G37*
G36*
G01*
X155975000Y-104662500D02*
X155975000Y-105337500D01*
G75*
G02*
X155637500Y-105675000I-337500J0D01*
G01*
X154862500Y-105675000D01*
G75*
G02*
X154525000Y-105337500I0J337500D01*
G01*
X154525000Y-104662500D01*
G75*
G02*
X154862500Y-104325000I337500J0D01*
G01*
X155637500Y-104325000D01*
G75*
G02*
X155975000Y-104662500I0J-337500D01*
G01*
G37*
G36*
G01*
X157725000Y-104662500D02*
X157725000Y-105337500D01*
G75*
G02*
X157387500Y-105675000I-337500J0D01*
G01*
X156612500Y-105675000D01*
G75*
G02*
X156275000Y-105337500I0J337500D01*
G01*
X156275000Y-104662500D01*
G75*
G02*
X156612500Y-104325000I337500J0D01*
G01*
X157387500Y-104325000D01*
G75*
G02*
X157725000Y-104662500I0J-337500D01*
G01*
G37*
G36*
G01*
X83975000Y-104662500D02*
X83975000Y-105337500D01*
G75*
G02*
X83637500Y-105675000I-337500J0D01*
G01*
X82862500Y-105675000D01*
G75*
G02*
X82525000Y-105337500I0J337500D01*
G01*
X82525000Y-104662500D01*
G75*
G02*
X82862500Y-104325000I337500J0D01*
G01*
X83637500Y-104325000D01*
G75*
G02*
X83975000Y-104662500I0J-337500D01*
G01*
G37*
G36*
G01*
X85725000Y-104662500D02*
X85725000Y-105337500D01*
G75*
G02*
X85387500Y-105675000I-337500J0D01*
G01*
X84612500Y-105675000D01*
G75*
G02*
X84275000Y-105337500I0J337500D01*
G01*
X84275000Y-104662500D01*
G75*
G02*
X84612500Y-104325000I337500J0D01*
G01*
X85387500Y-104325000D01*
G75*
G02*
X85725000Y-104662500I0J-337500D01*
G01*
G37*
G36*
G01*
X235150000Y-107337500D02*
X235150000Y-106662500D01*
G75*
G02*
X235487500Y-106325000I337500J0D01*
G01*
X236262500Y-106325000D01*
G75*
G02*
X236600000Y-106662500I0J-337500D01*
G01*
X236600000Y-107337500D01*
G75*
G02*
X236262500Y-107675000I-337500J0D01*
G01*
X235487500Y-107675000D01*
G75*
G02*
X235150000Y-107337500I0J337500D01*
G01*
G37*
G36*
G01*
X233400000Y-107337500D02*
X233400000Y-106662500D01*
G75*
G02*
X233737500Y-106325000I337500J0D01*
G01*
X234512500Y-106325000D01*
G75*
G02*
X234850000Y-106662500I0J-337500D01*
G01*
X234850000Y-107337500D01*
G75*
G02*
X234512500Y-107675000I-337500J0D01*
G01*
X233737500Y-107675000D01*
G75*
G02*
X233400000Y-107337500I0J337500D01*
G01*
G37*
G36*
G01*
X163150000Y-107337500D02*
X163150000Y-106662500D01*
G75*
G02*
X163487500Y-106325000I337500J0D01*
G01*
X164262500Y-106325000D01*
G75*
G02*
X164600000Y-106662500I0J-337500D01*
G01*
X164600000Y-107337500D01*
G75*
G02*
X164262500Y-107675000I-337500J0D01*
G01*
X163487500Y-107675000D01*
G75*
G02*
X163150000Y-107337500I0J337500D01*
G01*
G37*
G36*
G01*
X161400000Y-107337500D02*
X161400000Y-106662500D01*
G75*
G02*
X161737500Y-106325000I337500J0D01*
G01*
X162512500Y-106325000D01*
G75*
G02*
X162850000Y-106662500I0J-337500D01*
G01*
X162850000Y-107337500D01*
G75*
G02*
X162512500Y-107675000I-337500J0D01*
G01*
X161737500Y-107675000D01*
G75*
G02*
X161400000Y-107337500I0J337500D01*
G01*
G37*
G36*
G01*
X91275000Y-107337500D02*
X91275000Y-106662500D01*
G75*
G02*
X91612500Y-106325000I337500J0D01*
G01*
X92387500Y-106325000D01*
G75*
G02*
X92725000Y-106662500I0J-337500D01*
G01*
X92725000Y-107337500D01*
G75*
G02*
X92387500Y-107675000I-337500J0D01*
G01*
X91612500Y-107675000D01*
G75*
G02*
X91275000Y-107337500I0J337500D01*
G01*
G37*
G36*
G01*
X89525000Y-107337500D02*
X89525000Y-106662500D01*
G75*
G02*
X89862500Y-106325000I337500J0D01*
G01*
X90637500Y-106325000D01*
G75*
G02*
X90975000Y-106662500I0J-337500D01*
G01*
X90975000Y-107337500D01*
G75*
G02*
X90637500Y-107675000I-337500J0D01*
G01*
X89862500Y-107675000D01*
G75*
G02*
X89525000Y-107337500I0J337500D01*
G01*
G37*
G36*
G01*
X235350000Y-104400000D02*
X235350000Y-103600000D01*
G75*
G02*
X235550000Y-103400000I200000J0D01*
G01*
X237450000Y-103400000D01*
G75*
G02*
X237650000Y-103600000I0J-200000D01*
G01*
X237650000Y-104400000D01*
G75*
G02*
X237450000Y-104600000I-200000J0D01*
G01*
X235550000Y-104600000D01*
G75*
G02*
X235350000Y-104400000I0J200000D01*
G01*
G37*
G36*
G01*
X232350000Y-105350000D02*
X232350000Y-104550000D01*
G75*
G02*
X232550000Y-104350000I200000J0D01*
G01*
X234450000Y-104350000D01*
G75*
G02*
X234650000Y-104550000I0J-200000D01*
G01*
X234650000Y-105350000D01*
G75*
G02*
X234450000Y-105550000I-200000J0D01*
G01*
X232550000Y-105550000D01*
G75*
G02*
X232350000Y-105350000I0J200000D01*
G01*
G37*
G36*
G01*
X232350000Y-103450000D02*
X232350000Y-102650000D01*
G75*
G02*
X232550000Y-102450000I200000J0D01*
G01*
X234450000Y-102450000D01*
G75*
G02*
X234650000Y-102650000I0J-200000D01*
G01*
X234650000Y-103450000D01*
G75*
G02*
X234450000Y-103650000I-200000J0D01*
G01*
X232550000Y-103650000D01*
G75*
G02*
X232350000Y-103450000I0J200000D01*
G01*
G37*
G36*
G01*
X163350000Y-104400000D02*
X163350000Y-103600000D01*
G75*
G02*
X163550000Y-103400000I200000J0D01*
G01*
X165450000Y-103400000D01*
G75*
G02*
X165650000Y-103600000I0J-200000D01*
G01*
X165650000Y-104400000D01*
G75*
G02*
X165450000Y-104600000I-200000J0D01*
G01*
X163550000Y-104600000D01*
G75*
G02*
X163350000Y-104400000I0J200000D01*
G01*
G37*
G36*
G01*
X160350000Y-105350000D02*
X160350000Y-104550000D01*
G75*
G02*
X160550000Y-104350000I200000J0D01*
G01*
X162450000Y-104350000D01*
G75*
G02*
X162650000Y-104550000I0J-200000D01*
G01*
X162650000Y-105350000D01*
G75*
G02*
X162450000Y-105550000I-200000J0D01*
G01*
X160550000Y-105550000D01*
G75*
G02*
X160350000Y-105350000I0J200000D01*
G01*
G37*
G36*
G01*
X160350000Y-103450000D02*
X160350000Y-102650000D01*
G75*
G02*
X160550000Y-102450000I200000J0D01*
G01*
X162450000Y-102450000D01*
G75*
G02*
X162650000Y-102650000I0J-200000D01*
G01*
X162650000Y-103450000D01*
G75*
G02*
X162450000Y-103650000I-200000J0D01*
G01*
X160550000Y-103650000D01*
G75*
G02*
X160350000Y-103450000I0J200000D01*
G01*
G37*
G36*
G01*
X91350000Y-104400000D02*
X91350000Y-103600000D01*
G75*
G02*
X91550000Y-103400000I200000J0D01*
G01*
X93450000Y-103400000D01*
G75*
G02*
X93650000Y-103600000I0J-200000D01*
G01*
X93650000Y-104400000D01*
G75*
G02*
X93450000Y-104600000I-200000J0D01*
G01*
X91550000Y-104600000D01*
G75*
G02*
X91350000Y-104400000I0J200000D01*
G01*
G37*
G36*
G01*
X88350000Y-105350000D02*
X88350000Y-104550000D01*
G75*
G02*
X88550000Y-104350000I200000J0D01*
G01*
X90450000Y-104350000D01*
G75*
G02*
X90650000Y-104550000I0J-200000D01*
G01*
X90650000Y-105350000D01*
G75*
G02*
X90450000Y-105550000I-200000J0D01*
G01*
X88550000Y-105550000D01*
G75*
G02*
X88350000Y-105350000I0J200000D01*
G01*
G37*
G36*
G01*
X88350000Y-103450000D02*
X88350000Y-102650000D01*
G75*
G02*
X88550000Y-102450000I200000J0D01*
G01*
X90450000Y-102450000D01*
G75*
G02*
X90650000Y-102650000I0J-200000D01*
G01*
X90650000Y-103450000D01*
G75*
G02*
X90450000Y-103650000I-200000J0D01*
G01*
X88550000Y-103650000D01*
G75*
G02*
X88350000Y-103450000I0J200000D01*
G01*
G37*
D12*
X179270000Y-105000000D03*
G36*
G01*
X175630000Y-105900000D02*
X175630000Y-104100000D01*
G75*
G02*
X175830000Y-103900000I200000J0D01*
G01*
X177630000Y-103900000D01*
G75*
G02*
X177830000Y-104100000I0J-200000D01*
G01*
X177830000Y-105900000D01*
G75*
G02*
X177630000Y-106100000I-200000J0D01*
G01*
X175830000Y-106100000D01*
G75*
G02*
X175630000Y-105900000I0J200000D01*
G01*
G37*
X251270000Y-105000000D03*
G36*
G01*
X247630000Y-105900000D02*
X247630000Y-104100000D01*
G75*
G02*
X247830000Y-103900000I200000J0D01*
G01*
X249630000Y-103900000D01*
G75*
G02*
X249830000Y-104100000I0J-200000D01*
G01*
X249830000Y-105900000D01*
G75*
G02*
X249630000Y-106100000I-200000J0D01*
G01*
X247830000Y-106100000D01*
G75*
G02*
X247630000Y-105900000I0J200000D01*
G01*
G37*
X215270000Y-105000000D03*
G36*
G01*
X211630000Y-105900000D02*
X211630000Y-104100000D01*
G75*
G02*
X211830000Y-103900000I200000J0D01*
G01*
X213630000Y-103900000D01*
G75*
G02*
X213830000Y-104100000I0J-200000D01*
G01*
X213830000Y-105900000D01*
G75*
G02*
X213630000Y-106100000I-200000J0D01*
G01*
X211830000Y-106100000D01*
G75*
G02*
X211630000Y-105900000I0J200000D01*
G01*
G37*
X143270000Y-105000000D03*
G36*
G01*
X139630000Y-105900000D02*
X139630000Y-104100000D01*
G75*
G02*
X139830000Y-103900000I200000J0D01*
G01*
X141630000Y-103900000D01*
G75*
G02*
X141830000Y-104100000I0J-200000D01*
G01*
X141830000Y-105900000D01*
G75*
G02*
X141630000Y-106100000I-200000J0D01*
G01*
X139830000Y-106100000D01*
G75*
G02*
X139630000Y-105900000I0J200000D01*
G01*
G37*
X107270000Y-105000000D03*
G36*
G01*
X103630000Y-105900000D02*
X103630000Y-104100000D01*
G75*
G02*
X103830000Y-103900000I200000J0D01*
G01*
X105630000Y-103900000D01*
G75*
G02*
X105830000Y-104100000I0J-200000D01*
G01*
X105830000Y-105900000D01*
G75*
G02*
X105630000Y-106100000I-200000J0D01*
G01*
X103830000Y-106100000D01*
G75*
G02*
X103630000Y-105900000I0J200000D01*
G01*
G37*
X71270000Y-105000000D03*
G36*
G01*
X67630000Y-105900000D02*
X67630000Y-104100000D01*
G75*
G02*
X67830000Y-103900000I200000J0D01*
G01*
X69630000Y-103900000D01*
G75*
G02*
X69830000Y-104100000I0J-200000D01*
G01*
X69830000Y-105900000D01*
G75*
G02*
X69630000Y-106100000I-200000J0D01*
G01*
X67830000Y-106100000D01*
G75*
G02*
X67630000Y-105900000I0J200000D01*
G01*
G37*
D10*
X56000000Y-91000000D03*
X56000000Y-93000000D03*
X56000000Y-95000000D03*
X56000000Y-97000000D03*
X56000000Y-99000000D03*
X56000000Y-101000000D03*
X56000000Y-103000000D03*
X56000000Y-105000000D03*
G36*
G01*
X56741668Y-107800000D02*
X55258332Y-107800000D01*
G75*
G02*
X54925000Y-107466668I0J333332D01*
G01*
X54925000Y-106533332D01*
G75*
G02*
X55258332Y-106200000I333332J0D01*
G01*
X56741668Y-106200000D01*
G75*
G02*
X57075000Y-106533332I0J-333332D01*
G01*
X57075000Y-107466668D01*
G75*
G02*
X56741668Y-107800000I-333332J0D01*
G01*
G37*
D11*
X153000000Y-112000000D03*
X63000000Y-112000000D03*
M02*
