G04 #@! TF.GenerationSoftware,KiCad,Pcbnew,(5.1.7)-1*
G04 #@! TF.CreationDate,2021-03-22T01:50:53-04:00*
G04 #@! TF.ProjectId,Circuit-AirSensor-Right,43697263-7569-4742-9d41-697253656e73,rev?*
G04 #@! TF.SameCoordinates,Original*
G04 #@! TF.FileFunction,Soldermask,Bot*
G04 #@! TF.FilePolarity,Negative*
%FSLAX46Y46*%
G04 Gerber Fmt 4.6, Leading zero omitted, Abs format (unit mm)*
G04 Created by KiCad (PCBNEW (5.1.7)-1) date 2021-03-22 01:50:53*
%MOMM*%
%LPD*%
G01*
G04 APERTURE LIST*
%ADD10O,2.150000X1.600000*%
%ADD11C,3.600000*%
%ADD12C,2.200000*%
G04 APERTURE END LIST*
D10*
X56000000Y-113000000D03*
X56000000Y-115000000D03*
X56000000Y-117000000D03*
G36*
G01*
X56741668Y-119800000D02*
X55258332Y-119800000D01*
G75*
G02*
X54925000Y-119466668I0J333332D01*
G01*
X54925000Y-118533332D01*
G75*
G02*
X55258332Y-118200000I333332J0D01*
G01*
X56741668Y-118200000D01*
G75*
G02*
X57075000Y-118533332I0J-333332D01*
G01*
X57075000Y-119466668D01*
G75*
G02*
X56741668Y-119800000I-333332J0D01*
G01*
G37*
D11*
X198000000Y-128000000D03*
X108000000Y-128000000D03*
X243000000Y-112000000D03*
D12*
X179270000Y-105000000D03*
G36*
G01*
X175630000Y-105900000D02*
X175630000Y-104100000D01*
G75*
G02*
X175830000Y-103900000I200000J0D01*
G01*
X177630000Y-103900000D01*
G75*
G02*
X177830000Y-104100000I0J-200000D01*
G01*
X177830000Y-105900000D01*
G75*
G02*
X177630000Y-106100000I-200000J0D01*
G01*
X175830000Y-106100000D01*
G75*
G02*
X175630000Y-105900000I0J200000D01*
G01*
G37*
X251270000Y-105000000D03*
G36*
G01*
X247630000Y-105900000D02*
X247630000Y-104100000D01*
G75*
G02*
X247830000Y-103900000I200000J0D01*
G01*
X249630000Y-103900000D01*
G75*
G02*
X249830000Y-104100000I0J-200000D01*
G01*
X249830000Y-105900000D01*
G75*
G02*
X249630000Y-106100000I-200000J0D01*
G01*
X247830000Y-106100000D01*
G75*
G02*
X247630000Y-105900000I0J200000D01*
G01*
G37*
X215270000Y-105000000D03*
G36*
G01*
X211630000Y-105900000D02*
X211630000Y-104100000D01*
G75*
G02*
X211830000Y-103900000I200000J0D01*
G01*
X213630000Y-103900000D01*
G75*
G02*
X213830000Y-104100000I0J-200000D01*
G01*
X213830000Y-105900000D01*
G75*
G02*
X213630000Y-106100000I-200000J0D01*
G01*
X211830000Y-106100000D01*
G75*
G02*
X211630000Y-105900000I0J200000D01*
G01*
G37*
X143270000Y-105000000D03*
G36*
G01*
X139630000Y-105900000D02*
X139630000Y-104100000D01*
G75*
G02*
X139830000Y-103900000I200000J0D01*
G01*
X141630000Y-103900000D01*
G75*
G02*
X141830000Y-104100000I0J-200000D01*
G01*
X141830000Y-105900000D01*
G75*
G02*
X141630000Y-106100000I-200000J0D01*
G01*
X139830000Y-106100000D01*
G75*
G02*
X139630000Y-105900000I0J200000D01*
G01*
G37*
X107270000Y-105000000D03*
G36*
G01*
X103630000Y-105900000D02*
X103630000Y-104100000D01*
G75*
G02*
X103830000Y-103900000I200000J0D01*
G01*
X105630000Y-103900000D01*
G75*
G02*
X105830000Y-104100000I0J-200000D01*
G01*
X105830000Y-105900000D01*
G75*
G02*
X105630000Y-106100000I-200000J0D01*
G01*
X103830000Y-106100000D01*
G75*
G02*
X103630000Y-105900000I0J200000D01*
G01*
G37*
X71270000Y-105000000D03*
G36*
G01*
X67630000Y-105900000D02*
X67630000Y-104100000D01*
G75*
G02*
X67830000Y-103900000I200000J0D01*
G01*
X69630000Y-103900000D01*
G75*
G02*
X69830000Y-104100000I0J-200000D01*
G01*
X69830000Y-105900000D01*
G75*
G02*
X69630000Y-106100000I-200000J0D01*
G01*
X67830000Y-106100000D01*
G75*
G02*
X67630000Y-105900000I0J200000D01*
G01*
G37*
D10*
X56000000Y-91000000D03*
X56000000Y-93000000D03*
X56000000Y-95000000D03*
X56000000Y-97000000D03*
X56000000Y-99000000D03*
X56000000Y-101000000D03*
X56000000Y-103000000D03*
X56000000Y-105000000D03*
G36*
G01*
X56741668Y-107800000D02*
X55258332Y-107800000D01*
G75*
G02*
X54925000Y-107466668I0J333332D01*
G01*
X54925000Y-106533332D01*
G75*
G02*
X55258332Y-106200000I333332J0D01*
G01*
X56741668Y-106200000D01*
G75*
G02*
X57075000Y-106533332I0J-333332D01*
G01*
X57075000Y-107466668D01*
G75*
G02*
X56741668Y-107800000I-333332J0D01*
G01*
G37*
D11*
X153000000Y-112000000D03*
X63000000Y-112000000D03*
M02*
