M48
; DRILL file {KiCad (5.1.7)-1} date 03/22/21 01:50:56
; FORMAT={-:-/ absolute / inch / decimal}
; #@! TF.CreationDate,2021-03-22T01:50:56-04:00
; #@! TF.GenerationSoftware,Kicad,Pcbnew,(5.1.7)-1
; #@! TF.FileFunction,Plated,1,2,PTH
FMAT,2
INCH
T1C0.0157
T2C0.0295
T3C0.0354
%
G90
G05
T1
X2.0472Y-4.7638
X2.4016Y-3.937
X2.5197Y-3.8976
X2.5984Y-4.1339
X2.8346Y-5.2559
X3.3071Y-4.2126
X3.3858Y-5.3937
X3.4272Y-4.1319
X3.4646Y-4.252
X3.622Y-5.2559
X4.4094Y-5.2559
X4.9606Y-5.3937
X5.1969Y-5.2559
X5.4331Y-4.1339
X5.9843Y-5.2559
X6.1417Y-4.2126
X6.2618Y-4.1319
X6.2992Y-4.252
X6.5354Y-5.3937
X6.7717Y-5.2559
X7.5591Y-5.2559
X8.1102Y-5.3937
X8.2677Y-4.1339
X8.3465Y-5.2559
X8.9764Y-4.2126
X9.0965Y-4.1319
X9.1339Y-4.252
X9.1339Y-5.2559
X9.6457Y-5.3543
X9.9213Y-4.252
T2
X2.2047Y-4.4488
X2.2047Y-4.5276
X2.2047Y-4.6063
X2.2047Y-4.685
X2.2047Y-3.5827
X2.2047Y-3.6614
X2.2047Y-3.7402
X2.2047Y-3.8189
X2.2047Y-3.8976
X2.2047Y-3.9764
X2.2047Y-4.0551
X2.2047Y-4.1339
X2.2047Y-4.2126
T3
X2.7059Y-4.1339
X2.8059Y-4.1339
X4.1232Y-4.1339
X4.2232Y-4.1339
X5.5406Y-4.1339
X5.6406Y-4.1339
X8.3752Y-4.1339
X8.4752Y-4.1339
X9.7925Y-4.1339
X9.8925Y-4.1339
X6.9579Y-4.1339
X7.0579Y-4.1339
T0
M30
