M48
; DRILL file {KiCad (5.1.7)-1} date 03/24/21 01:06:37
; FORMAT={-:-/ absolute / inch / decimal}
; #@! TF.CreationDate,2021-03-24T01:06:37-04:00
; #@! TF.GenerationSoftware,Kicad,Pcbnew,(5.1.7)-1
; #@! TF.FileFunction,Plated,1,2,PTH
FMAT,2
INCH
T1C0.0157
T2C0.0236
T3C0.0295
T4C0.0394
T5C0.0433
%
G90
G05
T1
X-3.575Y-5.825
X-3.525Y-4.65
X-3.525Y-4.725
X-3.45Y-4.575
X-3.45Y-4.625
X-3.4Y-4.525
X-3.125Y-4.6
X-2.7756Y-5.2559
X-2.525Y-5.2
X-2.4409Y-4.3898
X-2.35Y-5.2
X-2.185Y-4.6063
X-2.1457Y-5.0591
X-1.9291Y-2.7559
X-1.3386Y-4.3898
X-1.3189Y-5.6496
X-1.25Y-5.175
X-0.9843Y-5.2953
X-0.975Y-5.5
X-0.8268Y-2.7559
X-0.525Y-5.325
X-0.525Y-5.375
X-0.525Y-5.425
X-0.475Y-5.225
X-0.425Y-5.0
X-0.2362Y-4.3898
X-0.175Y-5.45
X-0.15Y-5.4
X-0.125Y-5.35
X-0.0197Y-5.2953
X0.2756Y-2.7559
X0.8661Y-4.3898
X1.2402Y-6.1024
X1.2992Y-5.0591
X1.378Y-2.7559
X1.7913Y-4.5866
X1.9685Y-4.3898
X2.2638Y-5.0591
X2.4803Y-2.7559
X3.0709Y-4.3898
X3.3071Y-5.2953
X3.5827Y-2.7559
X3.875Y-5.325
X3.875Y-5.375
X3.875Y-5.425
X3.925Y-5.225
X3.975Y-5.0
X4.1732Y-4.3898
X4.225Y-5.45
X4.25Y-5.4
X4.275Y-5.35
X4.3898Y-5.2953
X4.6457Y-0.5315
X4.685Y-2.7559
X4.7638Y-6.063
X4.8009Y-0.8094
X4.825Y-5.575
X4.875Y-5.5
X4.9235Y-0.8094
X4.9409Y-0.2362
X5.0Y-0.4134
X5.025Y-5.85
X5.2756Y-4.3898
X5.375Y-5.35
X5.5709Y-0.8563
X5.625Y-5.6
X5.689Y-0.8563
X5.689Y-5.0394
X5.7185Y-0.5118
X5.7874Y-2.7559
X5.8071Y-0.5512
X5.8465Y-0.5512
X5.85Y-5.175
X5.9Y-5.125
X5.925Y-5.4
X5.935Y-0.5118
X6.025Y-5.125
X6.075Y-5.175
X6.2008Y-4.5866
X6.2992Y-0.4134
X6.378Y-4.3898
X6.4173Y-0.4134
X6.475Y-5.7
X6.475Y-5.775
X6.625Y-5.45
X6.625Y-5.65
X6.6732Y-5.0394
X6.7126Y-0.2362
X6.8898Y-2.7559
X6.8898Y-6.063
X6.95Y-5.5
X7.0079Y-0.5315
X7.4803Y-4.3898
X7.7165Y-5.2953
X7.9921Y-2.7559
X8.275Y-5.325
X8.275Y-5.375
X8.275Y-5.425
X8.325Y-5.225
X8.375Y-5.0
X8.5827Y-4.3898
X8.625Y-5.45
X8.65Y-5.4
X8.675Y-5.35
X8.7992Y-5.2953
X9.0945Y-2.7559
X9.685Y-4.3898
X10.1181Y-5.0591
X10.1969Y-2.7559
X10.6102Y-4.5866
X10.7874Y-4.3898
X10.9843Y-6.1024
X11.0827Y-5.0591
X11.2992Y-2.7559
X11.8898Y-4.3898
X12.126Y-5.2953
X12.4016Y-2.7559
X12.725Y-5.225
X12.775Y-5.0
X12.9921Y-4.3898
X13.189Y-5.2953
X13.5039Y-2.7559
X14.0Y-5.5
X14.0945Y-4.3898
X14.2323Y-5.6496
X14.5866Y-4.626
X14.6063Y-2.7559
X14.6735Y-4.8689
X15.125Y-4.45
X15.175Y-4.5
X15.1969Y-4.626
X15.2165Y-5.8465
T3
X15.0197Y-5.1181
X15.0197Y-5.1969
X15.0197Y-5.2756
X15.0197Y-5.3543
X15.0197Y-5.4331
X15.0197Y-5.5118
X15.0197Y-5.5906
X15.0197Y-5.6693
X15.0197Y-5.748
X-3.3661Y-5.1181
X-3.3661Y-5.1969
X-3.3661Y-5.2756
X-3.3661Y-5.3543
X-3.3661Y-5.4331
X-3.3661Y-5.5118
X-3.3661Y-5.5906
X-3.3661Y-5.6693
X-3.3661Y-5.748
X-3.3661Y-4.6654
X-3.3661Y-4.7441
X-3.3661Y-4.8228
X-3.3661Y-4.9016
X15.0197Y-4.6654
X15.0197Y-4.7441
X15.0197Y-4.8228
X15.0197Y-4.9016
T4
X5.0394Y-5.5
X5.0394Y-5.6
X-3.1201Y-4.9803
X-3.0201Y-4.9803
X-2.9201Y-4.9803
X14.5Y-0.7125
X14.5Y-0.8125
X14.6Y-0.7125
X14.6Y-0.8125
X14.7Y-0.7125
X14.7Y-0.8125
X14.8Y-0.7125
X14.8Y-0.8125
X14.9Y-0.7125
X14.9Y-0.8125
X14.5736Y-4.9803
X14.6736Y-4.9803
X14.7736Y-4.9803
T5
X5.25Y-5.25
X5.25Y-5.85
X5.35Y-5.25
X5.35Y-5.45
X5.35Y-5.55
X5.35Y-5.75
X5.35Y-5.85
X5.45Y-5.25
X5.45Y-5.85
X5.55Y-5.25
X5.55Y-5.75
X5.55Y-5.85
X5.65Y-5.25
X5.65Y-5.75
X5.65Y-5.85
X5.75Y-5.25
X5.75Y-5.75
X5.75Y-5.85
X5.85Y-5.25
X5.85Y-5.85
X5.95Y-5.25
X5.95Y-5.85
X6.05Y-5.25
X6.05Y-5.85
X6.15Y-5.25
X6.15Y-5.85
X6.25Y-5.25
X6.25Y-5.85
X6.35Y-5.25
X6.35Y-5.85
X6.45Y-5.25
X6.45Y-5.85
X6.55Y-5.25
X6.55Y-5.35
X6.55Y-5.45
X6.55Y-5.55
X6.55Y-5.65
X6.55Y-5.75
X6.55Y-5.85
T2
G00X5.6567Y-0.2421
M15
G01X5.6567Y-0.2657
M16
G05
G00X5.6567Y-0.3969
M15
G01X5.6567Y-0.4402
M16
G05
G00X5.9969Y-0.2421
M15
G01X5.9969Y-0.2657
M16
G05
G00X5.9969Y-0.3969
M15
G01X5.9969Y-0.4402
M16
G05
T4
G00X5.2144Y-0.4528
M15
G01X5.1356Y-0.4528
M16
G05
G00X5.2144Y-0.689
M15
G01X5.1356Y-0.689
M16
G05
G00X5.36Y-0.5315
M15
G01X5.36Y-0.6102
M16
G05
T0
M30
