G04 #@! TF.GenerationSoftware,KiCad,Pcbnew,(5.1.7)-1*
G04 #@! TF.CreationDate,2021-02-28T23:21:40-05:00*
G04 #@! TF.ProjectId,OpeNITHM-full,4f70654e-4954-4484-9d2d-66756c6c2e6b,rev?*
G04 #@! TF.SameCoordinates,Original*
G04 #@! TF.FileFunction,Soldermask,Top*
G04 #@! TF.FilePolarity,Negative*
%FSLAX46Y46*%
G04 Gerber Fmt 4.6, Leading zero omitted, Abs format (unit mm)*
G04 Created by KiCad (PCBNEW (5.1.7)-1) date 2021-02-28 23:21:40*
%MOMM*%
%LPD*%
G01*
G04 APERTURE LIST*
%ADD10O,1.102000X1.702000*%
%ADD11C,0.752000*%
%ADD12O,1.102000X2.202000*%
%ADD13O,1.802000X1.802000*%
%ADD14C,1.702000*%
%ADD15O,1.852000X1.302000*%
%ADD16C,3.302000*%
%ADD17C,0.100000*%
G04 APERTURE END LIST*
D10*
X152320000Y-6450000D03*
D11*
X150890000Y-10100000D03*
D10*
X143680000Y-6450000D03*
D11*
X145110000Y-10100000D03*
D12*
X143680000Y-10630000D03*
X152320000Y-10630000D03*
D13*
X370170000Y-126500000D03*
X372710000Y-126500000D03*
G36*
G01*
X374400000Y-125599000D02*
X376100000Y-125599000D01*
G75*
G02*
X376151000Y-125650000I0J-51000D01*
G01*
X376151000Y-127350000D01*
G75*
G02*
X376100000Y-127401000I-51000J0D01*
G01*
X374400000Y-127401000D01*
G75*
G02*
X374349000Y-127350000I0J51000D01*
G01*
X374349000Y-125650000D01*
G75*
G02*
X374400000Y-125599000I51000J0D01*
G01*
G37*
X-79250000Y-126500000D03*
X-76710000Y-126500000D03*
G36*
G01*
X-75020000Y-125599000D02*
X-73320000Y-125599000D01*
G75*
G02*
X-73269000Y-125650000I0J-51000D01*
G01*
X-73269000Y-127350000D01*
G75*
G02*
X-73320000Y-127401000I-51000J0D01*
G01*
X-75020000Y-127401000D01*
G75*
G02*
X-75071000Y-127350000I0J51000D01*
G01*
X-75071000Y-125650000D01*
G75*
G02*
X-75020000Y-125599000I51000J0D01*
G01*
G37*
X368300000Y-18097500D03*
X368300000Y-20637500D03*
X370840000Y-18097500D03*
X370840000Y-20637500D03*
X373380000Y-18097500D03*
X373380000Y-20637500D03*
X375920000Y-18097500D03*
X375920000Y-20637500D03*
X378460000Y-18097500D03*
G36*
G01*
X379310000Y-21538500D02*
X377610000Y-21538500D01*
G75*
G02*
X377559000Y-21487500I0J51000D01*
G01*
X377559000Y-19787500D01*
G75*
G02*
X377610000Y-19736500I51000J0D01*
G01*
X379310000Y-19736500D01*
G75*
G02*
X379361000Y-19787500I0J-51000D01*
G01*
X379361000Y-21487500D01*
G75*
G02*
X379310000Y-21538500I-51000J0D01*
G01*
G37*
D14*
X135890000Y-140970000D03*
X135890000Y-138430000D03*
G36*
G01*
X132499000Y-134150000D02*
X132499000Y-132550000D01*
G75*
G02*
X132550000Y-132499000I51000J0D01*
G01*
X134150000Y-132499000D01*
G75*
G02*
X134201000Y-132550000I0J-51000D01*
G01*
X134201000Y-134150000D01*
G75*
G02*
X134150000Y-134201000I-51000J0D01*
G01*
X132550000Y-134201000D01*
G75*
G02*
X132499000Y-134150000I0J51000D01*
G01*
G37*
X135890000Y-133350000D03*
X138430000Y-133350000D03*
X140970000Y-133350000D03*
X143510000Y-133350000D03*
X146050000Y-133350000D03*
X148590000Y-133350000D03*
X151130000Y-133350000D03*
X153670000Y-133350000D03*
X156210000Y-133350000D03*
X158750000Y-133350000D03*
X161290000Y-133350000D03*
X163830000Y-133350000D03*
X146050000Y-146050000D03*
X143510000Y-146050000D03*
X140970000Y-146050000D03*
X135890000Y-146050000D03*
X133350000Y-148590000D03*
X135890000Y-148590000D03*
X138430000Y-148590000D03*
X140970000Y-148590000D03*
X143510000Y-148590000D03*
X146050000Y-148590000D03*
X148590000Y-148590000D03*
X151130000Y-148590000D03*
X153670000Y-148590000D03*
X156210000Y-148590000D03*
X158750000Y-148590000D03*
X161290000Y-148590000D03*
X163830000Y-148590000D03*
X166370000Y-133350000D03*
X166370000Y-135890000D03*
X166370000Y-138430000D03*
X166370000Y-148590000D03*
X166370000Y-146050000D03*
X166370000Y-143510000D03*
X166370000Y-140970000D03*
G36*
G01*
X128901000Y-138850000D02*
X128901000Y-140550000D01*
G75*
G02*
X128850000Y-140601000I-51000J0D01*
G01*
X127150000Y-140601000D01*
G75*
G02*
X127099000Y-140550000I0J51000D01*
G01*
X127099000Y-138850000D01*
G75*
G02*
X127150000Y-138799000I51000J0D01*
G01*
X128850000Y-138799000D01*
G75*
G02*
X128901000Y-138850000I0J-51000D01*
G01*
G37*
D13*
X128000000Y-142240000D03*
G36*
G01*
X135244500Y-12699000D02*
X137045500Y-12699000D01*
G75*
G02*
X137946000Y-13599500I0J-900500D01*
G01*
X137946000Y-15400500D01*
G75*
G02*
X137045500Y-16301000I-900500J0D01*
G01*
X135244500Y-16301000D01*
G75*
G02*
X134344000Y-15400500I0J900500D01*
G01*
X134344000Y-13599500D01*
G75*
G02*
X135244500Y-12699000I900500J0D01*
G01*
G37*
G36*
G01*
X130419500Y-9949000D02*
X132470500Y-9949000D01*
G75*
G02*
X133246000Y-10724500I0J-775500D01*
G01*
X133246000Y-12275500D01*
G75*
G02*
X132470500Y-13051000I-775500J0D01*
G01*
X130419500Y-13051000D01*
G75*
G02*
X129644000Y-12275500I0J775500D01*
G01*
X129644000Y-10724500D01*
G75*
G02*
X130419500Y-9949000I775500J0D01*
G01*
G37*
G36*
G01*
X129695000Y-15699000D02*
X133195000Y-15699000D01*
G75*
G02*
X133246000Y-15750000I0J-51000D01*
G01*
X133246000Y-19250000D01*
G75*
G02*
X133195000Y-19301000I-51000J0D01*
G01*
X129695000Y-19301000D01*
G75*
G02*
X129644000Y-19250000I0J51000D01*
G01*
X129644000Y-15750000D01*
G75*
G02*
X129695000Y-15699000I51000J0D01*
G01*
G37*
D15*
X-85500000Y-118500000D03*
X-85500000Y-120500000D03*
X-85500000Y-122500000D03*
G36*
G01*
X-84845248Y-125151000D02*
X-86154752Y-125151000D01*
G75*
G02*
X-86426000Y-124879752I0J271248D01*
G01*
X-86426000Y-124120248D01*
G75*
G02*
X-86154752Y-123849000I271248J0D01*
G01*
X-84845248Y-123849000D01*
G75*
G02*
X-84574000Y-124120248I0J-271248D01*
G01*
X-84574000Y-124879752D01*
G75*
G02*
X-84845248Y-125151000I-271248J0D01*
G01*
G37*
X381500000Y-124500000D03*
X381500000Y-122500000D03*
X381500000Y-120500000D03*
G36*
G01*
X380845248Y-117849000D02*
X382154752Y-117849000D01*
G75*
G02*
X382426000Y-118120248I0J-271248D01*
G01*
X382426000Y-118879752D01*
G75*
G02*
X382154752Y-119151000I-271248J0D01*
G01*
X380845248Y-119151000D01*
G75*
G02*
X380574000Y-118879752I0J271248D01*
G01*
X380574000Y-118120248D01*
G75*
G02*
X380845248Y-117849000I271248J0D01*
G01*
G37*
X381500000Y-146000000D03*
X381500000Y-144000000D03*
X381500000Y-142000000D03*
X381500000Y-140000000D03*
X381500000Y-138000000D03*
X381500000Y-136000000D03*
X381500000Y-134000000D03*
X381500000Y-132000000D03*
G36*
G01*
X380845248Y-129349000D02*
X382154752Y-129349000D01*
G75*
G02*
X382426000Y-129620248I0J-271248D01*
G01*
X382426000Y-130379752D01*
G75*
G02*
X382154752Y-130651000I-271248J0D01*
G01*
X380845248Y-130651000D01*
G75*
G02*
X380574000Y-130379752I0J271248D01*
G01*
X380574000Y-129620248D01*
G75*
G02*
X380845248Y-129349000I271248J0D01*
G01*
G37*
X-85500000Y-130000000D03*
X-85500000Y-132000000D03*
X-85500000Y-134000000D03*
X-85500000Y-136000000D03*
X-85500000Y-138000000D03*
X-85500000Y-140000000D03*
X-85500000Y-142000000D03*
X-85500000Y-144000000D03*
G36*
G01*
X-84845248Y-146651000D02*
X-86154752Y-146651000D01*
G75*
G02*
X-86426000Y-146379752I0J271248D01*
G01*
X-86426000Y-145620248D01*
G75*
G02*
X-86154752Y-145349000I271248J0D01*
G01*
X-84845248Y-145349000D01*
G75*
G02*
X-84574000Y-145620248I0J-271248D01*
G01*
X-84574000Y-146379752D01*
G75*
G02*
X-84845248Y-146651000I-271248J0D01*
G01*
G37*
D16*
X284000000Y-132000000D03*
X178000000Y-132000000D03*
X118000000Y-132000000D03*
X12000000Y-132000000D03*
X-88000000Y-18000000D03*
X334000000Y-152000000D03*
X284000000Y-18000000D03*
X234000000Y-152000000D03*
X184000000Y-18000000D03*
X62000000Y-152000000D03*
X112000000Y-18000000D03*
X-38000000Y-152000000D03*
X12000000Y-18000000D03*
X371000000Y-136000000D03*
X384000000Y-18000000D03*
X-75000000Y-136000000D03*
D17*
G36*
X134345990Y-15400304D02*
G01*
X134363273Y-15575784D01*
X134414403Y-15744337D01*
X134497433Y-15899675D01*
X134609171Y-16035829D01*
X134745325Y-16147567D01*
X134900663Y-16230597D01*
X135069216Y-16281727D01*
X135244696Y-16299010D01*
X135246322Y-16300175D01*
X135246126Y-16302165D01*
X135244500Y-16303000D01*
X135188140Y-16303000D01*
X135187944Y-16302990D01*
X135018438Y-16286295D01*
X135018053Y-16286219D01*
X134860959Y-16238565D01*
X134860597Y-16238415D01*
X134715826Y-16161033D01*
X134715500Y-16160815D01*
X134588603Y-16056674D01*
X134588326Y-16056397D01*
X134484185Y-15929500D01*
X134483967Y-15929174D01*
X134406585Y-15784403D01*
X134406435Y-15784041D01*
X134358781Y-15626947D01*
X134358705Y-15626562D01*
X134342010Y-15457056D01*
X134342000Y-15456860D01*
X134342000Y-15400500D01*
X134343000Y-15398768D01*
X134345000Y-15398768D01*
X134345990Y-15400304D01*
G37*
G36*
X137947165Y-15398874D02*
G01*
X137948000Y-15400500D01*
X137948000Y-15456860D01*
X137947990Y-15457056D01*
X137931295Y-15626562D01*
X137931219Y-15626947D01*
X137883565Y-15784041D01*
X137883415Y-15784403D01*
X137806033Y-15929174D01*
X137805815Y-15929500D01*
X137701674Y-16056397D01*
X137701397Y-16056674D01*
X137574500Y-16160815D01*
X137574174Y-16161033D01*
X137429403Y-16238415D01*
X137429041Y-16238565D01*
X137271947Y-16286219D01*
X137271562Y-16286295D01*
X137102056Y-16302990D01*
X137101860Y-16303000D01*
X137045500Y-16303000D01*
X137043768Y-16302000D01*
X137043768Y-16300000D01*
X137045304Y-16299010D01*
X137220784Y-16281727D01*
X137389337Y-16230597D01*
X137544675Y-16147567D01*
X137680829Y-16035829D01*
X137792567Y-15899675D01*
X137875597Y-15744337D01*
X137926727Y-15575784D01*
X137944010Y-15400304D01*
X137945175Y-15398678D01*
X137947165Y-15398874D01*
G37*
G36*
X135246232Y-12698000D02*
G01*
X135246232Y-12700000D01*
X135244696Y-12700990D01*
X135069216Y-12718273D01*
X134900663Y-12769403D01*
X134745325Y-12852433D01*
X134609171Y-12964171D01*
X134497433Y-13100325D01*
X134414403Y-13255663D01*
X134363273Y-13424216D01*
X134345990Y-13599696D01*
X134344825Y-13601322D01*
X134342835Y-13601126D01*
X134342000Y-13599500D01*
X134342000Y-13543140D01*
X134342010Y-13542944D01*
X134358705Y-13373438D01*
X134358781Y-13373053D01*
X134406435Y-13215959D01*
X134406585Y-13215597D01*
X134483967Y-13070826D01*
X134484185Y-13070500D01*
X134588326Y-12943603D01*
X134588603Y-12943326D01*
X134715500Y-12839185D01*
X134715826Y-12838967D01*
X134860597Y-12761585D01*
X134860959Y-12761435D01*
X135018053Y-12713781D01*
X135018438Y-12713705D01*
X135187944Y-12697010D01*
X135188140Y-12697000D01*
X135244500Y-12697000D01*
X135246232Y-12698000D01*
G37*
G36*
X137102056Y-12697010D02*
G01*
X137271562Y-12713705D01*
X137271947Y-12713781D01*
X137429041Y-12761435D01*
X137429403Y-12761585D01*
X137574174Y-12838967D01*
X137574500Y-12839185D01*
X137701397Y-12943326D01*
X137701674Y-12943603D01*
X137805815Y-13070500D01*
X137806033Y-13070826D01*
X137883415Y-13215597D01*
X137883565Y-13215959D01*
X137931219Y-13373053D01*
X137931295Y-13373438D01*
X137947990Y-13542944D01*
X137948000Y-13543140D01*
X137948000Y-13599500D01*
X137947000Y-13601232D01*
X137945000Y-13601232D01*
X137944010Y-13599696D01*
X137926727Y-13424216D01*
X137875597Y-13255663D01*
X137792567Y-13100325D01*
X137680829Y-12964171D01*
X137544675Y-12852433D01*
X137389337Y-12769403D01*
X137220784Y-12718273D01*
X137045304Y-12700990D01*
X137043678Y-12699825D01*
X137043874Y-12697835D01*
X137045500Y-12697000D01*
X137101860Y-12697000D01*
X137102056Y-12697010D01*
G37*
G36*
X133247165Y-12273874D02*
G01*
X133248000Y-12275500D01*
X133248000Y-12331860D01*
X133247990Y-12332056D01*
X133233697Y-12477175D01*
X133233621Y-12477560D01*
X133193080Y-12611206D01*
X133192930Y-12611568D01*
X133127100Y-12734727D01*
X133126882Y-12735053D01*
X133038286Y-12843009D01*
X133038009Y-12843286D01*
X132930053Y-12931882D01*
X132929727Y-12932100D01*
X132806568Y-12997930D01*
X132806206Y-12998080D01*
X132672560Y-13038621D01*
X132672175Y-13038697D01*
X132527056Y-13052990D01*
X132526860Y-13053000D01*
X132470500Y-13053000D01*
X132468768Y-13052000D01*
X132468768Y-13050000D01*
X132470304Y-13049010D01*
X132621398Y-13034129D01*
X132766502Y-12990112D01*
X132900229Y-12918634D01*
X133017440Y-12822440D01*
X133113634Y-12705229D01*
X133185112Y-12571502D01*
X133229129Y-12426398D01*
X133244010Y-12275304D01*
X133245175Y-12273678D01*
X133247165Y-12273874D01*
G37*
G36*
X129645990Y-12275304D02*
G01*
X129660871Y-12426398D01*
X129704888Y-12571502D01*
X129776366Y-12705229D01*
X129872560Y-12822440D01*
X129989771Y-12918634D01*
X130123498Y-12990112D01*
X130268602Y-13034129D01*
X130419696Y-13049010D01*
X130421322Y-13050175D01*
X130421126Y-13052165D01*
X130419500Y-13053000D01*
X130363140Y-13053000D01*
X130362944Y-13052990D01*
X130217825Y-13038697D01*
X130217440Y-13038621D01*
X130083794Y-12998080D01*
X130083432Y-12997930D01*
X129960273Y-12932100D01*
X129959947Y-12931882D01*
X129851991Y-12843286D01*
X129851714Y-12843009D01*
X129763118Y-12735053D01*
X129762900Y-12734727D01*
X129697070Y-12611568D01*
X129696920Y-12611206D01*
X129656379Y-12477560D01*
X129656303Y-12477175D01*
X129642010Y-12332056D01*
X129642000Y-12331860D01*
X129642000Y-12275500D01*
X129643000Y-12273768D01*
X129645000Y-12273768D01*
X129645990Y-12275304D01*
G37*
G36*
X130421232Y-9948000D02*
G01*
X130421232Y-9950000D01*
X130419696Y-9950990D01*
X130268602Y-9965871D01*
X130123498Y-10009888D01*
X129989771Y-10081366D01*
X129872560Y-10177560D01*
X129776366Y-10294771D01*
X129704888Y-10428498D01*
X129660871Y-10573602D01*
X129645990Y-10724696D01*
X129644825Y-10726322D01*
X129642835Y-10726126D01*
X129642000Y-10724500D01*
X129642000Y-10668140D01*
X129642010Y-10667944D01*
X129656303Y-10522825D01*
X129656379Y-10522440D01*
X129696920Y-10388794D01*
X129697070Y-10388432D01*
X129762900Y-10265273D01*
X129763118Y-10264947D01*
X129851714Y-10156991D01*
X129851991Y-10156714D01*
X129959947Y-10068118D01*
X129960273Y-10067900D01*
X130083432Y-10002070D01*
X130083794Y-10001920D01*
X130217440Y-9961379D01*
X130217825Y-9961303D01*
X130362944Y-9947010D01*
X130363140Y-9947000D01*
X130419500Y-9947000D01*
X130421232Y-9948000D01*
G37*
G36*
X132527056Y-9947010D02*
G01*
X132672175Y-9961303D01*
X132672560Y-9961379D01*
X132806206Y-10001920D01*
X132806568Y-10002070D01*
X132929727Y-10067900D01*
X132930053Y-10068118D01*
X133038009Y-10156714D01*
X133038286Y-10156991D01*
X133126882Y-10264947D01*
X133127100Y-10265273D01*
X133192930Y-10388432D01*
X133193080Y-10388794D01*
X133233621Y-10522440D01*
X133233697Y-10522825D01*
X133247990Y-10667944D01*
X133248000Y-10668140D01*
X133248000Y-10724500D01*
X133247000Y-10726232D01*
X133245000Y-10726232D01*
X133244010Y-10724696D01*
X133229129Y-10573602D01*
X133185112Y-10428498D01*
X133113634Y-10294771D01*
X133017440Y-10177560D01*
X132900229Y-10081366D01*
X132766502Y-10009888D01*
X132621398Y-9965871D01*
X132470304Y-9950990D01*
X132468678Y-9949825D01*
X132468874Y-9947835D01*
X132470500Y-9947000D01*
X132526860Y-9947000D01*
X132527056Y-9947010D01*
G37*
M02*
