G04 #@! TF.GenerationSoftware,KiCad,Pcbnew,(5.1.7)-1*
G04 #@! TF.CreationDate,2021-02-28T23:21:40-05:00*
G04 #@! TF.ProjectId,OpeNITHM-full,4f70654e-4954-4484-9d2d-66756c6c2e6b,rev?*
G04 #@! TF.SameCoordinates,Original*
G04 #@! TF.FileFunction,Paste,Bot*
G04 #@! TF.FilePolarity,Positive*
%FSLAX46Y46*%
G04 Gerber Fmt 4.6, Leading zero omitted, Abs format (unit mm)*
G04 Created by KiCad (PCBNEW (5.1.7)-1) date 2021-02-28 23:21:40*
%MOMM*%
%LPD*%
G01*
G04 APERTURE LIST*
%ADD10R,0.300000X1.450000*%
%ADD11R,0.600000X1.450000*%
%ADD12R,1.800000X2.500000*%
G04 APERTURE END LIST*
G36*
G01*
X209320000Y-128755000D02*
X209320000Y-129055000D01*
G75*
G02*
X209170000Y-129205000I-150000J0D01*
G01*
X207520000Y-129205000D01*
G75*
G02*
X207370000Y-129055000I0J150000D01*
G01*
X207370000Y-128755000D01*
G75*
G02*
X207520000Y-128605000I150000J0D01*
G01*
X209170000Y-128605000D01*
G75*
G02*
X209320000Y-128755000I0J-150000D01*
G01*
G37*
G36*
G01*
X209320000Y-130025000D02*
X209320000Y-130325000D01*
G75*
G02*
X209170000Y-130475000I-150000J0D01*
G01*
X207520000Y-130475000D01*
G75*
G02*
X207370000Y-130325000I0J150000D01*
G01*
X207370000Y-130025000D01*
G75*
G02*
X207520000Y-129875000I150000J0D01*
G01*
X209170000Y-129875000D01*
G75*
G02*
X209320000Y-130025000I0J-150000D01*
G01*
G37*
G36*
G01*
X209320000Y-131295000D02*
X209320000Y-131595000D01*
G75*
G02*
X209170000Y-131745000I-150000J0D01*
G01*
X207520000Y-131745000D01*
G75*
G02*
X207370000Y-131595000I0J150000D01*
G01*
X207370000Y-131295000D01*
G75*
G02*
X207520000Y-131145000I150000J0D01*
G01*
X209170000Y-131145000D01*
G75*
G02*
X209320000Y-131295000I0J-150000D01*
G01*
G37*
G36*
G01*
X209320000Y-132565000D02*
X209320000Y-132865000D01*
G75*
G02*
X209170000Y-133015000I-150000J0D01*
G01*
X207520000Y-133015000D01*
G75*
G02*
X207370000Y-132865000I0J150000D01*
G01*
X207370000Y-132565000D01*
G75*
G02*
X207520000Y-132415000I150000J0D01*
G01*
X209170000Y-132415000D01*
G75*
G02*
X209320000Y-132565000I0J-150000D01*
G01*
G37*
G36*
G01*
X209320000Y-133835000D02*
X209320000Y-134135000D01*
G75*
G02*
X209170000Y-134285000I-150000J0D01*
G01*
X207520000Y-134285000D01*
G75*
G02*
X207370000Y-134135000I0J150000D01*
G01*
X207370000Y-133835000D01*
G75*
G02*
X207520000Y-133685000I150000J0D01*
G01*
X209170000Y-133685000D01*
G75*
G02*
X209320000Y-133835000I0J-150000D01*
G01*
G37*
G36*
G01*
X209320000Y-135105000D02*
X209320000Y-135405000D01*
G75*
G02*
X209170000Y-135555000I-150000J0D01*
G01*
X207520000Y-135555000D01*
G75*
G02*
X207370000Y-135405000I0J150000D01*
G01*
X207370000Y-135105000D01*
G75*
G02*
X207520000Y-134955000I150000J0D01*
G01*
X209170000Y-134955000D01*
G75*
G02*
X209320000Y-135105000I0J-150000D01*
G01*
G37*
G36*
G01*
X209320000Y-136375000D02*
X209320000Y-136675000D01*
G75*
G02*
X209170000Y-136825000I-150000J0D01*
G01*
X207520000Y-136825000D01*
G75*
G02*
X207370000Y-136675000I0J150000D01*
G01*
X207370000Y-136375000D01*
G75*
G02*
X207520000Y-136225000I150000J0D01*
G01*
X209170000Y-136225000D01*
G75*
G02*
X209320000Y-136375000I0J-150000D01*
G01*
G37*
G36*
G01*
X209320000Y-137645000D02*
X209320000Y-137945000D01*
G75*
G02*
X209170000Y-138095000I-150000J0D01*
G01*
X207520000Y-138095000D01*
G75*
G02*
X207370000Y-137945000I0J150000D01*
G01*
X207370000Y-137645000D01*
G75*
G02*
X207520000Y-137495000I150000J0D01*
G01*
X209170000Y-137495000D01*
G75*
G02*
X209320000Y-137645000I0J-150000D01*
G01*
G37*
G36*
G01*
X214270000Y-137645000D02*
X214270000Y-137945000D01*
G75*
G02*
X214120000Y-138095000I-150000J0D01*
G01*
X212470000Y-138095000D01*
G75*
G02*
X212320000Y-137945000I0J150000D01*
G01*
X212320000Y-137645000D01*
G75*
G02*
X212470000Y-137495000I150000J0D01*
G01*
X214120000Y-137495000D01*
G75*
G02*
X214270000Y-137645000I0J-150000D01*
G01*
G37*
G36*
G01*
X214270000Y-136375000D02*
X214270000Y-136675000D01*
G75*
G02*
X214120000Y-136825000I-150000J0D01*
G01*
X212470000Y-136825000D01*
G75*
G02*
X212320000Y-136675000I0J150000D01*
G01*
X212320000Y-136375000D01*
G75*
G02*
X212470000Y-136225000I150000J0D01*
G01*
X214120000Y-136225000D01*
G75*
G02*
X214270000Y-136375000I0J-150000D01*
G01*
G37*
G36*
G01*
X214270000Y-135105000D02*
X214270000Y-135405000D01*
G75*
G02*
X214120000Y-135555000I-150000J0D01*
G01*
X212470000Y-135555000D01*
G75*
G02*
X212320000Y-135405000I0J150000D01*
G01*
X212320000Y-135105000D01*
G75*
G02*
X212470000Y-134955000I150000J0D01*
G01*
X214120000Y-134955000D01*
G75*
G02*
X214270000Y-135105000I0J-150000D01*
G01*
G37*
G36*
G01*
X214270000Y-133835000D02*
X214270000Y-134135000D01*
G75*
G02*
X214120000Y-134285000I-150000J0D01*
G01*
X212470000Y-134285000D01*
G75*
G02*
X212320000Y-134135000I0J150000D01*
G01*
X212320000Y-133835000D01*
G75*
G02*
X212470000Y-133685000I150000J0D01*
G01*
X214120000Y-133685000D01*
G75*
G02*
X214270000Y-133835000I0J-150000D01*
G01*
G37*
G36*
G01*
X214270000Y-132565000D02*
X214270000Y-132865000D01*
G75*
G02*
X214120000Y-133015000I-150000J0D01*
G01*
X212470000Y-133015000D01*
G75*
G02*
X212320000Y-132865000I0J150000D01*
G01*
X212320000Y-132565000D01*
G75*
G02*
X212470000Y-132415000I150000J0D01*
G01*
X214120000Y-132415000D01*
G75*
G02*
X214270000Y-132565000I0J-150000D01*
G01*
G37*
G36*
G01*
X214270000Y-131295000D02*
X214270000Y-131595000D01*
G75*
G02*
X214120000Y-131745000I-150000J0D01*
G01*
X212470000Y-131745000D01*
G75*
G02*
X212320000Y-131595000I0J150000D01*
G01*
X212320000Y-131295000D01*
G75*
G02*
X212470000Y-131145000I150000J0D01*
G01*
X214120000Y-131145000D01*
G75*
G02*
X214270000Y-131295000I0J-150000D01*
G01*
G37*
G36*
G01*
X214270000Y-130025000D02*
X214270000Y-130325000D01*
G75*
G02*
X214120000Y-130475000I-150000J0D01*
G01*
X212470000Y-130475000D01*
G75*
G02*
X212320000Y-130325000I0J150000D01*
G01*
X212320000Y-130025000D01*
G75*
G02*
X212470000Y-129875000I150000J0D01*
G01*
X214120000Y-129875000D01*
G75*
G02*
X214270000Y-130025000I0J-150000D01*
G01*
G37*
G36*
G01*
X214270000Y-128755000D02*
X214270000Y-129055000D01*
G75*
G02*
X214120000Y-129205000I-150000J0D01*
G01*
X212470000Y-129205000D01*
G75*
G02*
X212320000Y-129055000I0J150000D01*
G01*
X212320000Y-128755000D01*
G75*
G02*
X212470000Y-128605000I150000J0D01*
G01*
X214120000Y-128605000D01*
G75*
G02*
X214270000Y-128755000I0J-150000D01*
G01*
G37*
G36*
G01*
X-9250000Y-128755000D02*
X-9250000Y-129055000D01*
G75*
G02*
X-9400000Y-129205000I-150000J0D01*
G01*
X-11050000Y-129205000D01*
G75*
G02*
X-11200000Y-129055000I0J150000D01*
G01*
X-11200000Y-128755000D01*
G75*
G02*
X-11050000Y-128605000I150000J0D01*
G01*
X-9400000Y-128605000D01*
G75*
G02*
X-9250000Y-128755000I0J-150000D01*
G01*
G37*
G36*
G01*
X-9250000Y-130025000D02*
X-9250000Y-130325000D01*
G75*
G02*
X-9400000Y-130475000I-150000J0D01*
G01*
X-11050000Y-130475000D01*
G75*
G02*
X-11200000Y-130325000I0J150000D01*
G01*
X-11200000Y-130025000D01*
G75*
G02*
X-11050000Y-129875000I150000J0D01*
G01*
X-9400000Y-129875000D01*
G75*
G02*
X-9250000Y-130025000I0J-150000D01*
G01*
G37*
G36*
G01*
X-9250000Y-131295000D02*
X-9250000Y-131595000D01*
G75*
G02*
X-9400000Y-131745000I-150000J0D01*
G01*
X-11050000Y-131745000D01*
G75*
G02*
X-11200000Y-131595000I0J150000D01*
G01*
X-11200000Y-131295000D01*
G75*
G02*
X-11050000Y-131145000I150000J0D01*
G01*
X-9400000Y-131145000D01*
G75*
G02*
X-9250000Y-131295000I0J-150000D01*
G01*
G37*
G36*
G01*
X-9250000Y-132565000D02*
X-9250000Y-132865000D01*
G75*
G02*
X-9400000Y-133015000I-150000J0D01*
G01*
X-11050000Y-133015000D01*
G75*
G02*
X-11200000Y-132865000I0J150000D01*
G01*
X-11200000Y-132565000D01*
G75*
G02*
X-11050000Y-132415000I150000J0D01*
G01*
X-9400000Y-132415000D01*
G75*
G02*
X-9250000Y-132565000I0J-150000D01*
G01*
G37*
G36*
G01*
X-9250000Y-133835000D02*
X-9250000Y-134135000D01*
G75*
G02*
X-9400000Y-134285000I-150000J0D01*
G01*
X-11050000Y-134285000D01*
G75*
G02*
X-11200000Y-134135000I0J150000D01*
G01*
X-11200000Y-133835000D01*
G75*
G02*
X-11050000Y-133685000I150000J0D01*
G01*
X-9400000Y-133685000D01*
G75*
G02*
X-9250000Y-133835000I0J-150000D01*
G01*
G37*
G36*
G01*
X-9250000Y-135105000D02*
X-9250000Y-135405000D01*
G75*
G02*
X-9400000Y-135555000I-150000J0D01*
G01*
X-11050000Y-135555000D01*
G75*
G02*
X-11200000Y-135405000I0J150000D01*
G01*
X-11200000Y-135105000D01*
G75*
G02*
X-11050000Y-134955000I150000J0D01*
G01*
X-9400000Y-134955000D01*
G75*
G02*
X-9250000Y-135105000I0J-150000D01*
G01*
G37*
G36*
G01*
X-9250000Y-136375000D02*
X-9250000Y-136675000D01*
G75*
G02*
X-9400000Y-136825000I-150000J0D01*
G01*
X-11050000Y-136825000D01*
G75*
G02*
X-11200000Y-136675000I0J150000D01*
G01*
X-11200000Y-136375000D01*
G75*
G02*
X-11050000Y-136225000I150000J0D01*
G01*
X-9400000Y-136225000D01*
G75*
G02*
X-9250000Y-136375000I0J-150000D01*
G01*
G37*
G36*
G01*
X-9250000Y-137645000D02*
X-9250000Y-137945000D01*
G75*
G02*
X-9400000Y-138095000I-150000J0D01*
G01*
X-11050000Y-138095000D01*
G75*
G02*
X-11200000Y-137945000I0J150000D01*
G01*
X-11200000Y-137645000D01*
G75*
G02*
X-11050000Y-137495000I150000J0D01*
G01*
X-9400000Y-137495000D01*
G75*
G02*
X-9250000Y-137645000I0J-150000D01*
G01*
G37*
G36*
G01*
X-14200000Y-137645000D02*
X-14200000Y-137945000D01*
G75*
G02*
X-14350000Y-138095000I-150000J0D01*
G01*
X-16000000Y-138095000D01*
G75*
G02*
X-16150000Y-137945000I0J150000D01*
G01*
X-16150000Y-137645000D01*
G75*
G02*
X-16000000Y-137495000I150000J0D01*
G01*
X-14350000Y-137495000D01*
G75*
G02*
X-14200000Y-137645000I0J-150000D01*
G01*
G37*
G36*
G01*
X-14200000Y-136375000D02*
X-14200000Y-136675000D01*
G75*
G02*
X-14350000Y-136825000I-150000J0D01*
G01*
X-16000000Y-136825000D01*
G75*
G02*
X-16150000Y-136675000I0J150000D01*
G01*
X-16150000Y-136375000D01*
G75*
G02*
X-16000000Y-136225000I150000J0D01*
G01*
X-14350000Y-136225000D01*
G75*
G02*
X-14200000Y-136375000I0J-150000D01*
G01*
G37*
G36*
G01*
X-14200000Y-135105000D02*
X-14200000Y-135405000D01*
G75*
G02*
X-14350000Y-135555000I-150000J0D01*
G01*
X-16000000Y-135555000D01*
G75*
G02*
X-16150000Y-135405000I0J150000D01*
G01*
X-16150000Y-135105000D01*
G75*
G02*
X-16000000Y-134955000I150000J0D01*
G01*
X-14350000Y-134955000D01*
G75*
G02*
X-14200000Y-135105000I0J-150000D01*
G01*
G37*
G36*
G01*
X-14200000Y-133835000D02*
X-14200000Y-134135000D01*
G75*
G02*
X-14350000Y-134285000I-150000J0D01*
G01*
X-16000000Y-134285000D01*
G75*
G02*
X-16150000Y-134135000I0J150000D01*
G01*
X-16150000Y-133835000D01*
G75*
G02*
X-16000000Y-133685000I150000J0D01*
G01*
X-14350000Y-133685000D01*
G75*
G02*
X-14200000Y-133835000I0J-150000D01*
G01*
G37*
G36*
G01*
X-14200000Y-132565000D02*
X-14200000Y-132865000D01*
G75*
G02*
X-14350000Y-133015000I-150000J0D01*
G01*
X-16000000Y-133015000D01*
G75*
G02*
X-16150000Y-132865000I0J150000D01*
G01*
X-16150000Y-132565000D01*
G75*
G02*
X-16000000Y-132415000I150000J0D01*
G01*
X-14350000Y-132415000D01*
G75*
G02*
X-14200000Y-132565000I0J-150000D01*
G01*
G37*
G36*
G01*
X-14200000Y-131295000D02*
X-14200000Y-131595000D01*
G75*
G02*
X-14350000Y-131745000I-150000J0D01*
G01*
X-16000000Y-131745000D01*
G75*
G02*
X-16150000Y-131595000I0J150000D01*
G01*
X-16150000Y-131295000D01*
G75*
G02*
X-16000000Y-131145000I150000J0D01*
G01*
X-14350000Y-131145000D01*
G75*
G02*
X-14200000Y-131295000I0J-150000D01*
G01*
G37*
G36*
G01*
X-14200000Y-130025000D02*
X-14200000Y-130325000D01*
G75*
G02*
X-14350000Y-130475000I-150000J0D01*
G01*
X-16000000Y-130475000D01*
G75*
G02*
X-16150000Y-130325000I0J150000D01*
G01*
X-16150000Y-130025000D01*
G75*
G02*
X-16000000Y-129875000I150000J0D01*
G01*
X-14350000Y-129875000D01*
G75*
G02*
X-14200000Y-130025000I0J-150000D01*
G01*
G37*
G36*
G01*
X-14200000Y-128755000D02*
X-14200000Y-129055000D01*
G75*
G02*
X-14350000Y-129205000I-150000J0D01*
G01*
X-16000000Y-129205000D01*
G75*
G02*
X-16150000Y-129055000I0J150000D01*
G01*
X-16150000Y-128755000D01*
G75*
G02*
X-16000000Y-128605000I150000J0D01*
G01*
X-14350000Y-128605000D01*
G75*
G02*
X-14200000Y-128755000I0J-150000D01*
G01*
G37*
G36*
G01*
X321080000Y-128755000D02*
X321080000Y-129055000D01*
G75*
G02*
X320930000Y-129205000I-150000J0D01*
G01*
X319280000Y-129205000D01*
G75*
G02*
X319130000Y-129055000I0J150000D01*
G01*
X319130000Y-128755000D01*
G75*
G02*
X319280000Y-128605000I150000J0D01*
G01*
X320930000Y-128605000D01*
G75*
G02*
X321080000Y-128755000I0J-150000D01*
G01*
G37*
G36*
G01*
X321080000Y-130025000D02*
X321080000Y-130325000D01*
G75*
G02*
X320930000Y-130475000I-150000J0D01*
G01*
X319280000Y-130475000D01*
G75*
G02*
X319130000Y-130325000I0J150000D01*
G01*
X319130000Y-130025000D01*
G75*
G02*
X319280000Y-129875000I150000J0D01*
G01*
X320930000Y-129875000D01*
G75*
G02*
X321080000Y-130025000I0J-150000D01*
G01*
G37*
G36*
G01*
X321080000Y-131295000D02*
X321080000Y-131595000D01*
G75*
G02*
X320930000Y-131745000I-150000J0D01*
G01*
X319280000Y-131745000D01*
G75*
G02*
X319130000Y-131595000I0J150000D01*
G01*
X319130000Y-131295000D01*
G75*
G02*
X319280000Y-131145000I150000J0D01*
G01*
X320930000Y-131145000D01*
G75*
G02*
X321080000Y-131295000I0J-150000D01*
G01*
G37*
G36*
G01*
X321080000Y-132565000D02*
X321080000Y-132865000D01*
G75*
G02*
X320930000Y-133015000I-150000J0D01*
G01*
X319280000Y-133015000D01*
G75*
G02*
X319130000Y-132865000I0J150000D01*
G01*
X319130000Y-132565000D01*
G75*
G02*
X319280000Y-132415000I150000J0D01*
G01*
X320930000Y-132415000D01*
G75*
G02*
X321080000Y-132565000I0J-150000D01*
G01*
G37*
G36*
G01*
X321080000Y-133835000D02*
X321080000Y-134135000D01*
G75*
G02*
X320930000Y-134285000I-150000J0D01*
G01*
X319280000Y-134285000D01*
G75*
G02*
X319130000Y-134135000I0J150000D01*
G01*
X319130000Y-133835000D01*
G75*
G02*
X319280000Y-133685000I150000J0D01*
G01*
X320930000Y-133685000D01*
G75*
G02*
X321080000Y-133835000I0J-150000D01*
G01*
G37*
G36*
G01*
X321080000Y-135105000D02*
X321080000Y-135405000D01*
G75*
G02*
X320930000Y-135555000I-150000J0D01*
G01*
X319280000Y-135555000D01*
G75*
G02*
X319130000Y-135405000I0J150000D01*
G01*
X319130000Y-135105000D01*
G75*
G02*
X319280000Y-134955000I150000J0D01*
G01*
X320930000Y-134955000D01*
G75*
G02*
X321080000Y-135105000I0J-150000D01*
G01*
G37*
G36*
G01*
X321080000Y-136375000D02*
X321080000Y-136675000D01*
G75*
G02*
X320930000Y-136825000I-150000J0D01*
G01*
X319280000Y-136825000D01*
G75*
G02*
X319130000Y-136675000I0J150000D01*
G01*
X319130000Y-136375000D01*
G75*
G02*
X319280000Y-136225000I150000J0D01*
G01*
X320930000Y-136225000D01*
G75*
G02*
X321080000Y-136375000I0J-150000D01*
G01*
G37*
G36*
G01*
X321080000Y-137645000D02*
X321080000Y-137945000D01*
G75*
G02*
X320930000Y-138095000I-150000J0D01*
G01*
X319280000Y-138095000D01*
G75*
G02*
X319130000Y-137945000I0J150000D01*
G01*
X319130000Y-137645000D01*
G75*
G02*
X319280000Y-137495000I150000J0D01*
G01*
X320930000Y-137495000D01*
G75*
G02*
X321080000Y-137645000I0J-150000D01*
G01*
G37*
G36*
G01*
X326030000Y-137645000D02*
X326030000Y-137945000D01*
G75*
G02*
X325880000Y-138095000I-150000J0D01*
G01*
X324230000Y-138095000D01*
G75*
G02*
X324080000Y-137945000I0J150000D01*
G01*
X324080000Y-137645000D01*
G75*
G02*
X324230000Y-137495000I150000J0D01*
G01*
X325880000Y-137495000D01*
G75*
G02*
X326030000Y-137645000I0J-150000D01*
G01*
G37*
G36*
G01*
X326030000Y-136375000D02*
X326030000Y-136675000D01*
G75*
G02*
X325880000Y-136825000I-150000J0D01*
G01*
X324230000Y-136825000D01*
G75*
G02*
X324080000Y-136675000I0J150000D01*
G01*
X324080000Y-136375000D01*
G75*
G02*
X324230000Y-136225000I150000J0D01*
G01*
X325880000Y-136225000D01*
G75*
G02*
X326030000Y-136375000I0J-150000D01*
G01*
G37*
G36*
G01*
X326030000Y-135105000D02*
X326030000Y-135405000D01*
G75*
G02*
X325880000Y-135555000I-150000J0D01*
G01*
X324230000Y-135555000D01*
G75*
G02*
X324080000Y-135405000I0J150000D01*
G01*
X324080000Y-135105000D01*
G75*
G02*
X324230000Y-134955000I150000J0D01*
G01*
X325880000Y-134955000D01*
G75*
G02*
X326030000Y-135105000I0J-150000D01*
G01*
G37*
G36*
G01*
X326030000Y-133835000D02*
X326030000Y-134135000D01*
G75*
G02*
X325880000Y-134285000I-150000J0D01*
G01*
X324230000Y-134285000D01*
G75*
G02*
X324080000Y-134135000I0J150000D01*
G01*
X324080000Y-133835000D01*
G75*
G02*
X324230000Y-133685000I150000J0D01*
G01*
X325880000Y-133685000D01*
G75*
G02*
X326030000Y-133835000I0J-150000D01*
G01*
G37*
G36*
G01*
X326030000Y-132565000D02*
X326030000Y-132865000D01*
G75*
G02*
X325880000Y-133015000I-150000J0D01*
G01*
X324230000Y-133015000D01*
G75*
G02*
X324080000Y-132865000I0J150000D01*
G01*
X324080000Y-132565000D01*
G75*
G02*
X324230000Y-132415000I150000J0D01*
G01*
X325880000Y-132415000D01*
G75*
G02*
X326030000Y-132565000I0J-150000D01*
G01*
G37*
G36*
G01*
X326030000Y-131295000D02*
X326030000Y-131595000D01*
G75*
G02*
X325880000Y-131745000I-150000J0D01*
G01*
X324230000Y-131745000D01*
G75*
G02*
X324080000Y-131595000I0J150000D01*
G01*
X324080000Y-131295000D01*
G75*
G02*
X324230000Y-131145000I150000J0D01*
G01*
X325880000Y-131145000D01*
G75*
G02*
X326030000Y-131295000I0J-150000D01*
G01*
G37*
G36*
G01*
X326030000Y-130025000D02*
X326030000Y-130325000D01*
G75*
G02*
X325880000Y-130475000I-150000J0D01*
G01*
X324230000Y-130475000D01*
G75*
G02*
X324080000Y-130325000I0J150000D01*
G01*
X324080000Y-130025000D01*
G75*
G02*
X324230000Y-129875000I150000J0D01*
G01*
X325880000Y-129875000D01*
G75*
G02*
X326030000Y-130025000I0J-150000D01*
G01*
G37*
G36*
G01*
X326030000Y-128755000D02*
X326030000Y-129055000D01*
G75*
G02*
X325880000Y-129205000I-150000J0D01*
G01*
X324230000Y-129205000D01*
G75*
G02*
X324080000Y-129055000I0J150000D01*
G01*
X324080000Y-128755000D01*
G75*
G02*
X324230000Y-128605000I150000J0D01*
G01*
X325880000Y-128605000D01*
G75*
G02*
X326030000Y-128755000I0J-150000D01*
G01*
G37*
G36*
G01*
X323310000Y-126750000D02*
X323310000Y-127250000D01*
G75*
G02*
X323085000Y-127475000I-225000J0D01*
G01*
X322635000Y-127475000D01*
G75*
G02*
X322410000Y-127250000I0J225000D01*
G01*
X322410000Y-126750000D01*
G75*
G02*
X322635000Y-126525000I225000J0D01*
G01*
X323085000Y-126525000D01*
G75*
G02*
X323310000Y-126750000I0J-225000D01*
G01*
G37*
G36*
G01*
X321760000Y-126750000D02*
X321760000Y-127250000D01*
G75*
G02*
X321535000Y-127475000I-225000J0D01*
G01*
X321085000Y-127475000D01*
G75*
G02*
X320860000Y-127250000I0J225000D01*
G01*
X320860000Y-126750000D01*
G75*
G02*
X321085000Y-126525000I225000J0D01*
G01*
X321535000Y-126525000D01*
G75*
G02*
X321760000Y-126750000I0J-225000D01*
G01*
G37*
G36*
G01*
X327385000Y-136505000D02*
X327935000Y-136505000D01*
G75*
G02*
X328135000Y-136705000I0J-200000D01*
G01*
X328135000Y-137105000D01*
G75*
G02*
X327935000Y-137305000I-200000J0D01*
G01*
X327385000Y-137305000D01*
G75*
G02*
X327185000Y-137105000I0J200000D01*
G01*
X327185000Y-136705000D01*
G75*
G02*
X327385000Y-136505000I200000J0D01*
G01*
G37*
G36*
G01*
X327385000Y-134855000D02*
X327935000Y-134855000D01*
G75*
G02*
X328135000Y-135055000I0J-200000D01*
G01*
X328135000Y-135455000D01*
G75*
G02*
X327935000Y-135655000I-200000J0D01*
G01*
X327385000Y-135655000D01*
G75*
G02*
X327185000Y-135455000I0J200000D01*
G01*
X327185000Y-135055000D01*
G75*
G02*
X327385000Y-134855000I200000J0D01*
G01*
G37*
G36*
G01*
X211550000Y-126750000D02*
X211550000Y-127250000D01*
G75*
G02*
X211325000Y-127475000I-225000J0D01*
G01*
X210875000Y-127475000D01*
G75*
G02*
X210650000Y-127250000I0J225000D01*
G01*
X210650000Y-126750000D01*
G75*
G02*
X210875000Y-126525000I225000J0D01*
G01*
X211325000Y-126525000D01*
G75*
G02*
X211550000Y-126750000I0J-225000D01*
G01*
G37*
G36*
G01*
X210000000Y-126750000D02*
X210000000Y-127250000D01*
G75*
G02*
X209775000Y-127475000I-225000J0D01*
G01*
X209325000Y-127475000D01*
G75*
G02*
X209100000Y-127250000I0J225000D01*
G01*
X209100000Y-126750000D01*
G75*
G02*
X209325000Y-126525000I225000J0D01*
G01*
X209775000Y-126525000D01*
G75*
G02*
X210000000Y-126750000I0J-225000D01*
G01*
G37*
G36*
G01*
X215625000Y-136505000D02*
X216175000Y-136505000D01*
G75*
G02*
X216375000Y-136705000I0J-200000D01*
G01*
X216375000Y-137105000D01*
G75*
G02*
X216175000Y-137305000I-200000J0D01*
G01*
X215625000Y-137305000D01*
G75*
G02*
X215425000Y-137105000I0J200000D01*
G01*
X215425000Y-136705000D01*
G75*
G02*
X215625000Y-136505000I200000J0D01*
G01*
G37*
G36*
G01*
X215625000Y-134855000D02*
X216175000Y-134855000D01*
G75*
G02*
X216375000Y-135055000I0J-200000D01*
G01*
X216375000Y-135455000D01*
G75*
G02*
X216175000Y-135655000I-200000J0D01*
G01*
X215625000Y-135655000D01*
G75*
G02*
X215425000Y-135455000I0J200000D01*
G01*
X215425000Y-135055000D01*
G75*
G02*
X215625000Y-134855000I200000J0D01*
G01*
G37*
D10*
X147750000Y-11545000D03*
X149750000Y-11545000D03*
X149250000Y-11545000D03*
X148750000Y-11545000D03*
X148250000Y-11545000D03*
X147250000Y-11545000D03*
X146750000Y-11545000D03*
X146250000Y-11545000D03*
D11*
X151250000Y-11545000D03*
X150450000Y-11545000D03*
X145550000Y-11545000D03*
X144750000Y-11545000D03*
X144750000Y-11545000D03*
X145550000Y-11545000D03*
X150450000Y-11545000D03*
X151250000Y-11545000D03*
D12*
X124460000Y-12890000D03*
X124460000Y-8890000D03*
X140335000Y-12890000D03*
X140335000Y-8890000D03*
G36*
G01*
X102510000Y-128755000D02*
X102510000Y-129055000D01*
G75*
G02*
X102360000Y-129205000I-150000J0D01*
G01*
X100710000Y-129205000D01*
G75*
G02*
X100560000Y-129055000I0J150000D01*
G01*
X100560000Y-128755000D01*
G75*
G02*
X100710000Y-128605000I150000J0D01*
G01*
X102360000Y-128605000D01*
G75*
G02*
X102510000Y-128755000I0J-150000D01*
G01*
G37*
G36*
G01*
X102510000Y-130025000D02*
X102510000Y-130325000D01*
G75*
G02*
X102360000Y-130475000I-150000J0D01*
G01*
X100710000Y-130475000D01*
G75*
G02*
X100560000Y-130325000I0J150000D01*
G01*
X100560000Y-130025000D01*
G75*
G02*
X100710000Y-129875000I150000J0D01*
G01*
X102360000Y-129875000D01*
G75*
G02*
X102510000Y-130025000I0J-150000D01*
G01*
G37*
G36*
G01*
X102510000Y-131295000D02*
X102510000Y-131595000D01*
G75*
G02*
X102360000Y-131745000I-150000J0D01*
G01*
X100710000Y-131745000D01*
G75*
G02*
X100560000Y-131595000I0J150000D01*
G01*
X100560000Y-131295000D01*
G75*
G02*
X100710000Y-131145000I150000J0D01*
G01*
X102360000Y-131145000D01*
G75*
G02*
X102510000Y-131295000I0J-150000D01*
G01*
G37*
G36*
G01*
X102510000Y-132565000D02*
X102510000Y-132865000D01*
G75*
G02*
X102360000Y-133015000I-150000J0D01*
G01*
X100710000Y-133015000D01*
G75*
G02*
X100560000Y-132865000I0J150000D01*
G01*
X100560000Y-132565000D01*
G75*
G02*
X100710000Y-132415000I150000J0D01*
G01*
X102360000Y-132415000D01*
G75*
G02*
X102510000Y-132565000I0J-150000D01*
G01*
G37*
G36*
G01*
X102510000Y-133835000D02*
X102510000Y-134135000D01*
G75*
G02*
X102360000Y-134285000I-150000J0D01*
G01*
X100710000Y-134285000D01*
G75*
G02*
X100560000Y-134135000I0J150000D01*
G01*
X100560000Y-133835000D01*
G75*
G02*
X100710000Y-133685000I150000J0D01*
G01*
X102360000Y-133685000D01*
G75*
G02*
X102510000Y-133835000I0J-150000D01*
G01*
G37*
G36*
G01*
X102510000Y-135105000D02*
X102510000Y-135405000D01*
G75*
G02*
X102360000Y-135555000I-150000J0D01*
G01*
X100710000Y-135555000D01*
G75*
G02*
X100560000Y-135405000I0J150000D01*
G01*
X100560000Y-135105000D01*
G75*
G02*
X100710000Y-134955000I150000J0D01*
G01*
X102360000Y-134955000D01*
G75*
G02*
X102510000Y-135105000I0J-150000D01*
G01*
G37*
G36*
G01*
X102510000Y-136375000D02*
X102510000Y-136675000D01*
G75*
G02*
X102360000Y-136825000I-150000J0D01*
G01*
X100710000Y-136825000D01*
G75*
G02*
X100560000Y-136675000I0J150000D01*
G01*
X100560000Y-136375000D01*
G75*
G02*
X100710000Y-136225000I150000J0D01*
G01*
X102360000Y-136225000D01*
G75*
G02*
X102510000Y-136375000I0J-150000D01*
G01*
G37*
G36*
G01*
X102510000Y-137645000D02*
X102510000Y-137945000D01*
G75*
G02*
X102360000Y-138095000I-150000J0D01*
G01*
X100710000Y-138095000D01*
G75*
G02*
X100560000Y-137945000I0J150000D01*
G01*
X100560000Y-137645000D01*
G75*
G02*
X100710000Y-137495000I150000J0D01*
G01*
X102360000Y-137495000D01*
G75*
G02*
X102510000Y-137645000I0J-150000D01*
G01*
G37*
G36*
G01*
X97560000Y-137645000D02*
X97560000Y-137945000D01*
G75*
G02*
X97410000Y-138095000I-150000J0D01*
G01*
X95760000Y-138095000D01*
G75*
G02*
X95610000Y-137945000I0J150000D01*
G01*
X95610000Y-137645000D01*
G75*
G02*
X95760000Y-137495000I150000J0D01*
G01*
X97410000Y-137495000D01*
G75*
G02*
X97560000Y-137645000I0J-150000D01*
G01*
G37*
G36*
G01*
X97560000Y-136375000D02*
X97560000Y-136675000D01*
G75*
G02*
X97410000Y-136825000I-150000J0D01*
G01*
X95760000Y-136825000D01*
G75*
G02*
X95610000Y-136675000I0J150000D01*
G01*
X95610000Y-136375000D01*
G75*
G02*
X95760000Y-136225000I150000J0D01*
G01*
X97410000Y-136225000D01*
G75*
G02*
X97560000Y-136375000I0J-150000D01*
G01*
G37*
G36*
G01*
X97560000Y-135105000D02*
X97560000Y-135405000D01*
G75*
G02*
X97410000Y-135555000I-150000J0D01*
G01*
X95760000Y-135555000D01*
G75*
G02*
X95610000Y-135405000I0J150000D01*
G01*
X95610000Y-135105000D01*
G75*
G02*
X95760000Y-134955000I150000J0D01*
G01*
X97410000Y-134955000D01*
G75*
G02*
X97560000Y-135105000I0J-150000D01*
G01*
G37*
G36*
G01*
X97560000Y-133835000D02*
X97560000Y-134135000D01*
G75*
G02*
X97410000Y-134285000I-150000J0D01*
G01*
X95760000Y-134285000D01*
G75*
G02*
X95610000Y-134135000I0J150000D01*
G01*
X95610000Y-133835000D01*
G75*
G02*
X95760000Y-133685000I150000J0D01*
G01*
X97410000Y-133685000D01*
G75*
G02*
X97560000Y-133835000I0J-150000D01*
G01*
G37*
G36*
G01*
X97560000Y-132565000D02*
X97560000Y-132865000D01*
G75*
G02*
X97410000Y-133015000I-150000J0D01*
G01*
X95760000Y-133015000D01*
G75*
G02*
X95610000Y-132865000I0J150000D01*
G01*
X95610000Y-132565000D01*
G75*
G02*
X95760000Y-132415000I150000J0D01*
G01*
X97410000Y-132415000D01*
G75*
G02*
X97560000Y-132565000I0J-150000D01*
G01*
G37*
G36*
G01*
X97560000Y-131295000D02*
X97560000Y-131595000D01*
G75*
G02*
X97410000Y-131745000I-150000J0D01*
G01*
X95760000Y-131745000D01*
G75*
G02*
X95610000Y-131595000I0J150000D01*
G01*
X95610000Y-131295000D01*
G75*
G02*
X95760000Y-131145000I150000J0D01*
G01*
X97410000Y-131145000D01*
G75*
G02*
X97560000Y-131295000I0J-150000D01*
G01*
G37*
G36*
G01*
X97560000Y-130025000D02*
X97560000Y-130325000D01*
G75*
G02*
X97410000Y-130475000I-150000J0D01*
G01*
X95760000Y-130475000D01*
G75*
G02*
X95610000Y-130325000I0J150000D01*
G01*
X95610000Y-130025000D01*
G75*
G02*
X95760000Y-129875000I150000J0D01*
G01*
X97410000Y-129875000D01*
G75*
G02*
X97560000Y-130025000I0J-150000D01*
G01*
G37*
G36*
G01*
X97560000Y-128755000D02*
X97560000Y-129055000D01*
G75*
G02*
X97410000Y-129205000I-150000J0D01*
G01*
X95760000Y-129205000D01*
G75*
G02*
X95610000Y-129055000I0J150000D01*
G01*
X95610000Y-128755000D01*
G75*
G02*
X95760000Y-128605000I150000J0D01*
G01*
X97410000Y-128605000D01*
G75*
G02*
X97560000Y-128755000I0J-150000D01*
G01*
G37*
G36*
G01*
X151565000Y-16725000D02*
X151565000Y-17275000D01*
G75*
G02*
X151365000Y-17475000I-200000J0D01*
G01*
X150965000Y-17475000D01*
G75*
G02*
X150765000Y-17275000I0J200000D01*
G01*
X150765000Y-16725000D01*
G75*
G02*
X150965000Y-16525000I200000J0D01*
G01*
X151365000Y-16525000D01*
G75*
G02*
X151565000Y-16725000I0J-200000D01*
G01*
G37*
G36*
G01*
X149915000Y-16725000D02*
X149915000Y-17275000D01*
G75*
G02*
X149715000Y-17475000I-200000J0D01*
G01*
X149315000Y-17475000D01*
G75*
G02*
X149115000Y-17275000I0J200000D01*
G01*
X149115000Y-16725000D01*
G75*
G02*
X149315000Y-16525000I200000J0D01*
G01*
X149715000Y-16525000D01*
G75*
G02*
X149915000Y-16725000I0J-200000D01*
G01*
G37*
G36*
G01*
X151565000Y-14725000D02*
X151565000Y-15275000D01*
G75*
G02*
X151365000Y-15475000I-200000J0D01*
G01*
X150965000Y-15475000D01*
G75*
G02*
X150765000Y-15275000I0J200000D01*
G01*
X150765000Y-14725000D01*
G75*
G02*
X150965000Y-14525000I200000J0D01*
G01*
X151365000Y-14525000D01*
G75*
G02*
X151565000Y-14725000I0J-200000D01*
G01*
G37*
G36*
G01*
X149915000Y-14725000D02*
X149915000Y-15275000D01*
G75*
G02*
X149715000Y-15475000I-200000J0D01*
G01*
X149315000Y-15475000D01*
G75*
G02*
X149115000Y-15275000I0J200000D01*
G01*
X149115000Y-14725000D01*
G75*
G02*
X149315000Y-14525000I200000J0D01*
G01*
X149715000Y-14525000D01*
G75*
G02*
X149915000Y-14725000I0J-200000D01*
G01*
G37*
G36*
G01*
X-7895000Y-134855000D02*
X-7345000Y-134855000D01*
G75*
G02*
X-7145000Y-135055000I0J-200000D01*
G01*
X-7145000Y-135455000D01*
G75*
G02*
X-7345000Y-135655000I-200000J0D01*
G01*
X-7895000Y-135655000D01*
G75*
G02*
X-8095000Y-135455000I0J200000D01*
G01*
X-8095000Y-135055000D01*
G75*
G02*
X-7895000Y-134855000I200000J0D01*
G01*
G37*
G36*
G01*
X-7895000Y-136505000D02*
X-7345000Y-136505000D01*
G75*
G02*
X-7145000Y-136705000I0J-200000D01*
G01*
X-7145000Y-137105000D01*
G75*
G02*
X-7345000Y-137305000I-200000J0D01*
G01*
X-7895000Y-137305000D01*
G75*
G02*
X-8095000Y-137105000I0J200000D01*
G01*
X-8095000Y-136705000D01*
G75*
G02*
X-7895000Y-136505000I200000J0D01*
G01*
G37*
G36*
G01*
X99790000Y-126750000D02*
X99790000Y-127250000D01*
G75*
G02*
X99565000Y-127475000I-225000J0D01*
G01*
X99115000Y-127475000D01*
G75*
G02*
X98890000Y-127250000I0J225000D01*
G01*
X98890000Y-126750000D01*
G75*
G02*
X99115000Y-126525000I225000J0D01*
G01*
X99565000Y-126525000D01*
G75*
G02*
X99790000Y-126750000I0J-225000D01*
G01*
G37*
G36*
G01*
X98240000Y-126750000D02*
X98240000Y-127250000D01*
G75*
G02*
X98015000Y-127475000I-225000J0D01*
G01*
X97565000Y-127475000D01*
G75*
G02*
X97340000Y-127250000I0J225000D01*
G01*
X97340000Y-126750000D01*
G75*
G02*
X97565000Y-126525000I225000J0D01*
G01*
X98015000Y-126525000D01*
G75*
G02*
X98240000Y-126750000I0J-225000D01*
G01*
G37*
G36*
G01*
X-11970000Y-126750000D02*
X-11970000Y-127250000D01*
G75*
G02*
X-12195000Y-127475000I-225000J0D01*
G01*
X-12645000Y-127475000D01*
G75*
G02*
X-12870000Y-127250000I0J225000D01*
G01*
X-12870000Y-126750000D01*
G75*
G02*
X-12645000Y-126525000I225000J0D01*
G01*
X-12195000Y-126525000D01*
G75*
G02*
X-11970000Y-126750000I0J-225000D01*
G01*
G37*
G36*
G01*
X-13520000Y-126750000D02*
X-13520000Y-127250000D01*
G75*
G02*
X-13745000Y-127475000I-225000J0D01*
G01*
X-14195000Y-127475000D01*
G75*
G02*
X-14420000Y-127250000I0J225000D01*
G01*
X-14420000Y-126750000D01*
G75*
G02*
X-14195000Y-126525000I225000J0D01*
G01*
X-13745000Y-126525000D01*
G75*
G02*
X-13520000Y-126750000I0J-225000D01*
G01*
G37*
G36*
G01*
X103865000Y-136505000D02*
X104415000Y-136505000D01*
G75*
G02*
X104615000Y-136705000I0J-200000D01*
G01*
X104615000Y-137105000D01*
G75*
G02*
X104415000Y-137305000I-200000J0D01*
G01*
X103865000Y-137305000D01*
G75*
G02*
X103665000Y-137105000I0J200000D01*
G01*
X103665000Y-136705000D01*
G75*
G02*
X103865000Y-136505000I200000J0D01*
G01*
G37*
G36*
G01*
X103865000Y-134855000D02*
X104415000Y-134855000D01*
G75*
G02*
X104615000Y-135055000I0J-200000D01*
G01*
X104615000Y-135455000D01*
G75*
G02*
X104415000Y-135655000I-200000J0D01*
G01*
X103865000Y-135655000D01*
G75*
G02*
X103665000Y-135455000I0J200000D01*
G01*
X103665000Y-135055000D01*
G75*
G02*
X103865000Y-134855000I200000J0D01*
G01*
G37*
M02*
