G04 #@! TF.GenerationSoftware,KiCad,Pcbnew,(5.1.7)-1*
G04 #@! TF.CreationDate,2021-03-24T01:06:35-04:00*
G04 #@! TF.ProjectId,OpeNITHM-full,4f70654e-4954-4484-9d2d-66756c6c2e6b,rev?*
G04 #@! TF.SameCoordinates,Original*
G04 #@! TF.FileFunction,Soldermask,Bot*
G04 #@! TF.FilePolarity,Negative*
%FSLAX46Y46*%
G04 Gerber Fmt 4.6, Leading zero omitted, Abs format (unit mm)*
G04 Created by KiCad (PCBNEW (5.1.7)-1) date 2021-03-24 01:06:35*
%MOMM*%
%LPD*%
G01*
G04 APERTURE LIST*
%ADD10O,1.102000X1.702000*%
%ADD11C,0.752000*%
%ADD12O,1.102000X2.202000*%
%ADD13O,1.802000X1.802000*%
%ADD14C,1.702000*%
%ADD15C,1.602000*%
%ADD16O,1.852000X1.302000*%
%ADD17C,3.302000*%
%ADD18C,0.100000*%
G04 APERTURE END LIST*
G36*
G01*
X209371000Y-128729500D02*
X209371000Y-129080500D01*
G75*
G02*
X209195500Y-129256000I-175500J0D01*
G01*
X207494500Y-129256000D01*
G75*
G02*
X207319000Y-129080500I0J175500D01*
G01*
X207319000Y-128729500D01*
G75*
G02*
X207494500Y-128554000I175500J0D01*
G01*
X209195500Y-128554000D01*
G75*
G02*
X209371000Y-128729500I0J-175500D01*
G01*
G37*
G36*
G01*
X209371000Y-129999500D02*
X209371000Y-130350500D01*
G75*
G02*
X209195500Y-130526000I-175500J0D01*
G01*
X207494500Y-130526000D01*
G75*
G02*
X207319000Y-130350500I0J175500D01*
G01*
X207319000Y-129999500D01*
G75*
G02*
X207494500Y-129824000I175500J0D01*
G01*
X209195500Y-129824000D01*
G75*
G02*
X209371000Y-129999500I0J-175500D01*
G01*
G37*
G36*
G01*
X209371000Y-131269500D02*
X209371000Y-131620500D01*
G75*
G02*
X209195500Y-131796000I-175500J0D01*
G01*
X207494500Y-131796000D01*
G75*
G02*
X207319000Y-131620500I0J175500D01*
G01*
X207319000Y-131269500D01*
G75*
G02*
X207494500Y-131094000I175500J0D01*
G01*
X209195500Y-131094000D01*
G75*
G02*
X209371000Y-131269500I0J-175500D01*
G01*
G37*
G36*
G01*
X209371000Y-132539500D02*
X209371000Y-132890500D01*
G75*
G02*
X209195500Y-133066000I-175500J0D01*
G01*
X207494500Y-133066000D01*
G75*
G02*
X207319000Y-132890500I0J175500D01*
G01*
X207319000Y-132539500D01*
G75*
G02*
X207494500Y-132364000I175500J0D01*
G01*
X209195500Y-132364000D01*
G75*
G02*
X209371000Y-132539500I0J-175500D01*
G01*
G37*
G36*
G01*
X209371000Y-133809500D02*
X209371000Y-134160500D01*
G75*
G02*
X209195500Y-134336000I-175500J0D01*
G01*
X207494500Y-134336000D01*
G75*
G02*
X207319000Y-134160500I0J175500D01*
G01*
X207319000Y-133809500D01*
G75*
G02*
X207494500Y-133634000I175500J0D01*
G01*
X209195500Y-133634000D01*
G75*
G02*
X209371000Y-133809500I0J-175500D01*
G01*
G37*
G36*
G01*
X209371000Y-135079500D02*
X209371000Y-135430500D01*
G75*
G02*
X209195500Y-135606000I-175500J0D01*
G01*
X207494500Y-135606000D01*
G75*
G02*
X207319000Y-135430500I0J175500D01*
G01*
X207319000Y-135079500D01*
G75*
G02*
X207494500Y-134904000I175500J0D01*
G01*
X209195500Y-134904000D01*
G75*
G02*
X209371000Y-135079500I0J-175500D01*
G01*
G37*
G36*
G01*
X209371000Y-136349500D02*
X209371000Y-136700500D01*
G75*
G02*
X209195500Y-136876000I-175500J0D01*
G01*
X207494500Y-136876000D01*
G75*
G02*
X207319000Y-136700500I0J175500D01*
G01*
X207319000Y-136349500D01*
G75*
G02*
X207494500Y-136174000I175500J0D01*
G01*
X209195500Y-136174000D01*
G75*
G02*
X209371000Y-136349500I0J-175500D01*
G01*
G37*
G36*
G01*
X209371000Y-137619500D02*
X209371000Y-137970500D01*
G75*
G02*
X209195500Y-138146000I-175500J0D01*
G01*
X207494500Y-138146000D01*
G75*
G02*
X207319000Y-137970500I0J175500D01*
G01*
X207319000Y-137619500D01*
G75*
G02*
X207494500Y-137444000I175500J0D01*
G01*
X209195500Y-137444000D01*
G75*
G02*
X209371000Y-137619500I0J-175500D01*
G01*
G37*
G36*
G01*
X214321000Y-137619500D02*
X214321000Y-137970500D01*
G75*
G02*
X214145500Y-138146000I-175500J0D01*
G01*
X212444500Y-138146000D01*
G75*
G02*
X212269000Y-137970500I0J175500D01*
G01*
X212269000Y-137619500D01*
G75*
G02*
X212444500Y-137444000I175500J0D01*
G01*
X214145500Y-137444000D01*
G75*
G02*
X214321000Y-137619500I0J-175500D01*
G01*
G37*
G36*
G01*
X214321000Y-136349500D02*
X214321000Y-136700500D01*
G75*
G02*
X214145500Y-136876000I-175500J0D01*
G01*
X212444500Y-136876000D01*
G75*
G02*
X212269000Y-136700500I0J175500D01*
G01*
X212269000Y-136349500D01*
G75*
G02*
X212444500Y-136174000I175500J0D01*
G01*
X214145500Y-136174000D01*
G75*
G02*
X214321000Y-136349500I0J-175500D01*
G01*
G37*
G36*
G01*
X214321000Y-135079500D02*
X214321000Y-135430500D01*
G75*
G02*
X214145500Y-135606000I-175500J0D01*
G01*
X212444500Y-135606000D01*
G75*
G02*
X212269000Y-135430500I0J175500D01*
G01*
X212269000Y-135079500D01*
G75*
G02*
X212444500Y-134904000I175500J0D01*
G01*
X214145500Y-134904000D01*
G75*
G02*
X214321000Y-135079500I0J-175500D01*
G01*
G37*
G36*
G01*
X214321000Y-133809500D02*
X214321000Y-134160500D01*
G75*
G02*
X214145500Y-134336000I-175500J0D01*
G01*
X212444500Y-134336000D01*
G75*
G02*
X212269000Y-134160500I0J175500D01*
G01*
X212269000Y-133809500D01*
G75*
G02*
X212444500Y-133634000I175500J0D01*
G01*
X214145500Y-133634000D01*
G75*
G02*
X214321000Y-133809500I0J-175500D01*
G01*
G37*
G36*
G01*
X214321000Y-132539500D02*
X214321000Y-132890500D01*
G75*
G02*
X214145500Y-133066000I-175500J0D01*
G01*
X212444500Y-133066000D01*
G75*
G02*
X212269000Y-132890500I0J175500D01*
G01*
X212269000Y-132539500D01*
G75*
G02*
X212444500Y-132364000I175500J0D01*
G01*
X214145500Y-132364000D01*
G75*
G02*
X214321000Y-132539500I0J-175500D01*
G01*
G37*
G36*
G01*
X214321000Y-131269500D02*
X214321000Y-131620500D01*
G75*
G02*
X214145500Y-131796000I-175500J0D01*
G01*
X212444500Y-131796000D01*
G75*
G02*
X212269000Y-131620500I0J175500D01*
G01*
X212269000Y-131269500D01*
G75*
G02*
X212444500Y-131094000I175500J0D01*
G01*
X214145500Y-131094000D01*
G75*
G02*
X214321000Y-131269500I0J-175500D01*
G01*
G37*
G36*
G01*
X214321000Y-129999500D02*
X214321000Y-130350500D01*
G75*
G02*
X214145500Y-130526000I-175500J0D01*
G01*
X212444500Y-130526000D01*
G75*
G02*
X212269000Y-130350500I0J175500D01*
G01*
X212269000Y-129999500D01*
G75*
G02*
X212444500Y-129824000I175500J0D01*
G01*
X214145500Y-129824000D01*
G75*
G02*
X214321000Y-129999500I0J-175500D01*
G01*
G37*
G36*
G01*
X214321000Y-128729500D02*
X214321000Y-129080500D01*
G75*
G02*
X214145500Y-129256000I-175500J0D01*
G01*
X212444500Y-129256000D01*
G75*
G02*
X212269000Y-129080500I0J175500D01*
G01*
X212269000Y-128729500D01*
G75*
G02*
X212444500Y-128554000I175500J0D01*
G01*
X214145500Y-128554000D01*
G75*
G02*
X214321000Y-128729500I0J-175500D01*
G01*
G37*
G36*
G01*
X-9199000Y-128729500D02*
X-9199000Y-129080500D01*
G75*
G02*
X-9374500Y-129256000I-175500J0D01*
G01*
X-11075500Y-129256000D01*
G75*
G02*
X-11251000Y-129080500I0J175500D01*
G01*
X-11251000Y-128729500D01*
G75*
G02*
X-11075500Y-128554000I175500J0D01*
G01*
X-9374500Y-128554000D01*
G75*
G02*
X-9199000Y-128729500I0J-175500D01*
G01*
G37*
G36*
G01*
X-9199000Y-129999500D02*
X-9199000Y-130350500D01*
G75*
G02*
X-9374500Y-130526000I-175500J0D01*
G01*
X-11075500Y-130526000D01*
G75*
G02*
X-11251000Y-130350500I0J175500D01*
G01*
X-11251000Y-129999500D01*
G75*
G02*
X-11075500Y-129824000I175500J0D01*
G01*
X-9374500Y-129824000D01*
G75*
G02*
X-9199000Y-129999500I0J-175500D01*
G01*
G37*
G36*
G01*
X-9199000Y-131269500D02*
X-9199000Y-131620500D01*
G75*
G02*
X-9374500Y-131796000I-175500J0D01*
G01*
X-11075500Y-131796000D01*
G75*
G02*
X-11251000Y-131620500I0J175500D01*
G01*
X-11251000Y-131269500D01*
G75*
G02*
X-11075500Y-131094000I175500J0D01*
G01*
X-9374500Y-131094000D01*
G75*
G02*
X-9199000Y-131269500I0J-175500D01*
G01*
G37*
G36*
G01*
X-9199000Y-132539500D02*
X-9199000Y-132890500D01*
G75*
G02*
X-9374500Y-133066000I-175500J0D01*
G01*
X-11075500Y-133066000D01*
G75*
G02*
X-11251000Y-132890500I0J175500D01*
G01*
X-11251000Y-132539500D01*
G75*
G02*
X-11075500Y-132364000I175500J0D01*
G01*
X-9374500Y-132364000D01*
G75*
G02*
X-9199000Y-132539500I0J-175500D01*
G01*
G37*
G36*
G01*
X-9199000Y-133809500D02*
X-9199000Y-134160500D01*
G75*
G02*
X-9374500Y-134336000I-175500J0D01*
G01*
X-11075500Y-134336000D01*
G75*
G02*
X-11251000Y-134160500I0J175500D01*
G01*
X-11251000Y-133809500D01*
G75*
G02*
X-11075500Y-133634000I175500J0D01*
G01*
X-9374500Y-133634000D01*
G75*
G02*
X-9199000Y-133809500I0J-175500D01*
G01*
G37*
G36*
G01*
X-9199000Y-135079500D02*
X-9199000Y-135430500D01*
G75*
G02*
X-9374500Y-135606000I-175500J0D01*
G01*
X-11075500Y-135606000D01*
G75*
G02*
X-11251000Y-135430500I0J175500D01*
G01*
X-11251000Y-135079500D01*
G75*
G02*
X-11075500Y-134904000I175500J0D01*
G01*
X-9374500Y-134904000D01*
G75*
G02*
X-9199000Y-135079500I0J-175500D01*
G01*
G37*
G36*
G01*
X-9199000Y-136349500D02*
X-9199000Y-136700500D01*
G75*
G02*
X-9374500Y-136876000I-175500J0D01*
G01*
X-11075500Y-136876000D01*
G75*
G02*
X-11251000Y-136700500I0J175500D01*
G01*
X-11251000Y-136349500D01*
G75*
G02*
X-11075500Y-136174000I175500J0D01*
G01*
X-9374500Y-136174000D01*
G75*
G02*
X-9199000Y-136349500I0J-175500D01*
G01*
G37*
G36*
G01*
X-9199000Y-137619500D02*
X-9199000Y-137970500D01*
G75*
G02*
X-9374500Y-138146000I-175500J0D01*
G01*
X-11075500Y-138146000D01*
G75*
G02*
X-11251000Y-137970500I0J175500D01*
G01*
X-11251000Y-137619500D01*
G75*
G02*
X-11075500Y-137444000I175500J0D01*
G01*
X-9374500Y-137444000D01*
G75*
G02*
X-9199000Y-137619500I0J-175500D01*
G01*
G37*
G36*
G01*
X-14149000Y-137619500D02*
X-14149000Y-137970500D01*
G75*
G02*
X-14324500Y-138146000I-175500J0D01*
G01*
X-16025500Y-138146000D01*
G75*
G02*
X-16201000Y-137970500I0J175500D01*
G01*
X-16201000Y-137619500D01*
G75*
G02*
X-16025500Y-137444000I175500J0D01*
G01*
X-14324500Y-137444000D01*
G75*
G02*
X-14149000Y-137619500I0J-175500D01*
G01*
G37*
G36*
G01*
X-14149000Y-136349500D02*
X-14149000Y-136700500D01*
G75*
G02*
X-14324500Y-136876000I-175500J0D01*
G01*
X-16025500Y-136876000D01*
G75*
G02*
X-16201000Y-136700500I0J175500D01*
G01*
X-16201000Y-136349500D01*
G75*
G02*
X-16025500Y-136174000I175500J0D01*
G01*
X-14324500Y-136174000D01*
G75*
G02*
X-14149000Y-136349500I0J-175500D01*
G01*
G37*
G36*
G01*
X-14149000Y-135079500D02*
X-14149000Y-135430500D01*
G75*
G02*
X-14324500Y-135606000I-175500J0D01*
G01*
X-16025500Y-135606000D01*
G75*
G02*
X-16201000Y-135430500I0J175500D01*
G01*
X-16201000Y-135079500D01*
G75*
G02*
X-16025500Y-134904000I175500J0D01*
G01*
X-14324500Y-134904000D01*
G75*
G02*
X-14149000Y-135079500I0J-175500D01*
G01*
G37*
G36*
G01*
X-14149000Y-133809500D02*
X-14149000Y-134160500D01*
G75*
G02*
X-14324500Y-134336000I-175500J0D01*
G01*
X-16025500Y-134336000D01*
G75*
G02*
X-16201000Y-134160500I0J175500D01*
G01*
X-16201000Y-133809500D01*
G75*
G02*
X-16025500Y-133634000I175500J0D01*
G01*
X-14324500Y-133634000D01*
G75*
G02*
X-14149000Y-133809500I0J-175500D01*
G01*
G37*
G36*
G01*
X-14149000Y-132539500D02*
X-14149000Y-132890500D01*
G75*
G02*
X-14324500Y-133066000I-175500J0D01*
G01*
X-16025500Y-133066000D01*
G75*
G02*
X-16201000Y-132890500I0J175500D01*
G01*
X-16201000Y-132539500D01*
G75*
G02*
X-16025500Y-132364000I175500J0D01*
G01*
X-14324500Y-132364000D01*
G75*
G02*
X-14149000Y-132539500I0J-175500D01*
G01*
G37*
G36*
G01*
X-14149000Y-131269500D02*
X-14149000Y-131620500D01*
G75*
G02*
X-14324500Y-131796000I-175500J0D01*
G01*
X-16025500Y-131796000D01*
G75*
G02*
X-16201000Y-131620500I0J175500D01*
G01*
X-16201000Y-131269500D01*
G75*
G02*
X-16025500Y-131094000I175500J0D01*
G01*
X-14324500Y-131094000D01*
G75*
G02*
X-14149000Y-131269500I0J-175500D01*
G01*
G37*
G36*
G01*
X-14149000Y-129999500D02*
X-14149000Y-130350500D01*
G75*
G02*
X-14324500Y-130526000I-175500J0D01*
G01*
X-16025500Y-130526000D01*
G75*
G02*
X-16201000Y-130350500I0J175500D01*
G01*
X-16201000Y-129999500D01*
G75*
G02*
X-16025500Y-129824000I175500J0D01*
G01*
X-14324500Y-129824000D01*
G75*
G02*
X-14149000Y-129999500I0J-175500D01*
G01*
G37*
G36*
G01*
X-14149000Y-128729500D02*
X-14149000Y-129080500D01*
G75*
G02*
X-14324500Y-129256000I-175500J0D01*
G01*
X-16025500Y-129256000D01*
G75*
G02*
X-16201000Y-129080500I0J175500D01*
G01*
X-16201000Y-128729500D01*
G75*
G02*
X-16025500Y-128554000I175500J0D01*
G01*
X-14324500Y-128554000D01*
G75*
G02*
X-14149000Y-128729500I0J-175500D01*
G01*
G37*
G36*
G01*
X321131000Y-128729500D02*
X321131000Y-129080500D01*
G75*
G02*
X320955500Y-129256000I-175500J0D01*
G01*
X319254500Y-129256000D01*
G75*
G02*
X319079000Y-129080500I0J175500D01*
G01*
X319079000Y-128729500D01*
G75*
G02*
X319254500Y-128554000I175500J0D01*
G01*
X320955500Y-128554000D01*
G75*
G02*
X321131000Y-128729500I0J-175500D01*
G01*
G37*
G36*
G01*
X321131000Y-129999500D02*
X321131000Y-130350500D01*
G75*
G02*
X320955500Y-130526000I-175500J0D01*
G01*
X319254500Y-130526000D01*
G75*
G02*
X319079000Y-130350500I0J175500D01*
G01*
X319079000Y-129999500D01*
G75*
G02*
X319254500Y-129824000I175500J0D01*
G01*
X320955500Y-129824000D01*
G75*
G02*
X321131000Y-129999500I0J-175500D01*
G01*
G37*
G36*
G01*
X321131000Y-131269500D02*
X321131000Y-131620500D01*
G75*
G02*
X320955500Y-131796000I-175500J0D01*
G01*
X319254500Y-131796000D01*
G75*
G02*
X319079000Y-131620500I0J175500D01*
G01*
X319079000Y-131269500D01*
G75*
G02*
X319254500Y-131094000I175500J0D01*
G01*
X320955500Y-131094000D01*
G75*
G02*
X321131000Y-131269500I0J-175500D01*
G01*
G37*
G36*
G01*
X321131000Y-132539500D02*
X321131000Y-132890500D01*
G75*
G02*
X320955500Y-133066000I-175500J0D01*
G01*
X319254500Y-133066000D01*
G75*
G02*
X319079000Y-132890500I0J175500D01*
G01*
X319079000Y-132539500D01*
G75*
G02*
X319254500Y-132364000I175500J0D01*
G01*
X320955500Y-132364000D01*
G75*
G02*
X321131000Y-132539500I0J-175500D01*
G01*
G37*
G36*
G01*
X321131000Y-133809500D02*
X321131000Y-134160500D01*
G75*
G02*
X320955500Y-134336000I-175500J0D01*
G01*
X319254500Y-134336000D01*
G75*
G02*
X319079000Y-134160500I0J175500D01*
G01*
X319079000Y-133809500D01*
G75*
G02*
X319254500Y-133634000I175500J0D01*
G01*
X320955500Y-133634000D01*
G75*
G02*
X321131000Y-133809500I0J-175500D01*
G01*
G37*
G36*
G01*
X321131000Y-135079500D02*
X321131000Y-135430500D01*
G75*
G02*
X320955500Y-135606000I-175500J0D01*
G01*
X319254500Y-135606000D01*
G75*
G02*
X319079000Y-135430500I0J175500D01*
G01*
X319079000Y-135079500D01*
G75*
G02*
X319254500Y-134904000I175500J0D01*
G01*
X320955500Y-134904000D01*
G75*
G02*
X321131000Y-135079500I0J-175500D01*
G01*
G37*
G36*
G01*
X321131000Y-136349500D02*
X321131000Y-136700500D01*
G75*
G02*
X320955500Y-136876000I-175500J0D01*
G01*
X319254500Y-136876000D01*
G75*
G02*
X319079000Y-136700500I0J175500D01*
G01*
X319079000Y-136349500D01*
G75*
G02*
X319254500Y-136174000I175500J0D01*
G01*
X320955500Y-136174000D01*
G75*
G02*
X321131000Y-136349500I0J-175500D01*
G01*
G37*
G36*
G01*
X321131000Y-137619500D02*
X321131000Y-137970500D01*
G75*
G02*
X320955500Y-138146000I-175500J0D01*
G01*
X319254500Y-138146000D01*
G75*
G02*
X319079000Y-137970500I0J175500D01*
G01*
X319079000Y-137619500D01*
G75*
G02*
X319254500Y-137444000I175500J0D01*
G01*
X320955500Y-137444000D01*
G75*
G02*
X321131000Y-137619500I0J-175500D01*
G01*
G37*
G36*
G01*
X326081000Y-137619500D02*
X326081000Y-137970500D01*
G75*
G02*
X325905500Y-138146000I-175500J0D01*
G01*
X324204500Y-138146000D01*
G75*
G02*
X324029000Y-137970500I0J175500D01*
G01*
X324029000Y-137619500D01*
G75*
G02*
X324204500Y-137444000I175500J0D01*
G01*
X325905500Y-137444000D01*
G75*
G02*
X326081000Y-137619500I0J-175500D01*
G01*
G37*
G36*
G01*
X326081000Y-136349500D02*
X326081000Y-136700500D01*
G75*
G02*
X325905500Y-136876000I-175500J0D01*
G01*
X324204500Y-136876000D01*
G75*
G02*
X324029000Y-136700500I0J175500D01*
G01*
X324029000Y-136349500D01*
G75*
G02*
X324204500Y-136174000I175500J0D01*
G01*
X325905500Y-136174000D01*
G75*
G02*
X326081000Y-136349500I0J-175500D01*
G01*
G37*
G36*
G01*
X326081000Y-135079500D02*
X326081000Y-135430500D01*
G75*
G02*
X325905500Y-135606000I-175500J0D01*
G01*
X324204500Y-135606000D01*
G75*
G02*
X324029000Y-135430500I0J175500D01*
G01*
X324029000Y-135079500D01*
G75*
G02*
X324204500Y-134904000I175500J0D01*
G01*
X325905500Y-134904000D01*
G75*
G02*
X326081000Y-135079500I0J-175500D01*
G01*
G37*
G36*
G01*
X326081000Y-133809500D02*
X326081000Y-134160500D01*
G75*
G02*
X325905500Y-134336000I-175500J0D01*
G01*
X324204500Y-134336000D01*
G75*
G02*
X324029000Y-134160500I0J175500D01*
G01*
X324029000Y-133809500D01*
G75*
G02*
X324204500Y-133634000I175500J0D01*
G01*
X325905500Y-133634000D01*
G75*
G02*
X326081000Y-133809500I0J-175500D01*
G01*
G37*
G36*
G01*
X326081000Y-132539500D02*
X326081000Y-132890500D01*
G75*
G02*
X325905500Y-133066000I-175500J0D01*
G01*
X324204500Y-133066000D01*
G75*
G02*
X324029000Y-132890500I0J175500D01*
G01*
X324029000Y-132539500D01*
G75*
G02*
X324204500Y-132364000I175500J0D01*
G01*
X325905500Y-132364000D01*
G75*
G02*
X326081000Y-132539500I0J-175500D01*
G01*
G37*
G36*
G01*
X326081000Y-131269500D02*
X326081000Y-131620500D01*
G75*
G02*
X325905500Y-131796000I-175500J0D01*
G01*
X324204500Y-131796000D01*
G75*
G02*
X324029000Y-131620500I0J175500D01*
G01*
X324029000Y-131269500D01*
G75*
G02*
X324204500Y-131094000I175500J0D01*
G01*
X325905500Y-131094000D01*
G75*
G02*
X326081000Y-131269500I0J-175500D01*
G01*
G37*
G36*
G01*
X326081000Y-129999500D02*
X326081000Y-130350500D01*
G75*
G02*
X325905500Y-130526000I-175500J0D01*
G01*
X324204500Y-130526000D01*
G75*
G02*
X324029000Y-130350500I0J175500D01*
G01*
X324029000Y-129999500D01*
G75*
G02*
X324204500Y-129824000I175500J0D01*
G01*
X325905500Y-129824000D01*
G75*
G02*
X326081000Y-129999500I0J-175500D01*
G01*
G37*
G36*
G01*
X326081000Y-128729500D02*
X326081000Y-129080500D01*
G75*
G02*
X325905500Y-129256000I-175500J0D01*
G01*
X324204500Y-129256000D01*
G75*
G02*
X324029000Y-129080500I0J175500D01*
G01*
X324029000Y-128729500D01*
G75*
G02*
X324204500Y-128554000I175500J0D01*
G01*
X325905500Y-128554000D01*
G75*
G02*
X326081000Y-128729500I0J-175500D01*
G01*
G37*
G36*
G01*
X323361000Y-126724500D02*
X323361000Y-127275500D01*
G75*
G02*
X323110500Y-127526000I-250500J0D01*
G01*
X322609500Y-127526000D01*
G75*
G02*
X322359000Y-127275500I0J250500D01*
G01*
X322359000Y-126724500D01*
G75*
G02*
X322609500Y-126474000I250500J0D01*
G01*
X323110500Y-126474000D01*
G75*
G02*
X323361000Y-126724500I0J-250500D01*
G01*
G37*
G36*
G01*
X321811000Y-126724500D02*
X321811000Y-127275500D01*
G75*
G02*
X321560500Y-127526000I-250500J0D01*
G01*
X321059500Y-127526000D01*
G75*
G02*
X320809000Y-127275500I0J250500D01*
G01*
X320809000Y-126724500D01*
G75*
G02*
X321059500Y-126474000I250500J0D01*
G01*
X321560500Y-126474000D01*
G75*
G02*
X321811000Y-126724500I0J-250500D01*
G01*
G37*
G36*
G01*
X327359500Y-136454000D02*
X327960500Y-136454000D01*
G75*
G02*
X328186000Y-136679500I0J-225500D01*
G01*
X328186000Y-137130500D01*
G75*
G02*
X327960500Y-137356000I-225500J0D01*
G01*
X327359500Y-137356000D01*
G75*
G02*
X327134000Y-137130500I0J225500D01*
G01*
X327134000Y-136679500D01*
G75*
G02*
X327359500Y-136454000I225500J0D01*
G01*
G37*
G36*
G01*
X327359500Y-134804000D02*
X327960500Y-134804000D01*
G75*
G02*
X328186000Y-135029500I0J-225500D01*
G01*
X328186000Y-135480500D01*
G75*
G02*
X327960500Y-135706000I-225500J0D01*
G01*
X327359500Y-135706000D01*
G75*
G02*
X327134000Y-135480500I0J225500D01*
G01*
X327134000Y-135029500D01*
G75*
G02*
X327359500Y-134804000I225500J0D01*
G01*
G37*
G36*
G01*
X211601000Y-126724500D02*
X211601000Y-127275500D01*
G75*
G02*
X211350500Y-127526000I-250500J0D01*
G01*
X210849500Y-127526000D01*
G75*
G02*
X210599000Y-127275500I0J250500D01*
G01*
X210599000Y-126724500D01*
G75*
G02*
X210849500Y-126474000I250500J0D01*
G01*
X211350500Y-126474000D01*
G75*
G02*
X211601000Y-126724500I0J-250500D01*
G01*
G37*
G36*
G01*
X210051000Y-126724500D02*
X210051000Y-127275500D01*
G75*
G02*
X209800500Y-127526000I-250500J0D01*
G01*
X209299500Y-127526000D01*
G75*
G02*
X209049000Y-127275500I0J250500D01*
G01*
X209049000Y-126724500D01*
G75*
G02*
X209299500Y-126474000I250500J0D01*
G01*
X209800500Y-126474000D01*
G75*
G02*
X210051000Y-126724500I0J-250500D01*
G01*
G37*
G36*
G01*
X215599500Y-136454000D02*
X216200500Y-136454000D01*
G75*
G02*
X216426000Y-136679500I0J-225500D01*
G01*
X216426000Y-137130500D01*
G75*
G02*
X216200500Y-137356000I-225500J0D01*
G01*
X215599500Y-137356000D01*
G75*
G02*
X215374000Y-137130500I0J225500D01*
G01*
X215374000Y-136679500D01*
G75*
G02*
X215599500Y-136454000I225500J0D01*
G01*
G37*
G36*
G01*
X215599500Y-134804000D02*
X216200500Y-134804000D01*
G75*
G02*
X216426000Y-135029500I0J-225500D01*
G01*
X216426000Y-135480500D01*
G75*
G02*
X216200500Y-135706000I-225500J0D01*
G01*
X215599500Y-135706000D01*
G75*
G02*
X215374000Y-135480500I0J225500D01*
G01*
X215374000Y-135029500D01*
G75*
G02*
X215599500Y-134804000I225500J0D01*
G01*
G37*
D10*
X152320000Y-6450000D03*
D11*
X150890000Y-10100000D03*
D10*
X143680000Y-6450000D03*
D11*
X145110000Y-10100000D03*
D12*
X143680000Y-10630000D03*
X152320000Y-10630000D03*
G36*
G01*
X147549000Y-12270000D02*
X147549000Y-10820000D01*
G75*
G02*
X147600000Y-10769000I51000J0D01*
G01*
X147900000Y-10769000D01*
G75*
G02*
X147951000Y-10820000I0J-51000D01*
G01*
X147951000Y-12270000D01*
G75*
G02*
X147900000Y-12321000I-51000J0D01*
G01*
X147600000Y-12321000D01*
G75*
G02*
X147549000Y-12270000I0J51000D01*
G01*
G37*
G36*
G01*
X149549000Y-12270000D02*
X149549000Y-10820000D01*
G75*
G02*
X149600000Y-10769000I51000J0D01*
G01*
X149900000Y-10769000D01*
G75*
G02*
X149951000Y-10820000I0J-51000D01*
G01*
X149951000Y-12270000D01*
G75*
G02*
X149900000Y-12321000I-51000J0D01*
G01*
X149600000Y-12321000D01*
G75*
G02*
X149549000Y-12270000I0J51000D01*
G01*
G37*
G36*
G01*
X149049000Y-12270000D02*
X149049000Y-10820000D01*
G75*
G02*
X149100000Y-10769000I51000J0D01*
G01*
X149400000Y-10769000D01*
G75*
G02*
X149451000Y-10820000I0J-51000D01*
G01*
X149451000Y-12270000D01*
G75*
G02*
X149400000Y-12321000I-51000J0D01*
G01*
X149100000Y-12321000D01*
G75*
G02*
X149049000Y-12270000I0J51000D01*
G01*
G37*
G36*
G01*
X148549000Y-12270000D02*
X148549000Y-10820000D01*
G75*
G02*
X148600000Y-10769000I51000J0D01*
G01*
X148900000Y-10769000D01*
G75*
G02*
X148951000Y-10820000I0J-51000D01*
G01*
X148951000Y-12270000D01*
G75*
G02*
X148900000Y-12321000I-51000J0D01*
G01*
X148600000Y-12321000D01*
G75*
G02*
X148549000Y-12270000I0J51000D01*
G01*
G37*
G36*
G01*
X148049000Y-12270000D02*
X148049000Y-10820000D01*
G75*
G02*
X148100000Y-10769000I51000J0D01*
G01*
X148400000Y-10769000D01*
G75*
G02*
X148451000Y-10820000I0J-51000D01*
G01*
X148451000Y-12270000D01*
G75*
G02*
X148400000Y-12321000I-51000J0D01*
G01*
X148100000Y-12321000D01*
G75*
G02*
X148049000Y-12270000I0J51000D01*
G01*
G37*
G36*
G01*
X147049000Y-12270000D02*
X147049000Y-10820000D01*
G75*
G02*
X147100000Y-10769000I51000J0D01*
G01*
X147400000Y-10769000D01*
G75*
G02*
X147451000Y-10820000I0J-51000D01*
G01*
X147451000Y-12270000D01*
G75*
G02*
X147400000Y-12321000I-51000J0D01*
G01*
X147100000Y-12321000D01*
G75*
G02*
X147049000Y-12270000I0J51000D01*
G01*
G37*
G36*
G01*
X146549000Y-12270000D02*
X146549000Y-10820000D01*
G75*
G02*
X146600000Y-10769000I51000J0D01*
G01*
X146900000Y-10769000D01*
G75*
G02*
X146951000Y-10820000I0J-51000D01*
G01*
X146951000Y-12270000D01*
G75*
G02*
X146900000Y-12321000I-51000J0D01*
G01*
X146600000Y-12321000D01*
G75*
G02*
X146549000Y-12270000I0J51000D01*
G01*
G37*
G36*
G01*
X146049000Y-12270000D02*
X146049000Y-10820000D01*
G75*
G02*
X146100000Y-10769000I51000J0D01*
G01*
X146400000Y-10769000D01*
G75*
G02*
X146451000Y-10820000I0J-51000D01*
G01*
X146451000Y-12270000D01*
G75*
G02*
X146400000Y-12321000I-51000J0D01*
G01*
X146100000Y-12321000D01*
G75*
G02*
X146049000Y-12270000I0J51000D01*
G01*
G37*
G36*
G01*
X150899000Y-12270000D02*
X150899000Y-10820000D01*
G75*
G02*
X150950000Y-10769000I51000J0D01*
G01*
X151550000Y-10769000D01*
G75*
G02*
X151601000Y-10820000I0J-51000D01*
G01*
X151601000Y-12270000D01*
G75*
G02*
X151550000Y-12321000I-51000J0D01*
G01*
X150950000Y-12321000D01*
G75*
G02*
X150899000Y-12270000I0J51000D01*
G01*
G37*
G36*
G01*
X150099000Y-12270000D02*
X150099000Y-10820000D01*
G75*
G02*
X150150000Y-10769000I51000J0D01*
G01*
X150750000Y-10769000D01*
G75*
G02*
X150801000Y-10820000I0J-51000D01*
G01*
X150801000Y-12270000D01*
G75*
G02*
X150750000Y-12321000I-51000J0D01*
G01*
X150150000Y-12321000D01*
G75*
G02*
X150099000Y-12270000I0J51000D01*
G01*
G37*
G36*
G01*
X145199000Y-12270000D02*
X145199000Y-10820000D01*
G75*
G02*
X145250000Y-10769000I51000J0D01*
G01*
X145850000Y-10769000D01*
G75*
G02*
X145901000Y-10820000I0J-51000D01*
G01*
X145901000Y-12270000D01*
G75*
G02*
X145850000Y-12321000I-51000J0D01*
G01*
X145250000Y-12321000D01*
G75*
G02*
X145199000Y-12270000I0J51000D01*
G01*
G37*
G36*
G01*
X144399000Y-12270000D02*
X144399000Y-10820000D01*
G75*
G02*
X144450000Y-10769000I51000J0D01*
G01*
X145050000Y-10769000D01*
G75*
G02*
X145101000Y-10820000I0J-51000D01*
G01*
X145101000Y-12270000D01*
G75*
G02*
X145050000Y-12321000I-51000J0D01*
G01*
X144450000Y-12321000D01*
G75*
G02*
X144399000Y-12270000I0J51000D01*
G01*
G37*
G36*
G01*
X144399000Y-12270000D02*
X144399000Y-10820000D01*
G75*
G02*
X144450000Y-10769000I51000J0D01*
G01*
X145050000Y-10769000D01*
G75*
G02*
X145101000Y-10820000I0J-51000D01*
G01*
X145101000Y-12270000D01*
G75*
G02*
X145050000Y-12321000I-51000J0D01*
G01*
X144450000Y-12321000D01*
G75*
G02*
X144399000Y-12270000I0J51000D01*
G01*
G37*
G36*
G01*
X145199000Y-12270000D02*
X145199000Y-10820000D01*
G75*
G02*
X145250000Y-10769000I51000J0D01*
G01*
X145850000Y-10769000D01*
G75*
G02*
X145901000Y-10820000I0J-51000D01*
G01*
X145901000Y-12270000D01*
G75*
G02*
X145850000Y-12321000I-51000J0D01*
G01*
X145250000Y-12321000D01*
G75*
G02*
X145199000Y-12270000I0J51000D01*
G01*
G37*
G36*
G01*
X150099000Y-12270000D02*
X150099000Y-10820000D01*
G75*
G02*
X150150000Y-10769000I51000J0D01*
G01*
X150750000Y-10769000D01*
G75*
G02*
X150801000Y-10820000I0J-51000D01*
G01*
X150801000Y-12270000D01*
G75*
G02*
X150750000Y-12321000I-51000J0D01*
G01*
X150150000Y-12321000D01*
G75*
G02*
X150099000Y-12270000I0J51000D01*
G01*
G37*
G36*
G01*
X150899000Y-12270000D02*
X150899000Y-10820000D01*
G75*
G02*
X150950000Y-10769000I51000J0D01*
G01*
X151550000Y-10769000D01*
G75*
G02*
X151601000Y-10820000I0J-51000D01*
G01*
X151601000Y-12270000D01*
G75*
G02*
X151550000Y-12321000I-51000J0D01*
G01*
X150950000Y-12321000D01*
G75*
G02*
X150899000Y-12270000I0J51000D01*
G01*
G37*
D13*
X370170000Y-126500000D03*
X372710000Y-126500000D03*
G36*
G01*
X374400000Y-125599000D02*
X376100000Y-125599000D01*
G75*
G02*
X376151000Y-125650000I0J-51000D01*
G01*
X376151000Y-127350000D01*
G75*
G02*
X376100000Y-127401000I-51000J0D01*
G01*
X374400000Y-127401000D01*
G75*
G02*
X374349000Y-127350000I0J51000D01*
G01*
X374349000Y-125650000D01*
G75*
G02*
X374400000Y-125599000I51000J0D01*
G01*
G37*
X-79250000Y-126500000D03*
X-76710000Y-126500000D03*
G36*
G01*
X-75020000Y-125599000D02*
X-73320000Y-125599000D01*
G75*
G02*
X-73269000Y-125650000I0J-51000D01*
G01*
X-73269000Y-127350000D01*
G75*
G02*
X-73320000Y-127401000I-51000J0D01*
G01*
X-75020000Y-127401000D01*
G75*
G02*
X-75071000Y-127350000I0J51000D01*
G01*
X-75071000Y-125650000D01*
G75*
G02*
X-75020000Y-125599000I51000J0D01*
G01*
G37*
G36*
G01*
X125360000Y-14191000D02*
X123560000Y-14191000D01*
G75*
G02*
X123509000Y-14140000I0J51000D01*
G01*
X123509000Y-11640000D01*
G75*
G02*
X123560000Y-11589000I51000J0D01*
G01*
X125360000Y-11589000D01*
G75*
G02*
X125411000Y-11640000I0J-51000D01*
G01*
X125411000Y-14140000D01*
G75*
G02*
X125360000Y-14191000I-51000J0D01*
G01*
G37*
G36*
G01*
X125360000Y-10191000D02*
X123560000Y-10191000D01*
G75*
G02*
X123509000Y-10140000I0J51000D01*
G01*
X123509000Y-7640000D01*
G75*
G02*
X123560000Y-7589000I51000J0D01*
G01*
X125360000Y-7589000D01*
G75*
G02*
X125411000Y-7640000I0J-51000D01*
G01*
X125411000Y-10140000D01*
G75*
G02*
X125360000Y-10191000I-51000J0D01*
G01*
G37*
G36*
G01*
X141235000Y-14191000D02*
X139435000Y-14191000D01*
G75*
G02*
X139384000Y-14140000I0J51000D01*
G01*
X139384000Y-11640000D01*
G75*
G02*
X139435000Y-11589000I51000J0D01*
G01*
X141235000Y-11589000D01*
G75*
G02*
X141286000Y-11640000I0J-51000D01*
G01*
X141286000Y-14140000D01*
G75*
G02*
X141235000Y-14191000I-51000J0D01*
G01*
G37*
G36*
G01*
X141235000Y-10191000D02*
X139435000Y-10191000D01*
G75*
G02*
X139384000Y-10140000I0J51000D01*
G01*
X139384000Y-7640000D01*
G75*
G02*
X139435000Y-7589000I51000J0D01*
G01*
X141235000Y-7589000D01*
G75*
G02*
X141286000Y-7640000I0J-51000D01*
G01*
X141286000Y-10140000D01*
G75*
G02*
X141235000Y-10191000I-51000J0D01*
G01*
G37*
X368300000Y-18097500D03*
X368300000Y-20637500D03*
X370840000Y-18097500D03*
X370840000Y-20637500D03*
X373380000Y-18097500D03*
X373380000Y-20637500D03*
X375920000Y-18097500D03*
X375920000Y-20637500D03*
X378460000Y-18097500D03*
G36*
G01*
X379310000Y-21538500D02*
X377610000Y-21538500D01*
G75*
G02*
X377559000Y-21487500I0J51000D01*
G01*
X377559000Y-19787500D01*
G75*
G02*
X377610000Y-19736500I51000J0D01*
G01*
X379310000Y-19736500D01*
G75*
G02*
X379361000Y-19787500I0J-51000D01*
G01*
X379361000Y-21487500D01*
G75*
G02*
X379310000Y-21538500I-51000J0D01*
G01*
G37*
D14*
X135890000Y-140970000D03*
X135890000Y-138430000D03*
G36*
G01*
X132499000Y-134150000D02*
X132499000Y-132550000D01*
G75*
G02*
X132550000Y-132499000I51000J0D01*
G01*
X134150000Y-132499000D01*
G75*
G02*
X134201000Y-132550000I0J-51000D01*
G01*
X134201000Y-134150000D01*
G75*
G02*
X134150000Y-134201000I-51000J0D01*
G01*
X132550000Y-134201000D01*
G75*
G02*
X132499000Y-134150000I0J51000D01*
G01*
G37*
X135890000Y-133350000D03*
X138430000Y-133350000D03*
X140970000Y-133350000D03*
X143510000Y-133350000D03*
X146050000Y-133350000D03*
X148590000Y-133350000D03*
X151130000Y-133350000D03*
X153670000Y-133350000D03*
X156210000Y-133350000D03*
X158750000Y-133350000D03*
X161290000Y-133350000D03*
X163830000Y-133350000D03*
X146050000Y-146050000D03*
X143510000Y-146050000D03*
X140970000Y-146050000D03*
X135890000Y-146050000D03*
X133350000Y-148590000D03*
X135890000Y-148590000D03*
X138430000Y-148590000D03*
X140970000Y-148590000D03*
X143510000Y-148590000D03*
X146050000Y-148590000D03*
X148590000Y-148590000D03*
X151130000Y-148590000D03*
X153670000Y-148590000D03*
X156210000Y-148590000D03*
X158750000Y-148590000D03*
X161290000Y-148590000D03*
X163830000Y-148590000D03*
X166370000Y-133350000D03*
X166370000Y-135890000D03*
X166370000Y-138430000D03*
X166370000Y-148590000D03*
X166370000Y-146050000D03*
X166370000Y-143510000D03*
X166370000Y-140970000D03*
G36*
G01*
X128901000Y-138850000D02*
X128901000Y-140550000D01*
G75*
G02*
X128850000Y-140601000I-51000J0D01*
G01*
X127150000Y-140601000D01*
G75*
G02*
X127099000Y-140550000I0J51000D01*
G01*
X127099000Y-138850000D01*
G75*
G02*
X127150000Y-138799000I51000J0D01*
G01*
X128850000Y-138799000D01*
G75*
G02*
X128901000Y-138850000I0J-51000D01*
G01*
G37*
D13*
X128000000Y-142240000D03*
G36*
G01*
X102561000Y-128729500D02*
X102561000Y-129080500D01*
G75*
G02*
X102385500Y-129256000I-175500J0D01*
G01*
X100684500Y-129256000D01*
G75*
G02*
X100509000Y-129080500I0J175500D01*
G01*
X100509000Y-128729500D01*
G75*
G02*
X100684500Y-128554000I175500J0D01*
G01*
X102385500Y-128554000D01*
G75*
G02*
X102561000Y-128729500I0J-175500D01*
G01*
G37*
G36*
G01*
X102561000Y-129999500D02*
X102561000Y-130350500D01*
G75*
G02*
X102385500Y-130526000I-175500J0D01*
G01*
X100684500Y-130526000D01*
G75*
G02*
X100509000Y-130350500I0J175500D01*
G01*
X100509000Y-129999500D01*
G75*
G02*
X100684500Y-129824000I175500J0D01*
G01*
X102385500Y-129824000D01*
G75*
G02*
X102561000Y-129999500I0J-175500D01*
G01*
G37*
G36*
G01*
X102561000Y-131269500D02*
X102561000Y-131620500D01*
G75*
G02*
X102385500Y-131796000I-175500J0D01*
G01*
X100684500Y-131796000D01*
G75*
G02*
X100509000Y-131620500I0J175500D01*
G01*
X100509000Y-131269500D01*
G75*
G02*
X100684500Y-131094000I175500J0D01*
G01*
X102385500Y-131094000D01*
G75*
G02*
X102561000Y-131269500I0J-175500D01*
G01*
G37*
G36*
G01*
X102561000Y-132539500D02*
X102561000Y-132890500D01*
G75*
G02*
X102385500Y-133066000I-175500J0D01*
G01*
X100684500Y-133066000D01*
G75*
G02*
X100509000Y-132890500I0J175500D01*
G01*
X100509000Y-132539500D01*
G75*
G02*
X100684500Y-132364000I175500J0D01*
G01*
X102385500Y-132364000D01*
G75*
G02*
X102561000Y-132539500I0J-175500D01*
G01*
G37*
G36*
G01*
X102561000Y-133809500D02*
X102561000Y-134160500D01*
G75*
G02*
X102385500Y-134336000I-175500J0D01*
G01*
X100684500Y-134336000D01*
G75*
G02*
X100509000Y-134160500I0J175500D01*
G01*
X100509000Y-133809500D01*
G75*
G02*
X100684500Y-133634000I175500J0D01*
G01*
X102385500Y-133634000D01*
G75*
G02*
X102561000Y-133809500I0J-175500D01*
G01*
G37*
G36*
G01*
X102561000Y-135079500D02*
X102561000Y-135430500D01*
G75*
G02*
X102385500Y-135606000I-175500J0D01*
G01*
X100684500Y-135606000D01*
G75*
G02*
X100509000Y-135430500I0J175500D01*
G01*
X100509000Y-135079500D01*
G75*
G02*
X100684500Y-134904000I175500J0D01*
G01*
X102385500Y-134904000D01*
G75*
G02*
X102561000Y-135079500I0J-175500D01*
G01*
G37*
G36*
G01*
X102561000Y-136349500D02*
X102561000Y-136700500D01*
G75*
G02*
X102385500Y-136876000I-175500J0D01*
G01*
X100684500Y-136876000D01*
G75*
G02*
X100509000Y-136700500I0J175500D01*
G01*
X100509000Y-136349500D01*
G75*
G02*
X100684500Y-136174000I175500J0D01*
G01*
X102385500Y-136174000D01*
G75*
G02*
X102561000Y-136349500I0J-175500D01*
G01*
G37*
G36*
G01*
X102561000Y-137619500D02*
X102561000Y-137970500D01*
G75*
G02*
X102385500Y-138146000I-175500J0D01*
G01*
X100684500Y-138146000D01*
G75*
G02*
X100509000Y-137970500I0J175500D01*
G01*
X100509000Y-137619500D01*
G75*
G02*
X100684500Y-137444000I175500J0D01*
G01*
X102385500Y-137444000D01*
G75*
G02*
X102561000Y-137619500I0J-175500D01*
G01*
G37*
G36*
G01*
X97611000Y-137619500D02*
X97611000Y-137970500D01*
G75*
G02*
X97435500Y-138146000I-175500J0D01*
G01*
X95734500Y-138146000D01*
G75*
G02*
X95559000Y-137970500I0J175500D01*
G01*
X95559000Y-137619500D01*
G75*
G02*
X95734500Y-137444000I175500J0D01*
G01*
X97435500Y-137444000D01*
G75*
G02*
X97611000Y-137619500I0J-175500D01*
G01*
G37*
G36*
G01*
X97611000Y-136349500D02*
X97611000Y-136700500D01*
G75*
G02*
X97435500Y-136876000I-175500J0D01*
G01*
X95734500Y-136876000D01*
G75*
G02*
X95559000Y-136700500I0J175500D01*
G01*
X95559000Y-136349500D01*
G75*
G02*
X95734500Y-136174000I175500J0D01*
G01*
X97435500Y-136174000D01*
G75*
G02*
X97611000Y-136349500I0J-175500D01*
G01*
G37*
G36*
G01*
X97611000Y-135079500D02*
X97611000Y-135430500D01*
G75*
G02*
X97435500Y-135606000I-175500J0D01*
G01*
X95734500Y-135606000D01*
G75*
G02*
X95559000Y-135430500I0J175500D01*
G01*
X95559000Y-135079500D01*
G75*
G02*
X95734500Y-134904000I175500J0D01*
G01*
X97435500Y-134904000D01*
G75*
G02*
X97611000Y-135079500I0J-175500D01*
G01*
G37*
G36*
G01*
X97611000Y-133809500D02*
X97611000Y-134160500D01*
G75*
G02*
X97435500Y-134336000I-175500J0D01*
G01*
X95734500Y-134336000D01*
G75*
G02*
X95559000Y-134160500I0J175500D01*
G01*
X95559000Y-133809500D01*
G75*
G02*
X95734500Y-133634000I175500J0D01*
G01*
X97435500Y-133634000D01*
G75*
G02*
X97611000Y-133809500I0J-175500D01*
G01*
G37*
G36*
G01*
X97611000Y-132539500D02*
X97611000Y-132890500D01*
G75*
G02*
X97435500Y-133066000I-175500J0D01*
G01*
X95734500Y-133066000D01*
G75*
G02*
X95559000Y-132890500I0J175500D01*
G01*
X95559000Y-132539500D01*
G75*
G02*
X95734500Y-132364000I175500J0D01*
G01*
X97435500Y-132364000D01*
G75*
G02*
X97611000Y-132539500I0J-175500D01*
G01*
G37*
G36*
G01*
X97611000Y-131269500D02*
X97611000Y-131620500D01*
G75*
G02*
X97435500Y-131796000I-175500J0D01*
G01*
X95734500Y-131796000D01*
G75*
G02*
X95559000Y-131620500I0J175500D01*
G01*
X95559000Y-131269500D01*
G75*
G02*
X95734500Y-131094000I175500J0D01*
G01*
X97435500Y-131094000D01*
G75*
G02*
X97611000Y-131269500I0J-175500D01*
G01*
G37*
G36*
G01*
X97611000Y-129999500D02*
X97611000Y-130350500D01*
G75*
G02*
X97435500Y-130526000I-175500J0D01*
G01*
X95734500Y-130526000D01*
G75*
G02*
X95559000Y-130350500I0J175500D01*
G01*
X95559000Y-129999500D01*
G75*
G02*
X95734500Y-129824000I175500J0D01*
G01*
X97435500Y-129824000D01*
G75*
G02*
X97611000Y-129999500I0J-175500D01*
G01*
G37*
G36*
G01*
X97611000Y-128729500D02*
X97611000Y-129080500D01*
G75*
G02*
X97435500Y-129256000I-175500J0D01*
G01*
X95734500Y-129256000D01*
G75*
G02*
X95559000Y-129080500I0J175500D01*
G01*
X95559000Y-128729500D01*
G75*
G02*
X95734500Y-128554000I175500J0D01*
G01*
X97435500Y-128554000D01*
G75*
G02*
X97611000Y-128729500I0J-175500D01*
G01*
G37*
G36*
G01*
X151616000Y-16699500D02*
X151616000Y-17300500D01*
G75*
G02*
X151390500Y-17526000I-225500J0D01*
G01*
X150939500Y-17526000D01*
G75*
G02*
X150714000Y-17300500I0J225500D01*
G01*
X150714000Y-16699500D01*
G75*
G02*
X150939500Y-16474000I225500J0D01*
G01*
X151390500Y-16474000D01*
G75*
G02*
X151616000Y-16699500I0J-225500D01*
G01*
G37*
G36*
G01*
X149966000Y-16699500D02*
X149966000Y-17300500D01*
G75*
G02*
X149740500Y-17526000I-225500J0D01*
G01*
X149289500Y-17526000D01*
G75*
G02*
X149064000Y-17300500I0J225500D01*
G01*
X149064000Y-16699500D01*
G75*
G02*
X149289500Y-16474000I225500J0D01*
G01*
X149740500Y-16474000D01*
G75*
G02*
X149966000Y-16699500I0J-225500D01*
G01*
G37*
G36*
G01*
X151616000Y-14699500D02*
X151616000Y-15300500D01*
G75*
G02*
X151390500Y-15526000I-225500J0D01*
G01*
X150939500Y-15526000D01*
G75*
G02*
X150714000Y-15300500I0J225500D01*
G01*
X150714000Y-14699500D01*
G75*
G02*
X150939500Y-14474000I225500J0D01*
G01*
X151390500Y-14474000D01*
G75*
G02*
X151616000Y-14699500I0J-225500D01*
G01*
G37*
G36*
G01*
X149966000Y-14699500D02*
X149966000Y-15300500D01*
G75*
G02*
X149740500Y-15526000I-225500J0D01*
G01*
X149289500Y-15526000D01*
G75*
G02*
X149064000Y-15300500I0J225500D01*
G01*
X149064000Y-14699500D01*
G75*
G02*
X149289500Y-14474000I225500J0D01*
G01*
X149740500Y-14474000D01*
G75*
G02*
X149966000Y-14699500I0J-225500D01*
G01*
G37*
G36*
G01*
X135244500Y-12699000D02*
X137045500Y-12699000D01*
G75*
G02*
X137946000Y-13599500I0J-900500D01*
G01*
X137946000Y-15400500D01*
G75*
G02*
X137045500Y-16301000I-900500J0D01*
G01*
X135244500Y-16301000D01*
G75*
G02*
X134344000Y-15400500I0J900500D01*
G01*
X134344000Y-13599500D01*
G75*
G02*
X135244500Y-12699000I900500J0D01*
G01*
G37*
G36*
G01*
X130419500Y-9949000D02*
X132470500Y-9949000D01*
G75*
G02*
X133246000Y-10724500I0J-775500D01*
G01*
X133246000Y-12275500D01*
G75*
G02*
X132470500Y-13051000I-775500J0D01*
G01*
X130419500Y-13051000D01*
G75*
G02*
X129644000Y-12275500I0J775500D01*
G01*
X129644000Y-10724500D01*
G75*
G02*
X130419500Y-9949000I775500J0D01*
G01*
G37*
G36*
G01*
X129695000Y-15699000D02*
X133195000Y-15699000D01*
G75*
G02*
X133246000Y-15750000I0J-51000D01*
G01*
X133246000Y-19250000D01*
G75*
G02*
X133195000Y-19301000I-51000J0D01*
G01*
X129695000Y-19301000D01*
G75*
G02*
X129644000Y-19250000I0J51000D01*
G01*
X129644000Y-15750000D01*
G75*
G02*
X129695000Y-15699000I51000J0D01*
G01*
G37*
D15*
X167500000Y-9000000D03*
X164500000Y-9000000D03*
X161500000Y-9000000D03*
X158500000Y-9000000D03*
D16*
X-85500000Y-118500000D03*
X-85500000Y-120500000D03*
X-85500000Y-122500000D03*
G36*
G01*
X-84845248Y-125151000D02*
X-86154752Y-125151000D01*
G75*
G02*
X-86426000Y-124879752I0J271248D01*
G01*
X-86426000Y-124120248D01*
G75*
G02*
X-86154752Y-123849000I271248J0D01*
G01*
X-84845248Y-123849000D01*
G75*
G02*
X-84574000Y-124120248I0J-271248D01*
G01*
X-84574000Y-124879752D01*
G75*
G02*
X-84845248Y-125151000I-271248J0D01*
G01*
G37*
X381500000Y-124500000D03*
X381500000Y-122500000D03*
X381500000Y-120500000D03*
G36*
G01*
X380845248Y-117849000D02*
X382154752Y-117849000D01*
G75*
G02*
X382426000Y-118120248I0J-271248D01*
G01*
X382426000Y-118879752D01*
G75*
G02*
X382154752Y-119151000I-271248J0D01*
G01*
X380845248Y-119151000D01*
G75*
G02*
X380574000Y-118879752I0J271248D01*
G01*
X380574000Y-118120248D01*
G75*
G02*
X380845248Y-117849000I271248J0D01*
G01*
G37*
X381500000Y-146000000D03*
X381500000Y-144000000D03*
X381500000Y-142000000D03*
X381500000Y-140000000D03*
X381500000Y-138000000D03*
X381500000Y-136000000D03*
X381500000Y-134000000D03*
X381500000Y-132000000D03*
G36*
G01*
X380845248Y-129349000D02*
X382154752Y-129349000D01*
G75*
G02*
X382426000Y-129620248I0J-271248D01*
G01*
X382426000Y-130379752D01*
G75*
G02*
X382154752Y-130651000I-271248J0D01*
G01*
X380845248Y-130651000D01*
G75*
G02*
X380574000Y-130379752I0J271248D01*
G01*
X380574000Y-129620248D01*
G75*
G02*
X380845248Y-129349000I271248J0D01*
G01*
G37*
X-85500000Y-130000000D03*
X-85500000Y-132000000D03*
X-85500000Y-134000000D03*
X-85500000Y-136000000D03*
X-85500000Y-138000000D03*
X-85500000Y-140000000D03*
X-85500000Y-142000000D03*
X-85500000Y-144000000D03*
G36*
G01*
X-84845248Y-146651000D02*
X-86154752Y-146651000D01*
G75*
G02*
X-86426000Y-146379752I0J271248D01*
G01*
X-86426000Y-145620248D01*
G75*
G02*
X-86154752Y-145349000I271248J0D01*
G01*
X-84845248Y-145349000D01*
G75*
G02*
X-84574000Y-145620248I0J-271248D01*
G01*
X-84574000Y-146379752D01*
G75*
G02*
X-84845248Y-146651000I-271248J0D01*
G01*
G37*
D17*
X284000000Y-132000000D03*
X178000000Y-132000000D03*
X118000000Y-132000000D03*
X12000000Y-132000000D03*
G36*
G01*
X-7920500Y-134804000D02*
X-7319500Y-134804000D01*
G75*
G02*
X-7094000Y-135029500I0J-225500D01*
G01*
X-7094000Y-135480500D01*
G75*
G02*
X-7319500Y-135706000I-225500J0D01*
G01*
X-7920500Y-135706000D01*
G75*
G02*
X-8146000Y-135480500I0J225500D01*
G01*
X-8146000Y-135029500D01*
G75*
G02*
X-7920500Y-134804000I225500J0D01*
G01*
G37*
G36*
G01*
X-7920500Y-136454000D02*
X-7319500Y-136454000D01*
G75*
G02*
X-7094000Y-136679500I0J-225500D01*
G01*
X-7094000Y-137130500D01*
G75*
G02*
X-7319500Y-137356000I-225500J0D01*
G01*
X-7920500Y-137356000D01*
G75*
G02*
X-8146000Y-137130500I0J225500D01*
G01*
X-8146000Y-136679500D01*
G75*
G02*
X-7920500Y-136454000I225500J0D01*
G01*
G37*
X-88000000Y-18000000D03*
G36*
G01*
X99841000Y-126724500D02*
X99841000Y-127275500D01*
G75*
G02*
X99590500Y-127526000I-250500J0D01*
G01*
X99089500Y-127526000D01*
G75*
G02*
X98839000Y-127275500I0J250500D01*
G01*
X98839000Y-126724500D01*
G75*
G02*
X99089500Y-126474000I250500J0D01*
G01*
X99590500Y-126474000D01*
G75*
G02*
X99841000Y-126724500I0J-250500D01*
G01*
G37*
G36*
G01*
X98291000Y-126724500D02*
X98291000Y-127275500D01*
G75*
G02*
X98040500Y-127526000I-250500J0D01*
G01*
X97539500Y-127526000D01*
G75*
G02*
X97289000Y-127275500I0J250500D01*
G01*
X97289000Y-126724500D01*
G75*
G02*
X97539500Y-126474000I250500J0D01*
G01*
X98040500Y-126474000D01*
G75*
G02*
X98291000Y-126724500I0J-250500D01*
G01*
G37*
G36*
G01*
X-11919000Y-126724500D02*
X-11919000Y-127275500D01*
G75*
G02*
X-12169500Y-127526000I-250500J0D01*
G01*
X-12670500Y-127526000D01*
G75*
G02*
X-12921000Y-127275500I0J250500D01*
G01*
X-12921000Y-126724500D01*
G75*
G02*
X-12670500Y-126474000I250500J0D01*
G01*
X-12169500Y-126474000D01*
G75*
G02*
X-11919000Y-126724500I0J-250500D01*
G01*
G37*
G36*
G01*
X-13469000Y-126724500D02*
X-13469000Y-127275500D01*
G75*
G02*
X-13719500Y-127526000I-250500J0D01*
G01*
X-14220500Y-127526000D01*
G75*
G02*
X-14471000Y-127275500I0J250500D01*
G01*
X-14471000Y-126724500D01*
G75*
G02*
X-14220500Y-126474000I250500J0D01*
G01*
X-13719500Y-126474000D01*
G75*
G02*
X-13469000Y-126724500I0J-250500D01*
G01*
G37*
G36*
G01*
X103839500Y-136454000D02*
X104440500Y-136454000D01*
G75*
G02*
X104666000Y-136679500I0J-225500D01*
G01*
X104666000Y-137130500D01*
G75*
G02*
X104440500Y-137356000I-225500J0D01*
G01*
X103839500Y-137356000D01*
G75*
G02*
X103614000Y-137130500I0J225500D01*
G01*
X103614000Y-136679500D01*
G75*
G02*
X103839500Y-136454000I225500J0D01*
G01*
G37*
G36*
G01*
X103839500Y-134804000D02*
X104440500Y-134804000D01*
G75*
G02*
X104666000Y-135029500I0J-225500D01*
G01*
X104666000Y-135480500D01*
G75*
G02*
X104440500Y-135706000I-225500J0D01*
G01*
X103839500Y-135706000D01*
G75*
G02*
X103614000Y-135480500I0J225500D01*
G01*
X103614000Y-135029500D01*
G75*
G02*
X103839500Y-134804000I225500J0D01*
G01*
G37*
X334000000Y-152000000D03*
X284000000Y-18000000D03*
X234000000Y-152000000D03*
X184000000Y-18000000D03*
X62000000Y-152000000D03*
X112000000Y-18000000D03*
X-38000000Y-152000000D03*
X12000000Y-18000000D03*
X371000000Y-136000000D03*
X384000000Y-18000000D03*
X-75000000Y-136000000D03*
D18*
G36*
X137947165Y-15398874D02*
G01*
X137948000Y-15400500D01*
X137948000Y-15456860D01*
X137947990Y-15457056D01*
X137931295Y-15626562D01*
X137931219Y-15626947D01*
X137883565Y-15784041D01*
X137883415Y-15784403D01*
X137806033Y-15929174D01*
X137805815Y-15929500D01*
X137701674Y-16056397D01*
X137701397Y-16056674D01*
X137574500Y-16160815D01*
X137574174Y-16161033D01*
X137429403Y-16238415D01*
X137429041Y-16238565D01*
X137271947Y-16286219D01*
X137271562Y-16286295D01*
X137102056Y-16302990D01*
X137101860Y-16303000D01*
X137045500Y-16303000D01*
X137043768Y-16302000D01*
X137043768Y-16300000D01*
X137045304Y-16299010D01*
X137220784Y-16281727D01*
X137389337Y-16230597D01*
X137544675Y-16147567D01*
X137680829Y-16035829D01*
X137792567Y-15899675D01*
X137875597Y-15744337D01*
X137926727Y-15575784D01*
X137944010Y-15400304D01*
X137945175Y-15398678D01*
X137947165Y-15398874D01*
G37*
G36*
X134345990Y-15400304D02*
G01*
X134363273Y-15575784D01*
X134414403Y-15744337D01*
X134497433Y-15899675D01*
X134609171Y-16035829D01*
X134745325Y-16147567D01*
X134900663Y-16230597D01*
X135069216Y-16281727D01*
X135244696Y-16299010D01*
X135246322Y-16300175D01*
X135246126Y-16302165D01*
X135244500Y-16303000D01*
X135188140Y-16303000D01*
X135187944Y-16302990D01*
X135018438Y-16286295D01*
X135018053Y-16286219D01*
X134860959Y-16238565D01*
X134860597Y-16238415D01*
X134715826Y-16161033D01*
X134715500Y-16160815D01*
X134588603Y-16056674D01*
X134588326Y-16056397D01*
X134484185Y-15929500D01*
X134483967Y-15929174D01*
X134406585Y-15784403D01*
X134406435Y-15784041D01*
X134358781Y-15626947D01*
X134358705Y-15626562D01*
X134342010Y-15457056D01*
X134342000Y-15456860D01*
X134342000Y-15400500D01*
X134343000Y-15398768D01*
X134345000Y-15398768D01*
X134345990Y-15400304D01*
G37*
G36*
X135246232Y-12698000D02*
G01*
X135246232Y-12700000D01*
X135244696Y-12700990D01*
X135069216Y-12718273D01*
X134900663Y-12769403D01*
X134745325Y-12852433D01*
X134609171Y-12964171D01*
X134497433Y-13100325D01*
X134414403Y-13255663D01*
X134363273Y-13424216D01*
X134345990Y-13599696D01*
X134344825Y-13601322D01*
X134342835Y-13601126D01*
X134342000Y-13599500D01*
X134342000Y-13543140D01*
X134342010Y-13542944D01*
X134358705Y-13373438D01*
X134358781Y-13373053D01*
X134406435Y-13215959D01*
X134406585Y-13215597D01*
X134483967Y-13070826D01*
X134484185Y-13070500D01*
X134588326Y-12943603D01*
X134588603Y-12943326D01*
X134715500Y-12839185D01*
X134715826Y-12838967D01*
X134860597Y-12761585D01*
X134860959Y-12761435D01*
X135018053Y-12713781D01*
X135018438Y-12713705D01*
X135187944Y-12697010D01*
X135188140Y-12697000D01*
X135244500Y-12697000D01*
X135246232Y-12698000D01*
G37*
G36*
X137102056Y-12697010D02*
G01*
X137271562Y-12713705D01*
X137271947Y-12713781D01*
X137429041Y-12761435D01*
X137429403Y-12761585D01*
X137574174Y-12838967D01*
X137574500Y-12839185D01*
X137701397Y-12943326D01*
X137701674Y-12943603D01*
X137805815Y-13070500D01*
X137806033Y-13070826D01*
X137883415Y-13215597D01*
X137883565Y-13215959D01*
X137931219Y-13373053D01*
X137931295Y-13373438D01*
X137947990Y-13542944D01*
X137948000Y-13543140D01*
X137948000Y-13599500D01*
X137947000Y-13601232D01*
X137945000Y-13601232D01*
X137944010Y-13599696D01*
X137926727Y-13424216D01*
X137875597Y-13255663D01*
X137792567Y-13100325D01*
X137680829Y-12964171D01*
X137544675Y-12852433D01*
X137389337Y-12769403D01*
X137220784Y-12718273D01*
X137045304Y-12700990D01*
X137043678Y-12699825D01*
X137043874Y-12697835D01*
X137045500Y-12697000D01*
X137101860Y-12697000D01*
X137102056Y-12697010D01*
G37*
G36*
X133247165Y-12273874D02*
G01*
X133248000Y-12275500D01*
X133248000Y-12331860D01*
X133247990Y-12332056D01*
X133233697Y-12477175D01*
X133233621Y-12477560D01*
X133193080Y-12611206D01*
X133192930Y-12611568D01*
X133127100Y-12734727D01*
X133126882Y-12735053D01*
X133038286Y-12843009D01*
X133038009Y-12843286D01*
X132930053Y-12931882D01*
X132929727Y-12932100D01*
X132806568Y-12997930D01*
X132806206Y-12998080D01*
X132672560Y-13038621D01*
X132672175Y-13038697D01*
X132527056Y-13052990D01*
X132526860Y-13053000D01*
X132470500Y-13053000D01*
X132468768Y-13052000D01*
X132468768Y-13050000D01*
X132470304Y-13049010D01*
X132621398Y-13034129D01*
X132766502Y-12990112D01*
X132900229Y-12918634D01*
X133017440Y-12822440D01*
X133113634Y-12705229D01*
X133185112Y-12571502D01*
X133229129Y-12426398D01*
X133244010Y-12275304D01*
X133245175Y-12273678D01*
X133247165Y-12273874D01*
G37*
G36*
X129645990Y-12275304D02*
G01*
X129660871Y-12426398D01*
X129704888Y-12571502D01*
X129776366Y-12705229D01*
X129872560Y-12822440D01*
X129989771Y-12918634D01*
X130123498Y-12990112D01*
X130268602Y-13034129D01*
X130419696Y-13049010D01*
X130421322Y-13050175D01*
X130421126Y-13052165D01*
X130419500Y-13053000D01*
X130363140Y-13053000D01*
X130362944Y-13052990D01*
X130217825Y-13038697D01*
X130217440Y-13038621D01*
X130083794Y-12998080D01*
X130083432Y-12997930D01*
X129960273Y-12932100D01*
X129959947Y-12931882D01*
X129851991Y-12843286D01*
X129851714Y-12843009D01*
X129763118Y-12735053D01*
X129762900Y-12734727D01*
X129697070Y-12611568D01*
X129696920Y-12611206D01*
X129656379Y-12477560D01*
X129656303Y-12477175D01*
X129642010Y-12332056D01*
X129642000Y-12331860D01*
X129642000Y-12275500D01*
X129643000Y-12273768D01*
X129645000Y-12273768D01*
X129645990Y-12275304D01*
G37*
G36*
X146550732Y-10768000D02*
G01*
X146551000Y-10769000D01*
X146551000Y-12321000D01*
X146550000Y-12322732D01*
X146549000Y-12323000D01*
X146451000Y-12323000D01*
X146449268Y-12322000D01*
X146449000Y-12321000D01*
X146449000Y-10769000D01*
X146450000Y-10767268D01*
X146451000Y-10767000D01*
X146549000Y-10767000D01*
X146550732Y-10768000D01*
G37*
G36*
X149050732Y-10768000D02*
G01*
X149051000Y-10769000D01*
X149051000Y-12321000D01*
X149050000Y-12322732D01*
X149049000Y-12323000D01*
X148951000Y-12323000D01*
X148949268Y-12322000D01*
X148949000Y-12321000D01*
X148949000Y-10769000D01*
X148950000Y-10767268D01*
X148951000Y-10767000D01*
X149049000Y-10767000D01*
X149050732Y-10768000D01*
G37*
G36*
X149550732Y-10768000D02*
G01*
X149551000Y-10769000D01*
X149551000Y-12321000D01*
X149550000Y-12322732D01*
X149549000Y-12323000D01*
X149451000Y-12323000D01*
X149449268Y-12322000D01*
X149449000Y-12321000D01*
X149449000Y-10769000D01*
X149450000Y-10767268D01*
X149451000Y-10767000D01*
X149549000Y-10767000D01*
X149550732Y-10768000D01*
G37*
G36*
X150900732Y-10768000D02*
G01*
X150901000Y-10769000D01*
X150901000Y-12321000D01*
X150900000Y-12322732D01*
X150899000Y-12323000D01*
X150801000Y-12323000D01*
X150799268Y-12322000D01*
X150799000Y-12321000D01*
X150799000Y-10769000D01*
X150800000Y-10767268D01*
X150801000Y-10767000D01*
X150899000Y-10767000D01*
X150900732Y-10768000D01*
G37*
G36*
X148550732Y-10768000D02*
G01*
X148551000Y-10769000D01*
X148551000Y-12321000D01*
X148550000Y-12322732D01*
X148549000Y-12323000D01*
X148451000Y-12323000D01*
X148449268Y-12322000D01*
X148449000Y-12321000D01*
X148449000Y-10769000D01*
X148450000Y-10767268D01*
X148451000Y-10767000D01*
X148549000Y-10767000D01*
X148550732Y-10768000D01*
G37*
G36*
X148050732Y-10768000D02*
G01*
X148051000Y-10769000D01*
X148051000Y-12321000D01*
X148050000Y-12322732D01*
X148049000Y-12323000D01*
X147951000Y-12323000D01*
X147949268Y-12322000D01*
X147949000Y-12321000D01*
X147949000Y-10769000D01*
X147950000Y-10767268D01*
X147951000Y-10767000D01*
X148049000Y-10767000D01*
X148050732Y-10768000D01*
G37*
G36*
X147550732Y-10768000D02*
G01*
X147551000Y-10769000D01*
X147551000Y-12321000D01*
X147550000Y-12322732D01*
X147549000Y-12323000D01*
X147451000Y-12323000D01*
X147449268Y-12322000D01*
X147449000Y-12321000D01*
X147449000Y-10769000D01*
X147450000Y-10767268D01*
X147451000Y-10767000D01*
X147549000Y-10767000D01*
X147550732Y-10768000D01*
G37*
G36*
X147050732Y-10768000D02*
G01*
X147051000Y-10769000D01*
X147051000Y-12321000D01*
X147050000Y-12322732D01*
X147049000Y-12323000D01*
X146951000Y-12323000D01*
X146949268Y-12322000D01*
X146949000Y-12321000D01*
X146949000Y-10769000D01*
X146950000Y-10767268D01*
X146951000Y-10767000D01*
X147049000Y-10767000D01*
X147050732Y-10768000D01*
G37*
G36*
X146050732Y-10768000D02*
G01*
X146051000Y-10769000D01*
X146051000Y-12321000D01*
X146050000Y-12322732D01*
X146049000Y-12323000D01*
X145901000Y-12323000D01*
X145899268Y-12322000D01*
X145899000Y-12321000D01*
X145899000Y-10769000D01*
X145900000Y-10767268D01*
X145901000Y-10767000D01*
X146049000Y-10767000D01*
X146050732Y-10768000D01*
G37*
G36*
X150100732Y-10768000D02*
G01*
X150101000Y-10769000D01*
X150101000Y-12321000D01*
X150100000Y-12322732D01*
X150099000Y-12323000D01*
X149951000Y-12323000D01*
X149949268Y-12322000D01*
X149949000Y-12321000D01*
X149949000Y-10769000D01*
X149950000Y-10767268D01*
X149951000Y-10767000D01*
X150099000Y-10767000D01*
X150100732Y-10768000D01*
G37*
G36*
X145200732Y-10768000D02*
G01*
X145201000Y-10769000D01*
X145201000Y-12321000D01*
X145200000Y-12322732D01*
X145199000Y-12323000D01*
X145101000Y-12323000D01*
X145099268Y-12322000D01*
X145099000Y-12321000D01*
X145099000Y-10769000D01*
X145100000Y-10767268D01*
X145101000Y-10767000D01*
X145199000Y-10767000D01*
X145200732Y-10768000D01*
G37*
G36*
X151770166Y-10642375D02*
G01*
X151771001Y-10644001D01*
X151771001Y-11179906D01*
X151781558Y-11287100D01*
X151812800Y-11390090D01*
X151834592Y-11430859D01*
X151834526Y-11432858D01*
X151832763Y-11433801D01*
X151831165Y-11432913D01*
X151821071Y-11417806D01*
X151804024Y-11400758D01*
X151783976Y-11387364D01*
X151761702Y-11378137D01*
X151738052Y-11373433D01*
X151713946Y-11373433D01*
X151690296Y-11378137D01*
X151668022Y-11387364D01*
X151647975Y-11400758D01*
X151630927Y-11417805D01*
X151617533Y-11437853D01*
X151608306Y-11460127D01*
X151603593Y-11483823D01*
X151602998Y-11495928D01*
X151601914Y-11497609D01*
X151599916Y-11497511D01*
X151599000Y-11495830D01*
X151599000Y-10769000D01*
X151600000Y-10767268D01*
X151601000Y-10767000D01*
X151643908Y-10767000D01*
X151667993Y-10764628D01*
X151691068Y-10757628D01*
X151712332Y-10746263D01*
X151730969Y-10730968D01*
X151746264Y-10712331D01*
X151757629Y-10691067D01*
X151764629Y-10667992D01*
X151767011Y-10643805D01*
X151768176Y-10642179D01*
X151770166Y-10642375D01*
G37*
G36*
X144232990Y-10643805D02*
G01*
X144235372Y-10667992D01*
X144242372Y-10691067D01*
X144253737Y-10712331D01*
X144269032Y-10730968D01*
X144287669Y-10746263D01*
X144308933Y-10757628D01*
X144332008Y-10764628D01*
X144356093Y-10767000D01*
X144399000Y-10767000D01*
X144400732Y-10768000D01*
X144401000Y-10769000D01*
X144401000Y-11495830D01*
X144400000Y-11497562D01*
X144398000Y-11497562D01*
X144397010Y-11496026D01*
X144394628Y-11471841D01*
X144387628Y-11448766D01*
X144376263Y-11427502D01*
X144360968Y-11408865D01*
X144342331Y-11393570D01*
X144321067Y-11382205D01*
X144297992Y-11375205D01*
X144274001Y-11372842D01*
X144250010Y-11375205D01*
X144226935Y-11382205D01*
X144205671Y-11393570D01*
X144187070Y-11408835D01*
X144167810Y-11434806D01*
X144165975Y-11435602D01*
X144164369Y-11434411D01*
X144164440Y-11432672D01*
X144187201Y-11390090D01*
X144218443Y-11287100D01*
X144229000Y-11179906D01*
X144229000Y-10644001D01*
X144230000Y-10642269D01*
X144232000Y-10642269D01*
X144232990Y-10643805D01*
G37*
G36*
X130421232Y-9948000D02*
G01*
X130421232Y-9950000D01*
X130419696Y-9950990D01*
X130268602Y-9965871D01*
X130123498Y-10009888D01*
X129989771Y-10081366D01*
X129872560Y-10177560D01*
X129776366Y-10294771D01*
X129704888Y-10428498D01*
X129660871Y-10573602D01*
X129645990Y-10724696D01*
X129644825Y-10726322D01*
X129642835Y-10726126D01*
X129642000Y-10724500D01*
X129642000Y-10668140D01*
X129642010Y-10667944D01*
X129656303Y-10522825D01*
X129656379Y-10522440D01*
X129696920Y-10388794D01*
X129697070Y-10388432D01*
X129762900Y-10265273D01*
X129763118Y-10264947D01*
X129851714Y-10156991D01*
X129851991Y-10156714D01*
X129959947Y-10068118D01*
X129960273Y-10067900D01*
X130083432Y-10002070D01*
X130083794Y-10001920D01*
X130217440Y-9961379D01*
X130217825Y-9961303D01*
X130362944Y-9947010D01*
X130363140Y-9947000D01*
X130419500Y-9947000D01*
X130421232Y-9948000D01*
G37*
G36*
X132527056Y-9947010D02*
G01*
X132672175Y-9961303D01*
X132672560Y-9961379D01*
X132806206Y-10001920D01*
X132806568Y-10002070D01*
X132929727Y-10067900D01*
X132930053Y-10068118D01*
X133038009Y-10156714D01*
X133038286Y-10156991D01*
X133126882Y-10264947D01*
X133127100Y-10265273D01*
X133192930Y-10388432D01*
X133193080Y-10388794D01*
X133233621Y-10522440D01*
X133233697Y-10522825D01*
X133247990Y-10667944D01*
X133248000Y-10668140D01*
X133248000Y-10724500D01*
X133247000Y-10726232D01*
X133245000Y-10726232D01*
X133244010Y-10724696D01*
X133229129Y-10573602D01*
X133185112Y-10428498D01*
X133113634Y-10294771D01*
X133017440Y-10177560D01*
X132900229Y-10081366D01*
X132766502Y-10009888D01*
X132621398Y-9965871D01*
X132470304Y-9950990D01*
X132468678Y-9949825D01*
X132468874Y-9947835D01*
X132470500Y-9947000D01*
X132526860Y-9947000D01*
X132527056Y-9947010D01*
G37*
M02*
