G04 #@! TF.GenerationSoftware,KiCad,Pcbnew,(5.1.7)-1*
G04 #@! TF.CreationDate,2021-03-22T01:50:53-04:00*
G04 #@! TF.ProjectId,Circuit-AirSensor-Right,43697263-7569-4742-9d41-697253656e73,rev?*
G04 #@! TF.SameCoordinates,Original*
G04 #@! TF.FileFunction,Copper,L1,Top*
G04 #@! TF.FilePolarity,Positive*
%FSLAX46Y46*%
G04 Gerber Fmt 4.6, Leading zero omitted, Abs format (unit mm)*
G04 Created by KiCad (PCBNEW (5.1.7)-1) date 2021-03-22 01:50:53*
%MOMM*%
%LPD*%
G01*
G04 APERTURE LIST*
G04 #@! TA.AperFunction,ComponentPad*
%ADD10O,1.750000X1.200000*%
G04 #@! TD*
G04 #@! TA.AperFunction,SMDPad,CuDef*
%ADD11R,1.500000X1.000000*%
G04 #@! TD*
G04 #@! TA.AperFunction,SMDPad,CuDef*
%ADD12R,1.900000X0.800000*%
G04 #@! TD*
G04 #@! TA.AperFunction,ComponentPad*
%ADD13C,1.800000*%
G04 #@! TD*
G04 #@! TA.AperFunction,ComponentPad*
%ADD14R,1.800000X1.800000*%
G04 #@! TD*
G04 #@! TA.AperFunction,ViaPad*
%ADD15C,0.800000*%
G04 #@! TD*
G04 #@! TA.AperFunction,Conductor*
%ADD16C,0.500000*%
G04 #@! TD*
G04 #@! TA.AperFunction,Conductor*
%ADD17C,0.254000*%
G04 #@! TD*
G04 #@! TA.AperFunction,Conductor*
%ADD18C,0.100000*%
G04 #@! TD*
G04 APERTURE END LIST*
D10*
X56000000Y-113000000D03*
X56000000Y-115000000D03*
X56000000Y-117000000D03*
G04 #@! TA.AperFunction,ComponentPad*
G36*
G01*
X56625001Y-119600000D02*
X55374999Y-119600000D01*
G75*
G02*
X55125000Y-119350001I0J249999D01*
G01*
X55125000Y-118649999D01*
G75*
G02*
X55374999Y-118400000I249999J0D01*
G01*
X56625001Y-118400000D01*
G75*
G02*
X56875000Y-118649999I0J-249999D01*
G01*
X56875000Y-119350001D01*
G75*
G02*
X56625001Y-119600000I-249999J0D01*
G01*
G37*
G04 #@! TD.AperFunction*
G04 #@! TA.AperFunction,SMDPad,CuDef*
G36*
G01*
X233750000Y-132550000D02*
X234250000Y-132550000D01*
G75*
G02*
X234475000Y-132775000I0J-225000D01*
G01*
X234475000Y-133225000D01*
G75*
G02*
X234250000Y-133450000I-225000J0D01*
G01*
X233750000Y-133450000D01*
G75*
G02*
X233525000Y-133225000I0J225000D01*
G01*
X233525000Y-132775000D01*
G75*
G02*
X233750000Y-132550000I225000J0D01*
G01*
G37*
G04 #@! TD.AperFunction*
G04 #@! TA.AperFunction,SMDPad,CuDef*
G36*
G01*
X233750000Y-134100000D02*
X234250000Y-134100000D01*
G75*
G02*
X234475000Y-134325000I0J-225000D01*
G01*
X234475000Y-134775000D01*
G75*
G02*
X234250000Y-135000000I-225000J0D01*
G01*
X233750000Y-135000000D01*
G75*
G02*
X233525000Y-134775000I0J225000D01*
G01*
X233525000Y-134325000D01*
G75*
G02*
X233750000Y-134100000I225000J0D01*
G01*
G37*
G04 #@! TD.AperFunction*
G04 #@! TA.AperFunction,SMDPad,CuDef*
G36*
G01*
X213750000Y-134100000D02*
X214250000Y-134100000D01*
G75*
G02*
X214475000Y-134325000I0J-225000D01*
G01*
X214475000Y-134775000D01*
G75*
G02*
X214250000Y-135000000I-225000J0D01*
G01*
X213750000Y-135000000D01*
G75*
G02*
X213525000Y-134775000I0J225000D01*
G01*
X213525000Y-134325000D01*
G75*
G02*
X213750000Y-134100000I225000J0D01*
G01*
G37*
G04 #@! TD.AperFunction*
G04 #@! TA.AperFunction,SMDPad,CuDef*
G36*
G01*
X213750000Y-132550000D02*
X214250000Y-132550000D01*
G75*
G02*
X214475000Y-132775000I0J-225000D01*
G01*
X214475000Y-133225000D01*
G75*
G02*
X214250000Y-133450000I-225000J0D01*
G01*
X213750000Y-133450000D01*
G75*
G02*
X213525000Y-133225000I0J225000D01*
G01*
X213525000Y-132775000D01*
G75*
G02*
X213750000Y-132550000I225000J0D01*
G01*
G37*
G04 #@! TD.AperFunction*
G04 #@! TA.AperFunction,SMDPad,CuDef*
G36*
G01*
X193750000Y-132550000D02*
X194250000Y-132550000D01*
G75*
G02*
X194475000Y-132775000I0J-225000D01*
G01*
X194475000Y-133225000D01*
G75*
G02*
X194250000Y-133450000I-225000J0D01*
G01*
X193750000Y-133450000D01*
G75*
G02*
X193525000Y-133225000I0J225000D01*
G01*
X193525000Y-132775000D01*
G75*
G02*
X193750000Y-132550000I225000J0D01*
G01*
G37*
G04 #@! TD.AperFunction*
G04 #@! TA.AperFunction,SMDPad,CuDef*
G36*
G01*
X193750000Y-134100000D02*
X194250000Y-134100000D01*
G75*
G02*
X194475000Y-134325000I0J-225000D01*
G01*
X194475000Y-134775000D01*
G75*
G02*
X194250000Y-135000000I-225000J0D01*
G01*
X193750000Y-135000000D01*
G75*
G02*
X193525000Y-134775000I0J225000D01*
G01*
X193525000Y-134325000D01*
G75*
G02*
X193750000Y-134100000I225000J0D01*
G01*
G37*
G04 #@! TD.AperFunction*
G04 #@! TA.AperFunction,SMDPad,CuDef*
G36*
G01*
X173750000Y-132550000D02*
X174250000Y-132550000D01*
G75*
G02*
X174475000Y-132775000I0J-225000D01*
G01*
X174475000Y-133225000D01*
G75*
G02*
X174250000Y-133450000I-225000J0D01*
G01*
X173750000Y-133450000D01*
G75*
G02*
X173525000Y-133225000I0J225000D01*
G01*
X173525000Y-132775000D01*
G75*
G02*
X173750000Y-132550000I225000J0D01*
G01*
G37*
G04 #@! TD.AperFunction*
G04 #@! TA.AperFunction,SMDPad,CuDef*
G36*
G01*
X173750000Y-134100000D02*
X174250000Y-134100000D01*
G75*
G02*
X174475000Y-134325000I0J-225000D01*
G01*
X174475000Y-134775000D01*
G75*
G02*
X174250000Y-135000000I-225000J0D01*
G01*
X173750000Y-135000000D01*
G75*
G02*
X173525000Y-134775000I0J225000D01*
G01*
X173525000Y-134325000D01*
G75*
G02*
X173750000Y-134100000I225000J0D01*
G01*
G37*
G04 #@! TD.AperFunction*
G04 #@! TA.AperFunction,SMDPad,CuDef*
G36*
G01*
X153750000Y-132550000D02*
X154250000Y-132550000D01*
G75*
G02*
X154475000Y-132775000I0J-225000D01*
G01*
X154475000Y-133225000D01*
G75*
G02*
X154250000Y-133450000I-225000J0D01*
G01*
X153750000Y-133450000D01*
G75*
G02*
X153525000Y-133225000I0J225000D01*
G01*
X153525000Y-132775000D01*
G75*
G02*
X153750000Y-132550000I225000J0D01*
G01*
G37*
G04 #@! TD.AperFunction*
G04 #@! TA.AperFunction,SMDPad,CuDef*
G36*
G01*
X153750000Y-134100000D02*
X154250000Y-134100000D01*
G75*
G02*
X154475000Y-134325000I0J-225000D01*
G01*
X154475000Y-134775000D01*
G75*
G02*
X154250000Y-135000000I-225000J0D01*
G01*
X153750000Y-135000000D01*
G75*
G02*
X153525000Y-134775000I0J225000D01*
G01*
X153525000Y-134325000D01*
G75*
G02*
X153750000Y-134100000I225000J0D01*
G01*
G37*
G04 #@! TD.AperFunction*
G04 #@! TA.AperFunction,SMDPad,CuDef*
G36*
G01*
X133750000Y-132550000D02*
X134250000Y-132550000D01*
G75*
G02*
X134475000Y-132775000I0J-225000D01*
G01*
X134475000Y-133225000D01*
G75*
G02*
X134250000Y-133450000I-225000J0D01*
G01*
X133750000Y-133450000D01*
G75*
G02*
X133525000Y-133225000I0J225000D01*
G01*
X133525000Y-132775000D01*
G75*
G02*
X133750000Y-132550000I225000J0D01*
G01*
G37*
G04 #@! TD.AperFunction*
G04 #@! TA.AperFunction,SMDPad,CuDef*
G36*
G01*
X133750000Y-134100000D02*
X134250000Y-134100000D01*
G75*
G02*
X134475000Y-134325000I0J-225000D01*
G01*
X134475000Y-134775000D01*
G75*
G02*
X134250000Y-135000000I-225000J0D01*
G01*
X133750000Y-135000000D01*
G75*
G02*
X133525000Y-134775000I0J225000D01*
G01*
X133525000Y-134325000D01*
G75*
G02*
X133750000Y-134100000I225000J0D01*
G01*
G37*
G04 #@! TD.AperFunction*
G04 #@! TA.AperFunction,SMDPad,CuDef*
G36*
G01*
X113750000Y-132550000D02*
X114250000Y-132550000D01*
G75*
G02*
X114475000Y-132775000I0J-225000D01*
G01*
X114475000Y-133225000D01*
G75*
G02*
X114250000Y-133450000I-225000J0D01*
G01*
X113750000Y-133450000D01*
G75*
G02*
X113525000Y-133225000I0J225000D01*
G01*
X113525000Y-132775000D01*
G75*
G02*
X113750000Y-132550000I225000J0D01*
G01*
G37*
G04 #@! TD.AperFunction*
G04 #@! TA.AperFunction,SMDPad,CuDef*
G36*
G01*
X113750000Y-134100000D02*
X114250000Y-134100000D01*
G75*
G02*
X114475000Y-134325000I0J-225000D01*
G01*
X114475000Y-134775000D01*
G75*
G02*
X114250000Y-135000000I-225000J0D01*
G01*
X113750000Y-135000000D01*
G75*
G02*
X113525000Y-134775000I0J225000D01*
G01*
X113525000Y-134325000D01*
G75*
G02*
X113750000Y-134100000I225000J0D01*
G01*
G37*
G04 #@! TD.AperFunction*
G04 #@! TA.AperFunction,SMDPad,CuDef*
G36*
G01*
X93750000Y-134100000D02*
X94250000Y-134100000D01*
G75*
G02*
X94475000Y-134325000I0J-225000D01*
G01*
X94475000Y-134775000D01*
G75*
G02*
X94250000Y-135000000I-225000J0D01*
G01*
X93750000Y-135000000D01*
G75*
G02*
X93525000Y-134775000I0J225000D01*
G01*
X93525000Y-134325000D01*
G75*
G02*
X93750000Y-134100000I225000J0D01*
G01*
G37*
G04 #@! TD.AperFunction*
G04 #@! TA.AperFunction,SMDPad,CuDef*
G36*
G01*
X93750000Y-132550000D02*
X94250000Y-132550000D01*
G75*
G02*
X94475000Y-132775000I0J-225000D01*
G01*
X94475000Y-133225000D01*
G75*
G02*
X94250000Y-133450000I-225000J0D01*
G01*
X93750000Y-133450000D01*
G75*
G02*
X93525000Y-133225000I0J225000D01*
G01*
X93525000Y-132775000D01*
G75*
G02*
X93750000Y-132550000I225000J0D01*
G01*
G37*
G04 #@! TD.AperFunction*
G04 #@! TA.AperFunction,SMDPad,CuDef*
G36*
G01*
X73750000Y-134100000D02*
X74250000Y-134100000D01*
G75*
G02*
X74475000Y-134325000I0J-225000D01*
G01*
X74475000Y-134775000D01*
G75*
G02*
X74250000Y-135000000I-225000J0D01*
G01*
X73750000Y-135000000D01*
G75*
G02*
X73525000Y-134775000I0J225000D01*
G01*
X73525000Y-134325000D01*
G75*
G02*
X73750000Y-134100000I225000J0D01*
G01*
G37*
G04 #@! TD.AperFunction*
G04 #@! TA.AperFunction,SMDPad,CuDef*
G36*
G01*
X73750000Y-132550000D02*
X74250000Y-132550000D01*
G75*
G02*
X74475000Y-132775000I0J-225000D01*
G01*
X74475000Y-133225000D01*
G75*
G02*
X74250000Y-133450000I-225000J0D01*
G01*
X73750000Y-133450000D01*
G75*
G02*
X73525000Y-133225000I0J225000D01*
G01*
X73525000Y-132775000D01*
G75*
G02*
X73750000Y-132550000I225000J0D01*
G01*
G37*
G04 #@! TD.AperFunction*
D11*
X77550000Y-133400000D03*
X77550000Y-136600000D03*
X82450000Y-133400000D03*
X82450000Y-136600000D03*
X102450000Y-136600000D03*
X102450000Y-133400000D03*
X97550000Y-136600000D03*
X97550000Y-133400000D03*
X122450000Y-136600000D03*
X122450000Y-133400000D03*
X117550000Y-136600000D03*
X117550000Y-133400000D03*
X142450000Y-136600000D03*
X142450000Y-133400000D03*
X137550000Y-136600000D03*
X137550000Y-133400000D03*
X237550000Y-133400000D03*
X237550000Y-136600000D03*
X242450000Y-133400000D03*
X242450000Y-136600000D03*
X222450000Y-136600000D03*
X222450000Y-133400000D03*
X217550000Y-136600000D03*
X217550000Y-133400000D03*
X202450000Y-136600000D03*
X202450000Y-133400000D03*
X197550000Y-136600000D03*
X197550000Y-133400000D03*
X182450000Y-136600000D03*
X182450000Y-133400000D03*
X177550000Y-136600000D03*
X177550000Y-133400000D03*
X157550000Y-133400000D03*
X157550000Y-136600000D03*
X162450000Y-133400000D03*
X162450000Y-136600000D03*
G04 #@! TA.AperFunction,SMDPad,CuDef*
G36*
G01*
X227775000Y-104762500D02*
X227775000Y-105237500D01*
G75*
G02*
X227537500Y-105475000I-237500J0D01*
G01*
X226962500Y-105475000D01*
G75*
G02*
X226725000Y-105237500I0J237500D01*
G01*
X226725000Y-104762500D01*
G75*
G02*
X226962500Y-104525000I237500J0D01*
G01*
X227537500Y-104525000D01*
G75*
G02*
X227775000Y-104762500I0J-237500D01*
G01*
G37*
G04 #@! TD.AperFunction*
G04 #@! TA.AperFunction,SMDPad,CuDef*
G36*
G01*
X229525000Y-104762500D02*
X229525000Y-105237500D01*
G75*
G02*
X229287500Y-105475000I-237500J0D01*
G01*
X228712500Y-105475000D01*
G75*
G02*
X228475000Y-105237500I0J237500D01*
G01*
X228475000Y-104762500D01*
G75*
G02*
X228712500Y-104525000I237500J0D01*
G01*
X229287500Y-104525000D01*
G75*
G02*
X229525000Y-104762500I0J-237500D01*
G01*
G37*
G04 #@! TD.AperFunction*
G04 #@! TA.AperFunction,SMDPad,CuDef*
G36*
G01*
X155775000Y-104762500D02*
X155775000Y-105237500D01*
G75*
G02*
X155537500Y-105475000I-237500J0D01*
G01*
X154962500Y-105475000D01*
G75*
G02*
X154725000Y-105237500I0J237500D01*
G01*
X154725000Y-104762500D01*
G75*
G02*
X154962500Y-104525000I237500J0D01*
G01*
X155537500Y-104525000D01*
G75*
G02*
X155775000Y-104762500I0J-237500D01*
G01*
G37*
G04 #@! TD.AperFunction*
G04 #@! TA.AperFunction,SMDPad,CuDef*
G36*
G01*
X157525000Y-104762500D02*
X157525000Y-105237500D01*
G75*
G02*
X157287500Y-105475000I-237500J0D01*
G01*
X156712500Y-105475000D01*
G75*
G02*
X156475000Y-105237500I0J237500D01*
G01*
X156475000Y-104762500D01*
G75*
G02*
X156712500Y-104525000I237500J0D01*
G01*
X157287500Y-104525000D01*
G75*
G02*
X157525000Y-104762500I0J-237500D01*
G01*
G37*
G04 #@! TD.AperFunction*
G04 #@! TA.AperFunction,SMDPad,CuDef*
G36*
G01*
X83775000Y-104762500D02*
X83775000Y-105237500D01*
G75*
G02*
X83537500Y-105475000I-237500J0D01*
G01*
X82962500Y-105475000D01*
G75*
G02*
X82725000Y-105237500I0J237500D01*
G01*
X82725000Y-104762500D01*
G75*
G02*
X82962500Y-104525000I237500J0D01*
G01*
X83537500Y-104525000D01*
G75*
G02*
X83775000Y-104762500I0J-237500D01*
G01*
G37*
G04 #@! TD.AperFunction*
G04 #@! TA.AperFunction,SMDPad,CuDef*
G36*
G01*
X85525000Y-104762500D02*
X85525000Y-105237500D01*
G75*
G02*
X85287500Y-105475000I-237500J0D01*
G01*
X84712500Y-105475000D01*
G75*
G02*
X84475000Y-105237500I0J237500D01*
G01*
X84475000Y-104762500D01*
G75*
G02*
X84712500Y-104525000I237500J0D01*
G01*
X85287500Y-104525000D01*
G75*
G02*
X85525000Y-104762500I0J-237500D01*
G01*
G37*
G04 #@! TD.AperFunction*
G04 #@! TA.AperFunction,SMDPad,CuDef*
G36*
G01*
X235350000Y-107237500D02*
X235350000Y-106762500D01*
G75*
G02*
X235587500Y-106525000I237500J0D01*
G01*
X236162500Y-106525000D01*
G75*
G02*
X236400000Y-106762500I0J-237500D01*
G01*
X236400000Y-107237500D01*
G75*
G02*
X236162500Y-107475000I-237500J0D01*
G01*
X235587500Y-107475000D01*
G75*
G02*
X235350000Y-107237500I0J237500D01*
G01*
G37*
G04 #@! TD.AperFunction*
G04 #@! TA.AperFunction,SMDPad,CuDef*
G36*
G01*
X233600000Y-107237500D02*
X233600000Y-106762500D01*
G75*
G02*
X233837500Y-106525000I237500J0D01*
G01*
X234412500Y-106525000D01*
G75*
G02*
X234650000Y-106762500I0J-237500D01*
G01*
X234650000Y-107237500D01*
G75*
G02*
X234412500Y-107475000I-237500J0D01*
G01*
X233837500Y-107475000D01*
G75*
G02*
X233600000Y-107237500I0J237500D01*
G01*
G37*
G04 #@! TD.AperFunction*
G04 #@! TA.AperFunction,SMDPad,CuDef*
G36*
G01*
X163350000Y-107237500D02*
X163350000Y-106762500D01*
G75*
G02*
X163587500Y-106525000I237500J0D01*
G01*
X164162500Y-106525000D01*
G75*
G02*
X164400000Y-106762500I0J-237500D01*
G01*
X164400000Y-107237500D01*
G75*
G02*
X164162500Y-107475000I-237500J0D01*
G01*
X163587500Y-107475000D01*
G75*
G02*
X163350000Y-107237500I0J237500D01*
G01*
G37*
G04 #@! TD.AperFunction*
G04 #@! TA.AperFunction,SMDPad,CuDef*
G36*
G01*
X161600000Y-107237500D02*
X161600000Y-106762500D01*
G75*
G02*
X161837500Y-106525000I237500J0D01*
G01*
X162412500Y-106525000D01*
G75*
G02*
X162650000Y-106762500I0J-237500D01*
G01*
X162650000Y-107237500D01*
G75*
G02*
X162412500Y-107475000I-237500J0D01*
G01*
X161837500Y-107475000D01*
G75*
G02*
X161600000Y-107237500I0J237500D01*
G01*
G37*
G04 #@! TD.AperFunction*
G04 #@! TA.AperFunction,SMDPad,CuDef*
G36*
G01*
X91475000Y-107237500D02*
X91475000Y-106762500D01*
G75*
G02*
X91712500Y-106525000I237500J0D01*
G01*
X92287500Y-106525000D01*
G75*
G02*
X92525000Y-106762500I0J-237500D01*
G01*
X92525000Y-107237500D01*
G75*
G02*
X92287500Y-107475000I-237500J0D01*
G01*
X91712500Y-107475000D01*
G75*
G02*
X91475000Y-107237500I0J237500D01*
G01*
G37*
G04 #@! TD.AperFunction*
G04 #@! TA.AperFunction,SMDPad,CuDef*
G36*
G01*
X89725000Y-107237500D02*
X89725000Y-106762500D01*
G75*
G02*
X89962500Y-106525000I237500J0D01*
G01*
X90537500Y-106525000D01*
G75*
G02*
X90775000Y-106762500I0J-237500D01*
G01*
X90775000Y-107237500D01*
G75*
G02*
X90537500Y-107475000I-237500J0D01*
G01*
X89962500Y-107475000D01*
G75*
G02*
X89725000Y-107237500I0J237500D01*
G01*
G37*
G04 #@! TD.AperFunction*
D12*
X236500000Y-104000000D03*
X233500000Y-104950000D03*
X233500000Y-103050000D03*
X164500000Y-104000000D03*
X161500000Y-104950000D03*
X161500000Y-103050000D03*
X92500000Y-104000000D03*
X89500000Y-104950000D03*
X89500000Y-103050000D03*
D13*
X179270000Y-105000000D03*
D14*
X176730000Y-105000000D03*
D13*
X251270000Y-105000000D03*
D14*
X248730000Y-105000000D03*
D13*
X215270000Y-105000000D03*
D14*
X212730000Y-105000000D03*
D13*
X143270000Y-105000000D03*
D14*
X140730000Y-105000000D03*
D13*
X107270000Y-105000000D03*
D14*
X104730000Y-105000000D03*
D13*
X71270000Y-105000000D03*
D14*
X68730000Y-105000000D03*
D10*
X56000000Y-91000000D03*
X56000000Y-93000000D03*
X56000000Y-95000000D03*
X56000000Y-97000000D03*
X56000000Y-99000000D03*
X56000000Y-101000000D03*
X56000000Y-103000000D03*
X56000000Y-105000000D03*
G04 #@! TA.AperFunction,ComponentPad*
G36*
G01*
X56625001Y-107600000D02*
X55374999Y-107600000D01*
G75*
G02*
X55125000Y-107350001I0J249999D01*
G01*
X55125000Y-106649999D01*
G75*
G02*
X55374999Y-106400000I249999J0D01*
G01*
X56625001Y-106400000D01*
G75*
G02*
X56875000Y-106649999I0J-249999D01*
G01*
X56875000Y-107350001D01*
G75*
G02*
X56625001Y-107600000I-249999J0D01*
G01*
G37*
G04 #@! TD.AperFunction*
D15*
X231050000Y-104950000D03*
X159050000Y-104950000D03*
X87050000Y-104950000D03*
X138000000Y-105000000D03*
X66000000Y-105000000D03*
X210000000Y-105000000D03*
X252000000Y-108000000D03*
X232000000Y-133500000D03*
X212000000Y-133500000D03*
X192000000Y-133500000D03*
X172000000Y-133500000D03*
X152000000Y-133500000D03*
X132000000Y-133500000D03*
X112000000Y-133500000D03*
X92000000Y-133500000D03*
X72000000Y-133500000D03*
X245000000Y-136000000D03*
X86000000Y-137000000D03*
X126000000Y-137000000D03*
X166000000Y-137000000D03*
X206000000Y-137000000D03*
X228000000Y-107000000D03*
X156000000Y-107000000D03*
X84000000Y-107000000D03*
X232000000Y-108000000D03*
X160000000Y-108000000D03*
X88000000Y-108000000D03*
X61000000Y-100000000D03*
X64000000Y-99000000D03*
X52000000Y-121000000D03*
D16*
X231050000Y-104950000D02*
X231050000Y-104950000D01*
X233500000Y-104950000D02*
X231050000Y-104950000D01*
X159050000Y-104950000D02*
X159050000Y-104950000D01*
X161500000Y-104950000D02*
X159050000Y-104950000D01*
X89500000Y-104950000D02*
X87050000Y-104950000D01*
X87050000Y-104950000D02*
X87050000Y-104950000D01*
X229000000Y-105000000D02*
X229000000Y-106000000D01*
X229000000Y-106000000D02*
X228000000Y-107000000D01*
X228000000Y-107000000D02*
X228000000Y-107000000D01*
X157000000Y-105000000D02*
X157000000Y-106000000D01*
X157000000Y-106000000D02*
X156000000Y-107000000D01*
X156000000Y-107000000D02*
X156000000Y-107000000D01*
X85000000Y-105000000D02*
X85000000Y-106000000D01*
X84000000Y-107000000D02*
X84000000Y-107000000D01*
X85000000Y-106000000D02*
X84000000Y-107000000D01*
X233000000Y-107000000D02*
X232000000Y-108000000D01*
X234125000Y-107000000D02*
X233000000Y-107000000D01*
X161000000Y-107000000D02*
X160000000Y-108000000D01*
X162125000Y-107000000D02*
X161000000Y-107000000D01*
X90125000Y-107000000D02*
X89000000Y-107000000D01*
X89000000Y-107000000D02*
X88000000Y-108000000D01*
X83250000Y-105000000D02*
X82000000Y-105000000D01*
X82000000Y-105000000D02*
X80000000Y-107000000D01*
X70730000Y-107000000D02*
X68730000Y-105000000D01*
X80000000Y-107000000D02*
X70730000Y-107000000D01*
X107270000Y-105070002D02*
X107270000Y-105000000D01*
X105340002Y-107000000D02*
X92000000Y-107000000D01*
X105340002Y-107000000D02*
X107270000Y-105070002D01*
X103730000Y-104000000D02*
X104730000Y-105000000D01*
X92500000Y-104000000D02*
X103730000Y-104000000D01*
X155250000Y-105000000D02*
X154000000Y-105000000D01*
X154000000Y-105000000D02*
X152000000Y-107000000D01*
X142730000Y-107000000D02*
X140730000Y-105000000D01*
X152000000Y-107000000D02*
X142730000Y-107000000D01*
X56000000Y-101000000D02*
X60000000Y-101000000D01*
X60000000Y-101000000D02*
X61000000Y-100000000D01*
X61000000Y-100000000D02*
X61000000Y-100000000D01*
X177340002Y-107000000D02*
X164000000Y-107000000D01*
X179270000Y-105070002D02*
X179270000Y-105000000D01*
X177340002Y-107000000D02*
X179270000Y-105070002D01*
X175730000Y-104000000D02*
X176730000Y-105000000D01*
X164500000Y-104000000D02*
X175730000Y-104000000D01*
X227250000Y-105000000D02*
X226000000Y-105000000D01*
X226000000Y-105000000D02*
X224000000Y-107000000D01*
X214730000Y-107000000D02*
X212730000Y-105000000D01*
X224000000Y-107000000D02*
X214730000Y-107000000D01*
X56000000Y-103000000D02*
X60000000Y-103000000D01*
X60000000Y-103000000D02*
X64000000Y-99000000D01*
X64000000Y-99000000D02*
X64000000Y-99000000D01*
X249340002Y-107000000D02*
X236000000Y-107000000D01*
X251270000Y-105070002D02*
X251270000Y-105000000D01*
X249340002Y-107000000D02*
X251270000Y-105070002D01*
X247730000Y-104000000D02*
X248730000Y-105000000D01*
X236500000Y-104000000D02*
X247730000Y-104000000D01*
X231050000Y-103050000D02*
X233500000Y-103050000D01*
X227000000Y-99000000D02*
X231050000Y-103050000D01*
X70000000Y-99000000D02*
X227000000Y-99000000D01*
X64000000Y-93000000D02*
X70000000Y-99000000D01*
X56000000Y-93000000D02*
X64000000Y-93000000D01*
X159050000Y-103050000D02*
X161500000Y-103050000D01*
X156000000Y-100000000D02*
X159050000Y-103050000D01*
X69000000Y-100000000D02*
X156000000Y-100000000D01*
X64000000Y-95000000D02*
X69000000Y-100000000D01*
X56000000Y-95000000D02*
X64000000Y-95000000D01*
X64000000Y-97000000D02*
X68000000Y-101000000D01*
X56000000Y-97000000D02*
X64000000Y-97000000D01*
X68000000Y-101000000D02*
X85000000Y-101000000D01*
X87050000Y-103050000D02*
X89500000Y-103050000D01*
X85000000Y-101000000D02*
X87050000Y-103050000D01*
X224050000Y-135000000D02*
X222450000Y-133400000D01*
X224550000Y-135500000D02*
X222450000Y-133400000D01*
X226500000Y-135500000D02*
X224550000Y-135500000D01*
X204550000Y-135500000D02*
X202450000Y-133400000D01*
X226500000Y-135500000D02*
X204550000Y-135500000D01*
X240350000Y-135500000D02*
X242450000Y-133400000D01*
X226500000Y-135500000D02*
X240350000Y-135500000D01*
X241000000Y-131000000D02*
X242450000Y-132450000D01*
X242450000Y-132450000D02*
X242450000Y-133400000D01*
X66000000Y-131000000D02*
X241000000Y-131000000D01*
X59000000Y-124000000D02*
X66000000Y-131000000D01*
X58000000Y-115000000D02*
X59000000Y-116000000D01*
X59000000Y-116000000D02*
X59000000Y-124000000D01*
X56000000Y-115000000D02*
X58000000Y-115000000D01*
X197550000Y-136550000D02*
X197550000Y-136600000D01*
X144050000Y-135000000D02*
X142450000Y-133400000D01*
X164050000Y-135000000D02*
X162450000Y-133400000D01*
X184050000Y-135000000D02*
X182450000Y-133400000D01*
X144575000Y-135525000D02*
X142450000Y-133400000D01*
X196475000Y-135525000D02*
X197550000Y-136600000D01*
X164575000Y-135525000D02*
X164050000Y-135000000D01*
X166025000Y-135525000D02*
X164575000Y-135525000D01*
X166025000Y-135525000D02*
X144575000Y-135525000D01*
X184575000Y-135525000D02*
X184050000Y-135000000D01*
X185525000Y-135525000D02*
X184575000Y-135525000D01*
X196475000Y-135525000D02*
X185525000Y-135525000D01*
X185525000Y-135525000D02*
X166025000Y-135525000D01*
X136450000Y-135500000D02*
X137550000Y-136600000D01*
X82450000Y-133450000D02*
X84500000Y-135500000D01*
X82450000Y-133400000D02*
X82450000Y-133450000D01*
X124550000Y-135500000D02*
X122450000Y-133400000D01*
X129000000Y-135500000D02*
X124550000Y-135500000D01*
X129000000Y-135500000D02*
X136450000Y-135500000D01*
X104550000Y-135500000D02*
X102450000Y-133400000D01*
X106000000Y-135500000D02*
X104550000Y-135500000D01*
X84500000Y-135500000D02*
X106000000Y-135500000D01*
X106000000Y-135500000D02*
X129000000Y-135500000D01*
X77550000Y-136600000D02*
X77550000Y-136550000D01*
X67600000Y-136600000D02*
X53000000Y-122000000D01*
X77550000Y-136600000D02*
X67600000Y-136600000D01*
X53000000Y-122000000D02*
X52000000Y-121000000D01*
X52000000Y-121000000D02*
X52000000Y-121000000D01*
X214000000Y-132000000D02*
X216150000Y-132000000D01*
X194000000Y-132000000D02*
X196150000Y-132000000D01*
X174000000Y-132000000D02*
X176150000Y-132000000D01*
X154000000Y-132000000D02*
X156150000Y-132000000D01*
X134000000Y-132000000D02*
X136150000Y-132000000D01*
X114000000Y-132000000D02*
X116150000Y-132000000D01*
X94000000Y-132000000D02*
X96150000Y-132000000D01*
X74000000Y-132000000D02*
X76150000Y-132000000D01*
X73000000Y-132000000D02*
X74000000Y-133000000D01*
X71000000Y-132000000D02*
X73000000Y-132000000D01*
X77150000Y-133000000D02*
X77550000Y-133400000D01*
X74000000Y-133000000D02*
X77150000Y-133000000D01*
X92000000Y-132000000D02*
X93000000Y-132000000D01*
X93000000Y-132000000D02*
X94000000Y-133000000D01*
X71000000Y-132000000D02*
X92000000Y-132000000D01*
X97150000Y-133000000D02*
X97550000Y-133400000D01*
X94000000Y-133000000D02*
X97150000Y-133000000D01*
X233000000Y-132000000D02*
X234000000Y-133000000D01*
X232500000Y-132000000D02*
X233000000Y-132000000D01*
X237150000Y-133000000D02*
X237550000Y-133400000D01*
X234000000Y-133000000D02*
X237150000Y-133000000D01*
X213000000Y-132000000D02*
X214000000Y-133000000D01*
X212500000Y-132000000D02*
X213000000Y-132000000D01*
X212500000Y-132000000D02*
X232500000Y-132000000D01*
X217150000Y-133000000D02*
X217550000Y-133400000D01*
X214000000Y-133000000D02*
X217150000Y-133000000D01*
X193000000Y-132000000D02*
X194000000Y-133000000D01*
X192000000Y-132000000D02*
X193000000Y-132000000D01*
X192000000Y-132000000D02*
X212500000Y-132000000D01*
X197150000Y-133000000D02*
X197550000Y-133400000D01*
X194000000Y-133000000D02*
X197150000Y-133000000D01*
X173000000Y-132000000D02*
X174000000Y-133000000D01*
X172000000Y-132000000D02*
X173000000Y-132000000D01*
X172000000Y-132000000D02*
X192000000Y-132000000D01*
X177150000Y-133000000D02*
X177550000Y-133400000D01*
X174000000Y-133000000D02*
X177150000Y-133000000D01*
X153000000Y-132000000D02*
X154000000Y-133000000D01*
X152000000Y-132000000D02*
X153000000Y-132000000D01*
X152000000Y-132000000D02*
X172000000Y-132000000D01*
X157150000Y-133000000D02*
X157550000Y-133400000D01*
X154000000Y-133000000D02*
X157150000Y-133000000D01*
X133000000Y-132000000D02*
X134000000Y-133000000D01*
X131500000Y-132000000D02*
X133000000Y-132000000D01*
X131500000Y-132000000D02*
X152000000Y-132000000D01*
X137150000Y-133000000D02*
X137550000Y-133400000D01*
X134000000Y-133000000D02*
X137150000Y-133000000D01*
X113000000Y-132000000D02*
X114000000Y-133000000D01*
X112000000Y-132000000D02*
X113000000Y-132000000D01*
X92000000Y-132000000D02*
X112000000Y-132000000D01*
X112000000Y-132000000D02*
X131500000Y-132000000D01*
X117150000Y-133000000D02*
X117550000Y-133400000D01*
X114000000Y-133000000D02*
X117150000Y-133000000D01*
X65000000Y-132000000D02*
X71000000Y-132000000D01*
X54000000Y-121000000D02*
X65000000Y-132000000D01*
X54000000Y-114000000D02*
X54000000Y-121000000D01*
X55000000Y-113000000D02*
X54000000Y-114000000D01*
X56000000Y-113000000D02*
X55000000Y-113000000D01*
D17*
X79110909Y-98115000D02*
X70366579Y-98115000D01*
X64656534Y-92404956D01*
X64628817Y-92371183D01*
X64494059Y-92260589D01*
X64340313Y-92178411D01*
X64173490Y-92127805D01*
X64043477Y-92115000D01*
X64043469Y-92115000D01*
X64000000Y-92110719D01*
X63956531Y-92115000D01*
X57143366Y-92115000D01*
X57002652Y-91999519D01*
X57066725Y-91956307D01*
X57238078Y-91783474D01*
X57372421Y-91580533D01*
X57464591Y-91355282D01*
X57468462Y-91317609D01*
X57343731Y-91127000D01*
X56127000Y-91127000D01*
X56127000Y-91147000D01*
X55873000Y-91147000D01*
X55873000Y-91127000D01*
X54656269Y-91127000D01*
X54531538Y-91317609D01*
X54535409Y-91355282D01*
X54627579Y-91580533D01*
X54761922Y-91783474D01*
X54933275Y-91956307D01*
X54997348Y-91999519D01*
X54847498Y-92122498D01*
X54693167Y-92310551D01*
X54578489Y-92525099D01*
X54507870Y-92757898D01*
X54484025Y-93000000D01*
X54507870Y-93242102D01*
X54578489Y-93474901D01*
X54693167Y-93689449D01*
X54847498Y-93877502D01*
X54996762Y-94000000D01*
X54847498Y-94122498D01*
X54693167Y-94310551D01*
X54578489Y-94525099D01*
X54507870Y-94757898D01*
X54484025Y-95000000D01*
X54507870Y-95242102D01*
X54578489Y-95474901D01*
X54693167Y-95689449D01*
X54847498Y-95877502D01*
X54996762Y-96000000D01*
X54847498Y-96122498D01*
X54693167Y-96310551D01*
X54578489Y-96525099D01*
X54507870Y-96757898D01*
X54484025Y-97000000D01*
X54507870Y-97242102D01*
X54578489Y-97474901D01*
X54693167Y-97689449D01*
X54847498Y-97877502D01*
X54996762Y-98000000D01*
X54847498Y-98122498D01*
X54693167Y-98310551D01*
X54578489Y-98525099D01*
X54507870Y-98757898D01*
X54484025Y-99000000D01*
X54507870Y-99242102D01*
X54578489Y-99474901D01*
X54693167Y-99689449D01*
X54847498Y-99877502D01*
X54996762Y-100000000D01*
X54847498Y-100122498D01*
X54693167Y-100310551D01*
X54578489Y-100525099D01*
X54507870Y-100757898D01*
X54484025Y-101000000D01*
X54507870Y-101242102D01*
X54578489Y-101474901D01*
X54693167Y-101689449D01*
X54847498Y-101877502D01*
X54996762Y-102000000D01*
X54847498Y-102122498D01*
X54693167Y-102310551D01*
X54578489Y-102525099D01*
X54507870Y-102757898D01*
X54484025Y-103000000D01*
X54507870Y-103242102D01*
X54578489Y-103474901D01*
X54693167Y-103689449D01*
X54847498Y-103877502D01*
X54996762Y-104000000D01*
X54847498Y-104122498D01*
X54693167Y-104310551D01*
X54578489Y-104525099D01*
X54507870Y-104757898D01*
X54484025Y-105000000D01*
X54507870Y-105242102D01*
X54578489Y-105474901D01*
X54693167Y-105689449D01*
X54847498Y-105877502D01*
X54886111Y-105909191D01*
X54881613Y-105911595D01*
X54747038Y-106022038D01*
X54636595Y-106156613D01*
X54554528Y-106310149D01*
X54503992Y-106476745D01*
X54486928Y-106649999D01*
X54486928Y-107350001D01*
X54503992Y-107523255D01*
X54554528Y-107689851D01*
X54636595Y-107843387D01*
X54747038Y-107977962D01*
X54881613Y-108088405D01*
X55035149Y-108170472D01*
X55201745Y-108221008D01*
X55374999Y-108238072D01*
X56625001Y-108238072D01*
X56798255Y-108221008D01*
X56964851Y-108170472D01*
X57118387Y-108088405D01*
X57252962Y-107977962D01*
X57363405Y-107843387D01*
X57445472Y-107689851D01*
X57496008Y-107523255D01*
X57513072Y-107350001D01*
X57513072Y-106649999D01*
X57496008Y-106476745D01*
X57445472Y-106310149D01*
X57363405Y-106156613D01*
X57252962Y-106022038D01*
X57118387Y-105911595D01*
X57113889Y-105909191D01*
X57152502Y-105877502D01*
X57306833Y-105689449D01*
X57421511Y-105474901D01*
X57492130Y-105242102D01*
X57515975Y-105000000D01*
X57492130Y-104757898D01*
X57421511Y-104525099D01*
X57306833Y-104310551D01*
X57152502Y-104122498D01*
X57125089Y-104100000D01*
X67191928Y-104100000D01*
X67191928Y-105900000D01*
X67204188Y-106024482D01*
X67240498Y-106144180D01*
X67299463Y-106254494D01*
X67378815Y-106351185D01*
X67475506Y-106430537D01*
X67585820Y-106489502D01*
X67705518Y-106525812D01*
X67830000Y-106538072D01*
X69016494Y-106538072D01*
X70073468Y-107595047D01*
X70101183Y-107628817D01*
X70134951Y-107656530D01*
X70134953Y-107656532D01*
X70175552Y-107689851D01*
X70235941Y-107739411D01*
X70389687Y-107821589D01*
X70556510Y-107872195D01*
X70686523Y-107885000D01*
X70686533Y-107885000D01*
X70729999Y-107889281D01*
X70773465Y-107885000D01*
X79956531Y-107885000D01*
X80000000Y-107889281D01*
X80043469Y-107885000D01*
X80043477Y-107885000D01*
X80173490Y-107872195D01*
X80340313Y-107821589D01*
X80494059Y-107739411D01*
X80628817Y-107628817D01*
X80656534Y-107595044D01*
X82366579Y-105885000D01*
X82377954Y-105885000D01*
X82476058Y-105965512D01*
X82627433Y-106046423D01*
X82791684Y-106096248D01*
X82962500Y-106113072D01*
X83464431Y-106113072D01*
X83340226Y-106196063D01*
X83196063Y-106340226D01*
X83082795Y-106509744D01*
X83004774Y-106698102D01*
X82965000Y-106898061D01*
X82965000Y-107101939D01*
X83004774Y-107301898D01*
X83082795Y-107490256D01*
X83196063Y-107659774D01*
X83340226Y-107803937D01*
X83509744Y-107917205D01*
X83698102Y-107995226D01*
X83898061Y-108035000D01*
X84101939Y-108035000D01*
X84301898Y-107995226D01*
X84490256Y-107917205D01*
X84659774Y-107803937D01*
X84803937Y-107659774D01*
X84917205Y-107490256D01*
X84995226Y-107301898D01*
X85006535Y-107245043D01*
X85595049Y-106656530D01*
X85628817Y-106628817D01*
X85739411Y-106494059D01*
X85787039Y-106404953D01*
X85821589Y-106340314D01*
X85872195Y-106173490D01*
X85875161Y-106143377D01*
X85885000Y-106043477D01*
X85885000Y-106043469D01*
X85889281Y-106000000D01*
X85885000Y-105956531D01*
X85885000Y-105874369D01*
X85906623Y-105856623D01*
X86015512Y-105723942D01*
X86096423Y-105572567D01*
X86146248Y-105408316D01*
X86151991Y-105350000D01*
X87911928Y-105350000D01*
X87924188Y-105474482D01*
X87960498Y-105594180D01*
X88019463Y-105704494D01*
X88098815Y-105801185D01*
X88195506Y-105880537D01*
X88305820Y-105939502D01*
X88425518Y-105975812D01*
X88550000Y-105988072D01*
X89214250Y-105985000D01*
X89373000Y-105826250D01*
X89373000Y-105077000D01*
X88073750Y-105077000D01*
X87915000Y-105235750D01*
X87911928Y-105350000D01*
X86151991Y-105350000D01*
X86163072Y-105237500D01*
X86163072Y-104762500D01*
X86146248Y-104591684D01*
X86096423Y-104427433D01*
X86015512Y-104276058D01*
X85906623Y-104143377D01*
X85773942Y-104034488D01*
X85622567Y-103953577D01*
X85458316Y-103903752D01*
X85287500Y-103886928D01*
X84712500Y-103886928D01*
X84541684Y-103903752D01*
X84377433Y-103953577D01*
X84226058Y-104034488D01*
X84125000Y-104117425D01*
X84023942Y-104034488D01*
X83872567Y-103953577D01*
X83708316Y-103903752D01*
X83537500Y-103886928D01*
X82962500Y-103886928D01*
X82791684Y-103903752D01*
X82627433Y-103953577D01*
X82476058Y-104034488D01*
X82377954Y-104115000D01*
X82043465Y-104115000D01*
X81999999Y-104110719D01*
X81956533Y-104115000D01*
X81956523Y-104115000D01*
X81826510Y-104127805D01*
X81659687Y-104178411D01*
X81505941Y-104260589D01*
X81505939Y-104260590D01*
X81505940Y-104260590D01*
X81404953Y-104343468D01*
X81404951Y-104343470D01*
X81371183Y-104371183D01*
X81343470Y-104404951D01*
X79633422Y-106115000D01*
X72137711Y-106115000D01*
X72154475Y-106064080D01*
X71270000Y-105179605D01*
X71255858Y-105193748D01*
X71076253Y-105014143D01*
X71090395Y-105000000D01*
X71449605Y-105000000D01*
X72334080Y-105884475D01*
X72588261Y-105800792D01*
X72719158Y-105528225D01*
X72794365Y-105235358D01*
X72810991Y-104933447D01*
X72768397Y-104634093D01*
X72668222Y-104348801D01*
X72588261Y-104199208D01*
X72334080Y-104115525D01*
X71449605Y-105000000D01*
X71090395Y-105000000D01*
X71076253Y-104985858D01*
X71255858Y-104806253D01*
X71270000Y-104820395D01*
X72154475Y-103935920D01*
X72070792Y-103681739D01*
X71798225Y-103550842D01*
X71505358Y-103475635D01*
X71203447Y-103459009D01*
X70904093Y-103501603D01*
X70618801Y-103601778D01*
X70469208Y-103681739D01*
X70385526Y-103935918D01*
X70269578Y-103819970D01*
X70222813Y-103866735D01*
X70219502Y-103855820D01*
X70160537Y-103745506D01*
X70081185Y-103648815D01*
X69984494Y-103569463D01*
X69874180Y-103510498D01*
X69754482Y-103474188D01*
X69630000Y-103461928D01*
X67830000Y-103461928D01*
X67705518Y-103474188D01*
X67585820Y-103510498D01*
X67475506Y-103569463D01*
X67378815Y-103648815D01*
X67299463Y-103745506D01*
X67240498Y-103855820D01*
X67204188Y-103975518D01*
X67191928Y-104100000D01*
X57125089Y-104100000D01*
X57003238Y-104000000D01*
X57143366Y-103885000D01*
X59956531Y-103885000D01*
X60000000Y-103889281D01*
X60043469Y-103885000D01*
X60043477Y-103885000D01*
X60173490Y-103872195D01*
X60340313Y-103821589D01*
X60494059Y-103739411D01*
X60628817Y-103628817D01*
X60656534Y-103595044D01*
X64245044Y-100006535D01*
X64301898Y-99995226D01*
X64490256Y-99917205D01*
X64659774Y-99803937D01*
X64803937Y-99659774D01*
X64917205Y-99490256D01*
X64995226Y-99301898D01*
X65004367Y-99255945D01*
X67343470Y-101595049D01*
X67371183Y-101628817D01*
X67404951Y-101656530D01*
X67404953Y-101656532D01*
X67476452Y-101715210D01*
X67505941Y-101739411D01*
X67659687Y-101821589D01*
X67826510Y-101872195D01*
X67956523Y-101885000D01*
X67956533Y-101885000D01*
X67999999Y-101889281D01*
X68043465Y-101885000D01*
X84633422Y-101885000D01*
X86393470Y-103645049D01*
X86421183Y-103678817D01*
X86454951Y-103706530D01*
X86454953Y-103706532D01*
X86495015Y-103739410D01*
X86555941Y-103789411D01*
X86709687Y-103871589D01*
X86876510Y-103922195D01*
X87006523Y-103935000D01*
X87006531Y-103935000D01*
X87050000Y-103939281D01*
X87093469Y-103935000D01*
X88140019Y-103935000D01*
X88195506Y-103980537D01*
X88231918Y-104000000D01*
X88195506Y-104019463D01*
X88098815Y-104098815D01*
X88019463Y-104195506D01*
X87960498Y-104305820D01*
X87924188Y-104425518D01*
X87911928Y-104550000D01*
X87915000Y-104664250D01*
X88073750Y-104823000D01*
X89373000Y-104823000D01*
X89373000Y-104803000D01*
X89627000Y-104803000D01*
X89627000Y-104823000D01*
X90926250Y-104823000D01*
X91010857Y-104738393D01*
X91019463Y-104754494D01*
X91098815Y-104851185D01*
X91195506Y-104930537D01*
X91305820Y-104989502D01*
X91425518Y-105025812D01*
X91550000Y-105038072D01*
X93450000Y-105038072D01*
X93574482Y-105025812D01*
X93694180Y-104989502D01*
X93804494Y-104930537D01*
X93859981Y-104885000D01*
X103191928Y-104885000D01*
X103191928Y-105900000D01*
X103204188Y-106024482D01*
X103231646Y-106115000D01*
X92872046Y-106115000D01*
X92773942Y-106034488D01*
X92622567Y-105953577D01*
X92458316Y-105903752D01*
X92287500Y-105886928D01*
X91712500Y-105886928D01*
X91541684Y-105903752D01*
X91377433Y-105953577D01*
X91226058Y-106034488D01*
X91125000Y-106117425D01*
X91023942Y-106034488D01*
X90872567Y-105953577D01*
X90741966Y-105913960D01*
X90804494Y-105880537D01*
X90901185Y-105801185D01*
X90980537Y-105704494D01*
X91039502Y-105594180D01*
X91075812Y-105474482D01*
X91088072Y-105350000D01*
X91085000Y-105235750D01*
X90926250Y-105077000D01*
X89627000Y-105077000D01*
X89627000Y-105826250D01*
X89724793Y-105924043D01*
X89627433Y-105953577D01*
X89476058Y-106034488D01*
X89377954Y-106115000D01*
X89043469Y-106115000D01*
X89000000Y-106110719D01*
X88956531Y-106115000D01*
X88956523Y-106115000D01*
X88826510Y-106127805D01*
X88659686Y-106178411D01*
X88505941Y-106260589D01*
X88404953Y-106343468D01*
X88404951Y-106343470D01*
X88371183Y-106371183D01*
X88343470Y-106404951D01*
X87754957Y-106993465D01*
X87698102Y-107004774D01*
X87509744Y-107082795D01*
X87340226Y-107196063D01*
X87196063Y-107340226D01*
X87082795Y-107509744D01*
X87004774Y-107698102D01*
X86965000Y-107898061D01*
X86965000Y-108101939D01*
X87004774Y-108301898D01*
X87082795Y-108490256D01*
X87196063Y-108659774D01*
X87340226Y-108803937D01*
X87509744Y-108917205D01*
X87698102Y-108995226D01*
X87898061Y-109035000D01*
X88101939Y-109035000D01*
X88301898Y-108995226D01*
X88490256Y-108917205D01*
X88659774Y-108803937D01*
X88803937Y-108659774D01*
X88917205Y-108490256D01*
X88995226Y-108301898D01*
X89006535Y-108245043D01*
X89366579Y-107885000D01*
X89377954Y-107885000D01*
X89476058Y-107965512D01*
X89627433Y-108046423D01*
X89791684Y-108096248D01*
X89962500Y-108113072D01*
X90537500Y-108113072D01*
X90708316Y-108096248D01*
X90872567Y-108046423D01*
X91023942Y-107965512D01*
X91125000Y-107882575D01*
X91226058Y-107965512D01*
X91377433Y-108046423D01*
X91541684Y-108096248D01*
X91712500Y-108113072D01*
X92287500Y-108113072D01*
X92458316Y-108096248D01*
X92622567Y-108046423D01*
X92773942Y-107965512D01*
X92872046Y-107885000D01*
X105296533Y-107885000D01*
X105340002Y-107889281D01*
X105383471Y-107885000D01*
X105383479Y-107885000D01*
X105513492Y-107872195D01*
X105680315Y-107821589D01*
X105834061Y-107739411D01*
X105968819Y-107628817D01*
X105996536Y-107595044D01*
X107066906Y-106524675D01*
X107118816Y-106535000D01*
X107421184Y-106535000D01*
X107717743Y-106476011D01*
X107997095Y-106360299D01*
X108248505Y-106192312D01*
X108462312Y-105978505D01*
X108630299Y-105727095D01*
X108746011Y-105447743D01*
X108805000Y-105151184D01*
X108805000Y-104848816D01*
X108746011Y-104552257D01*
X108630299Y-104272905D01*
X108514768Y-104100000D01*
X139191928Y-104100000D01*
X139191928Y-105900000D01*
X139204188Y-106024482D01*
X139240498Y-106144180D01*
X139299463Y-106254494D01*
X139378815Y-106351185D01*
X139475506Y-106430537D01*
X139585820Y-106489502D01*
X139705518Y-106525812D01*
X139830000Y-106538072D01*
X141016494Y-106538072D01*
X142073468Y-107595047D01*
X142101183Y-107628817D01*
X142134951Y-107656530D01*
X142134953Y-107656532D01*
X142175552Y-107689851D01*
X142235941Y-107739411D01*
X142389687Y-107821589D01*
X142556510Y-107872195D01*
X142686523Y-107885000D01*
X142686533Y-107885000D01*
X142729999Y-107889281D01*
X142773465Y-107885000D01*
X151956531Y-107885000D01*
X152000000Y-107889281D01*
X152043469Y-107885000D01*
X152043477Y-107885000D01*
X152173490Y-107872195D01*
X152340313Y-107821589D01*
X152494059Y-107739411D01*
X152628817Y-107628817D01*
X152656534Y-107595044D01*
X154366579Y-105885000D01*
X154377954Y-105885000D01*
X154476058Y-105965512D01*
X154627433Y-106046423D01*
X154791684Y-106096248D01*
X154962500Y-106113072D01*
X155464431Y-106113072D01*
X155340226Y-106196063D01*
X155196063Y-106340226D01*
X155082795Y-106509744D01*
X155004774Y-106698102D01*
X154965000Y-106898061D01*
X154965000Y-107101939D01*
X155004774Y-107301898D01*
X155082795Y-107490256D01*
X155196063Y-107659774D01*
X155340226Y-107803937D01*
X155509744Y-107917205D01*
X155698102Y-107995226D01*
X155898061Y-108035000D01*
X156101939Y-108035000D01*
X156301898Y-107995226D01*
X156490256Y-107917205D01*
X156659774Y-107803937D01*
X156803937Y-107659774D01*
X156917205Y-107490256D01*
X156995226Y-107301898D01*
X157006535Y-107245043D01*
X157595049Y-106656530D01*
X157628817Y-106628817D01*
X157739411Y-106494059D01*
X157787039Y-106404953D01*
X157821589Y-106340314D01*
X157872195Y-106173490D01*
X157875161Y-106143377D01*
X157885000Y-106043477D01*
X157885000Y-106043469D01*
X157889281Y-106000000D01*
X157885000Y-105956531D01*
X157885000Y-105874369D01*
X157906623Y-105856623D01*
X158015512Y-105723942D01*
X158096423Y-105572567D01*
X158146248Y-105408316D01*
X158163072Y-105237500D01*
X158163072Y-104762500D01*
X158146248Y-104591684D01*
X158096423Y-104427433D01*
X158015512Y-104276058D01*
X157906623Y-104143377D01*
X157773942Y-104034488D01*
X157622567Y-103953577D01*
X157458316Y-103903752D01*
X157287500Y-103886928D01*
X156712500Y-103886928D01*
X156541684Y-103903752D01*
X156377433Y-103953577D01*
X156226058Y-104034488D01*
X156125000Y-104117425D01*
X156023942Y-104034488D01*
X155872567Y-103953577D01*
X155708316Y-103903752D01*
X155537500Y-103886928D01*
X154962500Y-103886928D01*
X154791684Y-103903752D01*
X154627433Y-103953577D01*
X154476058Y-104034488D01*
X154377954Y-104115000D01*
X154043465Y-104115000D01*
X153999999Y-104110719D01*
X153956533Y-104115000D01*
X153956523Y-104115000D01*
X153826510Y-104127805D01*
X153659687Y-104178411D01*
X153505941Y-104260589D01*
X153505939Y-104260590D01*
X153505940Y-104260590D01*
X153404953Y-104343468D01*
X153404951Y-104343470D01*
X153371183Y-104371183D01*
X153343470Y-104404951D01*
X151633422Y-106115000D01*
X144137711Y-106115000D01*
X144154475Y-106064080D01*
X143270000Y-105179605D01*
X143255858Y-105193748D01*
X143076253Y-105014143D01*
X143090395Y-105000000D01*
X143449605Y-105000000D01*
X144334080Y-105884475D01*
X144588261Y-105800792D01*
X144719158Y-105528225D01*
X144794365Y-105235358D01*
X144810991Y-104933447D01*
X144768397Y-104634093D01*
X144668222Y-104348801D01*
X144588261Y-104199208D01*
X144334080Y-104115525D01*
X143449605Y-105000000D01*
X143090395Y-105000000D01*
X143076253Y-104985858D01*
X143255858Y-104806253D01*
X143270000Y-104820395D01*
X144154475Y-103935920D01*
X144070792Y-103681739D01*
X143798225Y-103550842D01*
X143505358Y-103475635D01*
X143203447Y-103459009D01*
X142904093Y-103501603D01*
X142618801Y-103601778D01*
X142469208Y-103681739D01*
X142385526Y-103935918D01*
X142269578Y-103819970D01*
X142222813Y-103866735D01*
X142219502Y-103855820D01*
X142160537Y-103745506D01*
X142081185Y-103648815D01*
X141984494Y-103569463D01*
X141874180Y-103510498D01*
X141754482Y-103474188D01*
X141630000Y-103461928D01*
X139830000Y-103461928D01*
X139705518Y-103474188D01*
X139585820Y-103510498D01*
X139475506Y-103569463D01*
X139378815Y-103648815D01*
X139299463Y-103745506D01*
X139240498Y-103855820D01*
X139204188Y-103975518D01*
X139191928Y-104100000D01*
X108514768Y-104100000D01*
X108462312Y-104021495D01*
X108248505Y-103807688D01*
X107997095Y-103639701D01*
X107717743Y-103523989D01*
X107421184Y-103465000D01*
X107118816Y-103465000D01*
X106822257Y-103523989D01*
X106542905Y-103639701D01*
X106291495Y-103807688D01*
X106225056Y-103874127D01*
X106219502Y-103855820D01*
X106160537Y-103745506D01*
X106081185Y-103648815D01*
X105984494Y-103569463D01*
X105874180Y-103510498D01*
X105754482Y-103474188D01*
X105630000Y-103461928D01*
X104443506Y-103461928D01*
X104386534Y-103404956D01*
X104358817Y-103371183D01*
X104224059Y-103260589D01*
X104070313Y-103178411D01*
X103903490Y-103127805D01*
X103773477Y-103115000D01*
X103773469Y-103115000D01*
X103730000Y-103110719D01*
X103686531Y-103115000D01*
X93859981Y-103115000D01*
X93804494Y-103069463D01*
X93694180Y-103010498D01*
X93574482Y-102974188D01*
X93450000Y-102961928D01*
X91550000Y-102961928D01*
X91425518Y-102974188D01*
X91305820Y-103010498D01*
X91195506Y-103069463D01*
X91098815Y-103148815D01*
X91088072Y-103161905D01*
X91088072Y-102650000D01*
X91075812Y-102525518D01*
X91039502Y-102405820D01*
X90980537Y-102295506D01*
X90901185Y-102198815D01*
X90804494Y-102119463D01*
X90694180Y-102060498D01*
X90574482Y-102024188D01*
X90450000Y-102011928D01*
X88550000Y-102011928D01*
X88425518Y-102024188D01*
X88305820Y-102060498D01*
X88195506Y-102119463D01*
X88140019Y-102165000D01*
X87416579Y-102165000D01*
X86136578Y-100885000D01*
X155633422Y-100885000D01*
X158393470Y-103645049D01*
X158421183Y-103678817D01*
X158454951Y-103706530D01*
X158454953Y-103706532D01*
X158495015Y-103739410D01*
X158555941Y-103789411D01*
X158709687Y-103871589D01*
X158876510Y-103922195D01*
X159006523Y-103935000D01*
X159006533Y-103935000D01*
X159049999Y-103939281D01*
X159093465Y-103935000D01*
X160140019Y-103935000D01*
X160195506Y-103980537D01*
X160231918Y-104000000D01*
X160195506Y-104019463D01*
X160098815Y-104098815D01*
X160019463Y-104195506D01*
X159960498Y-104305820D01*
X159924188Y-104425518D01*
X159911928Y-104550000D01*
X159915000Y-104664250D01*
X160073750Y-104823000D01*
X161373000Y-104823000D01*
X161373000Y-104803000D01*
X161627000Y-104803000D01*
X161627000Y-104823000D01*
X162926250Y-104823000D01*
X163010857Y-104738393D01*
X163019463Y-104754494D01*
X163098815Y-104851185D01*
X163195506Y-104930537D01*
X163305820Y-104989502D01*
X163425518Y-105025812D01*
X163550000Y-105038072D01*
X165450000Y-105038072D01*
X165574482Y-105025812D01*
X165694180Y-104989502D01*
X165804494Y-104930537D01*
X165859981Y-104885000D01*
X175191928Y-104885000D01*
X175191928Y-105900000D01*
X175204188Y-106024482D01*
X175231646Y-106115000D01*
X164747046Y-106115000D01*
X164648942Y-106034488D01*
X164497567Y-105953577D01*
X164333316Y-105903752D01*
X164162500Y-105886928D01*
X163587500Y-105886928D01*
X163416684Y-105903752D01*
X163252433Y-105953577D01*
X163101058Y-106034488D01*
X163000000Y-106117425D01*
X162898942Y-106034488D01*
X162747567Y-105953577D01*
X162696710Y-105938150D01*
X162804494Y-105880537D01*
X162901185Y-105801185D01*
X162980537Y-105704494D01*
X163039502Y-105594180D01*
X163075812Y-105474482D01*
X163088072Y-105350000D01*
X163085000Y-105235750D01*
X162926250Y-105077000D01*
X161627000Y-105077000D01*
X161627000Y-105097000D01*
X161373000Y-105097000D01*
X161373000Y-105077000D01*
X160073750Y-105077000D01*
X159915000Y-105235750D01*
X159911928Y-105350000D01*
X159924188Y-105474482D01*
X159960498Y-105594180D01*
X160019463Y-105704494D01*
X160098815Y-105801185D01*
X160195506Y-105880537D01*
X160305820Y-105939502D01*
X160425518Y-105975812D01*
X160550000Y-105988072D01*
X161214250Y-105985000D01*
X161372998Y-105826252D01*
X161372998Y-105985000D01*
X161443644Y-105985000D01*
X161351058Y-106034488D01*
X161252954Y-106115000D01*
X161043469Y-106115000D01*
X161000000Y-106110719D01*
X160956531Y-106115000D01*
X160956523Y-106115000D01*
X160826510Y-106127805D01*
X160659686Y-106178411D01*
X160505941Y-106260589D01*
X160404953Y-106343468D01*
X160404951Y-106343470D01*
X160371183Y-106371183D01*
X160343470Y-106404951D01*
X159754957Y-106993465D01*
X159698102Y-107004774D01*
X159509744Y-107082795D01*
X159340226Y-107196063D01*
X159196063Y-107340226D01*
X159082795Y-107509744D01*
X159004774Y-107698102D01*
X158965000Y-107898061D01*
X158965000Y-108101939D01*
X159004774Y-108301898D01*
X159082795Y-108490256D01*
X159196063Y-108659774D01*
X159340226Y-108803937D01*
X159509744Y-108917205D01*
X159698102Y-108995226D01*
X159898061Y-109035000D01*
X160101939Y-109035000D01*
X160301898Y-108995226D01*
X160490256Y-108917205D01*
X160659774Y-108803937D01*
X160803937Y-108659774D01*
X160917205Y-108490256D01*
X160995226Y-108301898D01*
X161006535Y-108245043D01*
X161315362Y-107936217D01*
X161351058Y-107965512D01*
X161502433Y-108046423D01*
X161666684Y-108096248D01*
X161837500Y-108113072D01*
X162412500Y-108113072D01*
X162583316Y-108096248D01*
X162747567Y-108046423D01*
X162898942Y-107965512D01*
X163000000Y-107882575D01*
X163101058Y-107965512D01*
X163252433Y-108046423D01*
X163416684Y-108096248D01*
X163587500Y-108113072D01*
X164162500Y-108113072D01*
X164333316Y-108096248D01*
X164497567Y-108046423D01*
X164648942Y-107965512D01*
X164747046Y-107885000D01*
X177296533Y-107885000D01*
X177340002Y-107889281D01*
X177383471Y-107885000D01*
X177383479Y-107885000D01*
X177513492Y-107872195D01*
X177680315Y-107821589D01*
X177834061Y-107739411D01*
X177968819Y-107628817D01*
X177996536Y-107595044D01*
X179066906Y-106524675D01*
X179118816Y-106535000D01*
X179421184Y-106535000D01*
X179717743Y-106476011D01*
X179997095Y-106360299D01*
X180248505Y-106192312D01*
X180462312Y-105978505D01*
X180630299Y-105727095D01*
X180746011Y-105447743D01*
X180805000Y-105151184D01*
X180805000Y-104848816D01*
X180746011Y-104552257D01*
X180630299Y-104272905D01*
X180514768Y-104100000D01*
X211191928Y-104100000D01*
X211191928Y-105900000D01*
X211204188Y-106024482D01*
X211240498Y-106144180D01*
X211299463Y-106254494D01*
X211378815Y-106351185D01*
X211475506Y-106430537D01*
X211585820Y-106489502D01*
X211705518Y-106525812D01*
X211830000Y-106538072D01*
X213016494Y-106538072D01*
X214073468Y-107595047D01*
X214101183Y-107628817D01*
X214134951Y-107656530D01*
X214134953Y-107656532D01*
X214175552Y-107689851D01*
X214235941Y-107739411D01*
X214389687Y-107821589D01*
X214556510Y-107872195D01*
X214686523Y-107885000D01*
X214686533Y-107885000D01*
X214729999Y-107889281D01*
X214773465Y-107885000D01*
X223956531Y-107885000D01*
X224000000Y-107889281D01*
X224043469Y-107885000D01*
X224043477Y-107885000D01*
X224173490Y-107872195D01*
X224340313Y-107821589D01*
X224494059Y-107739411D01*
X224628817Y-107628817D01*
X224656534Y-107595044D01*
X226366579Y-105885000D01*
X226377954Y-105885000D01*
X226476058Y-105965512D01*
X226627433Y-106046423D01*
X226791684Y-106096248D01*
X226962500Y-106113072D01*
X227464431Y-106113072D01*
X227340226Y-106196063D01*
X227196063Y-106340226D01*
X227082795Y-106509744D01*
X227004774Y-106698102D01*
X226965000Y-106898061D01*
X226965000Y-107101939D01*
X227004774Y-107301898D01*
X227082795Y-107490256D01*
X227196063Y-107659774D01*
X227340226Y-107803937D01*
X227509744Y-107917205D01*
X227698102Y-107995226D01*
X227898061Y-108035000D01*
X228101939Y-108035000D01*
X228301898Y-107995226D01*
X228490256Y-107917205D01*
X228659774Y-107803937D01*
X228803937Y-107659774D01*
X228917205Y-107490256D01*
X228995226Y-107301898D01*
X229006535Y-107245043D01*
X229595049Y-106656530D01*
X229628817Y-106628817D01*
X229739411Y-106494059D01*
X229787039Y-106404953D01*
X229821589Y-106340314D01*
X229872195Y-106173490D01*
X229875161Y-106143377D01*
X229885000Y-106043477D01*
X229885000Y-106043469D01*
X229889281Y-106000000D01*
X229885000Y-105956531D01*
X229885000Y-105874369D01*
X229906623Y-105856623D01*
X230015512Y-105723942D01*
X230096423Y-105572567D01*
X230146248Y-105408316D01*
X230163072Y-105237500D01*
X230163072Y-104762500D01*
X230146248Y-104591684D01*
X230096423Y-104427433D01*
X230015512Y-104276058D01*
X229906623Y-104143377D01*
X229773942Y-104034488D01*
X229622567Y-103953577D01*
X229458316Y-103903752D01*
X229287500Y-103886928D01*
X228712500Y-103886928D01*
X228541684Y-103903752D01*
X228377433Y-103953577D01*
X228226058Y-104034488D01*
X228125000Y-104117425D01*
X228023942Y-104034488D01*
X227872567Y-103953577D01*
X227708316Y-103903752D01*
X227537500Y-103886928D01*
X226962500Y-103886928D01*
X226791684Y-103903752D01*
X226627433Y-103953577D01*
X226476058Y-104034488D01*
X226377954Y-104115000D01*
X226043465Y-104115000D01*
X225999999Y-104110719D01*
X225956533Y-104115000D01*
X225956523Y-104115000D01*
X225826510Y-104127805D01*
X225659687Y-104178411D01*
X225505941Y-104260589D01*
X225505939Y-104260590D01*
X225505940Y-104260590D01*
X225404953Y-104343468D01*
X225404951Y-104343470D01*
X225371183Y-104371183D01*
X225343470Y-104404951D01*
X223633422Y-106115000D01*
X216137711Y-106115000D01*
X216154475Y-106064080D01*
X215270000Y-105179605D01*
X215255858Y-105193748D01*
X215076253Y-105014143D01*
X215090395Y-105000000D01*
X215449605Y-105000000D01*
X216334080Y-105884475D01*
X216588261Y-105800792D01*
X216719158Y-105528225D01*
X216794365Y-105235358D01*
X216810991Y-104933447D01*
X216768397Y-104634093D01*
X216668222Y-104348801D01*
X216588261Y-104199208D01*
X216334080Y-104115525D01*
X215449605Y-105000000D01*
X215090395Y-105000000D01*
X215076253Y-104985858D01*
X215255858Y-104806253D01*
X215270000Y-104820395D01*
X216154475Y-103935920D01*
X216070792Y-103681739D01*
X215798225Y-103550842D01*
X215505358Y-103475635D01*
X215203447Y-103459009D01*
X214904093Y-103501603D01*
X214618801Y-103601778D01*
X214469208Y-103681739D01*
X214385526Y-103935918D01*
X214269578Y-103819970D01*
X214222813Y-103866735D01*
X214219502Y-103855820D01*
X214160537Y-103745506D01*
X214081185Y-103648815D01*
X213984494Y-103569463D01*
X213874180Y-103510498D01*
X213754482Y-103474188D01*
X213630000Y-103461928D01*
X211830000Y-103461928D01*
X211705518Y-103474188D01*
X211585820Y-103510498D01*
X211475506Y-103569463D01*
X211378815Y-103648815D01*
X211299463Y-103745506D01*
X211240498Y-103855820D01*
X211204188Y-103975518D01*
X211191928Y-104100000D01*
X180514768Y-104100000D01*
X180462312Y-104021495D01*
X180248505Y-103807688D01*
X179997095Y-103639701D01*
X179717743Y-103523989D01*
X179421184Y-103465000D01*
X179118816Y-103465000D01*
X178822257Y-103523989D01*
X178542905Y-103639701D01*
X178291495Y-103807688D01*
X178225056Y-103874127D01*
X178219502Y-103855820D01*
X178160537Y-103745506D01*
X178081185Y-103648815D01*
X177984494Y-103569463D01*
X177874180Y-103510498D01*
X177754482Y-103474188D01*
X177630000Y-103461928D01*
X176443506Y-103461928D01*
X176386534Y-103404956D01*
X176358817Y-103371183D01*
X176224059Y-103260589D01*
X176070313Y-103178411D01*
X175903490Y-103127805D01*
X175773477Y-103115000D01*
X175773469Y-103115000D01*
X175730000Y-103110719D01*
X175686531Y-103115000D01*
X165859981Y-103115000D01*
X165804494Y-103069463D01*
X165694180Y-103010498D01*
X165574482Y-102974188D01*
X165450000Y-102961928D01*
X163550000Y-102961928D01*
X163425518Y-102974188D01*
X163305820Y-103010498D01*
X163195506Y-103069463D01*
X163098815Y-103148815D01*
X163088072Y-103161905D01*
X163088072Y-102650000D01*
X163075812Y-102525518D01*
X163039502Y-102405820D01*
X162980537Y-102295506D01*
X162901185Y-102198815D01*
X162804494Y-102119463D01*
X162694180Y-102060498D01*
X162574482Y-102024188D01*
X162450000Y-102011928D01*
X160550000Y-102011928D01*
X160425518Y-102024188D01*
X160305820Y-102060498D01*
X160195506Y-102119463D01*
X160140019Y-102165000D01*
X159416579Y-102165000D01*
X157136578Y-99885000D01*
X226633422Y-99885000D01*
X230393470Y-103645049D01*
X230421183Y-103678817D01*
X230454951Y-103706530D01*
X230454953Y-103706532D01*
X230495015Y-103739410D01*
X230555941Y-103789411D01*
X230709687Y-103871589D01*
X230815713Y-103903752D01*
X230876509Y-103922195D01*
X230891306Y-103923652D01*
X231006523Y-103935000D01*
X231006531Y-103935000D01*
X231050000Y-103939281D01*
X231093469Y-103935000D01*
X232140019Y-103935000D01*
X232195506Y-103980537D01*
X232231918Y-104000000D01*
X232195506Y-104019463D01*
X232098815Y-104098815D01*
X232019463Y-104195506D01*
X231960498Y-104305820D01*
X231924188Y-104425518D01*
X231911928Y-104550000D01*
X231915000Y-104664250D01*
X232073750Y-104823000D01*
X233373000Y-104823000D01*
X233373000Y-104803000D01*
X233627000Y-104803000D01*
X233627000Y-104823000D01*
X234926250Y-104823000D01*
X235010857Y-104738393D01*
X235019463Y-104754494D01*
X235098815Y-104851185D01*
X235195506Y-104930537D01*
X235305820Y-104989502D01*
X235425518Y-105025812D01*
X235550000Y-105038072D01*
X237450000Y-105038072D01*
X237574482Y-105025812D01*
X237694180Y-104989502D01*
X237804494Y-104930537D01*
X237859981Y-104885000D01*
X247191928Y-104885000D01*
X247191928Y-105900000D01*
X247204188Y-106024482D01*
X247231646Y-106115000D01*
X236747046Y-106115000D01*
X236648942Y-106034488D01*
X236497567Y-105953577D01*
X236333316Y-105903752D01*
X236162500Y-105886928D01*
X235587500Y-105886928D01*
X235416684Y-105903752D01*
X235252433Y-105953577D01*
X235101058Y-106034488D01*
X235000000Y-106117425D01*
X234898942Y-106034488D01*
X234747567Y-105953577D01*
X234696710Y-105938150D01*
X234804494Y-105880537D01*
X234901185Y-105801185D01*
X234980537Y-105704494D01*
X235039502Y-105594180D01*
X235075812Y-105474482D01*
X235088072Y-105350000D01*
X235085000Y-105235750D01*
X234926250Y-105077000D01*
X233627000Y-105077000D01*
X233627000Y-105097000D01*
X233373000Y-105097000D01*
X233373000Y-105077000D01*
X232073750Y-105077000D01*
X231915000Y-105235750D01*
X231911928Y-105350000D01*
X231924188Y-105474482D01*
X231960498Y-105594180D01*
X232019463Y-105704494D01*
X232098815Y-105801185D01*
X232195506Y-105880537D01*
X232305820Y-105939502D01*
X232425518Y-105975812D01*
X232550000Y-105988072D01*
X233214250Y-105985000D01*
X233372998Y-105826252D01*
X233372998Y-105985000D01*
X233443644Y-105985000D01*
X233351058Y-106034488D01*
X233252954Y-106115000D01*
X233043469Y-106115000D01*
X233000000Y-106110719D01*
X232956531Y-106115000D01*
X232956523Y-106115000D01*
X232826510Y-106127805D01*
X232659686Y-106178411D01*
X232505941Y-106260589D01*
X232404953Y-106343468D01*
X232404951Y-106343470D01*
X232371183Y-106371183D01*
X232343470Y-106404951D01*
X231754957Y-106993465D01*
X231698102Y-107004774D01*
X231509744Y-107082795D01*
X231340226Y-107196063D01*
X231196063Y-107340226D01*
X231082795Y-107509744D01*
X231004774Y-107698102D01*
X230965000Y-107898061D01*
X230965000Y-108101939D01*
X231004774Y-108301898D01*
X231082795Y-108490256D01*
X231196063Y-108659774D01*
X231340226Y-108803937D01*
X231509744Y-108917205D01*
X231698102Y-108995226D01*
X231898061Y-109035000D01*
X232101939Y-109035000D01*
X232301898Y-108995226D01*
X232490256Y-108917205D01*
X232659774Y-108803937D01*
X232803937Y-108659774D01*
X232917205Y-108490256D01*
X232995226Y-108301898D01*
X233006535Y-108245043D01*
X233315362Y-107936217D01*
X233351058Y-107965512D01*
X233502433Y-108046423D01*
X233666684Y-108096248D01*
X233837500Y-108113072D01*
X234412500Y-108113072D01*
X234583316Y-108096248D01*
X234747567Y-108046423D01*
X234898942Y-107965512D01*
X235000000Y-107882575D01*
X235101058Y-107965512D01*
X235252433Y-108046423D01*
X235416684Y-108096248D01*
X235587500Y-108113072D01*
X236162500Y-108113072D01*
X236333316Y-108096248D01*
X236497567Y-108046423D01*
X236648942Y-107965512D01*
X236747046Y-107885000D01*
X249296533Y-107885000D01*
X249340002Y-107889281D01*
X249383471Y-107885000D01*
X249383479Y-107885000D01*
X249513492Y-107872195D01*
X249680315Y-107821589D01*
X249834061Y-107739411D01*
X249968819Y-107628817D01*
X249996536Y-107595044D01*
X251066906Y-106524675D01*
X251118816Y-106535000D01*
X251421184Y-106535000D01*
X251717743Y-106476011D01*
X251997095Y-106360299D01*
X252248505Y-106192312D01*
X252462312Y-105978505D01*
X252630299Y-105727095D01*
X252746011Y-105447743D01*
X252805000Y-105151184D01*
X252805000Y-104848816D01*
X252746011Y-104552257D01*
X252630299Y-104272905D01*
X252462312Y-104021495D01*
X252248505Y-103807688D01*
X251997095Y-103639701D01*
X251717743Y-103523989D01*
X251421184Y-103465000D01*
X251118816Y-103465000D01*
X250822257Y-103523989D01*
X250542905Y-103639701D01*
X250291495Y-103807688D01*
X250225056Y-103874127D01*
X250219502Y-103855820D01*
X250160537Y-103745506D01*
X250081185Y-103648815D01*
X249984494Y-103569463D01*
X249874180Y-103510498D01*
X249754482Y-103474188D01*
X249630000Y-103461928D01*
X248443506Y-103461928D01*
X248386534Y-103404956D01*
X248358817Y-103371183D01*
X248224059Y-103260589D01*
X248070313Y-103178411D01*
X247903490Y-103127805D01*
X247773477Y-103115000D01*
X247773469Y-103115000D01*
X247730000Y-103110719D01*
X247686531Y-103115000D01*
X237859981Y-103115000D01*
X237804494Y-103069463D01*
X237694180Y-103010498D01*
X237574482Y-102974188D01*
X237450000Y-102961928D01*
X235550000Y-102961928D01*
X235425518Y-102974188D01*
X235305820Y-103010498D01*
X235195506Y-103069463D01*
X235098815Y-103148815D01*
X235088072Y-103161905D01*
X235088072Y-102650000D01*
X235075812Y-102525518D01*
X235039502Y-102405820D01*
X234980537Y-102295506D01*
X234901185Y-102198815D01*
X234804494Y-102119463D01*
X234694180Y-102060498D01*
X234574482Y-102024188D01*
X234450000Y-102011928D01*
X232550000Y-102011928D01*
X232425518Y-102024188D01*
X232305820Y-102060498D01*
X232195506Y-102119463D01*
X232140019Y-102165000D01*
X231416579Y-102165000D01*
X227961578Y-98710000D01*
X253705909Y-98710000D01*
X255290001Y-100294093D01*
X255290000Y-127705908D01*
X244705909Y-138290000D01*
X67294091Y-138290000D01*
X49902152Y-120898061D01*
X50965000Y-120898061D01*
X50965000Y-121101939D01*
X51004774Y-121301898D01*
X51082795Y-121490256D01*
X51196063Y-121659774D01*
X51340226Y-121803937D01*
X51509744Y-121917205D01*
X51698102Y-121995226D01*
X51754957Y-122006535D01*
X52404953Y-122656532D01*
X52404959Y-122656537D01*
X66943470Y-137195049D01*
X66971183Y-137228817D01*
X67004951Y-137256530D01*
X67004953Y-137256532D01*
X67076452Y-137315210D01*
X67105941Y-137339411D01*
X67259687Y-137421589D01*
X67426510Y-137472195D01*
X67556523Y-137485000D01*
X67556533Y-137485000D01*
X67599999Y-137489281D01*
X67643466Y-137485000D01*
X76294499Y-137485000D01*
X76348815Y-137551185D01*
X76445506Y-137630537D01*
X76555820Y-137689502D01*
X76675518Y-137725812D01*
X76800000Y-137738072D01*
X78300000Y-137738072D01*
X78424482Y-137725812D01*
X78544180Y-137689502D01*
X78654494Y-137630537D01*
X78751185Y-137551185D01*
X78830537Y-137454494D01*
X78889502Y-137344180D01*
X78925812Y-137224482D01*
X78938072Y-137100000D01*
X81061928Y-137100000D01*
X81074188Y-137224482D01*
X81110498Y-137344180D01*
X81169463Y-137454494D01*
X81248815Y-137551185D01*
X81345506Y-137630537D01*
X81455820Y-137689502D01*
X81575518Y-137725812D01*
X81700000Y-137738072D01*
X82164250Y-137735000D01*
X82323000Y-137576250D01*
X82323000Y-136727000D01*
X82577000Y-136727000D01*
X82577000Y-137576250D01*
X82735750Y-137735000D01*
X83200000Y-137738072D01*
X83324482Y-137725812D01*
X83444180Y-137689502D01*
X83554494Y-137630537D01*
X83651185Y-137551185D01*
X83730537Y-137454494D01*
X83789502Y-137344180D01*
X83825812Y-137224482D01*
X83838072Y-137100000D01*
X83835000Y-136885750D01*
X83676250Y-136727000D01*
X82577000Y-136727000D01*
X82323000Y-136727000D01*
X81223750Y-136727000D01*
X81065000Y-136885750D01*
X81061928Y-137100000D01*
X78938072Y-137100000D01*
X78938072Y-136100000D01*
X81061928Y-136100000D01*
X81065000Y-136314250D01*
X81223750Y-136473000D01*
X82323000Y-136473000D01*
X82323000Y-135623750D01*
X82164250Y-135465000D01*
X81700000Y-135461928D01*
X81575518Y-135474188D01*
X81455820Y-135510498D01*
X81345506Y-135569463D01*
X81248815Y-135648815D01*
X81169463Y-135745506D01*
X81110498Y-135855820D01*
X81074188Y-135975518D01*
X81061928Y-136100000D01*
X78938072Y-136100000D01*
X78925812Y-135975518D01*
X78889502Y-135855820D01*
X78830537Y-135745506D01*
X78751185Y-135648815D01*
X78654494Y-135569463D01*
X78544180Y-135510498D01*
X78424482Y-135474188D01*
X78300000Y-135461928D01*
X76800000Y-135461928D01*
X76675518Y-135474188D01*
X76555820Y-135510498D01*
X76445506Y-135569463D01*
X76348815Y-135648815D01*
X76294499Y-135715000D01*
X67966579Y-135715000D01*
X67251579Y-135000000D01*
X72886928Y-135000000D01*
X72899188Y-135124482D01*
X72935498Y-135244180D01*
X72994463Y-135354494D01*
X73073815Y-135451185D01*
X73170506Y-135530537D01*
X73280820Y-135589502D01*
X73400518Y-135625812D01*
X73525000Y-135638072D01*
X73714250Y-135635000D01*
X73873000Y-135476250D01*
X73873000Y-134677000D01*
X74127000Y-134677000D01*
X74127000Y-135476250D01*
X74285750Y-135635000D01*
X74475000Y-135638072D01*
X74599482Y-135625812D01*
X74719180Y-135589502D01*
X74829494Y-135530537D01*
X74926185Y-135451185D01*
X75005537Y-135354494D01*
X75064502Y-135244180D01*
X75100812Y-135124482D01*
X75113072Y-135000000D01*
X75110000Y-134835750D01*
X74951250Y-134677000D01*
X74127000Y-134677000D01*
X73873000Y-134677000D01*
X73048750Y-134677000D01*
X72890000Y-134835750D01*
X72886928Y-135000000D01*
X67251579Y-135000000D01*
X65136579Y-132885000D01*
X72633422Y-132885000D01*
X72886928Y-133138507D01*
X72886928Y-133225000D01*
X72903512Y-133393377D01*
X72952625Y-133555283D01*
X73030700Y-133701351D01*
X72994463Y-133745506D01*
X72935498Y-133855820D01*
X72899188Y-133975518D01*
X72886928Y-134100000D01*
X72890000Y-134264250D01*
X73048750Y-134423000D01*
X73873000Y-134423000D01*
X73873000Y-134403000D01*
X74127000Y-134403000D01*
X74127000Y-134423000D01*
X74951250Y-134423000D01*
X75110000Y-134264250D01*
X75113072Y-134100000D01*
X75100812Y-133975518D01*
X75073354Y-133885000D01*
X76161928Y-133885000D01*
X76161928Y-133900000D01*
X76174188Y-134024482D01*
X76210498Y-134144180D01*
X76269463Y-134254494D01*
X76348815Y-134351185D01*
X76445506Y-134430537D01*
X76555820Y-134489502D01*
X76675518Y-134525812D01*
X76800000Y-134538072D01*
X78300000Y-134538072D01*
X78424482Y-134525812D01*
X78544180Y-134489502D01*
X78654494Y-134430537D01*
X78751185Y-134351185D01*
X78830537Y-134254494D01*
X78889502Y-134144180D01*
X78925812Y-134024482D01*
X78938072Y-133900000D01*
X78938072Y-132900000D01*
X78936595Y-132885000D01*
X81063405Y-132885000D01*
X81061928Y-132900000D01*
X81061928Y-133900000D01*
X81074188Y-134024482D01*
X81110498Y-134144180D01*
X81169463Y-134254494D01*
X81248815Y-134351185D01*
X81345506Y-134430537D01*
X81455820Y-134489502D01*
X81575518Y-134525812D01*
X81700000Y-134538072D01*
X82286494Y-134538072D01*
X83211480Y-135463059D01*
X83200000Y-135461928D01*
X82735750Y-135465000D01*
X82577000Y-135623750D01*
X82577000Y-136473000D01*
X83676250Y-136473000D01*
X83835000Y-136314250D01*
X83838072Y-136100000D01*
X83836941Y-136088520D01*
X83843470Y-136095049D01*
X83871183Y-136128817D01*
X83904951Y-136156530D01*
X83904953Y-136156532D01*
X83969724Y-136209688D01*
X84005941Y-136239411D01*
X84159687Y-136321589D01*
X84326510Y-136372195D01*
X84456523Y-136385000D01*
X84456531Y-136385000D01*
X84500000Y-136389281D01*
X84543469Y-136385000D01*
X96161928Y-136385000D01*
X96161928Y-137100000D01*
X96174188Y-137224482D01*
X96210498Y-137344180D01*
X96269463Y-137454494D01*
X96348815Y-137551185D01*
X96445506Y-137630537D01*
X96555820Y-137689502D01*
X96675518Y-137725812D01*
X96800000Y-137738072D01*
X98300000Y-137738072D01*
X98424482Y-137725812D01*
X98544180Y-137689502D01*
X98654494Y-137630537D01*
X98751185Y-137551185D01*
X98830537Y-137454494D01*
X98889502Y-137344180D01*
X98925812Y-137224482D01*
X98938072Y-137100000D01*
X101061928Y-137100000D01*
X101074188Y-137224482D01*
X101110498Y-137344180D01*
X101169463Y-137454494D01*
X101248815Y-137551185D01*
X101345506Y-137630537D01*
X101455820Y-137689502D01*
X101575518Y-137725812D01*
X101700000Y-137738072D01*
X102164250Y-137735000D01*
X102323000Y-137576250D01*
X102323000Y-136727000D01*
X102577000Y-136727000D01*
X102577000Y-137576250D01*
X102735750Y-137735000D01*
X103200000Y-137738072D01*
X103324482Y-137725812D01*
X103444180Y-137689502D01*
X103554494Y-137630537D01*
X103651185Y-137551185D01*
X103730537Y-137454494D01*
X103789502Y-137344180D01*
X103825812Y-137224482D01*
X103838072Y-137100000D01*
X103835000Y-136885750D01*
X103676250Y-136727000D01*
X102577000Y-136727000D01*
X102323000Y-136727000D01*
X101223750Y-136727000D01*
X101065000Y-136885750D01*
X101061928Y-137100000D01*
X98938072Y-137100000D01*
X98938072Y-136385000D01*
X101135750Y-136385000D01*
X101223750Y-136473000D01*
X102323000Y-136473000D01*
X102323000Y-136453000D01*
X102577000Y-136453000D01*
X102577000Y-136473000D01*
X103676250Y-136473000D01*
X103764250Y-136385000D01*
X104506533Y-136385000D01*
X104549999Y-136389281D01*
X104593465Y-136385000D01*
X116161928Y-136385000D01*
X116161928Y-137100000D01*
X116174188Y-137224482D01*
X116210498Y-137344180D01*
X116269463Y-137454494D01*
X116348815Y-137551185D01*
X116445506Y-137630537D01*
X116555820Y-137689502D01*
X116675518Y-137725812D01*
X116800000Y-137738072D01*
X118300000Y-137738072D01*
X118424482Y-137725812D01*
X118544180Y-137689502D01*
X118654494Y-137630537D01*
X118751185Y-137551185D01*
X118830537Y-137454494D01*
X118889502Y-137344180D01*
X118925812Y-137224482D01*
X118938072Y-137100000D01*
X121061928Y-137100000D01*
X121074188Y-137224482D01*
X121110498Y-137344180D01*
X121169463Y-137454494D01*
X121248815Y-137551185D01*
X121345506Y-137630537D01*
X121455820Y-137689502D01*
X121575518Y-137725812D01*
X121700000Y-137738072D01*
X122164250Y-137735000D01*
X122323000Y-137576250D01*
X122323000Y-136727000D01*
X122577000Y-136727000D01*
X122577000Y-137576250D01*
X122735750Y-137735000D01*
X123200000Y-137738072D01*
X123324482Y-137725812D01*
X123444180Y-137689502D01*
X123554494Y-137630537D01*
X123651185Y-137551185D01*
X123730537Y-137454494D01*
X123789502Y-137344180D01*
X123825812Y-137224482D01*
X123838072Y-137100000D01*
X123835000Y-136885750D01*
X123676250Y-136727000D01*
X122577000Y-136727000D01*
X122323000Y-136727000D01*
X121223750Y-136727000D01*
X121065000Y-136885750D01*
X121061928Y-137100000D01*
X118938072Y-137100000D01*
X118938072Y-136385000D01*
X121135750Y-136385000D01*
X121223750Y-136473000D01*
X122323000Y-136473000D01*
X122323000Y-136453000D01*
X122577000Y-136453000D01*
X122577000Y-136473000D01*
X123676250Y-136473000D01*
X123764250Y-136385000D01*
X124506533Y-136385000D01*
X124549999Y-136389281D01*
X124593465Y-136385000D01*
X136083422Y-136385000D01*
X136161928Y-136463506D01*
X136161928Y-137100000D01*
X136174188Y-137224482D01*
X136210498Y-137344180D01*
X136269463Y-137454494D01*
X136348815Y-137551185D01*
X136445506Y-137630537D01*
X136555820Y-137689502D01*
X136675518Y-137725812D01*
X136800000Y-137738072D01*
X138300000Y-137738072D01*
X138424482Y-137725812D01*
X138544180Y-137689502D01*
X138654494Y-137630537D01*
X138751185Y-137551185D01*
X138830537Y-137454494D01*
X138889502Y-137344180D01*
X138925812Y-137224482D01*
X138938072Y-137100000D01*
X141061928Y-137100000D01*
X141074188Y-137224482D01*
X141110498Y-137344180D01*
X141169463Y-137454494D01*
X141248815Y-137551185D01*
X141345506Y-137630537D01*
X141455820Y-137689502D01*
X141575518Y-137725812D01*
X141700000Y-137738072D01*
X142164250Y-137735000D01*
X142323000Y-137576250D01*
X142323000Y-136727000D01*
X142577000Y-136727000D01*
X142577000Y-137576250D01*
X142735750Y-137735000D01*
X143200000Y-137738072D01*
X143324482Y-137725812D01*
X143444180Y-137689502D01*
X143554494Y-137630537D01*
X143651185Y-137551185D01*
X143730537Y-137454494D01*
X143789502Y-137344180D01*
X143825812Y-137224482D01*
X143838072Y-137100000D01*
X143835000Y-136885750D01*
X143676250Y-136727000D01*
X142577000Y-136727000D01*
X142323000Y-136727000D01*
X141223750Y-136727000D01*
X141065000Y-136885750D01*
X141061928Y-137100000D01*
X138938072Y-137100000D01*
X138938072Y-136100000D01*
X141061928Y-136100000D01*
X141065000Y-136314250D01*
X141223750Y-136473000D01*
X142323000Y-136473000D01*
X142323000Y-135623750D01*
X142164250Y-135465000D01*
X141700000Y-135461928D01*
X141575518Y-135474188D01*
X141455820Y-135510498D01*
X141345506Y-135569463D01*
X141248815Y-135648815D01*
X141169463Y-135745506D01*
X141110498Y-135855820D01*
X141074188Y-135975518D01*
X141061928Y-136100000D01*
X138938072Y-136100000D01*
X138925812Y-135975518D01*
X138889502Y-135855820D01*
X138830537Y-135745506D01*
X138751185Y-135648815D01*
X138654494Y-135569463D01*
X138544180Y-135510498D01*
X138424482Y-135474188D01*
X138300000Y-135461928D01*
X137663507Y-135461928D01*
X137106532Y-134904954D01*
X137078817Y-134871183D01*
X136944059Y-134760589D01*
X136790313Y-134678411D01*
X136623490Y-134627805D01*
X136493477Y-134615000D01*
X136493469Y-134615000D01*
X136450000Y-134610719D01*
X136406531Y-134615000D01*
X124916579Y-134615000D01*
X123838072Y-133536494D01*
X123838072Y-132900000D01*
X123836595Y-132885000D01*
X132633422Y-132885000D01*
X132886928Y-133138507D01*
X132886928Y-133225000D01*
X132903512Y-133393377D01*
X132952625Y-133555283D01*
X133030700Y-133701351D01*
X132994463Y-133745506D01*
X132935498Y-133855820D01*
X132899188Y-133975518D01*
X132886928Y-134100000D01*
X132890000Y-134264250D01*
X133048750Y-134423000D01*
X133873000Y-134423000D01*
X133873000Y-134403000D01*
X134127000Y-134403000D01*
X134127000Y-134423000D01*
X134951250Y-134423000D01*
X135110000Y-134264250D01*
X135113072Y-134100000D01*
X135100812Y-133975518D01*
X135073354Y-133885000D01*
X136161928Y-133885000D01*
X136161928Y-133900000D01*
X136174188Y-134024482D01*
X136210498Y-134144180D01*
X136269463Y-134254494D01*
X136348815Y-134351185D01*
X136445506Y-134430537D01*
X136555820Y-134489502D01*
X136675518Y-134525812D01*
X136800000Y-134538072D01*
X138300000Y-134538072D01*
X138424482Y-134525812D01*
X138544180Y-134489502D01*
X138654494Y-134430537D01*
X138751185Y-134351185D01*
X138830537Y-134254494D01*
X138889502Y-134144180D01*
X138925812Y-134024482D01*
X138938072Y-133900000D01*
X138938072Y-132900000D01*
X138936595Y-132885000D01*
X141063405Y-132885000D01*
X141061928Y-132900000D01*
X141061928Y-133900000D01*
X141074188Y-134024482D01*
X141110498Y-134144180D01*
X141169463Y-134254494D01*
X141248815Y-134351185D01*
X141345506Y-134430537D01*
X141455820Y-134489502D01*
X141575518Y-134525812D01*
X141700000Y-134538072D01*
X142336494Y-134538072D01*
X142829363Y-135030941D01*
X143266942Y-135468521D01*
X143200000Y-135461928D01*
X142735750Y-135465000D01*
X142577000Y-135623750D01*
X142577000Y-136473000D01*
X143676250Y-136473000D01*
X143835000Y-136314250D01*
X143838072Y-136100000D01*
X143831479Y-136033058D01*
X143918470Y-136120049D01*
X143946183Y-136153817D01*
X143979951Y-136181530D01*
X143979953Y-136181532D01*
X144014260Y-136209687D01*
X144080941Y-136264411D01*
X144234687Y-136346589D01*
X144401510Y-136397195D01*
X144531523Y-136410000D01*
X144531531Y-136410000D01*
X144575000Y-136414281D01*
X144618469Y-136410000D01*
X156161928Y-136410000D01*
X156161928Y-137100000D01*
X156174188Y-137224482D01*
X156210498Y-137344180D01*
X156269463Y-137454494D01*
X156348815Y-137551185D01*
X156445506Y-137630537D01*
X156555820Y-137689502D01*
X156675518Y-137725812D01*
X156800000Y-137738072D01*
X158300000Y-137738072D01*
X158424482Y-137725812D01*
X158544180Y-137689502D01*
X158654494Y-137630537D01*
X158751185Y-137551185D01*
X158830537Y-137454494D01*
X158889502Y-137344180D01*
X158925812Y-137224482D01*
X158938072Y-137100000D01*
X161061928Y-137100000D01*
X161074188Y-137224482D01*
X161110498Y-137344180D01*
X161169463Y-137454494D01*
X161248815Y-137551185D01*
X161345506Y-137630537D01*
X161455820Y-137689502D01*
X161575518Y-137725812D01*
X161700000Y-137738072D01*
X162164250Y-137735000D01*
X162323000Y-137576250D01*
X162323000Y-136727000D01*
X162577000Y-136727000D01*
X162577000Y-137576250D01*
X162735750Y-137735000D01*
X163200000Y-137738072D01*
X163324482Y-137725812D01*
X163444180Y-137689502D01*
X163554494Y-137630537D01*
X163651185Y-137551185D01*
X163730537Y-137454494D01*
X163789502Y-137344180D01*
X163825812Y-137224482D01*
X163838072Y-137100000D01*
X163835000Y-136885750D01*
X163676250Y-136727000D01*
X162577000Y-136727000D01*
X162323000Y-136727000D01*
X161223750Y-136727000D01*
X161065000Y-136885750D01*
X161061928Y-137100000D01*
X158938072Y-137100000D01*
X158938072Y-136410000D01*
X161160750Y-136410000D01*
X161223750Y-136473000D01*
X162323000Y-136473000D01*
X162323000Y-136453000D01*
X162577000Y-136453000D01*
X162577000Y-136473000D01*
X163676250Y-136473000D01*
X163739250Y-136410000D01*
X164531533Y-136410000D01*
X164574999Y-136414281D01*
X164618465Y-136410000D01*
X176161928Y-136410000D01*
X176161928Y-137100000D01*
X176174188Y-137224482D01*
X176210498Y-137344180D01*
X176269463Y-137454494D01*
X176348815Y-137551185D01*
X176445506Y-137630537D01*
X176555820Y-137689502D01*
X176675518Y-137725812D01*
X176800000Y-137738072D01*
X178300000Y-137738072D01*
X178424482Y-137725812D01*
X178544180Y-137689502D01*
X178654494Y-137630537D01*
X178751185Y-137551185D01*
X178830537Y-137454494D01*
X178889502Y-137344180D01*
X178925812Y-137224482D01*
X178938072Y-137100000D01*
X181061928Y-137100000D01*
X181074188Y-137224482D01*
X181110498Y-137344180D01*
X181169463Y-137454494D01*
X181248815Y-137551185D01*
X181345506Y-137630537D01*
X181455820Y-137689502D01*
X181575518Y-137725812D01*
X181700000Y-137738072D01*
X182164250Y-137735000D01*
X182323000Y-137576250D01*
X182323000Y-136727000D01*
X182577000Y-136727000D01*
X182577000Y-137576250D01*
X182735750Y-137735000D01*
X183200000Y-137738072D01*
X183324482Y-137725812D01*
X183444180Y-137689502D01*
X183554494Y-137630537D01*
X183651185Y-137551185D01*
X183730537Y-137454494D01*
X183789502Y-137344180D01*
X183825812Y-137224482D01*
X183838072Y-137100000D01*
X183835000Y-136885750D01*
X183676250Y-136727000D01*
X182577000Y-136727000D01*
X182323000Y-136727000D01*
X181223750Y-136727000D01*
X181065000Y-136885750D01*
X181061928Y-137100000D01*
X178938072Y-137100000D01*
X178938072Y-136410000D01*
X181160750Y-136410000D01*
X181223750Y-136473000D01*
X182323000Y-136473000D01*
X182323000Y-136453000D01*
X182577000Y-136453000D01*
X182577000Y-136473000D01*
X183676250Y-136473000D01*
X183739250Y-136410000D01*
X184531533Y-136410000D01*
X184574999Y-136414281D01*
X184618465Y-136410000D01*
X196108422Y-136410000D01*
X196161928Y-136463506D01*
X196161928Y-137100000D01*
X196174188Y-137224482D01*
X196210498Y-137344180D01*
X196269463Y-137454494D01*
X196348815Y-137551185D01*
X196445506Y-137630537D01*
X196555820Y-137689502D01*
X196675518Y-137725812D01*
X196800000Y-137738072D01*
X198300000Y-137738072D01*
X198424482Y-137725812D01*
X198544180Y-137689502D01*
X198654494Y-137630537D01*
X198751185Y-137551185D01*
X198830537Y-137454494D01*
X198889502Y-137344180D01*
X198925812Y-137224482D01*
X198938072Y-137100000D01*
X201061928Y-137100000D01*
X201074188Y-137224482D01*
X201110498Y-137344180D01*
X201169463Y-137454494D01*
X201248815Y-137551185D01*
X201345506Y-137630537D01*
X201455820Y-137689502D01*
X201575518Y-137725812D01*
X201700000Y-137738072D01*
X202164250Y-137735000D01*
X202323000Y-137576250D01*
X202323000Y-136727000D01*
X202577000Y-136727000D01*
X202577000Y-137576250D01*
X202735750Y-137735000D01*
X203200000Y-137738072D01*
X203324482Y-137725812D01*
X203444180Y-137689502D01*
X203554494Y-137630537D01*
X203651185Y-137551185D01*
X203730537Y-137454494D01*
X203789502Y-137344180D01*
X203825812Y-137224482D01*
X203838072Y-137100000D01*
X203835000Y-136885750D01*
X203676250Y-136727000D01*
X202577000Y-136727000D01*
X202323000Y-136727000D01*
X201223750Y-136727000D01*
X201065000Y-136885750D01*
X201061928Y-137100000D01*
X198938072Y-137100000D01*
X198938072Y-136100000D01*
X201061928Y-136100000D01*
X201065000Y-136314250D01*
X201223750Y-136473000D01*
X202323000Y-136473000D01*
X202323000Y-135623750D01*
X202164250Y-135465000D01*
X201700000Y-135461928D01*
X201575518Y-135474188D01*
X201455820Y-135510498D01*
X201345506Y-135569463D01*
X201248815Y-135648815D01*
X201169463Y-135745506D01*
X201110498Y-135855820D01*
X201074188Y-135975518D01*
X201061928Y-136100000D01*
X198938072Y-136100000D01*
X198925812Y-135975518D01*
X198889502Y-135855820D01*
X198830537Y-135745506D01*
X198751185Y-135648815D01*
X198654494Y-135569463D01*
X198544180Y-135510498D01*
X198424482Y-135474188D01*
X198300000Y-135461928D01*
X197663507Y-135461928D01*
X197131532Y-134929954D01*
X197103817Y-134896183D01*
X196969059Y-134785589D01*
X196815313Y-134703411D01*
X196648490Y-134652805D01*
X196518477Y-134640000D01*
X196518469Y-134640000D01*
X196475000Y-134635719D01*
X196431531Y-134640000D01*
X184941578Y-134640000D01*
X184706537Y-134404959D01*
X184706532Y-134404953D01*
X183838072Y-133536494D01*
X183838072Y-132900000D01*
X183836595Y-132885000D01*
X192633422Y-132885000D01*
X192886928Y-133138507D01*
X192886928Y-133225000D01*
X192903512Y-133393377D01*
X192952625Y-133555283D01*
X193030700Y-133701351D01*
X192994463Y-133745506D01*
X192935498Y-133855820D01*
X192899188Y-133975518D01*
X192886928Y-134100000D01*
X192890000Y-134264250D01*
X193048750Y-134423000D01*
X193873000Y-134423000D01*
X193873000Y-134403000D01*
X194127000Y-134403000D01*
X194127000Y-134423000D01*
X194951250Y-134423000D01*
X195110000Y-134264250D01*
X195113072Y-134100000D01*
X195100812Y-133975518D01*
X195073354Y-133885000D01*
X196161928Y-133885000D01*
X196161928Y-133900000D01*
X196174188Y-134024482D01*
X196210498Y-134144180D01*
X196269463Y-134254494D01*
X196348815Y-134351185D01*
X196445506Y-134430537D01*
X196555820Y-134489502D01*
X196675518Y-134525812D01*
X196800000Y-134538072D01*
X198300000Y-134538072D01*
X198424482Y-134525812D01*
X198544180Y-134489502D01*
X198654494Y-134430537D01*
X198751185Y-134351185D01*
X198830537Y-134254494D01*
X198889502Y-134144180D01*
X198925812Y-134024482D01*
X198938072Y-133900000D01*
X198938072Y-132900000D01*
X198936595Y-132885000D01*
X201063405Y-132885000D01*
X201061928Y-132900000D01*
X201061928Y-133900000D01*
X201074188Y-134024482D01*
X201110498Y-134144180D01*
X201169463Y-134254494D01*
X201248815Y-134351185D01*
X201345506Y-134430537D01*
X201455820Y-134489502D01*
X201575518Y-134525812D01*
X201700000Y-134538072D01*
X202336494Y-134538072D01*
X203266942Y-135468521D01*
X203200000Y-135461928D01*
X202735750Y-135465000D01*
X202577000Y-135623750D01*
X202577000Y-136473000D01*
X203676250Y-136473000D01*
X203835000Y-136314250D01*
X203838072Y-136100000D01*
X203831479Y-136033058D01*
X203893470Y-136095049D01*
X203921183Y-136128817D01*
X203954951Y-136156530D01*
X203954953Y-136156532D01*
X204019724Y-136209688D01*
X204055941Y-136239411D01*
X204209687Y-136321589D01*
X204376510Y-136372195D01*
X204506523Y-136385000D01*
X204506533Y-136385000D01*
X204549999Y-136389281D01*
X204593465Y-136385000D01*
X216161928Y-136385000D01*
X216161928Y-137100000D01*
X216174188Y-137224482D01*
X216210498Y-137344180D01*
X216269463Y-137454494D01*
X216348815Y-137551185D01*
X216445506Y-137630537D01*
X216555820Y-137689502D01*
X216675518Y-137725812D01*
X216800000Y-137738072D01*
X218300000Y-137738072D01*
X218424482Y-137725812D01*
X218544180Y-137689502D01*
X218654494Y-137630537D01*
X218751185Y-137551185D01*
X218830537Y-137454494D01*
X218889502Y-137344180D01*
X218925812Y-137224482D01*
X218938072Y-137100000D01*
X221061928Y-137100000D01*
X221074188Y-137224482D01*
X221110498Y-137344180D01*
X221169463Y-137454494D01*
X221248815Y-137551185D01*
X221345506Y-137630537D01*
X221455820Y-137689502D01*
X221575518Y-137725812D01*
X221700000Y-137738072D01*
X222164250Y-137735000D01*
X222323000Y-137576250D01*
X222323000Y-136727000D01*
X222577000Y-136727000D01*
X222577000Y-137576250D01*
X222735750Y-137735000D01*
X223200000Y-137738072D01*
X223324482Y-137725812D01*
X223444180Y-137689502D01*
X223554494Y-137630537D01*
X223651185Y-137551185D01*
X223730537Y-137454494D01*
X223789502Y-137344180D01*
X223825812Y-137224482D01*
X223838072Y-137100000D01*
X223835000Y-136885750D01*
X223676250Y-136727000D01*
X222577000Y-136727000D01*
X222323000Y-136727000D01*
X221223750Y-136727000D01*
X221065000Y-136885750D01*
X221061928Y-137100000D01*
X218938072Y-137100000D01*
X218938072Y-136385000D01*
X221135750Y-136385000D01*
X221223750Y-136473000D01*
X222323000Y-136473000D01*
X222323000Y-136453000D01*
X222577000Y-136453000D01*
X222577000Y-136473000D01*
X223676250Y-136473000D01*
X223764250Y-136385000D01*
X224506533Y-136385000D01*
X224549999Y-136389281D01*
X224593465Y-136385000D01*
X236161928Y-136385000D01*
X236161928Y-137100000D01*
X236174188Y-137224482D01*
X236210498Y-137344180D01*
X236269463Y-137454494D01*
X236348815Y-137551185D01*
X236445506Y-137630537D01*
X236555820Y-137689502D01*
X236675518Y-137725812D01*
X236800000Y-137738072D01*
X238300000Y-137738072D01*
X238424482Y-137725812D01*
X238544180Y-137689502D01*
X238654494Y-137630537D01*
X238751185Y-137551185D01*
X238830537Y-137454494D01*
X238889502Y-137344180D01*
X238925812Y-137224482D01*
X238938072Y-137100000D01*
X241061928Y-137100000D01*
X241074188Y-137224482D01*
X241110498Y-137344180D01*
X241169463Y-137454494D01*
X241248815Y-137551185D01*
X241345506Y-137630537D01*
X241455820Y-137689502D01*
X241575518Y-137725812D01*
X241700000Y-137738072D01*
X242164250Y-137735000D01*
X242323000Y-137576250D01*
X242323000Y-136727000D01*
X242577000Y-136727000D01*
X242577000Y-137576250D01*
X242735750Y-137735000D01*
X243200000Y-137738072D01*
X243324482Y-137725812D01*
X243444180Y-137689502D01*
X243554494Y-137630537D01*
X243651185Y-137551185D01*
X243730537Y-137454494D01*
X243789502Y-137344180D01*
X243825812Y-137224482D01*
X243838072Y-137100000D01*
X243835000Y-136885750D01*
X243676250Y-136727000D01*
X242577000Y-136727000D01*
X242323000Y-136727000D01*
X241223750Y-136727000D01*
X241065000Y-136885750D01*
X241061928Y-137100000D01*
X238938072Y-137100000D01*
X238938072Y-136385000D01*
X240306531Y-136385000D01*
X240350000Y-136389281D01*
X240393469Y-136385000D01*
X240393477Y-136385000D01*
X240523490Y-136372195D01*
X240690313Y-136321589D01*
X240844059Y-136239411D01*
X240978817Y-136128817D01*
X241006534Y-136095044D01*
X241068521Y-136033057D01*
X241061928Y-136100000D01*
X241065000Y-136314250D01*
X241223750Y-136473000D01*
X242323000Y-136473000D01*
X242323000Y-135623750D01*
X242577000Y-135623750D01*
X242577000Y-136473000D01*
X243676250Y-136473000D01*
X243835000Y-136314250D01*
X243838072Y-136100000D01*
X243825812Y-135975518D01*
X243789502Y-135855820D01*
X243730537Y-135745506D01*
X243651185Y-135648815D01*
X243554494Y-135569463D01*
X243444180Y-135510498D01*
X243324482Y-135474188D01*
X243200000Y-135461928D01*
X242735750Y-135465000D01*
X242577000Y-135623750D01*
X242323000Y-135623750D01*
X242164250Y-135465000D01*
X241700000Y-135461928D01*
X241633057Y-135468521D01*
X242563507Y-134538072D01*
X243200000Y-134538072D01*
X243324482Y-134525812D01*
X243444180Y-134489502D01*
X243554494Y-134430537D01*
X243651185Y-134351185D01*
X243730537Y-134254494D01*
X243789502Y-134144180D01*
X243825812Y-134024482D01*
X243838072Y-133900000D01*
X243838072Y-132900000D01*
X243825812Y-132775518D01*
X243789502Y-132655820D01*
X243730537Y-132545506D01*
X243651185Y-132448815D01*
X243554494Y-132369463D01*
X243444180Y-132310498D01*
X243324482Y-132274188D01*
X243321398Y-132273884D01*
X243290944Y-132173490D01*
X243271589Y-132109686D01*
X243189411Y-131955941D01*
X243106532Y-131854953D01*
X243106530Y-131854951D01*
X243078817Y-131821183D01*
X243045050Y-131793471D01*
X241656534Y-130404956D01*
X241628817Y-130371183D01*
X241494059Y-130260589D01*
X241340313Y-130178411D01*
X241173490Y-130127805D01*
X241043477Y-130115000D01*
X241043469Y-130115000D01*
X241000000Y-130110719D01*
X240956531Y-130115000D01*
X198734274Y-130115000D01*
X199058669Y-129980631D01*
X199424729Y-129736038D01*
X199736038Y-129424729D01*
X199980631Y-129058669D01*
X200149110Y-128651925D01*
X200235000Y-128220128D01*
X200235000Y-127779872D01*
X200149110Y-127348075D01*
X199980631Y-126941331D01*
X199736038Y-126575271D01*
X199424729Y-126263962D01*
X199058669Y-126019369D01*
X198651925Y-125850890D01*
X198220128Y-125765000D01*
X197779872Y-125765000D01*
X197348075Y-125850890D01*
X196941331Y-126019369D01*
X196575271Y-126263962D01*
X196263962Y-126575271D01*
X196019369Y-126941331D01*
X195850890Y-127348075D01*
X195765000Y-127779872D01*
X195765000Y-128220128D01*
X195850890Y-128651925D01*
X196019369Y-129058669D01*
X196263962Y-129424729D01*
X196575271Y-129736038D01*
X196941331Y-129980631D01*
X197265726Y-130115000D01*
X108734274Y-130115000D01*
X109058669Y-129980631D01*
X109424729Y-129736038D01*
X109736038Y-129424729D01*
X109980631Y-129058669D01*
X110149110Y-128651925D01*
X110235000Y-128220128D01*
X110235000Y-127779872D01*
X110149110Y-127348075D01*
X109980631Y-126941331D01*
X109736038Y-126575271D01*
X109424729Y-126263962D01*
X109058669Y-126019369D01*
X108651925Y-125850890D01*
X108220128Y-125765000D01*
X107779872Y-125765000D01*
X107348075Y-125850890D01*
X106941331Y-126019369D01*
X106575271Y-126263962D01*
X106263962Y-126575271D01*
X106019369Y-126941331D01*
X105850890Y-127348075D01*
X105765000Y-127779872D01*
X105765000Y-128220128D01*
X105850890Y-128651925D01*
X106019369Y-129058669D01*
X106263962Y-129424729D01*
X106575271Y-129736038D01*
X106941331Y-129980631D01*
X107265726Y-130115000D01*
X66366579Y-130115000D01*
X59885000Y-123633422D01*
X59885000Y-116043469D01*
X59889281Y-116000000D01*
X59885000Y-115956531D01*
X59885000Y-115956523D01*
X59872195Y-115826510D01*
X59853536Y-115765000D01*
X59821589Y-115659686D01*
X59739411Y-115505941D01*
X59656532Y-115404953D01*
X59656530Y-115404951D01*
X59628817Y-115371183D01*
X59595050Y-115343471D01*
X58656534Y-114404956D01*
X58628817Y-114371183D01*
X58494059Y-114260589D01*
X58340313Y-114178411D01*
X58173490Y-114127805D01*
X58043477Y-114115000D01*
X58043469Y-114115000D01*
X58000000Y-114110719D01*
X57956531Y-114115000D01*
X57143366Y-114115000D01*
X57003238Y-114000000D01*
X57152502Y-113877502D01*
X57306833Y-113689449D01*
X57421511Y-113474901D01*
X57492130Y-113242102D01*
X57515975Y-113000000D01*
X57492130Y-112757898D01*
X57421511Y-112525099D01*
X57306833Y-112310551D01*
X57152502Y-112122498D01*
X56964449Y-111968167D01*
X56749901Y-111853489D01*
X56517102Y-111782870D01*
X56486663Y-111779872D01*
X60765000Y-111779872D01*
X60765000Y-112220128D01*
X60850890Y-112651925D01*
X61019369Y-113058669D01*
X61263962Y-113424729D01*
X61575271Y-113736038D01*
X61941331Y-113980631D01*
X62348075Y-114149110D01*
X62779872Y-114235000D01*
X63220128Y-114235000D01*
X63651925Y-114149110D01*
X64058669Y-113980631D01*
X64424729Y-113736038D01*
X64736038Y-113424729D01*
X64980631Y-113058669D01*
X65149110Y-112651925D01*
X65235000Y-112220128D01*
X65235000Y-111779872D01*
X150765000Y-111779872D01*
X150765000Y-112220128D01*
X150850890Y-112651925D01*
X151019369Y-113058669D01*
X151263962Y-113424729D01*
X151575271Y-113736038D01*
X151941331Y-113980631D01*
X152348075Y-114149110D01*
X152779872Y-114235000D01*
X153220128Y-114235000D01*
X153651925Y-114149110D01*
X154058669Y-113980631D01*
X154424729Y-113736038D01*
X154736038Y-113424729D01*
X154980631Y-113058669D01*
X155149110Y-112651925D01*
X155235000Y-112220128D01*
X155235000Y-111779872D01*
X240765000Y-111779872D01*
X240765000Y-112220128D01*
X240850890Y-112651925D01*
X241019369Y-113058669D01*
X241263962Y-113424729D01*
X241575271Y-113736038D01*
X241941331Y-113980631D01*
X242348075Y-114149110D01*
X242779872Y-114235000D01*
X243220128Y-114235000D01*
X243651925Y-114149110D01*
X244058669Y-113980631D01*
X244424729Y-113736038D01*
X244736038Y-113424729D01*
X244980631Y-113058669D01*
X245149110Y-112651925D01*
X245235000Y-112220128D01*
X245235000Y-111779872D01*
X245149110Y-111348075D01*
X244980631Y-110941331D01*
X244736038Y-110575271D01*
X244424729Y-110263962D01*
X244058669Y-110019369D01*
X243651925Y-109850890D01*
X243220128Y-109765000D01*
X242779872Y-109765000D01*
X242348075Y-109850890D01*
X241941331Y-110019369D01*
X241575271Y-110263962D01*
X241263962Y-110575271D01*
X241019369Y-110941331D01*
X240850890Y-111348075D01*
X240765000Y-111779872D01*
X155235000Y-111779872D01*
X155149110Y-111348075D01*
X154980631Y-110941331D01*
X154736038Y-110575271D01*
X154424729Y-110263962D01*
X154058669Y-110019369D01*
X153651925Y-109850890D01*
X153220128Y-109765000D01*
X152779872Y-109765000D01*
X152348075Y-109850890D01*
X151941331Y-110019369D01*
X151575271Y-110263962D01*
X151263962Y-110575271D01*
X151019369Y-110941331D01*
X150850890Y-111348075D01*
X150765000Y-111779872D01*
X65235000Y-111779872D01*
X65149110Y-111348075D01*
X64980631Y-110941331D01*
X64736038Y-110575271D01*
X64424729Y-110263962D01*
X64058669Y-110019369D01*
X63651925Y-109850890D01*
X63220128Y-109765000D01*
X62779872Y-109765000D01*
X62348075Y-109850890D01*
X61941331Y-110019369D01*
X61575271Y-110263962D01*
X61263962Y-110575271D01*
X61019369Y-110941331D01*
X60850890Y-111348075D01*
X60765000Y-111779872D01*
X56486663Y-111779872D01*
X56335665Y-111765000D01*
X55664335Y-111765000D01*
X55482898Y-111782870D01*
X55250099Y-111853489D01*
X55035551Y-111968167D01*
X54847498Y-112122498D01*
X54844605Y-112126023D01*
X54826510Y-112127805D01*
X54659686Y-112178411D01*
X54505941Y-112260589D01*
X54404953Y-112343468D01*
X54404951Y-112343470D01*
X54371183Y-112371183D01*
X54343470Y-112404951D01*
X53404956Y-113343466D01*
X53371183Y-113371183D01*
X53260589Y-113505942D01*
X53178411Y-113659688D01*
X53127805Y-113826511D01*
X53115000Y-113956524D01*
X53115000Y-113956531D01*
X53110719Y-114000000D01*
X53115000Y-114043469D01*
X53115001Y-120863422D01*
X53006535Y-120754957D01*
X52995226Y-120698102D01*
X52917205Y-120509744D01*
X52803937Y-120340226D01*
X52659774Y-120196063D01*
X52490256Y-120082795D01*
X52301898Y-120004774D01*
X52101939Y-119965000D01*
X51898061Y-119965000D01*
X51698102Y-120004774D01*
X51509744Y-120082795D01*
X51340226Y-120196063D01*
X51196063Y-120340226D01*
X51082795Y-120509744D01*
X51004774Y-120698102D01*
X50965000Y-120898061D01*
X49902152Y-120898061D01*
X48710000Y-119705909D01*
X48710000Y-112294091D01*
X50477393Y-110526699D01*
X50504474Y-110504474D01*
X50526699Y-110477393D01*
X50526707Y-110477385D01*
X50593199Y-110396364D01*
X50659128Y-110273020D01*
X50699726Y-110139185D01*
X50713435Y-110000001D01*
X50699726Y-109860816D01*
X50659128Y-109726981D01*
X50659128Y-109726980D01*
X50593199Y-109603636D01*
X50526707Y-109522615D01*
X50526699Y-109522607D01*
X50504474Y-109495526D01*
X50477393Y-109473301D01*
X48710000Y-107705909D01*
X48710000Y-90682391D01*
X54531538Y-90682391D01*
X54656269Y-90873000D01*
X55873000Y-90873000D01*
X55873000Y-89765000D01*
X56127000Y-89765000D01*
X56127000Y-90873000D01*
X57343731Y-90873000D01*
X57468462Y-90682391D01*
X57464591Y-90644718D01*
X57372421Y-90419467D01*
X57238078Y-90216526D01*
X57066725Y-90043693D01*
X56864946Y-89907610D01*
X56640496Y-89813507D01*
X56402000Y-89765000D01*
X56127000Y-89765000D01*
X55873000Y-89765000D01*
X55598000Y-89765000D01*
X55359504Y-89813507D01*
X55135054Y-89907610D01*
X54933275Y-90043693D01*
X54761922Y-90216526D01*
X54627579Y-90419467D01*
X54535409Y-90644718D01*
X54531538Y-90682391D01*
X48710000Y-90682391D01*
X48710000Y-90294091D01*
X50294092Y-88710000D01*
X69705909Y-88710000D01*
X79110909Y-98115000D01*
G04 #@! TA.AperFunction,Conductor*
D18*
G36*
X79110909Y-98115000D02*
G01*
X70366579Y-98115000D01*
X64656534Y-92404956D01*
X64628817Y-92371183D01*
X64494059Y-92260589D01*
X64340313Y-92178411D01*
X64173490Y-92127805D01*
X64043477Y-92115000D01*
X64043469Y-92115000D01*
X64000000Y-92110719D01*
X63956531Y-92115000D01*
X57143366Y-92115000D01*
X57002652Y-91999519D01*
X57066725Y-91956307D01*
X57238078Y-91783474D01*
X57372421Y-91580533D01*
X57464591Y-91355282D01*
X57468462Y-91317609D01*
X57343731Y-91127000D01*
X56127000Y-91127000D01*
X56127000Y-91147000D01*
X55873000Y-91147000D01*
X55873000Y-91127000D01*
X54656269Y-91127000D01*
X54531538Y-91317609D01*
X54535409Y-91355282D01*
X54627579Y-91580533D01*
X54761922Y-91783474D01*
X54933275Y-91956307D01*
X54997348Y-91999519D01*
X54847498Y-92122498D01*
X54693167Y-92310551D01*
X54578489Y-92525099D01*
X54507870Y-92757898D01*
X54484025Y-93000000D01*
X54507870Y-93242102D01*
X54578489Y-93474901D01*
X54693167Y-93689449D01*
X54847498Y-93877502D01*
X54996762Y-94000000D01*
X54847498Y-94122498D01*
X54693167Y-94310551D01*
X54578489Y-94525099D01*
X54507870Y-94757898D01*
X54484025Y-95000000D01*
X54507870Y-95242102D01*
X54578489Y-95474901D01*
X54693167Y-95689449D01*
X54847498Y-95877502D01*
X54996762Y-96000000D01*
X54847498Y-96122498D01*
X54693167Y-96310551D01*
X54578489Y-96525099D01*
X54507870Y-96757898D01*
X54484025Y-97000000D01*
X54507870Y-97242102D01*
X54578489Y-97474901D01*
X54693167Y-97689449D01*
X54847498Y-97877502D01*
X54996762Y-98000000D01*
X54847498Y-98122498D01*
X54693167Y-98310551D01*
X54578489Y-98525099D01*
X54507870Y-98757898D01*
X54484025Y-99000000D01*
X54507870Y-99242102D01*
X54578489Y-99474901D01*
X54693167Y-99689449D01*
X54847498Y-99877502D01*
X54996762Y-100000000D01*
X54847498Y-100122498D01*
X54693167Y-100310551D01*
X54578489Y-100525099D01*
X54507870Y-100757898D01*
X54484025Y-101000000D01*
X54507870Y-101242102D01*
X54578489Y-101474901D01*
X54693167Y-101689449D01*
X54847498Y-101877502D01*
X54996762Y-102000000D01*
X54847498Y-102122498D01*
X54693167Y-102310551D01*
X54578489Y-102525099D01*
X54507870Y-102757898D01*
X54484025Y-103000000D01*
X54507870Y-103242102D01*
X54578489Y-103474901D01*
X54693167Y-103689449D01*
X54847498Y-103877502D01*
X54996762Y-104000000D01*
X54847498Y-104122498D01*
X54693167Y-104310551D01*
X54578489Y-104525099D01*
X54507870Y-104757898D01*
X54484025Y-105000000D01*
X54507870Y-105242102D01*
X54578489Y-105474901D01*
X54693167Y-105689449D01*
X54847498Y-105877502D01*
X54886111Y-105909191D01*
X54881613Y-105911595D01*
X54747038Y-106022038D01*
X54636595Y-106156613D01*
X54554528Y-106310149D01*
X54503992Y-106476745D01*
X54486928Y-106649999D01*
X54486928Y-107350001D01*
X54503992Y-107523255D01*
X54554528Y-107689851D01*
X54636595Y-107843387D01*
X54747038Y-107977962D01*
X54881613Y-108088405D01*
X55035149Y-108170472D01*
X55201745Y-108221008D01*
X55374999Y-108238072D01*
X56625001Y-108238072D01*
X56798255Y-108221008D01*
X56964851Y-108170472D01*
X57118387Y-108088405D01*
X57252962Y-107977962D01*
X57363405Y-107843387D01*
X57445472Y-107689851D01*
X57496008Y-107523255D01*
X57513072Y-107350001D01*
X57513072Y-106649999D01*
X57496008Y-106476745D01*
X57445472Y-106310149D01*
X57363405Y-106156613D01*
X57252962Y-106022038D01*
X57118387Y-105911595D01*
X57113889Y-105909191D01*
X57152502Y-105877502D01*
X57306833Y-105689449D01*
X57421511Y-105474901D01*
X57492130Y-105242102D01*
X57515975Y-105000000D01*
X57492130Y-104757898D01*
X57421511Y-104525099D01*
X57306833Y-104310551D01*
X57152502Y-104122498D01*
X57125089Y-104100000D01*
X67191928Y-104100000D01*
X67191928Y-105900000D01*
X67204188Y-106024482D01*
X67240498Y-106144180D01*
X67299463Y-106254494D01*
X67378815Y-106351185D01*
X67475506Y-106430537D01*
X67585820Y-106489502D01*
X67705518Y-106525812D01*
X67830000Y-106538072D01*
X69016494Y-106538072D01*
X70073468Y-107595047D01*
X70101183Y-107628817D01*
X70134951Y-107656530D01*
X70134953Y-107656532D01*
X70175552Y-107689851D01*
X70235941Y-107739411D01*
X70389687Y-107821589D01*
X70556510Y-107872195D01*
X70686523Y-107885000D01*
X70686533Y-107885000D01*
X70729999Y-107889281D01*
X70773465Y-107885000D01*
X79956531Y-107885000D01*
X80000000Y-107889281D01*
X80043469Y-107885000D01*
X80043477Y-107885000D01*
X80173490Y-107872195D01*
X80340313Y-107821589D01*
X80494059Y-107739411D01*
X80628817Y-107628817D01*
X80656534Y-107595044D01*
X82366579Y-105885000D01*
X82377954Y-105885000D01*
X82476058Y-105965512D01*
X82627433Y-106046423D01*
X82791684Y-106096248D01*
X82962500Y-106113072D01*
X83464431Y-106113072D01*
X83340226Y-106196063D01*
X83196063Y-106340226D01*
X83082795Y-106509744D01*
X83004774Y-106698102D01*
X82965000Y-106898061D01*
X82965000Y-107101939D01*
X83004774Y-107301898D01*
X83082795Y-107490256D01*
X83196063Y-107659774D01*
X83340226Y-107803937D01*
X83509744Y-107917205D01*
X83698102Y-107995226D01*
X83898061Y-108035000D01*
X84101939Y-108035000D01*
X84301898Y-107995226D01*
X84490256Y-107917205D01*
X84659774Y-107803937D01*
X84803937Y-107659774D01*
X84917205Y-107490256D01*
X84995226Y-107301898D01*
X85006535Y-107245043D01*
X85595049Y-106656530D01*
X85628817Y-106628817D01*
X85739411Y-106494059D01*
X85787039Y-106404953D01*
X85821589Y-106340314D01*
X85872195Y-106173490D01*
X85875161Y-106143377D01*
X85885000Y-106043477D01*
X85885000Y-106043469D01*
X85889281Y-106000000D01*
X85885000Y-105956531D01*
X85885000Y-105874369D01*
X85906623Y-105856623D01*
X86015512Y-105723942D01*
X86096423Y-105572567D01*
X86146248Y-105408316D01*
X86151991Y-105350000D01*
X87911928Y-105350000D01*
X87924188Y-105474482D01*
X87960498Y-105594180D01*
X88019463Y-105704494D01*
X88098815Y-105801185D01*
X88195506Y-105880537D01*
X88305820Y-105939502D01*
X88425518Y-105975812D01*
X88550000Y-105988072D01*
X89214250Y-105985000D01*
X89373000Y-105826250D01*
X89373000Y-105077000D01*
X88073750Y-105077000D01*
X87915000Y-105235750D01*
X87911928Y-105350000D01*
X86151991Y-105350000D01*
X86163072Y-105237500D01*
X86163072Y-104762500D01*
X86146248Y-104591684D01*
X86096423Y-104427433D01*
X86015512Y-104276058D01*
X85906623Y-104143377D01*
X85773942Y-104034488D01*
X85622567Y-103953577D01*
X85458316Y-103903752D01*
X85287500Y-103886928D01*
X84712500Y-103886928D01*
X84541684Y-103903752D01*
X84377433Y-103953577D01*
X84226058Y-104034488D01*
X84125000Y-104117425D01*
X84023942Y-104034488D01*
X83872567Y-103953577D01*
X83708316Y-103903752D01*
X83537500Y-103886928D01*
X82962500Y-103886928D01*
X82791684Y-103903752D01*
X82627433Y-103953577D01*
X82476058Y-104034488D01*
X82377954Y-104115000D01*
X82043465Y-104115000D01*
X81999999Y-104110719D01*
X81956533Y-104115000D01*
X81956523Y-104115000D01*
X81826510Y-104127805D01*
X81659687Y-104178411D01*
X81505941Y-104260589D01*
X81505939Y-104260590D01*
X81505940Y-104260590D01*
X81404953Y-104343468D01*
X81404951Y-104343470D01*
X81371183Y-104371183D01*
X81343470Y-104404951D01*
X79633422Y-106115000D01*
X72137711Y-106115000D01*
X72154475Y-106064080D01*
X71270000Y-105179605D01*
X71255858Y-105193748D01*
X71076253Y-105014143D01*
X71090395Y-105000000D01*
X71449605Y-105000000D01*
X72334080Y-105884475D01*
X72588261Y-105800792D01*
X72719158Y-105528225D01*
X72794365Y-105235358D01*
X72810991Y-104933447D01*
X72768397Y-104634093D01*
X72668222Y-104348801D01*
X72588261Y-104199208D01*
X72334080Y-104115525D01*
X71449605Y-105000000D01*
X71090395Y-105000000D01*
X71076253Y-104985858D01*
X71255858Y-104806253D01*
X71270000Y-104820395D01*
X72154475Y-103935920D01*
X72070792Y-103681739D01*
X71798225Y-103550842D01*
X71505358Y-103475635D01*
X71203447Y-103459009D01*
X70904093Y-103501603D01*
X70618801Y-103601778D01*
X70469208Y-103681739D01*
X70385526Y-103935918D01*
X70269578Y-103819970D01*
X70222813Y-103866735D01*
X70219502Y-103855820D01*
X70160537Y-103745506D01*
X70081185Y-103648815D01*
X69984494Y-103569463D01*
X69874180Y-103510498D01*
X69754482Y-103474188D01*
X69630000Y-103461928D01*
X67830000Y-103461928D01*
X67705518Y-103474188D01*
X67585820Y-103510498D01*
X67475506Y-103569463D01*
X67378815Y-103648815D01*
X67299463Y-103745506D01*
X67240498Y-103855820D01*
X67204188Y-103975518D01*
X67191928Y-104100000D01*
X57125089Y-104100000D01*
X57003238Y-104000000D01*
X57143366Y-103885000D01*
X59956531Y-103885000D01*
X60000000Y-103889281D01*
X60043469Y-103885000D01*
X60043477Y-103885000D01*
X60173490Y-103872195D01*
X60340313Y-103821589D01*
X60494059Y-103739411D01*
X60628817Y-103628817D01*
X60656534Y-103595044D01*
X64245044Y-100006535D01*
X64301898Y-99995226D01*
X64490256Y-99917205D01*
X64659774Y-99803937D01*
X64803937Y-99659774D01*
X64917205Y-99490256D01*
X64995226Y-99301898D01*
X65004367Y-99255945D01*
X67343470Y-101595049D01*
X67371183Y-101628817D01*
X67404951Y-101656530D01*
X67404953Y-101656532D01*
X67476452Y-101715210D01*
X67505941Y-101739411D01*
X67659687Y-101821589D01*
X67826510Y-101872195D01*
X67956523Y-101885000D01*
X67956533Y-101885000D01*
X67999999Y-101889281D01*
X68043465Y-101885000D01*
X84633422Y-101885000D01*
X86393470Y-103645049D01*
X86421183Y-103678817D01*
X86454951Y-103706530D01*
X86454953Y-103706532D01*
X86495015Y-103739410D01*
X86555941Y-103789411D01*
X86709687Y-103871589D01*
X86876510Y-103922195D01*
X87006523Y-103935000D01*
X87006531Y-103935000D01*
X87050000Y-103939281D01*
X87093469Y-103935000D01*
X88140019Y-103935000D01*
X88195506Y-103980537D01*
X88231918Y-104000000D01*
X88195506Y-104019463D01*
X88098815Y-104098815D01*
X88019463Y-104195506D01*
X87960498Y-104305820D01*
X87924188Y-104425518D01*
X87911928Y-104550000D01*
X87915000Y-104664250D01*
X88073750Y-104823000D01*
X89373000Y-104823000D01*
X89373000Y-104803000D01*
X89627000Y-104803000D01*
X89627000Y-104823000D01*
X90926250Y-104823000D01*
X91010857Y-104738393D01*
X91019463Y-104754494D01*
X91098815Y-104851185D01*
X91195506Y-104930537D01*
X91305820Y-104989502D01*
X91425518Y-105025812D01*
X91550000Y-105038072D01*
X93450000Y-105038072D01*
X93574482Y-105025812D01*
X93694180Y-104989502D01*
X93804494Y-104930537D01*
X93859981Y-104885000D01*
X103191928Y-104885000D01*
X103191928Y-105900000D01*
X103204188Y-106024482D01*
X103231646Y-106115000D01*
X92872046Y-106115000D01*
X92773942Y-106034488D01*
X92622567Y-105953577D01*
X92458316Y-105903752D01*
X92287500Y-105886928D01*
X91712500Y-105886928D01*
X91541684Y-105903752D01*
X91377433Y-105953577D01*
X91226058Y-106034488D01*
X91125000Y-106117425D01*
X91023942Y-106034488D01*
X90872567Y-105953577D01*
X90741966Y-105913960D01*
X90804494Y-105880537D01*
X90901185Y-105801185D01*
X90980537Y-105704494D01*
X91039502Y-105594180D01*
X91075812Y-105474482D01*
X91088072Y-105350000D01*
X91085000Y-105235750D01*
X90926250Y-105077000D01*
X89627000Y-105077000D01*
X89627000Y-105826250D01*
X89724793Y-105924043D01*
X89627433Y-105953577D01*
X89476058Y-106034488D01*
X89377954Y-106115000D01*
X89043469Y-106115000D01*
X89000000Y-106110719D01*
X88956531Y-106115000D01*
X88956523Y-106115000D01*
X88826510Y-106127805D01*
X88659686Y-106178411D01*
X88505941Y-106260589D01*
X88404953Y-106343468D01*
X88404951Y-106343470D01*
X88371183Y-106371183D01*
X88343470Y-106404951D01*
X87754957Y-106993465D01*
X87698102Y-107004774D01*
X87509744Y-107082795D01*
X87340226Y-107196063D01*
X87196063Y-107340226D01*
X87082795Y-107509744D01*
X87004774Y-107698102D01*
X86965000Y-107898061D01*
X86965000Y-108101939D01*
X87004774Y-108301898D01*
X87082795Y-108490256D01*
X87196063Y-108659774D01*
X87340226Y-108803937D01*
X87509744Y-108917205D01*
X87698102Y-108995226D01*
X87898061Y-109035000D01*
X88101939Y-109035000D01*
X88301898Y-108995226D01*
X88490256Y-108917205D01*
X88659774Y-108803937D01*
X88803937Y-108659774D01*
X88917205Y-108490256D01*
X88995226Y-108301898D01*
X89006535Y-108245043D01*
X89366579Y-107885000D01*
X89377954Y-107885000D01*
X89476058Y-107965512D01*
X89627433Y-108046423D01*
X89791684Y-108096248D01*
X89962500Y-108113072D01*
X90537500Y-108113072D01*
X90708316Y-108096248D01*
X90872567Y-108046423D01*
X91023942Y-107965512D01*
X91125000Y-107882575D01*
X91226058Y-107965512D01*
X91377433Y-108046423D01*
X91541684Y-108096248D01*
X91712500Y-108113072D01*
X92287500Y-108113072D01*
X92458316Y-108096248D01*
X92622567Y-108046423D01*
X92773942Y-107965512D01*
X92872046Y-107885000D01*
X105296533Y-107885000D01*
X105340002Y-107889281D01*
X105383471Y-107885000D01*
X105383479Y-107885000D01*
X105513492Y-107872195D01*
X105680315Y-107821589D01*
X105834061Y-107739411D01*
X105968819Y-107628817D01*
X105996536Y-107595044D01*
X107066906Y-106524675D01*
X107118816Y-106535000D01*
X107421184Y-106535000D01*
X107717743Y-106476011D01*
X107997095Y-106360299D01*
X108248505Y-106192312D01*
X108462312Y-105978505D01*
X108630299Y-105727095D01*
X108746011Y-105447743D01*
X108805000Y-105151184D01*
X108805000Y-104848816D01*
X108746011Y-104552257D01*
X108630299Y-104272905D01*
X108514768Y-104100000D01*
X139191928Y-104100000D01*
X139191928Y-105900000D01*
X139204188Y-106024482D01*
X139240498Y-106144180D01*
X139299463Y-106254494D01*
X139378815Y-106351185D01*
X139475506Y-106430537D01*
X139585820Y-106489502D01*
X139705518Y-106525812D01*
X139830000Y-106538072D01*
X141016494Y-106538072D01*
X142073468Y-107595047D01*
X142101183Y-107628817D01*
X142134951Y-107656530D01*
X142134953Y-107656532D01*
X142175552Y-107689851D01*
X142235941Y-107739411D01*
X142389687Y-107821589D01*
X142556510Y-107872195D01*
X142686523Y-107885000D01*
X142686533Y-107885000D01*
X142729999Y-107889281D01*
X142773465Y-107885000D01*
X151956531Y-107885000D01*
X152000000Y-107889281D01*
X152043469Y-107885000D01*
X152043477Y-107885000D01*
X152173490Y-107872195D01*
X152340313Y-107821589D01*
X152494059Y-107739411D01*
X152628817Y-107628817D01*
X152656534Y-107595044D01*
X154366579Y-105885000D01*
X154377954Y-105885000D01*
X154476058Y-105965512D01*
X154627433Y-106046423D01*
X154791684Y-106096248D01*
X154962500Y-106113072D01*
X155464431Y-106113072D01*
X155340226Y-106196063D01*
X155196063Y-106340226D01*
X155082795Y-106509744D01*
X155004774Y-106698102D01*
X154965000Y-106898061D01*
X154965000Y-107101939D01*
X155004774Y-107301898D01*
X155082795Y-107490256D01*
X155196063Y-107659774D01*
X155340226Y-107803937D01*
X155509744Y-107917205D01*
X155698102Y-107995226D01*
X155898061Y-108035000D01*
X156101939Y-108035000D01*
X156301898Y-107995226D01*
X156490256Y-107917205D01*
X156659774Y-107803937D01*
X156803937Y-107659774D01*
X156917205Y-107490256D01*
X156995226Y-107301898D01*
X157006535Y-107245043D01*
X157595049Y-106656530D01*
X157628817Y-106628817D01*
X157739411Y-106494059D01*
X157787039Y-106404953D01*
X157821589Y-106340314D01*
X157872195Y-106173490D01*
X157875161Y-106143377D01*
X157885000Y-106043477D01*
X157885000Y-106043469D01*
X157889281Y-106000000D01*
X157885000Y-105956531D01*
X157885000Y-105874369D01*
X157906623Y-105856623D01*
X158015512Y-105723942D01*
X158096423Y-105572567D01*
X158146248Y-105408316D01*
X158163072Y-105237500D01*
X158163072Y-104762500D01*
X158146248Y-104591684D01*
X158096423Y-104427433D01*
X158015512Y-104276058D01*
X157906623Y-104143377D01*
X157773942Y-104034488D01*
X157622567Y-103953577D01*
X157458316Y-103903752D01*
X157287500Y-103886928D01*
X156712500Y-103886928D01*
X156541684Y-103903752D01*
X156377433Y-103953577D01*
X156226058Y-104034488D01*
X156125000Y-104117425D01*
X156023942Y-104034488D01*
X155872567Y-103953577D01*
X155708316Y-103903752D01*
X155537500Y-103886928D01*
X154962500Y-103886928D01*
X154791684Y-103903752D01*
X154627433Y-103953577D01*
X154476058Y-104034488D01*
X154377954Y-104115000D01*
X154043465Y-104115000D01*
X153999999Y-104110719D01*
X153956533Y-104115000D01*
X153956523Y-104115000D01*
X153826510Y-104127805D01*
X153659687Y-104178411D01*
X153505941Y-104260589D01*
X153505939Y-104260590D01*
X153505940Y-104260590D01*
X153404953Y-104343468D01*
X153404951Y-104343470D01*
X153371183Y-104371183D01*
X153343470Y-104404951D01*
X151633422Y-106115000D01*
X144137711Y-106115000D01*
X144154475Y-106064080D01*
X143270000Y-105179605D01*
X143255858Y-105193748D01*
X143076253Y-105014143D01*
X143090395Y-105000000D01*
X143449605Y-105000000D01*
X144334080Y-105884475D01*
X144588261Y-105800792D01*
X144719158Y-105528225D01*
X144794365Y-105235358D01*
X144810991Y-104933447D01*
X144768397Y-104634093D01*
X144668222Y-104348801D01*
X144588261Y-104199208D01*
X144334080Y-104115525D01*
X143449605Y-105000000D01*
X143090395Y-105000000D01*
X143076253Y-104985858D01*
X143255858Y-104806253D01*
X143270000Y-104820395D01*
X144154475Y-103935920D01*
X144070792Y-103681739D01*
X143798225Y-103550842D01*
X143505358Y-103475635D01*
X143203447Y-103459009D01*
X142904093Y-103501603D01*
X142618801Y-103601778D01*
X142469208Y-103681739D01*
X142385526Y-103935918D01*
X142269578Y-103819970D01*
X142222813Y-103866735D01*
X142219502Y-103855820D01*
X142160537Y-103745506D01*
X142081185Y-103648815D01*
X141984494Y-103569463D01*
X141874180Y-103510498D01*
X141754482Y-103474188D01*
X141630000Y-103461928D01*
X139830000Y-103461928D01*
X139705518Y-103474188D01*
X139585820Y-103510498D01*
X139475506Y-103569463D01*
X139378815Y-103648815D01*
X139299463Y-103745506D01*
X139240498Y-103855820D01*
X139204188Y-103975518D01*
X139191928Y-104100000D01*
X108514768Y-104100000D01*
X108462312Y-104021495D01*
X108248505Y-103807688D01*
X107997095Y-103639701D01*
X107717743Y-103523989D01*
X107421184Y-103465000D01*
X107118816Y-103465000D01*
X106822257Y-103523989D01*
X106542905Y-103639701D01*
X106291495Y-103807688D01*
X106225056Y-103874127D01*
X106219502Y-103855820D01*
X106160537Y-103745506D01*
X106081185Y-103648815D01*
X105984494Y-103569463D01*
X105874180Y-103510498D01*
X105754482Y-103474188D01*
X105630000Y-103461928D01*
X104443506Y-103461928D01*
X104386534Y-103404956D01*
X104358817Y-103371183D01*
X104224059Y-103260589D01*
X104070313Y-103178411D01*
X103903490Y-103127805D01*
X103773477Y-103115000D01*
X103773469Y-103115000D01*
X103730000Y-103110719D01*
X103686531Y-103115000D01*
X93859981Y-103115000D01*
X93804494Y-103069463D01*
X93694180Y-103010498D01*
X93574482Y-102974188D01*
X93450000Y-102961928D01*
X91550000Y-102961928D01*
X91425518Y-102974188D01*
X91305820Y-103010498D01*
X91195506Y-103069463D01*
X91098815Y-103148815D01*
X91088072Y-103161905D01*
X91088072Y-102650000D01*
X91075812Y-102525518D01*
X91039502Y-102405820D01*
X90980537Y-102295506D01*
X90901185Y-102198815D01*
X90804494Y-102119463D01*
X90694180Y-102060498D01*
X90574482Y-102024188D01*
X90450000Y-102011928D01*
X88550000Y-102011928D01*
X88425518Y-102024188D01*
X88305820Y-102060498D01*
X88195506Y-102119463D01*
X88140019Y-102165000D01*
X87416579Y-102165000D01*
X86136578Y-100885000D01*
X155633422Y-100885000D01*
X158393470Y-103645049D01*
X158421183Y-103678817D01*
X158454951Y-103706530D01*
X158454953Y-103706532D01*
X158495015Y-103739410D01*
X158555941Y-103789411D01*
X158709687Y-103871589D01*
X158876510Y-103922195D01*
X159006523Y-103935000D01*
X159006533Y-103935000D01*
X159049999Y-103939281D01*
X159093465Y-103935000D01*
X160140019Y-103935000D01*
X160195506Y-103980537D01*
X160231918Y-104000000D01*
X160195506Y-104019463D01*
X160098815Y-104098815D01*
X160019463Y-104195506D01*
X159960498Y-104305820D01*
X159924188Y-104425518D01*
X159911928Y-104550000D01*
X159915000Y-104664250D01*
X160073750Y-104823000D01*
X161373000Y-104823000D01*
X161373000Y-104803000D01*
X161627000Y-104803000D01*
X161627000Y-104823000D01*
X162926250Y-104823000D01*
X163010857Y-104738393D01*
X163019463Y-104754494D01*
X163098815Y-104851185D01*
X163195506Y-104930537D01*
X163305820Y-104989502D01*
X163425518Y-105025812D01*
X163550000Y-105038072D01*
X165450000Y-105038072D01*
X165574482Y-105025812D01*
X165694180Y-104989502D01*
X165804494Y-104930537D01*
X165859981Y-104885000D01*
X175191928Y-104885000D01*
X175191928Y-105900000D01*
X175204188Y-106024482D01*
X175231646Y-106115000D01*
X164747046Y-106115000D01*
X164648942Y-106034488D01*
X164497567Y-105953577D01*
X164333316Y-105903752D01*
X164162500Y-105886928D01*
X163587500Y-105886928D01*
X163416684Y-105903752D01*
X163252433Y-105953577D01*
X163101058Y-106034488D01*
X163000000Y-106117425D01*
X162898942Y-106034488D01*
X162747567Y-105953577D01*
X162696710Y-105938150D01*
X162804494Y-105880537D01*
X162901185Y-105801185D01*
X162980537Y-105704494D01*
X163039502Y-105594180D01*
X163075812Y-105474482D01*
X163088072Y-105350000D01*
X163085000Y-105235750D01*
X162926250Y-105077000D01*
X161627000Y-105077000D01*
X161627000Y-105097000D01*
X161373000Y-105097000D01*
X161373000Y-105077000D01*
X160073750Y-105077000D01*
X159915000Y-105235750D01*
X159911928Y-105350000D01*
X159924188Y-105474482D01*
X159960498Y-105594180D01*
X160019463Y-105704494D01*
X160098815Y-105801185D01*
X160195506Y-105880537D01*
X160305820Y-105939502D01*
X160425518Y-105975812D01*
X160550000Y-105988072D01*
X161214250Y-105985000D01*
X161372998Y-105826252D01*
X161372998Y-105985000D01*
X161443644Y-105985000D01*
X161351058Y-106034488D01*
X161252954Y-106115000D01*
X161043469Y-106115000D01*
X161000000Y-106110719D01*
X160956531Y-106115000D01*
X160956523Y-106115000D01*
X160826510Y-106127805D01*
X160659686Y-106178411D01*
X160505941Y-106260589D01*
X160404953Y-106343468D01*
X160404951Y-106343470D01*
X160371183Y-106371183D01*
X160343470Y-106404951D01*
X159754957Y-106993465D01*
X159698102Y-107004774D01*
X159509744Y-107082795D01*
X159340226Y-107196063D01*
X159196063Y-107340226D01*
X159082795Y-107509744D01*
X159004774Y-107698102D01*
X158965000Y-107898061D01*
X158965000Y-108101939D01*
X159004774Y-108301898D01*
X159082795Y-108490256D01*
X159196063Y-108659774D01*
X159340226Y-108803937D01*
X159509744Y-108917205D01*
X159698102Y-108995226D01*
X159898061Y-109035000D01*
X160101939Y-109035000D01*
X160301898Y-108995226D01*
X160490256Y-108917205D01*
X160659774Y-108803937D01*
X160803937Y-108659774D01*
X160917205Y-108490256D01*
X160995226Y-108301898D01*
X161006535Y-108245043D01*
X161315362Y-107936217D01*
X161351058Y-107965512D01*
X161502433Y-108046423D01*
X161666684Y-108096248D01*
X161837500Y-108113072D01*
X162412500Y-108113072D01*
X162583316Y-108096248D01*
X162747567Y-108046423D01*
X162898942Y-107965512D01*
X163000000Y-107882575D01*
X163101058Y-107965512D01*
X163252433Y-108046423D01*
X163416684Y-108096248D01*
X163587500Y-108113072D01*
X164162500Y-108113072D01*
X164333316Y-108096248D01*
X164497567Y-108046423D01*
X164648942Y-107965512D01*
X164747046Y-107885000D01*
X177296533Y-107885000D01*
X177340002Y-107889281D01*
X177383471Y-107885000D01*
X177383479Y-107885000D01*
X177513492Y-107872195D01*
X177680315Y-107821589D01*
X177834061Y-107739411D01*
X177968819Y-107628817D01*
X177996536Y-107595044D01*
X179066906Y-106524675D01*
X179118816Y-106535000D01*
X179421184Y-106535000D01*
X179717743Y-106476011D01*
X179997095Y-106360299D01*
X180248505Y-106192312D01*
X180462312Y-105978505D01*
X180630299Y-105727095D01*
X180746011Y-105447743D01*
X180805000Y-105151184D01*
X180805000Y-104848816D01*
X180746011Y-104552257D01*
X180630299Y-104272905D01*
X180514768Y-104100000D01*
X211191928Y-104100000D01*
X211191928Y-105900000D01*
X211204188Y-106024482D01*
X211240498Y-106144180D01*
X211299463Y-106254494D01*
X211378815Y-106351185D01*
X211475506Y-106430537D01*
X211585820Y-106489502D01*
X211705518Y-106525812D01*
X211830000Y-106538072D01*
X213016494Y-106538072D01*
X214073468Y-107595047D01*
X214101183Y-107628817D01*
X214134951Y-107656530D01*
X214134953Y-107656532D01*
X214175552Y-107689851D01*
X214235941Y-107739411D01*
X214389687Y-107821589D01*
X214556510Y-107872195D01*
X214686523Y-107885000D01*
X214686533Y-107885000D01*
X214729999Y-107889281D01*
X214773465Y-107885000D01*
X223956531Y-107885000D01*
X224000000Y-107889281D01*
X224043469Y-107885000D01*
X224043477Y-107885000D01*
X224173490Y-107872195D01*
X224340313Y-107821589D01*
X224494059Y-107739411D01*
X224628817Y-107628817D01*
X224656534Y-107595044D01*
X226366579Y-105885000D01*
X226377954Y-105885000D01*
X226476058Y-105965512D01*
X226627433Y-106046423D01*
X226791684Y-106096248D01*
X226962500Y-106113072D01*
X227464431Y-106113072D01*
X227340226Y-106196063D01*
X227196063Y-106340226D01*
X227082795Y-106509744D01*
X227004774Y-106698102D01*
X226965000Y-106898061D01*
X226965000Y-107101939D01*
X227004774Y-107301898D01*
X227082795Y-107490256D01*
X227196063Y-107659774D01*
X227340226Y-107803937D01*
X227509744Y-107917205D01*
X227698102Y-107995226D01*
X227898061Y-108035000D01*
X228101939Y-108035000D01*
X228301898Y-107995226D01*
X228490256Y-107917205D01*
X228659774Y-107803937D01*
X228803937Y-107659774D01*
X228917205Y-107490256D01*
X228995226Y-107301898D01*
X229006535Y-107245043D01*
X229595049Y-106656530D01*
X229628817Y-106628817D01*
X229739411Y-106494059D01*
X229787039Y-106404953D01*
X229821589Y-106340314D01*
X229872195Y-106173490D01*
X229875161Y-106143377D01*
X229885000Y-106043477D01*
X229885000Y-106043469D01*
X229889281Y-106000000D01*
X229885000Y-105956531D01*
X229885000Y-105874369D01*
X229906623Y-105856623D01*
X230015512Y-105723942D01*
X230096423Y-105572567D01*
X230146248Y-105408316D01*
X230163072Y-105237500D01*
X230163072Y-104762500D01*
X230146248Y-104591684D01*
X230096423Y-104427433D01*
X230015512Y-104276058D01*
X229906623Y-104143377D01*
X229773942Y-104034488D01*
X229622567Y-103953577D01*
X229458316Y-103903752D01*
X229287500Y-103886928D01*
X228712500Y-103886928D01*
X228541684Y-103903752D01*
X228377433Y-103953577D01*
X228226058Y-104034488D01*
X228125000Y-104117425D01*
X228023942Y-104034488D01*
X227872567Y-103953577D01*
X227708316Y-103903752D01*
X227537500Y-103886928D01*
X226962500Y-103886928D01*
X226791684Y-103903752D01*
X226627433Y-103953577D01*
X226476058Y-104034488D01*
X226377954Y-104115000D01*
X226043465Y-104115000D01*
X225999999Y-104110719D01*
X225956533Y-104115000D01*
X225956523Y-104115000D01*
X225826510Y-104127805D01*
X225659687Y-104178411D01*
X225505941Y-104260589D01*
X225505939Y-104260590D01*
X225505940Y-104260590D01*
X225404953Y-104343468D01*
X225404951Y-104343470D01*
X225371183Y-104371183D01*
X225343470Y-104404951D01*
X223633422Y-106115000D01*
X216137711Y-106115000D01*
X216154475Y-106064080D01*
X215270000Y-105179605D01*
X215255858Y-105193748D01*
X215076253Y-105014143D01*
X215090395Y-105000000D01*
X215449605Y-105000000D01*
X216334080Y-105884475D01*
X216588261Y-105800792D01*
X216719158Y-105528225D01*
X216794365Y-105235358D01*
X216810991Y-104933447D01*
X216768397Y-104634093D01*
X216668222Y-104348801D01*
X216588261Y-104199208D01*
X216334080Y-104115525D01*
X215449605Y-105000000D01*
X215090395Y-105000000D01*
X215076253Y-104985858D01*
X215255858Y-104806253D01*
X215270000Y-104820395D01*
X216154475Y-103935920D01*
X216070792Y-103681739D01*
X215798225Y-103550842D01*
X215505358Y-103475635D01*
X215203447Y-103459009D01*
X214904093Y-103501603D01*
X214618801Y-103601778D01*
X214469208Y-103681739D01*
X214385526Y-103935918D01*
X214269578Y-103819970D01*
X214222813Y-103866735D01*
X214219502Y-103855820D01*
X214160537Y-103745506D01*
X214081185Y-103648815D01*
X213984494Y-103569463D01*
X213874180Y-103510498D01*
X213754482Y-103474188D01*
X213630000Y-103461928D01*
X211830000Y-103461928D01*
X211705518Y-103474188D01*
X211585820Y-103510498D01*
X211475506Y-103569463D01*
X211378815Y-103648815D01*
X211299463Y-103745506D01*
X211240498Y-103855820D01*
X211204188Y-103975518D01*
X211191928Y-104100000D01*
X180514768Y-104100000D01*
X180462312Y-104021495D01*
X180248505Y-103807688D01*
X179997095Y-103639701D01*
X179717743Y-103523989D01*
X179421184Y-103465000D01*
X179118816Y-103465000D01*
X178822257Y-103523989D01*
X178542905Y-103639701D01*
X178291495Y-103807688D01*
X178225056Y-103874127D01*
X178219502Y-103855820D01*
X178160537Y-103745506D01*
X178081185Y-103648815D01*
X177984494Y-103569463D01*
X177874180Y-103510498D01*
X177754482Y-103474188D01*
X177630000Y-103461928D01*
X176443506Y-103461928D01*
X176386534Y-103404956D01*
X176358817Y-103371183D01*
X176224059Y-103260589D01*
X176070313Y-103178411D01*
X175903490Y-103127805D01*
X175773477Y-103115000D01*
X175773469Y-103115000D01*
X175730000Y-103110719D01*
X175686531Y-103115000D01*
X165859981Y-103115000D01*
X165804494Y-103069463D01*
X165694180Y-103010498D01*
X165574482Y-102974188D01*
X165450000Y-102961928D01*
X163550000Y-102961928D01*
X163425518Y-102974188D01*
X163305820Y-103010498D01*
X163195506Y-103069463D01*
X163098815Y-103148815D01*
X163088072Y-103161905D01*
X163088072Y-102650000D01*
X163075812Y-102525518D01*
X163039502Y-102405820D01*
X162980537Y-102295506D01*
X162901185Y-102198815D01*
X162804494Y-102119463D01*
X162694180Y-102060498D01*
X162574482Y-102024188D01*
X162450000Y-102011928D01*
X160550000Y-102011928D01*
X160425518Y-102024188D01*
X160305820Y-102060498D01*
X160195506Y-102119463D01*
X160140019Y-102165000D01*
X159416579Y-102165000D01*
X157136578Y-99885000D01*
X226633422Y-99885000D01*
X230393470Y-103645049D01*
X230421183Y-103678817D01*
X230454951Y-103706530D01*
X230454953Y-103706532D01*
X230495015Y-103739410D01*
X230555941Y-103789411D01*
X230709687Y-103871589D01*
X230815713Y-103903752D01*
X230876509Y-103922195D01*
X230891306Y-103923652D01*
X231006523Y-103935000D01*
X231006531Y-103935000D01*
X231050000Y-103939281D01*
X231093469Y-103935000D01*
X232140019Y-103935000D01*
X232195506Y-103980537D01*
X232231918Y-104000000D01*
X232195506Y-104019463D01*
X232098815Y-104098815D01*
X232019463Y-104195506D01*
X231960498Y-104305820D01*
X231924188Y-104425518D01*
X231911928Y-104550000D01*
X231915000Y-104664250D01*
X232073750Y-104823000D01*
X233373000Y-104823000D01*
X233373000Y-104803000D01*
X233627000Y-104803000D01*
X233627000Y-104823000D01*
X234926250Y-104823000D01*
X235010857Y-104738393D01*
X235019463Y-104754494D01*
X235098815Y-104851185D01*
X235195506Y-104930537D01*
X235305820Y-104989502D01*
X235425518Y-105025812D01*
X235550000Y-105038072D01*
X237450000Y-105038072D01*
X237574482Y-105025812D01*
X237694180Y-104989502D01*
X237804494Y-104930537D01*
X237859981Y-104885000D01*
X247191928Y-104885000D01*
X247191928Y-105900000D01*
X247204188Y-106024482D01*
X247231646Y-106115000D01*
X236747046Y-106115000D01*
X236648942Y-106034488D01*
X236497567Y-105953577D01*
X236333316Y-105903752D01*
X236162500Y-105886928D01*
X235587500Y-105886928D01*
X235416684Y-105903752D01*
X235252433Y-105953577D01*
X235101058Y-106034488D01*
X235000000Y-106117425D01*
X234898942Y-106034488D01*
X234747567Y-105953577D01*
X234696710Y-105938150D01*
X234804494Y-105880537D01*
X234901185Y-105801185D01*
X234980537Y-105704494D01*
X235039502Y-105594180D01*
X235075812Y-105474482D01*
X235088072Y-105350000D01*
X235085000Y-105235750D01*
X234926250Y-105077000D01*
X233627000Y-105077000D01*
X233627000Y-105097000D01*
X233373000Y-105097000D01*
X233373000Y-105077000D01*
X232073750Y-105077000D01*
X231915000Y-105235750D01*
X231911928Y-105350000D01*
X231924188Y-105474482D01*
X231960498Y-105594180D01*
X232019463Y-105704494D01*
X232098815Y-105801185D01*
X232195506Y-105880537D01*
X232305820Y-105939502D01*
X232425518Y-105975812D01*
X232550000Y-105988072D01*
X233214250Y-105985000D01*
X233372998Y-105826252D01*
X233372998Y-105985000D01*
X233443644Y-105985000D01*
X233351058Y-106034488D01*
X233252954Y-106115000D01*
X233043469Y-106115000D01*
X233000000Y-106110719D01*
X232956531Y-106115000D01*
X232956523Y-106115000D01*
X232826510Y-106127805D01*
X232659686Y-106178411D01*
X232505941Y-106260589D01*
X232404953Y-106343468D01*
X232404951Y-106343470D01*
X232371183Y-106371183D01*
X232343470Y-106404951D01*
X231754957Y-106993465D01*
X231698102Y-107004774D01*
X231509744Y-107082795D01*
X231340226Y-107196063D01*
X231196063Y-107340226D01*
X231082795Y-107509744D01*
X231004774Y-107698102D01*
X230965000Y-107898061D01*
X230965000Y-108101939D01*
X231004774Y-108301898D01*
X231082795Y-108490256D01*
X231196063Y-108659774D01*
X231340226Y-108803937D01*
X231509744Y-108917205D01*
X231698102Y-108995226D01*
X231898061Y-109035000D01*
X232101939Y-109035000D01*
X232301898Y-108995226D01*
X232490256Y-108917205D01*
X232659774Y-108803937D01*
X232803937Y-108659774D01*
X232917205Y-108490256D01*
X232995226Y-108301898D01*
X233006535Y-108245043D01*
X233315362Y-107936217D01*
X233351058Y-107965512D01*
X233502433Y-108046423D01*
X233666684Y-108096248D01*
X233837500Y-108113072D01*
X234412500Y-108113072D01*
X234583316Y-108096248D01*
X234747567Y-108046423D01*
X234898942Y-107965512D01*
X235000000Y-107882575D01*
X235101058Y-107965512D01*
X235252433Y-108046423D01*
X235416684Y-108096248D01*
X235587500Y-108113072D01*
X236162500Y-108113072D01*
X236333316Y-108096248D01*
X236497567Y-108046423D01*
X236648942Y-107965512D01*
X236747046Y-107885000D01*
X249296533Y-107885000D01*
X249340002Y-107889281D01*
X249383471Y-107885000D01*
X249383479Y-107885000D01*
X249513492Y-107872195D01*
X249680315Y-107821589D01*
X249834061Y-107739411D01*
X249968819Y-107628817D01*
X249996536Y-107595044D01*
X251066906Y-106524675D01*
X251118816Y-106535000D01*
X251421184Y-106535000D01*
X251717743Y-106476011D01*
X251997095Y-106360299D01*
X252248505Y-106192312D01*
X252462312Y-105978505D01*
X252630299Y-105727095D01*
X252746011Y-105447743D01*
X252805000Y-105151184D01*
X252805000Y-104848816D01*
X252746011Y-104552257D01*
X252630299Y-104272905D01*
X252462312Y-104021495D01*
X252248505Y-103807688D01*
X251997095Y-103639701D01*
X251717743Y-103523989D01*
X251421184Y-103465000D01*
X251118816Y-103465000D01*
X250822257Y-103523989D01*
X250542905Y-103639701D01*
X250291495Y-103807688D01*
X250225056Y-103874127D01*
X250219502Y-103855820D01*
X250160537Y-103745506D01*
X250081185Y-103648815D01*
X249984494Y-103569463D01*
X249874180Y-103510498D01*
X249754482Y-103474188D01*
X249630000Y-103461928D01*
X248443506Y-103461928D01*
X248386534Y-103404956D01*
X248358817Y-103371183D01*
X248224059Y-103260589D01*
X248070313Y-103178411D01*
X247903490Y-103127805D01*
X247773477Y-103115000D01*
X247773469Y-103115000D01*
X247730000Y-103110719D01*
X247686531Y-103115000D01*
X237859981Y-103115000D01*
X237804494Y-103069463D01*
X237694180Y-103010498D01*
X237574482Y-102974188D01*
X237450000Y-102961928D01*
X235550000Y-102961928D01*
X235425518Y-102974188D01*
X235305820Y-103010498D01*
X235195506Y-103069463D01*
X235098815Y-103148815D01*
X235088072Y-103161905D01*
X235088072Y-102650000D01*
X235075812Y-102525518D01*
X235039502Y-102405820D01*
X234980537Y-102295506D01*
X234901185Y-102198815D01*
X234804494Y-102119463D01*
X234694180Y-102060498D01*
X234574482Y-102024188D01*
X234450000Y-102011928D01*
X232550000Y-102011928D01*
X232425518Y-102024188D01*
X232305820Y-102060498D01*
X232195506Y-102119463D01*
X232140019Y-102165000D01*
X231416579Y-102165000D01*
X227961578Y-98710000D01*
X253705909Y-98710000D01*
X255290001Y-100294093D01*
X255290000Y-127705908D01*
X244705909Y-138290000D01*
X67294091Y-138290000D01*
X49902152Y-120898061D01*
X50965000Y-120898061D01*
X50965000Y-121101939D01*
X51004774Y-121301898D01*
X51082795Y-121490256D01*
X51196063Y-121659774D01*
X51340226Y-121803937D01*
X51509744Y-121917205D01*
X51698102Y-121995226D01*
X51754957Y-122006535D01*
X52404953Y-122656532D01*
X52404959Y-122656537D01*
X66943470Y-137195049D01*
X66971183Y-137228817D01*
X67004951Y-137256530D01*
X67004953Y-137256532D01*
X67076452Y-137315210D01*
X67105941Y-137339411D01*
X67259687Y-137421589D01*
X67426510Y-137472195D01*
X67556523Y-137485000D01*
X67556533Y-137485000D01*
X67599999Y-137489281D01*
X67643466Y-137485000D01*
X76294499Y-137485000D01*
X76348815Y-137551185D01*
X76445506Y-137630537D01*
X76555820Y-137689502D01*
X76675518Y-137725812D01*
X76800000Y-137738072D01*
X78300000Y-137738072D01*
X78424482Y-137725812D01*
X78544180Y-137689502D01*
X78654494Y-137630537D01*
X78751185Y-137551185D01*
X78830537Y-137454494D01*
X78889502Y-137344180D01*
X78925812Y-137224482D01*
X78938072Y-137100000D01*
X81061928Y-137100000D01*
X81074188Y-137224482D01*
X81110498Y-137344180D01*
X81169463Y-137454494D01*
X81248815Y-137551185D01*
X81345506Y-137630537D01*
X81455820Y-137689502D01*
X81575518Y-137725812D01*
X81700000Y-137738072D01*
X82164250Y-137735000D01*
X82323000Y-137576250D01*
X82323000Y-136727000D01*
X82577000Y-136727000D01*
X82577000Y-137576250D01*
X82735750Y-137735000D01*
X83200000Y-137738072D01*
X83324482Y-137725812D01*
X83444180Y-137689502D01*
X83554494Y-137630537D01*
X83651185Y-137551185D01*
X83730537Y-137454494D01*
X83789502Y-137344180D01*
X83825812Y-137224482D01*
X83838072Y-137100000D01*
X83835000Y-136885750D01*
X83676250Y-136727000D01*
X82577000Y-136727000D01*
X82323000Y-136727000D01*
X81223750Y-136727000D01*
X81065000Y-136885750D01*
X81061928Y-137100000D01*
X78938072Y-137100000D01*
X78938072Y-136100000D01*
X81061928Y-136100000D01*
X81065000Y-136314250D01*
X81223750Y-136473000D01*
X82323000Y-136473000D01*
X82323000Y-135623750D01*
X82164250Y-135465000D01*
X81700000Y-135461928D01*
X81575518Y-135474188D01*
X81455820Y-135510498D01*
X81345506Y-135569463D01*
X81248815Y-135648815D01*
X81169463Y-135745506D01*
X81110498Y-135855820D01*
X81074188Y-135975518D01*
X81061928Y-136100000D01*
X78938072Y-136100000D01*
X78925812Y-135975518D01*
X78889502Y-135855820D01*
X78830537Y-135745506D01*
X78751185Y-135648815D01*
X78654494Y-135569463D01*
X78544180Y-135510498D01*
X78424482Y-135474188D01*
X78300000Y-135461928D01*
X76800000Y-135461928D01*
X76675518Y-135474188D01*
X76555820Y-135510498D01*
X76445506Y-135569463D01*
X76348815Y-135648815D01*
X76294499Y-135715000D01*
X67966579Y-135715000D01*
X67251579Y-135000000D01*
X72886928Y-135000000D01*
X72899188Y-135124482D01*
X72935498Y-135244180D01*
X72994463Y-135354494D01*
X73073815Y-135451185D01*
X73170506Y-135530537D01*
X73280820Y-135589502D01*
X73400518Y-135625812D01*
X73525000Y-135638072D01*
X73714250Y-135635000D01*
X73873000Y-135476250D01*
X73873000Y-134677000D01*
X74127000Y-134677000D01*
X74127000Y-135476250D01*
X74285750Y-135635000D01*
X74475000Y-135638072D01*
X74599482Y-135625812D01*
X74719180Y-135589502D01*
X74829494Y-135530537D01*
X74926185Y-135451185D01*
X75005537Y-135354494D01*
X75064502Y-135244180D01*
X75100812Y-135124482D01*
X75113072Y-135000000D01*
X75110000Y-134835750D01*
X74951250Y-134677000D01*
X74127000Y-134677000D01*
X73873000Y-134677000D01*
X73048750Y-134677000D01*
X72890000Y-134835750D01*
X72886928Y-135000000D01*
X67251579Y-135000000D01*
X65136579Y-132885000D01*
X72633422Y-132885000D01*
X72886928Y-133138507D01*
X72886928Y-133225000D01*
X72903512Y-133393377D01*
X72952625Y-133555283D01*
X73030700Y-133701351D01*
X72994463Y-133745506D01*
X72935498Y-133855820D01*
X72899188Y-133975518D01*
X72886928Y-134100000D01*
X72890000Y-134264250D01*
X73048750Y-134423000D01*
X73873000Y-134423000D01*
X73873000Y-134403000D01*
X74127000Y-134403000D01*
X74127000Y-134423000D01*
X74951250Y-134423000D01*
X75110000Y-134264250D01*
X75113072Y-134100000D01*
X75100812Y-133975518D01*
X75073354Y-133885000D01*
X76161928Y-133885000D01*
X76161928Y-133900000D01*
X76174188Y-134024482D01*
X76210498Y-134144180D01*
X76269463Y-134254494D01*
X76348815Y-134351185D01*
X76445506Y-134430537D01*
X76555820Y-134489502D01*
X76675518Y-134525812D01*
X76800000Y-134538072D01*
X78300000Y-134538072D01*
X78424482Y-134525812D01*
X78544180Y-134489502D01*
X78654494Y-134430537D01*
X78751185Y-134351185D01*
X78830537Y-134254494D01*
X78889502Y-134144180D01*
X78925812Y-134024482D01*
X78938072Y-133900000D01*
X78938072Y-132900000D01*
X78936595Y-132885000D01*
X81063405Y-132885000D01*
X81061928Y-132900000D01*
X81061928Y-133900000D01*
X81074188Y-134024482D01*
X81110498Y-134144180D01*
X81169463Y-134254494D01*
X81248815Y-134351185D01*
X81345506Y-134430537D01*
X81455820Y-134489502D01*
X81575518Y-134525812D01*
X81700000Y-134538072D01*
X82286494Y-134538072D01*
X83211480Y-135463059D01*
X83200000Y-135461928D01*
X82735750Y-135465000D01*
X82577000Y-135623750D01*
X82577000Y-136473000D01*
X83676250Y-136473000D01*
X83835000Y-136314250D01*
X83838072Y-136100000D01*
X83836941Y-136088520D01*
X83843470Y-136095049D01*
X83871183Y-136128817D01*
X83904951Y-136156530D01*
X83904953Y-136156532D01*
X83969724Y-136209688D01*
X84005941Y-136239411D01*
X84159687Y-136321589D01*
X84326510Y-136372195D01*
X84456523Y-136385000D01*
X84456531Y-136385000D01*
X84500000Y-136389281D01*
X84543469Y-136385000D01*
X96161928Y-136385000D01*
X96161928Y-137100000D01*
X96174188Y-137224482D01*
X96210498Y-137344180D01*
X96269463Y-137454494D01*
X96348815Y-137551185D01*
X96445506Y-137630537D01*
X96555820Y-137689502D01*
X96675518Y-137725812D01*
X96800000Y-137738072D01*
X98300000Y-137738072D01*
X98424482Y-137725812D01*
X98544180Y-137689502D01*
X98654494Y-137630537D01*
X98751185Y-137551185D01*
X98830537Y-137454494D01*
X98889502Y-137344180D01*
X98925812Y-137224482D01*
X98938072Y-137100000D01*
X101061928Y-137100000D01*
X101074188Y-137224482D01*
X101110498Y-137344180D01*
X101169463Y-137454494D01*
X101248815Y-137551185D01*
X101345506Y-137630537D01*
X101455820Y-137689502D01*
X101575518Y-137725812D01*
X101700000Y-137738072D01*
X102164250Y-137735000D01*
X102323000Y-137576250D01*
X102323000Y-136727000D01*
X102577000Y-136727000D01*
X102577000Y-137576250D01*
X102735750Y-137735000D01*
X103200000Y-137738072D01*
X103324482Y-137725812D01*
X103444180Y-137689502D01*
X103554494Y-137630537D01*
X103651185Y-137551185D01*
X103730537Y-137454494D01*
X103789502Y-137344180D01*
X103825812Y-137224482D01*
X103838072Y-137100000D01*
X103835000Y-136885750D01*
X103676250Y-136727000D01*
X102577000Y-136727000D01*
X102323000Y-136727000D01*
X101223750Y-136727000D01*
X101065000Y-136885750D01*
X101061928Y-137100000D01*
X98938072Y-137100000D01*
X98938072Y-136385000D01*
X101135750Y-136385000D01*
X101223750Y-136473000D01*
X102323000Y-136473000D01*
X102323000Y-136453000D01*
X102577000Y-136453000D01*
X102577000Y-136473000D01*
X103676250Y-136473000D01*
X103764250Y-136385000D01*
X104506533Y-136385000D01*
X104549999Y-136389281D01*
X104593465Y-136385000D01*
X116161928Y-136385000D01*
X116161928Y-137100000D01*
X116174188Y-137224482D01*
X116210498Y-137344180D01*
X116269463Y-137454494D01*
X116348815Y-137551185D01*
X116445506Y-137630537D01*
X116555820Y-137689502D01*
X116675518Y-137725812D01*
X116800000Y-137738072D01*
X118300000Y-137738072D01*
X118424482Y-137725812D01*
X118544180Y-137689502D01*
X118654494Y-137630537D01*
X118751185Y-137551185D01*
X118830537Y-137454494D01*
X118889502Y-137344180D01*
X118925812Y-137224482D01*
X118938072Y-137100000D01*
X121061928Y-137100000D01*
X121074188Y-137224482D01*
X121110498Y-137344180D01*
X121169463Y-137454494D01*
X121248815Y-137551185D01*
X121345506Y-137630537D01*
X121455820Y-137689502D01*
X121575518Y-137725812D01*
X121700000Y-137738072D01*
X122164250Y-137735000D01*
X122323000Y-137576250D01*
X122323000Y-136727000D01*
X122577000Y-136727000D01*
X122577000Y-137576250D01*
X122735750Y-137735000D01*
X123200000Y-137738072D01*
X123324482Y-137725812D01*
X123444180Y-137689502D01*
X123554494Y-137630537D01*
X123651185Y-137551185D01*
X123730537Y-137454494D01*
X123789502Y-137344180D01*
X123825812Y-137224482D01*
X123838072Y-137100000D01*
X123835000Y-136885750D01*
X123676250Y-136727000D01*
X122577000Y-136727000D01*
X122323000Y-136727000D01*
X121223750Y-136727000D01*
X121065000Y-136885750D01*
X121061928Y-137100000D01*
X118938072Y-137100000D01*
X118938072Y-136385000D01*
X121135750Y-136385000D01*
X121223750Y-136473000D01*
X122323000Y-136473000D01*
X122323000Y-136453000D01*
X122577000Y-136453000D01*
X122577000Y-136473000D01*
X123676250Y-136473000D01*
X123764250Y-136385000D01*
X124506533Y-136385000D01*
X124549999Y-136389281D01*
X124593465Y-136385000D01*
X136083422Y-136385000D01*
X136161928Y-136463506D01*
X136161928Y-137100000D01*
X136174188Y-137224482D01*
X136210498Y-137344180D01*
X136269463Y-137454494D01*
X136348815Y-137551185D01*
X136445506Y-137630537D01*
X136555820Y-137689502D01*
X136675518Y-137725812D01*
X136800000Y-137738072D01*
X138300000Y-137738072D01*
X138424482Y-137725812D01*
X138544180Y-137689502D01*
X138654494Y-137630537D01*
X138751185Y-137551185D01*
X138830537Y-137454494D01*
X138889502Y-137344180D01*
X138925812Y-137224482D01*
X138938072Y-137100000D01*
X141061928Y-137100000D01*
X141074188Y-137224482D01*
X141110498Y-137344180D01*
X141169463Y-137454494D01*
X141248815Y-137551185D01*
X141345506Y-137630537D01*
X141455820Y-137689502D01*
X141575518Y-137725812D01*
X141700000Y-137738072D01*
X142164250Y-137735000D01*
X142323000Y-137576250D01*
X142323000Y-136727000D01*
X142577000Y-136727000D01*
X142577000Y-137576250D01*
X142735750Y-137735000D01*
X143200000Y-137738072D01*
X143324482Y-137725812D01*
X143444180Y-137689502D01*
X143554494Y-137630537D01*
X143651185Y-137551185D01*
X143730537Y-137454494D01*
X143789502Y-137344180D01*
X143825812Y-137224482D01*
X143838072Y-137100000D01*
X143835000Y-136885750D01*
X143676250Y-136727000D01*
X142577000Y-136727000D01*
X142323000Y-136727000D01*
X141223750Y-136727000D01*
X141065000Y-136885750D01*
X141061928Y-137100000D01*
X138938072Y-137100000D01*
X138938072Y-136100000D01*
X141061928Y-136100000D01*
X141065000Y-136314250D01*
X141223750Y-136473000D01*
X142323000Y-136473000D01*
X142323000Y-135623750D01*
X142164250Y-135465000D01*
X141700000Y-135461928D01*
X141575518Y-135474188D01*
X141455820Y-135510498D01*
X141345506Y-135569463D01*
X141248815Y-135648815D01*
X141169463Y-135745506D01*
X141110498Y-135855820D01*
X141074188Y-135975518D01*
X141061928Y-136100000D01*
X138938072Y-136100000D01*
X138925812Y-135975518D01*
X138889502Y-135855820D01*
X138830537Y-135745506D01*
X138751185Y-135648815D01*
X138654494Y-135569463D01*
X138544180Y-135510498D01*
X138424482Y-135474188D01*
X138300000Y-135461928D01*
X137663507Y-135461928D01*
X137106532Y-134904954D01*
X137078817Y-134871183D01*
X136944059Y-134760589D01*
X136790313Y-134678411D01*
X136623490Y-134627805D01*
X136493477Y-134615000D01*
X136493469Y-134615000D01*
X136450000Y-134610719D01*
X136406531Y-134615000D01*
X124916579Y-134615000D01*
X123838072Y-133536494D01*
X123838072Y-132900000D01*
X123836595Y-132885000D01*
X132633422Y-132885000D01*
X132886928Y-133138507D01*
X132886928Y-133225000D01*
X132903512Y-133393377D01*
X132952625Y-133555283D01*
X133030700Y-133701351D01*
X132994463Y-133745506D01*
X132935498Y-133855820D01*
X132899188Y-133975518D01*
X132886928Y-134100000D01*
X132890000Y-134264250D01*
X133048750Y-134423000D01*
X133873000Y-134423000D01*
X133873000Y-134403000D01*
X134127000Y-134403000D01*
X134127000Y-134423000D01*
X134951250Y-134423000D01*
X135110000Y-134264250D01*
X135113072Y-134100000D01*
X135100812Y-133975518D01*
X135073354Y-133885000D01*
X136161928Y-133885000D01*
X136161928Y-133900000D01*
X136174188Y-134024482D01*
X136210498Y-134144180D01*
X136269463Y-134254494D01*
X136348815Y-134351185D01*
X136445506Y-134430537D01*
X136555820Y-134489502D01*
X136675518Y-134525812D01*
X136800000Y-134538072D01*
X138300000Y-134538072D01*
X138424482Y-134525812D01*
X138544180Y-134489502D01*
X138654494Y-134430537D01*
X138751185Y-134351185D01*
X138830537Y-134254494D01*
X138889502Y-134144180D01*
X138925812Y-134024482D01*
X138938072Y-133900000D01*
X138938072Y-132900000D01*
X138936595Y-132885000D01*
X141063405Y-132885000D01*
X141061928Y-132900000D01*
X141061928Y-133900000D01*
X141074188Y-134024482D01*
X141110498Y-134144180D01*
X141169463Y-134254494D01*
X141248815Y-134351185D01*
X141345506Y-134430537D01*
X141455820Y-134489502D01*
X141575518Y-134525812D01*
X141700000Y-134538072D01*
X142336494Y-134538072D01*
X142829363Y-135030941D01*
X143266942Y-135468521D01*
X143200000Y-135461928D01*
X142735750Y-135465000D01*
X142577000Y-135623750D01*
X142577000Y-136473000D01*
X143676250Y-136473000D01*
X143835000Y-136314250D01*
X143838072Y-136100000D01*
X143831479Y-136033058D01*
X143918470Y-136120049D01*
X143946183Y-136153817D01*
X143979951Y-136181530D01*
X143979953Y-136181532D01*
X144014260Y-136209687D01*
X144080941Y-136264411D01*
X144234687Y-136346589D01*
X144401510Y-136397195D01*
X144531523Y-136410000D01*
X144531531Y-136410000D01*
X144575000Y-136414281D01*
X144618469Y-136410000D01*
X156161928Y-136410000D01*
X156161928Y-137100000D01*
X156174188Y-137224482D01*
X156210498Y-137344180D01*
X156269463Y-137454494D01*
X156348815Y-137551185D01*
X156445506Y-137630537D01*
X156555820Y-137689502D01*
X156675518Y-137725812D01*
X156800000Y-137738072D01*
X158300000Y-137738072D01*
X158424482Y-137725812D01*
X158544180Y-137689502D01*
X158654494Y-137630537D01*
X158751185Y-137551185D01*
X158830537Y-137454494D01*
X158889502Y-137344180D01*
X158925812Y-137224482D01*
X158938072Y-137100000D01*
X161061928Y-137100000D01*
X161074188Y-137224482D01*
X161110498Y-137344180D01*
X161169463Y-137454494D01*
X161248815Y-137551185D01*
X161345506Y-137630537D01*
X161455820Y-137689502D01*
X161575518Y-137725812D01*
X161700000Y-137738072D01*
X162164250Y-137735000D01*
X162323000Y-137576250D01*
X162323000Y-136727000D01*
X162577000Y-136727000D01*
X162577000Y-137576250D01*
X162735750Y-137735000D01*
X163200000Y-137738072D01*
X163324482Y-137725812D01*
X163444180Y-137689502D01*
X163554494Y-137630537D01*
X163651185Y-137551185D01*
X163730537Y-137454494D01*
X163789502Y-137344180D01*
X163825812Y-137224482D01*
X163838072Y-137100000D01*
X163835000Y-136885750D01*
X163676250Y-136727000D01*
X162577000Y-136727000D01*
X162323000Y-136727000D01*
X161223750Y-136727000D01*
X161065000Y-136885750D01*
X161061928Y-137100000D01*
X158938072Y-137100000D01*
X158938072Y-136410000D01*
X161160750Y-136410000D01*
X161223750Y-136473000D01*
X162323000Y-136473000D01*
X162323000Y-136453000D01*
X162577000Y-136453000D01*
X162577000Y-136473000D01*
X163676250Y-136473000D01*
X163739250Y-136410000D01*
X164531533Y-136410000D01*
X164574999Y-136414281D01*
X164618465Y-136410000D01*
X176161928Y-136410000D01*
X176161928Y-137100000D01*
X176174188Y-137224482D01*
X176210498Y-137344180D01*
X176269463Y-137454494D01*
X176348815Y-137551185D01*
X176445506Y-137630537D01*
X176555820Y-137689502D01*
X176675518Y-137725812D01*
X176800000Y-137738072D01*
X178300000Y-137738072D01*
X178424482Y-137725812D01*
X178544180Y-137689502D01*
X178654494Y-137630537D01*
X178751185Y-137551185D01*
X178830537Y-137454494D01*
X178889502Y-137344180D01*
X178925812Y-137224482D01*
X178938072Y-137100000D01*
X181061928Y-137100000D01*
X181074188Y-137224482D01*
X181110498Y-137344180D01*
X181169463Y-137454494D01*
X181248815Y-137551185D01*
X181345506Y-137630537D01*
X181455820Y-137689502D01*
X181575518Y-137725812D01*
X181700000Y-137738072D01*
X182164250Y-137735000D01*
X182323000Y-137576250D01*
X182323000Y-136727000D01*
X182577000Y-136727000D01*
X182577000Y-137576250D01*
X182735750Y-137735000D01*
X183200000Y-137738072D01*
X183324482Y-137725812D01*
X183444180Y-137689502D01*
X183554494Y-137630537D01*
X183651185Y-137551185D01*
X183730537Y-137454494D01*
X183789502Y-137344180D01*
X183825812Y-137224482D01*
X183838072Y-137100000D01*
X183835000Y-136885750D01*
X183676250Y-136727000D01*
X182577000Y-136727000D01*
X182323000Y-136727000D01*
X181223750Y-136727000D01*
X181065000Y-136885750D01*
X181061928Y-137100000D01*
X178938072Y-137100000D01*
X178938072Y-136410000D01*
X181160750Y-136410000D01*
X181223750Y-136473000D01*
X182323000Y-136473000D01*
X182323000Y-136453000D01*
X182577000Y-136453000D01*
X182577000Y-136473000D01*
X183676250Y-136473000D01*
X183739250Y-136410000D01*
X184531533Y-136410000D01*
X184574999Y-136414281D01*
X184618465Y-136410000D01*
X196108422Y-136410000D01*
X196161928Y-136463506D01*
X196161928Y-137100000D01*
X196174188Y-137224482D01*
X196210498Y-137344180D01*
X196269463Y-137454494D01*
X196348815Y-137551185D01*
X196445506Y-137630537D01*
X196555820Y-137689502D01*
X196675518Y-137725812D01*
X196800000Y-137738072D01*
X198300000Y-137738072D01*
X198424482Y-137725812D01*
X198544180Y-137689502D01*
X198654494Y-137630537D01*
X198751185Y-137551185D01*
X198830537Y-137454494D01*
X198889502Y-137344180D01*
X198925812Y-137224482D01*
X198938072Y-137100000D01*
X201061928Y-137100000D01*
X201074188Y-137224482D01*
X201110498Y-137344180D01*
X201169463Y-137454494D01*
X201248815Y-137551185D01*
X201345506Y-137630537D01*
X201455820Y-137689502D01*
X201575518Y-137725812D01*
X201700000Y-137738072D01*
X202164250Y-137735000D01*
X202323000Y-137576250D01*
X202323000Y-136727000D01*
X202577000Y-136727000D01*
X202577000Y-137576250D01*
X202735750Y-137735000D01*
X203200000Y-137738072D01*
X203324482Y-137725812D01*
X203444180Y-137689502D01*
X203554494Y-137630537D01*
X203651185Y-137551185D01*
X203730537Y-137454494D01*
X203789502Y-137344180D01*
X203825812Y-137224482D01*
X203838072Y-137100000D01*
X203835000Y-136885750D01*
X203676250Y-136727000D01*
X202577000Y-136727000D01*
X202323000Y-136727000D01*
X201223750Y-136727000D01*
X201065000Y-136885750D01*
X201061928Y-137100000D01*
X198938072Y-137100000D01*
X198938072Y-136100000D01*
X201061928Y-136100000D01*
X201065000Y-136314250D01*
X201223750Y-136473000D01*
X202323000Y-136473000D01*
X202323000Y-135623750D01*
X202164250Y-135465000D01*
X201700000Y-135461928D01*
X201575518Y-135474188D01*
X201455820Y-135510498D01*
X201345506Y-135569463D01*
X201248815Y-135648815D01*
X201169463Y-135745506D01*
X201110498Y-135855820D01*
X201074188Y-135975518D01*
X201061928Y-136100000D01*
X198938072Y-136100000D01*
X198925812Y-135975518D01*
X198889502Y-135855820D01*
X198830537Y-135745506D01*
X198751185Y-135648815D01*
X198654494Y-135569463D01*
X198544180Y-135510498D01*
X198424482Y-135474188D01*
X198300000Y-135461928D01*
X197663507Y-135461928D01*
X197131532Y-134929954D01*
X197103817Y-134896183D01*
X196969059Y-134785589D01*
X196815313Y-134703411D01*
X196648490Y-134652805D01*
X196518477Y-134640000D01*
X196518469Y-134640000D01*
X196475000Y-134635719D01*
X196431531Y-134640000D01*
X184941578Y-134640000D01*
X184706537Y-134404959D01*
X184706532Y-134404953D01*
X183838072Y-133536494D01*
X183838072Y-132900000D01*
X183836595Y-132885000D01*
X192633422Y-132885000D01*
X192886928Y-133138507D01*
X192886928Y-133225000D01*
X192903512Y-133393377D01*
X192952625Y-133555283D01*
X193030700Y-133701351D01*
X192994463Y-133745506D01*
X192935498Y-133855820D01*
X192899188Y-133975518D01*
X192886928Y-134100000D01*
X192890000Y-134264250D01*
X193048750Y-134423000D01*
X193873000Y-134423000D01*
X193873000Y-134403000D01*
X194127000Y-134403000D01*
X194127000Y-134423000D01*
X194951250Y-134423000D01*
X195110000Y-134264250D01*
X195113072Y-134100000D01*
X195100812Y-133975518D01*
X195073354Y-133885000D01*
X196161928Y-133885000D01*
X196161928Y-133900000D01*
X196174188Y-134024482D01*
X196210498Y-134144180D01*
X196269463Y-134254494D01*
X196348815Y-134351185D01*
X196445506Y-134430537D01*
X196555820Y-134489502D01*
X196675518Y-134525812D01*
X196800000Y-134538072D01*
X198300000Y-134538072D01*
X198424482Y-134525812D01*
X198544180Y-134489502D01*
X198654494Y-134430537D01*
X198751185Y-134351185D01*
X198830537Y-134254494D01*
X198889502Y-134144180D01*
X198925812Y-134024482D01*
X198938072Y-133900000D01*
X198938072Y-132900000D01*
X198936595Y-132885000D01*
X201063405Y-132885000D01*
X201061928Y-132900000D01*
X201061928Y-133900000D01*
X201074188Y-134024482D01*
X201110498Y-134144180D01*
X201169463Y-134254494D01*
X201248815Y-134351185D01*
X201345506Y-134430537D01*
X201455820Y-134489502D01*
X201575518Y-134525812D01*
X201700000Y-134538072D01*
X202336494Y-134538072D01*
X203266942Y-135468521D01*
X203200000Y-135461928D01*
X202735750Y-135465000D01*
X202577000Y-135623750D01*
X202577000Y-136473000D01*
X203676250Y-136473000D01*
X203835000Y-136314250D01*
X203838072Y-136100000D01*
X203831479Y-136033058D01*
X203893470Y-136095049D01*
X203921183Y-136128817D01*
X203954951Y-136156530D01*
X203954953Y-136156532D01*
X204019724Y-136209688D01*
X204055941Y-136239411D01*
X204209687Y-136321589D01*
X204376510Y-136372195D01*
X204506523Y-136385000D01*
X204506533Y-136385000D01*
X204549999Y-136389281D01*
X204593465Y-136385000D01*
X216161928Y-136385000D01*
X216161928Y-137100000D01*
X216174188Y-137224482D01*
X216210498Y-137344180D01*
X216269463Y-137454494D01*
X216348815Y-137551185D01*
X216445506Y-137630537D01*
X216555820Y-137689502D01*
X216675518Y-137725812D01*
X216800000Y-137738072D01*
X218300000Y-137738072D01*
X218424482Y-137725812D01*
X218544180Y-137689502D01*
X218654494Y-137630537D01*
X218751185Y-137551185D01*
X218830537Y-137454494D01*
X218889502Y-137344180D01*
X218925812Y-137224482D01*
X218938072Y-137100000D01*
X221061928Y-137100000D01*
X221074188Y-137224482D01*
X221110498Y-137344180D01*
X221169463Y-137454494D01*
X221248815Y-137551185D01*
X221345506Y-137630537D01*
X221455820Y-137689502D01*
X221575518Y-137725812D01*
X221700000Y-137738072D01*
X222164250Y-137735000D01*
X222323000Y-137576250D01*
X222323000Y-136727000D01*
X222577000Y-136727000D01*
X222577000Y-137576250D01*
X222735750Y-137735000D01*
X223200000Y-137738072D01*
X223324482Y-137725812D01*
X223444180Y-137689502D01*
X223554494Y-137630537D01*
X223651185Y-137551185D01*
X223730537Y-137454494D01*
X223789502Y-137344180D01*
X223825812Y-137224482D01*
X223838072Y-137100000D01*
X223835000Y-136885750D01*
X223676250Y-136727000D01*
X222577000Y-136727000D01*
X222323000Y-136727000D01*
X221223750Y-136727000D01*
X221065000Y-136885750D01*
X221061928Y-137100000D01*
X218938072Y-137100000D01*
X218938072Y-136385000D01*
X221135750Y-136385000D01*
X221223750Y-136473000D01*
X222323000Y-136473000D01*
X222323000Y-136453000D01*
X222577000Y-136453000D01*
X222577000Y-136473000D01*
X223676250Y-136473000D01*
X223764250Y-136385000D01*
X224506533Y-136385000D01*
X224549999Y-136389281D01*
X224593465Y-136385000D01*
X236161928Y-136385000D01*
X236161928Y-137100000D01*
X236174188Y-137224482D01*
X236210498Y-137344180D01*
X236269463Y-137454494D01*
X236348815Y-137551185D01*
X236445506Y-137630537D01*
X236555820Y-137689502D01*
X236675518Y-137725812D01*
X236800000Y-137738072D01*
X238300000Y-137738072D01*
X238424482Y-137725812D01*
X238544180Y-137689502D01*
X238654494Y-137630537D01*
X238751185Y-137551185D01*
X238830537Y-137454494D01*
X238889502Y-137344180D01*
X238925812Y-137224482D01*
X238938072Y-137100000D01*
X241061928Y-137100000D01*
X241074188Y-137224482D01*
X241110498Y-137344180D01*
X241169463Y-137454494D01*
X241248815Y-137551185D01*
X241345506Y-137630537D01*
X241455820Y-137689502D01*
X241575518Y-137725812D01*
X241700000Y-137738072D01*
X242164250Y-137735000D01*
X242323000Y-137576250D01*
X242323000Y-136727000D01*
X242577000Y-136727000D01*
X242577000Y-137576250D01*
X242735750Y-137735000D01*
X243200000Y-137738072D01*
X243324482Y-137725812D01*
X243444180Y-137689502D01*
X243554494Y-137630537D01*
X243651185Y-137551185D01*
X243730537Y-137454494D01*
X243789502Y-137344180D01*
X243825812Y-137224482D01*
X243838072Y-137100000D01*
X243835000Y-136885750D01*
X243676250Y-136727000D01*
X242577000Y-136727000D01*
X242323000Y-136727000D01*
X241223750Y-136727000D01*
X241065000Y-136885750D01*
X241061928Y-137100000D01*
X238938072Y-137100000D01*
X238938072Y-136385000D01*
X240306531Y-136385000D01*
X240350000Y-136389281D01*
X240393469Y-136385000D01*
X240393477Y-136385000D01*
X240523490Y-136372195D01*
X240690313Y-136321589D01*
X240844059Y-136239411D01*
X240978817Y-136128817D01*
X241006534Y-136095044D01*
X241068521Y-136033057D01*
X241061928Y-136100000D01*
X241065000Y-136314250D01*
X241223750Y-136473000D01*
X242323000Y-136473000D01*
X242323000Y-135623750D01*
X242577000Y-135623750D01*
X242577000Y-136473000D01*
X243676250Y-136473000D01*
X243835000Y-136314250D01*
X243838072Y-136100000D01*
X243825812Y-135975518D01*
X243789502Y-135855820D01*
X243730537Y-135745506D01*
X243651185Y-135648815D01*
X243554494Y-135569463D01*
X243444180Y-135510498D01*
X243324482Y-135474188D01*
X243200000Y-135461928D01*
X242735750Y-135465000D01*
X242577000Y-135623750D01*
X242323000Y-135623750D01*
X242164250Y-135465000D01*
X241700000Y-135461928D01*
X241633057Y-135468521D01*
X242563507Y-134538072D01*
X243200000Y-134538072D01*
X243324482Y-134525812D01*
X243444180Y-134489502D01*
X243554494Y-134430537D01*
X243651185Y-134351185D01*
X243730537Y-134254494D01*
X243789502Y-134144180D01*
X243825812Y-134024482D01*
X243838072Y-133900000D01*
X243838072Y-132900000D01*
X243825812Y-132775518D01*
X243789502Y-132655820D01*
X243730537Y-132545506D01*
X243651185Y-132448815D01*
X243554494Y-132369463D01*
X243444180Y-132310498D01*
X243324482Y-132274188D01*
X243321398Y-132273884D01*
X243290944Y-132173490D01*
X243271589Y-132109686D01*
X243189411Y-131955941D01*
X243106532Y-131854953D01*
X243106530Y-131854951D01*
X243078817Y-131821183D01*
X243045050Y-131793471D01*
X241656534Y-130404956D01*
X241628817Y-130371183D01*
X241494059Y-130260589D01*
X241340313Y-130178411D01*
X241173490Y-130127805D01*
X241043477Y-130115000D01*
X241043469Y-130115000D01*
X241000000Y-130110719D01*
X240956531Y-130115000D01*
X198734274Y-130115000D01*
X199058669Y-129980631D01*
X199424729Y-129736038D01*
X199736038Y-129424729D01*
X199980631Y-129058669D01*
X200149110Y-128651925D01*
X200235000Y-128220128D01*
X200235000Y-127779872D01*
X200149110Y-127348075D01*
X199980631Y-126941331D01*
X199736038Y-126575271D01*
X199424729Y-126263962D01*
X199058669Y-126019369D01*
X198651925Y-125850890D01*
X198220128Y-125765000D01*
X197779872Y-125765000D01*
X197348075Y-125850890D01*
X196941331Y-126019369D01*
X196575271Y-126263962D01*
X196263962Y-126575271D01*
X196019369Y-126941331D01*
X195850890Y-127348075D01*
X195765000Y-127779872D01*
X195765000Y-128220128D01*
X195850890Y-128651925D01*
X196019369Y-129058669D01*
X196263962Y-129424729D01*
X196575271Y-129736038D01*
X196941331Y-129980631D01*
X197265726Y-130115000D01*
X108734274Y-130115000D01*
X109058669Y-129980631D01*
X109424729Y-129736038D01*
X109736038Y-129424729D01*
X109980631Y-129058669D01*
X110149110Y-128651925D01*
X110235000Y-128220128D01*
X110235000Y-127779872D01*
X110149110Y-127348075D01*
X109980631Y-126941331D01*
X109736038Y-126575271D01*
X109424729Y-126263962D01*
X109058669Y-126019369D01*
X108651925Y-125850890D01*
X108220128Y-125765000D01*
X107779872Y-125765000D01*
X107348075Y-125850890D01*
X106941331Y-126019369D01*
X106575271Y-126263962D01*
X106263962Y-126575271D01*
X106019369Y-126941331D01*
X105850890Y-127348075D01*
X105765000Y-127779872D01*
X105765000Y-128220128D01*
X105850890Y-128651925D01*
X106019369Y-129058669D01*
X106263962Y-129424729D01*
X106575271Y-129736038D01*
X106941331Y-129980631D01*
X107265726Y-130115000D01*
X66366579Y-130115000D01*
X59885000Y-123633422D01*
X59885000Y-116043469D01*
X59889281Y-116000000D01*
X59885000Y-115956531D01*
X59885000Y-115956523D01*
X59872195Y-115826510D01*
X59853536Y-115765000D01*
X59821589Y-115659686D01*
X59739411Y-115505941D01*
X59656532Y-115404953D01*
X59656530Y-115404951D01*
X59628817Y-115371183D01*
X59595050Y-115343471D01*
X58656534Y-114404956D01*
X58628817Y-114371183D01*
X58494059Y-114260589D01*
X58340313Y-114178411D01*
X58173490Y-114127805D01*
X58043477Y-114115000D01*
X58043469Y-114115000D01*
X58000000Y-114110719D01*
X57956531Y-114115000D01*
X57143366Y-114115000D01*
X57003238Y-114000000D01*
X57152502Y-113877502D01*
X57306833Y-113689449D01*
X57421511Y-113474901D01*
X57492130Y-113242102D01*
X57515975Y-113000000D01*
X57492130Y-112757898D01*
X57421511Y-112525099D01*
X57306833Y-112310551D01*
X57152502Y-112122498D01*
X56964449Y-111968167D01*
X56749901Y-111853489D01*
X56517102Y-111782870D01*
X56486663Y-111779872D01*
X60765000Y-111779872D01*
X60765000Y-112220128D01*
X60850890Y-112651925D01*
X61019369Y-113058669D01*
X61263962Y-113424729D01*
X61575271Y-113736038D01*
X61941331Y-113980631D01*
X62348075Y-114149110D01*
X62779872Y-114235000D01*
X63220128Y-114235000D01*
X63651925Y-114149110D01*
X64058669Y-113980631D01*
X64424729Y-113736038D01*
X64736038Y-113424729D01*
X64980631Y-113058669D01*
X65149110Y-112651925D01*
X65235000Y-112220128D01*
X65235000Y-111779872D01*
X150765000Y-111779872D01*
X150765000Y-112220128D01*
X150850890Y-112651925D01*
X151019369Y-113058669D01*
X151263962Y-113424729D01*
X151575271Y-113736038D01*
X151941331Y-113980631D01*
X152348075Y-114149110D01*
X152779872Y-114235000D01*
X153220128Y-114235000D01*
X153651925Y-114149110D01*
X154058669Y-113980631D01*
X154424729Y-113736038D01*
X154736038Y-113424729D01*
X154980631Y-113058669D01*
X155149110Y-112651925D01*
X155235000Y-112220128D01*
X155235000Y-111779872D01*
X240765000Y-111779872D01*
X240765000Y-112220128D01*
X240850890Y-112651925D01*
X241019369Y-113058669D01*
X241263962Y-113424729D01*
X241575271Y-113736038D01*
X241941331Y-113980631D01*
X242348075Y-114149110D01*
X242779872Y-114235000D01*
X243220128Y-114235000D01*
X243651925Y-114149110D01*
X244058669Y-113980631D01*
X244424729Y-113736038D01*
X244736038Y-113424729D01*
X244980631Y-113058669D01*
X245149110Y-112651925D01*
X245235000Y-112220128D01*
X245235000Y-111779872D01*
X245149110Y-111348075D01*
X244980631Y-110941331D01*
X244736038Y-110575271D01*
X244424729Y-110263962D01*
X244058669Y-110019369D01*
X243651925Y-109850890D01*
X243220128Y-109765000D01*
X242779872Y-109765000D01*
X242348075Y-109850890D01*
X241941331Y-110019369D01*
X241575271Y-110263962D01*
X241263962Y-110575271D01*
X241019369Y-110941331D01*
X240850890Y-111348075D01*
X240765000Y-111779872D01*
X155235000Y-111779872D01*
X155149110Y-111348075D01*
X154980631Y-110941331D01*
X154736038Y-110575271D01*
X154424729Y-110263962D01*
X154058669Y-110019369D01*
X153651925Y-109850890D01*
X153220128Y-109765000D01*
X152779872Y-109765000D01*
X152348075Y-109850890D01*
X151941331Y-110019369D01*
X151575271Y-110263962D01*
X151263962Y-110575271D01*
X151019369Y-110941331D01*
X150850890Y-111348075D01*
X150765000Y-111779872D01*
X65235000Y-111779872D01*
X65149110Y-111348075D01*
X64980631Y-110941331D01*
X64736038Y-110575271D01*
X64424729Y-110263962D01*
X64058669Y-110019369D01*
X63651925Y-109850890D01*
X63220128Y-109765000D01*
X62779872Y-109765000D01*
X62348075Y-109850890D01*
X61941331Y-110019369D01*
X61575271Y-110263962D01*
X61263962Y-110575271D01*
X61019369Y-110941331D01*
X60850890Y-111348075D01*
X60765000Y-111779872D01*
X56486663Y-111779872D01*
X56335665Y-111765000D01*
X55664335Y-111765000D01*
X55482898Y-111782870D01*
X55250099Y-111853489D01*
X55035551Y-111968167D01*
X54847498Y-112122498D01*
X54844605Y-112126023D01*
X54826510Y-112127805D01*
X54659686Y-112178411D01*
X54505941Y-112260589D01*
X54404953Y-112343468D01*
X54404951Y-112343470D01*
X54371183Y-112371183D01*
X54343470Y-112404951D01*
X53404956Y-113343466D01*
X53371183Y-113371183D01*
X53260589Y-113505942D01*
X53178411Y-113659688D01*
X53127805Y-113826511D01*
X53115000Y-113956524D01*
X53115000Y-113956531D01*
X53110719Y-114000000D01*
X53115000Y-114043469D01*
X53115001Y-120863422D01*
X53006535Y-120754957D01*
X52995226Y-120698102D01*
X52917205Y-120509744D01*
X52803937Y-120340226D01*
X52659774Y-120196063D01*
X52490256Y-120082795D01*
X52301898Y-120004774D01*
X52101939Y-119965000D01*
X51898061Y-119965000D01*
X51698102Y-120004774D01*
X51509744Y-120082795D01*
X51340226Y-120196063D01*
X51196063Y-120340226D01*
X51082795Y-120509744D01*
X51004774Y-120698102D01*
X50965000Y-120898061D01*
X49902152Y-120898061D01*
X48710000Y-119705909D01*
X48710000Y-112294091D01*
X50477393Y-110526699D01*
X50504474Y-110504474D01*
X50526699Y-110477393D01*
X50526707Y-110477385D01*
X50593199Y-110396364D01*
X50659128Y-110273020D01*
X50699726Y-110139185D01*
X50713435Y-110000001D01*
X50699726Y-109860816D01*
X50659128Y-109726981D01*
X50659128Y-109726980D01*
X50593199Y-109603636D01*
X50526707Y-109522615D01*
X50526699Y-109522607D01*
X50504474Y-109495526D01*
X50477393Y-109473301D01*
X48710000Y-107705909D01*
X48710000Y-90682391D01*
X54531538Y-90682391D01*
X54656269Y-90873000D01*
X55873000Y-90873000D01*
X55873000Y-89765000D01*
X56127000Y-89765000D01*
X56127000Y-90873000D01*
X57343731Y-90873000D01*
X57468462Y-90682391D01*
X57464591Y-90644718D01*
X57372421Y-90419467D01*
X57238078Y-90216526D01*
X57066725Y-90043693D01*
X56864946Y-89907610D01*
X56640496Y-89813507D01*
X56402000Y-89765000D01*
X56127000Y-89765000D01*
X55873000Y-89765000D01*
X55598000Y-89765000D01*
X55359504Y-89813507D01*
X55135054Y-89907610D01*
X54933275Y-90043693D01*
X54761922Y-90216526D01*
X54627579Y-90419467D01*
X54535409Y-90644718D01*
X54531538Y-90682391D01*
X48710000Y-90682391D01*
X48710000Y-90294091D01*
X50294092Y-88710000D01*
X69705909Y-88710000D01*
X79110909Y-98115000D01*
G37*
G04 #@! TD.AperFunction*
D17*
X172886928Y-133138507D02*
X172886928Y-133225000D01*
X172903512Y-133393377D01*
X172952625Y-133555283D01*
X173030700Y-133701351D01*
X172994463Y-133745506D01*
X172935498Y-133855820D01*
X172899188Y-133975518D01*
X172886928Y-134100000D01*
X172890000Y-134264250D01*
X173048750Y-134423000D01*
X173873000Y-134423000D01*
X173873000Y-134403000D01*
X174127000Y-134403000D01*
X174127000Y-134423000D01*
X174951250Y-134423000D01*
X175110000Y-134264250D01*
X175113072Y-134100000D01*
X175100812Y-133975518D01*
X175073354Y-133885000D01*
X176161928Y-133885000D01*
X176161928Y-133900000D01*
X176174188Y-134024482D01*
X176210498Y-134144180D01*
X176269463Y-134254494D01*
X176348815Y-134351185D01*
X176445506Y-134430537D01*
X176555820Y-134489502D01*
X176675518Y-134525812D01*
X176800000Y-134538072D01*
X178300000Y-134538072D01*
X178424482Y-134525812D01*
X178544180Y-134489502D01*
X178654494Y-134430537D01*
X178751185Y-134351185D01*
X178830537Y-134254494D01*
X178889502Y-134144180D01*
X178925812Y-134024482D01*
X178938072Y-133900000D01*
X178938072Y-132900000D01*
X178936595Y-132885000D01*
X181063405Y-132885000D01*
X181061928Y-132900000D01*
X181061928Y-133900000D01*
X181074188Y-134024482D01*
X181110498Y-134144180D01*
X181169463Y-134254494D01*
X181248815Y-134351185D01*
X181345506Y-134430537D01*
X181455820Y-134489502D01*
X181575518Y-134525812D01*
X181700000Y-134538072D01*
X182336494Y-134538072D01*
X182438422Y-134640000D01*
X164941578Y-134640000D01*
X164706537Y-134404959D01*
X164706532Y-134404953D01*
X163838072Y-133536494D01*
X163838072Y-132900000D01*
X163836595Y-132885000D01*
X172633422Y-132885000D01*
X172886928Y-133138507D01*
G04 #@! TA.AperFunction,Conductor*
D18*
G36*
X172886928Y-133138507D02*
G01*
X172886928Y-133225000D01*
X172903512Y-133393377D01*
X172952625Y-133555283D01*
X173030700Y-133701351D01*
X172994463Y-133745506D01*
X172935498Y-133855820D01*
X172899188Y-133975518D01*
X172886928Y-134100000D01*
X172890000Y-134264250D01*
X173048750Y-134423000D01*
X173873000Y-134423000D01*
X173873000Y-134403000D01*
X174127000Y-134403000D01*
X174127000Y-134423000D01*
X174951250Y-134423000D01*
X175110000Y-134264250D01*
X175113072Y-134100000D01*
X175100812Y-133975518D01*
X175073354Y-133885000D01*
X176161928Y-133885000D01*
X176161928Y-133900000D01*
X176174188Y-134024482D01*
X176210498Y-134144180D01*
X176269463Y-134254494D01*
X176348815Y-134351185D01*
X176445506Y-134430537D01*
X176555820Y-134489502D01*
X176675518Y-134525812D01*
X176800000Y-134538072D01*
X178300000Y-134538072D01*
X178424482Y-134525812D01*
X178544180Y-134489502D01*
X178654494Y-134430537D01*
X178751185Y-134351185D01*
X178830537Y-134254494D01*
X178889502Y-134144180D01*
X178925812Y-134024482D01*
X178938072Y-133900000D01*
X178938072Y-132900000D01*
X178936595Y-132885000D01*
X181063405Y-132885000D01*
X181061928Y-132900000D01*
X181061928Y-133900000D01*
X181074188Y-134024482D01*
X181110498Y-134144180D01*
X181169463Y-134254494D01*
X181248815Y-134351185D01*
X181345506Y-134430537D01*
X181455820Y-134489502D01*
X181575518Y-134525812D01*
X181700000Y-134538072D01*
X182336494Y-134538072D01*
X182438422Y-134640000D01*
X164941578Y-134640000D01*
X164706537Y-134404959D01*
X164706532Y-134404953D01*
X163838072Y-133536494D01*
X163838072Y-132900000D01*
X163836595Y-132885000D01*
X172633422Y-132885000D01*
X172886928Y-133138507D01*
G37*
G04 #@! TD.AperFunction*
D17*
X152886928Y-133138507D02*
X152886928Y-133225000D01*
X152903512Y-133393377D01*
X152952625Y-133555283D01*
X153030700Y-133701351D01*
X152994463Y-133745506D01*
X152935498Y-133855820D01*
X152899188Y-133975518D01*
X152886928Y-134100000D01*
X152890000Y-134264250D01*
X153048750Y-134423000D01*
X153873000Y-134423000D01*
X153873000Y-134403000D01*
X154127000Y-134403000D01*
X154127000Y-134423000D01*
X154951250Y-134423000D01*
X155110000Y-134264250D01*
X155113072Y-134100000D01*
X155100812Y-133975518D01*
X155073354Y-133885000D01*
X156161928Y-133885000D01*
X156161928Y-133900000D01*
X156174188Y-134024482D01*
X156210498Y-134144180D01*
X156269463Y-134254494D01*
X156348815Y-134351185D01*
X156445506Y-134430537D01*
X156555820Y-134489502D01*
X156675518Y-134525812D01*
X156800000Y-134538072D01*
X158300000Y-134538072D01*
X158424482Y-134525812D01*
X158544180Y-134489502D01*
X158654494Y-134430537D01*
X158751185Y-134351185D01*
X158830537Y-134254494D01*
X158889502Y-134144180D01*
X158925812Y-134024482D01*
X158938072Y-133900000D01*
X158938072Y-132900000D01*
X158936595Y-132885000D01*
X161063405Y-132885000D01*
X161061928Y-132900000D01*
X161061928Y-133900000D01*
X161074188Y-134024482D01*
X161110498Y-134144180D01*
X161169463Y-134254494D01*
X161248815Y-134351185D01*
X161345506Y-134430537D01*
X161455820Y-134489502D01*
X161575518Y-134525812D01*
X161700000Y-134538072D01*
X162336494Y-134538072D01*
X162438422Y-134640000D01*
X144941579Y-134640000D01*
X144136863Y-133835284D01*
X143838072Y-133536494D01*
X143838072Y-132900000D01*
X143836595Y-132885000D01*
X152633422Y-132885000D01*
X152886928Y-133138507D01*
G04 #@! TA.AperFunction,Conductor*
D18*
G36*
X152886928Y-133138507D02*
G01*
X152886928Y-133225000D01*
X152903512Y-133393377D01*
X152952625Y-133555283D01*
X153030700Y-133701351D01*
X152994463Y-133745506D01*
X152935498Y-133855820D01*
X152899188Y-133975518D01*
X152886928Y-134100000D01*
X152890000Y-134264250D01*
X153048750Y-134423000D01*
X153873000Y-134423000D01*
X153873000Y-134403000D01*
X154127000Y-134403000D01*
X154127000Y-134423000D01*
X154951250Y-134423000D01*
X155110000Y-134264250D01*
X155113072Y-134100000D01*
X155100812Y-133975518D01*
X155073354Y-133885000D01*
X156161928Y-133885000D01*
X156161928Y-133900000D01*
X156174188Y-134024482D01*
X156210498Y-134144180D01*
X156269463Y-134254494D01*
X156348815Y-134351185D01*
X156445506Y-134430537D01*
X156555820Y-134489502D01*
X156675518Y-134525812D01*
X156800000Y-134538072D01*
X158300000Y-134538072D01*
X158424482Y-134525812D01*
X158544180Y-134489502D01*
X158654494Y-134430537D01*
X158751185Y-134351185D01*
X158830537Y-134254494D01*
X158889502Y-134144180D01*
X158925812Y-134024482D01*
X158938072Y-133900000D01*
X158938072Y-132900000D01*
X158936595Y-132885000D01*
X161063405Y-132885000D01*
X161061928Y-132900000D01*
X161061928Y-133900000D01*
X161074188Y-134024482D01*
X161110498Y-134144180D01*
X161169463Y-134254494D01*
X161248815Y-134351185D01*
X161345506Y-134430537D01*
X161455820Y-134489502D01*
X161575518Y-134525812D01*
X161700000Y-134538072D01*
X162336494Y-134538072D01*
X162438422Y-134640000D01*
X144941579Y-134640000D01*
X144136863Y-133835284D01*
X143838072Y-133536494D01*
X143838072Y-132900000D01*
X143836595Y-132885000D01*
X152633422Y-132885000D01*
X152886928Y-133138507D01*
G37*
G04 #@! TD.AperFunction*
D17*
X241225566Y-132477144D02*
X241169463Y-132545506D01*
X241110498Y-132655820D01*
X241074188Y-132775518D01*
X241061928Y-132900000D01*
X241061928Y-133536493D01*
X239983422Y-134615000D01*
X224916579Y-134615000D01*
X224123168Y-133821589D01*
X223838072Y-133536494D01*
X223838072Y-132900000D01*
X223836595Y-132885000D01*
X232633422Y-132885000D01*
X232886928Y-133138507D01*
X232886928Y-133225000D01*
X232903512Y-133393377D01*
X232952625Y-133555283D01*
X233030700Y-133701351D01*
X232994463Y-133745506D01*
X232935498Y-133855820D01*
X232899188Y-133975518D01*
X232886928Y-134100000D01*
X232890000Y-134264250D01*
X233048750Y-134423000D01*
X233873000Y-134423000D01*
X233873000Y-134403000D01*
X234127000Y-134403000D01*
X234127000Y-134423000D01*
X234951250Y-134423000D01*
X235110000Y-134264250D01*
X235113072Y-134100000D01*
X235100812Y-133975518D01*
X235073354Y-133885000D01*
X236161928Y-133885000D01*
X236161928Y-133900000D01*
X236174188Y-134024482D01*
X236210498Y-134144180D01*
X236269463Y-134254494D01*
X236348815Y-134351185D01*
X236445506Y-134430537D01*
X236555820Y-134489502D01*
X236675518Y-134525812D01*
X236800000Y-134538072D01*
X238300000Y-134538072D01*
X238424482Y-134525812D01*
X238544180Y-134489502D01*
X238654494Y-134430537D01*
X238751185Y-134351185D01*
X238830537Y-134254494D01*
X238889502Y-134144180D01*
X238925812Y-134024482D01*
X238938072Y-133900000D01*
X238938072Y-132900000D01*
X238925812Y-132775518D01*
X238889502Y-132655820D01*
X238830537Y-132545506D01*
X238751185Y-132448815D01*
X238654494Y-132369463D01*
X238544180Y-132310498D01*
X238424482Y-132274188D01*
X238300000Y-132261928D01*
X237645691Y-132261928D01*
X237644059Y-132260589D01*
X237490313Y-132178411D01*
X237323490Y-132127805D01*
X237193477Y-132115000D01*
X237193469Y-132115000D01*
X237150000Y-132110719D01*
X237106531Y-132115000D01*
X234799705Y-132115000D01*
X234729497Y-132057382D01*
X234580283Y-131977625D01*
X234418377Y-131928512D01*
X234250000Y-131911928D01*
X234163507Y-131911928D01*
X234136579Y-131885000D01*
X240633422Y-131885000D01*
X241225566Y-132477144D01*
G04 #@! TA.AperFunction,Conductor*
D18*
G36*
X241225566Y-132477144D02*
G01*
X241169463Y-132545506D01*
X241110498Y-132655820D01*
X241074188Y-132775518D01*
X241061928Y-132900000D01*
X241061928Y-133536493D01*
X239983422Y-134615000D01*
X224916579Y-134615000D01*
X224123168Y-133821589D01*
X223838072Y-133536494D01*
X223838072Y-132900000D01*
X223836595Y-132885000D01*
X232633422Y-132885000D01*
X232886928Y-133138507D01*
X232886928Y-133225000D01*
X232903512Y-133393377D01*
X232952625Y-133555283D01*
X233030700Y-133701351D01*
X232994463Y-133745506D01*
X232935498Y-133855820D01*
X232899188Y-133975518D01*
X232886928Y-134100000D01*
X232890000Y-134264250D01*
X233048750Y-134423000D01*
X233873000Y-134423000D01*
X233873000Y-134403000D01*
X234127000Y-134403000D01*
X234127000Y-134423000D01*
X234951250Y-134423000D01*
X235110000Y-134264250D01*
X235113072Y-134100000D01*
X235100812Y-133975518D01*
X235073354Y-133885000D01*
X236161928Y-133885000D01*
X236161928Y-133900000D01*
X236174188Y-134024482D01*
X236210498Y-134144180D01*
X236269463Y-134254494D01*
X236348815Y-134351185D01*
X236445506Y-134430537D01*
X236555820Y-134489502D01*
X236675518Y-134525812D01*
X236800000Y-134538072D01*
X238300000Y-134538072D01*
X238424482Y-134525812D01*
X238544180Y-134489502D01*
X238654494Y-134430537D01*
X238751185Y-134351185D01*
X238830537Y-134254494D01*
X238889502Y-134144180D01*
X238925812Y-134024482D01*
X238938072Y-133900000D01*
X238938072Y-132900000D01*
X238925812Y-132775518D01*
X238889502Y-132655820D01*
X238830537Y-132545506D01*
X238751185Y-132448815D01*
X238654494Y-132369463D01*
X238544180Y-132310498D01*
X238424482Y-132274188D01*
X238300000Y-132261928D01*
X237645691Y-132261928D01*
X237644059Y-132260589D01*
X237490313Y-132178411D01*
X237323490Y-132127805D01*
X237193477Y-132115000D01*
X237193469Y-132115000D01*
X237150000Y-132110719D01*
X237106531Y-132115000D01*
X234799705Y-132115000D01*
X234729497Y-132057382D01*
X234580283Y-131977625D01*
X234418377Y-131928512D01*
X234250000Y-131911928D01*
X234163507Y-131911928D01*
X234136579Y-131885000D01*
X240633422Y-131885000D01*
X241225566Y-132477144D01*
G37*
G04 #@! TD.AperFunction*
D17*
X112886928Y-133138507D02*
X112886928Y-133225000D01*
X112903512Y-133393377D01*
X112952625Y-133555283D01*
X113030700Y-133701351D01*
X112994463Y-133745506D01*
X112935498Y-133855820D01*
X112899188Y-133975518D01*
X112886928Y-134100000D01*
X112890000Y-134264250D01*
X113048750Y-134423000D01*
X113873000Y-134423000D01*
X113873000Y-134403000D01*
X114127000Y-134403000D01*
X114127000Y-134423000D01*
X114951250Y-134423000D01*
X115110000Y-134264250D01*
X115113072Y-134100000D01*
X115100812Y-133975518D01*
X115073354Y-133885000D01*
X116161928Y-133885000D01*
X116161928Y-133900000D01*
X116174188Y-134024482D01*
X116210498Y-134144180D01*
X116269463Y-134254494D01*
X116348815Y-134351185D01*
X116445506Y-134430537D01*
X116555820Y-134489502D01*
X116675518Y-134525812D01*
X116800000Y-134538072D01*
X118300000Y-134538072D01*
X118424482Y-134525812D01*
X118544180Y-134489502D01*
X118654494Y-134430537D01*
X118751185Y-134351185D01*
X118830537Y-134254494D01*
X118889502Y-134144180D01*
X118925812Y-134024482D01*
X118938072Y-133900000D01*
X118938072Y-132900000D01*
X118936595Y-132885000D01*
X121063405Y-132885000D01*
X121061928Y-132900000D01*
X121061928Y-133900000D01*
X121074188Y-134024482D01*
X121110498Y-134144180D01*
X121169463Y-134254494D01*
X121248815Y-134351185D01*
X121345506Y-134430537D01*
X121455820Y-134489502D01*
X121575518Y-134525812D01*
X121700000Y-134538072D01*
X122336494Y-134538072D01*
X122413422Y-134615000D01*
X104916579Y-134615000D01*
X103838072Y-133536494D01*
X103838072Y-132900000D01*
X103836595Y-132885000D01*
X112633422Y-132885000D01*
X112886928Y-133138507D01*
G04 #@! TA.AperFunction,Conductor*
D18*
G36*
X112886928Y-133138507D02*
G01*
X112886928Y-133225000D01*
X112903512Y-133393377D01*
X112952625Y-133555283D01*
X113030700Y-133701351D01*
X112994463Y-133745506D01*
X112935498Y-133855820D01*
X112899188Y-133975518D01*
X112886928Y-134100000D01*
X112890000Y-134264250D01*
X113048750Y-134423000D01*
X113873000Y-134423000D01*
X113873000Y-134403000D01*
X114127000Y-134403000D01*
X114127000Y-134423000D01*
X114951250Y-134423000D01*
X115110000Y-134264250D01*
X115113072Y-134100000D01*
X115100812Y-133975518D01*
X115073354Y-133885000D01*
X116161928Y-133885000D01*
X116161928Y-133900000D01*
X116174188Y-134024482D01*
X116210498Y-134144180D01*
X116269463Y-134254494D01*
X116348815Y-134351185D01*
X116445506Y-134430537D01*
X116555820Y-134489502D01*
X116675518Y-134525812D01*
X116800000Y-134538072D01*
X118300000Y-134538072D01*
X118424482Y-134525812D01*
X118544180Y-134489502D01*
X118654494Y-134430537D01*
X118751185Y-134351185D01*
X118830537Y-134254494D01*
X118889502Y-134144180D01*
X118925812Y-134024482D01*
X118938072Y-133900000D01*
X118938072Y-132900000D01*
X118936595Y-132885000D01*
X121063405Y-132885000D01*
X121061928Y-132900000D01*
X121061928Y-133900000D01*
X121074188Y-134024482D01*
X121110498Y-134144180D01*
X121169463Y-134254494D01*
X121248815Y-134351185D01*
X121345506Y-134430537D01*
X121455820Y-134489502D01*
X121575518Y-134525812D01*
X121700000Y-134538072D01*
X122336494Y-134538072D01*
X122413422Y-134615000D01*
X104916579Y-134615000D01*
X103838072Y-133536494D01*
X103838072Y-132900000D01*
X103836595Y-132885000D01*
X112633422Y-132885000D01*
X112886928Y-133138507D01*
G37*
G04 #@! TD.AperFunction*
D17*
X92886928Y-133138507D02*
X92886928Y-133225000D01*
X92903512Y-133393377D01*
X92952625Y-133555283D01*
X93030700Y-133701351D01*
X92994463Y-133745506D01*
X92935498Y-133855820D01*
X92899188Y-133975518D01*
X92886928Y-134100000D01*
X92890000Y-134264250D01*
X93048750Y-134423000D01*
X93873000Y-134423000D01*
X93873000Y-134403000D01*
X94127000Y-134403000D01*
X94127000Y-134423000D01*
X94951250Y-134423000D01*
X95110000Y-134264250D01*
X95113072Y-134100000D01*
X95100812Y-133975518D01*
X95073354Y-133885000D01*
X96161928Y-133885000D01*
X96161928Y-133900000D01*
X96174188Y-134024482D01*
X96210498Y-134144180D01*
X96269463Y-134254494D01*
X96348815Y-134351185D01*
X96445506Y-134430537D01*
X96555820Y-134489502D01*
X96675518Y-134525812D01*
X96800000Y-134538072D01*
X98300000Y-134538072D01*
X98424482Y-134525812D01*
X98544180Y-134489502D01*
X98654494Y-134430537D01*
X98751185Y-134351185D01*
X98830537Y-134254494D01*
X98889502Y-134144180D01*
X98925812Y-134024482D01*
X98938072Y-133900000D01*
X98938072Y-132900000D01*
X98936595Y-132885000D01*
X101063405Y-132885000D01*
X101061928Y-132900000D01*
X101061928Y-133900000D01*
X101074188Y-134024482D01*
X101110498Y-134144180D01*
X101169463Y-134254494D01*
X101248815Y-134351185D01*
X101345506Y-134430537D01*
X101455820Y-134489502D01*
X101575518Y-134525812D01*
X101700000Y-134538072D01*
X102336494Y-134538072D01*
X102413422Y-134615000D01*
X84866579Y-134615000D01*
X83838072Y-133586494D01*
X83838072Y-132900000D01*
X83836595Y-132885000D01*
X92633422Y-132885000D01*
X92886928Y-133138507D01*
G04 #@! TA.AperFunction,Conductor*
D18*
G36*
X92886928Y-133138507D02*
G01*
X92886928Y-133225000D01*
X92903512Y-133393377D01*
X92952625Y-133555283D01*
X93030700Y-133701351D01*
X92994463Y-133745506D01*
X92935498Y-133855820D01*
X92899188Y-133975518D01*
X92886928Y-134100000D01*
X92890000Y-134264250D01*
X93048750Y-134423000D01*
X93873000Y-134423000D01*
X93873000Y-134403000D01*
X94127000Y-134403000D01*
X94127000Y-134423000D01*
X94951250Y-134423000D01*
X95110000Y-134264250D01*
X95113072Y-134100000D01*
X95100812Y-133975518D01*
X95073354Y-133885000D01*
X96161928Y-133885000D01*
X96161928Y-133900000D01*
X96174188Y-134024482D01*
X96210498Y-134144180D01*
X96269463Y-134254494D01*
X96348815Y-134351185D01*
X96445506Y-134430537D01*
X96555820Y-134489502D01*
X96675518Y-134525812D01*
X96800000Y-134538072D01*
X98300000Y-134538072D01*
X98424482Y-134525812D01*
X98544180Y-134489502D01*
X98654494Y-134430537D01*
X98751185Y-134351185D01*
X98830537Y-134254494D01*
X98889502Y-134144180D01*
X98925812Y-134024482D01*
X98938072Y-133900000D01*
X98938072Y-132900000D01*
X98936595Y-132885000D01*
X101063405Y-132885000D01*
X101061928Y-132900000D01*
X101061928Y-133900000D01*
X101074188Y-134024482D01*
X101110498Y-134144180D01*
X101169463Y-134254494D01*
X101248815Y-134351185D01*
X101345506Y-134430537D01*
X101455820Y-134489502D01*
X101575518Y-134525812D01*
X101700000Y-134538072D01*
X102336494Y-134538072D01*
X102413422Y-134615000D01*
X84866579Y-134615000D01*
X83838072Y-133586494D01*
X83838072Y-132900000D01*
X83836595Y-132885000D01*
X92633422Y-132885000D01*
X92886928Y-133138507D01*
G37*
G04 #@! TD.AperFunction*
D17*
X212886928Y-133138507D02*
X212886928Y-133225000D01*
X212903512Y-133393377D01*
X212952625Y-133555283D01*
X213030700Y-133701351D01*
X212994463Y-133745506D01*
X212935498Y-133855820D01*
X212899188Y-133975518D01*
X212886928Y-134100000D01*
X212890000Y-134264250D01*
X213048750Y-134423000D01*
X213873000Y-134423000D01*
X213873000Y-134403000D01*
X214127000Y-134403000D01*
X214127000Y-134423000D01*
X214951250Y-134423000D01*
X215110000Y-134264250D01*
X215113072Y-134100000D01*
X215100812Y-133975518D01*
X215073354Y-133885000D01*
X216161928Y-133885000D01*
X216161928Y-133900000D01*
X216174188Y-134024482D01*
X216210498Y-134144180D01*
X216269463Y-134254494D01*
X216348815Y-134351185D01*
X216445506Y-134430537D01*
X216555820Y-134489502D01*
X216675518Y-134525812D01*
X216800000Y-134538072D01*
X218300000Y-134538072D01*
X218424482Y-134525812D01*
X218544180Y-134489502D01*
X218654494Y-134430537D01*
X218751185Y-134351185D01*
X218830537Y-134254494D01*
X218889502Y-134144180D01*
X218925812Y-134024482D01*
X218938072Y-133900000D01*
X218938072Y-132900000D01*
X218936595Y-132885000D01*
X221063405Y-132885000D01*
X221061928Y-132900000D01*
X221061928Y-133900000D01*
X221074188Y-134024482D01*
X221110498Y-134144180D01*
X221169463Y-134254494D01*
X221248815Y-134351185D01*
X221345506Y-134430537D01*
X221455820Y-134489502D01*
X221575518Y-134525812D01*
X221700000Y-134538072D01*
X222336494Y-134538072D01*
X222413422Y-134615000D01*
X204916579Y-134615000D01*
X203838072Y-133536494D01*
X203838072Y-132900000D01*
X203836595Y-132885000D01*
X212633422Y-132885000D01*
X212886928Y-133138507D01*
G04 #@! TA.AperFunction,Conductor*
D18*
G36*
X212886928Y-133138507D02*
G01*
X212886928Y-133225000D01*
X212903512Y-133393377D01*
X212952625Y-133555283D01*
X213030700Y-133701351D01*
X212994463Y-133745506D01*
X212935498Y-133855820D01*
X212899188Y-133975518D01*
X212886928Y-134100000D01*
X212890000Y-134264250D01*
X213048750Y-134423000D01*
X213873000Y-134423000D01*
X213873000Y-134403000D01*
X214127000Y-134403000D01*
X214127000Y-134423000D01*
X214951250Y-134423000D01*
X215110000Y-134264250D01*
X215113072Y-134100000D01*
X215100812Y-133975518D01*
X215073354Y-133885000D01*
X216161928Y-133885000D01*
X216161928Y-133900000D01*
X216174188Y-134024482D01*
X216210498Y-134144180D01*
X216269463Y-134254494D01*
X216348815Y-134351185D01*
X216445506Y-134430537D01*
X216555820Y-134489502D01*
X216675518Y-134525812D01*
X216800000Y-134538072D01*
X218300000Y-134538072D01*
X218424482Y-134525812D01*
X218544180Y-134489502D01*
X218654494Y-134430537D01*
X218751185Y-134351185D01*
X218830537Y-134254494D01*
X218889502Y-134144180D01*
X218925812Y-134024482D01*
X218938072Y-133900000D01*
X218938072Y-132900000D01*
X218936595Y-132885000D01*
X221063405Y-132885000D01*
X221061928Y-132900000D01*
X221061928Y-133900000D01*
X221074188Y-134024482D01*
X221110498Y-134144180D01*
X221169463Y-134254494D01*
X221248815Y-134351185D01*
X221345506Y-134430537D01*
X221455820Y-134489502D01*
X221575518Y-134525812D01*
X221700000Y-134538072D01*
X222336494Y-134538072D01*
X222413422Y-134615000D01*
X204916579Y-134615000D01*
X203838072Y-133536494D01*
X203838072Y-132900000D01*
X203836595Y-132885000D01*
X212633422Y-132885000D01*
X212886928Y-133138507D01*
G37*
G04 #@! TD.AperFunction*
D17*
X58115000Y-116366579D02*
X58115001Y-123863423D01*
X54885000Y-120633422D01*
X54885000Y-120190770D01*
X55000518Y-120225812D01*
X55125000Y-120238072D01*
X55714250Y-120235000D01*
X55873000Y-120076250D01*
X55873000Y-119127000D01*
X56127000Y-119127000D01*
X56127000Y-120076250D01*
X56285750Y-120235000D01*
X56875000Y-120238072D01*
X56999482Y-120225812D01*
X57119180Y-120189502D01*
X57229494Y-120130537D01*
X57326185Y-120051185D01*
X57405537Y-119954494D01*
X57464502Y-119844180D01*
X57500812Y-119724482D01*
X57513072Y-119600000D01*
X57510000Y-119285750D01*
X57351250Y-119127000D01*
X56127000Y-119127000D01*
X55873000Y-119127000D01*
X55853000Y-119127000D01*
X55853000Y-118873000D01*
X55873000Y-118873000D01*
X55873000Y-118853000D01*
X56127000Y-118853000D01*
X56127000Y-118873000D01*
X57351250Y-118873000D01*
X57510000Y-118714250D01*
X57513072Y-118400000D01*
X57500812Y-118275518D01*
X57464502Y-118155820D01*
X57405537Y-118045506D01*
X57326185Y-117948815D01*
X57229494Y-117869463D01*
X57180564Y-117843309D01*
X57306833Y-117689449D01*
X57421511Y-117474901D01*
X57492130Y-117242102D01*
X57515975Y-117000000D01*
X57492130Y-116757898D01*
X57421511Y-116525099D01*
X57306833Y-116310551D01*
X57152502Y-116122498D01*
X57003238Y-116000000D01*
X57143366Y-115885000D01*
X57633422Y-115885000D01*
X58115000Y-116366579D01*
G04 #@! TA.AperFunction,Conductor*
D18*
G36*
X58115000Y-116366579D02*
G01*
X58115001Y-123863423D01*
X54885000Y-120633422D01*
X54885000Y-120190770D01*
X55000518Y-120225812D01*
X55125000Y-120238072D01*
X55714250Y-120235000D01*
X55873000Y-120076250D01*
X55873000Y-119127000D01*
X56127000Y-119127000D01*
X56127000Y-120076250D01*
X56285750Y-120235000D01*
X56875000Y-120238072D01*
X56999482Y-120225812D01*
X57119180Y-120189502D01*
X57229494Y-120130537D01*
X57326185Y-120051185D01*
X57405537Y-119954494D01*
X57464502Y-119844180D01*
X57500812Y-119724482D01*
X57513072Y-119600000D01*
X57510000Y-119285750D01*
X57351250Y-119127000D01*
X56127000Y-119127000D01*
X55873000Y-119127000D01*
X55853000Y-119127000D01*
X55853000Y-118873000D01*
X55873000Y-118873000D01*
X55873000Y-118853000D01*
X56127000Y-118853000D01*
X56127000Y-118873000D01*
X57351250Y-118873000D01*
X57510000Y-118714250D01*
X57513072Y-118400000D01*
X57500812Y-118275518D01*
X57464502Y-118155820D01*
X57405537Y-118045506D01*
X57326185Y-117948815D01*
X57229494Y-117869463D01*
X57180564Y-117843309D01*
X57306833Y-117689449D01*
X57421511Y-117474901D01*
X57492130Y-117242102D01*
X57515975Y-117000000D01*
X57492130Y-116757898D01*
X57421511Y-116525099D01*
X57306833Y-116310551D01*
X57152502Y-116122498D01*
X57003238Y-116000000D01*
X57143366Y-115885000D01*
X57633422Y-115885000D01*
X58115000Y-116366579D01*
G37*
G04 #@! TD.AperFunction*
M02*
