G04 #@! TF.GenerationSoftware,KiCad,Pcbnew,(5.1.7)-1*
G04 #@! TF.CreationDate,2021-02-18T19:25:01-05:00*
G04 #@! TF.ProjectId,OpeNITHM-full,4f70654e-4954-4484-9d2d-66756c6c2e6b,rev?*
G04 #@! TF.SameCoordinates,Original*
G04 #@! TF.FileFunction,Paste,Top*
G04 #@! TF.FilePolarity,Positive*
%FSLAX46Y46*%
G04 Gerber Fmt 4.6, Leading zero omitted, Abs format (unit mm)*
G04 Created by KiCad (PCBNEW (5.1.7)-1) date 2021-02-18 19:25:01*
%MOMM*%
%LPD*%
G01*
G04 APERTURE LIST*
%ADD10C,0.100000*%
%ADD11R,0.450000X1.200000*%
%ADD12R,0.700000X1.200000*%
%ADD13R,1.800000X2.500000*%
G04 APERTURE END LIST*
D10*
G36*
X360766667Y-120850000D02*
G01*
X360316667Y-120850000D01*
X360316667Y-120300000D01*
X360766667Y-120300000D01*
X360766667Y-119900000D01*
X361316667Y-119900000D01*
X361316667Y-121100000D01*
X360766667Y-121100000D01*
X360766667Y-120850000D01*
G37*
G36*
X363916667Y-119900000D02*
G01*
X364466667Y-119900000D01*
X364466667Y-120300000D01*
X364916667Y-120300000D01*
X364916667Y-120850000D01*
X364466667Y-120850000D01*
X364466667Y-121100000D01*
X363916667Y-121100000D01*
X363916667Y-119900000D01*
G37*
D11*
X362041667Y-120500000D03*
D12*
X363066667Y-120500000D03*
D10*
G36*
X351433318Y-120850000D02*
G01*
X350983318Y-120850000D01*
X350983318Y-120300000D01*
X351433318Y-120300000D01*
X351433318Y-119900000D01*
X351983318Y-119900000D01*
X351983318Y-121100000D01*
X351433318Y-121100000D01*
X351433318Y-120850000D01*
G37*
G36*
X354583318Y-119900000D02*
G01*
X355133318Y-119900000D01*
X355133318Y-120300000D01*
X355583318Y-120300000D01*
X355583318Y-120850000D01*
X355133318Y-120850000D01*
X355133318Y-121100000D01*
X354583318Y-121100000D01*
X354583318Y-119900000D01*
G37*
D11*
X352708318Y-120500000D03*
D12*
X353733318Y-120500000D03*
D10*
G36*
X342099985Y-120850000D02*
G01*
X341649985Y-120850000D01*
X341649985Y-120300000D01*
X342099985Y-120300000D01*
X342099985Y-119900000D01*
X342649985Y-119900000D01*
X342649985Y-121100000D01*
X342099985Y-121100000D01*
X342099985Y-120850000D01*
G37*
G36*
X345249985Y-119900000D02*
G01*
X345799985Y-119900000D01*
X345799985Y-120300000D01*
X346249985Y-120300000D01*
X346249985Y-120850000D01*
X345799985Y-120850000D01*
X345799985Y-121100000D01*
X345249985Y-121100000D01*
X345249985Y-119900000D01*
G37*
D11*
X343374985Y-120500000D03*
D12*
X344399985Y-120500000D03*
D10*
G36*
X332766652Y-120850000D02*
G01*
X332316652Y-120850000D01*
X332316652Y-120300000D01*
X332766652Y-120300000D01*
X332766652Y-119900000D01*
X333316652Y-119900000D01*
X333316652Y-121100000D01*
X332766652Y-121100000D01*
X332766652Y-120850000D01*
G37*
G36*
X335916652Y-119900000D02*
G01*
X336466652Y-119900000D01*
X336466652Y-120300000D01*
X336916652Y-120300000D01*
X336916652Y-120850000D01*
X336466652Y-120850000D01*
X336466652Y-121100000D01*
X335916652Y-121100000D01*
X335916652Y-119900000D01*
G37*
D11*
X334041652Y-120500000D03*
D12*
X335066652Y-120500000D03*
D10*
G36*
X323433319Y-120850000D02*
G01*
X322983319Y-120850000D01*
X322983319Y-120300000D01*
X323433319Y-120300000D01*
X323433319Y-119900000D01*
X323983319Y-119900000D01*
X323983319Y-121100000D01*
X323433319Y-121100000D01*
X323433319Y-120850000D01*
G37*
G36*
X326583319Y-119900000D02*
G01*
X327133319Y-119900000D01*
X327133319Y-120300000D01*
X327583319Y-120300000D01*
X327583319Y-120850000D01*
X327133319Y-120850000D01*
X327133319Y-121100000D01*
X326583319Y-121100000D01*
X326583319Y-119900000D01*
G37*
D11*
X324708319Y-120500000D03*
D12*
X325733319Y-120500000D03*
D10*
G36*
X314099986Y-120850000D02*
G01*
X313649986Y-120850000D01*
X313649986Y-120300000D01*
X314099986Y-120300000D01*
X314099986Y-119900000D01*
X314649986Y-119900000D01*
X314649986Y-121100000D01*
X314099986Y-121100000D01*
X314099986Y-120850000D01*
G37*
G36*
X317249986Y-119900000D02*
G01*
X317799986Y-119900000D01*
X317799986Y-120300000D01*
X318249986Y-120300000D01*
X318249986Y-120850000D01*
X317799986Y-120850000D01*
X317799986Y-121100000D01*
X317249986Y-121100000D01*
X317249986Y-119900000D01*
G37*
D11*
X315374986Y-120500000D03*
D12*
X316399986Y-120500000D03*
D10*
G36*
X304766653Y-120850000D02*
G01*
X304316653Y-120850000D01*
X304316653Y-120300000D01*
X304766653Y-120300000D01*
X304766653Y-119900000D01*
X305316653Y-119900000D01*
X305316653Y-121100000D01*
X304766653Y-121100000D01*
X304766653Y-120850000D01*
G37*
G36*
X307916653Y-119900000D02*
G01*
X308466653Y-119900000D01*
X308466653Y-120300000D01*
X308916653Y-120300000D01*
X308916653Y-120850000D01*
X308466653Y-120850000D01*
X308466653Y-121100000D01*
X307916653Y-121100000D01*
X307916653Y-119900000D01*
G37*
D11*
X306041653Y-120500000D03*
D12*
X307066653Y-120500000D03*
D10*
G36*
X295433320Y-120850000D02*
G01*
X294983320Y-120850000D01*
X294983320Y-120300000D01*
X295433320Y-120300000D01*
X295433320Y-119900000D01*
X295983320Y-119900000D01*
X295983320Y-121100000D01*
X295433320Y-121100000D01*
X295433320Y-120850000D01*
G37*
G36*
X298583320Y-119900000D02*
G01*
X299133320Y-119900000D01*
X299133320Y-120300000D01*
X299583320Y-120300000D01*
X299583320Y-120850000D01*
X299133320Y-120850000D01*
X299133320Y-121100000D01*
X298583320Y-121100000D01*
X298583320Y-119900000D01*
G37*
D11*
X296708320Y-120500000D03*
D12*
X297733320Y-120500000D03*
D10*
G36*
X286099987Y-120850000D02*
G01*
X285649987Y-120850000D01*
X285649987Y-120300000D01*
X286099987Y-120300000D01*
X286099987Y-119900000D01*
X286649987Y-119900000D01*
X286649987Y-121100000D01*
X286099987Y-121100000D01*
X286099987Y-120850000D01*
G37*
G36*
X289249987Y-119900000D02*
G01*
X289799987Y-119900000D01*
X289799987Y-120300000D01*
X290249987Y-120300000D01*
X290249987Y-120850000D01*
X289799987Y-120850000D01*
X289799987Y-121100000D01*
X289249987Y-121100000D01*
X289249987Y-119900000D01*
G37*
D11*
X287374987Y-120500000D03*
D12*
X288399987Y-120500000D03*
D10*
G36*
X276766654Y-120850000D02*
G01*
X276316654Y-120850000D01*
X276316654Y-120300000D01*
X276766654Y-120300000D01*
X276766654Y-119900000D01*
X277316654Y-119900000D01*
X277316654Y-121100000D01*
X276766654Y-121100000D01*
X276766654Y-120850000D01*
G37*
G36*
X279916654Y-119900000D02*
G01*
X280466654Y-119900000D01*
X280466654Y-120300000D01*
X280916654Y-120300000D01*
X280916654Y-120850000D01*
X280466654Y-120850000D01*
X280466654Y-121100000D01*
X279916654Y-121100000D01*
X279916654Y-119900000D01*
G37*
D11*
X278041654Y-120500000D03*
D12*
X279066654Y-120500000D03*
D10*
G36*
X267433321Y-120850000D02*
G01*
X266983321Y-120850000D01*
X266983321Y-120300000D01*
X267433321Y-120300000D01*
X267433321Y-119900000D01*
X267983321Y-119900000D01*
X267983321Y-121100000D01*
X267433321Y-121100000D01*
X267433321Y-120850000D01*
G37*
G36*
X270583321Y-119900000D02*
G01*
X271133321Y-119900000D01*
X271133321Y-120300000D01*
X271583321Y-120300000D01*
X271583321Y-120850000D01*
X271133321Y-120850000D01*
X271133321Y-121100000D01*
X270583321Y-121100000D01*
X270583321Y-119900000D01*
G37*
D11*
X268708321Y-120500000D03*
D12*
X269733321Y-120500000D03*
D10*
G36*
X258099988Y-120850000D02*
G01*
X257649988Y-120850000D01*
X257649988Y-120300000D01*
X258099988Y-120300000D01*
X258099988Y-119900000D01*
X258649988Y-119900000D01*
X258649988Y-121100000D01*
X258099988Y-121100000D01*
X258099988Y-120850000D01*
G37*
G36*
X261249988Y-119900000D02*
G01*
X261799988Y-119900000D01*
X261799988Y-120300000D01*
X262249988Y-120300000D01*
X262249988Y-120850000D01*
X261799988Y-120850000D01*
X261799988Y-121100000D01*
X261249988Y-121100000D01*
X261249988Y-119900000D01*
G37*
D11*
X259374988Y-120500000D03*
D12*
X260399988Y-120500000D03*
D10*
G36*
X248766655Y-120850000D02*
G01*
X248316655Y-120850000D01*
X248316655Y-120300000D01*
X248766655Y-120300000D01*
X248766655Y-119900000D01*
X249316655Y-119900000D01*
X249316655Y-121100000D01*
X248766655Y-121100000D01*
X248766655Y-120850000D01*
G37*
G36*
X251916655Y-119900000D02*
G01*
X252466655Y-119900000D01*
X252466655Y-120300000D01*
X252916655Y-120300000D01*
X252916655Y-120850000D01*
X252466655Y-120850000D01*
X252466655Y-121100000D01*
X251916655Y-121100000D01*
X251916655Y-119900000D01*
G37*
D11*
X250041655Y-120500000D03*
D12*
X251066655Y-120500000D03*
D10*
G36*
X239433322Y-120850000D02*
G01*
X238983322Y-120850000D01*
X238983322Y-120300000D01*
X239433322Y-120300000D01*
X239433322Y-119900000D01*
X239983322Y-119900000D01*
X239983322Y-121100000D01*
X239433322Y-121100000D01*
X239433322Y-120850000D01*
G37*
G36*
X242583322Y-119900000D02*
G01*
X243133322Y-119900000D01*
X243133322Y-120300000D01*
X243583322Y-120300000D01*
X243583322Y-120850000D01*
X243133322Y-120850000D01*
X243133322Y-121100000D01*
X242583322Y-121100000D01*
X242583322Y-119900000D01*
G37*
D11*
X240708322Y-120500000D03*
D12*
X241733322Y-120500000D03*
D10*
G36*
X230099989Y-120850000D02*
G01*
X229649989Y-120850000D01*
X229649989Y-120300000D01*
X230099989Y-120300000D01*
X230099989Y-119900000D01*
X230649989Y-119900000D01*
X230649989Y-121100000D01*
X230099989Y-121100000D01*
X230099989Y-120850000D01*
G37*
G36*
X233249989Y-119900000D02*
G01*
X233799989Y-119900000D01*
X233799989Y-120300000D01*
X234249989Y-120300000D01*
X234249989Y-120850000D01*
X233799989Y-120850000D01*
X233799989Y-121100000D01*
X233249989Y-121100000D01*
X233249989Y-119900000D01*
G37*
D11*
X231374989Y-120500000D03*
D12*
X232399989Y-120500000D03*
D10*
G36*
X220766656Y-120850000D02*
G01*
X220316656Y-120850000D01*
X220316656Y-120300000D01*
X220766656Y-120300000D01*
X220766656Y-119900000D01*
X221316656Y-119900000D01*
X221316656Y-121100000D01*
X220766656Y-121100000D01*
X220766656Y-120850000D01*
G37*
G36*
X223916656Y-119900000D02*
G01*
X224466656Y-119900000D01*
X224466656Y-120300000D01*
X224916656Y-120300000D01*
X224916656Y-120850000D01*
X224466656Y-120850000D01*
X224466656Y-121100000D01*
X223916656Y-121100000D01*
X223916656Y-119900000D01*
G37*
D11*
X222041656Y-120500000D03*
D12*
X223066656Y-120500000D03*
D10*
G36*
X211433323Y-120850000D02*
G01*
X210983323Y-120850000D01*
X210983323Y-120300000D01*
X211433323Y-120300000D01*
X211433323Y-119900000D01*
X211983323Y-119900000D01*
X211983323Y-121100000D01*
X211433323Y-121100000D01*
X211433323Y-120850000D01*
G37*
G36*
X214583323Y-119900000D02*
G01*
X215133323Y-119900000D01*
X215133323Y-120300000D01*
X215583323Y-120300000D01*
X215583323Y-120850000D01*
X215133323Y-120850000D01*
X215133323Y-121100000D01*
X214583323Y-121100000D01*
X214583323Y-119900000D01*
G37*
D11*
X212708323Y-120500000D03*
D12*
X213733323Y-120500000D03*
D10*
G36*
X202099990Y-120850000D02*
G01*
X201649990Y-120850000D01*
X201649990Y-120300000D01*
X202099990Y-120300000D01*
X202099990Y-119900000D01*
X202649990Y-119900000D01*
X202649990Y-121100000D01*
X202099990Y-121100000D01*
X202099990Y-120850000D01*
G37*
G36*
X205249990Y-119900000D02*
G01*
X205799990Y-119900000D01*
X205799990Y-120300000D01*
X206249990Y-120300000D01*
X206249990Y-120850000D01*
X205799990Y-120850000D01*
X205799990Y-121100000D01*
X205249990Y-121100000D01*
X205249990Y-119900000D01*
G37*
D11*
X203374990Y-120500000D03*
D12*
X204399990Y-120500000D03*
D10*
G36*
X192766657Y-120850000D02*
G01*
X192316657Y-120850000D01*
X192316657Y-120300000D01*
X192766657Y-120300000D01*
X192766657Y-119900000D01*
X193316657Y-119900000D01*
X193316657Y-121100000D01*
X192766657Y-121100000D01*
X192766657Y-120850000D01*
G37*
G36*
X195916657Y-119900000D02*
G01*
X196466657Y-119900000D01*
X196466657Y-120300000D01*
X196916657Y-120300000D01*
X196916657Y-120850000D01*
X196466657Y-120850000D01*
X196466657Y-121100000D01*
X195916657Y-121100000D01*
X195916657Y-119900000D01*
G37*
D11*
X194041657Y-120500000D03*
D12*
X195066657Y-120500000D03*
D10*
G36*
X183433324Y-120850000D02*
G01*
X182983324Y-120850000D01*
X182983324Y-120300000D01*
X183433324Y-120300000D01*
X183433324Y-119900000D01*
X183983324Y-119900000D01*
X183983324Y-121100000D01*
X183433324Y-121100000D01*
X183433324Y-120850000D01*
G37*
G36*
X186583324Y-119900000D02*
G01*
X187133324Y-119900000D01*
X187133324Y-120300000D01*
X187583324Y-120300000D01*
X187583324Y-120850000D01*
X187133324Y-120850000D01*
X187133324Y-121100000D01*
X186583324Y-121100000D01*
X186583324Y-119900000D01*
G37*
D11*
X184708324Y-120500000D03*
D12*
X185733324Y-120500000D03*
D10*
G36*
X174099991Y-120850000D02*
G01*
X173649991Y-120850000D01*
X173649991Y-120300000D01*
X174099991Y-120300000D01*
X174099991Y-119900000D01*
X174649991Y-119900000D01*
X174649991Y-121100000D01*
X174099991Y-121100000D01*
X174099991Y-120850000D01*
G37*
G36*
X177249991Y-119900000D02*
G01*
X177799991Y-119900000D01*
X177799991Y-120300000D01*
X178249991Y-120300000D01*
X178249991Y-120850000D01*
X177799991Y-120850000D01*
X177799991Y-121100000D01*
X177249991Y-121100000D01*
X177249991Y-119900000D01*
G37*
D11*
X175374991Y-120500000D03*
D12*
X176399991Y-120500000D03*
D10*
G36*
X164766658Y-120850000D02*
G01*
X164316658Y-120850000D01*
X164316658Y-120300000D01*
X164766658Y-120300000D01*
X164766658Y-119900000D01*
X165316658Y-119900000D01*
X165316658Y-121100000D01*
X164766658Y-121100000D01*
X164766658Y-120850000D01*
G37*
G36*
X167916658Y-119900000D02*
G01*
X168466658Y-119900000D01*
X168466658Y-120300000D01*
X168916658Y-120300000D01*
X168916658Y-120850000D01*
X168466658Y-120850000D01*
X168466658Y-121100000D01*
X167916658Y-121100000D01*
X167916658Y-119900000D01*
G37*
D11*
X166041658Y-120500000D03*
D12*
X167066658Y-120500000D03*
D10*
G36*
X155433325Y-120850000D02*
G01*
X154983325Y-120850000D01*
X154983325Y-120300000D01*
X155433325Y-120300000D01*
X155433325Y-119900000D01*
X155983325Y-119900000D01*
X155983325Y-121100000D01*
X155433325Y-121100000D01*
X155433325Y-120850000D01*
G37*
G36*
X158583325Y-119900000D02*
G01*
X159133325Y-119900000D01*
X159133325Y-120300000D01*
X159583325Y-120300000D01*
X159583325Y-120850000D01*
X159133325Y-120850000D01*
X159133325Y-121100000D01*
X158583325Y-121100000D01*
X158583325Y-119900000D01*
G37*
D11*
X156708325Y-120500000D03*
D12*
X157733325Y-120500000D03*
D10*
G36*
X146099992Y-120850000D02*
G01*
X145649992Y-120850000D01*
X145649992Y-120300000D01*
X146099992Y-120300000D01*
X146099992Y-119900000D01*
X146649992Y-119900000D01*
X146649992Y-121100000D01*
X146099992Y-121100000D01*
X146099992Y-120850000D01*
G37*
G36*
X149249992Y-119900000D02*
G01*
X149799992Y-119900000D01*
X149799992Y-120300000D01*
X150249992Y-120300000D01*
X150249992Y-120850000D01*
X149799992Y-120850000D01*
X149799992Y-121100000D01*
X149249992Y-121100000D01*
X149249992Y-119900000D01*
G37*
D11*
X147374992Y-120500000D03*
D12*
X148399992Y-120500000D03*
D10*
G36*
X136766659Y-120850000D02*
G01*
X136316659Y-120850000D01*
X136316659Y-120300000D01*
X136766659Y-120300000D01*
X136766659Y-119900000D01*
X137316659Y-119900000D01*
X137316659Y-121100000D01*
X136766659Y-121100000D01*
X136766659Y-120850000D01*
G37*
G36*
X139916659Y-119900000D02*
G01*
X140466659Y-119900000D01*
X140466659Y-120300000D01*
X140916659Y-120300000D01*
X140916659Y-120850000D01*
X140466659Y-120850000D01*
X140466659Y-121100000D01*
X139916659Y-121100000D01*
X139916659Y-119900000D01*
G37*
D11*
X138041659Y-120500000D03*
D12*
X139066659Y-120500000D03*
D10*
G36*
X127433326Y-120850000D02*
G01*
X126983326Y-120850000D01*
X126983326Y-120300000D01*
X127433326Y-120300000D01*
X127433326Y-119900000D01*
X127983326Y-119900000D01*
X127983326Y-121100000D01*
X127433326Y-121100000D01*
X127433326Y-120850000D01*
G37*
G36*
X130583326Y-119900000D02*
G01*
X131133326Y-119900000D01*
X131133326Y-120300000D01*
X131583326Y-120300000D01*
X131583326Y-120850000D01*
X131133326Y-120850000D01*
X131133326Y-121100000D01*
X130583326Y-121100000D01*
X130583326Y-119900000D01*
G37*
D11*
X128708326Y-120500000D03*
D12*
X129733326Y-120500000D03*
D10*
G36*
X118099993Y-120850000D02*
G01*
X117649993Y-120850000D01*
X117649993Y-120300000D01*
X118099993Y-120300000D01*
X118099993Y-119900000D01*
X118649993Y-119900000D01*
X118649993Y-121100000D01*
X118099993Y-121100000D01*
X118099993Y-120850000D01*
G37*
G36*
X121249993Y-119900000D02*
G01*
X121799993Y-119900000D01*
X121799993Y-120300000D01*
X122249993Y-120300000D01*
X122249993Y-120850000D01*
X121799993Y-120850000D01*
X121799993Y-121100000D01*
X121249993Y-121100000D01*
X121249993Y-119900000D01*
G37*
D11*
X119374993Y-120500000D03*
D12*
X120399993Y-120500000D03*
D10*
G36*
X108766660Y-120850000D02*
G01*
X108316660Y-120850000D01*
X108316660Y-120300000D01*
X108766660Y-120300000D01*
X108766660Y-119900000D01*
X109316660Y-119900000D01*
X109316660Y-121100000D01*
X108766660Y-121100000D01*
X108766660Y-120850000D01*
G37*
G36*
X111916660Y-119900000D02*
G01*
X112466660Y-119900000D01*
X112466660Y-120300000D01*
X112916660Y-120300000D01*
X112916660Y-120850000D01*
X112466660Y-120850000D01*
X112466660Y-121100000D01*
X111916660Y-121100000D01*
X111916660Y-119900000D01*
G37*
D11*
X110041660Y-120500000D03*
D12*
X111066660Y-120500000D03*
D10*
G36*
X99433327Y-120850000D02*
G01*
X98983327Y-120850000D01*
X98983327Y-120300000D01*
X99433327Y-120300000D01*
X99433327Y-119900000D01*
X99983327Y-119900000D01*
X99983327Y-121100000D01*
X99433327Y-121100000D01*
X99433327Y-120850000D01*
G37*
G36*
X102583327Y-119900000D02*
G01*
X103133327Y-119900000D01*
X103133327Y-120300000D01*
X103583327Y-120300000D01*
X103583327Y-120850000D01*
X103133327Y-120850000D01*
X103133327Y-121100000D01*
X102583327Y-121100000D01*
X102583327Y-119900000D01*
G37*
D11*
X100708327Y-120500000D03*
D12*
X101733327Y-120500000D03*
D10*
G36*
X90099994Y-120850000D02*
G01*
X89649994Y-120850000D01*
X89649994Y-120300000D01*
X90099994Y-120300000D01*
X90099994Y-119900000D01*
X90649994Y-119900000D01*
X90649994Y-121100000D01*
X90099994Y-121100000D01*
X90099994Y-120850000D01*
G37*
G36*
X93249994Y-119900000D02*
G01*
X93799994Y-119900000D01*
X93799994Y-120300000D01*
X94249994Y-120300000D01*
X94249994Y-120850000D01*
X93799994Y-120850000D01*
X93799994Y-121100000D01*
X93249994Y-121100000D01*
X93249994Y-119900000D01*
G37*
D11*
X91374994Y-120500000D03*
D12*
X92399994Y-120500000D03*
D10*
G36*
X80766661Y-120850000D02*
G01*
X80316661Y-120850000D01*
X80316661Y-120300000D01*
X80766661Y-120300000D01*
X80766661Y-119900000D01*
X81316661Y-119900000D01*
X81316661Y-121100000D01*
X80766661Y-121100000D01*
X80766661Y-120850000D01*
G37*
G36*
X83916661Y-119900000D02*
G01*
X84466661Y-119900000D01*
X84466661Y-120300000D01*
X84916661Y-120300000D01*
X84916661Y-120850000D01*
X84466661Y-120850000D01*
X84466661Y-121100000D01*
X83916661Y-121100000D01*
X83916661Y-119900000D01*
G37*
D11*
X82041661Y-120500000D03*
D12*
X83066661Y-120500000D03*
D10*
G36*
X71433328Y-120850000D02*
G01*
X70983328Y-120850000D01*
X70983328Y-120300000D01*
X71433328Y-120300000D01*
X71433328Y-119900000D01*
X71983328Y-119900000D01*
X71983328Y-121100000D01*
X71433328Y-121100000D01*
X71433328Y-120850000D01*
G37*
G36*
X74583328Y-119900000D02*
G01*
X75133328Y-119900000D01*
X75133328Y-120300000D01*
X75583328Y-120300000D01*
X75583328Y-120850000D01*
X75133328Y-120850000D01*
X75133328Y-121100000D01*
X74583328Y-121100000D01*
X74583328Y-119900000D01*
G37*
D11*
X72708328Y-120500000D03*
D12*
X73733328Y-120500000D03*
D10*
G36*
X62099995Y-120850000D02*
G01*
X61649995Y-120850000D01*
X61649995Y-120300000D01*
X62099995Y-120300000D01*
X62099995Y-119900000D01*
X62649995Y-119900000D01*
X62649995Y-121100000D01*
X62099995Y-121100000D01*
X62099995Y-120850000D01*
G37*
G36*
X65249995Y-119900000D02*
G01*
X65799995Y-119900000D01*
X65799995Y-120300000D01*
X66249995Y-120300000D01*
X66249995Y-120850000D01*
X65799995Y-120850000D01*
X65799995Y-121100000D01*
X65249995Y-121100000D01*
X65249995Y-119900000D01*
G37*
D11*
X63374995Y-120500000D03*
D12*
X64399995Y-120500000D03*
D10*
G36*
X52766662Y-120850000D02*
G01*
X52316662Y-120850000D01*
X52316662Y-120300000D01*
X52766662Y-120300000D01*
X52766662Y-119900000D01*
X53316662Y-119900000D01*
X53316662Y-121100000D01*
X52766662Y-121100000D01*
X52766662Y-120850000D01*
G37*
G36*
X55916662Y-119900000D02*
G01*
X56466662Y-119900000D01*
X56466662Y-120300000D01*
X56916662Y-120300000D01*
X56916662Y-120850000D01*
X56466662Y-120850000D01*
X56466662Y-121100000D01*
X55916662Y-121100000D01*
X55916662Y-119900000D01*
G37*
D11*
X54041662Y-120500000D03*
D12*
X55066662Y-120500000D03*
D10*
G36*
X43433329Y-120850000D02*
G01*
X42983329Y-120850000D01*
X42983329Y-120300000D01*
X43433329Y-120300000D01*
X43433329Y-119900000D01*
X43983329Y-119900000D01*
X43983329Y-121100000D01*
X43433329Y-121100000D01*
X43433329Y-120850000D01*
G37*
G36*
X46583329Y-119900000D02*
G01*
X47133329Y-119900000D01*
X47133329Y-120300000D01*
X47583329Y-120300000D01*
X47583329Y-120850000D01*
X47133329Y-120850000D01*
X47133329Y-121100000D01*
X46583329Y-121100000D01*
X46583329Y-119900000D01*
G37*
D11*
X44708329Y-120500000D03*
D12*
X45733329Y-120500000D03*
D10*
G36*
X34099996Y-120850000D02*
G01*
X33649996Y-120850000D01*
X33649996Y-120300000D01*
X34099996Y-120300000D01*
X34099996Y-119900000D01*
X34649996Y-119900000D01*
X34649996Y-121100000D01*
X34099996Y-121100000D01*
X34099996Y-120850000D01*
G37*
G36*
X37249996Y-119900000D02*
G01*
X37799996Y-119900000D01*
X37799996Y-120300000D01*
X38249996Y-120300000D01*
X38249996Y-120850000D01*
X37799996Y-120850000D01*
X37799996Y-121100000D01*
X37249996Y-121100000D01*
X37249996Y-119900000D01*
G37*
D11*
X35374996Y-120500000D03*
D12*
X36399996Y-120500000D03*
D10*
G36*
X24766663Y-120850000D02*
G01*
X24316663Y-120850000D01*
X24316663Y-120300000D01*
X24766663Y-120300000D01*
X24766663Y-119900000D01*
X25316663Y-119900000D01*
X25316663Y-121100000D01*
X24766663Y-121100000D01*
X24766663Y-120850000D01*
G37*
G36*
X27916663Y-119900000D02*
G01*
X28466663Y-119900000D01*
X28466663Y-120300000D01*
X28916663Y-120300000D01*
X28916663Y-120850000D01*
X28466663Y-120850000D01*
X28466663Y-121100000D01*
X27916663Y-121100000D01*
X27916663Y-119900000D01*
G37*
D11*
X26041663Y-120500000D03*
D12*
X27066663Y-120500000D03*
D10*
G36*
X15433330Y-120850000D02*
G01*
X14983330Y-120850000D01*
X14983330Y-120300000D01*
X15433330Y-120300000D01*
X15433330Y-119900000D01*
X15983330Y-119900000D01*
X15983330Y-121100000D01*
X15433330Y-121100000D01*
X15433330Y-120850000D01*
G37*
G36*
X18583330Y-119900000D02*
G01*
X19133330Y-119900000D01*
X19133330Y-120300000D01*
X19583330Y-120300000D01*
X19583330Y-120850000D01*
X19133330Y-120850000D01*
X19133330Y-121100000D01*
X18583330Y-121100000D01*
X18583330Y-119900000D01*
G37*
D11*
X16708330Y-120500000D03*
D12*
X17733330Y-120500000D03*
D10*
G36*
X6099997Y-120850000D02*
G01*
X5649997Y-120850000D01*
X5649997Y-120300000D01*
X6099997Y-120300000D01*
X6099997Y-119900000D01*
X6649997Y-119900000D01*
X6649997Y-121100000D01*
X6099997Y-121100000D01*
X6099997Y-120850000D01*
G37*
G36*
X9249997Y-119900000D02*
G01*
X9799997Y-119900000D01*
X9799997Y-120300000D01*
X10249997Y-120300000D01*
X10249997Y-120850000D01*
X9799997Y-120850000D01*
X9799997Y-121100000D01*
X9249997Y-121100000D01*
X9249997Y-119900000D01*
G37*
D11*
X7374997Y-120500000D03*
D12*
X8399997Y-120500000D03*
D10*
G36*
X-3233336Y-120850000D02*
G01*
X-3683336Y-120850000D01*
X-3683336Y-120300000D01*
X-3233336Y-120300000D01*
X-3233336Y-119900000D01*
X-2683336Y-119900000D01*
X-2683336Y-121100000D01*
X-3233336Y-121100000D01*
X-3233336Y-120850000D01*
G37*
G36*
X-83336Y-119900000D02*
G01*
X466664Y-119900000D01*
X466664Y-120300000D01*
X916664Y-120300000D01*
X916664Y-120850000D01*
X466664Y-120850000D01*
X466664Y-121100000D01*
X-83336Y-121100000D01*
X-83336Y-119900000D01*
G37*
D11*
X-1958336Y-120500000D03*
D12*
X-933336Y-120500000D03*
D10*
G36*
X-12566669Y-120850000D02*
G01*
X-13016669Y-120850000D01*
X-13016669Y-120300000D01*
X-12566669Y-120300000D01*
X-12566669Y-119900000D01*
X-12016669Y-119900000D01*
X-12016669Y-121100000D01*
X-12566669Y-121100000D01*
X-12566669Y-120850000D01*
G37*
G36*
X-9416669Y-119900000D02*
G01*
X-8866669Y-119900000D01*
X-8866669Y-120300000D01*
X-8416669Y-120300000D01*
X-8416669Y-120850000D01*
X-8866669Y-120850000D01*
X-8866669Y-121100000D01*
X-9416669Y-121100000D01*
X-9416669Y-119900000D01*
G37*
D11*
X-11291669Y-120500000D03*
D12*
X-10266669Y-120500000D03*
D10*
G36*
X-21900002Y-120850000D02*
G01*
X-22350002Y-120850000D01*
X-22350002Y-120300000D01*
X-21900002Y-120300000D01*
X-21900002Y-119900000D01*
X-21350002Y-119900000D01*
X-21350002Y-121100000D01*
X-21900002Y-121100000D01*
X-21900002Y-120850000D01*
G37*
G36*
X-18750002Y-119900000D02*
G01*
X-18200002Y-119900000D01*
X-18200002Y-120300000D01*
X-17750002Y-120300000D01*
X-17750002Y-120850000D01*
X-18200002Y-120850000D01*
X-18200002Y-121100000D01*
X-18750002Y-121100000D01*
X-18750002Y-119900000D01*
G37*
D11*
X-20625002Y-120500000D03*
D12*
X-19600002Y-120500000D03*
D10*
G36*
X-31233335Y-120850000D02*
G01*
X-31683335Y-120850000D01*
X-31683335Y-120300000D01*
X-31233335Y-120300000D01*
X-31233335Y-119900000D01*
X-30683335Y-119900000D01*
X-30683335Y-121100000D01*
X-31233335Y-121100000D01*
X-31233335Y-120850000D01*
G37*
G36*
X-28083335Y-119900000D02*
G01*
X-27533335Y-119900000D01*
X-27533335Y-120300000D01*
X-27083335Y-120300000D01*
X-27083335Y-120850000D01*
X-27533335Y-120850000D01*
X-27533335Y-121100000D01*
X-28083335Y-121100000D01*
X-28083335Y-119900000D01*
G37*
D11*
X-29958335Y-120500000D03*
D12*
X-28933335Y-120500000D03*
D10*
G36*
X-40566668Y-120850000D02*
G01*
X-41016668Y-120850000D01*
X-41016668Y-120300000D01*
X-40566668Y-120300000D01*
X-40566668Y-119900000D01*
X-40016668Y-119900000D01*
X-40016668Y-121100000D01*
X-40566668Y-121100000D01*
X-40566668Y-120850000D01*
G37*
G36*
X-37416668Y-119900000D02*
G01*
X-36866668Y-119900000D01*
X-36866668Y-120300000D01*
X-36416668Y-120300000D01*
X-36416668Y-120850000D01*
X-36866668Y-120850000D01*
X-36866668Y-121100000D01*
X-37416668Y-121100000D01*
X-37416668Y-119900000D01*
G37*
D11*
X-39291668Y-120500000D03*
D12*
X-38266668Y-120500000D03*
D10*
G36*
X-49900001Y-120850000D02*
G01*
X-50350001Y-120850000D01*
X-50350001Y-120300000D01*
X-49900001Y-120300000D01*
X-49900001Y-119900000D01*
X-49350001Y-119900000D01*
X-49350001Y-121100000D01*
X-49900001Y-121100000D01*
X-49900001Y-120850000D01*
G37*
G36*
X-46750001Y-119900000D02*
G01*
X-46200001Y-119900000D01*
X-46200001Y-120300000D01*
X-45750001Y-120300000D01*
X-45750001Y-120850000D01*
X-46200001Y-120850000D01*
X-46200001Y-121100000D01*
X-46750001Y-121100000D01*
X-46750001Y-119900000D01*
G37*
D11*
X-48625001Y-120500000D03*
D12*
X-47600001Y-120500000D03*
D10*
G36*
X-59233334Y-120850000D02*
G01*
X-59683334Y-120850000D01*
X-59683334Y-120300000D01*
X-59233334Y-120300000D01*
X-59233334Y-119900000D01*
X-58683334Y-119900000D01*
X-58683334Y-121100000D01*
X-59233334Y-121100000D01*
X-59233334Y-120850000D01*
G37*
G36*
X-56083334Y-119900000D02*
G01*
X-55533334Y-119900000D01*
X-55533334Y-120300000D01*
X-55083334Y-120300000D01*
X-55083334Y-120850000D01*
X-55533334Y-120850000D01*
X-55533334Y-121100000D01*
X-56083334Y-121100000D01*
X-56083334Y-119900000D01*
G37*
D11*
X-57958334Y-120500000D03*
D12*
X-56933334Y-120500000D03*
D10*
G36*
X-68566667Y-120850000D02*
G01*
X-69016667Y-120850000D01*
X-69016667Y-120300000D01*
X-68566667Y-120300000D01*
X-68566667Y-119900000D01*
X-68016667Y-119900000D01*
X-68016667Y-121100000D01*
X-68566667Y-121100000D01*
X-68566667Y-120850000D01*
G37*
G36*
X-65416667Y-119900000D02*
G01*
X-64866667Y-119900000D01*
X-64866667Y-120300000D01*
X-64416667Y-120300000D01*
X-64416667Y-120850000D01*
X-64866667Y-120850000D01*
X-64866667Y-121100000D01*
X-65416667Y-121100000D01*
X-65416667Y-119900000D01*
G37*
D11*
X-67291667Y-120500000D03*
D12*
X-66266667Y-120500000D03*
G36*
G01*
X363716667Y-124250000D02*
X363716667Y-123750000D01*
G75*
G02*
X363941667Y-123525000I225000J0D01*
G01*
X364391667Y-123525000D01*
G75*
G02*
X364616667Y-123750000I0J-225000D01*
G01*
X364616667Y-124250000D01*
G75*
G02*
X364391667Y-124475000I-225000J0D01*
G01*
X363941667Y-124475000D01*
G75*
G02*
X363716667Y-124250000I0J225000D01*
G01*
G37*
G36*
G01*
X362166667Y-124250000D02*
X362166667Y-123750000D01*
G75*
G02*
X362391667Y-123525000I225000J0D01*
G01*
X362841667Y-123525000D01*
G75*
G02*
X363066667Y-123750000I0J-225000D01*
G01*
X363066667Y-124250000D01*
G75*
G02*
X362841667Y-124475000I-225000J0D01*
G01*
X362391667Y-124475000D01*
G75*
G02*
X362166667Y-124250000I0J225000D01*
G01*
G37*
G36*
G01*
X354383318Y-124250000D02*
X354383318Y-123750000D01*
G75*
G02*
X354608318Y-123525000I225000J0D01*
G01*
X355058318Y-123525000D01*
G75*
G02*
X355283318Y-123750000I0J-225000D01*
G01*
X355283318Y-124250000D01*
G75*
G02*
X355058318Y-124475000I-225000J0D01*
G01*
X354608318Y-124475000D01*
G75*
G02*
X354383318Y-124250000I0J225000D01*
G01*
G37*
G36*
G01*
X352833318Y-124250000D02*
X352833318Y-123750000D01*
G75*
G02*
X353058318Y-123525000I225000J0D01*
G01*
X353508318Y-123525000D01*
G75*
G02*
X353733318Y-123750000I0J-225000D01*
G01*
X353733318Y-124250000D01*
G75*
G02*
X353508318Y-124475000I-225000J0D01*
G01*
X353058318Y-124475000D01*
G75*
G02*
X352833318Y-124250000I0J225000D01*
G01*
G37*
G36*
G01*
X345049985Y-124250000D02*
X345049985Y-123750000D01*
G75*
G02*
X345274985Y-123525000I225000J0D01*
G01*
X345724985Y-123525000D01*
G75*
G02*
X345949985Y-123750000I0J-225000D01*
G01*
X345949985Y-124250000D01*
G75*
G02*
X345724985Y-124475000I-225000J0D01*
G01*
X345274985Y-124475000D01*
G75*
G02*
X345049985Y-124250000I0J225000D01*
G01*
G37*
G36*
G01*
X343499985Y-124250000D02*
X343499985Y-123750000D01*
G75*
G02*
X343724985Y-123525000I225000J0D01*
G01*
X344174985Y-123525000D01*
G75*
G02*
X344399985Y-123750000I0J-225000D01*
G01*
X344399985Y-124250000D01*
G75*
G02*
X344174985Y-124475000I-225000J0D01*
G01*
X343724985Y-124475000D01*
G75*
G02*
X343499985Y-124250000I0J225000D01*
G01*
G37*
G36*
G01*
X335716652Y-124250000D02*
X335716652Y-123750000D01*
G75*
G02*
X335941652Y-123525000I225000J0D01*
G01*
X336391652Y-123525000D01*
G75*
G02*
X336616652Y-123750000I0J-225000D01*
G01*
X336616652Y-124250000D01*
G75*
G02*
X336391652Y-124475000I-225000J0D01*
G01*
X335941652Y-124475000D01*
G75*
G02*
X335716652Y-124250000I0J225000D01*
G01*
G37*
G36*
G01*
X334166652Y-124250000D02*
X334166652Y-123750000D01*
G75*
G02*
X334391652Y-123525000I225000J0D01*
G01*
X334841652Y-123525000D01*
G75*
G02*
X335066652Y-123750000I0J-225000D01*
G01*
X335066652Y-124250000D01*
G75*
G02*
X334841652Y-124475000I-225000J0D01*
G01*
X334391652Y-124475000D01*
G75*
G02*
X334166652Y-124250000I0J225000D01*
G01*
G37*
G36*
G01*
X326383319Y-124250000D02*
X326383319Y-123750000D01*
G75*
G02*
X326608319Y-123525000I225000J0D01*
G01*
X327058319Y-123525000D01*
G75*
G02*
X327283319Y-123750000I0J-225000D01*
G01*
X327283319Y-124250000D01*
G75*
G02*
X327058319Y-124475000I-225000J0D01*
G01*
X326608319Y-124475000D01*
G75*
G02*
X326383319Y-124250000I0J225000D01*
G01*
G37*
G36*
G01*
X324833319Y-124250000D02*
X324833319Y-123750000D01*
G75*
G02*
X325058319Y-123525000I225000J0D01*
G01*
X325508319Y-123525000D01*
G75*
G02*
X325733319Y-123750000I0J-225000D01*
G01*
X325733319Y-124250000D01*
G75*
G02*
X325508319Y-124475000I-225000J0D01*
G01*
X325058319Y-124475000D01*
G75*
G02*
X324833319Y-124250000I0J225000D01*
G01*
G37*
G36*
G01*
X317049986Y-124250000D02*
X317049986Y-123750000D01*
G75*
G02*
X317274986Y-123525000I225000J0D01*
G01*
X317724986Y-123525000D01*
G75*
G02*
X317949986Y-123750000I0J-225000D01*
G01*
X317949986Y-124250000D01*
G75*
G02*
X317724986Y-124475000I-225000J0D01*
G01*
X317274986Y-124475000D01*
G75*
G02*
X317049986Y-124250000I0J225000D01*
G01*
G37*
G36*
G01*
X315499986Y-124250000D02*
X315499986Y-123750000D01*
G75*
G02*
X315724986Y-123525000I225000J0D01*
G01*
X316174986Y-123525000D01*
G75*
G02*
X316399986Y-123750000I0J-225000D01*
G01*
X316399986Y-124250000D01*
G75*
G02*
X316174986Y-124475000I-225000J0D01*
G01*
X315724986Y-124475000D01*
G75*
G02*
X315499986Y-124250000I0J225000D01*
G01*
G37*
G36*
G01*
X307716653Y-124250000D02*
X307716653Y-123750000D01*
G75*
G02*
X307941653Y-123525000I225000J0D01*
G01*
X308391653Y-123525000D01*
G75*
G02*
X308616653Y-123750000I0J-225000D01*
G01*
X308616653Y-124250000D01*
G75*
G02*
X308391653Y-124475000I-225000J0D01*
G01*
X307941653Y-124475000D01*
G75*
G02*
X307716653Y-124250000I0J225000D01*
G01*
G37*
G36*
G01*
X306166653Y-124250000D02*
X306166653Y-123750000D01*
G75*
G02*
X306391653Y-123525000I225000J0D01*
G01*
X306841653Y-123525000D01*
G75*
G02*
X307066653Y-123750000I0J-225000D01*
G01*
X307066653Y-124250000D01*
G75*
G02*
X306841653Y-124475000I-225000J0D01*
G01*
X306391653Y-124475000D01*
G75*
G02*
X306166653Y-124250000I0J225000D01*
G01*
G37*
G36*
G01*
X298383320Y-124250000D02*
X298383320Y-123750000D01*
G75*
G02*
X298608320Y-123525000I225000J0D01*
G01*
X299058320Y-123525000D01*
G75*
G02*
X299283320Y-123750000I0J-225000D01*
G01*
X299283320Y-124250000D01*
G75*
G02*
X299058320Y-124475000I-225000J0D01*
G01*
X298608320Y-124475000D01*
G75*
G02*
X298383320Y-124250000I0J225000D01*
G01*
G37*
G36*
G01*
X296833320Y-124250000D02*
X296833320Y-123750000D01*
G75*
G02*
X297058320Y-123525000I225000J0D01*
G01*
X297508320Y-123525000D01*
G75*
G02*
X297733320Y-123750000I0J-225000D01*
G01*
X297733320Y-124250000D01*
G75*
G02*
X297508320Y-124475000I-225000J0D01*
G01*
X297058320Y-124475000D01*
G75*
G02*
X296833320Y-124250000I0J225000D01*
G01*
G37*
G36*
G01*
X289049987Y-124250000D02*
X289049987Y-123750000D01*
G75*
G02*
X289274987Y-123525000I225000J0D01*
G01*
X289724987Y-123525000D01*
G75*
G02*
X289949987Y-123750000I0J-225000D01*
G01*
X289949987Y-124250000D01*
G75*
G02*
X289724987Y-124475000I-225000J0D01*
G01*
X289274987Y-124475000D01*
G75*
G02*
X289049987Y-124250000I0J225000D01*
G01*
G37*
G36*
G01*
X287499987Y-124250000D02*
X287499987Y-123750000D01*
G75*
G02*
X287724987Y-123525000I225000J0D01*
G01*
X288174987Y-123525000D01*
G75*
G02*
X288399987Y-123750000I0J-225000D01*
G01*
X288399987Y-124250000D01*
G75*
G02*
X288174987Y-124475000I-225000J0D01*
G01*
X287724987Y-124475000D01*
G75*
G02*
X287499987Y-124250000I0J225000D01*
G01*
G37*
G36*
G01*
X278166654Y-124250000D02*
X278166654Y-123750000D01*
G75*
G02*
X278391654Y-123525000I225000J0D01*
G01*
X278841654Y-123525000D01*
G75*
G02*
X279066654Y-123750000I0J-225000D01*
G01*
X279066654Y-124250000D01*
G75*
G02*
X278841654Y-124475000I-225000J0D01*
G01*
X278391654Y-124475000D01*
G75*
G02*
X278166654Y-124250000I0J225000D01*
G01*
G37*
G36*
G01*
X279716654Y-124250000D02*
X279716654Y-123750000D01*
G75*
G02*
X279941654Y-123525000I225000J0D01*
G01*
X280391654Y-123525000D01*
G75*
G02*
X280616654Y-123750000I0J-225000D01*
G01*
X280616654Y-124250000D01*
G75*
G02*
X280391654Y-124475000I-225000J0D01*
G01*
X279941654Y-124475000D01*
G75*
G02*
X279716654Y-124250000I0J225000D01*
G01*
G37*
G36*
G01*
X268833321Y-124250000D02*
X268833321Y-123750000D01*
G75*
G02*
X269058321Y-123525000I225000J0D01*
G01*
X269508321Y-123525000D01*
G75*
G02*
X269733321Y-123750000I0J-225000D01*
G01*
X269733321Y-124250000D01*
G75*
G02*
X269508321Y-124475000I-225000J0D01*
G01*
X269058321Y-124475000D01*
G75*
G02*
X268833321Y-124250000I0J225000D01*
G01*
G37*
G36*
G01*
X270383321Y-124250000D02*
X270383321Y-123750000D01*
G75*
G02*
X270608321Y-123525000I225000J0D01*
G01*
X271058321Y-123525000D01*
G75*
G02*
X271283321Y-123750000I0J-225000D01*
G01*
X271283321Y-124250000D01*
G75*
G02*
X271058321Y-124475000I-225000J0D01*
G01*
X270608321Y-124475000D01*
G75*
G02*
X270383321Y-124250000I0J225000D01*
G01*
G37*
G36*
G01*
X259499988Y-124250000D02*
X259499988Y-123750000D01*
G75*
G02*
X259724988Y-123525000I225000J0D01*
G01*
X260174988Y-123525000D01*
G75*
G02*
X260399988Y-123750000I0J-225000D01*
G01*
X260399988Y-124250000D01*
G75*
G02*
X260174988Y-124475000I-225000J0D01*
G01*
X259724988Y-124475000D01*
G75*
G02*
X259499988Y-124250000I0J225000D01*
G01*
G37*
G36*
G01*
X261049988Y-124250000D02*
X261049988Y-123750000D01*
G75*
G02*
X261274988Y-123525000I225000J0D01*
G01*
X261724988Y-123525000D01*
G75*
G02*
X261949988Y-123750000I0J-225000D01*
G01*
X261949988Y-124250000D01*
G75*
G02*
X261724988Y-124475000I-225000J0D01*
G01*
X261274988Y-124475000D01*
G75*
G02*
X261049988Y-124250000I0J225000D01*
G01*
G37*
G36*
G01*
X250166655Y-124250000D02*
X250166655Y-123750000D01*
G75*
G02*
X250391655Y-123525000I225000J0D01*
G01*
X250841655Y-123525000D01*
G75*
G02*
X251066655Y-123750000I0J-225000D01*
G01*
X251066655Y-124250000D01*
G75*
G02*
X250841655Y-124475000I-225000J0D01*
G01*
X250391655Y-124475000D01*
G75*
G02*
X250166655Y-124250000I0J225000D01*
G01*
G37*
G36*
G01*
X251716655Y-124250000D02*
X251716655Y-123750000D01*
G75*
G02*
X251941655Y-123525000I225000J0D01*
G01*
X252391655Y-123525000D01*
G75*
G02*
X252616655Y-123750000I0J-225000D01*
G01*
X252616655Y-124250000D01*
G75*
G02*
X252391655Y-124475000I-225000J0D01*
G01*
X251941655Y-124475000D01*
G75*
G02*
X251716655Y-124250000I0J225000D01*
G01*
G37*
G36*
G01*
X240833322Y-124250000D02*
X240833322Y-123750000D01*
G75*
G02*
X241058322Y-123525000I225000J0D01*
G01*
X241508322Y-123525000D01*
G75*
G02*
X241733322Y-123750000I0J-225000D01*
G01*
X241733322Y-124250000D01*
G75*
G02*
X241508322Y-124475000I-225000J0D01*
G01*
X241058322Y-124475000D01*
G75*
G02*
X240833322Y-124250000I0J225000D01*
G01*
G37*
G36*
G01*
X242383322Y-124250000D02*
X242383322Y-123750000D01*
G75*
G02*
X242608322Y-123525000I225000J0D01*
G01*
X243058322Y-123525000D01*
G75*
G02*
X243283322Y-123750000I0J-225000D01*
G01*
X243283322Y-124250000D01*
G75*
G02*
X243058322Y-124475000I-225000J0D01*
G01*
X242608322Y-124475000D01*
G75*
G02*
X242383322Y-124250000I0J225000D01*
G01*
G37*
G36*
G01*
X231499989Y-124250000D02*
X231499989Y-123750000D01*
G75*
G02*
X231724989Y-123525000I225000J0D01*
G01*
X232174989Y-123525000D01*
G75*
G02*
X232399989Y-123750000I0J-225000D01*
G01*
X232399989Y-124250000D01*
G75*
G02*
X232174989Y-124475000I-225000J0D01*
G01*
X231724989Y-124475000D01*
G75*
G02*
X231499989Y-124250000I0J225000D01*
G01*
G37*
G36*
G01*
X233049989Y-124250000D02*
X233049989Y-123750000D01*
G75*
G02*
X233274989Y-123525000I225000J0D01*
G01*
X233724989Y-123525000D01*
G75*
G02*
X233949989Y-123750000I0J-225000D01*
G01*
X233949989Y-124250000D01*
G75*
G02*
X233724989Y-124475000I-225000J0D01*
G01*
X233274989Y-124475000D01*
G75*
G02*
X233049989Y-124250000I0J225000D01*
G01*
G37*
G36*
G01*
X222166656Y-124250000D02*
X222166656Y-123750000D01*
G75*
G02*
X222391656Y-123525000I225000J0D01*
G01*
X222841656Y-123525000D01*
G75*
G02*
X223066656Y-123750000I0J-225000D01*
G01*
X223066656Y-124250000D01*
G75*
G02*
X222841656Y-124475000I-225000J0D01*
G01*
X222391656Y-124475000D01*
G75*
G02*
X222166656Y-124250000I0J225000D01*
G01*
G37*
G36*
G01*
X223716656Y-124250000D02*
X223716656Y-123750000D01*
G75*
G02*
X223941656Y-123525000I225000J0D01*
G01*
X224391656Y-123525000D01*
G75*
G02*
X224616656Y-123750000I0J-225000D01*
G01*
X224616656Y-124250000D01*
G75*
G02*
X224391656Y-124475000I-225000J0D01*
G01*
X223941656Y-124475000D01*
G75*
G02*
X223716656Y-124250000I0J225000D01*
G01*
G37*
G36*
G01*
X212833323Y-124250000D02*
X212833323Y-123750000D01*
G75*
G02*
X213058323Y-123525000I225000J0D01*
G01*
X213508323Y-123525000D01*
G75*
G02*
X213733323Y-123750000I0J-225000D01*
G01*
X213733323Y-124250000D01*
G75*
G02*
X213508323Y-124475000I-225000J0D01*
G01*
X213058323Y-124475000D01*
G75*
G02*
X212833323Y-124250000I0J225000D01*
G01*
G37*
G36*
G01*
X214383323Y-124250000D02*
X214383323Y-123750000D01*
G75*
G02*
X214608323Y-123525000I225000J0D01*
G01*
X215058323Y-123525000D01*
G75*
G02*
X215283323Y-123750000I0J-225000D01*
G01*
X215283323Y-124250000D01*
G75*
G02*
X215058323Y-124475000I-225000J0D01*
G01*
X214608323Y-124475000D01*
G75*
G02*
X214383323Y-124250000I0J225000D01*
G01*
G37*
G36*
G01*
X203499990Y-124250000D02*
X203499990Y-123750000D01*
G75*
G02*
X203724990Y-123525000I225000J0D01*
G01*
X204174990Y-123525000D01*
G75*
G02*
X204399990Y-123750000I0J-225000D01*
G01*
X204399990Y-124250000D01*
G75*
G02*
X204174990Y-124475000I-225000J0D01*
G01*
X203724990Y-124475000D01*
G75*
G02*
X203499990Y-124250000I0J225000D01*
G01*
G37*
G36*
G01*
X205049990Y-124250000D02*
X205049990Y-123750000D01*
G75*
G02*
X205274990Y-123525000I225000J0D01*
G01*
X205724990Y-123525000D01*
G75*
G02*
X205949990Y-123750000I0J-225000D01*
G01*
X205949990Y-124250000D01*
G75*
G02*
X205724990Y-124475000I-225000J0D01*
G01*
X205274990Y-124475000D01*
G75*
G02*
X205049990Y-124250000I0J225000D01*
G01*
G37*
G36*
G01*
X194166657Y-124250000D02*
X194166657Y-123750000D01*
G75*
G02*
X194391657Y-123525000I225000J0D01*
G01*
X194841657Y-123525000D01*
G75*
G02*
X195066657Y-123750000I0J-225000D01*
G01*
X195066657Y-124250000D01*
G75*
G02*
X194841657Y-124475000I-225000J0D01*
G01*
X194391657Y-124475000D01*
G75*
G02*
X194166657Y-124250000I0J225000D01*
G01*
G37*
G36*
G01*
X195716657Y-124250000D02*
X195716657Y-123750000D01*
G75*
G02*
X195941657Y-123525000I225000J0D01*
G01*
X196391657Y-123525000D01*
G75*
G02*
X196616657Y-123750000I0J-225000D01*
G01*
X196616657Y-124250000D01*
G75*
G02*
X196391657Y-124475000I-225000J0D01*
G01*
X195941657Y-124475000D01*
G75*
G02*
X195716657Y-124250000I0J225000D01*
G01*
G37*
G36*
G01*
X184833324Y-124250000D02*
X184833324Y-123750000D01*
G75*
G02*
X185058324Y-123525000I225000J0D01*
G01*
X185508324Y-123525000D01*
G75*
G02*
X185733324Y-123750000I0J-225000D01*
G01*
X185733324Y-124250000D01*
G75*
G02*
X185508324Y-124475000I-225000J0D01*
G01*
X185058324Y-124475000D01*
G75*
G02*
X184833324Y-124250000I0J225000D01*
G01*
G37*
G36*
G01*
X186383324Y-124250000D02*
X186383324Y-123750000D01*
G75*
G02*
X186608324Y-123525000I225000J0D01*
G01*
X187058324Y-123525000D01*
G75*
G02*
X187283324Y-123750000I0J-225000D01*
G01*
X187283324Y-124250000D01*
G75*
G02*
X187058324Y-124475000I-225000J0D01*
G01*
X186608324Y-124475000D01*
G75*
G02*
X186383324Y-124250000I0J225000D01*
G01*
G37*
G36*
G01*
X175499991Y-124250000D02*
X175499991Y-123750000D01*
G75*
G02*
X175724991Y-123525000I225000J0D01*
G01*
X176174991Y-123525000D01*
G75*
G02*
X176399991Y-123750000I0J-225000D01*
G01*
X176399991Y-124250000D01*
G75*
G02*
X176174991Y-124475000I-225000J0D01*
G01*
X175724991Y-124475000D01*
G75*
G02*
X175499991Y-124250000I0J225000D01*
G01*
G37*
G36*
G01*
X177049991Y-124250000D02*
X177049991Y-123750000D01*
G75*
G02*
X177274991Y-123525000I225000J0D01*
G01*
X177724991Y-123525000D01*
G75*
G02*
X177949991Y-123750000I0J-225000D01*
G01*
X177949991Y-124250000D01*
G75*
G02*
X177724991Y-124475000I-225000J0D01*
G01*
X177274991Y-124475000D01*
G75*
G02*
X177049991Y-124250000I0J225000D01*
G01*
G37*
G36*
G01*
X166166658Y-124250000D02*
X166166658Y-123750000D01*
G75*
G02*
X166391658Y-123525000I225000J0D01*
G01*
X166841658Y-123525000D01*
G75*
G02*
X167066658Y-123750000I0J-225000D01*
G01*
X167066658Y-124250000D01*
G75*
G02*
X166841658Y-124475000I-225000J0D01*
G01*
X166391658Y-124475000D01*
G75*
G02*
X166166658Y-124250000I0J225000D01*
G01*
G37*
G36*
G01*
X167716658Y-124250000D02*
X167716658Y-123750000D01*
G75*
G02*
X167941658Y-123525000I225000J0D01*
G01*
X168391658Y-123525000D01*
G75*
G02*
X168616658Y-123750000I0J-225000D01*
G01*
X168616658Y-124250000D01*
G75*
G02*
X168391658Y-124475000I-225000J0D01*
G01*
X167941658Y-124475000D01*
G75*
G02*
X167716658Y-124250000I0J225000D01*
G01*
G37*
G36*
G01*
X156833325Y-124250000D02*
X156833325Y-123750000D01*
G75*
G02*
X157058325Y-123525000I225000J0D01*
G01*
X157508325Y-123525000D01*
G75*
G02*
X157733325Y-123750000I0J-225000D01*
G01*
X157733325Y-124250000D01*
G75*
G02*
X157508325Y-124475000I-225000J0D01*
G01*
X157058325Y-124475000D01*
G75*
G02*
X156833325Y-124250000I0J225000D01*
G01*
G37*
G36*
G01*
X158383325Y-124250000D02*
X158383325Y-123750000D01*
G75*
G02*
X158608325Y-123525000I225000J0D01*
G01*
X159058325Y-123525000D01*
G75*
G02*
X159283325Y-123750000I0J-225000D01*
G01*
X159283325Y-124250000D01*
G75*
G02*
X159058325Y-124475000I-225000J0D01*
G01*
X158608325Y-124475000D01*
G75*
G02*
X158383325Y-124250000I0J225000D01*
G01*
G37*
G36*
G01*
X147499992Y-124250000D02*
X147499992Y-123750000D01*
G75*
G02*
X147724992Y-123525000I225000J0D01*
G01*
X148174992Y-123525000D01*
G75*
G02*
X148399992Y-123750000I0J-225000D01*
G01*
X148399992Y-124250000D01*
G75*
G02*
X148174992Y-124475000I-225000J0D01*
G01*
X147724992Y-124475000D01*
G75*
G02*
X147499992Y-124250000I0J225000D01*
G01*
G37*
G36*
G01*
X149049992Y-124250000D02*
X149049992Y-123750000D01*
G75*
G02*
X149274992Y-123525000I225000J0D01*
G01*
X149724992Y-123525000D01*
G75*
G02*
X149949992Y-123750000I0J-225000D01*
G01*
X149949992Y-124250000D01*
G75*
G02*
X149724992Y-124475000I-225000J0D01*
G01*
X149274992Y-124475000D01*
G75*
G02*
X149049992Y-124250000I0J225000D01*
G01*
G37*
G36*
G01*
X138166659Y-124250000D02*
X138166659Y-123750000D01*
G75*
G02*
X138391659Y-123525000I225000J0D01*
G01*
X138841659Y-123525000D01*
G75*
G02*
X139066659Y-123750000I0J-225000D01*
G01*
X139066659Y-124250000D01*
G75*
G02*
X138841659Y-124475000I-225000J0D01*
G01*
X138391659Y-124475000D01*
G75*
G02*
X138166659Y-124250000I0J225000D01*
G01*
G37*
G36*
G01*
X139716659Y-124250000D02*
X139716659Y-123750000D01*
G75*
G02*
X139941659Y-123525000I225000J0D01*
G01*
X140391659Y-123525000D01*
G75*
G02*
X140616659Y-123750000I0J-225000D01*
G01*
X140616659Y-124250000D01*
G75*
G02*
X140391659Y-124475000I-225000J0D01*
G01*
X139941659Y-124475000D01*
G75*
G02*
X139716659Y-124250000I0J225000D01*
G01*
G37*
G36*
G01*
X128833326Y-124250000D02*
X128833326Y-123750000D01*
G75*
G02*
X129058326Y-123525000I225000J0D01*
G01*
X129508326Y-123525000D01*
G75*
G02*
X129733326Y-123750000I0J-225000D01*
G01*
X129733326Y-124250000D01*
G75*
G02*
X129508326Y-124475000I-225000J0D01*
G01*
X129058326Y-124475000D01*
G75*
G02*
X128833326Y-124250000I0J225000D01*
G01*
G37*
G36*
G01*
X130383326Y-124250000D02*
X130383326Y-123750000D01*
G75*
G02*
X130608326Y-123525000I225000J0D01*
G01*
X131058326Y-123525000D01*
G75*
G02*
X131283326Y-123750000I0J-225000D01*
G01*
X131283326Y-124250000D01*
G75*
G02*
X131058326Y-124475000I-225000J0D01*
G01*
X130608326Y-124475000D01*
G75*
G02*
X130383326Y-124250000I0J225000D01*
G01*
G37*
G36*
G01*
X119499993Y-124250000D02*
X119499993Y-123750000D01*
G75*
G02*
X119724993Y-123525000I225000J0D01*
G01*
X120174993Y-123525000D01*
G75*
G02*
X120399993Y-123750000I0J-225000D01*
G01*
X120399993Y-124250000D01*
G75*
G02*
X120174993Y-124475000I-225000J0D01*
G01*
X119724993Y-124475000D01*
G75*
G02*
X119499993Y-124250000I0J225000D01*
G01*
G37*
G36*
G01*
X121049993Y-124250000D02*
X121049993Y-123750000D01*
G75*
G02*
X121274993Y-123525000I225000J0D01*
G01*
X121724993Y-123525000D01*
G75*
G02*
X121949993Y-123750000I0J-225000D01*
G01*
X121949993Y-124250000D01*
G75*
G02*
X121724993Y-124475000I-225000J0D01*
G01*
X121274993Y-124475000D01*
G75*
G02*
X121049993Y-124250000I0J225000D01*
G01*
G37*
G36*
G01*
X110166660Y-124250000D02*
X110166660Y-123750000D01*
G75*
G02*
X110391660Y-123525000I225000J0D01*
G01*
X110841660Y-123525000D01*
G75*
G02*
X111066660Y-123750000I0J-225000D01*
G01*
X111066660Y-124250000D01*
G75*
G02*
X110841660Y-124475000I-225000J0D01*
G01*
X110391660Y-124475000D01*
G75*
G02*
X110166660Y-124250000I0J225000D01*
G01*
G37*
G36*
G01*
X111716660Y-124250000D02*
X111716660Y-123750000D01*
G75*
G02*
X111941660Y-123525000I225000J0D01*
G01*
X112391660Y-123525000D01*
G75*
G02*
X112616660Y-123750000I0J-225000D01*
G01*
X112616660Y-124250000D01*
G75*
G02*
X112391660Y-124475000I-225000J0D01*
G01*
X111941660Y-124475000D01*
G75*
G02*
X111716660Y-124250000I0J225000D01*
G01*
G37*
G36*
G01*
X100833327Y-124250000D02*
X100833327Y-123750000D01*
G75*
G02*
X101058327Y-123525000I225000J0D01*
G01*
X101508327Y-123525000D01*
G75*
G02*
X101733327Y-123750000I0J-225000D01*
G01*
X101733327Y-124250000D01*
G75*
G02*
X101508327Y-124475000I-225000J0D01*
G01*
X101058327Y-124475000D01*
G75*
G02*
X100833327Y-124250000I0J225000D01*
G01*
G37*
G36*
G01*
X102383327Y-124250000D02*
X102383327Y-123750000D01*
G75*
G02*
X102608327Y-123525000I225000J0D01*
G01*
X103058327Y-123525000D01*
G75*
G02*
X103283327Y-123750000I0J-225000D01*
G01*
X103283327Y-124250000D01*
G75*
G02*
X103058327Y-124475000I-225000J0D01*
G01*
X102608327Y-124475000D01*
G75*
G02*
X102383327Y-124250000I0J225000D01*
G01*
G37*
G36*
G01*
X91499994Y-124250000D02*
X91499994Y-123750000D01*
G75*
G02*
X91724994Y-123525000I225000J0D01*
G01*
X92174994Y-123525000D01*
G75*
G02*
X92399994Y-123750000I0J-225000D01*
G01*
X92399994Y-124250000D01*
G75*
G02*
X92174994Y-124475000I-225000J0D01*
G01*
X91724994Y-124475000D01*
G75*
G02*
X91499994Y-124250000I0J225000D01*
G01*
G37*
G36*
G01*
X93049994Y-124250000D02*
X93049994Y-123750000D01*
G75*
G02*
X93274994Y-123525000I225000J0D01*
G01*
X93724994Y-123525000D01*
G75*
G02*
X93949994Y-123750000I0J-225000D01*
G01*
X93949994Y-124250000D01*
G75*
G02*
X93724994Y-124475000I-225000J0D01*
G01*
X93274994Y-124475000D01*
G75*
G02*
X93049994Y-124250000I0J225000D01*
G01*
G37*
G36*
G01*
X82166661Y-124250000D02*
X82166661Y-123750000D01*
G75*
G02*
X82391661Y-123525000I225000J0D01*
G01*
X82841661Y-123525000D01*
G75*
G02*
X83066661Y-123750000I0J-225000D01*
G01*
X83066661Y-124250000D01*
G75*
G02*
X82841661Y-124475000I-225000J0D01*
G01*
X82391661Y-124475000D01*
G75*
G02*
X82166661Y-124250000I0J225000D01*
G01*
G37*
G36*
G01*
X83716661Y-124250000D02*
X83716661Y-123750000D01*
G75*
G02*
X83941661Y-123525000I225000J0D01*
G01*
X84391661Y-123525000D01*
G75*
G02*
X84616661Y-123750000I0J-225000D01*
G01*
X84616661Y-124250000D01*
G75*
G02*
X84391661Y-124475000I-225000J0D01*
G01*
X83941661Y-124475000D01*
G75*
G02*
X83716661Y-124250000I0J225000D01*
G01*
G37*
G36*
G01*
X72833328Y-124250000D02*
X72833328Y-123750000D01*
G75*
G02*
X73058328Y-123525000I225000J0D01*
G01*
X73508328Y-123525000D01*
G75*
G02*
X73733328Y-123750000I0J-225000D01*
G01*
X73733328Y-124250000D01*
G75*
G02*
X73508328Y-124475000I-225000J0D01*
G01*
X73058328Y-124475000D01*
G75*
G02*
X72833328Y-124250000I0J225000D01*
G01*
G37*
G36*
G01*
X74383328Y-124250000D02*
X74383328Y-123750000D01*
G75*
G02*
X74608328Y-123525000I225000J0D01*
G01*
X75058328Y-123525000D01*
G75*
G02*
X75283328Y-123750000I0J-225000D01*
G01*
X75283328Y-124250000D01*
G75*
G02*
X75058328Y-124475000I-225000J0D01*
G01*
X74608328Y-124475000D01*
G75*
G02*
X74383328Y-124250000I0J225000D01*
G01*
G37*
G36*
G01*
X63499995Y-124250000D02*
X63499995Y-123750000D01*
G75*
G02*
X63724995Y-123525000I225000J0D01*
G01*
X64174995Y-123525000D01*
G75*
G02*
X64399995Y-123750000I0J-225000D01*
G01*
X64399995Y-124250000D01*
G75*
G02*
X64174995Y-124475000I-225000J0D01*
G01*
X63724995Y-124475000D01*
G75*
G02*
X63499995Y-124250000I0J225000D01*
G01*
G37*
G36*
G01*
X65049995Y-124250000D02*
X65049995Y-123750000D01*
G75*
G02*
X65274995Y-123525000I225000J0D01*
G01*
X65724995Y-123525000D01*
G75*
G02*
X65949995Y-123750000I0J-225000D01*
G01*
X65949995Y-124250000D01*
G75*
G02*
X65724995Y-124475000I-225000J0D01*
G01*
X65274995Y-124475000D01*
G75*
G02*
X65049995Y-124250000I0J225000D01*
G01*
G37*
G36*
G01*
X54166662Y-124250000D02*
X54166662Y-123750000D01*
G75*
G02*
X54391662Y-123525000I225000J0D01*
G01*
X54841662Y-123525000D01*
G75*
G02*
X55066662Y-123750000I0J-225000D01*
G01*
X55066662Y-124250000D01*
G75*
G02*
X54841662Y-124475000I-225000J0D01*
G01*
X54391662Y-124475000D01*
G75*
G02*
X54166662Y-124250000I0J225000D01*
G01*
G37*
G36*
G01*
X55716662Y-124250000D02*
X55716662Y-123750000D01*
G75*
G02*
X55941662Y-123525000I225000J0D01*
G01*
X56391662Y-123525000D01*
G75*
G02*
X56616662Y-123750000I0J-225000D01*
G01*
X56616662Y-124250000D01*
G75*
G02*
X56391662Y-124475000I-225000J0D01*
G01*
X55941662Y-124475000D01*
G75*
G02*
X55716662Y-124250000I0J225000D01*
G01*
G37*
G36*
G01*
X44833329Y-124250000D02*
X44833329Y-123750000D01*
G75*
G02*
X45058329Y-123525000I225000J0D01*
G01*
X45508329Y-123525000D01*
G75*
G02*
X45733329Y-123750000I0J-225000D01*
G01*
X45733329Y-124250000D01*
G75*
G02*
X45508329Y-124475000I-225000J0D01*
G01*
X45058329Y-124475000D01*
G75*
G02*
X44833329Y-124250000I0J225000D01*
G01*
G37*
G36*
G01*
X46383329Y-124250000D02*
X46383329Y-123750000D01*
G75*
G02*
X46608329Y-123525000I225000J0D01*
G01*
X47058329Y-123525000D01*
G75*
G02*
X47283329Y-123750000I0J-225000D01*
G01*
X47283329Y-124250000D01*
G75*
G02*
X47058329Y-124475000I-225000J0D01*
G01*
X46608329Y-124475000D01*
G75*
G02*
X46383329Y-124250000I0J225000D01*
G01*
G37*
G36*
G01*
X35499996Y-124250000D02*
X35499996Y-123750000D01*
G75*
G02*
X35724996Y-123525000I225000J0D01*
G01*
X36174996Y-123525000D01*
G75*
G02*
X36399996Y-123750000I0J-225000D01*
G01*
X36399996Y-124250000D01*
G75*
G02*
X36174996Y-124475000I-225000J0D01*
G01*
X35724996Y-124475000D01*
G75*
G02*
X35499996Y-124250000I0J225000D01*
G01*
G37*
G36*
G01*
X37049996Y-124250000D02*
X37049996Y-123750000D01*
G75*
G02*
X37274996Y-123525000I225000J0D01*
G01*
X37724996Y-123525000D01*
G75*
G02*
X37949996Y-123750000I0J-225000D01*
G01*
X37949996Y-124250000D01*
G75*
G02*
X37724996Y-124475000I-225000J0D01*
G01*
X37274996Y-124475000D01*
G75*
G02*
X37049996Y-124250000I0J225000D01*
G01*
G37*
G36*
G01*
X26166663Y-124250000D02*
X26166663Y-123750000D01*
G75*
G02*
X26391663Y-123525000I225000J0D01*
G01*
X26841663Y-123525000D01*
G75*
G02*
X27066663Y-123750000I0J-225000D01*
G01*
X27066663Y-124250000D01*
G75*
G02*
X26841663Y-124475000I-225000J0D01*
G01*
X26391663Y-124475000D01*
G75*
G02*
X26166663Y-124250000I0J225000D01*
G01*
G37*
G36*
G01*
X27716663Y-124250000D02*
X27716663Y-123750000D01*
G75*
G02*
X27941663Y-123525000I225000J0D01*
G01*
X28391663Y-123525000D01*
G75*
G02*
X28616663Y-123750000I0J-225000D01*
G01*
X28616663Y-124250000D01*
G75*
G02*
X28391663Y-124475000I-225000J0D01*
G01*
X27941663Y-124475000D01*
G75*
G02*
X27716663Y-124250000I0J225000D01*
G01*
G37*
G36*
G01*
X18383330Y-124250000D02*
X18383330Y-123750000D01*
G75*
G02*
X18608330Y-123525000I225000J0D01*
G01*
X19058330Y-123525000D01*
G75*
G02*
X19283330Y-123750000I0J-225000D01*
G01*
X19283330Y-124250000D01*
G75*
G02*
X19058330Y-124475000I-225000J0D01*
G01*
X18608330Y-124475000D01*
G75*
G02*
X18383330Y-124250000I0J225000D01*
G01*
G37*
G36*
G01*
X16833330Y-124250000D02*
X16833330Y-123750000D01*
G75*
G02*
X17058330Y-123525000I225000J0D01*
G01*
X17508330Y-123525000D01*
G75*
G02*
X17733330Y-123750000I0J-225000D01*
G01*
X17733330Y-124250000D01*
G75*
G02*
X17508330Y-124475000I-225000J0D01*
G01*
X17058330Y-124475000D01*
G75*
G02*
X16833330Y-124250000I0J225000D01*
G01*
G37*
G36*
G01*
X7499997Y-124250000D02*
X7499997Y-123750000D01*
G75*
G02*
X7724997Y-123525000I225000J0D01*
G01*
X8174997Y-123525000D01*
G75*
G02*
X8399997Y-123750000I0J-225000D01*
G01*
X8399997Y-124250000D01*
G75*
G02*
X8174997Y-124475000I-225000J0D01*
G01*
X7724997Y-124475000D01*
G75*
G02*
X7499997Y-124250000I0J225000D01*
G01*
G37*
G36*
G01*
X9049997Y-124250000D02*
X9049997Y-123750000D01*
G75*
G02*
X9274997Y-123525000I225000J0D01*
G01*
X9724997Y-123525000D01*
G75*
G02*
X9949997Y-123750000I0J-225000D01*
G01*
X9949997Y-124250000D01*
G75*
G02*
X9724997Y-124475000I-225000J0D01*
G01*
X9274997Y-124475000D01*
G75*
G02*
X9049997Y-124250000I0J225000D01*
G01*
G37*
G36*
G01*
X-1833336Y-124250000D02*
X-1833336Y-123750000D01*
G75*
G02*
X-1608336Y-123525000I225000J0D01*
G01*
X-1158336Y-123525000D01*
G75*
G02*
X-933336Y-123750000I0J-225000D01*
G01*
X-933336Y-124250000D01*
G75*
G02*
X-1158336Y-124475000I-225000J0D01*
G01*
X-1608336Y-124475000D01*
G75*
G02*
X-1833336Y-124250000I0J225000D01*
G01*
G37*
G36*
G01*
X-283336Y-124250000D02*
X-283336Y-123750000D01*
G75*
G02*
X-58336Y-123525000I225000J0D01*
G01*
X391664Y-123525000D01*
G75*
G02*
X616664Y-123750000I0J-225000D01*
G01*
X616664Y-124250000D01*
G75*
G02*
X391664Y-124475000I-225000J0D01*
G01*
X-58336Y-124475000D01*
G75*
G02*
X-283336Y-124250000I0J225000D01*
G01*
G37*
G36*
G01*
X-11166669Y-124250000D02*
X-11166669Y-123750000D01*
G75*
G02*
X-10941669Y-123525000I225000J0D01*
G01*
X-10491669Y-123525000D01*
G75*
G02*
X-10266669Y-123750000I0J-225000D01*
G01*
X-10266669Y-124250000D01*
G75*
G02*
X-10491669Y-124475000I-225000J0D01*
G01*
X-10941669Y-124475000D01*
G75*
G02*
X-11166669Y-124250000I0J225000D01*
G01*
G37*
G36*
G01*
X-9616669Y-124250000D02*
X-9616669Y-123750000D01*
G75*
G02*
X-9391669Y-123525000I225000J0D01*
G01*
X-8941669Y-123525000D01*
G75*
G02*
X-8716669Y-123750000I0J-225000D01*
G01*
X-8716669Y-124250000D01*
G75*
G02*
X-8941669Y-124475000I-225000J0D01*
G01*
X-9391669Y-124475000D01*
G75*
G02*
X-9616669Y-124250000I0J225000D01*
G01*
G37*
G36*
G01*
X-20500002Y-124250000D02*
X-20500002Y-123750000D01*
G75*
G02*
X-20275002Y-123525000I225000J0D01*
G01*
X-19825002Y-123525000D01*
G75*
G02*
X-19600002Y-123750000I0J-225000D01*
G01*
X-19600002Y-124250000D01*
G75*
G02*
X-19825002Y-124475000I-225000J0D01*
G01*
X-20275002Y-124475000D01*
G75*
G02*
X-20500002Y-124250000I0J225000D01*
G01*
G37*
G36*
G01*
X-18950002Y-124250000D02*
X-18950002Y-123750000D01*
G75*
G02*
X-18725002Y-123525000I225000J0D01*
G01*
X-18275002Y-123525000D01*
G75*
G02*
X-18050002Y-123750000I0J-225000D01*
G01*
X-18050002Y-124250000D01*
G75*
G02*
X-18275002Y-124475000I-225000J0D01*
G01*
X-18725002Y-124475000D01*
G75*
G02*
X-18950002Y-124250000I0J225000D01*
G01*
G37*
G36*
G01*
X-29833335Y-124250000D02*
X-29833335Y-123750000D01*
G75*
G02*
X-29608335Y-123525000I225000J0D01*
G01*
X-29158335Y-123525000D01*
G75*
G02*
X-28933335Y-123750000I0J-225000D01*
G01*
X-28933335Y-124250000D01*
G75*
G02*
X-29158335Y-124475000I-225000J0D01*
G01*
X-29608335Y-124475000D01*
G75*
G02*
X-29833335Y-124250000I0J225000D01*
G01*
G37*
G36*
G01*
X-28283335Y-124250000D02*
X-28283335Y-123750000D01*
G75*
G02*
X-28058335Y-123525000I225000J0D01*
G01*
X-27608335Y-123525000D01*
G75*
G02*
X-27383335Y-123750000I0J-225000D01*
G01*
X-27383335Y-124250000D01*
G75*
G02*
X-27608335Y-124475000I-225000J0D01*
G01*
X-28058335Y-124475000D01*
G75*
G02*
X-28283335Y-124250000I0J225000D01*
G01*
G37*
G36*
G01*
X-39166668Y-124250000D02*
X-39166668Y-123750000D01*
G75*
G02*
X-38941668Y-123525000I225000J0D01*
G01*
X-38491668Y-123525000D01*
G75*
G02*
X-38266668Y-123750000I0J-225000D01*
G01*
X-38266668Y-124250000D01*
G75*
G02*
X-38491668Y-124475000I-225000J0D01*
G01*
X-38941668Y-124475000D01*
G75*
G02*
X-39166668Y-124250000I0J225000D01*
G01*
G37*
G36*
G01*
X-37616668Y-124250000D02*
X-37616668Y-123750000D01*
G75*
G02*
X-37391668Y-123525000I225000J0D01*
G01*
X-36941668Y-123525000D01*
G75*
G02*
X-36716668Y-123750000I0J-225000D01*
G01*
X-36716668Y-124250000D01*
G75*
G02*
X-36941668Y-124475000I-225000J0D01*
G01*
X-37391668Y-124475000D01*
G75*
G02*
X-37616668Y-124250000I0J225000D01*
G01*
G37*
G36*
G01*
X-48500001Y-124250000D02*
X-48500001Y-123750000D01*
G75*
G02*
X-48275001Y-123525000I225000J0D01*
G01*
X-47825001Y-123525000D01*
G75*
G02*
X-47600001Y-123750000I0J-225000D01*
G01*
X-47600001Y-124250000D01*
G75*
G02*
X-47825001Y-124475000I-225000J0D01*
G01*
X-48275001Y-124475000D01*
G75*
G02*
X-48500001Y-124250000I0J225000D01*
G01*
G37*
G36*
G01*
X-46950001Y-124250000D02*
X-46950001Y-123750000D01*
G75*
G02*
X-46725001Y-123525000I225000J0D01*
G01*
X-46275001Y-123525000D01*
G75*
G02*
X-46050001Y-123750000I0J-225000D01*
G01*
X-46050001Y-124250000D01*
G75*
G02*
X-46275001Y-124475000I-225000J0D01*
G01*
X-46725001Y-124475000D01*
G75*
G02*
X-46950001Y-124250000I0J225000D01*
G01*
G37*
G36*
G01*
X-57833334Y-124250000D02*
X-57833334Y-123750000D01*
G75*
G02*
X-57608334Y-123525000I225000J0D01*
G01*
X-57158334Y-123525000D01*
G75*
G02*
X-56933334Y-123750000I0J-225000D01*
G01*
X-56933334Y-124250000D01*
G75*
G02*
X-57158334Y-124475000I-225000J0D01*
G01*
X-57608334Y-124475000D01*
G75*
G02*
X-57833334Y-124250000I0J225000D01*
G01*
G37*
G36*
G01*
X-56283334Y-124250000D02*
X-56283334Y-123750000D01*
G75*
G02*
X-56058334Y-123525000I225000J0D01*
G01*
X-55608334Y-123525000D01*
G75*
G02*
X-55383334Y-123750000I0J-225000D01*
G01*
X-55383334Y-124250000D01*
G75*
G02*
X-55608334Y-124475000I-225000J0D01*
G01*
X-56058334Y-124475000D01*
G75*
G02*
X-56283334Y-124250000I0J225000D01*
G01*
G37*
G36*
G01*
X-67166667Y-124250000D02*
X-67166667Y-123750000D01*
G75*
G02*
X-66941667Y-123525000I225000J0D01*
G01*
X-66491667Y-123525000D01*
G75*
G02*
X-66266667Y-123750000I0J-225000D01*
G01*
X-66266667Y-124250000D01*
G75*
G02*
X-66491667Y-124475000I-225000J0D01*
G01*
X-66941667Y-124475000D01*
G75*
G02*
X-67166667Y-124250000I0J225000D01*
G01*
G37*
G36*
G01*
X-65616667Y-124250000D02*
X-65616667Y-123750000D01*
G75*
G02*
X-65391667Y-123525000I225000J0D01*
G01*
X-64941667Y-123525000D01*
G75*
G02*
X-64716667Y-123750000I0J-225000D01*
G01*
X-64716667Y-124250000D01*
G75*
G02*
X-64941667Y-124475000I-225000J0D01*
G01*
X-65391667Y-124475000D01*
G75*
G02*
X-65616667Y-124250000I0J225000D01*
G01*
G37*
D13*
X124460000Y-12890000D03*
X124460000Y-8890000D03*
X140335000Y-12890000D03*
X140335000Y-8890000D03*
G36*
G01*
X100560000Y-129055000D02*
X100560000Y-128755000D01*
G75*
G02*
X100710000Y-128605000I150000J0D01*
G01*
X102360000Y-128605000D01*
G75*
G02*
X102510000Y-128755000I0J-150000D01*
G01*
X102510000Y-129055000D01*
G75*
G02*
X102360000Y-129205000I-150000J0D01*
G01*
X100710000Y-129205000D01*
G75*
G02*
X100560000Y-129055000I0J150000D01*
G01*
G37*
G36*
G01*
X100560000Y-130325000D02*
X100560000Y-130025000D01*
G75*
G02*
X100710000Y-129875000I150000J0D01*
G01*
X102360000Y-129875000D01*
G75*
G02*
X102510000Y-130025000I0J-150000D01*
G01*
X102510000Y-130325000D01*
G75*
G02*
X102360000Y-130475000I-150000J0D01*
G01*
X100710000Y-130475000D01*
G75*
G02*
X100560000Y-130325000I0J150000D01*
G01*
G37*
G36*
G01*
X100560000Y-131595000D02*
X100560000Y-131295000D01*
G75*
G02*
X100710000Y-131145000I150000J0D01*
G01*
X102360000Y-131145000D01*
G75*
G02*
X102510000Y-131295000I0J-150000D01*
G01*
X102510000Y-131595000D01*
G75*
G02*
X102360000Y-131745000I-150000J0D01*
G01*
X100710000Y-131745000D01*
G75*
G02*
X100560000Y-131595000I0J150000D01*
G01*
G37*
G36*
G01*
X100560000Y-132865000D02*
X100560000Y-132565000D01*
G75*
G02*
X100710000Y-132415000I150000J0D01*
G01*
X102360000Y-132415000D01*
G75*
G02*
X102510000Y-132565000I0J-150000D01*
G01*
X102510000Y-132865000D01*
G75*
G02*
X102360000Y-133015000I-150000J0D01*
G01*
X100710000Y-133015000D01*
G75*
G02*
X100560000Y-132865000I0J150000D01*
G01*
G37*
G36*
G01*
X100560000Y-134135000D02*
X100560000Y-133835000D01*
G75*
G02*
X100710000Y-133685000I150000J0D01*
G01*
X102360000Y-133685000D01*
G75*
G02*
X102510000Y-133835000I0J-150000D01*
G01*
X102510000Y-134135000D01*
G75*
G02*
X102360000Y-134285000I-150000J0D01*
G01*
X100710000Y-134285000D01*
G75*
G02*
X100560000Y-134135000I0J150000D01*
G01*
G37*
G36*
G01*
X100560000Y-135405000D02*
X100560000Y-135105000D01*
G75*
G02*
X100710000Y-134955000I150000J0D01*
G01*
X102360000Y-134955000D01*
G75*
G02*
X102510000Y-135105000I0J-150000D01*
G01*
X102510000Y-135405000D01*
G75*
G02*
X102360000Y-135555000I-150000J0D01*
G01*
X100710000Y-135555000D01*
G75*
G02*
X100560000Y-135405000I0J150000D01*
G01*
G37*
G36*
G01*
X100560000Y-136675000D02*
X100560000Y-136375000D01*
G75*
G02*
X100710000Y-136225000I150000J0D01*
G01*
X102360000Y-136225000D01*
G75*
G02*
X102510000Y-136375000I0J-150000D01*
G01*
X102510000Y-136675000D01*
G75*
G02*
X102360000Y-136825000I-150000J0D01*
G01*
X100710000Y-136825000D01*
G75*
G02*
X100560000Y-136675000I0J150000D01*
G01*
G37*
G36*
G01*
X100560000Y-137945000D02*
X100560000Y-137645000D01*
G75*
G02*
X100710000Y-137495000I150000J0D01*
G01*
X102360000Y-137495000D01*
G75*
G02*
X102510000Y-137645000I0J-150000D01*
G01*
X102510000Y-137945000D01*
G75*
G02*
X102360000Y-138095000I-150000J0D01*
G01*
X100710000Y-138095000D01*
G75*
G02*
X100560000Y-137945000I0J150000D01*
G01*
G37*
G36*
G01*
X95610000Y-137945000D02*
X95610000Y-137645000D01*
G75*
G02*
X95760000Y-137495000I150000J0D01*
G01*
X97410000Y-137495000D01*
G75*
G02*
X97560000Y-137645000I0J-150000D01*
G01*
X97560000Y-137945000D01*
G75*
G02*
X97410000Y-138095000I-150000J0D01*
G01*
X95760000Y-138095000D01*
G75*
G02*
X95610000Y-137945000I0J150000D01*
G01*
G37*
G36*
G01*
X95610000Y-136675000D02*
X95610000Y-136375000D01*
G75*
G02*
X95760000Y-136225000I150000J0D01*
G01*
X97410000Y-136225000D01*
G75*
G02*
X97560000Y-136375000I0J-150000D01*
G01*
X97560000Y-136675000D01*
G75*
G02*
X97410000Y-136825000I-150000J0D01*
G01*
X95760000Y-136825000D01*
G75*
G02*
X95610000Y-136675000I0J150000D01*
G01*
G37*
G36*
G01*
X95610000Y-135405000D02*
X95610000Y-135105000D01*
G75*
G02*
X95760000Y-134955000I150000J0D01*
G01*
X97410000Y-134955000D01*
G75*
G02*
X97560000Y-135105000I0J-150000D01*
G01*
X97560000Y-135405000D01*
G75*
G02*
X97410000Y-135555000I-150000J0D01*
G01*
X95760000Y-135555000D01*
G75*
G02*
X95610000Y-135405000I0J150000D01*
G01*
G37*
G36*
G01*
X95610000Y-134135000D02*
X95610000Y-133835000D01*
G75*
G02*
X95760000Y-133685000I150000J0D01*
G01*
X97410000Y-133685000D01*
G75*
G02*
X97560000Y-133835000I0J-150000D01*
G01*
X97560000Y-134135000D01*
G75*
G02*
X97410000Y-134285000I-150000J0D01*
G01*
X95760000Y-134285000D01*
G75*
G02*
X95610000Y-134135000I0J150000D01*
G01*
G37*
G36*
G01*
X95610000Y-132865000D02*
X95610000Y-132565000D01*
G75*
G02*
X95760000Y-132415000I150000J0D01*
G01*
X97410000Y-132415000D01*
G75*
G02*
X97560000Y-132565000I0J-150000D01*
G01*
X97560000Y-132865000D01*
G75*
G02*
X97410000Y-133015000I-150000J0D01*
G01*
X95760000Y-133015000D01*
G75*
G02*
X95610000Y-132865000I0J150000D01*
G01*
G37*
G36*
G01*
X95610000Y-131595000D02*
X95610000Y-131295000D01*
G75*
G02*
X95760000Y-131145000I150000J0D01*
G01*
X97410000Y-131145000D01*
G75*
G02*
X97560000Y-131295000I0J-150000D01*
G01*
X97560000Y-131595000D01*
G75*
G02*
X97410000Y-131745000I-150000J0D01*
G01*
X95760000Y-131745000D01*
G75*
G02*
X95610000Y-131595000I0J150000D01*
G01*
G37*
G36*
G01*
X95610000Y-130325000D02*
X95610000Y-130025000D01*
G75*
G02*
X95760000Y-129875000I150000J0D01*
G01*
X97410000Y-129875000D01*
G75*
G02*
X97560000Y-130025000I0J-150000D01*
G01*
X97560000Y-130325000D01*
G75*
G02*
X97410000Y-130475000I-150000J0D01*
G01*
X95760000Y-130475000D01*
G75*
G02*
X95610000Y-130325000I0J150000D01*
G01*
G37*
G36*
G01*
X95610000Y-129055000D02*
X95610000Y-128755000D01*
G75*
G02*
X95760000Y-128605000I150000J0D01*
G01*
X97410000Y-128605000D01*
G75*
G02*
X97560000Y-128755000I0J-150000D01*
G01*
X97560000Y-129055000D01*
G75*
G02*
X97410000Y-129205000I-150000J0D01*
G01*
X95760000Y-129205000D01*
G75*
G02*
X95610000Y-129055000I0J150000D01*
G01*
G37*
G36*
G01*
X149115000Y-17275000D02*
X149115000Y-16725000D01*
G75*
G02*
X149315000Y-16525000I200000J0D01*
G01*
X149715000Y-16525000D01*
G75*
G02*
X149915000Y-16725000I0J-200000D01*
G01*
X149915000Y-17275000D01*
G75*
G02*
X149715000Y-17475000I-200000J0D01*
G01*
X149315000Y-17475000D01*
G75*
G02*
X149115000Y-17275000I0J200000D01*
G01*
G37*
G36*
G01*
X150765000Y-17275000D02*
X150765000Y-16725000D01*
G75*
G02*
X150965000Y-16525000I200000J0D01*
G01*
X151365000Y-16525000D01*
G75*
G02*
X151565000Y-16725000I0J-200000D01*
G01*
X151565000Y-17275000D01*
G75*
G02*
X151365000Y-17475000I-200000J0D01*
G01*
X150965000Y-17475000D01*
G75*
G02*
X150765000Y-17275000I0J200000D01*
G01*
G37*
G36*
G01*
X149115000Y-15275000D02*
X149115000Y-14725000D01*
G75*
G02*
X149315000Y-14525000I200000J0D01*
G01*
X149715000Y-14525000D01*
G75*
G02*
X149915000Y-14725000I0J-200000D01*
G01*
X149915000Y-15275000D01*
G75*
G02*
X149715000Y-15475000I-200000J0D01*
G01*
X149315000Y-15475000D01*
G75*
G02*
X149115000Y-15275000I0J200000D01*
G01*
G37*
G36*
G01*
X150765000Y-15275000D02*
X150765000Y-14725000D01*
G75*
G02*
X150965000Y-14525000I200000J0D01*
G01*
X151365000Y-14525000D01*
G75*
G02*
X151565000Y-14725000I0J-200000D01*
G01*
X151565000Y-15275000D01*
G75*
G02*
X151365000Y-15475000I-200000J0D01*
G01*
X150965000Y-15475000D01*
G75*
G02*
X150765000Y-15275000I0J200000D01*
G01*
G37*
G36*
G01*
X324080000Y-129055000D02*
X324080000Y-128755000D01*
G75*
G02*
X324230000Y-128605000I150000J0D01*
G01*
X325880000Y-128605000D01*
G75*
G02*
X326030000Y-128755000I0J-150000D01*
G01*
X326030000Y-129055000D01*
G75*
G02*
X325880000Y-129205000I-150000J0D01*
G01*
X324230000Y-129205000D01*
G75*
G02*
X324080000Y-129055000I0J150000D01*
G01*
G37*
G36*
G01*
X324080000Y-130325000D02*
X324080000Y-130025000D01*
G75*
G02*
X324230000Y-129875000I150000J0D01*
G01*
X325880000Y-129875000D01*
G75*
G02*
X326030000Y-130025000I0J-150000D01*
G01*
X326030000Y-130325000D01*
G75*
G02*
X325880000Y-130475000I-150000J0D01*
G01*
X324230000Y-130475000D01*
G75*
G02*
X324080000Y-130325000I0J150000D01*
G01*
G37*
G36*
G01*
X324080000Y-131595000D02*
X324080000Y-131295000D01*
G75*
G02*
X324230000Y-131145000I150000J0D01*
G01*
X325880000Y-131145000D01*
G75*
G02*
X326030000Y-131295000I0J-150000D01*
G01*
X326030000Y-131595000D01*
G75*
G02*
X325880000Y-131745000I-150000J0D01*
G01*
X324230000Y-131745000D01*
G75*
G02*
X324080000Y-131595000I0J150000D01*
G01*
G37*
G36*
G01*
X324080000Y-132865000D02*
X324080000Y-132565000D01*
G75*
G02*
X324230000Y-132415000I150000J0D01*
G01*
X325880000Y-132415000D01*
G75*
G02*
X326030000Y-132565000I0J-150000D01*
G01*
X326030000Y-132865000D01*
G75*
G02*
X325880000Y-133015000I-150000J0D01*
G01*
X324230000Y-133015000D01*
G75*
G02*
X324080000Y-132865000I0J150000D01*
G01*
G37*
G36*
G01*
X324080000Y-134135000D02*
X324080000Y-133835000D01*
G75*
G02*
X324230000Y-133685000I150000J0D01*
G01*
X325880000Y-133685000D01*
G75*
G02*
X326030000Y-133835000I0J-150000D01*
G01*
X326030000Y-134135000D01*
G75*
G02*
X325880000Y-134285000I-150000J0D01*
G01*
X324230000Y-134285000D01*
G75*
G02*
X324080000Y-134135000I0J150000D01*
G01*
G37*
G36*
G01*
X324080000Y-135405000D02*
X324080000Y-135105000D01*
G75*
G02*
X324230000Y-134955000I150000J0D01*
G01*
X325880000Y-134955000D01*
G75*
G02*
X326030000Y-135105000I0J-150000D01*
G01*
X326030000Y-135405000D01*
G75*
G02*
X325880000Y-135555000I-150000J0D01*
G01*
X324230000Y-135555000D01*
G75*
G02*
X324080000Y-135405000I0J150000D01*
G01*
G37*
G36*
G01*
X324080000Y-136675000D02*
X324080000Y-136375000D01*
G75*
G02*
X324230000Y-136225000I150000J0D01*
G01*
X325880000Y-136225000D01*
G75*
G02*
X326030000Y-136375000I0J-150000D01*
G01*
X326030000Y-136675000D01*
G75*
G02*
X325880000Y-136825000I-150000J0D01*
G01*
X324230000Y-136825000D01*
G75*
G02*
X324080000Y-136675000I0J150000D01*
G01*
G37*
G36*
G01*
X324080000Y-137945000D02*
X324080000Y-137645000D01*
G75*
G02*
X324230000Y-137495000I150000J0D01*
G01*
X325880000Y-137495000D01*
G75*
G02*
X326030000Y-137645000I0J-150000D01*
G01*
X326030000Y-137945000D01*
G75*
G02*
X325880000Y-138095000I-150000J0D01*
G01*
X324230000Y-138095000D01*
G75*
G02*
X324080000Y-137945000I0J150000D01*
G01*
G37*
G36*
G01*
X319130000Y-137945000D02*
X319130000Y-137645000D01*
G75*
G02*
X319280000Y-137495000I150000J0D01*
G01*
X320930000Y-137495000D01*
G75*
G02*
X321080000Y-137645000I0J-150000D01*
G01*
X321080000Y-137945000D01*
G75*
G02*
X320930000Y-138095000I-150000J0D01*
G01*
X319280000Y-138095000D01*
G75*
G02*
X319130000Y-137945000I0J150000D01*
G01*
G37*
G36*
G01*
X319130000Y-136675000D02*
X319130000Y-136375000D01*
G75*
G02*
X319280000Y-136225000I150000J0D01*
G01*
X320930000Y-136225000D01*
G75*
G02*
X321080000Y-136375000I0J-150000D01*
G01*
X321080000Y-136675000D01*
G75*
G02*
X320930000Y-136825000I-150000J0D01*
G01*
X319280000Y-136825000D01*
G75*
G02*
X319130000Y-136675000I0J150000D01*
G01*
G37*
G36*
G01*
X319130000Y-135405000D02*
X319130000Y-135105000D01*
G75*
G02*
X319280000Y-134955000I150000J0D01*
G01*
X320930000Y-134955000D01*
G75*
G02*
X321080000Y-135105000I0J-150000D01*
G01*
X321080000Y-135405000D01*
G75*
G02*
X320930000Y-135555000I-150000J0D01*
G01*
X319280000Y-135555000D01*
G75*
G02*
X319130000Y-135405000I0J150000D01*
G01*
G37*
G36*
G01*
X319130000Y-134135000D02*
X319130000Y-133835000D01*
G75*
G02*
X319280000Y-133685000I150000J0D01*
G01*
X320930000Y-133685000D01*
G75*
G02*
X321080000Y-133835000I0J-150000D01*
G01*
X321080000Y-134135000D01*
G75*
G02*
X320930000Y-134285000I-150000J0D01*
G01*
X319280000Y-134285000D01*
G75*
G02*
X319130000Y-134135000I0J150000D01*
G01*
G37*
G36*
G01*
X319130000Y-132865000D02*
X319130000Y-132565000D01*
G75*
G02*
X319280000Y-132415000I150000J0D01*
G01*
X320930000Y-132415000D01*
G75*
G02*
X321080000Y-132565000I0J-150000D01*
G01*
X321080000Y-132865000D01*
G75*
G02*
X320930000Y-133015000I-150000J0D01*
G01*
X319280000Y-133015000D01*
G75*
G02*
X319130000Y-132865000I0J150000D01*
G01*
G37*
G36*
G01*
X319130000Y-131595000D02*
X319130000Y-131295000D01*
G75*
G02*
X319280000Y-131145000I150000J0D01*
G01*
X320930000Y-131145000D01*
G75*
G02*
X321080000Y-131295000I0J-150000D01*
G01*
X321080000Y-131595000D01*
G75*
G02*
X320930000Y-131745000I-150000J0D01*
G01*
X319280000Y-131745000D01*
G75*
G02*
X319130000Y-131595000I0J150000D01*
G01*
G37*
G36*
G01*
X319130000Y-130325000D02*
X319130000Y-130025000D01*
G75*
G02*
X319280000Y-129875000I150000J0D01*
G01*
X320930000Y-129875000D01*
G75*
G02*
X321080000Y-130025000I0J-150000D01*
G01*
X321080000Y-130325000D01*
G75*
G02*
X320930000Y-130475000I-150000J0D01*
G01*
X319280000Y-130475000D01*
G75*
G02*
X319130000Y-130325000I0J150000D01*
G01*
G37*
G36*
G01*
X319130000Y-129055000D02*
X319130000Y-128755000D01*
G75*
G02*
X319280000Y-128605000I150000J0D01*
G01*
X320930000Y-128605000D01*
G75*
G02*
X321080000Y-128755000I0J-150000D01*
G01*
X321080000Y-129055000D01*
G75*
G02*
X320930000Y-129205000I-150000J0D01*
G01*
X319280000Y-129205000D01*
G75*
G02*
X319130000Y-129055000I0J150000D01*
G01*
G37*
G36*
G01*
X321850000Y-127250000D02*
X321850000Y-126750000D01*
G75*
G02*
X322075000Y-126525000I225000J0D01*
G01*
X322525000Y-126525000D01*
G75*
G02*
X322750000Y-126750000I0J-225000D01*
G01*
X322750000Y-127250000D01*
G75*
G02*
X322525000Y-127475000I-225000J0D01*
G01*
X322075000Y-127475000D01*
G75*
G02*
X321850000Y-127250000I0J225000D01*
G01*
G37*
G36*
G01*
X323400000Y-127250000D02*
X323400000Y-126750000D01*
G75*
G02*
X323625000Y-126525000I225000J0D01*
G01*
X324075000Y-126525000D01*
G75*
G02*
X324300000Y-126750000I0J-225000D01*
G01*
X324300000Y-127250000D01*
G75*
G02*
X324075000Y-127475000I-225000J0D01*
G01*
X323625000Y-127475000D01*
G75*
G02*
X323400000Y-127250000I0J225000D01*
G01*
G37*
G36*
G01*
X-18055000Y-136505000D02*
X-17505000Y-136505000D01*
G75*
G02*
X-17305000Y-136705000I0J-200000D01*
G01*
X-17305000Y-137105000D01*
G75*
G02*
X-17505000Y-137305000I-200000J0D01*
G01*
X-18055000Y-137305000D01*
G75*
G02*
X-18255000Y-137105000I0J200000D01*
G01*
X-18255000Y-136705000D01*
G75*
G02*
X-18055000Y-136505000I200000J0D01*
G01*
G37*
G36*
G01*
X-18055000Y-134855000D02*
X-17505000Y-134855000D01*
G75*
G02*
X-17305000Y-135055000I0J-200000D01*
G01*
X-17305000Y-135455000D01*
G75*
G02*
X-17505000Y-135655000I-200000J0D01*
G01*
X-18055000Y-135655000D01*
G75*
G02*
X-18255000Y-135455000I0J200000D01*
G01*
X-18255000Y-135055000D01*
G75*
G02*
X-18055000Y-134855000I200000J0D01*
G01*
G37*
G36*
G01*
X-11200000Y-129055000D02*
X-11200000Y-128755000D01*
G75*
G02*
X-11050000Y-128605000I150000J0D01*
G01*
X-9400000Y-128605000D01*
G75*
G02*
X-9250000Y-128755000I0J-150000D01*
G01*
X-9250000Y-129055000D01*
G75*
G02*
X-9400000Y-129205000I-150000J0D01*
G01*
X-11050000Y-129205000D01*
G75*
G02*
X-11200000Y-129055000I0J150000D01*
G01*
G37*
G36*
G01*
X-11200000Y-130325000D02*
X-11200000Y-130025000D01*
G75*
G02*
X-11050000Y-129875000I150000J0D01*
G01*
X-9400000Y-129875000D01*
G75*
G02*
X-9250000Y-130025000I0J-150000D01*
G01*
X-9250000Y-130325000D01*
G75*
G02*
X-9400000Y-130475000I-150000J0D01*
G01*
X-11050000Y-130475000D01*
G75*
G02*
X-11200000Y-130325000I0J150000D01*
G01*
G37*
G36*
G01*
X-11200000Y-131595000D02*
X-11200000Y-131295000D01*
G75*
G02*
X-11050000Y-131145000I150000J0D01*
G01*
X-9400000Y-131145000D01*
G75*
G02*
X-9250000Y-131295000I0J-150000D01*
G01*
X-9250000Y-131595000D01*
G75*
G02*
X-9400000Y-131745000I-150000J0D01*
G01*
X-11050000Y-131745000D01*
G75*
G02*
X-11200000Y-131595000I0J150000D01*
G01*
G37*
G36*
G01*
X-11200000Y-132865000D02*
X-11200000Y-132565000D01*
G75*
G02*
X-11050000Y-132415000I150000J0D01*
G01*
X-9400000Y-132415000D01*
G75*
G02*
X-9250000Y-132565000I0J-150000D01*
G01*
X-9250000Y-132865000D01*
G75*
G02*
X-9400000Y-133015000I-150000J0D01*
G01*
X-11050000Y-133015000D01*
G75*
G02*
X-11200000Y-132865000I0J150000D01*
G01*
G37*
G36*
G01*
X-11200000Y-134135000D02*
X-11200000Y-133835000D01*
G75*
G02*
X-11050000Y-133685000I150000J0D01*
G01*
X-9400000Y-133685000D01*
G75*
G02*
X-9250000Y-133835000I0J-150000D01*
G01*
X-9250000Y-134135000D01*
G75*
G02*
X-9400000Y-134285000I-150000J0D01*
G01*
X-11050000Y-134285000D01*
G75*
G02*
X-11200000Y-134135000I0J150000D01*
G01*
G37*
G36*
G01*
X-11200000Y-135405000D02*
X-11200000Y-135105000D01*
G75*
G02*
X-11050000Y-134955000I150000J0D01*
G01*
X-9400000Y-134955000D01*
G75*
G02*
X-9250000Y-135105000I0J-150000D01*
G01*
X-9250000Y-135405000D01*
G75*
G02*
X-9400000Y-135555000I-150000J0D01*
G01*
X-11050000Y-135555000D01*
G75*
G02*
X-11200000Y-135405000I0J150000D01*
G01*
G37*
G36*
G01*
X-11200000Y-136675000D02*
X-11200000Y-136375000D01*
G75*
G02*
X-11050000Y-136225000I150000J0D01*
G01*
X-9400000Y-136225000D01*
G75*
G02*
X-9250000Y-136375000I0J-150000D01*
G01*
X-9250000Y-136675000D01*
G75*
G02*
X-9400000Y-136825000I-150000J0D01*
G01*
X-11050000Y-136825000D01*
G75*
G02*
X-11200000Y-136675000I0J150000D01*
G01*
G37*
G36*
G01*
X-11200000Y-137945000D02*
X-11200000Y-137645000D01*
G75*
G02*
X-11050000Y-137495000I150000J0D01*
G01*
X-9400000Y-137495000D01*
G75*
G02*
X-9250000Y-137645000I0J-150000D01*
G01*
X-9250000Y-137945000D01*
G75*
G02*
X-9400000Y-138095000I-150000J0D01*
G01*
X-11050000Y-138095000D01*
G75*
G02*
X-11200000Y-137945000I0J150000D01*
G01*
G37*
G36*
G01*
X-16150000Y-137945000D02*
X-16150000Y-137645000D01*
G75*
G02*
X-16000000Y-137495000I150000J0D01*
G01*
X-14350000Y-137495000D01*
G75*
G02*
X-14200000Y-137645000I0J-150000D01*
G01*
X-14200000Y-137945000D01*
G75*
G02*
X-14350000Y-138095000I-150000J0D01*
G01*
X-16000000Y-138095000D01*
G75*
G02*
X-16150000Y-137945000I0J150000D01*
G01*
G37*
G36*
G01*
X-16150000Y-136675000D02*
X-16150000Y-136375000D01*
G75*
G02*
X-16000000Y-136225000I150000J0D01*
G01*
X-14350000Y-136225000D01*
G75*
G02*
X-14200000Y-136375000I0J-150000D01*
G01*
X-14200000Y-136675000D01*
G75*
G02*
X-14350000Y-136825000I-150000J0D01*
G01*
X-16000000Y-136825000D01*
G75*
G02*
X-16150000Y-136675000I0J150000D01*
G01*
G37*
G36*
G01*
X-16150000Y-135405000D02*
X-16150000Y-135105000D01*
G75*
G02*
X-16000000Y-134955000I150000J0D01*
G01*
X-14350000Y-134955000D01*
G75*
G02*
X-14200000Y-135105000I0J-150000D01*
G01*
X-14200000Y-135405000D01*
G75*
G02*
X-14350000Y-135555000I-150000J0D01*
G01*
X-16000000Y-135555000D01*
G75*
G02*
X-16150000Y-135405000I0J150000D01*
G01*
G37*
G36*
G01*
X-16150000Y-134135000D02*
X-16150000Y-133835000D01*
G75*
G02*
X-16000000Y-133685000I150000J0D01*
G01*
X-14350000Y-133685000D01*
G75*
G02*
X-14200000Y-133835000I0J-150000D01*
G01*
X-14200000Y-134135000D01*
G75*
G02*
X-14350000Y-134285000I-150000J0D01*
G01*
X-16000000Y-134285000D01*
G75*
G02*
X-16150000Y-134135000I0J150000D01*
G01*
G37*
G36*
G01*
X-16150000Y-132865000D02*
X-16150000Y-132565000D01*
G75*
G02*
X-16000000Y-132415000I150000J0D01*
G01*
X-14350000Y-132415000D01*
G75*
G02*
X-14200000Y-132565000I0J-150000D01*
G01*
X-14200000Y-132865000D01*
G75*
G02*
X-14350000Y-133015000I-150000J0D01*
G01*
X-16000000Y-133015000D01*
G75*
G02*
X-16150000Y-132865000I0J150000D01*
G01*
G37*
G36*
G01*
X-16150000Y-131595000D02*
X-16150000Y-131295000D01*
G75*
G02*
X-16000000Y-131145000I150000J0D01*
G01*
X-14350000Y-131145000D01*
G75*
G02*
X-14200000Y-131295000I0J-150000D01*
G01*
X-14200000Y-131595000D01*
G75*
G02*
X-14350000Y-131745000I-150000J0D01*
G01*
X-16000000Y-131745000D01*
G75*
G02*
X-16150000Y-131595000I0J150000D01*
G01*
G37*
G36*
G01*
X-16150000Y-130325000D02*
X-16150000Y-130025000D01*
G75*
G02*
X-16000000Y-129875000I150000J0D01*
G01*
X-14350000Y-129875000D01*
G75*
G02*
X-14200000Y-130025000I0J-150000D01*
G01*
X-14200000Y-130325000D01*
G75*
G02*
X-14350000Y-130475000I-150000J0D01*
G01*
X-16000000Y-130475000D01*
G75*
G02*
X-16150000Y-130325000I0J150000D01*
G01*
G37*
G36*
G01*
X-16150000Y-129055000D02*
X-16150000Y-128755000D01*
G75*
G02*
X-16000000Y-128605000I150000J0D01*
G01*
X-14350000Y-128605000D01*
G75*
G02*
X-14200000Y-128755000I0J-150000D01*
G01*
X-14200000Y-129055000D01*
G75*
G02*
X-14350000Y-129205000I-150000J0D01*
G01*
X-16000000Y-129205000D01*
G75*
G02*
X-16150000Y-129055000I0J150000D01*
G01*
G37*
G36*
G01*
X98330000Y-127250000D02*
X98330000Y-126750000D01*
G75*
G02*
X98555000Y-126525000I225000J0D01*
G01*
X99005000Y-126525000D01*
G75*
G02*
X99230000Y-126750000I0J-225000D01*
G01*
X99230000Y-127250000D01*
G75*
G02*
X99005000Y-127475000I-225000J0D01*
G01*
X98555000Y-127475000D01*
G75*
G02*
X98330000Y-127250000I0J225000D01*
G01*
G37*
G36*
G01*
X99880000Y-127250000D02*
X99880000Y-126750000D01*
G75*
G02*
X100105000Y-126525000I225000J0D01*
G01*
X100555000Y-126525000D01*
G75*
G02*
X100780000Y-126750000I0J-225000D01*
G01*
X100780000Y-127250000D01*
G75*
G02*
X100555000Y-127475000I-225000J0D01*
G01*
X100105000Y-127475000D01*
G75*
G02*
X99880000Y-127250000I0J225000D01*
G01*
G37*
G36*
G01*
X210090000Y-127250000D02*
X210090000Y-126750000D01*
G75*
G02*
X210315000Y-126525000I225000J0D01*
G01*
X210765000Y-126525000D01*
G75*
G02*
X210990000Y-126750000I0J-225000D01*
G01*
X210990000Y-127250000D01*
G75*
G02*
X210765000Y-127475000I-225000J0D01*
G01*
X210315000Y-127475000D01*
G75*
G02*
X210090000Y-127250000I0J225000D01*
G01*
G37*
G36*
G01*
X211640000Y-127250000D02*
X211640000Y-126750000D01*
G75*
G02*
X211865000Y-126525000I225000J0D01*
G01*
X212315000Y-126525000D01*
G75*
G02*
X212540000Y-126750000I0J-225000D01*
G01*
X212540000Y-127250000D01*
G75*
G02*
X212315000Y-127475000I-225000J0D01*
G01*
X211865000Y-127475000D01*
G75*
G02*
X211640000Y-127250000I0J225000D01*
G01*
G37*
G36*
G01*
X-13430000Y-127250000D02*
X-13430000Y-126750000D01*
G75*
G02*
X-13205000Y-126525000I225000J0D01*
G01*
X-12755000Y-126525000D01*
G75*
G02*
X-12530000Y-126750000I0J-225000D01*
G01*
X-12530000Y-127250000D01*
G75*
G02*
X-12755000Y-127475000I-225000J0D01*
G01*
X-13205000Y-127475000D01*
G75*
G02*
X-13430000Y-127250000I0J225000D01*
G01*
G37*
G36*
G01*
X-11880000Y-127250000D02*
X-11880000Y-126750000D01*
G75*
G02*
X-11655000Y-126525000I225000J0D01*
G01*
X-11205000Y-126525000D01*
G75*
G02*
X-10980000Y-126750000I0J-225000D01*
G01*
X-10980000Y-127250000D01*
G75*
G02*
X-11205000Y-127475000I-225000J0D01*
G01*
X-11655000Y-127475000D01*
G75*
G02*
X-11880000Y-127250000I0J225000D01*
G01*
G37*
G36*
G01*
X212320000Y-129055000D02*
X212320000Y-128755000D01*
G75*
G02*
X212470000Y-128605000I150000J0D01*
G01*
X214120000Y-128605000D01*
G75*
G02*
X214270000Y-128755000I0J-150000D01*
G01*
X214270000Y-129055000D01*
G75*
G02*
X214120000Y-129205000I-150000J0D01*
G01*
X212470000Y-129205000D01*
G75*
G02*
X212320000Y-129055000I0J150000D01*
G01*
G37*
G36*
G01*
X212320000Y-130325000D02*
X212320000Y-130025000D01*
G75*
G02*
X212470000Y-129875000I150000J0D01*
G01*
X214120000Y-129875000D01*
G75*
G02*
X214270000Y-130025000I0J-150000D01*
G01*
X214270000Y-130325000D01*
G75*
G02*
X214120000Y-130475000I-150000J0D01*
G01*
X212470000Y-130475000D01*
G75*
G02*
X212320000Y-130325000I0J150000D01*
G01*
G37*
G36*
G01*
X212320000Y-131595000D02*
X212320000Y-131295000D01*
G75*
G02*
X212470000Y-131145000I150000J0D01*
G01*
X214120000Y-131145000D01*
G75*
G02*
X214270000Y-131295000I0J-150000D01*
G01*
X214270000Y-131595000D01*
G75*
G02*
X214120000Y-131745000I-150000J0D01*
G01*
X212470000Y-131745000D01*
G75*
G02*
X212320000Y-131595000I0J150000D01*
G01*
G37*
G36*
G01*
X212320000Y-132865000D02*
X212320000Y-132565000D01*
G75*
G02*
X212470000Y-132415000I150000J0D01*
G01*
X214120000Y-132415000D01*
G75*
G02*
X214270000Y-132565000I0J-150000D01*
G01*
X214270000Y-132865000D01*
G75*
G02*
X214120000Y-133015000I-150000J0D01*
G01*
X212470000Y-133015000D01*
G75*
G02*
X212320000Y-132865000I0J150000D01*
G01*
G37*
G36*
G01*
X212320000Y-134135000D02*
X212320000Y-133835000D01*
G75*
G02*
X212470000Y-133685000I150000J0D01*
G01*
X214120000Y-133685000D01*
G75*
G02*
X214270000Y-133835000I0J-150000D01*
G01*
X214270000Y-134135000D01*
G75*
G02*
X214120000Y-134285000I-150000J0D01*
G01*
X212470000Y-134285000D01*
G75*
G02*
X212320000Y-134135000I0J150000D01*
G01*
G37*
G36*
G01*
X212320000Y-135405000D02*
X212320000Y-135105000D01*
G75*
G02*
X212470000Y-134955000I150000J0D01*
G01*
X214120000Y-134955000D01*
G75*
G02*
X214270000Y-135105000I0J-150000D01*
G01*
X214270000Y-135405000D01*
G75*
G02*
X214120000Y-135555000I-150000J0D01*
G01*
X212470000Y-135555000D01*
G75*
G02*
X212320000Y-135405000I0J150000D01*
G01*
G37*
G36*
G01*
X212320000Y-136675000D02*
X212320000Y-136375000D01*
G75*
G02*
X212470000Y-136225000I150000J0D01*
G01*
X214120000Y-136225000D01*
G75*
G02*
X214270000Y-136375000I0J-150000D01*
G01*
X214270000Y-136675000D01*
G75*
G02*
X214120000Y-136825000I-150000J0D01*
G01*
X212470000Y-136825000D01*
G75*
G02*
X212320000Y-136675000I0J150000D01*
G01*
G37*
G36*
G01*
X212320000Y-137945000D02*
X212320000Y-137645000D01*
G75*
G02*
X212470000Y-137495000I150000J0D01*
G01*
X214120000Y-137495000D01*
G75*
G02*
X214270000Y-137645000I0J-150000D01*
G01*
X214270000Y-137945000D01*
G75*
G02*
X214120000Y-138095000I-150000J0D01*
G01*
X212470000Y-138095000D01*
G75*
G02*
X212320000Y-137945000I0J150000D01*
G01*
G37*
G36*
G01*
X207370000Y-137945000D02*
X207370000Y-137645000D01*
G75*
G02*
X207520000Y-137495000I150000J0D01*
G01*
X209170000Y-137495000D01*
G75*
G02*
X209320000Y-137645000I0J-150000D01*
G01*
X209320000Y-137945000D01*
G75*
G02*
X209170000Y-138095000I-150000J0D01*
G01*
X207520000Y-138095000D01*
G75*
G02*
X207370000Y-137945000I0J150000D01*
G01*
G37*
G36*
G01*
X207370000Y-136675000D02*
X207370000Y-136375000D01*
G75*
G02*
X207520000Y-136225000I150000J0D01*
G01*
X209170000Y-136225000D01*
G75*
G02*
X209320000Y-136375000I0J-150000D01*
G01*
X209320000Y-136675000D01*
G75*
G02*
X209170000Y-136825000I-150000J0D01*
G01*
X207520000Y-136825000D01*
G75*
G02*
X207370000Y-136675000I0J150000D01*
G01*
G37*
G36*
G01*
X207370000Y-135405000D02*
X207370000Y-135105000D01*
G75*
G02*
X207520000Y-134955000I150000J0D01*
G01*
X209170000Y-134955000D01*
G75*
G02*
X209320000Y-135105000I0J-150000D01*
G01*
X209320000Y-135405000D01*
G75*
G02*
X209170000Y-135555000I-150000J0D01*
G01*
X207520000Y-135555000D01*
G75*
G02*
X207370000Y-135405000I0J150000D01*
G01*
G37*
G36*
G01*
X207370000Y-134135000D02*
X207370000Y-133835000D01*
G75*
G02*
X207520000Y-133685000I150000J0D01*
G01*
X209170000Y-133685000D01*
G75*
G02*
X209320000Y-133835000I0J-150000D01*
G01*
X209320000Y-134135000D01*
G75*
G02*
X209170000Y-134285000I-150000J0D01*
G01*
X207520000Y-134285000D01*
G75*
G02*
X207370000Y-134135000I0J150000D01*
G01*
G37*
G36*
G01*
X207370000Y-132865000D02*
X207370000Y-132565000D01*
G75*
G02*
X207520000Y-132415000I150000J0D01*
G01*
X209170000Y-132415000D01*
G75*
G02*
X209320000Y-132565000I0J-150000D01*
G01*
X209320000Y-132865000D01*
G75*
G02*
X209170000Y-133015000I-150000J0D01*
G01*
X207520000Y-133015000D01*
G75*
G02*
X207370000Y-132865000I0J150000D01*
G01*
G37*
G36*
G01*
X207370000Y-131595000D02*
X207370000Y-131295000D01*
G75*
G02*
X207520000Y-131145000I150000J0D01*
G01*
X209170000Y-131145000D01*
G75*
G02*
X209320000Y-131295000I0J-150000D01*
G01*
X209320000Y-131595000D01*
G75*
G02*
X209170000Y-131745000I-150000J0D01*
G01*
X207520000Y-131745000D01*
G75*
G02*
X207370000Y-131595000I0J150000D01*
G01*
G37*
G36*
G01*
X207370000Y-130325000D02*
X207370000Y-130025000D01*
G75*
G02*
X207520000Y-129875000I150000J0D01*
G01*
X209170000Y-129875000D01*
G75*
G02*
X209320000Y-130025000I0J-150000D01*
G01*
X209320000Y-130325000D01*
G75*
G02*
X209170000Y-130475000I-150000J0D01*
G01*
X207520000Y-130475000D01*
G75*
G02*
X207370000Y-130325000I0J150000D01*
G01*
G37*
G36*
G01*
X207370000Y-129055000D02*
X207370000Y-128755000D01*
G75*
G02*
X207520000Y-128605000I150000J0D01*
G01*
X209170000Y-128605000D01*
G75*
G02*
X209320000Y-128755000I0J-150000D01*
G01*
X209320000Y-129055000D01*
G75*
G02*
X209170000Y-129205000I-150000J0D01*
G01*
X207520000Y-129205000D01*
G75*
G02*
X207370000Y-129055000I0J150000D01*
G01*
G37*
G36*
G01*
X93705000Y-136505000D02*
X94255000Y-136505000D01*
G75*
G02*
X94455000Y-136705000I0J-200000D01*
G01*
X94455000Y-137105000D01*
G75*
G02*
X94255000Y-137305000I-200000J0D01*
G01*
X93705000Y-137305000D01*
G75*
G02*
X93505000Y-137105000I0J200000D01*
G01*
X93505000Y-136705000D01*
G75*
G02*
X93705000Y-136505000I200000J0D01*
G01*
G37*
G36*
G01*
X93705000Y-134855000D02*
X94255000Y-134855000D01*
G75*
G02*
X94455000Y-135055000I0J-200000D01*
G01*
X94455000Y-135455000D01*
G75*
G02*
X94255000Y-135655000I-200000J0D01*
G01*
X93705000Y-135655000D01*
G75*
G02*
X93505000Y-135455000I0J200000D01*
G01*
X93505000Y-135055000D01*
G75*
G02*
X93705000Y-134855000I200000J0D01*
G01*
G37*
G36*
G01*
X205465000Y-136505000D02*
X206015000Y-136505000D01*
G75*
G02*
X206215000Y-136705000I0J-200000D01*
G01*
X206215000Y-137105000D01*
G75*
G02*
X206015000Y-137305000I-200000J0D01*
G01*
X205465000Y-137305000D01*
G75*
G02*
X205265000Y-137105000I0J200000D01*
G01*
X205265000Y-136705000D01*
G75*
G02*
X205465000Y-136505000I200000J0D01*
G01*
G37*
G36*
G01*
X205465000Y-134855000D02*
X206015000Y-134855000D01*
G75*
G02*
X206215000Y-135055000I0J-200000D01*
G01*
X206215000Y-135455000D01*
G75*
G02*
X206015000Y-135655000I-200000J0D01*
G01*
X205465000Y-135655000D01*
G75*
G02*
X205265000Y-135455000I0J200000D01*
G01*
X205265000Y-135055000D01*
G75*
G02*
X205465000Y-134855000I200000J0D01*
G01*
G37*
G36*
G01*
X317225000Y-136505000D02*
X317775000Y-136505000D01*
G75*
G02*
X317975000Y-136705000I0J-200000D01*
G01*
X317975000Y-137105000D01*
G75*
G02*
X317775000Y-137305000I-200000J0D01*
G01*
X317225000Y-137305000D01*
G75*
G02*
X317025000Y-137105000I0J200000D01*
G01*
X317025000Y-136705000D01*
G75*
G02*
X317225000Y-136505000I200000J0D01*
G01*
G37*
G36*
G01*
X317225000Y-134855000D02*
X317775000Y-134855000D01*
G75*
G02*
X317975000Y-135055000I0J-200000D01*
G01*
X317975000Y-135455000D01*
G75*
G02*
X317775000Y-135655000I-200000J0D01*
G01*
X317225000Y-135655000D01*
G75*
G02*
X317025000Y-135455000I0J200000D01*
G01*
X317025000Y-135055000D01*
G75*
G02*
X317225000Y-134855000I200000J0D01*
G01*
G37*
M02*
