M48
; DRILL file {KiCad (5.1.7)-1} date 03/22/21 01:50:02
; FORMAT={-:-/ absolute / inch / decimal}
; #@! TF.CreationDate,2021-03-22T01:50:02-04:00
; #@! TF.GenerationSoftware,Kicad,Pcbnew,(5.1.7)-1
; #@! TF.FileFunction,Plated,1,2,PTH
FMAT,2
INCH
T1C0.0157
T2C0.0295
T3C0.0354
%
G90
G05
T1
X2.126Y-4.7638
X2.4409Y-4.0945
X2.5591Y-4.0551
X2.5984Y-4.1339
X2.8346Y-5.2362
X2.8543Y-5.3543
X3.2283Y-4.252
X3.5039Y-4.1339
X3.5433Y-4.2126
X3.6417Y-5.3543
X4.4094Y-5.2362
X4.4291Y-5.3543
X5.2165Y-5.3543
X5.9843Y-5.2362
X6.0039Y-5.3543
X6.063Y-4.252
X6.3386Y-4.1339
X6.378Y-4.2126
X6.7913Y-5.3543
X7.5591Y-5.2362
X7.5787Y-5.3543
X8.3661Y-5.3543
X8.8976Y-4.252
X9.1339Y-5.2362
X9.1535Y-5.3543
X9.1732Y-4.1339
X9.2126Y-4.2126
X9.5276Y-5.4331
X9.6457Y-5.3543
T2
X2.2047Y-3.5827
X2.2047Y-3.6614
X2.2047Y-3.7402
X2.2047Y-3.8189
X2.2047Y-3.8976
X2.2047Y-3.9764
X2.2047Y-4.0551
X2.2047Y-4.1339
X2.2047Y-4.2126
X2.2047Y-4.4488
X2.2047Y-4.5276
X2.2047Y-4.6063
X2.2047Y-4.685
T3
X2.7059Y-4.1339
X2.8059Y-4.1339
X8.3752Y-4.1339
X8.4752Y-4.1339
X4.1232Y-4.1339
X4.2232Y-4.1339
X5.5406Y-4.1339
X5.6406Y-4.1339
X9.7925Y-4.1339
X9.8925Y-4.1339
X6.9579Y-4.1339
X7.0579Y-4.1339
T0
M30
