G04 #@! TF.GenerationSoftware,KiCad,Pcbnew,(5.1.7)-1*
G04 #@! TF.CreationDate,2021-03-22T01:50:01-04:00*
G04 #@! TF.ProjectId,Circuit-AirSensor-Left,43697263-7569-4742-9d41-697253656e73,rev?*
G04 #@! TF.SameCoordinates,Original*
G04 #@! TF.FileFunction,Legend,Bot*
G04 #@! TF.FilePolarity,Positive*
%FSLAX46Y46*%
G04 Gerber Fmt 4.6, Leading zero omitted, Abs format (unit mm)*
G04 Created by KiCad (PCBNEW (5.1.7)-1) date 2021-03-22 01:50:01*
%MOMM*%
%LPD*%
G01*
G04 APERTURE LIST*
%ADD10C,0.300000*%
%ADD11C,0.150000*%
%ADD12C,0.120000*%
G04 APERTURE END LIST*
D10*
X70200000Y-109542857D02*
X70771428Y-109542857D01*
X70771428Y-108342857D01*
X69571428Y-108342857D02*
X69457142Y-108342857D01*
X69342857Y-108400000D01*
X69285714Y-108457142D01*
X69228571Y-108571428D01*
X69171428Y-108800000D01*
X69171428Y-109085714D01*
X69228571Y-109314285D01*
X69285714Y-109428571D01*
X69342857Y-109485714D01*
X69457142Y-109542857D01*
X69571428Y-109542857D01*
X69685714Y-109485714D01*
X69742857Y-109428571D01*
X69800000Y-109314285D01*
X69857142Y-109085714D01*
X69857142Y-108800000D01*
X69800000Y-108571428D01*
X69742857Y-108457142D01*
X69685714Y-108400000D01*
X69571428Y-108342857D01*
D11*
X173214285Y-114977380D02*
X173023809Y-114977380D01*
X172928571Y-115025000D01*
X172833333Y-115120238D01*
X172785714Y-115310714D01*
X172785714Y-115644047D01*
X172833333Y-115834523D01*
X172928571Y-115929761D01*
X173023809Y-115977380D01*
X173214285Y-115977380D01*
X173309523Y-115929761D01*
X173404761Y-115834523D01*
X173452380Y-115644047D01*
X173452380Y-115310714D01*
X173404761Y-115120238D01*
X173309523Y-115025000D01*
X173214285Y-114977380D01*
X172357142Y-115310714D02*
X172357142Y-116310714D01*
X172357142Y-115358333D02*
X172261904Y-115310714D01*
X172071428Y-115310714D01*
X171976190Y-115358333D01*
X171928571Y-115405952D01*
X171880952Y-115501190D01*
X171880952Y-115786904D01*
X171928571Y-115882142D01*
X171976190Y-115929761D01*
X172071428Y-115977380D01*
X172261904Y-115977380D01*
X172357142Y-115929761D01*
X171071428Y-115929761D02*
X171166666Y-115977380D01*
X171357142Y-115977380D01*
X171452380Y-115929761D01*
X171500000Y-115834523D01*
X171500000Y-115453571D01*
X171452380Y-115358333D01*
X171357142Y-115310714D01*
X171166666Y-115310714D01*
X171071428Y-115358333D01*
X171023809Y-115453571D01*
X171023809Y-115548809D01*
X171500000Y-115644047D01*
X170595238Y-115977380D02*
X170595238Y-114977380D01*
X170023809Y-115977380D01*
X170023809Y-114977380D01*
X169547619Y-115977380D02*
X169547619Y-114977380D01*
X169214285Y-114977380D02*
X168642857Y-114977380D01*
X168928571Y-115977380D02*
X168928571Y-114977380D01*
X168309523Y-115977380D02*
X168309523Y-114977380D01*
X168309523Y-115453571D02*
X167738095Y-115453571D01*
X167738095Y-115977380D02*
X167738095Y-114977380D01*
X167261904Y-115977380D02*
X167261904Y-114977380D01*
X166928571Y-115691666D01*
X166595238Y-114977380D01*
X166595238Y-115977380D01*
X178690476Y-117341666D02*
X178214285Y-117341666D01*
X178785714Y-117627380D02*
X178452380Y-116627380D01*
X178119047Y-117627380D01*
X177785714Y-117627380D02*
X177785714Y-116960714D01*
X177785714Y-116627380D02*
X177833333Y-116675000D01*
X177785714Y-116722619D01*
X177738095Y-116675000D01*
X177785714Y-116627380D01*
X177785714Y-116722619D01*
X177309523Y-117627380D02*
X177309523Y-116960714D01*
X177309523Y-117151190D02*
X177261904Y-117055952D01*
X177214285Y-117008333D01*
X177119047Y-116960714D01*
X177023809Y-116960714D01*
X175976190Y-117579761D02*
X175833333Y-117627380D01*
X175595238Y-117627380D01*
X175500000Y-117579761D01*
X175452380Y-117532142D01*
X175404761Y-117436904D01*
X175404761Y-117341666D01*
X175452380Y-117246428D01*
X175500000Y-117198809D01*
X175595238Y-117151190D01*
X175785714Y-117103571D01*
X175880952Y-117055952D01*
X175928571Y-117008333D01*
X175976190Y-116913095D01*
X175976190Y-116817857D01*
X175928571Y-116722619D01*
X175880952Y-116675000D01*
X175785714Y-116627380D01*
X175547619Y-116627380D01*
X175404761Y-116675000D01*
X174595238Y-117579761D02*
X174690476Y-117627380D01*
X174880952Y-117627380D01*
X174976190Y-117579761D01*
X175023809Y-117484523D01*
X175023809Y-117103571D01*
X174976190Y-117008333D01*
X174880952Y-116960714D01*
X174690476Y-116960714D01*
X174595238Y-117008333D01*
X174547619Y-117103571D01*
X174547619Y-117198809D01*
X175023809Y-117294047D01*
X174119047Y-116960714D02*
X174119047Y-117627380D01*
X174119047Y-117055952D02*
X174071428Y-117008333D01*
X173976190Y-116960714D01*
X173833333Y-116960714D01*
X173738095Y-117008333D01*
X173690476Y-117103571D01*
X173690476Y-117627380D01*
X173261904Y-117579761D02*
X173166666Y-117627380D01*
X172976190Y-117627380D01*
X172880952Y-117579761D01*
X172833333Y-117484523D01*
X172833333Y-117436904D01*
X172880952Y-117341666D01*
X172976190Y-117294047D01*
X173119047Y-117294047D01*
X173214285Y-117246428D01*
X173261904Y-117151190D01*
X173261904Y-117103571D01*
X173214285Y-117008333D01*
X173119047Y-116960714D01*
X172976190Y-116960714D01*
X172880952Y-117008333D01*
X172261904Y-117627380D02*
X172357142Y-117579761D01*
X172404761Y-117532142D01*
X172452380Y-117436904D01*
X172452380Y-117151190D01*
X172404761Y-117055952D01*
X172357142Y-117008333D01*
X172261904Y-116960714D01*
X172119047Y-116960714D01*
X172023809Y-117008333D01*
X171976190Y-117055952D01*
X171928571Y-117151190D01*
X171928571Y-117436904D01*
X171976190Y-117532142D01*
X172023809Y-117579761D01*
X172119047Y-117627380D01*
X172261904Y-117627380D01*
X171500000Y-117627380D02*
X171500000Y-116960714D01*
X171500000Y-117151190D02*
X171452380Y-117055952D01*
X171404761Y-117008333D01*
X171309523Y-116960714D01*
X171214285Y-116960714D01*
X169785714Y-117103571D02*
X169642857Y-117151190D01*
X169595238Y-117198809D01*
X169547619Y-117294047D01*
X169547619Y-117436904D01*
X169595238Y-117532142D01*
X169642857Y-117579761D01*
X169738095Y-117627380D01*
X170119047Y-117627380D01*
X170119047Y-116627380D01*
X169785714Y-116627380D01*
X169690476Y-116675000D01*
X169642857Y-116722619D01*
X169595238Y-116817857D01*
X169595238Y-116913095D01*
X169642857Y-117008333D01*
X169690476Y-117055952D01*
X169785714Y-117103571D01*
X170119047Y-117103571D01*
X168976190Y-117627380D02*
X169071428Y-117579761D01*
X169119047Y-117532142D01*
X169166666Y-117436904D01*
X169166666Y-117151190D01*
X169119047Y-117055952D01*
X169071428Y-117008333D01*
X168976190Y-116960714D01*
X168833333Y-116960714D01*
X168738095Y-117008333D01*
X168690476Y-117055952D01*
X168642857Y-117151190D01*
X168642857Y-117436904D01*
X168690476Y-117532142D01*
X168738095Y-117579761D01*
X168833333Y-117627380D01*
X168976190Y-117627380D01*
X167785714Y-117627380D02*
X167785714Y-117103571D01*
X167833333Y-117008333D01*
X167928571Y-116960714D01*
X168119047Y-116960714D01*
X168214285Y-117008333D01*
X167785714Y-117579761D02*
X167880952Y-117627380D01*
X168119047Y-117627380D01*
X168214285Y-117579761D01*
X168261904Y-117484523D01*
X168261904Y-117389285D01*
X168214285Y-117294047D01*
X168119047Y-117246428D01*
X167880952Y-117246428D01*
X167785714Y-117198809D01*
X167309523Y-117627380D02*
X167309523Y-116960714D01*
X167309523Y-117151190D02*
X167261904Y-117055952D01*
X167214285Y-117008333D01*
X167119047Y-116960714D01*
X167023809Y-116960714D01*
X166261904Y-117627380D02*
X166261904Y-116627380D01*
X166261904Y-117579761D02*
X166357142Y-117627380D01*
X166547619Y-117627380D01*
X166642857Y-117579761D01*
X166690476Y-117532142D01*
X166738095Y-117436904D01*
X166738095Y-117151190D01*
X166690476Y-117055952D01*
X166642857Y-117008333D01*
X166547619Y-116960714D01*
X166357142Y-116960714D01*
X166261904Y-117008333D01*
X164738095Y-118008333D02*
X164785714Y-117960714D01*
X164880952Y-117817857D01*
X164928571Y-117722619D01*
X164976190Y-117579761D01*
X165023809Y-117341666D01*
X165023809Y-117151190D01*
X164976190Y-116913095D01*
X164928571Y-116770238D01*
X164880952Y-116675000D01*
X164785714Y-116532142D01*
X164738095Y-116484523D01*
X163880952Y-117627380D02*
X164357142Y-117627380D01*
X164357142Y-116627380D01*
X163166666Y-117579761D02*
X163261904Y-117627380D01*
X163452380Y-117627380D01*
X163547619Y-117579761D01*
X163595238Y-117484523D01*
X163595238Y-117103571D01*
X163547619Y-117008333D01*
X163452380Y-116960714D01*
X163261904Y-116960714D01*
X163166666Y-117008333D01*
X163119047Y-117103571D01*
X163119047Y-117198809D01*
X163595238Y-117294047D01*
X162833333Y-116960714D02*
X162452380Y-116960714D01*
X162690476Y-117627380D02*
X162690476Y-116770238D01*
X162642857Y-116675000D01*
X162547619Y-116627380D01*
X162452380Y-116627380D01*
X162261904Y-116960714D02*
X161880952Y-116960714D01*
X162119047Y-116627380D02*
X162119047Y-117484523D01*
X162071428Y-117579761D01*
X161976190Y-117627380D01*
X161880952Y-117627380D01*
X161642857Y-118008333D02*
X161595238Y-117960714D01*
X161500000Y-117817857D01*
X161452380Y-117722619D01*
X161404761Y-117579761D01*
X161357142Y-117341666D01*
X161357142Y-117151190D01*
X161404761Y-116913095D01*
X161452380Y-116770238D01*
X161500000Y-116675000D01*
X161595238Y-116532142D01*
X161642857Y-116484523D01*
X183642857Y-119277380D02*
X183642857Y-118277380D01*
X183404761Y-118277380D01*
X183261904Y-118325000D01*
X183166666Y-118420238D01*
X183119047Y-118515476D01*
X183071428Y-118705952D01*
X183071428Y-118848809D01*
X183119047Y-119039285D01*
X183166666Y-119134523D01*
X183261904Y-119229761D01*
X183404761Y-119277380D01*
X183642857Y-119277380D01*
X182261904Y-119229761D02*
X182357142Y-119277380D01*
X182547619Y-119277380D01*
X182642857Y-119229761D01*
X182690476Y-119134523D01*
X182690476Y-118753571D01*
X182642857Y-118658333D01*
X182547619Y-118610714D01*
X182357142Y-118610714D01*
X182261904Y-118658333D01*
X182214285Y-118753571D01*
X182214285Y-118848809D01*
X182690476Y-118944047D01*
X181833333Y-119229761D02*
X181738095Y-119277380D01*
X181547619Y-119277380D01*
X181452380Y-119229761D01*
X181404761Y-119134523D01*
X181404761Y-119086904D01*
X181452380Y-118991666D01*
X181547619Y-118944047D01*
X181690476Y-118944047D01*
X181785714Y-118896428D01*
X181833333Y-118801190D01*
X181833333Y-118753571D01*
X181785714Y-118658333D01*
X181690476Y-118610714D01*
X181547619Y-118610714D01*
X181452380Y-118658333D01*
X180976190Y-119277380D02*
X180976190Y-118610714D01*
X180976190Y-118277380D02*
X181023809Y-118325000D01*
X180976190Y-118372619D01*
X180928571Y-118325000D01*
X180976190Y-118277380D01*
X180976190Y-118372619D01*
X180071428Y-118610714D02*
X180071428Y-119420238D01*
X180119047Y-119515476D01*
X180166666Y-119563095D01*
X180261904Y-119610714D01*
X180404761Y-119610714D01*
X180500000Y-119563095D01*
X180071428Y-119229761D02*
X180166666Y-119277380D01*
X180357142Y-119277380D01*
X180452380Y-119229761D01*
X180500000Y-119182142D01*
X180547619Y-119086904D01*
X180547619Y-118801190D01*
X180500000Y-118705952D01*
X180452380Y-118658333D01*
X180357142Y-118610714D01*
X180166666Y-118610714D01*
X180071428Y-118658333D01*
X179595238Y-118610714D02*
X179595238Y-119277380D01*
X179595238Y-118705952D02*
X179547619Y-118658333D01*
X179452380Y-118610714D01*
X179309523Y-118610714D01*
X179214285Y-118658333D01*
X179166666Y-118753571D01*
X179166666Y-119277380D01*
X177928571Y-119277380D02*
X177928571Y-118277380D01*
X177928571Y-118658333D02*
X177833333Y-118610714D01*
X177642857Y-118610714D01*
X177547619Y-118658333D01*
X177500000Y-118705952D01*
X177452380Y-118801190D01*
X177452380Y-119086904D01*
X177500000Y-119182142D01*
X177547619Y-119229761D01*
X177642857Y-119277380D01*
X177833333Y-119277380D01*
X177928571Y-119229761D01*
X177119047Y-118610714D02*
X176880952Y-119277380D01*
X176642857Y-118610714D02*
X176880952Y-119277380D01*
X176976190Y-119515476D01*
X177023809Y-119563095D01*
X177119047Y-119610714D01*
X176261904Y-119182142D02*
X176214285Y-119229761D01*
X176261904Y-119277380D01*
X176309523Y-119229761D01*
X176261904Y-119182142D01*
X176261904Y-119277380D01*
X176261904Y-118658333D02*
X176214285Y-118705952D01*
X176261904Y-118753571D01*
X176309523Y-118705952D01*
X176261904Y-118658333D01*
X176261904Y-118753571D01*
X175166666Y-118277380D02*
X174833333Y-119277380D01*
X174500000Y-118277380D01*
X173785714Y-119229761D02*
X173880952Y-119277380D01*
X174071428Y-119277380D01*
X174166666Y-119229761D01*
X174214285Y-119134523D01*
X174214285Y-118753571D01*
X174166666Y-118658333D01*
X174071428Y-118610714D01*
X173880952Y-118610714D01*
X173785714Y-118658333D01*
X173738095Y-118753571D01*
X173738095Y-118848809D01*
X174214285Y-118944047D01*
X173309523Y-119277380D02*
X173309523Y-118610714D01*
X173309523Y-118801190D02*
X173261904Y-118705952D01*
X173214285Y-118658333D01*
X173119047Y-118610714D01*
X173023809Y-118610714D01*
X172547619Y-119277380D02*
X172642857Y-119229761D01*
X172690476Y-119182142D01*
X172738095Y-119086904D01*
X172738095Y-118801190D01*
X172690476Y-118705952D01*
X172642857Y-118658333D01*
X172547619Y-118610714D01*
X172404761Y-118610714D01*
X172309523Y-118658333D01*
X172261904Y-118705952D01*
X172214285Y-118801190D01*
X172214285Y-119086904D01*
X172261904Y-119182142D01*
X172309523Y-119229761D01*
X172404761Y-119277380D01*
X172547619Y-119277380D01*
X171880952Y-119277380D02*
X171357142Y-118610714D01*
X171880952Y-118610714D02*
X171357142Y-119277380D01*
X171071428Y-118277380D02*
X170404761Y-118277380D01*
X171071428Y-119277380D01*
X170404761Y-119277380D01*
X170023809Y-119277380D02*
X170023809Y-118610714D01*
X170023809Y-118277380D02*
X170071428Y-118325000D01*
X170023809Y-118372619D01*
X169976190Y-118325000D01*
X170023809Y-118277380D01*
X170023809Y-118372619D01*
X169547619Y-119277380D02*
X169547619Y-118277380D01*
X169452380Y-118896428D02*
X169166666Y-119277380D01*
X169166666Y-118610714D02*
X169547619Y-118991666D01*
X167547619Y-119277380D02*
X167547619Y-118753571D01*
X167595238Y-118658333D01*
X167690476Y-118610714D01*
X167880952Y-118610714D01*
X167976190Y-118658333D01*
X167547619Y-119229761D02*
X167642857Y-119277380D01*
X167880952Y-119277380D01*
X167976190Y-119229761D01*
X168023809Y-119134523D01*
X168023809Y-119039285D01*
X167976190Y-118944047D01*
X167880952Y-118896428D01*
X167642857Y-118896428D01*
X167547619Y-118848809D01*
X167071428Y-118610714D02*
X167071428Y-119277380D01*
X167071428Y-118705952D02*
X167023809Y-118658333D01*
X166928571Y-118610714D01*
X166785714Y-118610714D01*
X166690476Y-118658333D01*
X166642857Y-118753571D01*
X166642857Y-119277380D01*
X165738095Y-119277380D02*
X165738095Y-118277380D01*
X165738095Y-119229761D02*
X165833333Y-119277380D01*
X166023809Y-119277380D01*
X166119047Y-119229761D01*
X166166666Y-119182142D01*
X166214285Y-119086904D01*
X166214285Y-118801190D01*
X166166666Y-118705952D01*
X166119047Y-118658333D01*
X166023809Y-118610714D01*
X165833333Y-118610714D01*
X165738095Y-118658333D01*
X164500000Y-119277380D02*
X164500000Y-118277380D01*
X163928571Y-119277380D02*
X164357142Y-118705952D01*
X163928571Y-118277380D02*
X164500000Y-118848809D01*
X163119047Y-119229761D02*
X163214285Y-119277380D01*
X163404761Y-119277380D01*
X163500000Y-119229761D01*
X163547619Y-119134523D01*
X163547619Y-118753571D01*
X163500000Y-118658333D01*
X163404761Y-118610714D01*
X163214285Y-118610714D01*
X163119047Y-118658333D01*
X163071428Y-118753571D01*
X163071428Y-118848809D01*
X163547619Y-118944047D01*
X162738095Y-118610714D02*
X162500000Y-119277380D01*
X162261904Y-118610714D01*
X161880952Y-119277380D02*
X161880952Y-118610714D01*
X161880952Y-118705952D02*
X161833333Y-118658333D01*
X161738095Y-118610714D01*
X161595238Y-118610714D01*
X161500000Y-118658333D01*
X161452380Y-118753571D01*
X161452380Y-119277380D01*
X161452380Y-118753571D02*
X161404761Y-118658333D01*
X161309523Y-118610714D01*
X161166666Y-118610714D01*
X161071428Y-118658333D01*
X161023809Y-118753571D01*
X161023809Y-119277380D01*
X160119047Y-119277380D02*
X160119047Y-118753571D01*
X160166666Y-118658333D01*
X160261904Y-118610714D01*
X160452380Y-118610714D01*
X160547619Y-118658333D01*
X160119047Y-119229761D02*
X160214285Y-119277380D01*
X160452380Y-119277380D01*
X160547619Y-119229761D01*
X160595238Y-119134523D01*
X160595238Y-119039285D01*
X160547619Y-118944047D01*
X160452380Y-118896428D01*
X160214285Y-118896428D01*
X160119047Y-118848809D01*
X159642857Y-118610714D02*
X159642857Y-119277380D01*
X159642857Y-118705952D02*
X159595238Y-118658333D01*
X159500000Y-118610714D01*
X159357142Y-118610714D01*
X159261904Y-118658333D01*
X159214285Y-118753571D01*
X159214285Y-119277380D01*
X158833333Y-118277380D02*
X158214285Y-118277380D01*
X158547619Y-118658333D01*
X158404761Y-118658333D01*
X158309523Y-118705952D01*
X158261904Y-118753571D01*
X158214285Y-118848809D01*
X158214285Y-119086904D01*
X158261904Y-119182142D01*
X158309523Y-119229761D01*
X158404761Y-119277380D01*
X158690476Y-119277380D01*
X158785714Y-119229761D01*
X158833333Y-119182142D01*
X157833333Y-118372619D02*
X157785714Y-118325000D01*
X157690476Y-118277380D01*
X157452380Y-118277380D01*
X157357142Y-118325000D01*
X157309523Y-118372619D01*
X157261904Y-118467857D01*
X157261904Y-118563095D01*
X157309523Y-118705952D01*
X157880952Y-119277380D01*
X157261904Y-119277380D01*
X156928571Y-118277380D02*
X156309523Y-118277380D01*
X156642857Y-118658333D01*
X156500000Y-118658333D01*
X156404761Y-118705952D01*
X156357142Y-118753571D01*
X156309523Y-118848809D01*
X156309523Y-119086904D01*
X156357142Y-119182142D01*
X156404761Y-119229761D01*
X156500000Y-119277380D01*
X156785714Y-119277380D01*
X156880952Y-119229761D01*
X156928571Y-119182142D01*
X172928571Y-120260714D02*
X172690476Y-120927380D01*
X172452380Y-120260714D01*
X172119047Y-120022619D02*
X172071428Y-119975000D01*
X171976190Y-119927380D01*
X171738095Y-119927380D01*
X171642857Y-119975000D01*
X171595238Y-120022619D01*
X171547619Y-120117857D01*
X171547619Y-120213095D01*
X171595238Y-120355952D01*
X172166666Y-120927380D01*
X171547619Y-120927380D01*
X171119047Y-120832142D02*
X171071428Y-120879761D01*
X171119047Y-120927380D01*
X171166666Y-120879761D01*
X171119047Y-120832142D01*
X171119047Y-120927380D01*
X170452380Y-119927380D02*
X170357142Y-119927380D01*
X170261904Y-119975000D01*
X170214285Y-120022619D01*
X170166666Y-120117857D01*
X170119047Y-120308333D01*
X170119047Y-120546428D01*
X170166666Y-120736904D01*
X170214285Y-120832142D01*
X170261904Y-120879761D01*
X170357142Y-120927380D01*
X170452380Y-120927380D01*
X170547619Y-120879761D01*
X170595238Y-120832142D01*
X170642857Y-120736904D01*
X170690476Y-120546428D01*
X170690476Y-120308333D01*
X170642857Y-120117857D01*
X170595238Y-120022619D01*
X170547619Y-119975000D01*
X170452380Y-119927380D01*
X169119047Y-120927380D02*
X169452380Y-120451190D01*
X169690476Y-120927380D02*
X169690476Y-119927380D01*
X169309523Y-119927380D01*
X169214285Y-119975000D01*
X169166666Y-120022619D01*
X169119047Y-120117857D01*
X169119047Y-120260714D01*
X169166666Y-120355952D01*
X169214285Y-120403571D01*
X169309523Y-120451190D01*
X169690476Y-120451190D01*
X168166666Y-119975000D02*
X168261904Y-119927380D01*
X168404761Y-119927380D01*
X168547619Y-119975000D01*
X168642857Y-120070238D01*
X168690476Y-120165476D01*
X168738095Y-120355952D01*
X168738095Y-120498809D01*
X168690476Y-120689285D01*
X168642857Y-120784523D01*
X168547619Y-120879761D01*
X168404761Y-120927380D01*
X168309523Y-120927380D01*
X168166666Y-120879761D01*
X168119047Y-120832142D01*
X168119047Y-120498809D01*
X168309523Y-120498809D01*
X167357142Y-120403571D02*
X167214285Y-120451190D01*
X167166666Y-120498809D01*
X167119047Y-120594047D01*
X167119047Y-120736904D01*
X167166666Y-120832142D01*
X167214285Y-120879761D01*
X167309523Y-120927380D01*
X167690476Y-120927380D01*
X167690476Y-119927380D01*
X167357142Y-119927380D01*
X167261904Y-119975000D01*
X167214285Y-120022619D01*
X167166666Y-120117857D01*
X167166666Y-120213095D01*
X167214285Y-120308333D01*
X167261904Y-120355952D01*
X167357142Y-120403571D01*
X167690476Y-120403571D01*
D10*
X142200000Y-109542857D02*
X142771428Y-109542857D01*
X142771428Y-108342857D01*
X141857142Y-108457142D02*
X141800000Y-108400000D01*
X141685714Y-108342857D01*
X141400000Y-108342857D01*
X141285714Y-108400000D01*
X141228571Y-108457142D01*
X141171428Y-108571428D01*
X141171428Y-108685714D01*
X141228571Y-108857142D01*
X141914285Y-109542857D01*
X141171428Y-109542857D01*
X250200000Y-109542857D02*
X250600000Y-108971428D01*
X250885714Y-109542857D02*
X250885714Y-108342857D01*
X250428571Y-108342857D01*
X250314285Y-108400000D01*
X250257142Y-108457142D01*
X250200000Y-108571428D01*
X250200000Y-108742857D01*
X250257142Y-108857142D01*
X250314285Y-108914285D01*
X250428571Y-108971428D01*
X250885714Y-108971428D01*
X249114285Y-108342857D02*
X249685714Y-108342857D01*
X249742857Y-108914285D01*
X249685714Y-108857142D01*
X249571428Y-108800000D01*
X249285714Y-108800000D01*
X249171428Y-108857142D01*
X249114285Y-108914285D01*
X249057142Y-109028571D01*
X249057142Y-109314285D01*
X249114285Y-109428571D01*
X249171428Y-109485714D01*
X249285714Y-109542857D01*
X249571428Y-109542857D01*
X249685714Y-109485714D01*
X249742857Y-109428571D01*
X214200000Y-109542857D02*
X214771428Y-109542857D01*
X214771428Y-108342857D01*
X213285714Y-108742857D02*
X213285714Y-109542857D01*
X213571428Y-108285714D02*
X213857142Y-109142857D01*
X213114285Y-109142857D01*
X178200000Y-109542857D02*
X178600000Y-108971428D01*
X178885714Y-109542857D02*
X178885714Y-108342857D01*
X178428571Y-108342857D01*
X178314285Y-108400000D01*
X178257142Y-108457142D01*
X178200000Y-108571428D01*
X178200000Y-108742857D01*
X178257142Y-108857142D01*
X178314285Y-108914285D01*
X178428571Y-108971428D01*
X178885714Y-108971428D01*
X177800000Y-108342857D02*
X177057142Y-108342857D01*
X177457142Y-108800000D01*
X177285714Y-108800000D01*
X177171428Y-108857142D01*
X177114285Y-108914285D01*
X177057142Y-109028571D01*
X177057142Y-109314285D01*
X177114285Y-109428571D01*
X177171428Y-109485714D01*
X177285714Y-109542857D01*
X177628571Y-109542857D01*
X177742857Y-109485714D01*
X177800000Y-109428571D01*
X106200000Y-109542857D02*
X106600000Y-108971428D01*
X106885714Y-109542857D02*
X106885714Y-108342857D01*
X106428571Y-108342857D01*
X106314285Y-108400000D01*
X106257142Y-108457142D01*
X106200000Y-108571428D01*
X106200000Y-108742857D01*
X106257142Y-108857142D01*
X106314285Y-108914285D01*
X106428571Y-108971428D01*
X106885714Y-108971428D01*
X105057142Y-109542857D02*
X105742857Y-109542857D01*
X105400000Y-109542857D02*
X105400000Y-108342857D01*
X105514285Y-108514285D01*
X105628571Y-108628571D01*
X105742857Y-108685714D01*
D12*
X216350000Y-137750000D02*
X223650000Y-137750000D01*
X216350000Y-132250000D02*
X223650000Y-132250000D01*
X223650000Y-132250000D02*
X223650000Y-133400000D01*
X233490000Y-136365580D02*
X233490000Y-136084420D01*
X234510000Y-136365580D02*
X234510000Y-136084420D01*
X214510000Y-136365580D02*
X214510000Y-136084420D01*
X213490000Y-136365580D02*
X213490000Y-136084420D01*
X193490000Y-136365580D02*
X193490000Y-136084420D01*
X194510000Y-136365580D02*
X194510000Y-136084420D01*
X173490000Y-136365580D02*
X173490000Y-136084420D01*
X174510000Y-136365580D02*
X174510000Y-136084420D01*
X153490000Y-136365580D02*
X153490000Y-136084420D01*
X154510000Y-136365580D02*
X154510000Y-136084420D01*
X133490000Y-136365580D02*
X133490000Y-136084420D01*
X134510000Y-136365580D02*
X134510000Y-136084420D01*
X113490000Y-136365580D02*
X113490000Y-136084420D01*
X114510000Y-136365580D02*
X114510000Y-136084420D01*
X94510000Y-136365580D02*
X94510000Y-136084420D01*
X93490000Y-136365580D02*
X93490000Y-136084420D01*
X73490000Y-136365580D02*
X73490000Y-136084420D01*
X74510000Y-136365580D02*
X74510000Y-136084420D01*
X83650000Y-132250000D02*
X83650000Y-133400000D01*
X76350000Y-132250000D02*
X83650000Y-132250000D01*
X76350000Y-137750000D02*
X83650000Y-137750000D01*
X96350000Y-137750000D02*
X103650000Y-137750000D01*
X96350000Y-132250000D02*
X103650000Y-132250000D01*
X103650000Y-132250000D02*
X103650000Y-133400000D01*
X116350000Y-137750000D02*
X123650000Y-137750000D01*
X116350000Y-132250000D02*
X123650000Y-132250000D01*
X123650000Y-132250000D02*
X123650000Y-133400000D01*
X136350000Y-137750000D02*
X143650000Y-137750000D01*
X136350000Y-132250000D02*
X143650000Y-132250000D01*
X143650000Y-132250000D02*
X143650000Y-133400000D01*
X243650000Y-132250000D02*
X243650000Y-133400000D01*
X236350000Y-132250000D02*
X243650000Y-132250000D01*
X236350000Y-137750000D02*
X243650000Y-137750000D01*
X196350000Y-137750000D02*
X203650000Y-137750000D01*
X196350000Y-132250000D02*
X203650000Y-132250000D01*
X203650000Y-132250000D02*
X203650000Y-133400000D01*
X176350000Y-137750000D02*
X183650000Y-137750000D01*
X176350000Y-132250000D02*
X183650000Y-132250000D01*
X183650000Y-132250000D02*
X183650000Y-133400000D01*
X163650000Y-132250000D02*
X163650000Y-133400000D01*
X156350000Y-132250000D02*
X163650000Y-132250000D01*
X156350000Y-137750000D02*
X163650000Y-137750000D01*
X235703733Y-105510000D02*
X236046267Y-105510000D01*
X235703733Y-104490000D02*
X236046267Y-104490000D01*
X163703733Y-105510000D02*
X164046267Y-105510000D01*
X163703733Y-104490000D02*
X164046267Y-104490000D01*
X91703733Y-105510000D02*
X92046267Y-105510000D01*
X91703733Y-104490000D02*
X92046267Y-104490000D01*
X229046267Y-106490000D02*
X228703733Y-106490000D01*
X229046267Y-107510000D02*
X228703733Y-107510000D01*
X157046267Y-106490000D02*
X156703733Y-106490000D01*
X157046267Y-107510000D02*
X156703733Y-107510000D01*
X85046267Y-106490000D02*
X84703733Y-106490000D01*
X85046267Y-107510000D02*
X84703733Y-107510000D01*
X228240000Y-105580000D02*
X229700000Y-105580000D01*
X228240000Y-102420000D02*
X231400000Y-102420000D01*
X228240000Y-102420000D02*
X228240000Y-103350000D01*
X228240000Y-105580000D02*
X228240000Y-104650000D01*
X156240000Y-105580000D02*
X156240000Y-104650000D01*
X156240000Y-102420000D02*
X156240000Y-103350000D01*
X156240000Y-102420000D02*
X159400000Y-102420000D01*
X156240000Y-105580000D02*
X157700000Y-105580000D01*
X84240000Y-105580000D02*
X85700000Y-105580000D01*
X84240000Y-102420000D02*
X87400000Y-102420000D01*
X84240000Y-102420000D02*
X84240000Y-103350000D01*
X84240000Y-105580000D02*
X84240000Y-104650000D01*
X175440000Y-106545000D02*
X175440000Y-103455000D01*
X180500000Y-105000000D02*
G75*
G03*
X180500000Y-105000000I-2500000J0D01*
G01*
X180990000Y-104999538D02*
G75*
G02*
X175440000Y-106544830I-2990000J-462D01*
G01*
X180990000Y-105000462D02*
G75*
G03*
X175440000Y-103455170I-2990000J462D01*
G01*
X247440000Y-106545000D02*
X247440000Y-103455000D01*
X252500000Y-105000000D02*
G75*
G03*
X252500000Y-105000000I-2500000J0D01*
G01*
X252990000Y-104999538D02*
G75*
G02*
X247440000Y-106544830I-2990000J-462D01*
G01*
X252990000Y-105000462D02*
G75*
G03*
X247440000Y-103455170I-2990000J462D01*
G01*
X211440000Y-106545000D02*
X211440000Y-103455000D01*
X216500000Y-105000000D02*
G75*
G03*
X216500000Y-105000000I-2500000J0D01*
G01*
X216990000Y-104999538D02*
G75*
G02*
X211440000Y-106544830I-2990000J-462D01*
G01*
X216990000Y-105000462D02*
G75*
G03*
X211440000Y-103455170I-2990000J462D01*
G01*
X139440000Y-106545000D02*
X139440000Y-103455000D01*
X144500000Y-105000000D02*
G75*
G03*
X144500000Y-105000000I-2500000J0D01*
G01*
X144990000Y-104999538D02*
G75*
G02*
X139440000Y-106544830I-2990000J-462D01*
G01*
X144990000Y-105000462D02*
G75*
G03*
X139440000Y-103455170I-2990000J462D01*
G01*
X103440000Y-106545000D02*
X103440000Y-103455000D01*
X108500000Y-105000000D02*
G75*
G03*
X108500000Y-105000000I-2500000J0D01*
G01*
X108990000Y-104999538D02*
G75*
G02*
X103440000Y-106544830I-2990000J-462D01*
G01*
X108990000Y-105000462D02*
G75*
G03*
X103440000Y-103455170I-2990000J462D01*
G01*
X67440000Y-106545000D02*
X67440000Y-103455000D01*
X72500000Y-105000000D02*
G75*
G03*
X72500000Y-105000000I-2500000J0D01*
G01*
X72990000Y-104999538D02*
G75*
G02*
X67440000Y-106544830I-2990000J-462D01*
G01*
X72990000Y-105000462D02*
G75*
G03*
X67440000Y-103455170I-2990000J462D01*
G01*
D11*
X221214285Y-138952380D02*
X221214285Y-137952380D01*
X220976190Y-137952380D01*
X220833333Y-138000000D01*
X220738095Y-138095238D01*
X220690476Y-138190476D01*
X220642857Y-138380952D01*
X220642857Y-138523809D01*
X220690476Y-138714285D01*
X220738095Y-138809523D01*
X220833333Y-138904761D01*
X220976190Y-138952380D01*
X221214285Y-138952380D01*
X219690476Y-138952380D02*
X220261904Y-138952380D01*
X219976190Y-138952380D02*
X219976190Y-137952380D01*
X220071428Y-138095238D01*
X220166666Y-138190476D01*
X220261904Y-138238095D01*
X218833333Y-138285714D02*
X218833333Y-138952380D01*
X219071428Y-137904761D02*
X219309523Y-138619047D01*
X218690476Y-138619047D01*
X215564285Y-137052380D02*
X216135714Y-137052380D01*
X215850000Y-137052380D02*
X215850000Y-136052380D01*
X215945238Y-136195238D01*
X216040476Y-136290476D01*
X216135714Y-136338095D01*
X234166666Y-138582142D02*
X234214285Y-138629761D01*
X234357142Y-138677380D01*
X234452380Y-138677380D01*
X234595238Y-138629761D01*
X234690476Y-138534523D01*
X234738095Y-138439285D01*
X234785714Y-138248809D01*
X234785714Y-138105952D01*
X234738095Y-137915476D01*
X234690476Y-137820238D01*
X234595238Y-137725000D01*
X234452380Y-137677380D01*
X234357142Y-137677380D01*
X234214285Y-137725000D01*
X234166666Y-137772619D01*
X233690476Y-138677380D02*
X233500000Y-138677380D01*
X233404761Y-138629761D01*
X233357142Y-138582142D01*
X233261904Y-138439285D01*
X233214285Y-138248809D01*
X233214285Y-137867857D01*
X233261904Y-137772619D01*
X233309523Y-137725000D01*
X233404761Y-137677380D01*
X233595238Y-137677380D01*
X233690476Y-137725000D01*
X233738095Y-137772619D01*
X233785714Y-137867857D01*
X233785714Y-138105952D01*
X233738095Y-138201190D01*
X233690476Y-138248809D01*
X233595238Y-138296428D01*
X233404761Y-138296428D01*
X233309523Y-138248809D01*
X233261904Y-138201190D01*
X233214285Y-138105952D01*
X214166666Y-138582142D02*
X214214285Y-138629761D01*
X214357142Y-138677380D01*
X214452380Y-138677380D01*
X214595238Y-138629761D01*
X214690476Y-138534523D01*
X214738095Y-138439285D01*
X214785714Y-138248809D01*
X214785714Y-138105952D01*
X214738095Y-137915476D01*
X214690476Y-137820238D01*
X214595238Y-137725000D01*
X214452380Y-137677380D01*
X214357142Y-137677380D01*
X214214285Y-137725000D01*
X214166666Y-137772619D01*
X213595238Y-138105952D02*
X213690476Y-138058333D01*
X213738095Y-138010714D01*
X213785714Y-137915476D01*
X213785714Y-137867857D01*
X213738095Y-137772619D01*
X213690476Y-137725000D01*
X213595238Y-137677380D01*
X213404761Y-137677380D01*
X213309523Y-137725000D01*
X213261904Y-137772619D01*
X213214285Y-137867857D01*
X213214285Y-137915476D01*
X213261904Y-138010714D01*
X213309523Y-138058333D01*
X213404761Y-138105952D01*
X213595238Y-138105952D01*
X213690476Y-138153571D01*
X213738095Y-138201190D01*
X213785714Y-138296428D01*
X213785714Y-138486904D01*
X213738095Y-138582142D01*
X213690476Y-138629761D01*
X213595238Y-138677380D01*
X213404761Y-138677380D01*
X213309523Y-138629761D01*
X213261904Y-138582142D01*
X213214285Y-138486904D01*
X213214285Y-138296428D01*
X213261904Y-138201190D01*
X213309523Y-138153571D01*
X213404761Y-138105952D01*
X194166666Y-138582142D02*
X194214285Y-138629761D01*
X194357142Y-138677380D01*
X194452380Y-138677380D01*
X194595238Y-138629761D01*
X194690476Y-138534523D01*
X194738095Y-138439285D01*
X194785714Y-138248809D01*
X194785714Y-138105952D01*
X194738095Y-137915476D01*
X194690476Y-137820238D01*
X194595238Y-137725000D01*
X194452380Y-137677380D01*
X194357142Y-137677380D01*
X194214285Y-137725000D01*
X194166666Y-137772619D01*
X193833333Y-137677380D02*
X193166666Y-137677380D01*
X193595238Y-138677380D01*
X174166666Y-138582142D02*
X174214285Y-138629761D01*
X174357142Y-138677380D01*
X174452380Y-138677380D01*
X174595238Y-138629761D01*
X174690476Y-138534523D01*
X174738095Y-138439285D01*
X174785714Y-138248809D01*
X174785714Y-138105952D01*
X174738095Y-137915476D01*
X174690476Y-137820238D01*
X174595238Y-137725000D01*
X174452380Y-137677380D01*
X174357142Y-137677380D01*
X174214285Y-137725000D01*
X174166666Y-137772619D01*
X173309523Y-137677380D02*
X173500000Y-137677380D01*
X173595238Y-137725000D01*
X173642857Y-137772619D01*
X173738095Y-137915476D01*
X173785714Y-138105952D01*
X173785714Y-138486904D01*
X173738095Y-138582142D01*
X173690476Y-138629761D01*
X173595238Y-138677380D01*
X173404761Y-138677380D01*
X173309523Y-138629761D01*
X173261904Y-138582142D01*
X173214285Y-138486904D01*
X173214285Y-138248809D01*
X173261904Y-138153571D01*
X173309523Y-138105952D01*
X173404761Y-138058333D01*
X173595238Y-138058333D01*
X173690476Y-138105952D01*
X173738095Y-138153571D01*
X173785714Y-138248809D01*
X154166666Y-138582142D02*
X154214285Y-138629761D01*
X154357142Y-138677380D01*
X154452380Y-138677380D01*
X154595238Y-138629761D01*
X154690476Y-138534523D01*
X154738095Y-138439285D01*
X154785714Y-138248809D01*
X154785714Y-138105952D01*
X154738095Y-137915476D01*
X154690476Y-137820238D01*
X154595238Y-137725000D01*
X154452380Y-137677380D01*
X154357142Y-137677380D01*
X154214285Y-137725000D01*
X154166666Y-137772619D01*
X153261904Y-137677380D02*
X153738095Y-137677380D01*
X153785714Y-138153571D01*
X153738095Y-138105952D01*
X153642857Y-138058333D01*
X153404761Y-138058333D01*
X153309523Y-138105952D01*
X153261904Y-138153571D01*
X153214285Y-138248809D01*
X153214285Y-138486904D01*
X153261904Y-138582142D01*
X153309523Y-138629761D01*
X153404761Y-138677380D01*
X153642857Y-138677380D01*
X153738095Y-138629761D01*
X153785714Y-138582142D01*
X134166666Y-138582142D02*
X134214285Y-138629761D01*
X134357142Y-138677380D01*
X134452380Y-138677380D01*
X134595238Y-138629761D01*
X134690476Y-138534523D01*
X134738095Y-138439285D01*
X134785714Y-138248809D01*
X134785714Y-138105952D01*
X134738095Y-137915476D01*
X134690476Y-137820238D01*
X134595238Y-137725000D01*
X134452380Y-137677380D01*
X134357142Y-137677380D01*
X134214285Y-137725000D01*
X134166666Y-137772619D01*
X133309523Y-138010714D02*
X133309523Y-138677380D01*
X133547619Y-137629761D02*
X133785714Y-138344047D01*
X133166666Y-138344047D01*
X114166666Y-138582142D02*
X114214285Y-138629761D01*
X114357142Y-138677380D01*
X114452380Y-138677380D01*
X114595238Y-138629761D01*
X114690476Y-138534523D01*
X114738095Y-138439285D01*
X114785714Y-138248809D01*
X114785714Y-138105952D01*
X114738095Y-137915476D01*
X114690476Y-137820238D01*
X114595238Y-137725000D01*
X114452380Y-137677380D01*
X114357142Y-137677380D01*
X114214285Y-137725000D01*
X114166666Y-137772619D01*
X113833333Y-137677380D02*
X113214285Y-137677380D01*
X113547619Y-138058333D01*
X113404761Y-138058333D01*
X113309523Y-138105952D01*
X113261904Y-138153571D01*
X113214285Y-138248809D01*
X113214285Y-138486904D01*
X113261904Y-138582142D01*
X113309523Y-138629761D01*
X113404761Y-138677380D01*
X113690476Y-138677380D01*
X113785714Y-138629761D01*
X113833333Y-138582142D01*
X94166666Y-138582142D02*
X94214285Y-138629761D01*
X94357142Y-138677380D01*
X94452380Y-138677380D01*
X94595238Y-138629761D01*
X94690476Y-138534523D01*
X94738095Y-138439285D01*
X94785714Y-138248809D01*
X94785714Y-138105952D01*
X94738095Y-137915476D01*
X94690476Y-137820238D01*
X94595238Y-137725000D01*
X94452380Y-137677380D01*
X94357142Y-137677380D01*
X94214285Y-137725000D01*
X94166666Y-137772619D01*
X93785714Y-137772619D02*
X93738095Y-137725000D01*
X93642857Y-137677380D01*
X93404761Y-137677380D01*
X93309523Y-137725000D01*
X93261904Y-137772619D01*
X93214285Y-137867857D01*
X93214285Y-137963095D01*
X93261904Y-138105952D01*
X93833333Y-138677380D01*
X93214285Y-138677380D01*
X74166666Y-138582142D02*
X74214285Y-138629761D01*
X74357142Y-138677380D01*
X74452380Y-138677380D01*
X74595238Y-138629761D01*
X74690476Y-138534523D01*
X74738095Y-138439285D01*
X74785714Y-138248809D01*
X74785714Y-138105952D01*
X74738095Y-137915476D01*
X74690476Y-137820238D01*
X74595238Y-137725000D01*
X74452380Y-137677380D01*
X74357142Y-137677380D01*
X74214285Y-137725000D01*
X74166666Y-137772619D01*
X73214285Y-138677380D02*
X73785714Y-138677380D01*
X73500000Y-138677380D02*
X73500000Y-137677380D01*
X73595238Y-137820238D01*
X73690476Y-137915476D01*
X73785714Y-137963095D01*
X80738095Y-138952380D02*
X80738095Y-137952380D01*
X80500000Y-137952380D01*
X80357142Y-138000000D01*
X80261904Y-138095238D01*
X80214285Y-138190476D01*
X80166666Y-138380952D01*
X80166666Y-138523809D01*
X80214285Y-138714285D01*
X80261904Y-138809523D01*
X80357142Y-138904761D01*
X80500000Y-138952380D01*
X80738095Y-138952380D01*
X79833333Y-137952380D02*
X79166666Y-137952380D01*
X79595238Y-138952380D01*
X75564285Y-137052380D02*
X76135714Y-137052380D01*
X75850000Y-137052380D02*
X75850000Y-136052380D01*
X75945238Y-136195238D01*
X76040476Y-136290476D01*
X76135714Y-136338095D01*
X100738095Y-138952380D02*
X100738095Y-137952380D01*
X100500000Y-137952380D01*
X100357142Y-138000000D01*
X100261904Y-138095238D01*
X100214285Y-138190476D01*
X100166666Y-138380952D01*
X100166666Y-138523809D01*
X100214285Y-138714285D01*
X100261904Y-138809523D01*
X100357142Y-138904761D01*
X100500000Y-138952380D01*
X100738095Y-138952380D01*
X99595238Y-138380952D02*
X99690476Y-138333333D01*
X99738095Y-138285714D01*
X99785714Y-138190476D01*
X99785714Y-138142857D01*
X99738095Y-138047619D01*
X99690476Y-138000000D01*
X99595238Y-137952380D01*
X99404761Y-137952380D01*
X99309523Y-138000000D01*
X99261904Y-138047619D01*
X99214285Y-138142857D01*
X99214285Y-138190476D01*
X99261904Y-138285714D01*
X99309523Y-138333333D01*
X99404761Y-138380952D01*
X99595238Y-138380952D01*
X99690476Y-138428571D01*
X99738095Y-138476190D01*
X99785714Y-138571428D01*
X99785714Y-138761904D01*
X99738095Y-138857142D01*
X99690476Y-138904761D01*
X99595238Y-138952380D01*
X99404761Y-138952380D01*
X99309523Y-138904761D01*
X99261904Y-138857142D01*
X99214285Y-138761904D01*
X99214285Y-138571428D01*
X99261904Y-138476190D01*
X99309523Y-138428571D01*
X99404761Y-138380952D01*
X95564285Y-137052380D02*
X96135714Y-137052380D01*
X95850000Y-137052380D02*
X95850000Y-136052380D01*
X95945238Y-136195238D01*
X96040476Y-136290476D01*
X96135714Y-136338095D01*
X120738095Y-138952380D02*
X120738095Y-137952380D01*
X120500000Y-137952380D01*
X120357142Y-138000000D01*
X120261904Y-138095238D01*
X120214285Y-138190476D01*
X120166666Y-138380952D01*
X120166666Y-138523809D01*
X120214285Y-138714285D01*
X120261904Y-138809523D01*
X120357142Y-138904761D01*
X120500000Y-138952380D01*
X120738095Y-138952380D01*
X119690476Y-138952380D02*
X119500000Y-138952380D01*
X119404761Y-138904761D01*
X119357142Y-138857142D01*
X119261904Y-138714285D01*
X119214285Y-138523809D01*
X119214285Y-138142857D01*
X119261904Y-138047619D01*
X119309523Y-138000000D01*
X119404761Y-137952380D01*
X119595238Y-137952380D01*
X119690476Y-138000000D01*
X119738095Y-138047619D01*
X119785714Y-138142857D01*
X119785714Y-138380952D01*
X119738095Y-138476190D01*
X119690476Y-138523809D01*
X119595238Y-138571428D01*
X119404761Y-138571428D01*
X119309523Y-138523809D01*
X119261904Y-138476190D01*
X119214285Y-138380952D01*
X115564285Y-137052380D02*
X116135714Y-137052380D01*
X115850000Y-137052380D02*
X115850000Y-136052380D01*
X115945238Y-136195238D01*
X116040476Y-136290476D01*
X116135714Y-136338095D01*
X141214285Y-138952380D02*
X141214285Y-137952380D01*
X140976190Y-137952380D01*
X140833333Y-138000000D01*
X140738095Y-138095238D01*
X140690476Y-138190476D01*
X140642857Y-138380952D01*
X140642857Y-138523809D01*
X140690476Y-138714285D01*
X140738095Y-138809523D01*
X140833333Y-138904761D01*
X140976190Y-138952380D01*
X141214285Y-138952380D01*
X139690476Y-138952380D02*
X140261904Y-138952380D01*
X139976190Y-138952380D02*
X139976190Y-137952380D01*
X140071428Y-138095238D01*
X140166666Y-138190476D01*
X140261904Y-138238095D01*
X139071428Y-137952380D02*
X138976190Y-137952380D01*
X138880952Y-138000000D01*
X138833333Y-138047619D01*
X138785714Y-138142857D01*
X138738095Y-138333333D01*
X138738095Y-138571428D01*
X138785714Y-138761904D01*
X138833333Y-138857142D01*
X138880952Y-138904761D01*
X138976190Y-138952380D01*
X139071428Y-138952380D01*
X139166666Y-138904761D01*
X139214285Y-138857142D01*
X139261904Y-138761904D01*
X139309523Y-138571428D01*
X139309523Y-138333333D01*
X139261904Y-138142857D01*
X139214285Y-138047619D01*
X139166666Y-138000000D01*
X139071428Y-137952380D01*
X135564285Y-137052380D02*
X136135714Y-137052380D01*
X135850000Y-137052380D02*
X135850000Y-136052380D01*
X135945238Y-136195238D01*
X136040476Y-136290476D01*
X136135714Y-136338095D01*
X241214285Y-138952380D02*
X241214285Y-137952380D01*
X240976190Y-137952380D01*
X240833333Y-138000000D01*
X240738095Y-138095238D01*
X240690476Y-138190476D01*
X240642857Y-138380952D01*
X240642857Y-138523809D01*
X240690476Y-138714285D01*
X240738095Y-138809523D01*
X240833333Y-138904761D01*
X240976190Y-138952380D01*
X241214285Y-138952380D01*
X239690476Y-138952380D02*
X240261904Y-138952380D01*
X239976190Y-138952380D02*
X239976190Y-137952380D01*
X240071428Y-138095238D01*
X240166666Y-138190476D01*
X240261904Y-138238095D01*
X238785714Y-137952380D02*
X239261904Y-137952380D01*
X239309523Y-138428571D01*
X239261904Y-138380952D01*
X239166666Y-138333333D01*
X238928571Y-138333333D01*
X238833333Y-138380952D01*
X238785714Y-138428571D01*
X238738095Y-138523809D01*
X238738095Y-138761904D01*
X238785714Y-138857142D01*
X238833333Y-138904761D01*
X238928571Y-138952380D01*
X239166666Y-138952380D01*
X239261904Y-138904761D01*
X239309523Y-138857142D01*
X235564285Y-137052380D02*
X236135714Y-137052380D01*
X235850000Y-137052380D02*
X235850000Y-136052380D01*
X235945238Y-136195238D01*
X236040476Y-136290476D01*
X236135714Y-136338095D01*
X201214285Y-138952380D02*
X201214285Y-137952380D01*
X200976190Y-137952380D01*
X200833333Y-138000000D01*
X200738095Y-138095238D01*
X200690476Y-138190476D01*
X200642857Y-138380952D01*
X200642857Y-138523809D01*
X200690476Y-138714285D01*
X200738095Y-138809523D01*
X200833333Y-138904761D01*
X200976190Y-138952380D01*
X201214285Y-138952380D01*
X199690476Y-138952380D02*
X200261904Y-138952380D01*
X199976190Y-138952380D02*
X199976190Y-137952380D01*
X200071428Y-138095238D01*
X200166666Y-138190476D01*
X200261904Y-138238095D01*
X199357142Y-137952380D02*
X198738095Y-137952380D01*
X199071428Y-138333333D01*
X198928571Y-138333333D01*
X198833333Y-138380952D01*
X198785714Y-138428571D01*
X198738095Y-138523809D01*
X198738095Y-138761904D01*
X198785714Y-138857142D01*
X198833333Y-138904761D01*
X198928571Y-138952380D01*
X199214285Y-138952380D01*
X199309523Y-138904761D01*
X199357142Y-138857142D01*
X195564285Y-137052380D02*
X196135714Y-137052380D01*
X195850000Y-137052380D02*
X195850000Y-136052380D01*
X195945238Y-136195238D01*
X196040476Y-136290476D01*
X196135714Y-136338095D01*
X181214285Y-138952380D02*
X181214285Y-137952380D01*
X180976190Y-137952380D01*
X180833333Y-138000000D01*
X180738095Y-138095238D01*
X180690476Y-138190476D01*
X180642857Y-138380952D01*
X180642857Y-138523809D01*
X180690476Y-138714285D01*
X180738095Y-138809523D01*
X180833333Y-138904761D01*
X180976190Y-138952380D01*
X181214285Y-138952380D01*
X179690476Y-138952380D02*
X180261904Y-138952380D01*
X179976190Y-138952380D02*
X179976190Y-137952380D01*
X180071428Y-138095238D01*
X180166666Y-138190476D01*
X180261904Y-138238095D01*
X179309523Y-138047619D02*
X179261904Y-138000000D01*
X179166666Y-137952380D01*
X178928571Y-137952380D01*
X178833333Y-138000000D01*
X178785714Y-138047619D01*
X178738095Y-138142857D01*
X178738095Y-138238095D01*
X178785714Y-138380952D01*
X179357142Y-138952380D01*
X178738095Y-138952380D01*
X175564285Y-137052380D02*
X176135714Y-137052380D01*
X175850000Y-137052380D02*
X175850000Y-136052380D01*
X175945238Y-136195238D01*
X176040476Y-136290476D01*
X176135714Y-136338095D01*
X161214285Y-138952380D02*
X161214285Y-137952380D01*
X160976190Y-137952380D01*
X160833333Y-138000000D01*
X160738095Y-138095238D01*
X160690476Y-138190476D01*
X160642857Y-138380952D01*
X160642857Y-138523809D01*
X160690476Y-138714285D01*
X160738095Y-138809523D01*
X160833333Y-138904761D01*
X160976190Y-138952380D01*
X161214285Y-138952380D01*
X159690476Y-138952380D02*
X160261904Y-138952380D01*
X159976190Y-138952380D02*
X159976190Y-137952380D01*
X160071428Y-138095238D01*
X160166666Y-138190476D01*
X160261904Y-138238095D01*
X158738095Y-138952380D02*
X159309523Y-138952380D01*
X159023809Y-138952380D02*
X159023809Y-137952380D01*
X159119047Y-138095238D01*
X159214285Y-138190476D01*
X159309523Y-138238095D01*
X155564285Y-137052380D02*
X156135714Y-137052380D01*
X155850000Y-137052380D02*
X155850000Y-136052380D01*
X155945238Y-136195238D01*
X156040476Y-136290476D01*
X156135714Y-136338095D01*
X233041666Y-105452380D02*
X233375000Y-104976190D01*
X233613095Y-105452380D02*
X233613095Y-104452380D01*
X233232142Y-104452380D01*
X233136904Y-104500000D01*
X233089285Y-104547619D01*
X233041666Y-104642857D01*
X233041666Y-104785714D01*
X233089285Y-104880952D01*
X233136904Y-104928571D01*
X233232142Y-104976190D01*
X233613095Y-104976190D01*
X232184523Y-104452380D02*
X232375000Y-104452380D01*
X232470238Y-104500000D01*
X232517857Y-104547619D01*
X232613095Y-104690476D01*
X232660714Y-104880952D01*
X232660714Y-105261904D01*
X232613095Y-105357142D01*
X232565476Y-105404761D01*
X232470238Y-105452380D01*
X232279761Y-105452380D01*
X232184523Y-105404761D01*
X232136904Y-105357142D01*
X232089285Y-105261904D01*
X232089285Y-105023809D01*
X232136904Y-104928571D01*
X232184523Y-104880952D01*
X232279761Y-104833333D01*
X232470238Y-104833333D01*
X232565476Y-104880952D01*
X232613095Y-104928571D01*
X232660714Y-105023809D01*
X161041666Y-105452380D02*
X161375000Y-104976190D01*
X161613095Y-105452380D02*
X161613095Y-104452380D01*
X161232142Y-104452380D01*
X161136904Y-104500000D01*
X161089285Y-104547619D01*
X161041666Y-104642857D01*
X161041666Y-104785714D01*
X161089285Y-104880952D01*
X161136904Y-104928571D01*
X161232142Y-104976190D01*
X161613095Y-104976190D01*
X160136904Y-104452380D02*
X160613095Y-104452380D01*
X160660714Y-104928571D01*
X160613095Y-104880952D01*
X160517857Y-104833333D01*
X160279761Y-104833333D01*
X160184523Y-104880952D01*
X160136904Y-104928571D01*
X160089285Y-105023809D01*
X160089285Y-105261904D01*
X160136904Y-105357142D01*
X160184523Y-105404761D01*
X160279761Y-105452380D01*
X160517857Y-105452380D01*
X160613095Y-105404761D01*
X160660714Y-105357142D01*
X89827380Y-104833333D02*
X89351190Y-104500000D01*
X89827380Y-104261904D02*
X88827380Y-104261904D01*
X88827380Y-104642857D01*
X88875000Y-104738095D01*
X88922619Y-104785714D01*
X89017857Y-104833333D01*
X89160714Y-104833333D01*
X89255952Y-104785714D01*
X89303571Y-104738095D01*
X89351190Y-104642857D01*
X89351190Y-104261904D01*
X89160714Y-105690476D02*
X89827380Y-105690476D01*
X88779761Y-105452380D02*
X89494047Y-105214285D01*
X89494047Y-105833333D01*
X229041666Y-108952380D02*
X229375000Y-108476190D01*
X229613095Y-108952380D02*
X229613095Y-107952380D01*
X229232142Y-107952380D01*
X229136904Y-108000000D01*
X229089285Y-108047619D01*
X229041666Y-108142857D01*
X229041666Y-108285714D01*
X229089285Y-108380952D01*
X229136904Y-108428571D01*
X229232142Y-108476190D01*
X229613095Y-108476190D01*
X228708333Y-107952380D02*
X228089285Y-107952380D01*
X228422619Y-108333333D01*
X228279761Y-108333333D01*
X228184523Y-108380952D01*
X228136904Y-108428571D01*
X228089285Y-108523809D01*
X228089285Y-108761904D01*
X228136904Y-108857142D01*
X228184523Y-108904761D01*
X228279761Y-108952380D01*
X228565476Y-108952380D01*
X228660714Y-108904761D01*
X228708333Y-108857142D01*
X154041666Y-107452380D02*
X154375000Y-106976190D01*
X154613095Y-107452380D02*
X154613095Y-106452380D01*
X154232142Y-106452380D01*
X154136904Y-106500000D01*
X154089285Y-106547619D01*
X154041666Y-106642857D01*
X154041666Y-106785714D01*
X154089285Y-106880952D01*
X154136904Y-106928571D01*
X154232142Y-106976190D01*
X154613095Y-106976190D01*
X153660714Y-106547619D02*
X153613095Y-106500000D01*
X153517857Y-106452380D01*
X153279761Y-106452380D01*
X153184523Y-106500000D01*
X153136904Y-106547619D01*
X153089285Y-106642857D01*
X153089285Y-106738095D01*
X153136904Y-106880952D01*
X153708333Y-107452380D01*
X153089285Y-107452380D01*
X82041666Y-107452380D02*
X82375000Y-106976190D01*
X82613095Y-107452380D02*
X82613095Y-106452380D01*
X82232142Y-106452380D01*
X82136904Y-106500000D01*
X82089285Y-106547619D01*
X82041666Y-106642857D01*
X82041666Y-106785714D01*
X82089285Y-106880952D01*
X82136904Y-106928571D01*
X82232142Y-106976190D01*
X82613095Y-106976190D01*
X81089285Y-107452380D02*
X81660714Y-107452380D01*
X81375000Y-107452380D02*
X81375000Y-106452380D01*
X81470238Y-106595238D01*
X81565476Y-106690476D01*
X81660714Y-106738095D01*
X229095238Y-102047619D02*
X229190476Y-102000000D01*
X229285714Y-101904761D01*
X229428571Y-101761904D01*
X229523809Y-101714285D01*
X229619047Y-101714285D01*
X229571428Y-101952380D02*
X229666666Y-101904761D01*
X229761904Y-101809523D01*
X229809523Y-101619047D01*
X229809523Y-101285714D01*
X229761904Y-101095238D01*
X229666666Y-101000000D01*
X229571428Y-100952380D01*
X229380952Y-100952380D01*
X229285714Y-101000000D01*
X229190476Y-101095238D01*
X229142857Y-101285714D01*
X229142857Y-101619047D01*
X229190476Y-101809523D01*
X229285714Y-101904761D01*
X229380952Y-101952380D01*
X229571428Y-101952380D01*
X228809523Y-100952380D02*
X228190476Y-100952380D01*
X228523809Y-101333333D01*
X228380952Y-101333333D01*
X228285714Y-101380952D01*
X228238095Y-101428571D01*
X228190476Y-101523809D01*
X228190476Y-101761904D01*
X228238095Y-101857142D01*
X228285714Y-101904761D01*
X228380952Y-101952380D01*
X228666666Y-101952380D01*
X228761904Y-101904761D01*
X228809523Y-101857142D01*
X157095238Y-102047619D02*
X157190476Y-102000000D01*
X157285714Y-101904761D01*
X157428571Y-101761904D01*
X157523809Y-101714285D01*
X157619047Y-101714285D01*
X157571428Y-101952380D02*
X157666666Y-101904761D01*
X157761904Y-101809523D01*
X157809523Y-101619047D01*
X157809523Y-101285714D01*
X157761904Y-101095238D01*
X157666666Y-101000000D01*
X157571428Y-100952380D01*
X157380952Y-100952380D01*
X157285714Y-101000000D01*
X157190476Y-101095238D01*
X157142857Y-101285714D01*
X157142857Y-101619047D01*
X157190476Y-101809523D01*
X157285714Y-101904761D01*
X157380952Y-101952380D01*
X157571428Y-101952380D01*
X156761904Y-101047619D02*
X156714285Y-101000000D01*
X156619047Y-100952380D01*
X156380952Y-100952380D01*
X156285714Y-101000000D01*
X156238095Y-101047619D01*
X156190476Y-101142857D01*
X156190476Y-101238095D01*
X156238095Y-101380952D01*
X156809523Y-101952380D01*
X156190476Y-101952380D01*
X85095238Y-102047619D02*
X85190476Y-102000000D01*
X85285714Y-101904761D01*
X85428571Y-101761904D01*
X85523809Y-101714285D01*
X85619047Y-101714285D01*
X85571428Y-101952380D02*
X85666666Y-101904761D01*
X85761904Y-101809523D01*
X85809523Y-101619047D01*
X85809523Y-101285714D01*
X85761904Y-101095238D01*
X85666666Y-101000000D01*
X85571428Y-100952380D01*
X85380952Y-100952380D01*
X85285714Y-101000000D01*
X85190476Y-101095238D01*
X85142857Y-101285714D01*
X85142857Y-101619047D01*
X85190476Y-101809523D01*
X85285714Y-101904761D01*
X85380952Y-101952380D01*
X85571428Y-101952380D01*
X84190476Y-101952380D02*
X84761904Y-101952380D01*
X84476190Y-101952380D02*
X84476190Y-100952380D01*
X84571428Y-101095238D01*
X84666666Y-101190476D01*
X84761904Y-101238095D01*
X183238095Y-105452380D02*
X183238095Y-104452380D01*
X183000000Y-104452380D01*
X182857142Y-104500000D01*
X182761904Y-104595238D01*
X182714285Y-104690476D01*
X182666666Y-104880952D01*
X182666666Y-105023809D01*
X182714285Y-105214285D01*
X182761904Y-105309523D01*
X182857142Y-105404761D01*
X183000000Y-105452380D01*
X183238095Y-105452380D01*
X181809523Y-104785714D02*
X181809523Y-105452380D01*
X182047619Y-104404761D02*
X182285714Y-105119047D01*
X181666666Y-105119047D01*
X254738095Y-105452380D02*
X254738095Y-104452380D01*
X254500000Y-104452380D01*
X254357142Y-104500000D01*
X254261904Y-104595238D01*
X254214285Y-104690476D01*
X254166666Y-104880952D01*
X254166666Y-105023809D01*
X254214285Y-105214285D01*
X254261904Y-105309523D01*
X254357142Y-105404761D01*
X254500000Y-105452380D01*
X254738095Y-105452380D01*
X253309523Y-104452380D02*
X253500000Y-104452380D01*
X253595238Y-104500000D01*
X253642857Y-104547619D01*
X253738095Y-104690476D01*
X253785714Y-104880952D01*
X253785714Y-105261904D01*
X253738095Y-105357142D01*
X253690476Y-105404761D01*
X253595238Y-105452380D01*
X253404761Y-105452380D01*
X253309523Y-105404761D01*
X253261904Y-105357142D01*
X253214285Y-105261904D01*
X253214285Y-105023809D01*
X253261904Y-104928571D01*
X253309523Y-104880952D01*
X253404761Y-104833333D01*
X253595238Y-104833333D01*
X253690476Y-104880952D01*
X253738095Y-104928571D01*
X253785714Y-105023809D01*
X219238095Y-105452380D02*
X219238095Y-104452380D01*
X219000000Y-104452380D01*
X218857142Y-104500000D01*
X218761904Y-104595238D01*
X218714285Y-104690476D01*
X218666666Y-104880952D01*
X218666666Y-105023809D01*
X218714285Y-105214285D01*
X218761904Y-105309523D01*
X218857142Y-105404761D01*
X219000000Y-105452380D01*
X219238095Y-105452380D01*
X217761904Y-104452380D02*
X218238095Y-104452380D01*
X218285714Y-104928571D01*
X218238095Y-104880952D01*
X218142857Y-104833333D01*
X217904761Y-104833333D01*
X217809523Y-104880952D01*
X217761904Y-104928571D01*
X217714285Y-105023809D01*
X217714285Y-105261904D01*
X217761904Y-105357142D01*
X217809523Y-105404761D01*
X217904761Y-105452380D01*
X218142857Y-105452380D01*
X218238095Y-105404761D01*
X218285714Y-105357142D01*
X147238095Y-105452380D02*
X147238095Y-104452380D01*
X147000000Y-104452380D01*
X146857142Y-104500000D01*
X146761904Y-104595238D01*
X146714285Y-104690476D01*
X146666666Y-104880952D01*
X146666666Y-105023809D01*
X146714285Y-105214285D01*
X146761904Y-105309523D01*
X146857142Y-105404761D01*
X147000000Y-105452380D01*
X147238095Y-105452380D01*
X146333333Y-104452380D02*
X145714285Y-104452380D01*
X146047619Y-104833333D01*
X145904761Y-104833333D01*
X145809523Y-104880952D01*
X145761904Y-104928571D01*
X145714285Y-105023809D01*
X145714285Y-105261904D01*
X145761904Y-105357142D01*
X145809523Y-105404761D01*
X145904761Y-105452380D01*
X146190476Y-105452380D01*
X146285714Y-105404761D01*
X146333333Y-105357142D01*
X111238095Y-105452380D02*
X111238095Y-104452380D01*
X111000000Y-104452380D01*
X110857142Y-104500000D01*
X110761904Y-104595238D01*
X110714285Y-104690476D01*
X110666666Y-104880952D01*
X110666666Y-105023809D01*
X110714285Y-105214285D01*
X110761904Y-105309523D01*
X110857142Y-105404761D01*
X111000000Y-105452380D01*
X111238095Y-105452380D01*
X110285714Y-104547619D02*
X110238095Y-104500000D01*
X110142857Y-104452380D01*
X109904761Y-104452380D01*
X109809523Y-104500000D01*
X109761904Y-104547619D01*
X109714285Y-104642857D01*
X109714285Y-104738095D01*
X109761904Y-104880952D01*
X110333333Y-105452380D01*
X109714285Y-105452380D01*
X75238095Y-105452380D02*
X75238095Y-104452380D01*
X75000000Y-104452380D01*
X74857142Y-104500000D01*
X74761904Y-104595238D01*
X74714285Y-104690476D01*
X74666666Y-104880952D01*
X74666666Y-105023809D01*
X74714285Y-105214285D01*
X74761904Y-105309523D01*
X74857142Y-105404761D01*
X75000000Y-105452380D01*
X75238095Y-105452380D01*
X73714285Y-105452380D02*
X74285714Y-105452380D01*
X74000000Y-105452380D02*
X74000000Y-104452380D01*
X74095238Y-104595238D01*
X74190476Y-104690476D01*
X74285714Y-104738095D01*
M02*
